<svg xmlns="http://www.w3.org/2000/svg" xmlns:xlink="http://www.w3.org/1999/xlink" contentStyleType="text/css" data-diagram-type="SEQUENCE" height="1796px" preserveAspectRatio="none" style="width:969px;height:1796px;background:#FFFFFF;" version="1.1" viewBox="0 0 969 1796" width="969px" zoomAndPan="magnify"><defs/><g><rect fill="#D3D3D3" height="1784.5156" style="stroke:#181818;stroke-width:0.5;" width="471.3345" x="16" y="6"/><text fill="#000000" font-family="sans-serif" font-size="13" font-weight="bold" lengthAdjust="spacing" textLength="144.314" x="179.5103" y="18.0669">Application Process</text><rect fill="transparent" height="1417.125" style="stroke:#000000;stroke-width:1.5;" width="952.4634" x="10" y="277.0938"/><g><title>User</title><rect fill="transparent" height="1609.7891" width="8" x="34.9551" y="101.4297"/><line style="stroke:#181818;stroke-width:0.5;stroke-dasharray:5.0,5.0;" x1="38" x2="38" y1="101.4297" y2="1711.2188"/></g><g><title>DeadlineMonitor</title><rect fill="transparent" height="1609.7891" width="8" x="175.8472" y="101.4297"/><line style="stroke:#181818;stroke-width:0.5;stroke-dasharray:5.0,5.0;" x1="179.1758" x2="179.1758" y1="101.4297" y2="1711.2188"/></g><g><title>Deadline</title><rect fill="transparent" height="1609.7891" width="8" x="318.0825" y="101.4297"/><line style="stroke:#181818;stroke-width:0.5;stroke-dasharray:5.0,5.0;" x1="322.02" x2="322.02" y1="101.4297" y2="1711.2188"/></g><g><title>HealthMonitor</title><rect fill="transparent" height="1609.7891" width="8" x="422.7397" y="101.4297"/><line style="stroke:#181818;stroke-width:0.5;stroke-dasharray:5.0,5.0;" x1="426.145" x2="426.145" y1="101.4297" y2="1711.2188"/></g><g><title>LaunchManager</title><rect fill="transparent" height="1609.7891" width="8" x="590.8125" y="101.4297"/><line style="stroke:#181818;stroke-width:0.5;stroke-dasharray:5.0,5.0;" x1="594.7817" x2="594.7817" y1="101.4297" y2="1711.2188"/></g><text fill="#000000" font-family="sans-serif" font-size="14" lengthAdjust="spacing" textLength="31.9102" x="20" y="98.1279">User</text><ellipse cx="38.9551" cy="33.6328" fill="#E2E2F0" rx="8" ry="8" style="stroke:#181818;stroke-width:0.5;"/><path d="M38.9551,41.6328 L38.9551,68.6328 M25.9551,49.6328 L51.9551,49.6328 M38.9551,68.6328 L25.9551,83.6328 M38.9551,68.6328 L51.9551,83.6328 " fill="transparent" style="stroke:#181818;stroke-width:0.5;"/><text fill="#000000" font-family="sans-serif" font-size="14" lengthAdjust="spacing" textLength="31.9102" x="20" y="1723.2139">User</text><ellipse cx="38.9551" cy="1735.0156" fill="#E2E2F0" rx="8" ry="8" style="stroke:#181818;stroke-width:0.5;"/><path d="M38.9551,1743.0156 L38.9551,1770.0156 M25.9551,1751.0156 L51.9551,1751.0156 M38.9551,1770.0156 L25.9551,1785.0156 M38.9551,1770.0156 L51.9551,1785.0156 " fill="transparent" style="stroke:#181818;stroke-width:0.5;"/><rect fill="#E2E2F0" height="30.2969" rx="2.5" ry="2.5" style="stroke:#181818;stroke-width:0.5;" width="129.3428" x="115.1758" y="70.1328"/><text fill="#000000" font-family="sans-serif" font-size="14" lengthAdjust="spacing" textLength="115.3428" x="122.1758" y="90.1279">DeadlineMonitor</text><rect fill="#E2E2F0" height="30.2969" rx="2.5" ry="2.5" style="stroke:#181818;stroke-width:0.5;" width="129.3428" x="115.1758" y="1710.2188"/><text fill="#000000" font-family="sans-serif" font-size="14" lengthAdjust="spacing" textLength="115.3428" x="122.1758" y="1730.2139">DeadlineMonitor</text><rect fill="#E2E2F0" height="30.2969" rx="2.5" ry="2.5" style="stroke:#181818;stroke-width:0.5;" width="76.125" x="284.02" y="70.1328"/><text fill="#000000" font-family="sans-serif" font-size="14" lengthAdjust="spacing" textLength="62.125" x="291.02" y="90.1279">Deadline</text><rect fill="#E2E2F0" height="30.2969" rx="2.5" ry="2.5" style="stroke:#181818;stroke-width:0.5;" width="76.125" x="284.02" y="1710.2188"/><text fill="#000000" font-family="sans-serif" font-size="14" lengthAdjust="spacing" textLength="62.125" x="291.02" y="1730.2139">Deadline</text><rect fill="#E2E2F0" height="30.2969" rx="2.5" ry="2.5" style="stroke:#181818;stroke-width:0.5;" width="113.1895" x="370.145" y="70.1328"/><text fill="#000000" font-family="sans-serif" font-size="14" lengthAdjust="spacing" textLength="99.1895" x="377.145" y="90.1279">HealthMonitor</text><rect fill="#E2E2F0" height="30.2969" rx="2.5" ry="2.5" style="stroke:#181818;stroke-width:0.5;" width="113.1895" x="370.145" y="1710.2188"/><text fill="#000000" font-family="sans-serif" font-size="14" lengthAdjust="spacing" textLength="99.1895" x="377.145" y="1730.2139">HealthMonitor</text><rect fill="#E2E2F0" height="30.2969" rx="2.5" ry="2.5" style="stroke:#181818;stroke-width:0.5;" width="126.0615" x="531.7817" y="70.1328"/><text fill="#000000" font-family="sans-serif" font-size="14" lengthAdjust="spacing" textLength="112.0615" x="538.7817" y="90.1279">LaunchManager</text><rect fill="#E2E2F0" height="30.2969" rx="2.5" ry="2.5" style="stroke:#181818;stroke-width:0.5;" width="126.0615" x="531.7817" y="1710.2188"/><text fill="#000000" font-family="sans-serif" font-size="14" lengthAdjust="spacing" textLength="112.0615" x="538.7817" y="1730.2139">LaunchManager</text><polygon fill="#181818" points="414.7397,128.5625,424.7397,132.5625,414.7397,136.5625,418.7397,132.5625" style="stroke:#181818;stroke-width:1;"/><line style="stroke:#181818;stroke-width:1;" x1="38.9551" x2="420.7397" y1="132.5625" y2="132.5625"/><text fill="#000000" font-family="sans-serif" font-size="13" lengthAdjust="spacing" textLength="134.4053" x="45.9551" y="127.4966">Get DeadlineMonitor</text><polygon fill="#181818" points="49.9551,157.6953,39.9551,161.6953,49.9551,165.6953,45.9551,161.6953" style="stroke:#181818;stroke-width:1;"/><line style="stroke:#181818;stroke-width:1;stroke-dasharray:2.0,2.0;" x1="43.9551" x2="425.7397" y1="161.6953" y2="161.6953"/><text fill="#000000" font-family="sans-serif" font-size="13" lengthAdjust="spacing" textLength="166.3086" x="55.9551" y="156.6294">DeadlineMonitor instance</text><polygon fill="#181818" points="167.8472,186.8281,177.8472,190.8281,167.8472,194.8281,171.8472,190.8281" style="stroke:#181818;stroke-width:1;"/><line style="stroke:#181818;stroke-width:1;" x1="38.9551" x2="173.8472" y1="190.8281" y2="190.8281"/><text fill="#000000" font-family="sans-serif" font-size="13" lengthAdjust="spacing" textLength="105.3013" x="45.9551" y="185.7622">Create Deadline</text><line style="stroke:#181818;stroke-width:1;" x1="179.8472" x2="221.8472" y1="219.9609" y2="219.9609"/><line style="stroke:#181818;stroke-width:1;" x1="221.8472" x2="221.8472" y1="219.9609" y2="232.9609"/><line style="stroke:#181818;stroke-width:1;" x1="180.8472" x2="221.8472" y1="232.9609" y2="232.9609"/><polygon fill="#181818" points="190.8472,228.9609,180.8472,232.9609,190.8472,236.9609,186.8472,232.9609" style="stroke:#181818;stroke-width:1;"/><text fill="#000000" font-family="sans-serif" font-size="13" lengthAdjust="spacing" textLength="114.1689" x="186.8472" y="214.895">Register deadline</text><polygon fill="#181818" points="49.9551,258.0938,39.9551,262.0938,49.9551,266.0938,45.9551,262.0938" style="stroke:#181818;stroke-width:1;"/><line style="stroke:#181818;stroke-width:1;stroke-dasharray:2.0,2.0;" x1="43.9551" x2="178.8472" y1="262.0938" y2="262.0938"/><text fill="#000000" font-family="sans-serif" font-size="13" lengthAdjust="spacing" textLength="116.8921" x="55.9551" y="257.0278">Deadline instance</text><path d="M10,277.0938 L74.4429,277.0938 L74.4429,284.2266 L64.4429,294.2266 L10,294.2266 L10,277.0938 " fill="#EEEEEE" style="stroke:#000000;stroke-width:1.5;"/><rect fill="transparent" height="1417.125" style="stroke:#000000;stroke-width:1.5;" width="952.4634" x="10" y="277.0938"/><text fill="#000000" font-family="sans-serif" font-size="13" font-weight="bold" lengthAdjust="spacing" textLength="19.4429" x="25" y="290.1606">alt</text><text fill="#000000" font-family="sans-serif" font-size="11" font-weight="bold" lengthAdjust="spacing" textLength="230.7368" x="89.4429" y="289.3042">[Deadline stopped before expiration]</text><polygon fill="#181818" points="310.0825,311.3594,320.0825,315.3594,310.0825,319.3594,314.0825,315.3594" style="stroke:#181818;stroke-width:1;"/><line style="stroke:#181818;stroke-width:1;" x1="38.9551" x2="316.0825" y1="315.3594" y2="315.3594"/><text fill="#000000" font-family="sans-serif" font-size="13" lengthAdjust="spacing" textLength="31.7573" x="45.9551" y="310.2935">Start</text><polygon fill="#181818" points="49.9551,340.4922,39.9551,344.4922,49.9551,348.4922,45.9551,344.4922" style="stroke:#181818;stroke-width:1;"/><line style="stroke:#181818;stroke-width:1;stroke-dasharray:2.0,2.0;" x1="43.9551" x2="321.0825" y1="344.4922" y2="344.4922"/><text fill="#000000" font-family="sans-serif" font-size="13" lengthAdjust="spacing" textLength="17.7607" x="55.9551" y="339.4263">Ok</text><polygon fill="#181818" points="190.8472,372.625,180.8472,376.625,190.8472,380.625,186.8472,376.625" style="stroke:#181818;stroke-width:1;"/><line style="stroke:#181818;stroke-width:1;" x1="184.8472" x2="425.7397" y1="376.625" y2="376.625"/><text fill="#000000" font-family="sans-serif" font-size="13" lengthAdjust="spacing" textLength="106.8247" x="196.8472" y="371.5591">Check deadlines</text><path d="M431,357.4922 L431,382.4922 L763,382.4922 L763,367.4922 L753,357.4922 L431,357.4922 " fill="#FEFFDD" style="stroke:#181818;stroke-width:0.5;"/><path d="M753,357.4922 L753,367.4922 L763,367.4922 L753,357.4922 " fill="#FEFFDD" style="stroke:#181818;stroke-width:0.5;"/><text fill="#000000" font-family="sans-serif" font-size="13" lengthAdjust="spacing" textLength="311.4858" x="437" y="374.5591">HealthMonitor does this in a background thread</text><polygon fill="#181818" points="414.7397,404.7578,424.7397,408.7578,414.7397,412.7578,418.7397,408.7578" style="stroke:#181818;stroke-width:1;"/><line style="stroke:#181818;stroke-width:1;stroke-dasharray:2.0,2.0;" x1="179.8472" x2="420.7397" y1="408.7578" y2="408.7578"/><text fill="#000000" font-family="sans-serif" font-size="13" lengthAdjust="spacing" textLength="17.7607" x="186.8472" y="403.6919">Ok</text><polygon fill="#181818" points="582.8125,433.8906,592.8125,437.8906,582.8125,441.8906,586.8125,437.8906" style="stroke:#181818;stroke-width:1;"/><line style="stroke:#181818;stroke-width:1;stroke-dasharray:2.0,2.0;" x1="426.7397" x2="588.8125" y1="437.8906" y2="437.8906"/><text fill="#000000" font-family="sans-serif" font-size="13" lengthAdjust="spacing" textLength="144.0728" x="433.7397" y="432.8247">Alive notification (IPC)</text><polygon fill="#181818" points="310.0825,463.0234,320.0825,467.0234,310.0825,471.0234,314.0825,467.0234" style="stroke:#181818;stroke-width:1;"/><line style="stroke:#181818;stroke-width:1;" x1="38.9551" x2="316.0825" y1="467.0234" y2="467.0234"/><text fill="#000000" font-family="sans-serif" font-size="13" lengthAdjust="spacing" textLength="29.5547" x="45.9551" y="461.9575">Stop</text><polygon fill="#181818" points="49.9551,492.1563,39.9551,496.1563,49.9551,500.1563,45.9551,496.1563" style="stroke:#181818;stroke-width:1;"/><line style="stroke:#181818;stroke-width:1;stroke-dasharray:2.0,2.0;" x1="43.9551" x2="321.0825" y1="496.1563" y2="496.1563"/><text fill="#000000" font-family="sans-serif" font-size="13" lengthAdjust="spacing" textLength="17.7607" x="55.9551" y="491.0903">Ok</text><line style="stroke:#181818;stroke-width:1;" x1="179.8472" x2="221.8472" y1="525.2891" y2="525.2891"/><line style="stroke:#181818;stroke-width:1;" x1="221.8472" x2="221.8472" y1="525.2891" y2="538.2891"/><line style="stroke:#181818;stroke-width:1;" x1="180.8472" x2="221.8472" y1="538.2891" y2="538.2891"/><polygon fill="#181818" points="190.8472,534.2891,180.8472,538.2891,190.8472,542.2891,186.8472,538.2891" style="stroke:#181818;stroke-width:1;"/><text fill="#000000" font-family="sans-serif" font-size="13" lengthAdjust="spacing" textLength="128.2354" x="186.8472" y="520.2231">Unregister deadline</text><line style="stroke:#000000;stroke-width:1;stroke-dasharray:2.0,2.0;" x1="10" x2="962.4634" y1="547.2891" y2="547.2891"/><text fill="#000000" font-family="sans-serif" font-size="11" font-weight="bold" lengthAdjust="spacing" textLength="220.5264" x="15" y="557.4995">[Deadline stopped after expiration]</text><polygon fill="#181818" points="310.0825,578.2266,320.0825,582.2266,310.0825,586.2266,314.0825,582.2266" style="stroke:#181818;stroke-width:1;"/><line style="stroke:#181818;stroke-width:1;" x1="38.9551" x2="316.0825" y1="582.2266" y2="582.2266"/><text fill="#000000" font-family="sans-serif" font-size="13" lengthAdjust="spacing" textLength="31.7573" x="45.9551" y="577.1606">Start</text><polygon fill="#181818" points="49.9551,607.3594,39.9551,611.3594,49.9551,615.3594,45.9551,611.3594" style="stroke:#181818;stroke-width:1;"/><line style="stroke:#181818;stroke-width:1;stroke-dasharray:2.0,2.0;" x1="43.9551" x2="321.0825" y1="611.3594" y2="611.3594"/><text fill="#000000" font-family="sans-serif" font-size="13" lengthAdjust="spacing" textLength="17.7607" x="55.9551" y="606.2935">Ok</text><polygon fill="#181818" points="190.8472,639.4922,180.8472,643.4922,190.8472,647.4922,186.8472,643.4922" style="stroke:#181818;stroke-width:1;"/><line style="stroke:#181818;stroke-width:1;" x1="184.8472" x2="425.7397" y1="643.4922" y2="643.4922"/><text fill="#000000" font-family="sans-serif" font-size="13" lengthAdjust="spacing" textLength="106.8247" x="196.8472" y="638.4263">Check deadlines</text><path d="M431,624.3594 L431,649.3594 L763,649.3594 L763,634.3594 L753,624.3594 L431,624.3594 " fill="#FEFFDD" style="stroke:#181818;stroke-width:0.5;"/><path d="M753,624.3594 L753,634.3594 L763,634.3594 L753,624.3594 " fill="#FEFFDD" style="stroke:#181818;stroke-width:0.5;"/><text fill="#000000" font-family="sans-serif" font-size="13" lengthAdjust="spacing" textLength="311.4858" x="437" y="641.4263">HealthMonitor does this in a background thread</text><line style="stroke:#181818;stroke-width:1;" x1="179.8472" x2="221.8472" y1="675.625" y2="675.625"/><line style="stroke:#181818;stroke-width:1;" x1="221.8472" x2="221.8472" y1="675.625" y2="688.625"/><line style="stroke:#181818;stroke-width:1;" x1="180.8472" x2="221.8472" y1="688.625" y2="688.625"/><polygon fill="#181818" points="190.8472,684.625,180.8472,688.625,190.8472,692.625,186.8472,688.625" style="stroke:#181818;stroke-width:1;"/><text fill="#000000" font-family="sans-serif" font-size="13" lengthAdjust="spacing" textLength="110.9697" x="186.8472" y="670.5591">Deadline expired</text><polygon fill="#181818" points="414.7397,716.7578,424.7397,720.7578,414.7397,724.7578,418.7397,720.7578" style="stroke:#181818;stroke-width:1;"/><line style="stroke:#181818;stroke-width:1;stroke-dasharray:2.0,2.0;" x1="179.8472" x2="420.7397" y1="720.7578" y2="720.7578"/><text fill="#000000" font-family="sans-serif" font-size="13" lengthAdjust="spacing" textLength="38.9175" x="186.8472" y="715.6919">Failed</text><path d="M431,701.625 L431,726.625 L633,726.625 L633,711.625 L623,701.625 L431,701.625 " fill="#FEFFDD" style="stroke:#181818;stroke-width:0.5;"/><path d="M623,701.625 L623,711.625 L633,711.625 L623,701.625 " fill="#FEFFDD" style="stroke:#181818;stroke-width:0.5;"/><text fill="#000000" font-family="sans-serif" font-size="13" lengthAdjust="spacing" textLength="181.2256" x="437" y="718.6919">Alive notification is not sent</text><polygon fill="#181818" points="310.0825,748.8906,320.0825,752.8906,310.0825,756.8906,314.0825,752.8906" style="stroke:#181818;stroke-width:1;"/><line style="stroke:#181818;stroke-width:1;" x1="38.9551" x2="316.0825" y1="752.8906" y2="752.8906"/><text fill="#000000" font-family="sans-serif" font-size="13" lengthAdjust="spacing" textLength="29.5547" x="45.9551" y="747.8247">Stop</text><polygon fill="#181818" points="49.9551,778.0234,39.9551,782.0234,49.9551,786.0234,45.9551,782.0234" style="stroke:#181818;stroke-width:1;"/><line style="stroke:#181818;stroke-width:1;stroke-dasharray:2.0,2.0;" x1="43.9551" x2="321.0825" y1="782.0234" y2="782.0234"/><text fill="#000000" font-family="sans-serif" font-size="13" lengthAdjust="spacing" textLength="32.2017" x="55.9551" y="776.9575">Error</text><line style="stroke:#181818;stroke-width:1;" x1="179.8472" x2="221.8472" y1="811.1563" y2="811.1563"/><line style="stroke:#181818;stroke-width:1;" x1="221.8472" x2="221.8472" y1="811.1563" y2="824.1563"/><line style="stroke:#181818;stroke-width:1;" x1="180.8472" x2="221.8472" y1="824.1563" y2="824.1563"/><polygon fill="#181818" points="190.8472,820.1563,180.8472,824.1563,190.8472,828.1563,186.8472,824.1563" style="stroke:#181818;stroke-width:1;"/><text fill="#000000" font-family="sans-serif" font-size="13" lengthAdjust="spacing" textLength="128.2354" x="186.8472" y="806.0903">Unregister deadline</text><line style="stroke:#000000;stroke-width:1;stroke-dasharray:2.0,2.0;" x1="10" x2="962.4634" y1="833.1563" y2="833.1563"/><text fill="#000000" font-family="sans-serif" font-size="11" font-weight="bold" lengthAdjust="spacing" textLength="212.2979" x="15" y="843.3667">[Deadline stopped while disabled]</text><polygon fill="#181818" points="310.0825,864.0938,320.0825,868.0938,310.0825,872.0938,314.0825,868.0938" style="stroke:#181818;stroke-width:1;"/><line style="stroke:#181818;stroke-width:1;" x1="38.9551" x2="316.0825" y1="868.0938" y2="868.0938"/><text fill="#000000" font-family="sans-serif" font-size="13" lengthAdjust="spacing" textLength="31.7573" x="45.9551" y="863.0278">Start</text><polygon fill="#181818" points="49.9551,893.2266,39.9551,897.2266,49.9551,901.2266,45.9551,897.2266" style="stroke:#181818;stroke-width:1;"/><line style="stroke:#181818;stroke-width:1;stroke-dasharray:2.0,2.0;" x1="43.9551" x2="321.0825" y1="897.2266" y2="897.2266"/><text fill="#000000" font-family="sans-serif" font-size="13" lengthAdjust="spacing" textLength="17.7607" x="55.9551" y="892.1606">Ok</text><polygon fill="#181818" points="167.8472,922.3594,177.8472,926.3594,167.8472,930.3594,171.8472,926.3594" style="stroke:#181818;stroke-width:1;"/><line style="stroke:#181818;stroke-width:1;" x1="38.9551" x2="173.8472" y1="926.3594" y2="926.3594"/><text fill="#000000" font-family="sans-serif" font-size="13" lengthAdjust="spacing" textLength="48.2231" x="45.9551" y="921.2935">Disable</text><polygon fill="#181818" points="49.9551,951.4922,39.9551,955.4922,49.9551,959.4922,45.9551,955.4922" style="stroke:#181818;stroke-width:1;"/><line style="stroke:#181818;stroke-width:1;stroke-dasharray:2.0,2.0;" x1="43.9551" x2="178.8472" y1="955.4922" y2="955.4922"/><text fill="#000000" font-family="sans-serif" font-size="13" lengthAdjust="spacing" textLength="17.7607" x="55.9551" y="950.4263">Ok</text><polygon fill="#181818" points="190.8472,983.625,180.8472,987.625,190.8472,991.625,186.8472,987.625" style="stroke:#181818;stroke-width:1;"/><line style="stroke:#181818;stroke-width:1;" x1="184.8472" x2="425.7397" y1="987.625" y2="987.625"/><text fill="#000000" font-family="sans-serif" font-size="13" lengthAdjust="spacing" textLength="106.8247" x="196.8472" y="982.5591">Check deadlines</text><path d="M431,968.4922 L431,993.4922 L763,993.4922 L763,978.4922 L753,968.4922 L431,968.4922 " fill="#FEFFDD" style="stroke:#181818;stroke-width:0.5;"/><path d="M753,968.4922 L753,978.4922 L763,978.4922 L753,968.4922 " fill="#FEFFDD" style="stroke:#181818;stroke-width:0.5;"/><text fill="#000000" font-family="sans-serif" font-size="13" lengthAdjust="spacing" textLength="311.4858" x="437" y="985.5591">HealthMonitor does this in a background thread</text><polygon fill="#181818" points="414.7397,1018.7578,424.7397,1022.7578,414.7397,1026.7578,418.7397,1022.7578" style="stroke:#181818;stroke-width:1;"/><line style="stroke:#181818;stroke-width:1;stroke-dasharray:2.0,2.0;" x1="179.8472" x2="420.7397" y1="1022.7578" y2="1022.7578"/><text fill="#000000" font-family="sans-serif" font-size="13" lengthAdjust="spacing" textLength="17.7607" x="186.8472" y="1017.6919">Ok</text><path d="M431,1003.625 L431,1028.625 L946,1028.625 L946,1013.625 L936,1003.625 L431,1003.625 " fill="#FEFFDD" style="stroke:#181818;stroke-width:0.5;"/><path d="M936,1003.625 L936,1013.625 L946,1013.625 L936,1003.625 " fill="#FEFFDD" style="stroke:#181818;stroke-width:0.5;"/><text fill="#000000" font-family="sans-serif" font-size="13" lengthAdjust="spacing" textLength="494.7236" x="437" y="1020.6919">The DeadlineMonitor is disabled, the deadlines are paused and not checked</text><polygon fill="#181818" points="582.8125,1050.8906,592.8125,1054.8906,582.8125,1058.8906,586.8125,1054.8906" style="stroke:#181818;stroke-width:1;"/><line style="stroke:#181818;stroke-width:1;stroke-dasharray:2.0,2.0;" x1="426.7397" x2="588.8125" y1="1054.8906" y2="1054.8906"/><text fill="#000000" font-family="sans-serif" font-size="13" lengthAdjust="spacing" textLength="144.0728" x="433.7397" y="1049.8247">Alive notification (IPC)</text><polygon fill="#181818" points="310.0825,1080.0234,320.0825,1084.0234,310.0825,1088.0234,314.0825,1084.0234" style="stroke:#181818;stroke-width:1;"/><line style="stroke:#181818;stroke-width:1;" x1="38.9551" x2="316.0825" y1="1084.0234" y2="1084.0234"/><text fill="#000000" font-family="sans-serif" font-size="13" lengthAdjust="spacing" textLength="29.5547" x="45.9551" y="1078.9575">Stop</text><polygon fill="#181818" points="49.9551,1109.1563,39.9551,1113.1563,49.9551,1117.1563,45.9551,1113.1563" style="stroke:#181818;stroke-width:1;"/><line style="stroke:#181818;stroke-width:1;stroke-dasharray:2.0,2.0;" x1="43.9551" x2="321.0825" y1="1113.1563" y2="1113.1563"/><text fill="#000000" font-family="sans-serif" font-size="13" lengthAdjust="spacing" textLength="17.7607" x="55.9551" y="1108.0903">Ok</text><line style="stroke:#181818;stroke-width:1;" x1="179.8472" x2="221.8472" y1="1142.2891" y2="1142.2891"/><line style="stroke:#181818;stroke-width:1;" x1="221.8472" x2="221.8472" y1="1142.2891" y2="1155.2891"/><line style="stroke:#181818;stroke-width:1;" x1="180.8472" x2="221.8472" y1="1155.2891" y2="1155.2891"/><polygon fill="#181818" points="190.8472,1151.2891,180.8472,1155.2891,190.8472,1159.2891,186.8472,1155.2891" style="stroke:#181818;stroke-width:1;"/><text fill="#000000" font-family="sans-serif" font-size="13" lengthAdjust="spacing" textLength="128.2354" x="186.8472" y="1137.2231">Unregister deadline</text><polygon fill="#181818" points="167.8472,1180.4219,177.8472,1184.4219,167.8472,1188.4219,171.8472,1184.4219" style="stroke:#181818;stroke-width:1;"/><line style="stroke:#181818;stroke-width:1;" x1="38.9551" x2="173.8472" y1="1184.4219" y2="1184.4219"/><text fill="#000000" font-family="sans-serif" font-size="13" lengthAdjust="spacing" textLength="44.2813" x="45.9551" y="1179.356">Enable</text><polygon fill="#181818" points="49.9551,1209.5547,39.9551,1213.5547,49.9551,1217.5547,45.9551,1213.5547" style="stroke:#181818;stroke-width:1;"/><line style="stroke:#181818;stroke-width:1;stroke-dasharray:2.0,2.0;" x1="43.9551" x2="178.8472" y1="1213.5547" y2="1213.5547"/><text fill="#000000" font-family="sans-serif" font-size="13" lengthAdjust="spacing" textLength="17.7607" x="55.9551" y="1208.4888">Ok</text><line style="stroke:#000000;stroke-width:1;stroke-dasharray:2.0,2.0;" x1="10" x2="962.4634" y1="1222.5547" y2="1222.5547"/><text fill="#000000" font-family="sans-serif" font-size="11" font-weight="bold" lengthAdjust="spacing" textLength="203.269" x="15" y="1232.7651">[Deadline expired after enabled]</text><polygon fill="#181818" points="310.0825,1253.4922,320.0825,1257.4922,310.0825,1261.4922,314.0825,1257.4922" style="stroke:#181818;stroke-width:1;"/><line style="stroke:#181818;stroke-width:1;" x1="38.9551" x2="316.0825" y1="1257.4922" y2="1257.4922"/><text fill="#000000" font-family="sans-serif" font-size="13" lengthAdjust="spacing" textLength="31.7573" x="45.9551" y="1252.4263">Start</text><polygon fill="#181818" points="49.9551,1282.625,39.9551,1286.625,49.9551,1290.625,45.9551,1286.625" style="stroke:#181818;stroke-width:1;"/><line style="stroke:#181818;stroke-width:1;stroke-dasharray:2.0,2.0;" x1="43.9551" x2="321.0825" y1="1286.625" y2="1286.625"/><text fill="#000000" font-family="sans-serif" font-size="13" lengthAdjust="spacing" textLength="17.7607" x="55.9551" y="1281.5591">Ok</text><polygon fill="#181818" points="167.8472,1311.7578,177.8472,1315.7578,167.8472,1319.7578,171.8472,1315.7578" style="stroke:#181818;stroke-width:1;"/><line style="stroke:#181818;stroke-width:1;" x1="38.9551" x2="173.8472" y1="1315.7578" y2="1315.7578"/><text fill="#000000" font-family="sans-serif" font-size="13" lengthAdjust="spacing" textLength="48.2231" x="45.9551" y="1310.6919">Disable</text><polygon fill="#181818" points="49.9551,1340.8906,39.9551,1344.8906,49.9551,1348.8906,45.9551,1344.8906" style="stroke:#181818;stroke-width:1;"/><line style="stroke:#181818;stroke-width:1;stroke-dasharray:2.0,2.0;" x1="43.9551" x2="178.8472" y1="1344.8906" y2="1344.8906"/><text fill="#000000" font-family="sans-serif" font-size="13" lengthAdjust="spacing" textLength="17.7607" x="55.9551" y="1339.8247">Ok</text><polygon fill="#181818" points="190.8472,1373.0234,180.8472,1377.0234,190.8472,1381.0234,186.8472,1377.0234" style="stroke:#181818;stroke-width:1;"/><line style="stroke:#181818;stroke-width:1;" x1="184.8472" x2="425.7397" y1="1377.0234" y2="1377.0234"/><text fill="#000000" font-family="sans-serif" font-size="13" lengthAdjust="spacing" textLength="106.8247" x="196.8472" y="1371.9575">Check deadlines</text><path d="M431,1357.8906 L431,1382.8906 L763,1382.8906 L763,1367.8906 L753,1357.8906 L431,1357.8906 " fill="#FEFFDD" style="stroke:#181818;stroke-width:0.5;"/><path d="M753,1357.8906 L753,1367.8906 L763,1367.8906 L753,1357.8906 " fill="#FEFFDD" style="stroke:#181818;stroke-width:0.5;"/><text fill="#000000" font-family="sans-serif" font-size="13" lengthAdjust="spacing" textLength="311.4858" x="437" y="1374.9575">HealthMonitor does this in a background thread</text><polygon fill="#181818" points="414.7397,1408.1563,424.7397,1412.1563,414.7397,1416.1563,418.7397,1412.1563" style="stroke:#181818;stroke-width:1;"/><line style="stroke:#181818;stroke-width:1;stroke-dasharray:2.0,2.0;" x1="179.8472" x2="420.7397" y1="1412.1563" y2="1412.1563"/><text fill="#000000" font-family="sans-serif" font-size="13" lengthAdjust="spacing" textLength="17.7607" x="186.8472" y="1407.0903">Ok</text><path d="M431,1393.0234 L431,1418.0234 L946,1418.0234 L946,1403.0234 L936,1393.0234 L431,1393.0234 " fill="#FEFFDD" style="stroke:#181818;stroke-width:0.5;"/><path d="M936,1393.0234 L936,1403.0234 L946,1403.0234 L936,1393.0234 " fill="#FEFFDD" style="stroke:#181818;stroke-width:0.5;"/><text fill="#000000" font-family="sans-serif" font-size="13" lengthAdjust="spacing" textLength="494.7236" x="437" y="1410.0903">The DeadlineMonitor is disabled, the deadlines are paused and not checked</text><polygon fill="#181818" points="167.8472,1440.2891,177.8472,1444.2891,167.8472,1448.2891,171.8472,1444.2891" style="stroke:#181818;stroke-width:1;"/><line style="stroke:#181818;stroke-width:1;" x1="38.9551" x2="173.8472" y1="1444.2891" y2="1444.2891"/><text fill="#000000" font-family="sans-serif" font-size="13" lengthAdjust="spacing" textLength="44.2813" x="45.9551" y="1439.2231">Enable</text><polygon fill="#181818" points="49.9551,1469.4219,39.9551,1473.4219,49.9551,1477.4219,45.9551,1473.4219" style="stroke:#181818;stroke-width:1;"/><line style="stroke:#181818;stroke-width:1;stroke-dasharray:2.0,2.0;" x1="43.9551" x2="178.8472" y1="1473.4219" y2="1473.4219"/><text fill="#000000" font-family="sans-serif" font-size="13" lengthAdjust="spacing" textLength="17.7607" x="55.9551" y="1468.356">Ok</text><polygon fill="#181818" points="190.8472,1501.5547,180.8472,1505.5547,190.8472,1509.5547,186.8472,1505.5547" style="stroke:#181818;stroke-width:1;"/><line style="stroke:#181818;stroke-width:1;" x1="184.8472" x2="425.7397" y1="1505.5547" y2="1505.5547"/><text fill="#000000" font-family="sans-serif" font-size="13" lengthAdjust="spacing" textLength="106.8247" x="196.8472" y="1500.4888">Check deadlines</text><path d="M431,1486.4219 L431,1511.4219 L763,1511.4219 L763,1496.4219 L753,1486.4219 L431,1486.4219 " fill="#FEFFDD" style="stroke:#181818;stroke-width:0.5;"/><path d="M753,1486.4219 L753,1496.4219 L763,1496.4219 L753,1486.4219 " fill="#FEFFDD" style="stroke:#181818;stroke-width:0.5;"/><text fill="#000000" font-family="sans-serif" font-size="13" lengthAdjust="spacing" textLength="311.4858" x="437" y="1503.4888">HealthMonitor does this in a background thread</text><line style="stroke:#181818;stroke-width:1;" x1="179.8472" x2="221.8472" y1="1537.6875" y2="1537.6875"/><line style="stroke:#181818;stroke-width:1;" x1="221.8472" x2="221.8472" y1="1537.6875" y2="1550.6875"/><line style="stroke:#181818;stroke-width:1;" x1="180.8472" x2="221.8472" y1="1550.6875" y2="1550.6875"/><polygon fill="#181818" points="190.8472,1546.6875,180.8472,1550.6875,190.8472,1554.6875,186.8472,1550.6875" style="stroke:#181818;stroke-width:1;"/><text fill="#000000" font-family="sans-serif" font-size="13" lengthAdjust="spacing" textLength="110.9697" x="186.8472" y="1532.6216">Deadline expired</text><polygon fill="#181818" points="414.7397,1578.8203,424.7397,1582.8203,414.7397,1586.8203,418.7397,1582.8203" style="stroke:#181818;stroke-width:1;"/><line style="stroke:#181818;stroke-width:1;stroke-dasharray:2.0,2.0;" x1="179.8472" x2="420.7397" y1="1582.8203" y2="1582.8203"/><text fill="#000000" font-family="sans-serif" font-size="13" lengthAdjust="spacing" textLength="38.9175" x="186.8472" y="1577.7544">Failed</text><path d="M431,1563.6875 L431,1588.6875 L633,1588.6875 L633,1573.6875 L623,1563.6875 L431,1563.6875 " fill="#FEFFDD" style="stroke:#181818;stroke-width:0.5;"/><path d="M623,1563.6875 L623,1573.6875 L633,1573.6875 L623,1563.6875 " fill="#FEFFDD" style="stroke:#181818;stroke-width:0.5;"/><text fill="#000000" font-family="sans-serif" font-size="13" lengthAdjust="spacing" textLength="181.2256" x="437" y="1580.7544">Alive notification is not sent</text><polygon fill="#181818" points="310.0825,1610.9531,320.0825,1614.9531,310.0825,1618.9531,314.0825,1614.9531" style="stroke:#181818;stroke-width:1;"/><line style="stroke:#181818;stroke-width:1;" x1="38.9551" x2="316.0825" y1="1614.9531" y2="1614.9531"/><text fill="#000000" font-family="sans-serif" font-size="13" lengthAdjust="spacing" textLength="29.5547" x="45.9551" y="1609.8872">Stop</text><polygon fill="#181818" points="49.9551,1640.0859,39.9551,1644.0859,49.9551,1648.0859,45.9551,1644.0859" style="stroke:#181818;stroke-width:1;"/><line style="stroke:#181818;stroke-width:1;stroke-dasharray:2.0,2.0;" x1="43.9551" x2="321.0825" y1="1644.0859" y2="1644.0859"/><text fill="#000000" font-family="sans-serif" font-size="13" lengthAdjust="spacing" textLength="32.2017" x="55.9551" y="1639.02">Error</text><line style="stroke:#181818;stroke-width:1;" x1="179.8472" x2="221.8472" y1="1673.2188" y2="1673.2188"/><line style="stroke:#181818;stroke-width:1;" x1="221.8472" x2="221.8472" y1="1673.2188" y2="1686.2188"/><line style="stroke:#181818;stroke-width:1;" x1="180.8472" x2="221.8472" y1="1686.2188" y2="1686.2188"/><polygon fill="#181818" points="190.8472,1682.2188,180.8472,1686.2188,190.8472,1690.2188,186.8472,1686.2188" style="stroke:#181818;stroke-width:1;"/><text fill="#000000" font-family="sans-serif" font-size="13" lengthAdjust="spacing" textLength="128.2354" x="186.8472" y="1668.1528">Unregister deadline</text><!--SRC=[vLFRIWCn47tFLmphYuBz0Hy4iVK2BOgN3vWcqoPqcuGag_NldTtkjQqAWYBuc9p9cJDdJkPk0zc5zxcHc8opS1-Sf1WpE9gQfKxN0Ty4okG2PC-HGWOOeH0UGpBIUBG9iZ6XoesbcRE62wiIjJvSimM7s0rXddJ_jLuBiWhcRYE6fLCihDGpjBYijUHh8GeOdVCRE8DhIh0ZHp0mOhnWU0S2OsD2AsdBe4g6oq2OgAqKVDb03xGqCL40rGTtg3jEmLDrrp4vxubdeeKB1BJn9bIEr_8LSpmcdbMeblDkLOblb6cIgxPt5DQnpb0kYS61Xw0SHKZQH5O327EKgsLm1LkQDC-d6k6LPtKNFkRbyI8tBmHCRXPD9evlxozF-ZAT7whicVHimvvDWl98-rRWegpw0qxKjAt0IX8DNRf2a_DLr-gWKzo7pn39fW_zceJ0gVoUPQ-QLO0o4UUbcayDwp8ztjRtu_fhqHfGFMdQ_uEndUUKEQYJ0SWVnMCHownmWz9PMIhboNyuiPrt4tl0kftjr7bf0ct_-tA-SE-__MIhn3i0]--></g></svg>