<svg xmlns="http://www.w3.org/2000/svg" xmlns:xlink="http://www.w3.org/1999/xlink" contentStyleType="text/css" data-diagram-type="DESCRIPTION" height="305px" preserveAspectRatio="none" style="width:248px;height:305px;background:#FFFFFF;" version="1.1" viewBox="0 0 248 305" width="248px" zoomAndPan="magnify"><defs/><g><!--entity DeadlineMonitorBuilder--><g id="elem_DeadlineMonitorBuilder"><rect fill="#F1F1F1" height="46.2969" rx="2.5" ry="2.5" style="stroke:#181818;stroke-width:0.5;" width="204.8555" x="7" y="7"/><rect fill="#F1F1F1" height="10" style="stroke:#181818;stroke-width:0.5;" width="15" x="191.8555" y="12"/><rect fill="#F1F1F1" height="2" style="stroke:#181818;stroke-width:0.5;" width="4" x="189.8555" y="14"/><rect fill="#F1F1F1" height="2" style="stroke:#181818;stroke-width:0.5;" width="4" x="189.8555" y="18"/><text fill="#000000" font-family="sans-serif" font-size="14" lengthAdjust="spacing" textLength="164.8555" x="22" y="39.9951">DeadlineMonitorBuilder</text></g><!--entity DeadlineMonitor--><g id="elem_DeadlineMonitor"><rect fill="#F1F1F1" height="46.2969" rx="2.5" ry="2.5" style="stroke:#181818;stroke-width:0.5;" width="155.3428" x="32" y="130"/><rect fill="#F1F1F1" height="10" style="stroke:#181818;stroke-width:0.5;" width="15" x="167.3428" y="135"/><rect fill="#F1F1F1" height="2" style="stroke:#181818;stroke-width:0.5;" width="4" x="165.3428" y="137"/><rect fill="#F1F1F1" height="2" style="stroke:#181818;stroke-width:0.5;" width="4" x="165.3428" y="141"/><text fill="#000000" font-family="sans-serif" font-size="14" lengthAdjust="spacing" textLength="115.3428" x="47" y="162.9951">DeadlineMonitor</text></g><!--entity Deadline--><g id="elem_Deadline"><rect fill="#F1F1F1" height="46.2969" rx="2.5" ry="2.5" style="stroke:#181818;stroke-width:0.5;" width="102.125" x="58.5" y="253"/><rect fill="#F1F1F1" height="10" style="stroke:#181818;stroke-width:0.5;" width="15" x="140.625" y="258"/><rect fill="#F1F1F1" height="2" style="stroke:#181818;stroke-width:0.5;" width="4" x="138.625" y="260"/><rect fill="#F1F1F1" height="2" style="stroke:#181818;stroke-width:0.5;" width="4" x="138.625" y="264"/><text fill="#000000" font-family="sans-serif" font-size="14" lengthAdjust="spacing" textLength="62.125" x="73.5" y="285.9951">Deadline</text></g><!--link DeadlineMonitorBuilder to DeadlineMonitor--><g id="link_DeadlineMonitorBuilder_DeadlineMonitor"><path d="M109.5,53.19 C109.5,75.03 109.5,102.16 109.5,123.95 " fill="transparent" id="DeadlineMonitorBuilder-to-DeadlineMonitor" style="stroke:#181818;stroke-width:1;stroke-dasharray:7.0,7.0;"/><polygon fill="#181818" points="109.5,129.95,113.5,120.95,109.5,124.95,105.5,120.95,109.5,129.95" style="stroke:#181818;stroke-width:1;"/><text fill="#000000" font-family="sans-serif" font-size="13" lengthAdjust="spacing" textLength="31.9668" x="110.5" y="96.0669">build</text></g><!--link DeadlineMonitor to Deadline--><g id="link_DeadlineMonitor_Deadline"><path d="M109.5,176.19 C109.5,198.03 109.5,225.16 109.5,246.95 " fill="transparent" id="DeadlineMonitor-to-Deadline" style="stroke:#181818;stroke-width:1;stroke-dasharray:7.0,7.0;"/><polygon fill="#181818" points="109.5,252.95,113.5,243.95,109.5,247.95,105.5,243.95,109.5,252.95" style="stroke:#181818;stroke-width:1;"/><text fill="#000000" font-family="sans-serif" font-size="13" lengthAdjust="spacing" textLength="129.6763" x="110.5" y="219.0669">generate and check</text></g><!--SRC=[IyxFBSZFIyqhKL1oIKrCoSdCI_NDpyiioIzoAitCIKajKk9Anga4gvmI5nTsanJqzEmKqAGKh1IIGBBeMb3K0XMbf-Qb5YMMf2eavgKe96Ua9cTp0G00]--></g></svg>