<svg xmlns="http://www.w3.org/2000/svg" xmlns:xlink="http://www.w3.org/1999/xlink" contentStyleType="text/css" data-diagram-type="CLASS" height="746px" preserveAspectRatio="none" style="width:1535px;height:746px;background:#FFFFFF;" version="1.1" viewBox="0 0 1535 746" width="1535px" zoomAndPan="magnify"><defs/><g><!--class Status--><g id="elem_Status"><rect codeLine="2" fill="#F1F1F1" height="113.1875" id="Status" rx="2.5" ry="2.5" style="stroke:#181818;stroke-width:0.5;" width="87.6113" x="880.07" y="626"/><ellipse cx="895.07" cy="642" fill="#EB937F" rx="11" ry="11" style="stroke:#181818;stroke-width:1;"/><path d="M899.1794,648 L891.4606,648 L891.4606,635.6094 L899.1794,635.6094 L899.1794,637.7656 L893.9138,637.7656 L893.9138,640.4375 L898.6794,640.4375 L898.6794,642.5938 L893.9138,642.5938 L893.9138,645.8438 L899.1794,645.8438 L899.1794,648 Z " fill="#000000"/><ellipse cx="914.07" cy="641.5" fill="#84BE84" rx="3" ry="3" style="stroke:#038048;stroke-width:1;"/><text fill="#000000" font-family="sans-serif" font-size="14" lengthAdjust="spacing" textLength="44.6113" x="920.07" y="646.8467">Status</text><line style="stroke:#181818;stroke-width:0.5;" x1="881.07" x2="966.6813" y1="658" y2="658"/><text fill="#000000" font-family="sans-serif" font-size="14" lengthAdjust="spacing" textLength="57.9961" x="886.07" y="674.9951">Running</text><text fill="#000000" font-family="sans-serif" font-size="14" lengthAdjust="spacing" textLength="60.8193" x="886.07" y="691.292">Disabled</text><text fill="#000000" font-family="sans-serif" font-size="14" lengthAdjust="spacing" textLength="41.9111" x="886.07" y="707.5889">Failed</text><text fill="#000000" font-family="sans-serif" font-size="14" lengthAdjust="spacing" textLength="58.2148" x="886.07" y="723.8857">Stopped</text><line style="stroke:#181818;stroke-width:0.5;" x1="881.07" x2="966.6813" y1="731.1875" y2="731.1875"/></g><!--class Error--><g id="elem_Error"><rect codeLine="9" fill="#F1F1F1" height="113.1875" id="Error" rx="2.5" ry="2.5" style="stroke:#181818;stroke-width:0.5;" width="116.9863" x="561.57" y="626"/><ellipse cx="594.2584" cy="642" fill="#EB937F" rx="11" ry="11" style="stroke:#181818;stroke-width:1;"/><path d="M598.3678,648 L590.6491,648 L590.6491,635.6094 L598.3678,635.6094 L598.3678,637.7656 L593.1022,637.7656 L593.1022,640.4375 L597.8678,640.4375 L597.8678,642.5938 L593.1022,642.5938 L593.1022,645.8438 L598.3678,645.8438 L598.3678,648 Z " fill="#000000"/><ellipse cx="617.1892" cy="641.5" fill="#84BE84" rx="3" ry="3" style="stroke:#038048;stroke-width:1;"/><text fill="#000000" font-family="sans-serif" font-size="14" lengthAdjust="spacing" textLength="34.6787" x="623.1892" y="646.8467">Error</text><line style="stroke:#181818;stroke-width:0.5;" x1="562.57" x2="677.5563" y1="658" y2="658"/><text fill="#000000" font-family="sans-serif" font-size="14" lengthAdjust="spacing" textLength="104.9863" x="567.57" y="674.9951">BadParameter,</text><text fill="#000000" font-family="sans-serif" font-size="14" lengthAdjust="spacing" textLength="83.8496" x="567.57" y="691.292">NotAllowed,</text><text fill="#000000" font-family="sans-serif" font-size="14" lengthAdjust="spacing" textLength="102.7168" x="567.57" y="707.5889">OutOfMemory,</text><text fill="#000000" font-family="sans-serif" font-size="14" lengthAdjust="spacing" textLength="58.7412" x="567.57" y="723.8857">Generic,</text><line style="stroke:#181818;stroke-width:0.5;" x1="562.57" x2="677.5563" y1="731.1875" y2="731.1875"/></g><!--class Tag--><g id="elem_Tag"><rect codeLine="16" fill="#F1F1F1" height="64.2969" id="Tag" rx="2.5" ry="2.5" style="stroke:#181818;stroke-width:0.5;" width="302.4453" x="140.07" y="476.5"/><ellipse cx="268.5339" cy="492.5" fill="#ADD1B2" rx="11" ry="11" style="stroke:#181818;stroke-width:1;"/><path d="M271.5026,498.1406 Q270.9245,498.4375 270.2839,498.5781 Q269.6432,498.7344 268.9401,498.7344 Q266.4401,498.7344 265.112,497.0938 Q263.7995,495.4375 263.7995,492.3125 Q263.7995,489.1875 265.112,487.5313 Q266.4401,485.875 268.9401,485.875 Q269.6432,485.875 270.2839,486.0313 Q270.9401,486.1875 271.5026,486.4844 L271.5026,489.2031 Q270.8776,488.625 270.2839,488.3594 Q269.6901,488.0781 269.0651,488.0781 Q267.7214,488.0781 267.0339,489.1563 Q266.3464,490.2188 266.3464,492.3125 Q266.3464,494.4063 267.0339,495.4844 Q267.7214,496.5469 269.0651,496.5469 Q269.6901,496.5469 270.2839,496.2813 Q270.8776,496 271.5026,495.4219 L271.5026,498.1406 Z " fill="#000000"/><ellipse cx="294.0339" cy="492" fill="#84BE84" rx="3" ry="3" style="stroke:#038048;stroke-width:1;"/><text fill="#000000" font-family="sans-serif" font-size="14" lengthAdjust="spacing" textLength="26.0176" x="300.0339" y="497.3467">Tag</text><line style="stroke:#181818;stroke-width:0.5;" x1="141.07" x2="441.5153" y1="508.5" y2="508.5"/><line style="stroke:#181818;stroke-width:0.5;" x1="141.07" x2="441.5153" y1="516.5" y2="516.5"/><ellipse cx="151.07" cy="530.1484" fill="#84BE84" rx="3" ry="3" style="stroke:#038048;stroke-width:1;"/><text fill="#000000" font-family="sans-serif" font-size="14" lengthAdjust="spacing" textLength="276.4453" x="160.07" y="533.4951">new&lt;N: AsRef&lt;str&gt;&gt;(name: N) -&gt; Self</text></g><!--class DeadlineMonitorHook--><g id="elem_DeadlineMonitorHook"><rect codeLine="20" fill="#F1F1F1" height="64.2969" id="DeadlineMonitorHook" rx="2.5" ry="2.5" style="stroke:#181818;stroke-width:0.5;" width="370.8457" x="1157.57" y="476.5"/><ellipse cx="1257.6887" cy="492.5" fill="#B4A7E5" rx="11" ry="11" style="stroke:#181818;stroke-width:1;"/><path d="M1253.6105,488.2656 L1253.6105,486.1094 L1261.0012,486.1094 L1261.0012,488.2656 L1258.5324,488.2656 L1258.5324,496.3438 L1261.0012,496.3438 L1261.0012,498.5 L1253.6105,498.5 L1253.6105,496.3438 L1256.0793,496.3438 L1256.0793,488.2656 L1253.6105,488.2656 Z " fill="#000000"/><ellipse cx="1283.1887" cy="492" fill="#84BE84" rx="3" ry="3" style="stroke:#038048;stroke-width:1;"/><text fill="#000000" font-family="sans-serif" font-size="14" font-style="italic" lengthAdjust="spacing" textLength="151.1084" x="1289.1887" y="497.3467">DeadlineMonitorHook</text><line style="stroke:#181818;stroke-width:0.5;" x1="1158.57" x2="1527.4157" y1="508.5" y2="508.5"/><line style="stroke:#181818;stroke-width:0.5;" x1="1158.57" x2="1527.4157" y1="516.5" y2="516.5"/><ellipse cx="1168.57" cy="530.1484" fill="#84BE84" rx="3" ry="3" style="stroke:#038048;stroke-width:1;"/><text fill="#000000" font-family="sans-serif" font-size="14" lengthAdjust="spacing" textLength="344.8457" x="1177.57" y="533.4951">on_status_change(&amp;self, from: Status, to: Status)</text></g><!--class DeadlineMonitorBuilder--><g id="elem_DeadlineMonitorBuilder"><rect codeLine="24" fill="#F1F1F1" height="113.1875" id="DeadlineMonitorBuilder" rx="2.5" ry="2.5" style="stroke:#181818;stroke-width:0.5;" width="575.6572" x="314.07" y="7"/><ellipse cx="509.7209" cy="23" fill="#ADD1B2" rx="11" ry="11" style="stroke:#181818;stroke-width:1;"/><path d="M512.6896,28.6406 Q512.1115,28.9375 511.4709,29.0781 Q510.8303,29.2344 510.1271,29.2344 Q507.6271,29.2344 506.299,27.5938 Q504.9865,25.9375 504.9865,22.8125 Q504.9865,19.6875 506.299,18.0313 Q507.6271,16.375 510.1271,16.375 Q510.8303,16.375 511.4709,16.5313 Q512.1271,16.6875 512.6896,16.9844 L512.6896,19.7031 Q512.0646,19.125 511.4709,18.8594 Q510.8771,18.5781 510.2521,18.5781 Q508.9084,18.5781 508.2209,19.6563 Q507.5334,20.7188 507.5334,22.8125 Q507.5334,24.9063 508.2209,25.9844 Q508.9084,27.0469 510.2521,27.0469 Q510.8771,27.0469 511.4709,26.7813 Q512.0646,26.5 512.6896,25.9219 L512.6896,28.6406 Z " fill="#000000"/><ellipse cx="535.2209" cy="22.5" fill="#84BE84" rx="3" ry="3" style="stroke:#038048;stroke-width:1;"/><text fill="#000000" font-family="sans-serif" font-size="14" lengthAdjust="spacing" textLength="164.8555" x="541.2209" y="27.8467">DeadlineMonitorBuilder</text><line style="stroke:#181818;stroke-width:0.5;" x1="315.07" x2="888.7272" y1="39" y2="39"/><line style="stroke:#181818;stroke-width:0.5;" x1="315.07" x2="888.7272" y1="47" y2="47"/><ellipse cx="325.07" cy="60.6484" fill="#84BE84" rx="3" ry="3" style="stroke:#038048;stroke-width:1;"/><text fill="#000000" font-family="sans-serif" font-size="14" lengthAdjust="spacing" textLength="91.8613" x="334.07" y="63.9951">new() -&gt; Self</text><ellipse cx="325.07" cy="76.9453" fill="#84BE84" rx="3" ry="3" style="stroke:#038048;stroke-width:1;"/><text fill="#000000" font-family="sans-serif" font-size="14" lengthAdjust="spacing" textLength="549.6572" x="334.07" y="80.292">add_deadline(&amp;mut self, tag: Tag, min: Duration, max: Duration) -&gt; &amp;mut Self</text><ellipse cx="325.07" cy="93.2422" fill="#84BE84" rx="3" ry="3" style="stroke:#038048;stroke-width:1;"/><text fill="#000000" font-family="sans-serif" font-size="14" lengthAdjust="spacing" textLength="525.5469" x="334.07" y="96.5889">add_hook(&amp;mut self, hook: Box&lt;dyn DeadlineMonitorHook&gt;) -&gt; &amp;mut Self</text><ellipse cx="325.07" cy="109.5391" fill="#84BE84" rx="3" ry="3" style="stroke:#038048;stroke-width:1;"/><text fill="#000000" font-family="sans-serif" font-size="14" lengthAdjust="spacing" textLength="322.0273" x="334.07" y="112.8857">build(self) -&gt; Result&lt;DeadlineMonitor, Error&gt;</text></g><!--class DeadlineMonitor--><g id="elem_DeadlineMonitor"><rect codeLine="31" fill="#F1F1F1" height="178.375" id="DeadlineMonitor" rx="2.5" ry="2.5" style="stroke:#181818;stroke-width:0.5;" width="747.4102" x="442.57" y="197"/><ellipse cx="748.8537" cy="213" fill="#ADD1B2" rx="11" ry="11" style="stroke:#181818;stroke-width:1;"/><path d="M751.8224,218.6406 Q751.2443,218.9375 750.6037,219.0781 Q749.9631,219.2344 749.2599,219.2344 Q746.7599,219.2344 745.4318,217.5938 Q744.1193,215.9375 744.1193,212.8125 Q744.1193,209.6875 745.4318,208.0313 Q746.7599,206.375 749.2599,206.375 Q749.9631,206.375 750.6037,206.5313 Q751.2599,206.6875 751.8224,206.9844 L751.8224,209.7031 Q751.1974,209.125 750.6037,208.8594 Q750.0099,208.5781 749.3849,208.5781 Q748.0412,208.5781 747.3537,209.6563 Q746.6662,210.7188 746.6662,212.8125 Q746.6662,214.9063 747.3537,215.9844 Q748.0412,217.0469 749.3849,217.0469 Q750.0099,217.0469 750.6037,216.7813 Q751.1974,216.5 751.8224,215.9219 L751.8224,218.6406 Z " fill="#000000"/><ellipse cx="774.3537" cy="212.5" fill="#84BE84" rx="3" ry="3" style="stroke:#038048;stroke-width:1;"/><text fill="#000000" font-family="sans-serif" font-size="14" lengthAdjust="spacing" textLength="115.3428" x="780.3537" y="217.8467">DeadlineMonitor</text><line style="stroke:#181818;stroke-width:0.5;" x1="443.57" x2="1188.9802" y1="229" y2="229"/><line style="stroke:#181818;stroke-width:0.5;" x1="443.57" x2="1188.9802" y1="237" y2="237"/><ellipse cx="453.57" cy="250.6484" fill="#84BE84" rx="3" ry="3" style="stroke:#038048;stroke-width:1;"/><text fill="#000000" font-family="sans-serif" font-size="14" lengthAdjust="spacing" textLength="424.3203" x="462.57" y="253.9951">create_deadline(&amp;self, tag: Tag) -&gt; Result&lt;Deadline, Error&gt;</text><ellipse cx="453.57" cy="266.9453" fill="#84BE84" rx="3" ry="3" style="stroke:#038048;stroke-width:1;"/><text fill="#000000" font-family="sans-serif" font-size="14" lengthAdjust="spacing" textLength="515.2451" x="462.57" y="270.292">create_deadline_guard(&amp;self, tag: Tag) -&gt; Result&lt;DeadlineGuard, Error&gt;</text><ellipse cx="453.57" cy="283.2422" fill="#84BE84" rx="3" ry="3" style="stroke:#038048;stroke-width:1;"/><text fill="#000000" font-family="sans-serif" font-size="14" lengthAdjust="spacing" textLength="630.4854" x="462.57" y="286.5889">create_custom_deadline(&amp;self, min: Duration, max: Duration) -&gt; Result&lt;Deadline, Error&gt;</text><ellipse cx="453.57" cy="299.5391" fill="#84BE84" rx="3" ry="3" style="stroke:#038048;stroke-width:1;"/><text fill="#000000" font-family="sans-serif" font-size="14" lengthAdjust="spacing" textLength="721.4102" x="462.57" y="302.8857">create_custom_deadline_guard(&amp;self, min: Duration, max: Duration) -&gt; Result&lt;DeadlineGuard, Error&gt;</text><ellipse cx="453.57" cy="315.8359" fill="#84BE84" rx="3" ry="3" style="stroke:#038048;stroke-width:1;"/><text fill="#000000" font-family="sans-serif" font-size="14" lengthAdjust="spacing" textLength="241.5547" x="462.57" y="319.1826">enable(&amp;self) -&gt; Result&lt;(), Error&gt;</text><ellipse cx="453.57" cy="332.1328" fill="#84BE84" rx="3" ry="3" style="stroke:#038048;stroke-width:1;"/><text fill="#000000" font-family="sans-serif" font-size="14" lengthAdjust="spacing" textLength="244.1387" x="462.57" y="335.4795">disable(&amp;self) -&gt; Result&lt;(), Error&gt;</text><ellipse cx="453.57" cy="348.4297" fill="#84BE84" rx="3" ry="3" style="stroke:#038048;stroke-width:1;"/><text fill="#000000" font-family="sans-serif" font-size="14" lengthAdjust="spacing" textLength="159.8789" x="462.57" y="351.7764">status(&amp;self) -&gt; Status</text><polygon fill="#4177AF" points="453.57,360.7266,449.57,366.7266,457.57,366.7266" style="stroke:#1963A0;stroke-width:1;"/><text fill="#000000" font-family="sans-serif" font-size="14" lengthAdjust="spacing" textLength="147.1436" x="462.57" y="368.0732">step(&amp;self) -&gt; Status</text></g><!--class Deadline--><g id="elem_Deadline"><rect codeLine="42" fill="#F1F1F1" height="113.1875" id="Deadline" rx="2.5" ry="2.5" style="stroke:#181818;stroke-width:0.5;" width="285.1572" x="477.57" y="452"/><ellipse cx="579.3361" cy="468" fill="#ADD1B2" rx="11" ry="11" style="stroke:#181818;stroke-width:1;"/><path d="M582.3049,473.6406 Q581.7267,473.9375 581.0861,474.0781 Q580.4455,474.2344 579.7424,474.2344 Q577.2424,474.2344 575.9142,472.5938 Q574.6017,470.9375 574.6017,467.8125 Q574.6017,464.6875 575.9142,463.0313 Q577.2424,461.375 579.7424,461.375 Q580.4455,461.375 581.0861,461.5313 Q581.7424,461.6875 582.3049,461.9844 L582.3049,464.7031 Q581.6799,464.125 581.0861,463.8594 Q580.4924,463.5781 579.8674,463.5781 Q578.5236,463.5781 577.8361,464.6563 Q577.1486,465.7188 577.1486,467.8125 Q577.1486,469.9063 577.8361,470.9844 Q578.5236,472.0469 579.8674,472.0469 Q580.4924,472.0469 581.0861,471.7813 Q581.6799,471.5 582.3049,470.9219 L582.3049,473.6406 Z " fill="#000000"/><ellipse cx="604.8361" cy="467.5" fill="#84BE84" rx="3" ry="3" style="stroke:#038048;stroke-width:1;"/><text fill="#000000" font-family="sans-serif" font-size="14" lengthAdjust="spacing" textLength="62.125" x="610.8361" y="472.8467">Deadline</text><line style="stroke:#181818;stroke-width:0.5;" x1="478.57" x2="761.7272" y1="484" y2="484"/><line style="stroke:#181818;stroke-width:0.5;" x1="478.57" x2="761.7272" y1="492" y2="492"/><ellipse cx="488.57" cy="505.6484" fill="#84BE84" rx="3" ry="3" style="stroke:#038048;stroke-width:1;"/><text fill="#000000" font-family="sans-serif" font-size="14" lengthAdjust="spacing" textLength="259.1572" x="497.57" y="508.9951">start(&amp;mut self) -&gt; Result&lt;(), Error&gt;</text><ellipse cx="488.57" cy="521.9453" fill="#84BE84" rx="3" ry="3" style="stroke:#038048;stroke-width:1;"/><text fill="#000000" font-family="sans-serif" font-size="14" lengthAdjust="spacing" textLength="256.7852" x="497.57" y="525.292">stop(&amp;mut self) -&gt; Result&lt;(), Error&gt;</text><ellipse cx="488.57" cy="538.2422" fill="#84BE84" rx="3" ry="3" style="stroke:#038048;stroke-width:1;"/><text fill="#000000" font-family="sans-serif" font-size="14" lengthAdjust="spacing" textLength="159.4551" x="497.57" y="541.5889">min(&amp;self) -&gt; Duration</text><ellipse cx="488.57" cy="554.5391" fill="#84BE84" rx="3" ry="3" style="stroke:#038048;stroke-width:1;"/><text fill="#000000" font-family="sans-serif" font-size="14" lengthAdjust="spacing" textLength="163.5566" x="497.57" y="557.8857">max(&amp;self) -&gt; Duration</text></g><!--class DeadlineGuard--><g id="elem_DeadlineGuard"><rect codeLine="49" fill="#F1F1F1" height="48" id="DeadlineGuard" rx="2.5" ry="2.5" style="stroke:#181818;stroke-width:0.5;" width="148.0684" x="974.07" y="484.5"/><ellipse cx="989.07" cy="500.5" fill="#ADD1B2" rx="11" ry="11" style="stroke:#181818;stroke-width:1;"/><path d="M992.0388,506.1406 Q991.4606,506.4375 990.82,506.5781 Q990.1794,506.7344 989.4763,506.7344 Q986.9763,506.7344 985.6481,505.0938 Q984.3356,503.4375 984.3356,500.3125 Q984.3356,497.1875 985.6481,495.5313 Q986.9763,493.875 989.4763,493.875 Q990.1794,493.875 990.82,494.0313 Q991.4763,494.1875 992.0388,494.4844 L992.0388,497.2031 Q991.4138,496.625 990.82,496.3594 Q990.2263,496.0781 989.6013,496.0781 Q988.2575,496.0781 987.57,497.1563 Q986.8825,498.2188 986.8825,500.3125 Q986.8825,502.4063 987.57,503.4844 Q988.2575,504.5469 989.6013,504.5469 Q990.2263,504.5469 990.82,504.2813 Q991.4138,504 992.0388,503.4219 L992.0388,506.1406 Z " fill="#000000"/><ellipse cx="1008.07" cy="500" fill="#84BE84" rx="3" ry="3" style="stroke:#038048;stroke-width:1;"/><text fill="#000000" font-family="sans-serif" font-size="14" lengthAdjust="spacing" textLength="105.0684" x="1014.07" y="505.3467">DeadlineGuard</text><line style="stroke:#181818;stroke-width:0.5;" x1="975.07" x2="1121.1384" y1="516.5" y2="516.5"/><line style="stroke:#181818;stroke-width:0.5;" x1="975.07" x2="1121.1384" y1="524.5" y2="524.5"/></g><!--link DeadlineMonitorBuilder to Error--><g id="link_DeadlineMonitorBuilder_Error"><path codeLine="52" d="M454.64,120.02 C410.52,140.47 363.65,166.29 325.07,197 C178.93,313.33 6,418.65 122.07,565 C176.42,633.53 436.0558,665.0238 555.5958,676.1538 " fill="transparent" id="DeadlineMonitorBuilder-to-Error" style="stroke:#181818;stroke-width:1;stroke-dasharray:7.0,7.0;"/><polygon fill="#181818" points="561.57,676.71,552.9796,671.8929,556.5915,676.2465,552.2379,679.8584,561.57,676.71" style="stroke:#181818;stroke-width:1;"/></g><!--link DeadlineMonitorBuilder to Tag--><g id="link_DeadlineMonitorBuilder_Tag"><path codeLine="53" d="M509.19,120.19 C479.44,141.39 448.25,167.61 425.07,197 C355.08,285.74 316.1193,410.7908 300.3393,470.2408 " fill="transparent" id="DeadlineMonitorBuilder-to-Tag" style="stroke:#181818;stroke-width:1;stroke-dasharray:7.0,7.0;"/><polygon fill="#181818" points="298.8,476.04,304.9751,468.3674,300.0827,471.2073,297.2428,466.315,298.8,476.04" style="stroke:#181818;stroke-width:1;"/></g><!--link DeadlineMonitorBuilder to DeadlineMonitor--><g id="link_DeadlineMonitorBuilder_DeadlineMonitor"><path codeLine="54" d="M656.07,120.14 C678.61,143.36 701.1611,166.5946 726.2611,192.4546 " fill="transparent" id="DeadlineMonitorBuilder-to-DeadlineMonitor" style="stroke:#181818;stroke-width:1;stroke-dasharray:7.0,7.0;"/><polygon fill="#181818" points="730.44,196.76,727.0419,187.5159,726.9576,193.1721,721.3014,193.0878,730.44,196.76" style="stroke:#181818;stroke-width:1;"/><text fill="#000000" font-family="sans-serif" font-size="13" lengthAdjust="spacing" textLength="81.6943" x="698.07" y="163.0669">&#171;consumes&#187;</text></g><!--reverse link DeadlineMonitorBuilder to DeadlineMonitorHook--><g id="link_DeadlineMonitorBuilder_DeadlineMonitorHook"><path codeLine="55" d="M902.0816,104.253 C1032.6816,126.363 1157.13,156.05 1207.07,197 C1296.27,270.14 1328.6,413.29 1338.86,476.38 " fill="transparent" id="DeadlineMonitorBuilder-backto-DeadlineMonitorHook" style="stroke:#181818;stroke-width:1;"/><polygon fill="#181818" points="890.25,102.25,895.4981,107.1954,902.0816,104.253,896.8335,99.3076,890.25,102.25" style="stroke:#181818;stroke-width:1;"/><text fill="#000000" font-family="sans-serif" font-size="13" lengthAdjust="spacing" textLength="33.5981" x="1315.07" y="290.5669">owns</text><text fill="#000000" font-family="sans-serif" font-size="13" lengthAdjust="spacing" textLength="23.0356" x="1312.6394" y="465.2584">0..*</text></g><!--reverse link DeadlineMonitor to Status--><g id="link_DeadlineMonitor_Status"><path codeLine="56" d="M843.3394,386.6139 C864.3594,463.3739 891.02,560.77 908.87,625.97 " fill="transparent" id="DeadlineMonitor-backto-Status" style="stroke:#181818;stroke-width:1;"/><polygon fill="#181818" points="840.17,375.04,837.8967,381.8834,843.3394,386.6139,845.6127,379.7705,840.17,375.04" style="stroke:#181818;stroke-width:1;"/><text fill="#000000" font-family="sans-serif" font-size="13" lengthAdjust="spacing" textLength="33.5981" x="893.07" y="513.0669">owns</text></g><!--link DeadlineMonitor to Error--><g id="link_DeadlineMonitor_Error"><path codeLine="57" d="M822.01,375.14 C821.9,432.89 813.88,507.96 780.07,565 C756.68,604.46 719.4126,631.5319 684.0926,651.1919 " fill="transparent" id="DeadlineMonitor-to-Error" style="stroke:#181818;stroke-width:1;stroke-dasharray:7.0,7.0;"/><polygon fill="#181818" points="678.85,654.11,688.6593,653.2278,683.2188,651.6782,684.7684,646.2377,678.85,654.11" style="stroke:#181818;stroke-width:1;"/></g><!--link DeadlineMonitor to Tag--><g id="link_DeadlineMonitor_Tag"><path codeLine="58" d="M606.31,375.1 C520.92,410.97 433.2819,447.7667 370.5419,474.1167 " fill="transparent" id="DeadlineMonitor-to-Tag" style="stroke:#181818;stroke-width:1;stroke-dasharray:7.0,7.0;"/><polygon fill="#181818" points="365.01,476.44,374.8568,476.6429,369.6199,474.5039,371.759,469.2671,365.01,476.44" style="stroke:#181818;stroke-width:1;"/></g><!--link DeadlineMonitor to Deadline--><g id="link_DeadlineMonitor_Deadline"><path codeLine="59" d="M737.76,375.1 C714.73,401.01 694.1768,424.1361 673.4868,447.4061 " fill="transparent" id="DeadlineMonitor-to-Deadline" style="stroke:#181818;stroke-width:1;stroke-dasharray:7.0,7.0;"/><polygon fill="#181818" points="669.5,451.89,678.4695,447.822,672.8223,448.1534,672.4909,442.5063,669.5,451.89" style="stroke:#181818;stroke-width:1;"/><text fill="#000000" font-family="sans-serif" font-size="13" lengthAdjust="spacing" textLength="64.2319" x="708.07" y="418.0669">&#171;creates&#187;</text></g><!--link DeadlineMonitor to DeadlineGuard--><g id="link_DeadlineMonitor_DeadlineGuard"><path codeLine="60" d="M908.76,375.1 C950.41,414.68 991.9013,454.1062 1019.2213,480.0762 " fill="transparent" id="DeadlineMonitor-to-DeadlineGuard" style="stroke:#181818;stroke-width:1;stroke-dasharray:7.0,7.0;"/><polygon fill="#181818" points="1023.57,484.21,1019.8028,475.1101,1019.9461,480.7651,1014.291,480.9084,1023.57,484.21" style="stroke:#181818;stroke-width:1;"/><text fill="#000000" font-family="sans-serif" font-size="13" lengthAdjust="spacing" textLength="64.2319" x="953.07" y="418.0669">&#171;creates&#187;</text></g><!--reverse link DeadlineMonitor to DeadlineMonitorHook--><g id="link_DeadlineMonitor_DeadlineMonitorHook"><path codeLine="61" d="M1037.6999,379.7323 C1123.4199,415.6023 1205.87,450.09 1268.85,476.44 " fill="transparent" id="DeadlineMonitor-backto-DeadlineMonitorHook" style="stroke:#181818;stroke-width:1;"/><polygon fill="#181818" points="1026.63,375.1,1030.6209,381.1061,1037.6999,379.7323,1033.709,373.7262,1026.63,375.1" style="stroke:#181818;stroke-width:1;"/><text fill="#000000" font-family="sans-serif" font-size="13" lengthAdjust="spacing" textLength="33.5981" x="1127.07" y="418.0669">owns</text><text fill="#000000" font-family="sans-serif" font-size="13" lengthAdjust="spacing" textLength="23.0356" x="1228.1898" y="465.3307">0..*</text></g><!--link Deadline to Error--><g id="link_Deadline_Error"><path codeLine="62" d="M620.07,565.34 C620.07,584.77 620.07,600.54 620.07,619.94 " fill="transparent" id="Deadline-to-Error" style="stroke:#181818;stroke-width:1;stroke-dasharray:7.0,7.0;"/><polygon fill="#181818" points="620.07,625.94,624.07,616.94,620.07,620.94,616.07,616.94,620.07,625.94" style="stroke:#181818;stroke-width:1;"/></g><!--link DeadlineMonitorHook to Status--><g id="link_DeadlineMonitorHook_Status"><path codeLine="63" d="M1267.19,540.65 C1179.82,576.52 1044.7705,631.9514 973.7405,661.1114 " fill="transparent" id="DeadlineMonitorHook-to-Status" style="stroke:#181818;stroke-width:1;stroke-dasharray:7.0,7.0;"/><polygon fill="#181818" points="968.19,663.39,978.0348,663.6724,972.8154,661.4911,974.9966,656.2717,968.19,663.39" style="stroke:#181818;stroke-width:1;"/></g><!--SRC=[bLHDRwCm4BtdLunwg4X3eZqZXDGeRVVIT9NiFNBnGAs27Vb3IRNQ_UrhR4Y1G9foydZUl7blR3D3RahOQgADWZyJiD_6SCvuxjOhfiXhWTG5ZuGrowqM-xrT_vrCPexXGKeXQu8beR-892LgbA7RMGjzNnJYWDJ7BqQ_PCzO2ldXDvwGesHfw0ZJWYW5lqbUyyqu7k9r1FTgWrcij4oIW5lw2DPJc2UmnI9pXOpRZXb94LP8QC4uFWlEj90_XNXlo0JVAMTtbxuHdcDmgsnz29aKPLHF8WGjclMqfQb7kpIie2XRCeEJ8F1xXD8ThQk2sz9eyDqqoQFAOWWbun6iZ2IQ2Mv3SlmC7PkhSXvFZ6_MJvkjYYDOYcDCF_YG-MI8wRMI7rGCBhj1PGeTzwf3VxJ9-1GQ-wb4eh7bjkjqgCU9V8XWbniYwJKqJnLma2irIeloJDENCxz6Pu-xA_Ux7GOi8A-UdYTibmJJBexwD_erq5_x5ivVS9VyfpJkprFdXzwSjYMJ-lCENkuhzjSXxTHQ6ffvrJbo7CgTAtIZj39jPkIzBXQ9Rti9OE_QfNJ_4KGGnwdWofIeacIiycu-XviVYyNTpU0lAW9nuAfVxAhgN_G8OjJHc9ME1o_UtUe1xHse7-vb_FTCZcjtw2hhlVy7]--></g></svg>