<svg xmlns="http://www.w3.org/2000/svg" xmlns:xlink="http://www.w3.org/1999/xlink" contentStyleType="text/css" data-diagram-type="DESCRIPTION" height="321px" preserveAspectRatio="none" style="width:341px;height:321px;background:#FFFFFF;" version="1.1" viewBox="0 0 341 321" width="341px" zoomAndPan="magnify"><defs/><g><!--entity DeadlineMonitorBuilder--><g id="elem_DeadlineMonitorBuilder"><rect fill="#F1F1F1" height="46.2969" rx="2.5" ry="2.5" style="stroke:#181818;stroke-width:0.5;" width="204.8555" x="46.5" y="7"/><rect fill="#F1F1F1" height="10" style="stroke:#181818;stroke-width:0.5;" width="15" x="231.3555" y="12"/><rect fill="#F1F1F1" height="2" style="stroke:#181818;stroke-width:0.5;" width="4" x="229.3555" y="14"/><rect fill="#F1F1F1" height="2" style="stroke:#181818;stroke-width:0.5;" width="4" x="229.3555" y="18"/><text fill="#000000" font-family="sans-serif" font-size="14" lengthAdjust="spacing" textLength="164.8555" x="61.5" y="39.9951">DeadlineMonitorBuilder</text></g><!--entity DeadlineMonitor--><g id="elem_DeadlineMonitor"><rect fill="#F1F1F1" height="46.2969" rx="2.5" ry="2.5" style="stroke:#181818;stroke-width:0.5;" width="155.3428" x="71.5" y="130"/><rect fill="#F1F1F1" height="10" style="stroke:#181818;stroke-width:0.5;" width="15" x="206.8428" y="135"/><rect fill="#F1F1F1" height="2" style="stroke:#181818;stroke-width:0.5;" width="4" x="204.8428" y="137"/><rect fill="#F1F1F1" height="2" style="stroke:#181818;stroke-width:0.5;" width="4" x="204.8428" y="141"/><text fill="#000000" font-family="sans-serif" font-size="14" lengthAdjust="spacing" textLength="115.3428" x="86.5" y="162.9951">DeadlineMonitor</text></g><!--entity Deadline--><g id="elem_Deadline"><rect fill="#F1F1F1" height="46.2969" rx="2.5" ry="2.5" style="stroke:#181818;stroke-width:0.5;" width="102.125" x="7" y="261.5"/><rect fill="#F1F1F1" height="10" style="stroke:#181818;stroke-width:0.5;" width="15" x="89.125" y="266.5"/><rect fill="#F1F1F1" height="2" style="stroke:#181818;stroke-width:0.5;" width="4" x="87.125" y="268.5"/><rect fill="#F1F1F1" height="2" style="stroke:#181818;stroke-width:0.5;" width="4" x="87.125" y="272.5"/><text fill="#000000" font-family="sans-serif" font-size="14" lengthAdjust="spacing" textLength="62.125" x="22" y="294.4951">Deadline</text></g><!--entity DeadlineMonitorHook--><g id="elem_DeadlineMonitorHook"><rect fill="#F1F1F1" height="62.5938" rx="2.5" ry="2.5" style="stroke:#181818;stroke-width:0.5;" width="191.1084" x="144.5" y="253"/><rect fill="#F1F1F1" height="10" style="stroke:#181818;stroke-width:0.5;" width="15" x="315.6084" y="258"/><rect fill="#F1F1F1" height="2" style="stroke:#181818;stroke-width:0.5;" width="4" x="313.6084" y="260"/><rect fill="#F1F1F1" height="2" style="stroke:#181818;stroke-width:0.5;" width="4" x="313.6084" y="264"/><text fill="#000000" font-family="sans-serif" font-size="14" font-style="italic" lengthAdjust="spacing" textLength="79.7207" x="195.1938" y="285.9951">&#171;interface&#187;</text><text fill="#000000" font-family="sans-serif" font-size="14" lengthAdjust="spacing" textLength="151.1084" x="159.5" y="302.292">DeadlineMonitorHook</text></g><!--link DeadlineMonitorBuilder to DeadlineMonitor--><g id="link_DeadlineMonitorBuilder_DeadlineMonitor"><path d="M149,53.19 C149,75.03 149,102.16 149,123.95 " fill="transparent" id="DeadlineMonitorBuilder-to-DeadlineMonitor" style="stroke:#181818;stroke-width:1;stroke-dasharray:7.0,7.0;"/><polygon fill="#181818" points="149,129.95,153,120.95,149,124.95,145,120.95,149,129.95" style="stroke:#181818;stroke-width:1;"/><text fill="#000000" font-family="sans-serif" font-size="13" lengthAdjust="spacing" textLength="31.9668" x="150" y="96.0669">build</text></g><!--link DeadlineMonitor to DeadlineMonitorHook--><g id="link_DeadlineMonitor_DeadlineMonitorHook"><path d="M171.51,176.02 C180.01,184.92 189.44,195.55 197,206 C207.55,220.59 214.6698,232.7078 222.2898,247.3478 " fill="transparent" id="DeadlineMonitor-to-DeadlineMonitorHook" style="stroke:#181818;stroke-width:1;stroke-dasharray:7.0,7.0;"/><polygon fill="#181818" points="225.06,252.67,224.4529,242.8399,222.7515,248.2348,217.3566,246.5334,225.06,252.67" style="stroke:#181818;stroke-width:1;"/><text fill="#000000" font-family="sans-serif" font-size="13" lengthAdjust="spacing" textLength="94.6372" x="208" y="219.0669">call on change</text></g><!--link DeadlineMonitor to Deadline--><g id="link_DeadlineMonitor_Deadline"><path d="M89.47,176.09 C76.93,183.61 65.31,193.41 58,206 C48.34,222.64 48.4281,238.9612 51.3181,255.3512 " fill="transparent" id="DeadlineMonitor-to-Deadline" style="stroke:#181818;stroke-width:1;stroke-dasharray:7.0,7.0;"/><polygon fill="#181818" points="52.36,261.26,54.7364,251.7021,51.4918,256.336,46.8579,253.0913,52.36,261.26" style="stroke:#181818;stroke-width:1;"/><text fill="#000000" font-family="sans-serif" font-size="13" lengthAdjust="spacing" textLength="129.6763" x="59" y="219.0669">generate and check</text></g><!--SRC=[VOqn3eCm40Hxl-Ba1_00X5oW56doYCjv0Gld3bdE_sDQv53FZ4RiSvX2A_a7EEQaU9ccQcN-fXnHl9E_IfVT1K-ptTCq9Qqe2mj2SAx_fM48T44qqlkarwJddglc2-TCfYGRwuhRiDah58KhY3Ms1BAx7m00]--></g></svg>