<svg xmlns="http://www.w3.org/2000/svg" xmlns:xlink="http://www.w3.org/1999/xlink" contentStyleType="text/css" data-diagram-type="DESCRIPTION" height="305px" preserveAspectRatio="none" style="width:561px;height:305px;background:#FFFFFF;" version="1.1" viewBox="0 0 561 305" width="561px" zoomAndPan="magnify"><defs/><g><!--entity DeadlineMonitor--><g id="elem_DeadlineMonitor"><rect fill="#F1F1F1" height="46.2969" rx="2.5" ry="2.5" style="stroke:#181818;stroke-width:0.5;" width="155.3428" x="7" y="253"/><rect fill="#F1F1F1" height="10" style="stroke:#181818;stroke-width:0.5;" width="15" x="142.3428" y="258"/><rect fill="#F1F1F1" height="2" style="stroke:#181818;stroke-width:0.5;" width="4" x="140.3428" y="260"/><rect fill="#F1F1F1" height="2" style="stroke:#181818;stroke-width:0.5;" width="4" x="140.3428" y="264"/><text fill="#000000" font-family="sans-serif" font-size="14" lengthAdjust="spacing" textLength="115.3428" x="22" y="285.9951">DeadlineMonitor</text></g><!--entity LogicMonitor--><g id="elem_LogicMonitor"><rect fill="#F1F1F1" height="46.2969" rx="2.5" ry="2.5" style="stroke:#181818;stroke-width:0.5;" width="130.0566" x="197.5" y="253"/><rect fill="#F1F1F1" height="10" style="stroke:#181818;stroke-width:0.5;" width="15" x="307.5566" y="258"/><rect fill="#F1F1F1" height="2" style="stroke:#181818;stroke-width:0.5;" width="4" x="305.5566" y="260"/><rect fill="#F1F1F1" height="2" style="stroke:#181818;stroke-width:0.5;" width="4" x="305.5566" y="264"/><text fill="#000000" font-family="sans-serif" font-size="14" lengthAdjust="spacing" textLength="90.0566" x="212.5" y="285.9951">LogicMonitor</text></g><!--entity HealthMonitorBuilder--><g id="elem_HealthMonitorBuilder"><rect fill="#F1F1F1" height="46.2969" rx="2.5" ry="2.5" style="stroke:#181818;stroke-width:0.5;" width="188.7021" x="168" y="7"/><rect fill="#F1F1F1" height="10" style="stroke:#181818;stroke-width:0.5;" width="15" x="336.7021" y="12"/><rect fill="#F1F1F1" height="2" style="stroke:#181818;stroke-width:0.5;" width="4" x="334.7021" y="14"/><rect fill="#F1F1F1" height="2" style="stroke:#181818;stroke-width:0.5;" width="4" x="334.7021" y="18"/><text fill="#000000" font-family="sans-serif" font-size="14" lengthAdjust="spacing" textLength="148.7021" x="183" y="39.9951">HealthMonitorBuilder</text></g><!--entity HealthMonitor--><g id="elem_HealthMonitor"><rect fill="#F1F1F1" height="46.2969" rx="2.5" ry="2.5" style="stroke:#181818;stroke-width:0.5;" width="139.1895" x="193" y="130"/><rect fill="#F1F1F1" height="10" style="stroke:#181818;stroke-width:0.5;" width="15" x="312.1895" y="135"/><rect fill="#F1F1F1" height="2" style="stroke:#181818;stroke-width:0.5;" width="4" x="310.1895" y="137"/><rect fill="#F1F1F1" height="2" style="stroke:#181818;stroke-width:0.5;" width="4" x="310.1895" y="141"/><text fill="#000000" font-family="sans-serif" font-size="14" lengthAdjust="spacing" textLength="99.1895" x="208" y="162.9951">HealthMonitor</text></g><!--entity HeartbeatMonitor--><g id="elem_HeartbeatMonitor"><rect fill="#F1F1F1" height="46.2969" rx="2.5" ry="2.5" style="stroke:#181818;stroke-width:0.5;" width="163.751" x="362.5" y="253"/><rect fill="#F1F1F1" height="10" style="stroke:#181818;stroke-width:0.5;" width="15" x="506.251" y="258"/><rect fill="#F1F1F1" height="2" style="stroke:#181818;stroke-width:0.5;" width="4" x="504.251" y="260"/><rect fill="#F1F1F1" height="2" style="stroke:#181818;stroke-width:0.5;" width="4" x="504.251" y="264"/><text fill="#000000" font-family="sans-serif" font-size="14" lengthAdjust="spacing" textLength="123.751" x="377.5" y="285.9951">HeartbeatMonitor</text></g><!--link HealthMonitorBuilder to HealthMonitor--><g id="link_HealthMonitorBuilder_HealthMonitor"><path d="M262.5,53.19 C262.5,75.03 262.5,102.16 262.5,123.95 " fill="transparent" id="HealthMonitorBuilder-to-HealthMonitor" style="stroke:#181818;stroke-width:1;stroke-dasharray:7.0,7.0;"/><polygon fill="#181818" points="262.5,129.95,266.5,120.95,262.5,124.95,258.5,120.95,262.5,129.95" style="stroke:#181818;stroke-width:1;"/><text fill="#000000" font-family="sans-serif" font-size="13" lengthAdjust="spacing" textLength="31.9668" x="263.5" y="96.0669">build</text></g><!--link HealthMonitor to DeadlineMonitor--><g id="link_HealthMonitor_DeadlineMonitor"><path d="M192.74,168.4 C167.78,176.26 140.82,188.16 120.5,206 C106.39,218.39 99.1012,232.0537 93.4512,247.0837 " fill="transparent" id="HealthMonitor-to-DeadlineMonitor" style="stroke:#181818;stroke-width:1;stroke-dasharray:7.0,7.0;"/><polygon fill="#181818" points="91.34,252.7,98.2511,245.6831,93.0994,248.0198,90.7627,242.8681,91.34,252.7" style="stroke:#181818;stroke-width:1;"/><text fill="#000000" font-family="sans-serif" font-size="13" lengthAdjust="spacing" textLength="132.6914" x="121.5" y="219.0669">provide and monitor</text></g><!--link HealthMonitor to LogicMonitor--><g id="link_HealthMonitor_LogicMonitor"><path d="M262.5,176.19 C262.5,198.03 262.5,225.16 262.5,246.95 " fill="transparent" id="HealthMonitor-to-LogicMonitor" style="stroke:#181818;stroke-width:1;stroke-dasharray:7.0,7.0;"/><polygon fill="#181818" points="262.5,252.95,266.5,243.95,262.5,247.95,258.5,243.95,262.5,252.95" style="stroke:#181818;stroke-width:1;"/><text fill="#000000" font-family="sans-serif" font-size="13" lengthAdjust="spacing" textLength="132.6914" x="263.5" y="219.0669">provide and monitor</text></g><!--link HealthMonitor to HeartbeatMonitor--><g id="link_HealthMonitor_HeartbeatMonitor"><path d="M332.2,169.01 C357.02,176.92 383.89,188.7 404.5,206 C419.24,218.37 427.3774,232.1477 433.9174,247.1877 " fill="transparent" id="HealthMonitor-to-HeartbeatMonitor" style="stroke:#181818;stroke-width:1;stroke-dasharray:7.0,7.0;"/><polygon fill="#181818" points="436.31,252.69,436.3893,242.8415,434.3161,248.1047,429.0529,246.0316,436.31,252.69" style="stroke:#181818;stroke-width:1;"/><text fill="#000000" font-family="sans-serif" font-size="13" lengthAdjust="spacing" textLength="132.6914" x="420.5" y="219.0669">provide and monitor</text></g><!--SRC=[IyxFBSZFIyqhKL1oIKrCoSdCI_NDpyiioIzIuaf6oFdafsScOvFmI4tCASc0oZYLPkQafE9HW2vJL9AKcbW2b-J2Pfg2dfwT0eg4WfL24aWELJbO7PeVW2eBYlBBCbDI5HBpKXHo8Q9Oz27xZsXDw1x0eH40]--></g></svg>