<svg xmlns="http://www.w3.org/2000/svg" xmlns:xlink="http://www.w3.org/1999/xlink" contentStyleType="text/css" data-diagram-type="CLASS" height="317px" preserveAspectRatio="none" style="width:950px;height:317px;background:#FFFFFF;" version="1.1" viewBox="0 0 950 317" width="950px" zoomAndPan="magnify"><defs/><g><!--class LogicMonitorState--><g id="elem_LogicMonitorState"><rect codeLine="2" fill="#F1F1F1" height="64.2969" id="LogicMonitorState" rx="2.5" ry="2.5" style="stroke:#181818;stroke-width:0.5;" width="302.4453" x="7" y="213.5"/><ellipse cx="84.9155" cy="229.5" fill="#ADD1B2" rx="11" ry="11" style="stroke:#181818;stroke-width:1;"/><path d="M87.8843,235.1406 Q87.3062,235.4375 86.6655,235.5781 Q86.0249,235.7344 85.3218,235.7344 Q82.8218,235.7344 81.4937,234.0938 Q80.1812,232.4375 80.1812,229.3125 Q80.1812,226.1875 81.4937,224.5313 Q82.8218,222.875 85.3218,222.875 Q86.0249,222.875 86.6655,223.0313 Q87.3218,223.1875 87.8843,223.4844 L87.8843,226.2031 Q87.2593,225.625 86.6655,225.3594 Q86.0718,225.0781 85.4468,225.0781 Q84.103,225.0781 83.4155,226.1563 Q82.728,227.2188 82.728,229.3125 Q82.728,231.4063 83.4155,232.4844 Q84.103,233.5469 85.4468,233.5469 Q86.0718,233.5469 86.6655,233.2813 Q87.2593,233 87.8843,232.4219 L87.8843,235.1406 Z " fill="#000000"/><ellipse cx="110.4155" cy="229" fill="#84BE84" rx="3" ry="3" style="stroke:#038048;stroke-width:1;"/><text fill="#000000" font-family="sans-serif" font-size="14" lengthAdjust="spacing" textLength="127.1143" x="116.4155" y="234.3467">LogicMonitorState</text><line style="stroke:#181818;stroke-width:0.5;" x1="8" x2="308.4453" y1="245.5" y2="245.5"/><line style="stroke:#181818;stroke-width:0.5;" x1="8" x2="308.4453" y1="253.5" y2="253.5"/><ellipse cx="18" cy="267.1484" fill="#84BE84" rx="3" ry="3" style="stroke:#038048;stroke-width:1;"/><text fill="#000000" font-family="sans-serif" font-size="14" lengthAdjust="spacing" textLength="276.4453" x="27" y="270.4951">new&lt;N: AsRef&lt;str&gt;&gt;(name: N) -&gt; Self</text></g><!--class Error--><g id="elem_Error"><rect codeLine="2" fill="#F1F1F1" height="113.1875" id="Error" rx="2.5" ry="2.5" style="stroke:#181818;stroke-width:0.5;" width="116.9863" x="344.5" y="189"/><ellipse cx="377.1884" cy="205" fill="#EB937F" rx="11" ry="11" style="stroke:#181818;stroke-width:1;"/><path d="M381.2978,211 L373.5791,211 L373.5791,198.6094 L381.2978,198.6094 L381.2978,200.7656 L376.0322,200.7656 L376.0322,203.4375 L380.7978,203.4375 L380.7978,205.5938 L376.0322,205.5938 L376.0322,208.8438 L381.2978,208.8438 L381.2978,211 Z " fill="#000000"/><ellipse cx="400.1192" cy="204.5" fill="#84BE84" rx="3" ry="3" style="stroke:#038048;stroke-width:1;"/><text fill="#000000" font-family="sans-serif" font-size="14" lengthAdjust="spacing" textLength="34.6787" x="406.1192" y="209.8467">Error</text><line style="stroke:#181818;stroke-width:0.5;" x1="345.5" x2="460.4863" y1="221" y2="221"/><text fill="#000000" font-family="sans-serif" font-size="14" lengthAdjust="spacing" textLength="104.9863" x="350.5" y="237.9951">BadParameter,</text><text fill="#000000" font-family="sans-serif" font-size="14" lengthAdjust="spacing" textLength="83.8496" x="350.5" y="254.292">NotAllowed,</text><text fill="#000000" font-family="sans-serif" font-size="14" lengthAdjust="spacing" textLength="102.7168" x="350.5" y="270.5889">OutOfMemory,</text><text fill="#000000" font-family="sans-serif" font-size="14" lengthAdjust="spacing" textLength="58.7412" x="350.5" y="286.8857">Generic,</text><line style="stroke:#181818;stroke-width:0.5;" x1="345.5" x2="460.4863" y1="294.1875" y2="294.1875"/></g><!--class LogicMonitor--><g id="elem_LogicMonitor"><rect codeLine="7" fill="#F1F1F1" height="129.4844" id="LogicMonitor" rx="2.5" ry="2.5" style="stroke:#181818;stroke-width:0.5;" width="446.0342" x="497" y="181"/><ellipse cx="665.2388" cy="197" fill="#ADD1B2" rx="11" ry="11" style="stroke:#181818;stroke-width:1;"/><path d="M668.2075,202.6406 Q667.6294,202.9375 666.9888,203.0781 Q666.3481,203.2344 665.645,203.2344 Q663.145,203.2344 661.8169,201.5938 Q660.5044,199.9375 660.5044,196.8125 Q660.5044,193.6875 661.8169,192.0313 Q663.145,190.375 665.645,190.375 Q666.3481,190.375 666.9888,190.5313 Q667.645,190.6875 668.2075,190.9844 L668.2075,193.7031 Q667.5825,193.125 666.9888,192.8594 Q666.395,192.5781 665.77,192.5781 Q664.4263,192.5781 663.7388,193.6563 Q663.0513,194.7188 663.0513,196.8125 Q663.0513,198.9063 663.7388,199.9844 Q664.4263,201.0469 665.77,201.0469 Q666.395,201.0469 666.9888,200.7813 Q667.5825,200.5 668.2075,199.9219 L668.2075,202.6406 Z " fill="#000000"/><ellipse cx="690.7388" cy="196.5" fill="#84BE84" rx="3" ry="3" style="stroke:#038048;stroke-width:1;"/><text fill="#000000" font-family="sans-serif" font-size="14" lengthAdjust="spacing" textLength="90.0566" x="696.7388" y="201.8467">LogicMonitor</text><line style="stroke:#181818;stroke-width:0.5;" x1="498" x2="942.0342" y1="213" y2="213"/><line style="stroke:#181818;stroke-width:0.5;" x1="498" x2="942.0342" y1="221" y2="221"/><ellipse cx="508" cy="234.6484" fill="#84BE84" rx="3" ry="3" style="stroke:#038048;stroke-width:1;"/><text fill="#000000" font-family="sans-serif" font-size="14" lengthAdjust="spacing" textLength="420.0342" x="517" y="237.9951">transition(&amp;self, to: LogicMonitorState) -&gt; Result&lt;(), Error&gt;</text><ellipse cx="508" cy="250.9453" fill="#84BE84" rx="3" ry="3" style="stroke:#038048;stroke-width:1;"/><text fill="#000000" font-family="sans-serif" font-size="14" lengthAdjust="spacing" textLength="241.5547" x="517" y="254.292">enable(&amp;self) -&gt; Result&lt;(), Error&gt;</text><ellipse cx="508" cy="267.2422" fill="#84BE84" rx="3" ry="3" style="stroke:#038048;stroke-width:1;"/><text fill="#000000" font-family="sans-serif" font-size="14" lengthAdjust="spacing" textLength="244.1387" x="517" y="270.5889">disable(&amp;self) -&gt; Result&lt;(), Error&gt;</text><polygon fill="#4177AF" points="508,279.5391,504,285.5391,512,285.5391" style="stroke:#1963A0;stroke-width:1;"/><text fill="#000000" font-family="sans-serif" font-size="14" lengthAdjust="spacing" textLength="159.8789" x="517" y="286.8857">status(&amp;self) -&gt; Status</text><polygon fill="#4177AF" points="508,295.8359,504,301.8359,512,301.8359" style="stroke:#1963A0;stroke-width:1;"/><text fill="#000000" font-family="sans-serif" font-size="14" lengthAdjust="spacing" textLength="234.8281" x="517" y="303.1826">state(&amp;self) -&gt; LogicMonitorState</text></g><!--class LogicMonitorBuilder--><g id="elem_LogicMonitorBuilder"><rect codeLine="7" fill="#F1F1F1" height="96.8906" id="LogicMonitorBuilder" rx="2.5" ry="2.5" style="stroke:#181818;stroke-width:0.5;" width="637.7412" x="84" y="7"/><ellipse cx="323.3359" cy="23" fill="#ADD1B2" rx="11" ry="11" style="stroke:#181818;stroke-width:1;"/><path d="M326.3047,28.6406 Q325.7266,28.9375 325.0859,29.0781 Q324.4453,29.2344 323.7422,29.2344 Q321.2422,29.2344 319.9141,27.5938 Q318.6016,25.9375 318.6016,22.8125 Q318.6016,19.6875 319.9141,18.0313 Q321.2422,16.375 323.7422,16.375 Q324.4453,16.375 325.0859,16.5313 Q325.7422,16.6875 326.3047,16.9844 L326.3047,19.7031 Q325.6797,19.125 325.0859,18.8594 Q324.4922,18.5781 323.8672,18.5781 Q322.5234,18.5781 321.8359,19.6563 Q321.1484,20.7188 321.1484,22.8125 Q321.1484,24.9063 321.8359,25.9844 Q322.5234,27.0469 323.8672,27.0469 Q324.4922,27.0469 325.0859,26.7813 Q325.6797,26.5 326.3047,25.9219 L326.3047,28.6406 Z " fill="#000000"/><ellipse cx="348.8359" cy="22.5" fill="#84BE84" rx="3" ry="3" style="stroke:#038048;stroke-width:1;"/><text fill="#000000" font-family="sans-serif" font-size="14" lengthAdjust="spacing" textLength="139.5693" x="354.8359" y="27.8467">LogicMonitorBuilder</text><line style="stroke:#181818;stroke-width:0.5;" x1="85" x2="720.7412" y1="39" y2="39"/><line style="stroke:#181818;stroke-width:0.5;" x1="85" x2="720.7412" y1="47" y2="47"/><ellipse cx="95" cy="60.6484" fill="#84BE84" rx="3" ry="3" style="stroke:#038048;stroke-width:1;"/><text fill="#000000" font-family="sans-serif" font-size="14" lengthAdjust="spacing" textLength="309.1074" x="104" y="63.9951">new(initial_state: LogicMonitorState) -&gt; Self</text><ellipse cx="95" cy="76.9453" fill="#84BE84" rx="3" ry="3" style="stroke:#038048;stroke-width:1;"/><text fill="#000000" font-family="sans-serif" font-size="14" lengthAdjust="spacing" textLength="611.7412" x="104" y="80.292">add_transition(&amp;mut self, from: LogicMonitorState, to: LogicMonitorState) -&gt; &amp;mut Self</text><ellipse cx="95" cy="93.2422" fill="#84BE84" rx="3" ry="3" style="stroke:#038048;stroke-width:1;"/><text fill="#000000" font-family="sans-serif" font-size="14" lengthAdjust="spacing" textLength="296.7412" x="104" y="96.5889">build(self) -&gt; Result&lt;LogicMonitor, Error&gt;</text></g><!--link LogicMonitorBuilder to Error--><g id="link_LogicMonitorBuilder_Error"><path codeLine="15" d="M403,104.43 C403,130.21 403,156.14 403,182.99 " fill="transparent" id="LogicMonitorBuilder-to-Error" style="stroke:#181818;stroke-width:1;stroke-dasharray:7.0,7.0;"/><polygon fill="#181818" points="403,188.99,407,179.99,403,183.99,399,179.99,403,188.99" style="stroke:#181818;stroke-width:1;"/></g><!--reverse link LogicMonitorBuilder to LogicMonitorState--><g id="link_LogicMonitorBuilder_LogicMonitorState"><path codeLine="16" d="M331.3399,111.4853 C286.6799,145.7553 237.28,183.66 198.55,213.39 " fill="transparent" id="LogicMonitorBuilder-backto-LogicMonitorState" style="stroke:#181818;stroke-width:1;"/><polygon fill="#181818" points="340.86,104.18,333.6648,104.6593,331.3399,111.4853,338.535,111.006,340.86,104.18" style="stroke:#181818;stroke-width:1;"/><text fill="#000000" font-family="sans-serif" font-size="13" lengthAdjust="spacing" textLength="33.5981" x="297" y="147.0669">owns</text><text fill="#000000" font-family="sans-serif" font-size="13" lengthAdjust="spacing" textLength="23.0356" x="181.4993" y="202.2704">1..*</text></g><!--link LogicMonitorBuilder to LogicMonitor--><g id="link_LogicMonitorBuilder_LogicMonitor"><path codeLine="17" d="M483.4,104.18 C522.66,127.46 565.2692,152.7396 607.5792,177.8296 " fill="transparent" id="LogicMonitorBuilder-to-LogicMonitor" style="stroke:#181818;stroke-width:1;stroke-dasharray:7.0,7.0;"/><polygon fill="#181818" points="612.74,180.89,607.039,172.8589,608.4393,178.3397,602.9585,179.74,612.74,180.89" style="stroke:#181818;stroke-width:1;"/><text fill="#000000" font-family="sans-serif" font-size="13" lengthAdjust="spacing" textLength="81.6943" x="563" y="147.0669">&#171;consumes&#187;</text></g><!--SRC=[XL2xQiCm5Dtr5LSPYflOWgx1Q6Z9bYx91nX5kcu5UXGzo53wxvNYFXpgK2s2y-BSGxMJ9Yi4OuUOH4BsbgqXz1j-jGE6uCCr7FEf6hHB64OX9nFT-nSjdxtJoOSd8s8aX9RCaAfyJZvcRHH-QJQoVaiyl1CeR-FmtEX2Q66cZjihzR52zz1nEA8P9ujGQaX1k5XStZLtDYU8XMrX3Duk-5j8_bRinVsRVQhjcffsOGzb3PFwkRM5NTsCamz2qQbo_ZzB7D2GfG4OurFK8hlkEbWzCBPU_IqEM_1d5s-cpl6YxNlfNSmM8-S_dJy1]--></g></svg>