<svg xmlns="http://www.w3.org/2000/svg" xmlns:xlink="http://www.w3.org/1999/xlink" contentStyleType="text/css" data-diagram-type="CLASS" height="366px" preserveAspectRatio="none" style="width:1398px;height:366px;background:#FFFFFF;" version="1.1" viewBox="0 0 1398 366" width="1398px" zoomAndPan="magnify"><defs/><g><!--class TimeRange--><g id="elem_TimeRange"><rect codeLine="2" fill="#F1F1F1" height="80.5938" id="TimeRange" rx="2.5" ry="2.5" style="stroke:#181818;stroke-width:0.5;" width="122.3721" x="7" y="229.5"/><ellipse cx="22" cy="245.5" fill="#F1F1F1" rx="11" ry="11" style="stroke:#181818;stroke-width:1;"/><path d="M21.4844,246.0625 Q19.625,245.3594 18.9688,244.5938 Q18.3281,243.8125 18.3281,242.5 Q18.3281,240.8125 19.4063,239.8438 Q20.4844,238.875 22.3594,238.875 Q23.2188,238.875 24.0625,239.0781 Q24.9219,239.2656 25.7656,239.6563 L25.7656,242.0469 Q24.9844,241.4844 24.1563,241.2031 Q23.3438,240.9063 22.5469,240.9063 Q21.6719,240.9063 21.1875,241.2656 Q20.7188,241.625 20.7188,242.2813 Q20.7188,242.7969 21.0625,243.1406 Q21.4063,243.4688 22.5,243.875 L23.5625,244.2813 Q25.0469,244.8281 25.75,245.7344 Q26.4688,246.6406 26.4688,248.0156 Q26.4688,249.8906 25.3594,250.8125 Q24.25,251.7344 22,251.7344 Q21.0781,251.7344 20.1563,251.5156 Q19.2344,251.2969 18.375,250.875 L18.375,248.3438 Q19.3438,249.0313 20.2656,249.375 Q21.1875,249.7188 22.0781,249.7188 Q22.9844,249.7188 23.4844,249.3125 Q23.9844,248.8906 23.9844,248.1563 Q23.9844,247.5938 23.6406,247.1875 Q23.3125,246.7656 22.6875,246.5156 L21.4844,246.0625 Z " fill="#000000"/><ellipse cx="41" cy="245" fill="#84BE84" rx="3" ry="3" style="stroke:#038048;stroke-width:1;"/><text fill="#000000" font-family="sans-serif" font-size="14" lengthAdjust="spacing" textLength="79.3721" x="47" y="250.3467">TimeRange</text><line style="stroke:#181818;stroke-width:0.5;" x1="8" x2="128.3721" y1="261.5" y2="261.5"/><text fill="#000000" font-family="sans-serif" font-size="14" lengthAdjust="spacing" textLength="96.373" x="13" y="278.4951">min: Duration</text><text fill="#000000" font-family="sans-serif" font-size="14" lengthAdjust="spacing" textLength="100.4746" x="13" y="294.792">max: Duration</text><line style="stroke:#181818;stroke-width:0.5;" x1="8" x2="128.3721" y1="302.0938" y2="302.0938"/></g><!--class Error--><g id="elem_Error"><rect codeLine="2" fill="#F1F1F1" height="113.1875" id="Error" rx="2.5" ry="2.5" style="stroke:#181818;stroke-width:0.5;" width="116.9863" x="164.5" y="213.5"/><ellipse cx="197.1884" cy="229.5" fill="#EB937F" rx="11" ry="11" style="stroke:#181818;stroke-width:1;"/><path d="M201.2978,235.5 L193.5791,235.5 L193.5791,223.1094 L201.2978,223.1094 L201.2978,225.2656 L196.0322,225.2656 L196.0322,227.9375 L200.7978,227.9375 L200.7978,230.0938 L196.0322,230.0938 L196.0322,233.3438 L201.2978,233.3438 L201.2978,235.5 Z " fill="#000000"/><ellipse cx="220.1192" cy="229" fill="#84BE84" rx="3" ry="3" style="stroke:#038048;stroke-width:1;"/><text fill="#000000" font-family="sans-serif" font-size="14" lengthAdjust="spacing" textLength="34.6787" x="226.1192" y="234.3467">Error</text><line style="stroke:#181818;stroke-width:0.5;" x1="165.5" x2="280.4863" y1="245.5" y2="245.5"/><text fill="#000000" font-family="sans-serif" font-size="14" lengthAdjust="spacing" textLength="104.9863" x="170.5" y="262.4951">BadParameter,</text><text fill="#000000" font-family="sans-serif" font-size="14" lengthAdjust="spacing" textLength="83.8496" x="170.5" y="278.792">NotAllowed,</text><text fill="#000000" font-family="sans-serif" font-size="14" lengthAdjust="spacing" textLength="102.7168" x="170.5" y="295.0889">OutOfMemory,</text><text fill="#000000" font-family="sans-serif" font-size="14" lengthAdjust="spacing" textLength="58.7412" x="170.5" y="311.3857">Generic,</text><line style="stroke:#181818;stroke-width:0.5;" x1="165.5" x2="280.4863" y1="318.6875" y2="318.6875"/></g><!--class Tag--><g id="elem_Tag"><rect codeLine="2" fill="#F1F1F1" height="64.2969" id="Tag" rx="2.5" ry="2.5" style="stroke:#181818;stroke-width:0.5;" width="302.4453" x="317" y="238"/><ellipse cx="445.4639" cy="254" fill="#ADD1B2" rx="11" ry="11" style="stroke:#181818;stroke-width:1;"/><path d="M448.4326,259.6406 Q447.8545,259.9375 447.2139,260.0781 Q446.5732,260.2344 445.8701,260.2344 Q443.3701,260.2344 442.042,258.5938 Q440.7295,256.9375 440.7295,253.8125 Q440.7295,250.6875 442.042,249.0313 Q443.3701,247.375 445.8701,247.375 Q446.5732,247.375 447.2139,247.5313 Q447.8701,247.6875 448.4326,247.9844 L448.4326,250.7031 Q447.8076,250.125 447.2139,249.8594 Q446.6201,249.5781 445.9951,249.5781 Q444.6514,249.5781 443.9639,250.6563 Q443.2764,251.7188 443.2764,253.8125 Q443.2764,255.9063 443.9639,256.9844 Q444.6514,258.0469 445.9951,258.0469 Q446.6201,258.0469 447.2139,257.7813 Q447.8076,257.5 448.4326,256.9219 L448.4326,259.6406 Z " fill="#000000"/><ellipse cx="470.9639" cy="253.5" fill="#84BE84" rx="3" ry="3" style="stroke:#038048;stroke-width:1;"/><text fill="#000000" font-family="sans-serif" font-size="14" lengthAdjust="spacing" textLength="26.0176" x="476.9639" y="258.8467">Tag</text><line style="stroke:#181818;stroke-width:0.5;" x1="318" x2="618.4453" y1="270" y2="270"/><line style="stroke:#181818;stroke-width:0.5;" x1="318" x2="618.4453" y1="278" y2="278"/><ellipse cx="328" cy="291.6484" fill="#84BE84" rx="3" ry="3" style="stroke:#038048;stroke-width:1;"/><text fill="#000000" font-family="sans-serif" font-size="14" lengthAdjust="spacing" textLength="276.4453" x="337" y="294.9951">new&lt;N: AsRef&lt;str&gt;&gt;(name: N) -&gt; Self</text></g><!--class DeadlineMonitor--><g id="elem_DeadlineMonitor"><rect codeLine="9" fill="#F1F1F1" height="178.375" id="DeadlineMonitor" rx="2.5" ry="2.5" style="stroke:#181818;stroke-width:0.5;" width="736.8213" x="654.5" y="181"/><ellipse cx="955.4893" cy="197" fill="#ADD1B2" rx="11" ry="11" style="stroke:#181818;stroke-width:1;"/><path d="M958.458,202.6406 Q957.8799,202.9375 957.2393,203.0781 Q956.5986,203.2344 955.8955,203.2344 Q953.3955,203.2344 952.0674,201.5938 Q950.7549,199.9375 950.7549,196.8125 Q950.7549,193.6875 952.0674,192.0313 Q953.3955,190.375 955.8955,190.375 Q956.5986,190.375 957.2393,190.5313 Q957.8955,190.6875 958.458,190.9844 L958.458,193.7031 Q957.833,193.125 957.2393,192.8594 Q956.6455,192.5781 956.0205,192.5781 Q954.6768,192.5781 953.9893,193.6563 Q953.3018,194.7188 953.3018,196.8125 Q953.3018,198.9063 953.9893,199.9844 Q954.6768,201.0469 956.0205,201.0469 Q956.6455,201.0469 957.2393,200.7813 Q957.833,200.5 958.458,199.9219 L958.458,202.6406 Z " fill="#000000"/><ellipse cx="980.9893" cy="196.5" fill="#84BE84" rx="3" ry="3" style="stroke:#038048;stroke-width:1;"/><text fill="#000000" font-family="sans-serif" font-size="14" lengthAdjust="spacing" textLength="115.3428" x="986.9893" y="201.8467">DeadlineMonitor</text><line style="stroke:#181818;stroke-width:0.5;" x1="655.5" x2="1390.3213" y1="213" y2="213"/><line style="stroke:#181818;stroke-width:0.5;" x1="655.5" x2="1390.3213" y1="221" y2="221"/><ellipse cx="665.5" cy="234.6484" fill="#84BE84" rx="3" ry="3" style="stroke:#038048;stroke-width:1;"/><text fill="#000000" font-family="sans-serif" font-size="14" lengthAdjust="spacing" textLength="402.5615" x="674.5" y="237.9951">get_deadline(&amp;self, tag: Tag) -&gt; Result&lt;Deadline, Error&gt;</text><ellipse cx="665.5" cy="250.9453" fill="#84BE84" rx="3" ry="3" style="stroke:#038048;stroke-width:1;"/><text fill="#000000" font-family="sans-serif" font-size="14" lengthAdjust="spacing" textLength="493.4863" x="674.5" y="254.292">get_deadline_guard(&amp;self, tag: Tag) -&gt; Result&lt;DeadlineGuard, Error&gt;</text><ellipse cx="665.5" cy="267.2422" fill="#84BE84" rx="3" ry="3" style="stroke:#038048;stroke-width:1;"/><text fill="#000000" font-family="sans-serif" font-size="14" lengthAdjust="spacing" textLength="619.8965" x="674.5" y="270.5889">create_custom_deadline(&amp;self, duration_range: TimeRange) -&gt; Result&lt;Deadline, Error&gt;</text><ellipse cx="665.5" cy="283.5391" fill="#84BE84" rx="3" ry="3" style="stroke:#038048;stroke-width:1;"/><text fill="#000000" font-family="sans-serif" font-size="14" lengthAdjust="spacing" textLength="710.8213" x="674.5" y="286.8857">create_custom_deadline_guard(&amp;self, duration_range: TimeRange) -&gt; Result&lt;DeadlineGuard, Error&gt;</text><ellipse cx="665.5" cy="299.8359" fill="#84BE84" rx="3" ry="3" style="stroke:#038048;stroke-width:1;"/><text fill="#000000" font-family="sans-serif" font-size="14" lengthAdjust="spacing" textLength="241.5547" x="674.5" y="303.1826">enable(&amp;self) -&gt; Result&lt;(), Error&gt;</text><ellipse cx="665.5" cy="316.1328" fill="#84BE84" rx="3" ry="3" style="stroke:#038048;stroke-width:1;"/><text fill="#000000" font-family="sans-serif" font-size="14" lengthAdjust="spacing" textLength="244.1387" x="674.5" y="319.4795">disable(&amp;self) -&gt; Result&lt;(), Error&gt;</text><polygon fill="#4177AF" points="665.5,328.4297,661.5,334.4297,669.5,334.4297" style="stroke:#1963A0;stroke-width:1;"/><text fill="#000000" font-family="sans-serif" font-size="14" lengthAdjust="spacing" textLength="159.8789" x="674.5" y="335.7764">status(&amp;self) -&gt; Status</text><polygon fill="#4177AF" points="665.5,344.7266,661.5,350.7266,669.5,350.7266" style="stroke:#1963A0;stroke-width:1;"/><text fill="#000000" font-family="sans-serif" font-size="14" lengthAdjust="spacing" textLength="177.7822" x="674.5" y="352.0732">evaluate(&amp;self) -&gt; Status</text></g><!--class DeadlineMonitorBuilder--><g id="elem_DeadlineMonitorBuilder"><rect codeLine="8" fill="#F1F1F1" height="96.8906" id="DeadlineMonitorBuilder" rx="2.5" ry="2.5" style="stroke:#181818;stroke-width:0.5;" width="565.0684" x="62.5" y="7"/><ellipse cx="252.8564" cy="23" fill="#ADD1B2" rx="11" ry="11" style="stroke:#181818;stroke-width:1;"/><path d="M255.8252,28.6406 Q255.2471,28.9375 254.6064,29.0781 Q253.9658,29.2344 253.2627,29.2344 Q250.7627,29.2344 249.4346,27.5938 Q248.1221,25.9375 248.1221,22.8125 Q248.1221,19.6875 249.4346,18.0313 Q250.7627,16.375 253.2627,16.375 Q253.9658,16.375 254.6064,16.5313 Q255.2627,16.6875 255.8252,16.9844 L255.8252,19.7031 Q255.2002,19.125 254.6064,18.8594 Q254.0127,18.5781 253.3877,18.5781 Q252.0439,18.5781 251.3564,19.6563 Q250.6689,20.7188 250.6689,22.8125 Q250.6689,24.9063 251.3564,25.9844 Q252.0439,27.0469 253.3877,27.0469 Q254.0127,27.0469 254.6064,26.7813 Q255.2002,26.5 255.8252,25.9219 L255.8252,28.6406 Z " fill="#000000"/><ellipse cx="278.3564" cy="22.5" fill="#84BE84" rx="3" ry="3" style="stroke:#038048;stroke-width:1;"/><text fill="#000000" font-family="sans-serif" font-size="14" lengthAdjust="spacing" textLength="164.8555" x="284.3564" y="27.8467">DeadlineMonitorBuilder</text><line style="stroke:#181818;stroke-width:0.5;" x1="63.5" x2="626.5684" y1="39" y2="39"/><line style="stroke:#181818;stroke-width:0.5;" x1="63.5" x2="626.5684" y1="47" y2="47"/><ellipse cx="73.5" cy="60.6484" fill="#84BE84" rx="3" ry="3" style="stroke:#038048;stroke-width:1;"/><text fill="#000000" font-family="sans-serif" font-size="14" lengthAdjust="spacing" textLength="91.8613" x="82.5" y="63.9951">new() -&gt; Self</text><ellipse cx="73.5" cy="76.9453" fill="#84BE84" rx="3" ry="3" style="stroke:#038048;stroke-width:1;"/><text fill="#000000" font-family="sans-serif" font-size="14" lengthAdjust="spacing" textLength="539.0684" x="82.5" y="80.292">add_deadline(&amp;mut self, tag: Tag, duration_range: TimeRange) -&gt; &amp;mut Self</text><ellipse cx="73.5" cy="93.2422" fill="#84BE84" rx="3" ry="3" style="stroke:#038048;stroke-width:1;"/><text fill="#000000" font-family="sans-serif" font-size="14" lengthAdjust="spacing" textLength="322.0273" x="82.5" y="96.5889">build(self) -&gt; Result&lt;DeadlineMonitor, Error&gt;</text></g><!--link DeadlineMonitorBuilder to Error--><g id="link_DeadlineMonitorBuilder_Error"><path codeLine="16" d="M317.62,104.19 C299.07,136.49 277.4877,174.0968 258.0277,207.9868 " fill="transparent" id="DeadlineMonitorBuilder-to-Error" style="stroke:#181818;stroke-width:1;stroke-dasharray:7.0,7.0;"/><polygon fill="#181818" points="255.04,213.19,262.9904,207.377,257.5298,208.854,256.0528,203.3934,255.04,213.19" style="stroke:#181818;stroke-width:1;"/></g><!--link DeadlineMonitorBuilder to Tag--><g id="link_DeadlineMonitorBuilder_Tag"><path codeLine="17" d="M372.6,104.19 C396.26,145.06 426.6451,197.5467 446.9951,232.7167 " fill="transparent" id="DeadlineMonitorBuilder-to-Tag" style="stroke:#181818;stroke-width:1;stroke-dasharray:7.0,7.0;"/><polygon fill="#181818" points="450,237.91,448.9548,228.1168,447.4959,233.5823,442.0304,232.1233,450,237.91" style="stroke:#181818;stroke-width:1;"/></g><!--link DeadlineMonitorBuilder to DeadlineMonitor--><g id="link_DeadlineMonitorBuilder_DeadlineMonitor"><path codeLine="18" d="M496.73,104.06 C569.05,126.72 652.2045,152.7858 736.1945,179.1058 " fill="transparent" id="DeadlineMonitorBuilder-to-DeadlineMonitor" style="stroke:#181818;stroke-width:1;stroke-dasharray:7.0,7.0;"/><polygon fill="#181818" points="741.92,180.9,734.5279,174.3917,737.1488,179.4048,732.1357,182.0257,741.92,180.9" style="stroke:#181818;stroke-width:1;"/><text fill="#000000" font-family="sans-serif" font-size="13" lengthAdjust="spacing" textLength="81.6943" x="645" y="147.0669">&#171;consumes&#187;</text></g><!--link DeadlineMonitorBuilder to TimeRange--><g id="link_DeadlineMonitorBuilder_TimeRange"><path codeLine="19" d="M258.09,104 C222.14,125.43 181,152.35 147,181 C130.04,195.29 117.2471,208.6265 103.5871,224.5465 " fill="transparent" id="DeadlineMonitorBuilder-to-TimeRange" style="stroke:#181818;stroke-width:1;stroke-dasharray:7.0,7.0;"/><polygon fill="#181818" points="99.68,229.1,108.5763,224.8745,102.9359,225.3054,102.505,219.665,99.68,229.1" style="stroke:#181818;stroke-width:1;"/></g><!--SRC=[XP3BJiCm44Nt_ehnfahLa0-e8Y-WBDa4zf6RcGPBVY0_r0NYtx6JWcYg1czitJjpFMUuieDEIF1kUanUHkLixwKTgVb8HZF-noVldR-LenolnP2EWAPNDf8_oM5EuWUIg9Mb5sTLTFv9on0Ouo5A7ql7mdzCIYDTodP3kUwKm2U3V7QMpjKM7WIyaZx1h4d47YzTrSQa226RDUIPz_0cnngkeREe37NbEKLDBILlZZkM7wiICRbTHjMnNOnLmtDPb61VZ9F5pFO_PaUQtQ5h6Z47hXLab3LxOS4UsdPmDYH3GOZLu9zr_B9y0m00]--></g></svg>