<svg xmlns="http://www.w3.org/2000/svg" xmlns:xlink="http://www.w3.org/1999/xlink" contentStyleType="text/css" data-diagram-type="CLASS" height="447px" preserveAspectRatio="none" style="width:2693px;height:447px;background:#FFFFFF;" version="1.1" viewBox="0 0 2693 447" width="2693px" zoomAndPan="magnify"><defs/><g><!--class Error--><g id="elem_Error"><rect codeLine="2" fill="#F1F1F1" height="113.1875" id="Error" rx="2.5" ry="2.5" style="stroke:#181818;stroke-width:0.5;" width="116.9863" x="7" y="294.5"/><ellipse cx="39.6884" cy="310.5" fill="#EB937F" rx="11" ry="11" style="stroke:#181818;stroke-width:1;"/><path d="M43.7978,316.5 L36.0791,316.5 L36.0791,304.1094 L43.7978,304.1094 L43.7978,306.2656 L38.5322,306.2656 L38.5322,308.9375 L43.2978,308.9375 L43.2978,311.0938 L38.5322,311.0938 L38.5322,314.3438 L43.7978,314.3438 L43.7978,316.5 Z " fill="#000000"/><ellipse cx="62.6192" cy="310" fill="#84BE84" rx="3" ry="3" style="stroke:#038048;stroke-width:1;"/><text fill="#000000" font-family="sans-serif" font-size="14" lengthAdjust="spacing" textLength="34.6787" x="68.6192" y="315.3467">Error</text><line style="stroke:#181818;stroke-width:0.5;" x1="8" x2="122.9863" y1="326.5" y2="326.5"/><text fill="#000000" font-family="sans-serif" font-size="14" lengthAdjust="spacing" textLength="104.9863" x="13" y="343.4951">BadParameter,</text><text fill="#000000" font-family="sans-serif" font-size="14" lengthAdjust="spacing" textLength="83.8496" x="13" y="359.792">NotAllowed,</text><text fill="#000000" font-family="sans-serif" font-size="14" lengthAdjust="spacing" textLength="102.7168" x="13" y="376.0889">OutOfMemory,</text><text fill="#000000" font-family="sans-serif" font-size="14" lengthAdjust="spacing" textLength="58.7412" x="13" y="392.3857">Generic,</text><line style="stroke:#181818;stroke-width:0.5;" x1="8" x2="122.9863" y1="399.6875" y2="399.6875"/></g><!--class Tag--><g id="elem_Tag"><rect codeLine="2" fill="#F1F1F1" height="64.2969" id="Tag" rx="2.5" ry="2.5" style="stroke:#181818;stroke-width:0.5;" width="302.4453" x="159.5" y="319"/><ellipse cx="287.9639" cy="335" fill="#ADD1B2" rx="11" ry="11" style="stroke:#181818;stroke-width:1;"/><path d="M290.9326,340.6406 Q290.3545,340.9375 289.7139,341.0781 Q289.0732,341.2344 288.3701,341.2344 Q285.8701,341.2344 284.542,339.5938 Q283.2295,337.9375 283.2295,334.8125 Q283.2295,331.6875 284.542,330.0313 Q285.8701,328.375 288.3701,328.375 Q289.0732,328.375 289.7139,328.5313 Q290.3701,328.6875 290.9326,328.9844 L290.9326,331.7031 Q290.3076,331.125 289.7139,330.8594 Q289.1201,330.5781 288.4951,330.5781 Q287.1514,330.5781 286.4639,331.6563 Q285.7764,332.7188 285.7764,334.8125 Q285.7764,336.9063 286.4639,337.9844 Q287.1514,339.0469 288.4951,339.0469 Q289.1201,339.0469 289.7139,338.7813 Q290.3076,338.5 290.9326,337.9219 L290.9326,340.6406 Z " fill="#000000"/><ellipse cx="313.4639" cy="334.5" fill="#84BE84" rx="3" ry="3" style="stroke:#038048;stroke-width:1;"/><text fill="#000000" font-family="sans-serif" font-size="14" lengthAdjust="spacing" textLength="26.0176" x="319.4639" y="339.8467">Tag</text><line style="stroke:#181818;stroke-width:0.5;" x1="160.5" x2="460.9453" y1="351" y2="351"/><line style="stroke:#181818;stroke-width:0.5;" x1="160.5" x2="460.9453" y1="359" y2="359"/><ellipse cx="170.5" cy="372.6484" fill="#84BE84" rx="3" ry="3" style="stroke:#038048;stroke-width:1;"/><text fill="#000000" font-family="sans-serif" font-size="14" lengthAdjust="spacing" textLength="276.4453" x="179.5" y="375.9951">new&lt;N: AsRef&lt;str&gt;&gt;(name: N) -&gt; Self</text></g><!--class HealthMonitor--><g id="elem_HealthMonitor"><rect codeLine="10" fill="#F1F1F1" height="145.7813" id="HealthMonitor" rx="2.5" ry="2.5" style="stroke:#181818;stroke-width:0.5;" width="560.6113" x="497" y="278"/><ellipse cx="717.9609" cy="294" fill="#ADD1B2" rx="11" ry="11" style="stroke:#181818;stroke-width:1;"/><path d="M720.9297,299.6406 Q720.3516,299.9375 719.7109,300.0781 Q719.0703,300.2344 718.3672,300.2344 Q715.8672,300.2344 714.5391,298.5938 Q713.2266,296.9375 713.2266,293.8125 Q713.2266,290.6875 714.5391,289.0313 Q715.8672,287.375 718.3672,287.375 Q719.0703,287.375 719.7109,287.5313 Q720.3672,287.6875 720.9297,287.9844 L720.9297,290.7031 Q720.3047,290.125 719.7109,289.8594 Q719.1172,289.5781 718.4922,289.5781 Q717.1484,289.5781 716.4609,290.6563 Q715.7734,291.7188 715.7734,293.8125 Q715.7734,295.9063 716.4609,296.9844 Q717.1484,298.0469 718.4922,298.0469 Q719.1172,298.0469 719.7109,297.7813 Q720.3047,297.5 720.9297,296.9219 L720.9297,299.6406 Z " fill="#000000"/><ellipse cx="743.4609" cy="293.5" fill="#84BE84" rx="3" ry="3" style="stroke:#038048;stroke-width:1;"/><text fill="#000000" font-family="sans-serif" font-size="14" lengthAdjust="spacing" textLength="99.1895" x="749.4609" y="298.8467">HealthMonitor</text><line style="stroke:#181818;stroke-width:0.5;" x1="498" x2="1056.6113" y1="310" y2="310"/><line style="stroke:#181818;stroke-width:0.5;" x1="498" x2="1056.6113" y1="318" y2="318"/><ellipse cx="508" cy="331.6484" fill="#84BE84" rx="3" ry="3" style="stroke:#038048;stroke-width:1;"/><text fill="#000000" font-family="sans-serif" font-size="14" lengthAdjust="spacing" textLength="534.6113" x="517" y="334.9951">get_heartbeat_monitor(&amp;self, tag: Tag) -&gt; Result&lt;HeartbeatMonitor, Error&gt;</text><ellipse cx="508" cy="347.9453" fill="#84BE84" rx="3" ry="3" style="stroke:#038048;stroke-width:1;"/><text fill="#000000" font-family="sans-serif" font-size="14" lengthAdjust="spacing" textLength="517.5557" x="517" y="351.292">get_deadline_monitor(&amp;self, tag: Tag) -&gt; Result&lt;DeadlineMonitor, Error&gt;</text><ellipse cx="508" cy="364.2422" fill="#84BE84" rx="3" ry="3" style="stroke:#038048;stroke-width:1;"/><text fill="#000000" font-family="sans-serif" font-size="14" lengthAdjust="spacing" textLength="464.9668" x="517" y="367.5889">get_logic_monitor(&amp;self, tag: Tag) -&gt; Result&lt;LogicMonitor, Error&gt;</text><ellipse cx="508" cy="380.5391" fill="#84BE84" rx="3" ry="3" style="stroke:#038048;stroke-width:1;"/><text fill="#000000" font-family="sans-serif" font-size="14" lengthAdjust="spacing" textLength="383.0791" x="517" y="383.8857">get_supervisor_api_cycle() -&gt; Result&lt;Duration, Error&gt;</text><ellipse cx="508" cy="396.8359" fill="#84BE84" rx="3" ry="3" style="stroke:#038048;stroke-width:1;"/><text fill="#000000" font-family="sans-serif" font-size="14" lengthAdjust="spacing" textLength="418.2295" x="517" y="400.1826">get_internal_processing_cycle() -&gt; Result&lt;Duration, Error&gt;</text><polygon fill="#4177AF" points="508,409.1328,504,415.1328,512,415.1328" style="stroke:#1963A0;stroke-width:1;"/><text fill="#000000" font-family="sans-serif" font-size="14" lengthAdjust="spacing" textLength="159.8789" x="517" y="416.4795">status(&amp;self) -&gt; Status</text></g><!--class DeadlineMonitor--><g id="elem_DeadlineMonitor"><rect codeLine="9" fill="#F1F1F1" height="178.375" id="DeadlineMonitor" rx="2.5" ry="2.5" style="stroke:#181818;stroke-width:0.5;" width="736.8213" x="1093" y="262"/><ellipse cx="1393.9893" cy="278" fill="#ADD1B2" rx="11" ry="11" style="stroke:#181818;stroke-width:1;"/><path d="M1396.958,283.6406 Q1396.3799,283.9375 1395.7393,284.0781 Q1395.0986,284.2344 1394.3955,284.2344 Q1391.8955,284.2344 1390.5674,282.5938 Q1389.2549,280.9375 1389.2549,277.8125 Q1389.2549,274.6875 1390.5674,273.0313 Q1391.8955,271.375 1394.3955,271.375 Q1395.0986,271.375 1395.7393,271.5313 Q1396.3955,271.6875 1396.958,271.9844 L1396.958,274.7031 Q1396.333,274.125 1395.7393,273.8594 Q1395.1455,273.5781 1394.5205,273.5781 Q1393.1768,273.5781 1392.4893,274.6563 Q1391.8018,275.7188 1391.8018,277.8125 Q1391.8018,279.9063 1392.4893,280.9844 Q1393.1768,282.0469 1394.5205,282.0469 Q1395.1455,282.0469 1395.7393,281.7813 Q1396.333,281.5 1396.958,280.9219 L1396.958,283.6406 Z " fill="#000000"/><ellipse cx="1419.4893" cy="277.5" fill="#84BE84" rx="3" ry="3" style="stroke:#038048;stroke-width:1;"/><text fill="#000000" font-family="sans-serif" font-size="14" lengthAdjust="spacing" textLength="115.3428" x="1425.4893" y="282.8467">DeadlineMonitor</text><line style="stroke:#181818;stroke-width:0.5;" x1="1094" x2="1828.8213" y1="294" y2="294"/><line style="stroke:#181818;stroke-width:0.5;" x1="1094" x2="1828.8213" y1="302" y2="302"/><ellipse cx="1104" cy="315.6484" fill="#84BE84" rx="3" ry="3" style="stroke:#038048;stroke-width:1;"/><text fill="#000000" font-family="sans-serif" font-size="14" lengthAdjust="spacing" textLength="402.5615" x="1113" y="318.9951">get_deadline(&amp;self, tag: Tag) -&gt; Result&lt;Deadline, Error&gt;</text><ellipse cx="1104" cy="331.9453" fill="#84BE84" rx="3" ry="3" style="stroke:#038048;stroke-width:1;"/><text fill="#000000" font-family="sans-serif" font-size="14" lengthAdjust="spacing" textLength="493.4863" x="1113" y="335.292">get_deadline_guard(&amp;self, tag: Tag) -&gt; Result&lt;DeadlineGuard, Error&gt;</text><ellipse cx="1104" cy="348.2422" fill="#84BE84" rx="3" ry="3" style="stroke:#038048;stroke-width:1;"/><text fill="#000000" font-family="sans-serif" font-size="14" lengthAdjust="spacing" textLength="619.8965" x="1113" y="351.5889">create_custom_deadline(&amp;self, duration_range: TimeRange) -&gt; Result&lt;Deadline, Error&gt;</text><ellipse cx="1104" cy="364.5391" fill="#84BE84" rx="3" ry="3" style="stroke:#038048;stroke-width:1;"/><text fill="#000000" font-family="sans-serif" font-size="14" lengthAdjust="spacing" textLength="710.8213" x="1113" y="367.8857">create_custom_deadline_guard(&amp;self, duration_range: TimeRange) -&gt; Result&lt;DeadlineGuard, Error&gt;</text><ellipse cx="1104" cy="380.8359" fill="#84BE84" rx="3" ry="3" style="stroke:#038048;stroke-width:1;"/><text fill="#000000" font-family="sans-serif" font-size="14" lengthAdjust="spacing" textLength="241.5547" x="1113" y="384.1826">enable(&amp;self) -&gt; Result&lt;(), Error&gt;</text><ellipse cx="1104" cy="397.1328" fill="#84BE84" rx="3" ry="3" style="stroke:#038048;stroke-width:1;"/><text fill="#000000" font-family="sans-serif" font-size="14" lengthAdjust="spacing" textLength="244.1387" x="1113" y="400.4795">disable(&amp;self) -&gt; Result&lt;(), Error&gt;</text><polygon fill="#4177AF" points="1104,409.4297,1100,415.4297,1108,415.4297" style="stroke:#1963A0;stroke-width:1;"/><text fill="#000000" font-family="sans-serif" font-size="14" lengthAdjust="spacing" textLength="159.8789" x="1113" y="416.7764">status(&amp;self) -&gt; Status</text><polygon fill="#4177AF" points="1104,425.7266,1100,431.7266,1108,431.7266" style="stroke:#1963A0;stroke-width:1;"/><text fill="#000000" font-family="sans-serif" font-size="14" lengthAdjust="spacing" textLength="177.7822" x="1113" y="433.0732">evaluate(&amp;self) -&gt; Status</text></g><!--class LogicMonitor--><g id="elem_LogicMonitor"><rect codeLine="7" fill="#F1F1F1" height="129.4844" id="LogicMonitor" rx="2.5" ry="2.5" style="stroke:#181818;stroke-width:0.5;" width="446.0342" x="1865.5" y="286.5"/><ellipse cx="2033.7388" cy="302.5" fill="#ADD1B2" rx="11" ry="11" style="stroke:#181818;stroke-width:1;"/><path d="M2036.7075,308.1406 Q2036.1294,308.4375 2035.4888,308.5781 Q2034.8481,308.7344 2034.145,308.7344 Q2031.645,308.7344 2030.3169,307.0938 Q2029.0044,305.4375 2029.0044,302.3125 Q2029.0044,299.1875 2030.3169,297.5313 Q2031.645,295.875 2034.145,295.875 Q2034.8481,295.875 2035.4888,296.0313 Q2036.145,296.1875 2036.7075,296.4844 L2036.7075,299.2031 Q2036.0825,298.625 2035.4888,298.3594 Q2034.895,298.0781 2034.27,298.0781 Q2032.9263,298.0781 2032.2388,299.1563 Q2031.5513,300.2188 2031.5513,302.3125 Q2031.5513,304.4063 2032.2388,305.4844 Q2032.9263,306.5469 2034.27,306.5469 Q2034.895,306.5469 2035.4888,306.2813 Q2036.0825,306 2036.7075,305.4219 L2036.7075,308.1406 Z " fill="#000000"/><ellipse cx="2059.2388" cy="302" fill="#84BE84" rx="3" ry="3" style="stroke:#038048;stroke-width:1;"/><text fill="#000000" font-family="sans-serif" font-size="14" lengthAdjust="spacing" textLength="90.0566" x="2065.2388" y="307.3467">LogicMonitor</text><line style="stroke:#181818;stroke-width:0.5;" x1="1866.5" x2="2310.5342" y1="318.5" y2="318.5"/><line style="stroke:#181818;stroke-width:0.5;" x1="1866.5" x2="2310.5342" y1="326.5" y2="326.5"/><ellipse cx="1876.5" cy="340.1484" fill="#84BE84" rx="3" ry="3" style="stroke:#038048;stroke-width:1;"/><text fill="#000000" font-family="sans-serif" font-size="14" lengthAdjust="spacing" textLength="420.0342" x="1885.5" y="343.4951">transition(&amp;self, to: LogicMonitorState) -&gt; Result&lt;(), Error&gt;</text><ellipse cx="1876.5" cy="356.4453" fill="#84BE84" rx="3" ry="3" style="stroke:#038048;stroke-width:1;"/><text fill="#000000" font-family="sans-serif" font-size="14" lengthAdjust="spacing" textLength="241.5547" x="1885.5" y="359.792">enable(&amp;self) -&gt; Result&lt;(), Error&gt;</text><ellipse cx="1876.5" cy="372.7422" fill="#84BE84" rx="3" ry="3" style="stroke:#038048;stroke-width:1;"/><text fill="#000000" font-family="sans-serif" font-size="14" lengthAdjust="spacing" textLength="244.1387" x="1885.5" y="376.0889">disable(&amp;self) -&gt; Result&lt;(), Error&gt;</text><polygon fill="#4177AF" points="1876.5,385.0391,1872.5,391.0391,1880.5,391.0391" style="stroke:#1963A0;stroke-width:1;"/><text fill="#000000" font-family="sans-serif" font-size="14" lengthAdjust="spacing" textLength="159.8789" x="1885.5" y="392.3857">status(&amp;self) -&gt; Status</text><polygon fill="#4177AF" points="1876.5,401.3359,1872.5,407.3359,1880.5,407.3359" style="stroke:#1963A0;stroke-width:1;"/><text fill="#000000" font-family="sans-serif" font-size="14" lengthAdjust="spacing" textLength="234.8281" x="1885.5" y="408.6826">state(&amp;self) -&gt; LogicMonitorState</text></g><!--class HeartbeatMonitor--><g id="elem_HeartbeatMonitor"><rect codeLine="7" fill="#F1F1F1" height="129.4844" id="HeartbeatMonitor" rx="2.5" ry="2.5" style="stroke:#181818;stroke-width:0.5;" width="339.0449" x="2347" y="286.5"/><ellipse cx="2444.897" cy="302.5" fill="#ADD1B2" rx="11" ry="11" style="stroke:#181818;stroke-width:1;"/><path d="M2447.8657,308.1406 Q2447.2876,308.4375 2446.647,308.5781 Q2446.0063,308.7344 2445.3032,308.7344 Q2442.8032,308.7344 2441.4751,307.0938 Q2440.1626,305.4375 2440.1626,302.3125 Q2440.1626,299.1875 2441.4751,297.5313 Q2442.8032,295.875 2445.3032,295.875 Q2446.0063,295.875 2446.647,296.0313 Q2447.3032,296.1875 2447.8657,296.4844 L2447.8657,299.2031 Q2447.2407,298.625 2446.647,298.3594 Q2446.0532,298.0781 2445.4282,298.0781 Q2444.0845,298.0781 2443.397,299.1563 Q2442.7095,300.2188 2442.7095,302.3125 Q2442.7095,304.4063 2443.397,305.4844 Q2444.0845,306.5469 2445.4282,306.5469 Q2446.0532,306.5469 2446.647,306.2813 Q2447.2407,306 2447.8657,305.4219 L2447.8657,308.1406 Z " fill="#000000"/><ellipse cx="2470.397" cy="302" fill="#84BE84" rx="3" ry="3" style="stroke:#038048;stroke-width:1;"/><text fill="#000000" font-family="sans-serif" font-size="14" lengthAdjust="spacing" textLength="123.751" x="2476.397" y="307.3467">HeartbeatMonitor</text><line style="stroke:#181818;stroke-width:0.5;" x1="2348" x2="2685.0449" y1="318.5" y2="318.5"/><line style="stroke:#181818;stroke-width:0.5;" x1="2348" x2="2685.0449" y1="326.5" y2="326.5"/><ellipse cx="2358" cy="340.1484" fill="#84BE84" rx="3" ry="3" style="stroke:#038048;stroke-width:1;"/><text fill="#000000" font-family="sans-serif" font-size="14" lengthAdjust="spacing" textLength="287.0205" x="2367" y="343.4951">new(duration_range: TimeRange) -&gt; Self</text><ellipse cx="2358" cy="356.4453" fill="#84BE84" rx="3" ry="3" style="stroke:#038048;stroke-width:1;"/><text fill="#000000" font-family="sans-serif" font-size="14" lengthAdjust="spacing" textLength="313.0449" x="2367" y="359.792">report_heartbeat(&amp;self) -&gt; Result&lt;(), Error&gt;</text><ellipse cx="2358" cy="372.7422" fill="#84BE84" rx="3" ry="3" style="stroke:#038048;stroke-width:1;"/><text fill="#000000" font-family="sans-serif" font-size="14" lengthAdjust="spacing" textLength="241.5547" x="2367" y="376.0889">enable(&amp;self) -&gt; Result&lt;(), Error&gt;</text><ellipse cx="2358" cy="389.0391" fill="#84BE84" rx="3" ry="3" style="stroke:#038048;stroke-width:1;"/><text fill="#000000" font-family="sans-serif" font-size="14" lengthAdjust="spacing" textLength="244.1387" x="2367" y="392.3857">disable(&amp;self) -&gt; Result&lt;(), Error&gt;</text><polygon fill="#4177AF" points="2358,401.3359,2354,407.3359,2362,407.3359" style="stroke:#1963A0;stroke-width:1;"/><text fill="#000000" font-family="sans-serif" font-size="14" lengthAdjust="spacing" textLength="177.7822" x="2367" y="408.6826">evaluate(&amp;self) -&gt; Status</text></g><!--class HealthMonitorBuilder--><g id="elem_HealthMonitorBuilder"><rect codeLine="9" fill="#F1F1F1" height="178.375" id="HealthMonitorBuilder" rx="2.5" ry="2.5" style="stroke:#181818;stroke-width:0.5;" width="628.0273" x="805.5" y="7"/><ellipse cx="1035.4126" cy="23" fill="#ADD1B2" rx="11" ry="11" style="stroke:#181818;stroke-width:1;"/><path d="M1038.3813,28.6406 Q1037.8032,28.9375 1037.1626,29.0781 Q1036.522,29.2344 1035.8188,29.2344 Q1033.3188,29.2344 1031.9907,27.5938 Q1030.6782,25.9375 1030.6782,22.8125 Q1030.6782,19.6875 1031.9907,18.0313 Q1033.3188,16.375 1035.8188,16.375 Q1036.522,16.375 1037.1626,16.5313 Q1037.8188,16.6875 1038.3813,16.9844 L1038.3813,19.7031 Q1037.7563,19.125 1037.1626,18.8594 Q1036.5688,18.5781 1035.9438,18.5781 Q1034.6001,18.5781 1033.9126,19.6563 Q1033.2251,20.7188 1033.2251,22.8125 Q1033.2251,24.9063 1033.9126,25.9844 Q1034.6001,27.0469 1035.9438,27.0469 Q1036.5688,27.0469 1037.1626,26.7813 Q1037.7563,26.5 1038.3813,25.9219 L1038.3813,28.6406 Z " fill="#000000"/><ellipse cx="1060.9126" cy="22.5" fill="#84BE84" rx="3" ry="3" style="stroke:#038048;stroke-width:1;"/><text fill="#000000" font-family="sans-serif" font-size="14" lengthAdjust="spacing" textLength="148.7021" x="1066.9126" y="27.8467">HealthMonitorBuilder</text><line style="stroke:#181818;stroke-width:0.5;" x1="806.5" x2="1432.5273" y1="39" y2="39"/><line style="stroke:#181818;stroke-width:0.5;" x1="806.5" x2="1432.5273" y1="47" y2="47"/><ellipse cx="816.5" cy="60.6484" fill="#84BE84" rx="3" ry="3" style="stroke:#038048;stroke-width:1;"/><text fill="#000000" font-family="sans-serif" font-size="14" lengthAdjust="spacing" textLength="91.8613" x="825.5" y="63.9951">new() -&gt; Self</text><ellipse cx="816.5" cy="76.9453" fill="#84BE84" rx="3" ry="3" style="stroke:#038048;stroke-width:1;"/><text fill="#000000" font-family="sans-serif" font-size="14" lengthAdjust="spacing" textLength="227.1172" x="825.5" y="80.292">from_config(config: &amp;str) -&gt; Self</text><ellipse cx="816.5" cy="93.2422" fill="#84BE84" rx="3" ry="3" style="stroke:#038048;stroke-width:1;"/><text fill="#000000" font-family="sans-serif" font-size="14" lengthAdjust="spacing" textLength="602.0273" x="825.5" y="96.5889">add_heartbeat_monitor(&amp;mut self, tag: Tag, monitor: HeartbeatMonitor) -&gt; &amp;mut Self</text><ellipse cx="816.5" cy="109.5391" fill="#84BE84" rx="3" ry="3" style="stroke:#038048;stroke-width:1;"/><text fill="#000000" font-family="sans-serif" font-size="14" lengthAdjust="spacing" textLength="584.9717" x="825.5" y="112.8857">add_deadline_monitor(&amp;mut self, tag: Tag, monitor: DeadlineMonitor) -&gt; &amp;mut Self</text><ellipse cx="816.5" cy="125.8359" fill="#84BE84" rx="3" ry="3" style="stroke:#038048;stroke-width:1;"/><text fill="#000000" font-family="sans-serif" font-size="14" lengthAdjust="spacing" textLength="532.3828" x="825.5" y="129.1826">add_logic_monitor(&amp;mut self, tag: Tag, monitor: LogicMonitor) -&gt; &amp;mut Self</text><ellipse cx="816.5" cy="142.1328" fill="#84BE84" rx="3" ry="3" style="stroke:#038048;stroke-width:1;"/><text fill="#000000" font-family="sans-serif" font-size="14" lengthAdjust="spacing" textLength="502.4688" x="825.5" y="145.4795">with_supervisor_api_cycle(Duration: supervisor_api_cycle) -&gt; &amp;mut Self</text><ellipse cx="816.5" cy="158.4297" fill="#84BE84" rx="3" ry="3" style="stroke:#038048;stroke-width:1;"/><text fill="#000000" font-family="sans-serif" font-size="14" lengthAdjust="spacing" textLength="572.7695" x="825.5" y="161.7764">with_internal_processing_cycle(Duration: internal_processing_cycle) -&gt; &amp;mut Self</text><ellipse cx="816.5" cy="174.7266" fill="#84BE84" rx="3" ry="3" style="stroke:#038048;stroke-width:1;"/><text fill="#000000" font-family="sans-serif" font-size="14" lengthAdjust="spacing" textLength="281.1484" x="825.5" y="178.0732">build() -&gt; Result&lt;HealthMonitor, Error&gt;</text></g><g id="elem_GMN9"><path d="M1469,76 L1469,92 L1433.61,96 L1469,100 L1469,116.2656 A0,0 0 0 0 1469,116.2656 L1821.5127,116.2656 A0,0 0 0 0 1821.5127,116.2656 L1821.5127,86 L1811.5127,76 L1469,76 A0,0 0 0 0 1469,76 " fill="#FEFFDD" style="stroke:#181818;stroke-width:0.5;"/><path d="M1811.5127,76 L1811.5127,86 L1821.5127,86 L1811.5127,76 " fill="#FEFFDD" style="stroke:#181818;stroke-width:0.5;"/><text fill="#000000" font-family="sans-serif" font-size="13" lengthAdjust="spacing" textLength="331.5127" x="1475" y="93.0669">internal_processing_cycle &lt;= supervisor_api_cycle</text><text fill="#000000" font-family="sans-serif" font-size="13" lengthAdjust="spacing" textLength="4.1323" x="1475" y="108.1997">&#160;</text></g><!--link HealthMonitorBuilder to Error--><g id="link_HealthMonitorBuilder_Error"><path codeLine="21" d="M805.29,126.74 C563.63,153.88 252.81,199.33 141.5,262 C127.25,270.02 118.3858,277.2863 107.4858,289.6063 " fill="transparent" id="HealthMonitorBuilder-to-Error" style="stroke:#181818;stroke-width:1;stroke-dasharray:7.0,7.0;"/><polygon fill="#181818" points="103.51,294.1,112.4694,290.01,106.8231,290.3552,106.4778,284.7089,103.51,294.1" style="stroke:#181818;stroke-width:1;"/></g><!--link HealthMonitorBuilder to Tag--><g id="link_HealthMonitorBuilder_Tag"><path codeLine="22" d="M805.38,162.86 C700.17,188.89 583.29,222.2 479.5,262 C438.88,277.58 400.6221,297.4154 367.9421,315.9054 " fill="transparent" id="HealthMonitorBuilder-to-Tag" style="stroke:#181818;stroke-width:1;stroke-dasharray:7.0,7.0;"/><polygon fill="#181818" points="362.72,318.86,372.5229,317.9095,367.0717,316.3978,368.5834,310.9467,362.72,318.86" style="stroke:#181818;stroke-width:1;"/></g><!--link HealthMonitorBuilder to HealthMonitor--><g id="link_HealthMonitorBuilder_HealthMonitor"><path codeLine="23" d="M1000.37,185.13 C959.4,215.44 918.8736,245.4217 879.8336,274.3017 " fill="transparent" id="HealthMonitorBuilder-to-HealthMonitor" style="stroke:#181818;stroke-width:1;stroke-dasharray:7.0,7.0;"/><polygon fill="#181818" points="875.01,277.87,884.6243,275.7333,879.0297,274.8964,879.8666,269.3018,875.01,277.87" style="stroke:#181818;stroke-width:1;"/><text fill="#000000" font-family="sans-serif" font-size="13" lengthAdjust="spacing" textLength="81.6943" x="960.5" y="228.0669">&#171;consumes&#187;</text></g><!--reverse link HealthMonitorBuilder to DeadlineMonitor--><g id="link_HealthMonitorBuilder_DeadlineMonitor"><path codeLine="24" d="M1248.2766,192.2674 C1281.9166,217.1574 1308.87,237.09 1342.5,261.97 " fill="transparent" id="HealthMonitorBuilder-backto-DeadlineMonitor" style="stroke:#181818;stroke-width:1;"/><polygon fill="transparent" points="1238.63,185.13,1241.0741,191.9143,1248.2766,192.2674,1245.8324,185.4832,1238.63,185.13" style="stroke:#181818;stroke-width:1;"/><text fill="#000000" font-family="sans-serif" font-size="13" lengthAdjust="spacing" textLength="23.0356" x="1308.7018" y="251.033">0..*</text></g><!--reverse link HealthMonitorBuilder to LogicMonitor--><g id="link_HealthMonitorBuilder_LogicMonitor"><path codeLine="25" d="M1445.6002,183.6618 C1451.5002,185.0518 1445.69,183.67 1451.5,185 C1626.25,225.1 1674.75,213.99 1847.5,262 C1872.93,269.07 1899.49,277.58 1925.31,286.48 " fill="transparent" id="HealthMonitorBuilder-backto-LogicMonitor" style="stroke:#181818;stroke-width:1;"/><polygon fill="transparent" points="1433.92,180.91,1438.8429,186.1793,1445.6002,183.6618,1440.6774,178.3925,1433.92,180.91" style="stroke:#181818;stroke-width:1;"/><text fill="#000000" font-family="sans-serif" font-size="13" lengthAdjust="spacing" textLength="23.0356" x="1883.2034" y="275.6505">0..*</text></g><!--reverse link HealthMonitorBuilder to HeartbeatMonitor--><g id="link_HealthMonitorBuilder_HeartbeatMonitor"><path codeLine="26" d="M1445.54,183.9953 C1451.5,185.1253 1445.63,183.97 1451.5,185 C1836.91,252.48 1950.64,160.4 2328.5,262 C2351.21,268.11 2374.55,276.82 2396.74,286.41 " fill="transparent" id="HealthMonitorBuilder-backto-HeartbeatMonitor" style="stroke:#181818;stroke-width:1;"/><polygon fill="transparent" points="1433.75,181.76,1438.8999,186.8077,1445.54,183.9953,1440.3901,178.9477,1433.75,181.76" style="stroke:#181818;stroke-width:1;"/><text fill="#000000" font-family="sans-serif" font-size="13" lengthAdjust="spacing" textLength="23.0356" x="2359.3829" y="275.5728">0..*</text></g><!--SRC=[ZLCxJyCm4DxzAwuTga3RY3aA6Q183B008vBbE9V4acD7Vb0Xn7ydZoAQDA7DOkc-nzbtNnP2SUapXBAYQ8msOUqhIHP7PSUAOT7wjAqBvT3aZ6E7BXwHILS-QoMSDlUIMJiGP2U27R9C2eMp4daYUTA5uBFyCfswb74fCZSGaJLlJnXS-SuBcQ61BmBDjrQu3wvWcy0hoXpwMcvqHRbMkIY2_eXWPPqPyrYMqVAtCwrw_s1LUGUsOMsW6Ma4RwpOm06CO7pJphEJjCP_ljbXQXVQZeOyvohRmLveURo4AR-zS2MrlaRp8QmsbDM2yaykCTXvmvpGAe8fUDQhswbYajP6SxHMgEB4S9OpvPgsg-wt-z8aHxfua8GDFBH_GaA-YT8EmOYYTF-qWFXsya7lYf39Y8LXqhUOXvkHpuC302A8uoQDrbTeasHQfRTRMDw4uVLod8Yp_EDrdoMFKqn-0000]--></g></svg>