<svg xmlns="http://www.w3.org/2000/svg" xmlns:xlink="http://www.w3.org/1999/xlink" contentStyleType="text/css" data-diagram-type="DESCRIPTION" height="321px" preserveAspectRatio="none" style="width:394px;height:321px;background:#FFFFFF;" version="1.1" viewBox="0 0 394 321" width="394px" zoomAndPan="magnify"><defs/><g><!--entity LogicMonitorBuilder--><g id="elem_LogicMonitorBuilder"><rect fill="#F1F1F1" height="46.2969" rx="2.5" ry="2.5" style="stroke:#181818;stroke-width:0.5;" width="179.5693" x="101" y="7"/><rect fill="#F1F1F1" height="10" style="stroke:#181818;stroke-width:0.5;" width="15" x="260.5693" y="12"/><rect fill="#F1F1F1" height="2" style="stroke:#181818;stroke-width:0.5;" width="4" x="258.5693" y="14"/><rect fill="#F1F1F1" height="2" style="stroke:#181818;stroke-width:0.5;" width="4" x="258.5693" y="18"/><text fill="#000000" font-family="sans-serif" font-size="14" lengthAdjust="spacing" textLength="139.5693" x="116" y="39.9951">LogicMonitorBuilder</text></g><!--entity LogicMonitor--><g id="elem_LogicMonitor"><rect fill="#F1F1F1" height="46.2969" rx="2.5" ry="2.5" style="stroke:#181818;stroke-width:0.5;" width="130.0566" x="126" y="130"/><rect fill="#F1F1F1" height="10" style="stroke:#181818;stroke-width:0.5;" width="15" x="236.0566" y="135"/><rect fill="#F1F1F1" height="2" style="stroke:#181818;stroke-width:0.5;" width="4" x="234.0566" y="137"/><rect fill="#F1F1F1" height="2" style="stroke:#181818;stroke-width:0.5;" width="4" x="234.0566" y="141"/><text fill="#000000" font-family="sans-serif" font-size="14" lengthAdjust="spacing" textLength="90.0566" x="141" y="162.9951">LogicMonitor</text></g><!--entity LogicMonitorHook--><g id="elem_LogicMonitorHook"><rect fill="#F1F1F1" height="62.5938" rx="2.5" ry="2.5" style="stroke:#181818;stroke-width:0.5;" width="165.8223" x="7" y="253"/><rect fill="#F1F1F1" height="10" style="stroke:#181818;stroke-width:0.5;" width="15" x="152.8223" y="258"/><rect fill="#F1F1F1" height="2" style="stroke:#181818;stroke-width:0.5;" width="4" x="150.8223" y="260"/><rect fill="#F1F1F1" height="2" style="stroke:#181818;stroke-width:0.5;" width="4" x="150.8223" y="264"/><text fill="#000000" font-family="sans-serif" font-size="14" font-style="italic" lengthAdjust="spacing" textLength="79.7207" x="45.0508" y="285.9951">&#171;interface&#187;</text><text fill="#000000" font-family="sans-serif" font-size="14" lengthAdjust="spacing" textLength="125.8223" x="22" y="302.292">LogicMonitorHook</text></g><!--entity LogicMonitorState--><g id="elem_LogicMonitorState"><rect fill="#F1F1F1" height="46.2969" rx="2.5" ry="2.5" style="stroke:#181818;stroke-width:0.5;" width="167.1143" x="208.5" y="261.5"/><rect fill="#F1F1F1" height="10" style="stroke:#181818;stroke-width:0.5;" width="15" x="355.6143" y="266.5"/><rect fill="#F1F1F1" height="2" style="stroke:#181818;stroke-width:0.5;" width="4" x="353.6143" y="268.5"/><rect fill="#F1F1F1" height="2" style="stroke:#181818;stroke-width:0.5;" width="4" x="353.6143" y="272.5"/><text fill="#000000" font-family="sans-serif" font-size="14" lengthAdjust="spacing" textLength="127.1143" x="223.5" y="294.4951">LogicMonitorState</text></g><!--link LogicMonitorBuilder to LogicMonitor--><g id="link_LogicMonitorBuilder_LogicMonitor"><path d="M191,53.19 C191,75.03 191,102.16 191,123.95 " fill="transparent" id="LogicMonitorBuilder-to-LogicMonitor" style="stroke:#181818;stroke-width:1;stroke-dasharray:7.0,7.0;"/><polygon fill="#181818" points="191,129.95,195,120.95,191,124.95,187,120.95,191,129.95" style="stroke:#181818;stroke-width:1;"/><text fill="#000000" font-family="sans-serif" font-size="13" lengthAdjust="spacing" textLength="31.9668" x="192" y="96.0669">build</text></g><!--link LogicMonitor to LogicMonitorHook--><g id="link_LogicMonitor_LogicMonitorHook"><path d="M173.64,176.26 C157.17,197.38 135.9707,224.5594 117.6207,248.0794 " fill="transparent" id="LogicMonitor-to-LogicMonitorHook" style="stroke:#181818;stroke-width:1;stroke-dasharray:7.0,7.0;"/><polygon fill="#181818" points="113.93,252.81,122.6198,248.1746,117.0056,248.8678,116.3124,243.2536,113.93,252.81" style="stroke:#181818;stroke-width:1;"/><text fill="#000000" font-family="sans-serif" font-size="13" lengthAdjust="spacing" textLength="94.6372" x="151" y="219.0669">call on change</text></g><!--link LogicMonitor to LogicMonitorState--><g id="link_LogicMonitor_LogicMonitorState"><path d="M222.3,176.12 C232.91,184.64 244.28,194.98 253,206 C266.37,222.89 274.6727,239.5472 281.4327,255.8572 " fill="transparent" id="LogicMonitor-to-LogicMonitorState" style="stroke:#181818;stroke-width:1;stroke-dasharray:7.0,7.0;"/><polygon fill="#181818" points="283.73,261.4,283.9792,251.5543,281.8156,256.781,276.5888,254.6174,283.73,261.4" style="stroke:#181818;stroke-width:1;"/><text fill="#000000" font-family="sans-serif" font-size="13" lengthAdjust="spacing" textLength="122.2813" x="264" y="219.0669">transition between</text></g><!--SRC=[VOun3i8m34NtdCBA0Ne0L6LWwa0dJk0QKwm66mMZNf-K2TIMrUyzVPFT7wQi3l5aer1lAcxb-99yuH83RVDTq9bD4TfMrBbSaJYbFVNiw1n3sDY5fadmVOS330lwaLVMCbvDmfp15EY6ElB_vFD4RRoWFiMbPWFxpApX3G00]--></g></svg>