<svg xmlns="http://www.w3.org/2000/svg" xmlns:xlink="http://www.w3.org/1999/xlink" contentStyleType="text/css" data-diagram-type="DESCRIPTION" height="305px" preserveAspectRatio="none" style="width:228px;height:305px;background:#FFFFFF;" version="1.1" viewBox="0 0 228 305" width="228px" zoomAndPan="magnify"><defs/><g><!--entity LogicMonitorBuilder--><g id="elem_LogicMonitorBuilder"><rect fill="#F1F1F1" height="46.2969" rx="2.5" ry="2.5" style="stroke:#181818;stroke-width:0.5;" width="179.5693" x="7" y="7"/><rect fill="#F1F1F1" height="10" style="stroke:#181818;stroke-width:0.5;" width="15" x="166.5693" y="12"/><rect fill="#F1F1F1" height="2" style="stroke:#181818;stroke-width:0.5;" width="4" x="164.5693" y="14"/><rect fill="#F1F1F1" height="2" style="stroke:#181818;stroke-width:0.5;" width="4" x="164.5693" y="18"/><text fill="#000000" font-family="sans-serif" font-size="14" lengthAdjust="spacing" textLength="139.5693" x="22" y="39.9951">LogicMonitorBuilder</text></g><!--entity LogicMonitor--><g id="elem_LogicMonitor"><rect fill="#F1F1F1" height="46.2969" rx="2.5" ry="2.5" style="stroke:#181818;stroke-width:0.5;" width="130.0566" x="32" y="130"/><rect fill="#F1F1F1" height="10" style="stroke:#181818;stroke-width:0.5;" width="15" x="142.0566" y="135"/><rect fill="#F1F1F1" height="2" style="stroke:#181818;stroke-width:0.5;" width="4" x="140.0566" y="137"/><rect fill="#F1F1F1" height="2" style="stroke:#181818;stroke-width:0.5;" width="4" x="140.0566" y="141"/><text fill="#000000" font-family="sans-serif" font-size="14" lengthAdjust="spacing" textLength="90.0566" x="47" y="162.9951">LogicMonitor</text></g><!--entity LogicMonitorState--><g id="elem_LogicMonitorState"><rect fill="#F1F1F1" height="46.2969" rx="2.5" ry="2.5" style="stroke:#181818;stroke-width:0.5;" width="167.1143" x="13.5" y="253"/><rect fill="#F1F1F1" height="10" style="stroke:#181818;stroke-width:0.5;" width="15" x="160.6143" y="258"/><rect fill="#F1F1F1" height="2" style="stroke:#181818;stroke-width:0.5;" width="4" x="158.6143" y="260"/><rect fill="#F1F1F1" height="2" style="stroke:#181818;stroke-width:0.5;" width="4" x="158.6143" y="264"/><text fill="#000000" font-family="sans-serif" font-size="14" lengthAdjust="spacing" textLength="127.1143" x="28.5" y="285.9951">LogicMonitorState</text></g><!--link LogicMonitorBuilder to LogicMonitor--><g id="link_LogicMonitorBuilder_LogicMonitor"><path d="M97,53.19 C97,75.03 97,102.16 97,123.95 " fill="transparent" id="LogicMonitorBuilder-to-LogicMonitor" style="stroke:#181818;stroke-width:1;stroke-dasharray:7.0,7.0;"/><polygon fill="#181818" points="97,129.95,101,120.95,97,124.95,93,120.95,97,129.95" style="stroke:#181818;stroke-width:1;"/><text fill="#000000" font-family="sans-serif" font-size="13" lengthAdjust="spacing" textLength="31.9668" x="98" y="96.0669">build</text></g><!--link LogicMonitor to LogicMonitorState--><g id="link_LogicMonitor_LogicMonitorState"><path d="M97,176.19 C97,198.03 97,225.16 97,246.95 " fill="transparent" id="LogicMonitor-to-LogicMonitorState" style="stroke:#181818;stroke-width:1;stroke-dasharray:7.0,7.0;"/><polygon fill="#181818" points="97,252.95,101,243.95,97,247.95,93,243.95,97,252.95" style="stroke:#181818;stroke-width:1;"/><text fill="#000000" font-family="sans-serif" font-size="13" lengthAdjust="spacing" textLength="122.2813" x="98" y="219.0669">transition between</text></g><!--SRC=[IyxFBSZFIyqhKL3ooK_FJFRDpyiioIzoAitCIKajKk9AnYwFKoAu9B4aLOcB2ujX2dfwTWh8uWfM2aaWAHJ56Ah09WALbXGbvXLdbcJcvoaafPQKfwRcSG40]--></g></svg>