<svg xmlns="http://www.w3.org/2000/svg" xmlns:xlink="http://www.w3.org/1999/xlink" contentStyleType="text/css" data-diagram-type="SEQUENCE" height="1512px" preserveAspectRatio="none" style="width:870px;height:1512px;background:#FFFFFF;" version="1.1" viewBox="0 0 870 1512" width="870px" zoomAndPan="magnify"><defs/><g><rect fill="transparent" height="1257.7266" style="stroke:#000000;stroke-width:1.5;" width="853.814" x="10" y="156.5625"/><g><title>User</title><rect fill="transparent" height="1349.9922" width="8" x="34.9551" y="81.2969"/><line style="stroke:#181818;stroke-width:0.5;stroke-dasharray:5.0,5.0;" x1="38" x2="38" y1="81.2969" y2="1431.2891"/></g><g><title>LogicMonitor</title><rect fill="transparent" height="1349.9922" width="8" x="262.8735" y="81.2969"/><line style="stroke:#181818;stroke-width:0.5;stroke-dasharray:5.0,5.0;" x1="266.8452" x2="266.8452" y1="81.2969" y2="1431.2891"/></g><g><title>HealthMonitor</title><rect fill="transparent" height="1349.9922" width="8" x="381.4966" y="81.2969"/><line style="stroke:#181818;stroke-width:0.5;stroke-dasharray:5.0,5.0;" x1="384.9019" x2="384.9019" y1="81.2969" y2="1431.2891"/></g><g><title>LaunchManager</title><rect fill="transparent" height="1349.9922" width="8" x="549.5693" y="81.2969"/><line style="stroke:#181818;stroke-width:0.5;stroke-dasharray:5.0,5.0;" x1="553.5386" x2="553.5386" y1="81.2969" y2="1431.2891"/></g><text fill="#000000" font-family="sans-serif" font-size="14" lengthAdjust="spacing" textLength="31.9102" x="20" y="77.9951">User</text><ellipse cx="38.9551" cy="13.5" fill="#E2E2F0" rx="8" ry="8" style="stroke:#181818;stroke-width:0.5;"/><path d="M38.9551,21.5 L38.9551,48.5 M25.9551,29.5 L51.9551,29.5 M38.9551,48.5 L25.9551,63.5 M38.9551,48.5 L51.9551,63.5 " fill="transparent" style="stroke:#181818;stroke-width:0.5;"/><text fill="#000000" font-family="sans-serif" font-size="14" lengthAdjust="spacing" textLength="31.9102" x="20" y="1443.2842">User</text><ellipse cx="38.9551" cy="1455.0859" fill="#E2E2F0" rx="8" ry="8" style="stroke:#181818;stroke-width:0.5;"/><path d="M38.9551,1463.0859 L38.9551,1490.0859 M25.9551,1471.0859 L51.9551,1471.0859 M38.9551,1490.0859 L25.9551,1505.0859 M38.9551,1490.0859 L51.9551,1505.0859 " fill="transparent" style="stroke:#181818;stroke-width:0.5;"/><rect fill="#E2E2F0" height="30.2969" rx="2.5" ry="2.5" style="stroke:#181818;stroke-width:0.5;" width="104.0566" x="214.8452" y="50"/><text fill="#000000" font-family="sans-serif" font-size="14" lengthAdjust="spacing" textLength="90.0566" x="221.8452" y="69.9951">LogicMonitor</text><rect fill="#E2E2F0" height="30.2969" rx="2.5" ry="2.5" style="stroke:#181818;stroke-width:0.5;" width="104.0566" x="214.8452" y="1430.2891"/><text fill="#000000" font-family="sans-serif" font-size="14" lengthAdjust="spacing" textLength="90.0566" x="221.8452" y="1450.2842">LogicMonitor</text><rect fill="#E2E2F0" height="30.2969" rx="2.5" ry="2.5" style="stroke:#181818;stroke-width:0.5;" width="113.1895" x="328.9019" y="50"/><text fill="#000000" font-family="sans-serif" font-size="14" lengthAdjust="spacing" textLength="99.1895" x="335.9019" y="69.9951">HealthMonitor</text><rect fill="#E2E2F0" height="30.2969" rx="2.5" ry="2.5" style="stroke:#181818;stroke-width:0.5;" width="113.1895" x="328.9019" y="1430.2891"/><text fill="#000000" font-family="sans-serif" font-size="14" lengthAdjust="spacing" textLength="99.1895" x="335.9019" y="1450.2842">HealthMonitor</text><rect fill="#E2E2F0" height="30.2969" rx="2.5" ry="2.5" style="stroke:#181818;stroke-width:0.5;" width="126.0615" x="490.5386" y="50"/><text fill="#000000" font-family="sans-serif" font-size="14" lengthAdjust="spacing" textLength="112.0615" x="497.5386" y="69.9951">LaunchManager</text><rect fill="#E2E2F0" height="30.2969" rx="2.5" ry="2.5" style="stroke:#181818;stroke-width:0.5;" width="126.0615" x="490.5386" y="1430.2891"/><text fill="#000000" font-family="sans-serif" font-size="14" lengthAdjust="spacing" textLength="112.0615" x="497.5386" y="1450.2842">LaunchManager</text><polygon fill="#181818" points="373.4966,108.4297,383.4966,112.4297,373.4966,116.4297,377.4966,112.4297" style="stroke:#181818;stroke-width:1;"/><line style="stroke:#181818;stroke-width:1;" x1="38.9551" x2="379.4966" y1="112.4297" y2="112.4297"/><text fill="#000000" font-family="sans-serif" font-size="13" lengthAdjust="spacing" textLength="110.9253" x="45.9551" y="107.3638">Get LogicMonitor</text><polygon fill="#181818" points="49.9551,137.5625,39.9551,141.5625,49.9551,145.5625,45.9551,141.5625" style="stroke:#181818;stroke-width:1;"/><line style="stroke:#181818;stroke-width:1;stroke-dasharray:2.0,2.0;" x1="43.9551" x2="384.4966" y1="141.5625" y2="141.5625"/><text fill="#000000" font-family="sans-serif" font-size="13" lengthAdjust="spacing" textLength="142.8286" x="55.9551" y="136.4966">LogicMonitor instance</text><path d="M10,156.5625 L74.4429,156.5625 L74.4429,163.6953 L64.4429,173.6953 L10,173.6953 L10,156.5625 " fill="#EEEEEE" style="stroke:#000000;stroke-width:1.5;"/><rect fill="transparent" height="1257.7266" style="stroke:#000000;stroke-width:1.5;" width="853.814" x="10" y="156.5625"/><text fill="#000000" font-family="sans-serif" font-size="13" font-weight="bold" lengthAdjust="spacing" textLength="19.4429" x="25" y="169.6294">alt</text><text fill="#000000" font-family="sans-serif" font-size="11" font-weight="bold" lengthAdjust="spacing" textLength="123.6641" x="89.4429" y="168.7729">[Allowed transition]</text><polygon fill="#181818" points="254.8735,190.8281,264.8735,194.8281,254.8735,198.8281,258.8735,194.8281" style="stroke:#181818;stroke-width:1;"/><line style="stroke:#181818;stroke-width:1;" x1="38.9551" x2="260.8735" y1="194.8281" y2="194.8281"/><text fill="#000000" font-family="sans-serif" font-size="13" lengthAdjust="spacing" textLength="193.521" x="45.9551" y="189.7622">Transition to an allowed state</text><polygon fill="#181818" points="49.9551,219.9609,39.9551,223.9609,49.9551,227.9609,45.9551,223.9609" style="stroke:#181818;stroke-width:1;"/><line style="stroke:#181818;stroke-width:1;stroke-dasharray:2.0,2.0;" x1="43.9551" x2="265.8735" y1="223.9609" y2="223.9609"/><text fill="#000000" font-family="sans-serif" font-size="13" lengthAdjust="spacing" textLength="17.7607" x="55.9551" y="218.895">Ok</text><polygon fill="#181818" points="277.8735,252.0938,267.8735,256.0938,277.8735,260.0938,273.8735,256.0938" style="stroke:#181818;stroke-width:1;"/><line style="stroke:#181818;stroke-width:1;" x1="271.8735" x2="384.4966" y1="256.0938" y2="256.0938"/><text fill="#000000" font-family="sans-serif" font-size="13" lengthAdjust="spacing" textLength="74.6992" x="283.8735" y="251.0278">Check logic</text><path d="M390,236.9609 L390,261.9609 L722,261.9609 L722,246.9609 L712,236.9609 L390,236.9609 " fill="#FEFFDD" style="stroke:#181818;stroke-width:0.5;"/><path d="M712,236.9609 L712,246.9609 L722,246.9609 L712,236.9609 " fill="#FEFFDD" style="stroke:#181818;stroke-width:0.5;"/><text fill="#000000" font-family="sans-serif" font-size="13" lengthAdjust="spacing" textLength="311.4858" x="396" y="254.0278">HealthMonitor does this in a background thread</text><polygon fill="#181818" points="373.4966,284.2266,383.4966,288.2266,373.4966,292.2266,377.4966,288.2266" style="stroke:#181818;stroke-width:1;"/><line style="stroke:#181818;stroke-width:1;stroke-dasharray:2.0,2.0;" x1="266.8735" x2="379.4966" y1="288.2266" y2="288.2266"/><text fill="#000000" font-family="sans-serif" font-size="13" lengthAdjust="spacing" textLength="17.7607" x="273.8735" y="283.1606">Ok</text><polygon fill="#181818" points="541.5693,313.3594,551.5693,317.3594,541.5693,321.3594,545.5693,317.3594" style="stroke:#181818;stroke-width:1;"/><line style="stroke:#181818;stroke-width:1;stroke-dasharray:2.0,2.0;" x1="385.4966" x2="547.5693" y1="317.3594" y2="317.3594"/><text fill="#000000" font-family="sans-serif" font-size="13" lengthAdjust="spacing" textLength="144.0728" x="392.4966" y="312.2935">Alive notification (IPC)</text><line style="stroke:#000000;stroke-width:1;stroke-dasharray:2.0,2.0;" x1="10" x2="863.814" y1="326.3594" y2="326.3594"/><text fill="#000000" font-family="sans-serif" font-size="11" font-weight="bold" lengthAdjust="spacing" textLength="142.0225" x="15" y="336.5698">[Disallowed transition]</text><polygon fill="#181818" points="254.8735,357.2969,264.8735,361.2969,254.8735,365.2969,258.8735,361.2969" style="stroke:#181818;stroke-width:1;"/><line style="stroke:#181818;stroke-width:1;" x1="38.9551" x2="260.8735" y1="361.2969" y2="361.2969"/><text fill="#000000" font-family="sans-serif" font-size="13" lengthAdjust="spacing" textLength="203.9185" x="45.9551" y="356.231">Transition to a disallowed state</text><polygon fill="#181818" points="49.9551,389.4297,39.9551,393.4297,49.9551,397.4297,45.9551,393.4297" style="stroke:#181818;stroke-width:1;"/><line style="stroke:#181818;stroke-width:1;stroke-dasharray:2.0,2.0;" x1="43.9551" x2="265.8735" y1="393.4297" y2="393.4297"/><text fill="#000000" font-family="sans-serif" font-size="13" lengthAdjust="spacing" textLength="32.2017" x="55.9551" y="388.3638">Error</text><path d="M271,374.2969 L271,399.2969 L535,399.2969 L535,384.2969 L525,374.2969 L271,374.2969 " fill="#FEFFDD" style="stroke:#181818;stroke-width:0.5;"/><path d="M525,374.2969 L525,384.2969 L535,384.2969 L525,374.2969 " fill="#FEFFDD" style="stroke:#181818;stroke-width:0.5;"/><text fill="#000000" font-family="sans-serif" font-size="13" lengthAdjust="spacing" textLength="243.731" x="277" y="391.3638">All further transition attempts will fail</text><polygon fill="#181818" points="254.8735,421.5625,264.8735,425.5625,254.8735,429.5625,258.8735,425.5625" style="stroke:#181818;stroke-width:1;"/><line style="stroke:#181818;stroke-width:1;" x1="38.9551" x2="260.8735" y1="425.5625" y2="425.5625"/><text fill="#000000" font-family="sans-serif" font-size="13" lengthAdjust="spacing" textLength="193.521" x="45.9551" y="420.4966">Transition to an allowed state</text><polygon fill="#181818" points="49.9551,450.6953,39.9551,454.6953,49.9551,458.6953,45.9551,454.6953" style="stroke:#181818;stroke-width:1;"/><line style="stroke:#181818;stroke-width:1;stroke-dasharray:2.0,2.0;" x1="43.9551" x2="265.8735" y1="454.6953" y2="454.6953"/><text fill="#000000" font-family="sans-serif" font-size="13" lengthAdjust="spacing" textLength="32.2017" x="55.9551" y="449.6294">Error</text><polygon fill="#181818" points="277.8735,482.8281,267.8735,486.8281,277.8735,490.8281,273.8735,486.8281" style="stroke:#181818;stroke-width:1;"/><line style="stroke:#181818;stroke-width:1;" x1="271.8735" x2="384.4966" y1="486.8281" y2="486.8281"/><text fill="#000000" font-family="sans-serif" font-size="13" lengthAdjust="spacing" textLength="74.6992" x="283.8735" y="481.7622">Check logic</text><path d="M390,467.6953 L390,492.6953 L722,492.6953 L722,477.6953 L712,467.6953 L390,467.6953 " fill="#FEFFDD" style="stroke:#181818;stroke-width:0.5;"/><path d="M712,467.6953 L712,477.6953 L722,477.6953 L712,467.6953 " fill="#FEFFDD" style="stroke:#181818;stroke-width:0.5;"/><text fill="#000000" font-family="sans-serif" font-size="13" lengthAdjust="spacing" textLength="311.4858" x="396" y="484.7622">HealthMonitor does this in a background thread</text><polygon fill="#181818" points="373.4966,517.9609,383.4966,521.9609,373.4966,525.9609,377.4966,521.9609" style="stroke:#181818;stroke-width:1;"/><line style="stroke:#181818;stroke-width:1;stroke-dasharray:2.0,2.0;" x1="266.8735" x2="379.4966" y1="521.9609" y2="521.9609"/><text fill="#000000" font-family="sans-serif" font-size="13" lengthAdjust="spacing" textLength="38.9175" x="273.8735" y="516.895">Failed</text><path d="M390,502.8281 L390,527.8281 L592,527.8281 L592,512.8281 L582,502.8281 L390,502.8281 " fill="#FEFFDD" style="stroke:#181818;stroke-width:0.5;"/><path d="M582,502.8281 L582,512.8281 L592,512.8281 L582,502.8281 " fill="#FEFFDD" style="stroke:#181818;stroke-width:0.5;"/><text fill="#000000" font-family="sans-serif" font-size="13" lengthAdjust="spacing" textLength="181.2256" x="396" y="519.895">Alive notification is not sent</text><line style="stroke:#000000;stroke-width:1;stroke-dasharray:2.0,2.0;" x1="10" x2="863.814" y1="533.9609" y2="533.9609"/><text fill="#000000" font-family="sans-serif" font-size="11" font-weight="bold" lengthAdjust="spacing" textLength="216.9116" x="15" y="544.1714">[Allowed transition while disabled]</text><polygon fill="#181818" points="254.8735,564.8984,264.8735,568.8984,254.8735,572.8984,258.8735,568.8984" style="stroke:#181818;stroke-width:1;"/><line style="stroke:#181818;stroke-width:1;" x1="38.9551" x2="260.8735" y1="568.8984" y2="568.8984"/><text fill="#000000" font-family="sans-serif" font-size="13" lengthAdjust="spacing" textLength="48.2231" x="45.9551" y="563.8325">Disable</text><polygon fill="#181818" points="49.9551,594.0313,39.9551,598.0313,49.9551,602.0313,45.9551,598.0313" style="stroke:#181818;stroke-width:1;"/><line style="stroke:#181818;stroke-width:1;stroke-dasharray:2.0,2.0;" x1="43.9551" x2="265.8735" y1="598.0313" y2="598.0313"/><text fill="#000000" font-family="sans-serif" font-size="13" lengthAdjust="spacing" textLength="17.7607" x="55.9551" y="592.9653">Ok</text><polygon fill="#181818" points="254.8735,623.1641,264.8735,627.1641,254.8735,631.1641,258.8735,627.1641" style="stroke:#181818;stroke-width:1;"/><line style="stroke:#181818;stroke-width:1;" x1="38.9551" x2="260.8735" y1="627.1641" y2="627.1641"/><text fill="#000000" font-family="sans-serif" font-size="13" lengthAdjust="spacing" textLength="193.521" x="45.9551" y="622.0981">Transition to an allowed state</text><polygon fill="#181818" points="49.9551,655.2969,39.9551,659.2969,49.9551,663.2969,45.9551,659.2969" style="stroke:#181818;stroke-width:1;"/><line style="stroke:#181818;stroke-width:1;stroke-dasharray:2.0,2.0;" x1="43.9551" x2="265.8735" y1="659.2969" y2="659.2969"/><text fill="#000000" font-family="sans-serif" font-size="13" lengthAdjust="spacing" textLength="32.2017" x="55.9551" y="654.231">Error</text><path d="M271,640.1641 L271,665.1641 L558,665.1641 L558,650.1641 L548,640.1641 L271,640.1641 " fill="#FEFFDD" style="stroke:#181818;stroke-width:0.5;"/><path d="M548,640.1641 L548,650.1641 L558,650.1641 L548,640.1641 " fill="#FEFFDD" style="stroke:#181818;stroke-width:0.5;"/><text fill="#000000" font-family="sans-serif" font-size="13" lengthAdjust="spacing" textLength="266.8618" x="277" y="657.231">Transitions are disallowed while disabled</text><polygon fill="#181818" points="277.8735,690.4297,267.8735,694.4297,277.8735,698.4297,273.8735,694.4297" style="stroke:#181818;stroke-width:1;"/><line style="stroke:#181818;stroke-width:1;" x1="271.8735" x2="384.4966" y1="694.4297" y2="694.4297"/><text fill="#000000" font-family="sans-serif" font-size="13" lengthAdjust="spacing" textLength="74.6992" x="283.8735" y="689.3638">Check logic</text><path d="M390,675.2969 L390,700.2969 L722,700.2969 L722,685.2969 L712,675.2969 L390,675.2969 " fill="#FEFFDD" style="stroke:#181818;stroke-width:0.5;"/><path d="M712,675.2969 L712,685.2969 L722,685.2969 L712,675.2969 " fill="#FEFFDD" style="stroke:#181818;stroke-width:0.5;"/><text fill="#000000" font-family="sans-serif" font-size="13" lengthAdjust="spacing" textLength="311.4858" x="396" y="692.3638">HealthMonitor does this in a background thread</text><polygon fill="#181818" points="373.4966,722.5625,383.4966,726.5625,373.4966,730.5625,377.4966,726.5625" style="stroke:#181818;stroke-width:1;"/><line style="stroke:#181818;stroke-width:1;stroke-dasharray:2.0,2.0;" x1="266.8735" x2="379.4966" y1="726.5625" y2="726.5625"/><text fill="#000000" font-family="sans-serif" font-size="13" lengthAdjust="spacing" textLength="17.7607" x="273.8735" y="721.4966">Ok</text><polygon fill="#181818" points="541.5693,751.6953,551.5693,755.6953,541.5693,759.6953,545.5693,755.6953" style="stroke:#181818;stroke-width:1;"/><line style="stroke:#181818;stroke-width:1;stroke-dasharray:2.0,2.0;" x1="385.4966" x2="547.5693" y1="755.6953" y2="755.6953"/><text fill="#000000" font-family="sans-serif" font-size="13" lengthAdjust="spacing" textLength="144.0728" x="392.4966" y="750.6294">Alive notification (IPC)</text><polygon fill="#181818" points="254.8735,780.8281,264.8735,784.8281,254.8735,788.8281,258.8735,784.8281" style="stroke:#181818;stroke-width:1;"/><line style="stroke:#181818;stroke-width:1;" x1="38.9551" x2="260.8735" y1="784.8281" y2="784.8281"/><text fill="#000000" font-family="sans-serif" font-size="13" lengthAdjust="spacing" textLength="44.2813" x="45.9551" y="779.7622">Enable</text><polygon fill="#181818" points="49.9551,809.9609,39.9551,813.9609,49.9551,817.9609,45.9551,813.9609" style="stroke:#181818;stroke-width:1;"/><line style="stroke:#181818;stroke-width:1;stroke-dasharray:2.0,2.0;" x1="43.9551" x2="265.8735" y1="813.9609" y2="813.9609"/><text fill="#000000" font-family="sans-serif" font-size="13" lengthAdjust="spacing" textLength="17.7607" x="55.9551" y="808.895">Ok</text><polygon fill="#181818" points="254.8735,839.0938,264.8735,843.0938,254.8735,847.0938,258.8735,843.0938" style="stroke:#181818;stroke-width:1;"/><line style="stroke:#181818;stroke-width:1;" x1="38.9551" x2="260.8735" y1="843.0938" y2="843.0938"/><text fill="#000000" font-family="sans-serif" font-size="13" lengthAdjust="spacing" textLength="193.521" x="45.9551" y="838.0278">Transition to an allowed state</text><polygon fill="#181818" points="49.9551,868.2266,39.9551,872.2266,49.9551,876.2266,45.9551,872.2266" style="stroke:#181818;stroke-width:1;"/><line style="stroke:#181818;stroke-width:1;stroke-dasharray:2.0,2.0;" x1="43.9551" x2="265.8735" y1="872.2266" y2="872.2266"/><text fill="#000000" font-family="sans-serif" font-size="13" lengthAdjust="spacing" textLength="17.7607" x="55.9551" y="867.1606">Ok</text><polygon fill="#181818" points="277.8735,900.3594,267.8735,904.3594,277.8735,908.3594,273.8735,904.3594" style="stroke:#181818;stroke-width:1;"/><line style="stroke:#181818;stroke-width:1;" x1="271.8735" x2="384.4966" y1="904.3594" y2="904.3594"/><text fill="#000000" font-family="sans-serif" font-size="13" lengthAdjust="spacing" textLength="74.6992" x="283.8735" y="899.2935">Check logic</text><path d="M390,885.2266 L390,910.2266 L722,910.2266 L722,895.2266 L712,885.2266 L390,885.2266 " fill="#FEFFDD" style="stroke:#181818;stroke-width:0.5;"/><path d="M712,885.2266 L712,895.2266 L722,895.2266 L712,885.2266 " fill="#FEFFDD" style="stroke:#181818;stroke-width:0.5;"/><text fill="#000000" font-family="sans-serif" font-size="13" lengthAdjust="spacing" textLength="311.4858" x="396" y="902.2935">HealthMonitor does this in a background thread</text><polygon fill="#181818" points="373.4966,932.4922,383.4966,936.4922,373.4966,940.4922,377.4966,936.4922" style="stroke:#181818;stroke-width:1;"/><line style="stroke:#181818;stroke-width:1;stroke-dasharray:2.0,2.0;" x1="266.8735" x2="379.4966" y1="936.4922" y2="936.4922"/><text fill="#000000" font-family="sans-serif" font-size="13" lengthAdjust="spacing" textLength="17.7607" x="273.8735" y="931.4263">Ok</text><polygon fill="#181818" points="541.5693,961.625,551.5693,965.625,541.5693,969.625,545.5693,965.625" style="stroke:#181818;stroke-width:1;"/><line style="stroke:#181818;stroke-width:1;stroke-dasharray:2.0,2.0;" x1="385.4966" x2="547.5693" y1="965.625" y2="965.625"/><text fill="#000000" font-family="sans-serif" font-size="13" lengthAdjust="spacing" textLength="144.0728" x="392.4966" y="960.5591">Alive notification (IPC)</text><line style="stroke:#000000;stroke-width:1;stroke-dasharray:2.0,2.0;" x1="10" x2="863.814" y1="974.625" y2="974.625"/><text fill="#000000" font-family="sans-serif" font-size="11" font-weight="bold" lengthAdjust="spacing" textLength="235.27" x="15" y="984.8354">[Disallowed transition while disabled]</text><polygon fill="#181818" points="254.8735,1005.5625,264.8735,1009.5625,254.8735,1013.5625,258.8735,1009.5625" style="stroke:#181818;stroke-width:1;"/><line style="stroke:#181818;stroke-width:1;" x1="38.9551" x2="260.8735" y1="1009.5625" y2="1009.5625"/><text fill="#000000" font-family="sans-serif" font-size="13" lengthAdjust="spacing" textLength="48.2231" x="45.9551" y="1004.4966">Disable</text><polygon fill="#181818" points="49.9551,1034.6953,39.9551,1038.6953,49.9551,1042.6953,45.9551,1038.6953" style="stroke:#181818;stroke-width:1;"/><line style="stroke:#181818;stroke-width:1;stroke-dasharray:2.0,2.0;" x1="43.9551" x2="265.8735" y1="1038.6953" y2="1038.6953"/><text fill="#000000" font-family="sans-serif" font-size="13" lengthAdjust="spacing" textLength="17.7607" x="55.9551" y="1033.6294">Ok</text><polygon fill="#181818" points="254.8735,1063.8281,264.8735,1067.8281,254.8735,1071.8281,258.8735,1067.8281" style="stroke:#181818;stroke-width:1;"/><line style="stroke:#181818;stroke-width:1;" x1="38.9551" x2="260.8735" y1="1067.8281" y2="1067.8281"/><text fill="#000000" font-family="sans-serif" font-size="13" lengthAdjust="spacing" textLength="203.9185" x="45.9551" y="1062.7622">Transition to a disallowed state</text><polygon fill="#181818" points="49.9551,1095.9609,39.9551,1099.9609,49.9551,1103.9609,45.9551,1099.9609" style="stroke:#181818;stroke-width:1;"/><line style="stroke:#181818;stroke-width:1;stroke-dasharray:2.0,2.0;" x1="43.9551" x2="265.8735" y1="1099.9609" y2="1099.9609"/><text fill="#000000" font-family="sans-serif" font-size="13" lengthAdjust="spacing" textLength="32.2017" x="55.9551" y="1094.895">Error</text><path d="M271,1080.8281 L271,1105.8281 L847,1105.8281 L847,1090.8281 L837,1080.8281 L271,1080.8281 " fill="#FEFFDD" style="stroke:#181818;stroke-width:0.5;"/><path d="M837,1080.8281 L837,1090.8281 L847,1090.8281 L837,1080.8281 " fill="#FEFFDD" style="stroke:#181818;stroke-width:0.5;"/><text fill="#000000" font-family="sans-serif" font-size="13" lengthAdjust="spacing" textLength="555.9404" x="277" y="1097.895">Transitions are disallowed while disabled, this does not cause the LogicMonitor to fail</text><polygon fill="#181818" points="277.8735,1131.0938,267.8735,1135.0938,277.8735,1139.0938,273.8735,1135.0938" style="stroke:#181818;stroke-width:1;"/><line style="stroke:#181818;stroke-width:1;" x1="271.8735" x2="384.4966" y1="1135.0938" y2="1135.0938"/><text fill="#000000" font-family="sans-serif" font-size="13" lengthAdjust="spacing" textLength="74.6992" x="283.8735" y="1130.0278">Check logic</text><path d="M390,1115.9609 L390,1140.9609 L722,1140.9609 L722,1125.9609 L712,1115.9609 L390,1115.9609 " fill="#FEFFDD" style="stroke:#181818;stroke-width:0.5;"/><path d="M712,1115.9609 L712,1125.9609 L722,1125.9609 L712,1115.9609 " fill="#FEFFDD" style="stroke:#181818;stroke-width:0.5;"/><text fill="#000000" font-family="sans-serif" font-size="13" lengthAdjust="spacing" textLength="311.4858" x="396" y="1133.0278">HealthMonitor does this in a background thread</text><polygon fill="#181818" points="373.4966,1163.2266,383.4966,1167.2266,373.4966,1171.2266,377.4966,1167.2266" style="stroke:#181818;stroke-width:1;"/><line style="stroke:#181818;stroke-width:1;stroke-dasharray:2.0,2.0;" x1="266.8735" x2="379.4966" y1="1167.2266" y2="1167.2266"/><text fill="#000000" font-family="sans-serif" font-size="13" lengthAdjust="spacing" textLength="17.7607" x="273.8735" y="1162.1606">Ok</text><polygon fill="#181818" points="541.5693,1192.3594,551.5693,1196.3594,541.5693,1200.3594,545.5693,1196.3594" style="stroke:#181818;stroke-width:1;"/><line style="stroke:#181818;stroke-width:1;stroke-dasharray:2.0,2.0;" x1="385.4966" x2="547.5693" y1="1196.3594" y2="1196.3594"/><text fill="#000000" font-family="sans-serif" font-size="13" lengthAdjust="spacing" textLength="144.0728" x="392.4966" y="1191.2935">Alive notification (IPC)</text><polygon fill="#181818" points="254.8735,1221.4922,264.8735,1225.4922,254.8735,1229.4922,258.8735,1225.4922" style="stroke:#181818;stroke-width:1;"/><line style="stroke:#181818;stroke-width:1;" x1="38.9551" x2="260.8735" y1="1225.4922" y2="1225.4922"/><text fill="#000000" font-family="sans-serif" font-size="13" lengthAdjust="spacing" textLength="44.2813" x="45.9551" y="1220.4263">Enable</text><polygon fill="#181818" points="49.9551,1250.625,39.9551,1254.625,49.9551,1258.625,45.9551,1254.625" style="stroke:#181818;stroke-width:1;"/><line style="stroke:#181818;stroke-width:1;stroke-dasharray:2.0,2.0;" x1="43.9551" x2="265.8735" y1="1254.625" y2="1254.625"/><text fill="#000000" font-family="sans-serif" font-size="13" lengthAdjust="spacing" textLength="17.7607" x="55.9551" y="1249.5591">Ok</text><polygon fill="#181818" points="254.8735,1279.7578,264.8735,1283.7578,254.8735,1287.7578,258.8735,1283.7578" style="stroke:#181818;stroke-width:1;"/><line style="stroke:#181818;stroke-width:1;" x1="38.9551" x2="260.8735" y1="1283.7578" y2="1283.7578"/><text fill="#000000" font-family="sans-serif" font-size="13" lengthAdjust="spacing" textLength="193.521" x="45.9551" y="1278.6919">Transition to an allowed state</text><polygon fill="#181818" points="49.9551,1308.8906,39.9551,1312.8906,49.9551,1316.8906,45.9551,1312.8906" style="stroke:#181818;stroke-width:1;"/><line style="stroke:#181818;stroke-width:1;stroke-dasharray:2.0,2.0;" x1="43.9551" x2="265.8735" y1="1312.8906" y2="1312.8906"/><text fill="#000000" font-family="sans-serif" font-size="13" lengthAdjust="spacing" textLength="17.7607" x="55.9551" y="1307.8247">Ok</text><polygon fill="#181818" points="277.8735,1341.0234,267.8735,1345.0234,277.8735,1349.0234,273.8735,1345.0234" style="stroke:#181818;stroke-width:1;"/><line style="stroke:#181818;stroke-width:1;" x1="271.8735" x2="384.4966" y1="1345.0234" y2="1345.0234"/><text fill="#000000" font-family="sans-serif" font-size="13" lengthAdjust="spacing" textLength="74.6992" x="283.8735" y="1339.9575">Check logic</text><path d="M390,1325.8906 L390,1350.8906 L722,1350.8906 L722,1335.8906 L712,1325.8906 L390,1325.8906 " fill="#FEFFDD" style="stroke:#181818;stroke-width:0.5;"/><path d="M712,1325.8906 L712,1335.8906 L722,1335.8906 L712,1325.8906 " fill="#FEFFDD" style="stroke:#181818;stroke-width:0.5;"/><text fill="#000000" font-family="sans-serif" font-size="13" lengthAdjust="spacing" textLength="311.4858" x="396" y="1342.9575">HealthMonitor does this in a background thread</text><polygon fill="#181818" points="373.4966,1373.1563,383.4966,1377.1563,373.4966,1381.1563,377.4966,1377.1563" style="stroke:#181818;stroke-width:1;"/><line style="stroke:#181818;stroke-width:1;stroke-dasharray:2.0,2.0;" x1="266.8735" x2="379.4966" y1="1377.1563" y2="1377.1563"/><text fill="#000000" font-family="sans-serif" font-size="13" lengthAdjust="spacing" textLength="17.7607" x="273.8735" y="1372.0903">Ok</text><polygon fill="#181818" points="541.5693,1402.2891,551.5693,1406.2891,541.5693,1410.2891,545.5693,1406.2891" style="stroke:#181818;stroke-width:1;"/><line style="stroke:#181818;stroke-width:1;stroke-dasharray:2.0,2.0;" x1="385.4966" x2="547.5693" y1="1406.2891" y2="1406.2891"/><text fill="#000000" font-family="sans-serif" font-size="13" lengthAdjust="spacing" textLength="144.0728" x="392.4966" y="1401.2231">Alive notification (IPC)</text><!--SRC=[xLJDJW8n4BxtAIQSDD4Ny61207yIY1xq0ORki6qeBMbdvVMTBQjRm0i4ZIOUcPdEzxFVW9f3XC5heZW0JD2eDKQssgxHCmoceRPw5hoLgTntgzs11qB7ffmmUnDJRBmsC_HOTnWkLvHguFfMnk46xecXX59IlPPc8xso3jOdHgz9AO65eNDXGnLmH9yis-2xfQvT-l9P1Gw07h0RbnLColKGJyiCsBqR6T9BS2siye49egqDIsD7ArI14h2nIKW1mXpriewXyKB7HCBg0o0Bx11QY2nUIaDdtmW4m2winappul5vTAaKkKGmjWcFaGTL_-10u2H6CNL7Z7W7YoQoeLW003BJQiq9DhOTGEjESdGB-CsctWaxgefrNvegk-Gt9FBSMNiO6zWOMPKjdBSh2ytZRMqlBgTxKhBjtoR0IEKdt2FqY-BPIv_uCpdpP-xlV3avwboFIChLrf9iJXjxZOs8aIlV_HyL2lcs_tFraxdorJi0]--></g></svg>