<svg xmlns="http://www.w3.org/2000/svg" xmlns:xlink="http://www.w3.org/1999/xlink" contentStyleType="text/css" data-diagram-type="CLASS" height="491px" preserveAspectRatio="none" style="width:953px;height:491px;background:#FFFFFF;" version="1.1" viewBox="0 0 953 491" width="953px" zoomAndPan="magnify"><defs/><g><!--class Status--><g id="elem_Status"><rect codeLine="2" fill="#F1F1F1" height="113.1875" id="Status" rx="2.5" ry="2.5" style="stroke:#181818;stroke-width:0.5;" width="87.6113" x="496.5" y="371"/><ellipse cx="511.5" cy="387" fill="#EB937F" rx="11" ry="11" style="stroke:#181818;stroke-width:1;"/><path d="M515.6094,393 L507.8906,393 L507.8906,380.6094 L515.6094,380.6094 L515.6094,382.7656 L510.3438,382.7656 L510.3438,385.4375 L515.1094,385.4375 L515.1094,387.5938 L510.3438,387.5938 L510.3438,390.8438 L515.6094,390.8438 L515.6094,393 Z " fill="#000000"/><ellipse cx="530.5" cy="386.5" fill="#84BE84" rx="3" ry="3" style="stroke:#038048;stroke-width:1;"/><text fill="#000000" font-family="sans-serif" font-size="14" lengthAdjust="spacing" textLength="44.6113" x="536.5" y="391.8467">Status</text><line style="stroke:#181818;stroke-width:0.5;" x1="497.5" x2="583.1113" y1="403" y2="403"/><text fill="#000000" font-family="sans-serif" font-size="14" lengthAdjust="spacing" textLength="57.9961" x="502.5" y="419.9951">Running</text><text fill="#000000" font-family="sans-serif" font-size="14" lengthAdjust="spacing" textLength="60.8193" x="502.5" y="436.292">Disabled</text><text fill="#000000" font-family="sans-serif" font-size="14" lengthAdjust="spacing" textLength="41.9111" x="502.5" y="452.5889">Failed</text><text fill="#000000" font-family="sans-serif" font-size="14" lengthAdjust="spacing" textLength="58.2148" x="502.5" y="468.8857">Stopped</text><line style="stroke:#181818;stroke-width:0.5;" x1="497.5" x2="583.1113" y1="476.1875" y2="476.1875"/></g><!--class Error--><g id="elem_Error"><rect codeLine="9" fill="#F1F1F1" height="113.1875" id="Error" rx="2.5" ry="2.5" style="stroke:#181818;stroke-width:0.5;" width="116.9863" x="7" y="371"/><ellipse cx="39.6884" cy="387" fill="#EB937F" rx="11" ry="11" style="stroke:#181818;stroke-width:1;"/><path d="M43.7978,393 L36.0791,393 L36.0791,380.6094 L43.7978,380.6094 L43.7978,382.7656 L38.5322,382.7656 L38.5322,385.4375 L43.2978,385.4375 L43.2978,387.5938 L38.5322,387.5938 L38.5322,390.8438 L43.7978,390.8438 L43.7978,393 Z " fill="#000000"/><ellipse cx="62.6192" cy="386.5" fill="#84BE84" rx="3" ry="3" style="stroke:#038048;stroke-width:1;"/><text fill="#000000" font-family="sans-serif" font-size="14" lengthAdjust="spacing" textLength="34.6787" x="68.6192" y="391.8467">Error</text><line style="stroke:#181818;stroke-width:0.5;" x1="8" x2="122.9863" y1="403" y2="403"/><text fill="#000000" font-family="sans-serif" font-size="14" lengthAdjust="spacing" textLength="104.9863" x="13" y="419.9951">BadParameter,</text><text fill="#000000" font-family="sans-serif" font-size="14" lengthAdjust="spacing" textLength="83.8496" x="13" y="436.292">NotAllowed,</text><text fill="#000000" font-family="sans-serif" font-size="14" lengthAdjust="spacing" textLength="102.7168" x="13" y="452.5889">OutOfMemory,</text><text fill="#000000" font-family="sans-serif" font-size="14" lengthAdjust="spacing" textLength="58.7412" x="13" y="468.8857">Generic,</text><line style="stroke:#181818;stroke-width:0.5;" x1="8" x2="122.9863" y1="476.1875" y2="476.1875"/></g><!--class Tag--><g id="elem_Tag"><rect codeLine="16" fill="#F1F1F1" height="64.2969" id="Tag" rx="2.5" ry="2.5" style="stroke:#181818;stroke-width:0.5;" width="302.4453" x="159.5" y="395.5"/><ellipse cx="287.9639" cy="411.5" fill="#ADD1B2" rx="11" ry="11" style="stroke:#181818;stroke-width:1;"/><path d="M290.9326,417.1406 Q290.3545,417.4375 289.7139,417.5781 Q289.0732,417.7344 288.3701,417.7344 Q285.8701,417.7344 284.542,416.0938 Q283.2295,414.4375 283.2295,411.3125 Q283.2295,408.1875 284.542,406.5313 Q285.8701,404.875 288.3701,404.875 Q289.0732,404.875 289.7139,405.0313 Q290.3701,405.1875 290.9326,405.4844 L290.9326,408.2031 Q290.3076,407.625 289.7139,407.3594 Q289.1201,407.0781 288.4951,407.0781 Q287.1514,407.0781 286.4639,408.1563 Q285.7764,409.2188 285.7764,411.3125 Q285.7764,413.4063 286.4639,414.4844 Q287.1514,415.5469 288.4951,415.5469 Q289.1201,415.5469 289.7139,415.2813 Q290.3076,415 290.9326,414.4219 L290.9326,417.1406 Z " fill="#000000"/><ellipse cx="313.4639" cy="411" fill="#84BE84" rx="3" ry="3" style="stroke:#038048;stroke-width:1;"/><text fill="#000000" font-family="sans-serif" font-size="14" lengthAdjust="spacing" textLength="26.0176" x="319.4639" y="416.3467">Tag</text><line style="stroke:#181818;stroke-width:0.5;" x1="160.5" x2="460.9453" y1="427.5" y2="427.5"/><line style="stroke:#181818;stroke-width:0.5;" x1="160.5" x2="460.9453" y1="435.5" y2="435.5"/><ellipse cx="170.5" cy="449.1484" fill="#84BE84" rx="3" ry="3" style="stroke:#038048;stroke-width:1;"/><text fill="#000000" font-family="sans-serif" font-size="14" lengthAdjust="spacing" textLength="276.4453" x="179.5" y="452.4951">new&lt;N: AsRef&lt;str&gt;&gt;(name: N) -&gt; Self</text></g><!--class DeadlineMonitor--><g id="elem_DeadlineMonitor"><rect codeLine="20" fill="#F1F1F1" height="48" id="DeadlineMonitor" rx="2.5" ry="2.5" style="stroke:#181818;stroke-width:0.5;" width="158.3428" x="619.5" y="403.5"/><ellipse cx="634.5" cy="419.5" fill="#ADD1B2" rx="11" ry="11" style="stroke:#181818;stroke-width:1;"/><path d="M637.4688,425.1406 Q636.8906,425.4375 636.25,425.5781 Q635.6094,425.7344 634.9063,425.7344 Q632.4063,425.7344 631.0781,424.0938 Q629.7656,422.4375 629.7656,419.3125 Q629.7656,416.1875 631.0781,414.5313 Q632.4063,412.875 634.9063,412.875 Q635.6094,412.875 636.25,413.0313 Q636.9063,413.1875 637.4688,413.4844 L637.4688,416.2031 Q636.8438,415.625 636.25,415.3594 Q635.6563,415.0781 635.0313,415.0781 Q633.6875,415.0781 633,416.1563 Q632.3125,417.2188 632.3125,419.3125 Q632.3125,421.4063 633,422.4844 Q633.6875,423.5469 635.0313,423.5469 Q635.6563,423.5469 636.25,423.2813 Q636.8438,423 637.4688,422.4219 L637.4688,425.1406 Z " fill="#000000"/><ellipse cx="653.5" cy="419" fill="#84BE84" rx="3" ry="3" style="stroke:#038048;stroke-width:1;"/><text fill="#000000" font-family="sans-serif" font-size="14" lengthAdjust="spacing" textLength="115.3428" x="659.5" y="424.3467">DeadlineMonitor</text><line style="stroke:#181818;stroke-width:0.5;" x1="620.5" x2="776.8428" y1="435.5" y2="435.5"/><line style="stroke:#181818;stroke-width:0.5;" x1="620.5" x2="776.8428" y1="443.5" y2="443.5"/></g><!--class LogicMonitor--><g id="elem_LogicMonitor"><rect codeLine="23" fill="#F1F1F1" height="48" id="LogicMonitor" rx="2.5" ry="2.5" style="stroke:#181818;stroke-width:0.5;" width="133.0566" x="813" y="403.5"/><ellipse cx="828" cy="419.5" fill="#ADD1B2" rx="11" ry="11" style="stroke:#181818;stroke-width:1;"/><path d="M830.9688,425.1406 Q830.3906,425.4375 829.75,425.5781 Q829.1094,425.7344 828.4063,425.7344 Q825.9063,425.7344 824.5781,424.0938 Q823.2656,422.4375 823.2656,419.3125 Q823.2656,416.1875 824.5781,414.5313 Q825.9063,412.875 828.4063,412.875 Q829.1094,412.875 829.75,413.0313 Q830.4063,413.1875 830.9688,413.4844 L830.9688,416.2031 Q830.3438,415.625 829.75,415.3594 Q829.1563,415.0781 828.5313,415.0781 Q827.1875,415.0781 826.5,416.1563 Q825.8125,417.2188 825.8125,419.3125 Q825.8125,421.4063 826.5,422.4844 Q827.1875,423.5469 828.5313,423.5469 Q829.1563,423.5469 829.75,423.2813 Q830.3438,423 830.9688,422.4219 L830.9688,425.1406 Z " fill="#000000"/><ellipse cx="847" cy="419" fill="#84BE84" rx="3" ry="3" style="stroke:#038048;stroke-width:1;"/><text fill="#000000" font-family="sans-serif" font-size="14" lengthAdjust="spacing" textLength="90.0566" x="853" y="424.3467">LogicMonitor</text><line style="stroke:#181818;stroke-width:0.5;" x1="814" x2="945.0566" y1="435.5" y2="435.5"/><line style="stroke:#181818;stroke-width:0.5;" x1="814" x2="945.0566" y1="443.5" y2="443.5"/></g><!--class HealthMonitorBuilder--><g id="elem_HealthMonitorBuilder"><rect codeLine="26" fill="#F1F1F1" height="129.4844" id="HealthMonitorBuilder" rx="2.5" ry="2.5" style="stroke:#181818;stroke-width:0.5;" width="610.9717" x="178" y="7"/><ellipse cx="399.3848" cy="23" fill="#ADD1B2" rx="11" ry="11" style="stroke:#181818;stroke-width:1;"/><path d="M402.3535,28.6406 Q401.7754,28.9375 401.1348,29.0781 Q400.4941,29.2344 399.791,29.2344 Q397.291,29.2344 395.9629,27.5938 Q394.6504,25.9375 394.6504,22.8125 Q394.6504,19.6875 395.9629,18.0313 Q397.291,16.375 399.791,16.375 Q400.4941,16.375 401.1348,16.5313 Q401.791,16.6875 402.3535,16.9844 L402.3535,19.7031 Q401.7285,19.125 401.1348,18.8594 Q400.541,18.5781 399.916,18.5781 Q398.5723,18.5781 397.8848,19.6563 Q397.1973,20.7188 397.1973,22.8125 Q397.1973,24.9063 397.8848,25.9844 Q398.5723,27.0469 399.916,27.0469 Q400.541,27.0469 401.1348,26.7813 Q401.7285,26.5 402.3535,25.9219 L402.3535,28.6406 Z " fill="#000000"/><ellipse cx="424.8848" cy="22.5" fill="#84BE84" rx="3" ry="3" style="stroke:#038048;stroke-width:1;"/><text fill="#000000" font-family="sans-serif" font-size="14" lengthAdjust="spacing" textLength="148.7021" x="430.8848" y="27.8467">HealthMonitorBuilder</text><line style="stroke:#181818;stroke-width:0.5;" x1="179" x2="787.9717" y1="39" y2="39"/><line style="stroke:#181818;stroke-width:0.5;" x1="179" x2="787.9717" y1="47" y2="47"/><ellipse cx="189" cy="60.6484" fill="#84BE84" rx="3" ry="3" style="stroke:#038048;stroke-width:1;"/><text fill="#000000" font-family="sans-serif" font-size="14" lengthAdjust="spacing" textLength="91.8613" x="198" y="63.9951">new() -&gt; Self</text><ellipse cx="189" cy="76.9453" fill="#84BE84" rx="3" ry="3" style="stroke:#038048;stroke-width:1;"/><text fill="#000000" font-family="sans-serif" font-size="14" lengthAdjust="spacing" textLength="227.1172" x="198" y="80.292">from_config(config: &amp;str) -&gt; Self</text><ellipse cx="189" cy="93.2422" fill="#84BE84" rx="3" ry="3" style="stroke:#038048;stroke-width:1;"/><text fill="#000000" font-family="sans-serif" font-size="14" lengthAdjust="spacing" textLength="584.9717" x="198" y="96.5889">add_deadline_monitor(&amp;mut self, tag: Tag, monitor: DeadlineMonitor) -&gt; &amp;mut Self</text><ellipse cx="189" cy="109.5391" fill="#84BE84" rx="3" ry="3" style="stroke:#038048;stroke-width:1;"/><text fill="#000000" font-family="sans-serif" font-size="14" lengthAdjust="spacing" textLength="532.3828" x="198" y="112.8857">add_logic_monitor(&amp;mut self, tag: Tag, monitor: LogicMonitor) -&gt; &amp;mut Self</text><ellipse cx="189" cy="125.8359" fill="#84BE84" rx="3" ry="3" style="stroke:#038048;stroke-width:1;"/><text fill="#000000" font-family="sans-serif" font-size="14" lengthAdjust="spacing" textLength="305.874" x="198" y="129.1826">build(self) -&gt; Result&lt;HealthMonitor, Error&gt;</text></g><!--class HealthMonitor--><g id="elem_HealthMonitor"><rect codeLine="34" fill="#F1F1F1" height="96.8906" id="HealthMonitor" rx="2.5" ry="2.5" style="stroke:#181818;stroke-width:0.5;" width="543.5557" x="211.5" y="213"/><ellipse cx="423.9331" cy="229" fill="#ADD1B2" rx="11" ry="11" style="stroke:#181818;stroke-width:1;"/><path d="M426.9019,234.6406 Q426.3237,234.9375 425.6831,235.0781 Q425.0425,235.2344 424.3394,235.2344 Q421.8394,235.2344 420.5112,233.5938 Q419.1987,231.9375 419.1987,228.8125 Q419.1987,225.6875 420.5112,224.0313 Q421.8394,222.375 424.3394,222.375 Q425.0425,222.375 425.6831,222.5313 Q426.3394,222.6875 426.9019,222.9844 L426.9019,225.7031 Q426.2769,225.125 425.6831,224.8594 Q425.0894,224.5781 424.4644,224.5781 Q423.1206,224.5781 422.4331,225.6563 Q421.7456,226.7188 421.7456,228.8125 Q421.7456,230.9063 422.4331,231.9844 Q423.1206,233.0469 424.4644,233.0469 Q425.0894,233.0469 425.6831,232.7813 Q426.2769,232.5 426.9019,231.9219 L426.9019,234.6406 Z " fill="#000000"/><ellipse cx="449.4331" cy="228.5" fill="#84BE84" rx="3" ry="3" style="stroke:#038048;stroke-width:1;"/><text fill="#000000" font-family="sans-serif" font-size="14" lengthAdjust="spacing" textLength="99.1895" x="455.4331" y="233.8467">HealthMonitor</text><line style="stroke:#181818;stroke-width:0.5;" x1="212.5" x2="754.0557" y1="245" y2="245"/><line style="stroke:#181818;stroke-width:0.5;" x1="212.5" x2="754.0557" y1="253" y2="253"/><ellipse cx="222.5" cy="266.6484" fill="#84BE84" rx="3" ry="3" style="stroke:#038048;stroke-width:1;"/><text fill="#000000" font-family="sans-serif" font-size="14" lengthAdjust="spacing" textLength="517.5557" x="231.5" y="269.9951">get_deadline_monitor(&amp;self, tag: Tag) -&gt; Result&lt;DeadlineMonitor, Error&gt;</text><ellipse cx="222.5" cy="282.9453" fill="#84BE84" rx="3" ry="3" style="stroke:#038048;stroke-width:1;"/><text fill="#000000" font-family="sans-serif" font-size="14" lengthAdjust="spacing" textLength="464.9668" x="231.5" y="286.292">get_logic_monitor(&amp;self, tag: Tag) -&gt; Result&lt;LogicMonitor, Error&gt;</text><ellipse cx="222.5" cy="299.2422" fill="#84BE84" rx="3" ry="3" style="stroke:#038048;stroke-width:1;"/><text fill="#000000" font-family="sans-serif" font-size="14" lengthAdjust="spacing" textLength="159.8789" x="231.5" y="302.5889">status(&amp;self) -&gt; Status</text></g><!--link HealthMonitorBuilder to Error--><g id="link_HealthMonitorBuilder_Error"><path codeLine="40" d="M265.54,136.11 C246.98,144.95 229.01,154.88 212.5,166 C140.79,214.31 102.0183,304.2585 82.3883,365.2485 " fill="transparent" id="HealthMonitorBuilder-to-Error" style="stroke:#181818;stroke-width:1;stroke-dasharray:7.0,7.0;"/><polygon fill="#181818" points="80.55,370.96,87.115,363.6183,82.0819,366.2005,79.4998,361.1673,80.55,370.96" style="stroke:#181818;stroke-width:1;"/></g><!--link HealthMonitorBuilder to Tag--><g id="link_HealthMonitorBuilder_Tag"><path codeLine="41" d="M277.06,136.16 C243.85,155.56 213.78,180.65 193.5,213 C170.61,249.53 176.96,270.19 193.5,310 C207.96,344.81 233.7342,370.8777 259.9542,391.6177 " fill="transparent" id="HealthMonitorBuilder-to-Tag" style="stroke:#181818;stroke-width:1;stroke-dasharray:7.0,7.0;"/><polygon fill="#181818" points="264.66,395.34,260.0828,386.6194,260.7385,392.2381,255.1198,392.8938,264.66,395.34" style="stroke:#181818;stroke-width:1;"/></g><!--link HealthMonitorBuilder to HealthMonitor--><g id="link_HealthMonitorBuilder_HealthMonitor"><path codeLine="42" d="M483.5,136.15 C483.5,161.29 483.5,183.67 483.5,206.97 " fill="transparent" id="HealthMonitorBuilder-to-HealthMonitor" style="stroke:#181818;stroke-width:1;stroke-dasharray:7.0,7.0;"/><polygon fill="#181818" points="483.5,212.97,487.5,203.97,483.5,207.97,479.5,203.97,483.5,212.97" style="stroke:#181818;stroke-width:1;"/><text fill="#000000" font-family="sans-serif" font-size="13" lengthAdjust="spacing" textLength="81.6943" x="484.5" y="179.0669">&#171;consumes&#187;</text></g><!--reverse link HealthMonitorBuilder to DeadlineMonitor--><g id="link_HealthMonitorBuilder_DeadlineMonitor"><path codeLine="43" d="M700.3016,142.2129 C733.5116,161.6129 753.22,180.65 773.5,213 C812.93,275.92 753.26,362.3 719.33,403.21 " fill="transparent" id="HealthMonitorBuilder-backto-DeadlineMonitor" style="stroke:#181818;stroke-width:1;"/><polygon fill="transparent" points="689.94,136.16,693.1032,142.6403,700.3016,142.2129,697.1384,135.7326,689.94,136.16" style="stroke:#181818;stroke-width:1;"/><text fill="#000000" font-family="sans-serif" font-size="13" lengthAdjust="spacing" textLength="23.0356" x="698.5668" y="392.5443">0..*</text></g><!--reverse link HealthMonitorBuilder to LogicMonitor--><g id="link_HealthMonitorBuilder_LogicMonitor"><path codeLine="44" d="M723.1103,141.2155 C741.7603,150.0255 748.92,154.83 765.5,166 C847.79,221.45 871.14,350.42 877.37,403.27 " fill="transparent" id="HealthMonitorBuilder-backto-LogicMonitor" style="stroke:#181818;stroke-width:1;"/><polygon fill="transparent" points="712.26,136.09,715.9766,142.2695,723.1103,141.2155,719.3937,135.036,712.26,136.09" style="stroke:#181818;stroke-width:1;"/><text fill="#000000" font-family="sans-serif" font-size="13" lengthAdjust="spacing" textLength="23.0356" x="851.0451" y="392.6189">0..*</text></g><!--reverse link HealthMonitor to Status--><g id="link_HealthMonitor_Status"><path codeLine="45" d="M504.0783,321.7153 C510.6483,340.6253 514.31,351.14 521.13,370.76 " fill="transparent" id="HealthMonitor-backto-Status" style="stroke:#181818;stroke-width:1;"/><polygon fill="#181818" points="500.14,310.38,498.3307,317.3604,504.0783,321.7153,505.8876,314.7349,500.14,310.38" style="stroke:#181818;stroke-width:1;"/></g><!--link HealthMonitor to Error--><g id="link_HealthMonitor_Error"><path codeLine="46" d="M295.91,310.04 C244.51,326.25 189.7,346.58 141.5,371 C135.67,373.95 134.8915,374.1497 129.1415,377.7597 " fill="transparent" id="HealthMonitor-to-Error" style="stroke:#181818;stroke-width:1;stroke-dasharray:7.0,7.0;"/><polygon fill="#181818" points="124.06,380.95,133.8092,379.5522,128.2946,378.2914,129.5554,372.7768,124.06,380.95" style="stroke:#181818;stroke-width:1;"/></g><!--link HealthMonitor to Tag--><g id="link_HealthMonitor_Tag"><path codeLine="47" d="M433,310.38 C404.07,337.79 372.9747,367.2824 347.6647,391.2724 " fill="transparent" id="HealthMonitor-to-Tag" style="stroke:#181818;stroke-width:1;stroke-dasharray:7.0,7.0;"/><polygon fill="#181818" points="343.31,395.4,352.5937,392.1118,346.9389,391.9604,347.0903,386.3055,343.31,395.4" style="stroke:#181818;stroke-width:1;"/></g><!--reverse link HealthMonitor to DeadlineMonitor--><g id="link_HealthMonitor_DeadlineMonitor"><path codeLine="48" d="M555.5213,317.4377 C595.6913,348.0777 636.55,379.25 668.16,403.35 " fill="transparent" id="HealthMonitor-backto-DeadlineMonitor" style="stroke:#181818;stroke-width:1;"/><polygon fill="transparent" points="545.98,310.16,548.3247,316.9793,555.5213,317.4377,553.1765,310.6184,545.98,310.16" style="stroke:#181818;stroke-width:1;"/><text fill="#000000" font-family="sans-serif" font-size="13" lengthAdjust="spacing" textLength="23.0356" x="634.3991" y="392.3236">0..*</text></g><!--reverse link HealthMonitor to LogicMonitor--><g id="link_HealthMonitor_LogicMonitor"><path codeLine="49" d="M656.3096,313.9678 C705.6796,330.7778 748.08,347.55 795.5,371 C813.99,380.14 833.28,392.65 848.71,403.48 " fill="transparent" id="HealthMonitor-backto-LogicMonitor" style="stroke:#181818;stroke-width:1;"/><polygon fill="transparent" points="644.95,310.1,649.3405,315.8204,656.3096,313.9678,651.9191,308.2474,644.95,310.1" style="stroke:#181818;stroke-width:1;"/><text fill="#000000" font-family="sans-serif" font-size="13" lengthAdjust="spacing" textLength="23.0356" x="814.8705" y="392.4869">0..*</text></g><!--SRC=[ZLBBRi8m4Bpp5HO7b4A8UewYI23wE1Iee7TauargoR6H7q9LrN-lOuSqYHALN6BlxCpkx7e1t9JegB4s2drFaFqEXdFA2tVUK8NF38YxF6DwEnwrk5pi-MSoMJY59oc5h0NMcBnZYKlG84CNsGczOanSWVZxtkXzleLIo2yVU04EacQX4ymOLWfzuABMMt2u9hiOhTG1yaHfcQO1j_8nsZsWPOgEmF8MSGEOCCfXApZLhga_x4qKD1i2NW4p_LaZQqCP0Tag7pI5a8_bKfIdJF2S5e7_nMXcM-ldOK9Ef6xeL7hvO5OQZPHD2f76bcYjXgW6utx_Jj4ndCz6bLLMxfHisnxIErU6Wuhkq0CemtJIcKdeLvoEpUmsh0BqWE5kP-qYFRTDcKQivtDSgMsoAwFSy_PSlo0NgAmCxZsAKiyVXstjSR0xc1WbYNqYofIWqdIO9PPBD7sCelcql_v_yzkskybeRhDggrrWnE2mixkR6-lg5m00]--></g></svg>