<svg xmlns="http://www.w3.org/2000/svg" xmlns:xlink="http://www.w3.org/1999/xlink" contentStyleType="text/css" data-diagram-type="CLASS" height="507px" preserveAspectRatio="none" style="width:746px;height:507px;background:#FFFFFF;" version="1.1" viewBox="0 0 746 507" width="746px" zoomAndPan="magnify"><defs/><g><!--class Status--><g id="elem_Status"><rect codeLine="2" fill="#F1F1F1" height="113.1875" id="Status" rx="2.5" ry="2.5" style="stroke:#181818;stroke-width:0.5;" width="87.6113" x="282" y="387"/><ellipse cx="297" cy="403" fill="#EB937F" rx="11" ry="11" style="stroke:#181818;stroke-width:1;"/><path d="M301.1094,409 L293.3906,409 L293.3906,396.6094 L301.1094,396.6094 L301.1094,398.7656 L295.8438,398.7656 L295.8438,401.4375 L300.6094,401.4375 L300.6094,403.5938 L295.8438,403.5938 L295.8438,406.8438 L301.1094,406.8438 L301.1094,409 Z " fill="#000000"/><ellipse cx="316" cy="402.5" fill="#84BE84" rx="3" ry="3" style="stroke:#038048;stroke-width:1;"/><text fill="#000000" font-family="sans-serif" font-size="14" lengthAdjust="spacing" textLength="44.6113" x="322" y="407.8467">Status</text><line style="stroke:#181818;stroke-width:0.5;" x1="283" x2="368.6113" y1="419" y2="419"/><text fill="#000000" font-family="sans-serif" font-size="14" lengthAdjust="spacing" textLength="57.9961" x="288" y="435.9951">Running</text><text fill="#000000" font-family="sans-serif" font-size="14" lengthAdjust="spacing" textLength="60.8193" x="288" y="452.292">Disabled</text><text fill="#000000" font-family="sans-serif" font-size="14" lengthAdjust="spacing" textLength="41.9111" x="288" y="468.5889">Failed</text><text fill="#000000" font-family="sans-serif" font-size="14" lengthAdjust="spacing" textLength="58.2148" x="288" y="484.8857">Stopped</text><line style="stroke:#181818;stroke-width:0.5;" x1="283" x2="368.6113" y1="492.1875" y2="492.1875"/></g><!--class Error--><g id="elem_Error"><rect codeLine="9" fill="#F1F1F1" height="113.1875" id="Error" rx="2.5" ry="2.5" style="stroke:#181818;stroke-width:0.5;" width="116.9863" x="60.5" y="387"/><ellipse cx="93.1884" cy="403" fill="#EB937F" rx="11" ry="11" style="stroke:#181818;stroke-width:1;"/><path d="M97.2978,409 L89.5791,409 L89.5791,396.6094 L97.2978,396.6094 L97.2978,398.7656 L92.0322,398.7656 L92.0322,401.4375 L96.7978,401.4375 L96.7978,403.5938 L92.0322,403.5938 L92.0322,406.8438 L97.2978,406.8438 L97.2978,409 Z " fill="#000000"/><ellipse cx="116.1192" cy="402.5" fill="#84BE84" rx="3" ry="3" style="stroke:#038048;stroke-width:1;"/><text fill="#000000" font-family="sans-serif" font-size="14" lengthAdjust="spacing" textLength="34.6787" x="122.1192" y="407.8467">Error</text><line style="stroke:#181818;stroke-width:0.5;" x1="61.5" x2="176.4863" y1="419" y2="419"/><text fill="#000000" font-family="sans-serif" font-size="14" lengthAdjust="spacing" textLength="104.9863" x="66.5" y="435.9951">BadParameter,</text><text fill="#000000" font-family="sans-serif" font-size="14" lengthAdjust="spacing" textLength="83.8496" x="66.5" y="452.292">NotAllowed,</text><text fill="#000000" font-family="sans-serif" font-size="14" lengthAdjust="spacing" textLength="102.7168" x="66.5" y="468.5889">OutOfMemory,</text><text fill="#000000" font-family="sans-serif" font-size="14" lengthAdjust="spacing" textLength="58.7412" x="66.5" y="484.8857">Generic,</text><line style="stroke:#181818;stroke-width:0.5;" x1="61.5" x2="176.4863" y1="492.1875" y2="492.1875"/></g><!--class LogicMonitorState--><g id="elem_LogicMonitorState"><rect codeLine="16" fill="#F1F1F1" height="64.2969" id="LogicMonitorState" rx="2.5" ry="2.5" style="stroke:#181818;stroke-width:0.5;" width="302.4453" x="437" y="411.5"/><ellipse cx="514.9155" cy="427.5" fill="#ADD1B2" rx="11" ry="11" style="stroke:#181818;stroke-width:1;"/><path d="M517.8843,433.1406 Q517.3062,433.4375 516.6655,433.5781 Q516.0249,433.7344 515.3218,433.7344 Q512.8218,433.7344 511.4937,432.0938 Q510.1812,430.4375 510.1812,427.3125 Q510.1812,424.1875 511.4937,422.5313 Q512.8218,420.875 515.3218,420.875 Q516.0249,420.875 516.6655,421.0313 Q517.3218,421.1875 517.8843,421.4844 L517.8843,424.2031 Q517.2593,423.625 516.6655,423.3594 Q516.0718,423.0781 515.4468,423.0781 Q514.103,423.0781 513.4155,424.1563 Q512.728,425.2188 512.728,427.3125 Q512.728,429.4063 513.4155,430.4844 Q514.103,431.5469 515.4468,431.5469 Q516.0718,431.5469 516.6655,431.2813 Q517.2593,431 517.8843,430.4219 L517.8843,433.1406 Z " fill="#000000"/><ellipse cx="540.4155" cy="427" fill="#84BE84" rx="3" ry="3" style="stroke:#038048;stroke-width:1;"/><text fill="#000000" font-family="sans-serif" font-size="14" lengthAdjust="spacing" textLength="127.1143" x="546.4155" y="432.3467">LogicMonitorState</text><line style="stroke:#181818;stroke-width:0.5;" x1="438" x2="738.4453" y1="443.5" y2="443.5"/><line style="stroke:#181818;stroke-width:0.5;" x1="438" x2="738.4453" y1="451.5" y2="451.5"/><ellipse cx="448" cy="465.1484" fill="#84BE84" rx="3" ry="3" style="stroke:#038048;stroke-width:1;"/><text fill="#000000" font-family="sans-serif" font-size="14" lengthAdjust="spacing" textLength="276.4453" x="457" y="468.4951">new&lt;N: AsRef&lt;str&gt;&gt;(name: N) -&gt; Self</text></g><!--class LogicMonitorBuilder--><g id="elem_LogicMonitorBuilder"><rect codeLine="20" fill="#F1F1F1" height="96.8906" id="LogicMonitorBuilder" rx="2.5" ry="2.5" style="stroke:#181818;stroke-width:0.5;" width="637.7412" x="7" y="7"/><ellipse cx="246.3359" cy="23" fill="#ADD1B2" rx="11" ry="11" style="stroke:#181818;stroke-width:1;"/><path d="M249.3047,28.6406 Q248.7266,28.9375 248.0859,29.0781 Q247.4453,29.2344 246.7422,29.2344 Q244.2422,29.2344 242.9141,27.5938 Q241.6016,25.9375 241.6016,22.8125 Q241.6016,19.6875 242.9141,18.0313 Q244.2422,16.375 246.7422,16.375 Q247.4453,16.375 248.0859,16.5313 Q248.7422,16.6875 249.3047,16.9844 L249.3047,19.7031 Q248.6797,19.125 248.0859,18.8594 Q247.4922,18.5781 246.8672,18.5781 Q245.5234,18.5781 244.8359,19.6563 Q244.1484,20.7188 244.1484,22.8125 Q244.1484,24.9063 244.8359,25.9844 Q245.5234,27.0469 246.8672,27.0469 Q247.4922,27.0469 248.0859,26.7813 Q248.6797,26.5 249.3047,25.9219 L249.3047,28.6406 Z " fill="#000000"/><ellipse cx="271.8359" cy="22.5" fill="#84BE84" rx="3" ry="3" style="stroke:#038048;stroke-width:1;"/><text fill="#000000" font-family="sans-serif" font-size="14" lengthAdjust="spacing" textLength="139.5693" x="277.8359" y="27.8467">LogicMonitorBuilder</text><line style="stroke:#181818;stroke-width:0.5;" x1="8" x2="643.7412" y1="39" y2="39"/><line style="stroke:#181818;stroke-width:0.5;" x1="8" x2="643.7412" y1="47" y2="47"/><ellipse cx="18" cy="60.6484" fill="#84BE84" rx="3" ry="3" style="stroke:#038048;stroke-width:1;"/><text fill="#000000" font-family="sans-serif" font-size="14" lengthAdjust="spacing" textLength="309.1074" x="27" y="63.9951">new(initial_state: LogicMonitorState) -&gt; Self</text><ellipse cx="18" cy="76.9453" fill="#84BE84" rx="3" ry="3" style="stroke:#038048;stroke-width:1;"/><text fill="#000000" font-family="sans-serif" font-size="14" lengthAdjust="spacing" textLength="611.7412" x="27" y="80.292">add_transition(&amp;mut self, from: LogicMonitorState, to: LogicMonitorState) -&gt; &amp;mut Self</text><ellipse cx="18" cy="93.2422" fill="#84BE84" rx="3" ry="3" style="stroke:#038048;stroke-width:1;"/><text fill="#000000" font-family="sans-serif" font-size="14" lengthAdjust="spacing" textLength="296.7412" x="27" y="96.5889">build(self) -&gt; Result&lt;LogicMonitor, Error&gt;</text></g><!--class LogicMonitor--><g id="elem_LogicMonitor"><rect codeLine="26" fill="#F1F1F1" height="129.4844" id="LogicMonitor" rx="2.5" ry="2.5" style="stroke:#181818;stroke-width:0.5;" width="446.0342" x="103" y="181"/><ellipse cx="271.2388" cy="197" fill="#ADD1B2" rx="11" ry="11" style="stroke:#181818;stroke-width:1;"/><path d="M274.2075,202.6406 Q273.6294,202.9375 272.9888,203.0781 Q272.3481,203.2344 271.645,203.2344 Q269.145,203.2344 267.8169,201.5938 Q266.5044,199.9375 266.5044,196.8125 Q266.5044,193.6875 267.8169,192.0313 Q269.145,190.375 271.645,190.375 Q272.3481,190.375 272.9888,190.5313 Q273.645,190.6875 274.2075,190.9844 L274.2075,193.7031 Q273.5825,193.125 272.9888,192.8594 Q272.395,192.5781 271.77,192.5781 Q270.4263,192.5781 269.7388,193.6563 Q269.0513,194.7188 269.0513,196.8125 Q269.0513,198.9063 269.7388,199.9844 Q270.4263,201.0469 271.77,201.0469 Q272.395,201.0469 272.9888,200.7813 Q273.5825,200.5 274.2075,199.9219 L274.2075,202.6406 Z " fill="#000000"/><ellipse cx="296.7388" cy="196.5" fill="#84BE84" rx="3" ry="3" style="stroke:#038048;stroke-width:1;"/><text fill="#000000" font-family="sans-serif" font-size="14" lengthAdjust="spacing" textLength="90.0566" x="302.7388" y="201.8467">LogicMonitor</text><line style="stroke:#181818;stroke-width:0.5;" x1="104" x2="548.0342" y1="213" y2="213"/><line style="stroke:#181818;stroke-width:0.5;" x1="104" x2="548.0342" y1="221" y2="221"/><ellipse cx="114" cy="234.6484" fill="#84BE84" rx="3" ry="3" style="stroke:#038048;stroke-width:1;"/><text fill="#000000" font-family="sans-serif" font-size="14" lengthAdjust="spacing" textLength="420.0342" x="123" y="237.9951">transition(&amp;self, to: LogicMonitorState) -&gt; Result&lt;(), Error&gt;</text><ellipse cx="114" cy="250.9453" fill="#84BE84" rx="3" ry="3" style="stroke:#038048;stroke-width:1;"/><text fill="#000000" font-family="sans-serif" font-size="14" lengthAdjust="spacing" textLength="241.5547" x="123" y="254.292">enable(&amp;self) -&gt; Result&lt;(), Error&gt;</text><ellipse cx="114" cy="267.2422" fill="#84BE84" rx="3" ry="3" style="stroke:#038048;stroke-width:1;"/><text fill="#000000" font-family="sans-serif" font-size="14" lengthAdjust="spacing" textLength="244.1387" x="123" y="270.5889">disable(&amp;self) -&gt; Result&lt;(), Error&gt;</text><ellipse cx="114" cy="283.5391" fill="#84BE84" rx="3" ry="3" style="stroke:#038048;stroke-width:1;"/><text fill="#000000" font-family="sans-serif" font-size="14" lengthAdjust="spacing" textLength="159.8789" x="123" y="286.8857">status(&amp;self) -&gt; Status</text><ellipse cx="114" cy="299.8359" fill="#84BE84" rx="3" ry="3" style="stroke:#038048;stroke-width:1;"/><text fill="#000000" font-family="sans-serif" font-size="14" lengthAdjust="spacing" textLength="234.8281" x="123" y="303.1826">state(&amp;self) -&gt; LogicMonitorState</text></g><!--link LogicMonitorBuilder to Error--><g id="link_LogicMonitorBuilder_Error"><path codeLine="34" d="M173.05,104.16 C138.2,122.49 105.45,147.41 85,181 C46.72,243.86 67.6792,325.3142 90.2492,381.3742 " fill="transparent" id="LogicMonitorBuilder-to-Error" style="stroke:#181818;stroke-width:1;stroke-dasharray:7.0,7.0;"/><polygon fill="#181818" points="92.49,386.94,92.8393,377.0973,90.6226,382.3018,85.4182,380.0851,92.49,386.94" style="stroke:#181818;stroke-width:1;"/></g><!--reverse link LogicMonitorBuilder to LogicMonitorState--><g id="link_LogicMonitorBuilder_LogicMonitorState"><path codeLine="35" d="M484.2906,109.5293 C520.0306,127.9993 543.67,147.51 566,181 C613.27,251.88 603.22,358.74 594.37,411.2 " fill="transparent" id="LogicMonitorBuilder-backto-LogicMonitorState" style="stroke:#181818;stroke-width:1;"/><polygon fill="#181818" points="473.63,104.02,477.1239,110.3282,484.2906,109.5293,480.7967,103.2211,473.63,104.02" style="stroke:#181818;stroke-width:1;"/><text fill="#000000" font-family="sans-serif" font-size="13" lengthAdjust="spacing" textLength="33.5981" x="602" y="250.0669">owns</text><text fill="#000000" font-family="sans-serif" font-size="13" lengthAdjust="spacing" textLength="23.0356" x="570.3197" y="400.4151">1..*</text></g><!--link LogicMonitorBuilder to LogicMonitor--><g id="link_LogicMonitorBuilder_LogicMonitor"><path codeLine="36" d="M326,104.43 C326,127.6 326,149.73 326,174.69 " fill="transparent" id="LogicMonitorBuilder-to-LogicMonitor" style="stroke:#181818;stroke-width:1;stroke-dasharray:7.0,7.0;"/><polygon fill="#181818" points="326,180.69,330,171.69,326,175.69,322,171.69,326,180.69" style="stroke:#181818;stroke-width:1;"/><text fill="#000000" font-family="sans-serif" font-size="13" lengthAdjust="spacing" textLength="81.6943" x="327" y="147.0669">&#171;consumes&#187;</text></g><!--reverse link LogicMonitor to Status--><g id="link_LogicMonitor_Status"><path codeLine="37" d="M326,322.14 C326,346.84 326,362.88 326,386.77 " fill="transparent" id="LogicMonitor-backto-Status" style="stroke:#181818;stroke-width:1;"/><polygon fill="#181818" points="326,310.14,322,316.14,326,322.14,330,316.14,326,310.14" style="stroke:#181818;stroke-width:1;"/><text fill="#000000" font-family="sans-serif" font-size="13" lengthAdjust="spacing" textLength="33.5981" x="327" y="353.0669">owns</text></g><!--reverse link LogicMonitor to LogicMonitorState--><g id="link_LogicMonitor_LogicMonitorState"><path codeLine="38" d="M420.6702,317.3264 C465.9502,351.1864 509.99,384.14 546.25,411.27 " fill="transparent" id="LogicMonitor-backto-LogicMonitorState" style="stroke:#181818;stroke-width:1;"/><polygon fill="#181818" points="411.06,310.14,413.4696,316.9366,420.6702,317.3264,418.2606,310.5298,411.06,310.14" style="stroke:#181818;stroke-width:1;"/><text fill="#000000" font-family="sans-serif" font-size="13" lengthAdjust="spacing" textLength="33.5981" x="473" y="353.0669">owns</text><text fill="#000000" font-family="sans-serif" font-size="13" lengthAdjust="spacing" textLength="23.0356" x="512.7261" y="400.4989">1..*</text></g><!--link LogicMonitor to Error--><g id="link_LogicMonitor_Error"><path codeLine="39" d="M258.79,310.14 C232.59,334.95 207.1764,359.0043 181.8764,382.9643 " fill="transparent" id="LogicMonitor-to-Error" style="stroke:#181818;stroke-width:1;stroke-dasharray:7.0,7.0;"/><polygon fill="#181818" points="177.52,387.09,186.8051,383.8057,181.1504,383.6519,181.3042,377.9972,177.52,387.09" style="stroke:#181818;stroke-width:1;"/></g><!--SRC=[bPFVQi8m5CRlVOhWnQZQ5dPRIa3PdvkfGnz0OdCgWJIHd0GPO- - -DgbhnNPZlJh9oVSxtqbE5w1SHVQMMOVaSqBgR-UK4khauoU1x2Y1-yKB4zTmR_NvNCTVayd24vwDqQO5h1X_PuPLOC74VcUZxL9AVG4Urbjdj-KQAcq-miOhA32YY3sma0oHlEcJADPQ2QjDumzQ-aB19TzaP8axA7EqXj98rSKoifcHX98zo784it92SZ0zK2JgX63oW4s5xBveX_GInld16gQmLcaLFLJE4gopCIcDhWRqCR5w3ElL7VlOk8iQci_k09sqULyQXskc8-rT- -eR3ER6FRHLejaFsoD0DSyUvB-Tus4-_Zw8Vi9wvyB8TSa-uyvgq_3GGwOf3LK6i_Ca8TF7D9rF1uOf8_gYS9HwSwyPoVD2AtGL8AKt6b-a_Nq6aF_sqBNq3G00]--></g></svg>