<svg xmlns="http://www.w3.org/2000/svg" xmlns:xlink="http://www.w3.org/1999/xlink" contentStyleType="text/css" data-diagram-type="SEQUENCE" height="1771px" preserveAspectRatio="none" style="width:969px;height:1771px;background:#FFFFFF;" version="1.1" viewBox="0 0 969 1771" width="969px" zoomAndPan="magnify"><defs/><g><rect fill="transparent" height="1417.125" style="stroke:#000000;stroke-width:1.5;" width="952.4634" x="10" y="256.9609"/><g><title>User</title><rect fill="transparent" height="1609.7891" width="8" x="34.9551" y="81.2969"/><line style="stroke:#181818;stroke-width:0.5;stroke-dasharray:5.0,5.0;" x1="38" x2="38" y1="81.2969" y2="1691.0859"/></g><g><title>DeadlineMonitor</title><rect fill="transparent" height="1609.7891" width="8" x="175.8472" y="81.2969"/><line style="stroke:#181818;stroke-width:0.5;stroke-dasharray:5.0,5.0;" x1="179.1758" x2="179.1758" y1="81.2969" y2="1691.0859"/></g><g><title>Deadline</title><rect fill="transparent" height="1609.7891" width="8" x="318.0825" y="81.2969"/><line style="stroke:#181818;stroke-width:0.5;stroke-dasharray:5.0,5.0;" x1="322.02" x2="322.02" y1="81.2969" y2="1691.0859"/></g><g><title>HealthMonitor</title><rect fill="transparent" height="1609.7891" width="8" x="422.7397" y="81.2969"/><line style="stroke:#181818;stroke-width:0.5;stroke-dasharray:5.0,5.0;" x1="426.145" x2="426.145" y1="81.2969" y2="1691.0859"/></g><g><title>LaunchManager</title><rect fill="transparent" height="1609.7891" width="8" x="590.8125" y="81.2969"/><line style="stroke:#181818;stroke-width:0.5;stroke-dasharray:5.0,5.0;" x1="594.7817" x2="594.7817" y1="81.2969" y2="1691.0859"/></g><text fill="#000000" font-family="sans-serif" font-size="14" lengthAdjust="spacing" textLength="31.9102" x="20" y="77.9951">User</text><ellipse cx="38.9551" cy="13.5" fill="#E2E2F0" rx="8" ry="8" style="stroke:#181818;stroke-width:0.5;"/><path d="M38.9551,21.5 L38.9551,48.5 M25.9551,29.5 L51.9551,29.5 M38.9551,48.5 L25.9551,63.5 M38.9551,48.5 L51.9551,63.5 " fill="transparent" style="stroke:#181818;stroke-width:0.5;"/><text fill="#000000" font-family="sans-serif" font-size="14" lengthAdjust="spacing" textLength="31.9102" x="20" y="1703.0811">User</text><ellipse cx="38.9551" cy="1714.8828" fill="#E2E2F0" rx="8" ry="8" style="stroke:#181818;stroke-width:0.5;"/><path d="M38.9551,1722.8828 L38.9551,1749.8828 M25.9551,1730.8828 L51.9551,1730.8828 M38.9551,1749.8828 L25.9551,1764.8828 M38.9551,1749.8828 L51.9551,1764.8828 " fill="transparent" style="stroke:#181818;stroke-width:0.5;"/><rect fill="#E2E2F0" height="30.2969" rx="2.5" ry="2.5" style="stroke:#181818;stroke-width:0.5;" width="129.3428" x="115.1758" y="50"/><text fill="#000000" font-family="sans-serif" font-size="14" lengthAdjust="spacing" textLength="115.3428" x="122.1758" y="69.9951">DeadlineMonitor</text><rect fill="#E2E2F0" height="30.2969" rx="2.5" ry="2.5" style="stroke:#181818;stroke-width:0.5;" width="129.3428" x="115.1758" y="1690.0859"/><text fill="#000000" font-family="sans-serif" font-size="14" lengthAdjust="spacing" textLength="115.3428" x="122.1758" y="1710.0811">DeadlineMonitor</text><rect fill="#E2E2F0" height="30.2969" rx="2.5" ry="2.5" style="stroke:#181818;stroke-width:0.5;" width="76.125" x="284.02" y="50"/><text fill="#000000" font-family="sans-serif" font-size="14" lengthAdjust="spacing" textLength="62.125" x="291.02" y="69.9951">Deadline</text><rect fill="#E2E2F0" height="30.2969" rx="2.5" ry="2.5" style="stroke:#181818;stroke-width:0.5;" width="76.125" x="284.02" y="1690.0859"/><text fill="#000000" font-family="sans-serif" font-size="14" lengthAdjust="spacing" textLength="62.125" x="291.02" y="1710.0811">Deadline</text><rect fill="#E2E2F0" height="30.2969" rx="2.5" ry="2.5" style="stroke:#181818;stroke-width:0.5;" width="113.1895" x="370.145" y="50"/><text fill="#000000" font-family="sans-serif" font-size="14" lengthAdjust="spacing" textLength="99.1895" x="377.145" y="69.9951">HealthMonitor</text><rect fill="#E2E2F0" height="30.2969" rx="2.5" ry="2.5" style="stroke:#181818;stroke-width:0.5;" width="113.1895" x="370.145" y="1690.0859"/><text fill="#000000" font-family="sans-serif" font-size="14" lengthAdjust="spacing" textLength="99.1895" x="377.145" y="1710.0811">HealthMonitor</text><rect fill="#E2E2F0" height="30.2969" rx="2.5" ry="2.5" style="stroke:#181818;stroke-width:0.5;" width="126.0615" x="531.7817" y="50"/><text fill="#000000" font-family="sans-serif" font-size="14" lengthAdjust="spacing" textLength="112.0615" x="538.7817" y="69.9951">LaunchManager</text><rect fill="#E2E2F0" height="30.2969" rx="2.5" ry="2.5" style="stroke:#181818;stroke-width:0.5;" width="126.0615" x="531.7817" y="1690.0859"/><text fill="#000000" font-family="sans-serif" font-size="14" lengthAdjust="spacing" textLength="112.0615" x="538.7817" y="1710.0811">LaunchManager</text><polygon fill="#181818" points="414.7397,108.4297,424.7397,112.4297,414.7397,116.4297,418.7397,112.4297" style="stroke:#181818;stroke-width:1;"/><line style="stroke:#181818;stroke-width:1;" x1="38.9551" x2="420.7397" y1="112.4297" y2="112.4297"/><text fill="#000000" font-family="sans-serif" font-size="13" lengthAdjust="spacing" textLength="134.4053" x="45.9551" y="107.3638">Get DeadlineMonitor</text><polygon fill="#181818" points="49.9551,137.5625,39.9551,141.5625,49.9551,145.5625,45.9551,141.5625" style="stroke:#181818;stroke-width:1;"/><line style="stroke:#181818;stroke-width:1;stroke-dasharray:2.0,2.0;" x1="43.9551" x2="425.7397" y1="141.5625" y2="141.5625"/><text fill="#000000" font-family="sans-serif" font-size="13" lengthAdjust="spacing" textLength="166.3086" x="55.9551" y="136.4966">DeadlineMonitor instance</text><polygon fill="#181818" points="167.8472,166.6953,177.8472,170.6953,167.8472,174.6953,171.8472,170.6953" style="stroke:#181818;stroke-width:1;"/><line style="stroke:#181818;stroke-width:1;" x1="38.9551" x2="173.8472" y1="170.6953" y2="170.6953"/><text fill="#000000" font-family="sans-serif" font-size="13" lengthAdjust="spacing" textLength="105.3013" x="45.9551" y="165.6294">Create Deadline</text><line style="stroke:#181818;stroke-width:1;" x1="179.8472" x2="221.8472" y1="199.8281" y2="199.8281"/><line style="stroke:#181818;stroke-width:1;" x1="221.8472" x2="221.8472" y1="199.8281" y2="212.8281"/><line style="stroke:#181818;stroke-width:1;" x1="180.8472" x2="221.8472" y1="212.8281" y2="212.8281"/><polygon fill="#181818" points="190.8472,208.8281,180.8472,212.8281,190.8472,216.8281,186.8472,212.8281" style="stroke:#181818;stroke-width:1;"/><text fill="#000000" font-family="sans-serif" font-size="13" lengthAdjust="spacing" textLength="114.1689" x="186.8472" y="194.7622">Register deadline</text><polygon fill="#181818" points="49.9551,237.9609,39.9551,241.9609,49.9551,245.9609,45.9551,241.9609" style="stroke:#181818;stroke-width:1;"/><line style="stroke:#181818;stroke-width:1;stroke-dasharray:2.0,2.0;" x1="43.9551" x2="178.8472" y1="241.9609" y2="241.9609"/><text fill="#000000" font-family="sans-serif" font-size="13" lengthAdjust="spacing" textLength="116.8921" x="55.9551" y="236.895">Deadline instance</text><path d="M10,256.9609 L74.4429,256.9609 L74.4429,264.0938 L64.4429,274.0938 L10,274.0938 L10,256.9609 " fill="#EEEEEE" style="stroke:#000000;stroke-width:1.5;"/><rect fill="transparent" height="1417.125" style="stroke:#000000;stroke-width:1.5;" width="952.4634" x="10" y="256.9609"/><text fill="#000000" font-family="sans-serif" font-size="13" font-weight="bold" lengthAdjust="spacing" textLength="19.4429" x="25" y="270.0278">alt</text><text fill="#000000" font-family="sans-serif" font-size="11" font-weight="bold" lengthAdjust="spacing" textLength="230.7368" x="89.4429" y="269.1714">[Deadline stopped before expiration]</text><polygon fill="#181818" points="310.0825,291.2266,320.0825,295.2266,310.0825,299.2266,314.0825,295.2266" style="stroke:#181818;stroke-width:1;"/><line style="stroke:#181818;stroke-width:1;" x1="38.9551" x2="316.0825" y1="295.2266" y2="295.2266"/><text fill="#000000" font-family="sans-serif" font-size="13" lengthAdjust="spacing" textLength="31.7573" x="45.9551" y="290.1606">Start</text><polygon fill="#181818" points="49.9551,320.3594,39.9551,324.3594,49.9551,328.3594,45.9551,324.3594" style="stroke:#181818;stroke-width:1;"/><line style="stroke:#181818;stroke-width:1;stroke-dasharray:2.0,2.0;" x1="43.9551" x2="321.0825" y1="324.3594" y2="324.3594"/><text fill="#000000" font-family="sans-serif" font-size="13" lengthAdjust="spacing" textLength="17.7607" x="55.9551" y="319.2935">Ok</text><polygon fill="#181818" points="190.8472,352.4922,180.8472,356.4922,190.8472,360.4922,186.8472,356.4922" style="stroke:#181818;stroke-width:1;"/><line style="stroke:#181818;stroke-width:1;" x1="184.8472" x2="425.7397" y1="356.4922" y2="356.4922"/><text fill="#000000" font-family="sans-serif" font-size="13" lengthAdjust="spacing" textLength="106.8247" x="196.8472" y="351.4263">Check deadlines</text><path d="M431,337.3594 L431,362.3594 L763,362.3594 L763,347.3594 L753,337.3594 L431,337.3594 " fill="#FEFFDD" style="stroke:#181818;stroke-width:0.5;"/><path d="M753,337.3594 L753,347.3594 L763,347.3594 L753,337.3594 " fill="#FEFFDD" style="stroke:#181818;stroke-width:0.5;"/><text fill="#000000" font-family="sans-serif" font-size="13" lengthAdjust="spacing" textLength="311.4858" x="437" y="354.4263">HealthMonitor does this in a background thread</text><polygon fill="#181818" points="414.7397,384.625,424.7397,388.625,414.7397,392.625,418.7397,388.625" style="stroke:#181818;stroke-width:1;"/><line style="stroke:#181818;stroke-width:1;stroke-dasharray:2.0,2.0;" x1="179.8472" x2="420.7397" y1="388.625" y2="388.625"/><text fill="#000000" font-family="sans-serif" font-size="13" lengthAdjust="spacing" textLength="17.7607" x="186.8472" y="383.5591">Ok</text><polygon fill="#181818" points="582.8125,413.7578,592.8125,417.7578,582.8125,421.7578,586.8125,417.7578" style="stroke:#181818;stroke-width:1;"/><line style="stroke:#181818;stroke-width:1;stroke-dasharray:2.0,2.0;" x1="426.7397" x2="588.8125" y1="417.7578" y2="417.7578"/><text fill="#000000" font-family="sans-serif" font-size="13" lengthAdjust="spacing" textLength="144.0728" x="433.7397" y="412.6919">Alive notification (IPC)</text><polygon fill="#181818" points="310.0825,442.8906,320.0825,446.8906,310.0825,450.8906,314.0825,446.8906" style="stroke:#181818;stroke-width:1;"/><line style="stroke:#181818;stroke-width:1;" x1="38.9551" x2="316.0825" y1="446.8906" y2="446.8906"/><text fill="#000000" font-family="sans-serif" font-size="13" lengthAdjust="spacing" textLength="29.5547" x="45.9551" y="441.8247">Stop</text><polygon fill="#181818" points="49.9551,472.0234,39.9551,476.0234,49.9551,480.0234,45.9551,476.0234" style="stroke:#181818;stroke-width:1;"/><line style="stroke:#181818;stroke-width:1;stroke-dasharray:2.0,2.0;" x1="43.9551" x2="321.0825" y1="476.0234" y2="476.0234"/><text fill="#000000" font-family="sans-serif" font-size="13" lengthAdjust="spacing" textLength="17.7607" x="55.9551" y="470.9575">Ok</text><line style="stroke:#181818;stroke-width:1;" x1="179.8472" x2="221.8472" y1="505.1563" y2="505.1563"/><line style="stroke:#181818;stroke-width:1;" x1="221.8472" x2="221.8472" y1="505.1563" y2="518.1563"/><line style="stroke:#181818;stroke-width:1;" x1="180.8472" x2="221.8472" y1="518.1563" y2="518.1563"/><polygon fill="#181818" points="190.8472,514.1563,180.8472,518.1563,190.8472,522.1563,186.8472,518.1563" style="stroke:#181818;stroke-width:1;"/><text fill="#000000" font-family="sans-serif" font-size="13" lengthAdjust="spacing" textLength="128.2354" x="186.8472" y="500.0903">Unregister deadline</text><line style="stroke:#000000;stroke-width:1;stroke-dasharray:2.0,2.0;" x1="10" x2="962.4634" y1="527.1563" y2="527.1563"/><text fill="#000000" font-family="sans-serif" font-size="11" font-weight="bold" lengthAdjust="spacing" textLength="220.5264" x="15" y="537.3667">[Deadline stopped after expiration]</text><polygon fill="#181818" points="310.0825,558.0938,320.0825,562.0938,310.0825,566.0938,314.0825,562.0938" style="stroke:#181818;stroke-width:1;"/><line style="stroke:#181818;stroke-width:1;" x1="38.9551" x2="316.0825" y1="562.0938" y2="562.0938"/><text fill="#000000" font-family="sans-serif" font-size="13" lengthAdjust="spacing" textLength="31.7573" x="45.9551" y="557.0278">Start</text><polygon fill="#181818" points="49.9551,587.2266,39.9551,591.2266,49.9551,595.2266,45.9551,591.2266" style="stroke:#181818;stroke-width:1;"/><line style="stroke:#181818;stroke-width:1;stroke-dasharray:2.0,2.0;" x1="43.9551" x2="321.0825" y1="591.2266" y2="591.2266"/><text fill="#000000" font-family="sans-serif" font-size="13" lengthAdjust="spacing" textLength="17.7607" x="55.9551" y="586.1606">Ok</text><polygon fill="#181818" points="190.8472,619.3594,180.8472,623.3594,190.8472,627.3594,186.8472,623.3594" style="stroke:#181818;stroke-width:1;"/><line style="stroke:#181818;stroke-width:1;" x1="184.8472" x2="425.7397" y1="623.3594" y2="623.3594"/><text fill="#000000" font-family="sans-serif" font-size="13" lengthAdjust="spacing" textLength="106.8247" x="196.8472" y="618.2935">Check deadlines</text><path d="M431,604.2266 L431,629.2266 L763,629.2266 L763,614.2266 L753,604.2266 L431,604.2266 " fill="#FEFFDD" style="stroke:#181818;stroke-width:0.5;"/><path d="M753,604.2266 L753,614.2266 L763,614.2266 L753,604.2266 " fill="#FEFFDD" style="stroke:#181818;stroke-width:0.5;"/><text fill="#000000" font-family="sans-serif" font-size="13" lengthAdjust="spacing" textLength="311.4858" x="437" y="621.2935">HealthMonitor does this in a background thread</text><line style="stroke:#181818;stroke-width:1;" x1="179.8472" x2="221.8472" y1="655.4922" y2="655.4922"/><line style="stroke:#181818;stroke-width:1;" x1="221.8472" x2="221.8472" y1="655.4922" y2="668.4922"/><line style="stroke:#181818;stroke-width:1;" x1="180.8472" x2="221.8472" y1="668.4922" y2="668.4922"/><polygon fill="#181818" points="190.8472,664.4922,180.8472,668.4922,190.8472,672.4922,186.8472,668.4922" style="stroke:#181818;stroke-width:1;"/><text fill="#000000" font-family="sans-serif" font-size="13" lengthAdjust="spacing" textLength="110.9697" x="186.8472" y="650.4263">Deadline expired</text><polygon fill="#181818" points="414.7397,696.625,424.7397,700.625,414.7397,704.625,418.7397,700.625" style="stroke:#181818;stroke-width:1;"/><line style="stroke:#181818;stroke-width:1;stroke-dasharray:2.0,2.0;" x1="179.8472" x2="420.7397" y1="700.625" y2="700.625"/><text fill="#000000" font-family="sans-serif" font-size="13" lengthAdjust="spacing" textLength="38.9175" x="186.8472" y="695.5591">Failed</text><path d="M431,681.4922 L431,706.4922 L633,706.4922 L633,691.4922 L623,681.4922 L431,681.4922 " fill="#FEFFDD" style="stroke:#181818;stroke-width:0.5;"/><path d="M623,681.4922 L623,691.4922 L633,691.4922 L623,681.4922 " fill="#FEFFDD" style="stroke:#181818;stroke-width:0.5;"/><text fill="#000000" font-family="sans-serif" font-size="13" lengthAdjust="spacing" textLength="181.2256" x="437" y="698.5591">Alive notification is not sent</text><polygon fill="#181818" points="310.0825,728.7578,320.0825,732.7578,310.0825,736.7578,314.0825,732.7578" style="stroke:#181818;stroke-width:1;"/><line style="stroke:#181818;stroke-width:1;" x1="38.9551" x2="316.0825" y1="732.7578" y2="732.7578"/><text fill="#000000" font-family="sans-serif" font-size="13" lengthAdjust="spacing" textLength="29.5547" x="45.9551" y="727.6919">Stop</text><polygon fill="#181818" points="49.9551,757.8906,39.9551,761.8906,49.9551,765.8906,45.9551,761.8906" style="stroke:#181818;stroke-width:1;"/><line style="stroke:#181818;stroke-width:1;stroke-dasharray:2.0,2.0;" x1="43.9551" x2="321.0825" y1="761.8906" y2="761.8906"/><text fill="#000000" font-family="sans-serif" font-size="13" lengthAdjust="spacing" textLength="32.2017" x="55.9551" y="756.8247">Error</text><line style="stroke:#181818;stroke-width:1;" x1="179.8472" x2="221.8472" y1="791.0234" y2="791.0234"/><line style="stroke:#181818;stroke-width:1;" x1="221.8472" x2="221.8472" y1="791.0234" y2="804.0234"/><line style="stroke:#181818;stroke-width:1;" x1="180.8472" x2="221.8472" y1="804.0234" y2="804.0234"/><polygon fill="#181818" points="190.8472,800.0234,180.8472,804.0234,190.8472,808.0234,186.8472,804.0234" style="stroke:#181818;stroke-width:1;"/><text fill="#000000" font-family="sans-serif" font-size="13" lengthAdjust="spacing" textLength="128.2354" x="186.8472" y="785.9575">Unregister deadline</text><line style="stroke:#000000;stroke-width:1;stroke-dasharray:2.0,2.0;" x1="10" x2="962.4634" y1="813.0234" y2="813.0234"/><text fill="#000000" font-family="sans-serif" font-size="11" font-weight="bold" lengthAdjust="spacing" textLength="212.2979" x="15" y="823.2339">[Deadline stopped while disabled]</text><polygon fill="#181818" points="310.0825,843.9609,320.0825,847.9609,310.0825,851.9609,314.0825,847.9609" style="stroke:#181818;stroke-width:1;"/><line style="stroke:#181818;stroke-width:1;" x1="38.9551" x2="316.0825" y1="847.9609" y2="847.9609"/><text fill="#000000" font-family="sans-serif" font-size="13" lengthAdjust="spacing" textLength="31.7573" x="45.9551" y="842.895">Start</text><polygon fill="#181818" points="49.9551,873.0938,39.9551,877.0938,49.9551,881.0938,45.9551,877.0938" style="stroke:#181818;stroke-width:1;"/><line style="stroke:#181818;stroke-width:1;stroke-dasharray:2.0,2.0;" x1="43.9551" x2="321.0825" y1="877.0938" y2="877.0938"/><text fill="#000000" font-family="sans-serif" font-size="13" lengthAdjust="spacing" textLength="17.7607" x="55.9551" y="872.0278">Ok</text><polygon fill="#181818" points="167.8472,902.2266,177.8472,906.2266,167.8472,910.2266,171.8472,906.2266" style="stroke:#181818;stroke-width:1;"/><line style="stroke:#181818;stroke-width:1;" x1="38.9551" x2="173.8472" y1="906.2266" y2="906.2266"/><text fill="#000000" font-family="sans-serif" font-size="13" lengthAdjust="spacing" textLength="48.2231" x="45.9551" y="901.1606">Disable</text><polygon fill="#181818" points="49.9551,931.3594,39.9551,935.3594,49.9551,939.3594,45.9551,935.3594" style="stroke:#181818;stroke-width:1;"/><line style="stroke:#181818;stroke-width:1;stroke-dasharray:2.0,2.0;" x1="43.9551" x2="178.8472" y1="935.3594" y2="935.3594"/><text fill="#000000" font-family="sans-serif" font-size="13" lengthAdjust="spacing" textLength="17.7607" x="55.9551" y="930.2935">Ok</text><polygon fill="#181818" points="190.8472,963.4922,180.8472,967.4922,190.8472,971.4922,186.8472,967.4922" style="stroke:#181818;stroke-width:1;"/><line style="stroke:#181818;stroke-width:1;" x1="184.8472" x2="425.7397" y1="967.4922" y2="967.4922"/><text fill="#000000" font-family="sans-serif" font-size="13" lengthAdjust="spacing" textLength="106.8247" x="196.8472" y="962.4263">Check deadlines</text><path d="M431,948.3594 L431,973.3594 L763,973.3594 L763,958.3594 L753,948.3594 L431,948.3594 " fill="#FEFFDD" style="stroke:#181818;stroke-width:0.5;"/><path d="M753,948.3594 L753,958.3594 L763,958.3594 L753,948.3594 " fill="#FEFFDD" style="stroke:#181818;stroke-width:0.5;"/><text fill="#000000" font-family="sans-serif" font-size="13" lengthAdjust="spacing" textLength="311.4858" x="437" y="965.4263">HealthMonitor does this in a background thread</text><polygon fill="#181818" points="414.7397,998.625,424.7397,1002.625,414.7397,1006.625,418.7397,1002.625" style="stroke:#181818;stroke-width:1;"/><line style="stroke:#181818;stroke-width:1;stroke-dasharray:2.0,2.0;" x1="179.8472" x2="420.7397" y1="1002.625" y2="1002.625"/><text fill="#000000" font-family="sans-serif" font-size="13" lengthAdjust="spacing" textLength="17.7607" x="186.8472" y="997.5591">Ok</text><path d="M431,983.4922 L431,1008.4922 L946,1008.4922 L946,993.4922 L936,983.4922 L431,983.4922 " fill="#FEFFDD" style="stroke:#181818;stroke-width:0.5;"/><path d="M936,983.4922 L936,993.4922 L946,993.4922 L936,983.4922 " fill="#FEFFDD" style="stroke:#181818;stroke-width:0.5;"/><text fill="#000000" font-family="sans-serif" font-size="13" lengthAdjust="spacing" textLength="494.7236" x="437" y="1000.5591">The DeadlineMonitor is disabled, the deadlines are paused and not checked</text><polygon fill="#181818" points="582.8125,1030.7578,592.8125,1034.7578,582.8125,1038.7578,586.8125,1034.7578" style="stroke:#181818;stroke-width:1;"/><line style="stroke:#181818;stroke-width:1;stroke-dasharray:2.0,2.0;" x1="426.7397" x2="588.8125" y1="1034.7578" y2="1034.7578"/><text fill="#000000" font-family="sans-serif" font-size="13" lengthAdjust="spacing" textLength="144.0728" x="433.7397" y="1029.6919">Alive notification (IPC)</text><polygon fill="#181818" points="310.0825,1059.8906,320.0825,1063.8906,310.0825,1067.8906,314.0825,1063.8906" style="stroke:#181818;stroke-width:1;"/><line style="stroke:#181818;stroke-width:1;" x1="38.9551" x2="316.0825" y1="1063.8906" y2="1063.8906"/><text fill="#000000" font-family="sans-serif" font-size="13" lengthAdjust="spacing" textLength="29.5547" x="45.9551" y="1058.8247">Stop</text><polygon fill="#181818" points="49.9551,1089.0234,39.9551,1093.0234,49.9551,1097.0234,45.9551,1093.0234" style="stroke:#181818;stroke-width:1;"/><line style="stroke:#181818;stroke-width:1;stroke-dasharray:2.0,2.0;" x1="43.9551" x2="321.0825" y1="1093.0234" y2="1093.0234"/><text fill="#000000" font-family="sans-serif" font-size="13" lengthAdjust="spacing" textLength="17.7607" x="55.9551" y="1087.9575">Ok</text><line style="stroke:#181818;stroke-width:1;" x1="179.8472" x2="221.8472" y1="1122.1563" y2="1122.1563"/><line style="stroke:#181818;stroke-width:1;" x1="221.8472" x2="221.8472" y1="1122.1563" y2="1135.1563"/><line style="stroke:#181818;stroke-width:1;" x1="180.8472" x2="221.8472" y1="1135.1563" y2="1135.1563"/><polygon fill="#181818" points="190.8472,1131.1563,180.8472,1135.1563,190.8472,1139.1563,186.8472,1135.1563" style="stroke:#181818;stroke-width:1;"/><text fill="#000000" font-family="sans-serif" font-size="13" lengthAdjust="spacing" textLength="128.2354" x="186.8472" y="1117.0903">Unregister deadline</text><polygon fill="#181818" points="167.8472,1160.2891,177.8472,1164.2891,167.8472,1168.2891,171.8472,1164.2891" style="stroke:#181818;stroke-width:1;"/><line style="stroke:#181818;stroke-width:1;" x1="38.9551" x2="173.8472" y1="1164.2891" y2="1164.2891"/><text fill="#000000" font-family="sans-serif" font-size="13" lengthAdjust="spacing" textLength="44.2813" x="45.9551" y="1159.2231">Enable</text><polygon fill="#181818" points="49.9551,1189.4219,39.9551,1193.4219,49.9551,1197.4219,45.9551,1193.4219" style="stroke:#181818;stroke-width:1;"/><line style="stroke:#181818;stroke-width:1;stroke-dasharray:2.0,2.0;" x1="43.9551" x2="178.8472" y1="1193.4219" y2="1193.4219"/><text fill="#000000" font-family="sans-serif" font-size="13" lengthAdjust="spacing" textLength="17.7607" x="55.9551" y="1188.356">Ok</text><line style="stroke:#000000;stroke-width:1;stroke-dasharray:2.0,2.0;" x1="10" x2="962.4634" y1="1202.4219" y2="1202.4219"/><text fill="#000000" font-family="sans-serif" font-size="11" font-weight="bold" lengthAdjust="spacing" textLength="203.269" x="15" y="1212.6323">[Deadline expired after enabled]</text><polygon fill="#181818" points="310.0825,1233.3594,320.0825,1237.3594,310.0825,1241.3594,314.0825,1237.3594" style="stroke:#181818;stroke-width:1;"/><line style="stroke:#181818;stroke-width:1;" x1="38.9551" x2="316.0825" y1="1237.3594" y2="1237.3594"/><text fill="#000000" font-family="sans-serif" font-size="13" lengthAdjust="spacing" textLength="31.7573" x="45.9551" y="1232.2935">Start</text><polygon fill="#181818" points="49.9551,1262.4922,39.9551,1266.4922,49.9551,1270.4922,45.9551,1266.4922" style="stroke:#181818;stroke-width:1;"/><line style="stroke:#181818;stroke-width:1;stroke-dasharray:2.0,2.0;" x1="43.9551" x2="321.0825" y1="1266.4922" y2="1266.4922"/><text fill="#000000" font-family="sans-serif" font-size="13" lengthAdjust="spacing" textLength="17.7607" x="55.9551" y="1261.4263">Ok</text><polygon fill="#181818" points="167.8472,1291.625,177.8472,1295.625,167.8472,1299.625,171.8472,1295.625" style="stroke:#181818;stroke-width:1;"/><line style="stroke:#181818;stroke-width:1;" x1="38.9551" x2="173.8472" y1="1295.625" y2="1295.625"/><text fill="#000000" font-family="sans-serif" font-size="13" lengthAdjust="spacing" textLength="48.2231" x="45.9551" y="1290.5591">Disable</text><polygon fill="#181818" points="49.9551,1320.7578,39.9551,1324.7578,49.9551,1328.7578,45.9551,1324.7578" style="stroke:#181818;stroke-width:1;"/><line style="stroke:#181818;stroke-width:1;stroke-dasharray:2.0,2.0;" x1="43.9551" x2="178.8472" y1="1324.7578" y2="1324.7578"/><text fill="#000000" font-family="sans-serif" font-size="13" lengthAdjust="spacing" textLength="17.7607" x="55.9551" y="1319.6919">Ok</text><polygon fill="#181818" points="190.8472,1352.8906,180.8472,1356.8906,190.8472,1360.8906,186.8472,1356.8906" style="stroke:#181818;stroke-width:1;"/><line style="stroke:#181818;stroke-width:1;" x1="184.8472" x2="425.7397" y1="1356.8906" y2="1356.8906"/><text fill="#000000" font-family="sans-serif" font-size="13" lengthAdjust="spacing" textLength="106.8247" x="196.8472" y="1351.8247">Check deadlines</text><path d="M431,1337.7578 L431,1362.7578 L763,1362.7578 L763,1347.7578 L753,1337.7578 L431,1337.7578 " fill="#FEFFDD" style="stroke:#181818;stroke-width:0.5;"/><path d="M753,1337.7578 L753,1347.7578 L763,1347.7578 L753,1337.7578 " fill="#FEFFDD" style="stroke:#181818;stroke-width:0.5;"/><text fill="#000000" font-family="sans-serif" font-size="13" lengthAdjust="spacing" textLength="311.4858" x="437" y="1354.8247">HealthMonitor does this in a background thread</text><polygon fill="#181818" points="414.7397,1388.0234,424.7397,1392.0234,414.7397,1396.0234,418.7397,1392.0234" style="stroke:#181818;stroke-width:1;"/><line style="stroke:#181818;stroke-width:1;stroke-dasharray:2.0,2.0;" x1="179.8472" x2="420.7397" y1="1392.0234" y2="1392.0234"/><text fill="#000000" font-family="sans-serif" font-size="13" lengthAdjust="spacing" textLength="17.7607" x="186.8472" y="1386.9575">Ok</text><path d="M431,1372.8906 L431,1397.8906 L946,1397.8906 L946,1382.8906 L936,1372.8906 L431,1372.8906 " fill="#FEFFDD" style="stroke:#181818;stroke-width:0.5;"/><path d="M936,1372.8906 L936,1382.8906 L946,1382.8906 L936,1372.8906 " fill="#FEFFDD" style="stroke:#181818;stroke-width:0.5;"/><text fill="#000000" font-family="sans-serif" font-size="13" lengthAdjust="spacing" textLength="494.7236" x="437" y="1389.9575">The DeadlineMonitor is disabled, the deadlines are paused and not checked</text><polygon fill="#181818" points="167.8472,1420.1563,177.8472,1424.1563,167.8472,1428.1563,171.8472,1424.1563" style="stroke:#181818;stroke-width:1;"/><line style="stroke:#181818;stroke-width:1;" x1="38.9551" x2="173.8472" y1="1424.1563" y2="1424.1563"/><text fill="#000000" font-family="sans-serif" font-size="13" lengthAdjust="spacing" textLength="44.2813" x="45.9551" y="1419.0903">Enable</text><polygon fill="#181818" points="49.9551,1449.2891,39.9551,1453.2891,49.9551,1457.2891,45.9551,1453.2891" style="stroke:#181818;stroke-width:1;"/><line style="stroke:#181818;stroke-width:1;stroke-dasharray:2.0,2.0;" x1="43.9551" x2="178.8472" y1="1453.2891" y2="1453.2891"/><text fill="#000000" font-family="sans-serif" font-size="13" lengthAdjust="spacing" textLength="17.7607" x="55.9551" y="1448.2231">Ok</text><polygon fill="#181818" points="190.8472,1481.4219,180.8472,1485.4219,190.8472,1489.4219,186.8472,1485.4219" style="stroke:#181818;stroke-width:1;"/><line style="stroke:#181818;stroke-width:1;" x1="184.8472" x2="425.7397" y1="1485.4219" y2="1485.4219"/><text fill="#000000" font-family="sans-serif" font-size="13" lengthAdjust="spacing" textLength="106.8247" x="196.8472" y="1480.356">Check deadlines</text><path d="M431,1466.2891 L431,1491.2891 L763,1491.2891 L763,1476.2891 L753,1466.2891 L431,1466.2891 " fill="#FEFFDD" style="stroke:#181818;stroke-width:0.5;"/><path d="M753,1466.2891 L753,1476.2891 L763,1476.2891 L753,1466.2891 " fill="#FEFFDD" style="stroke:#181818;stroke-width:0.5;"/><text fill="#000000" font-family="sans-serif" font-size="13" lengthAdjust="spacing" textLength="311.4858" x="437" y="1483.356">HealthMonitor does this in a background thread</text><line style="stroke:#181818;stroke-width:1;" x1="179.8472" x2="221.8472" y1="1517.5547" y2="1517.5547"/><line style="stroke:#181818;stroke-width:1;" x1="221.8472" x2="221.8472" y1="1517.5547" y2="1530.5547"/><line style="stroke:#181818;stroke-width:1;" x1="180.8472" x2="221.8472" y1="1530.5547" y2="1530.5547"/><polygon fill="#181818" points="190.8472,1526.5547,180.8472,1530.5547,190.8472,1534.5547,186.8472,1530.5547" style="stroke:#181818;stroke-width:1;"/><text fill="#000000" font-family="sans-serif" font-size="13" lengthAdjust="spacing" textLength="110.9697" x="186.8472" y="1512.4888">Deadline expired</text><polygon fill="#181818" points="414.7397,1558.6875,424.7397,1562.6875,414.7397,1566.6875,418.7397,1562.6875" style="stroke:#181818;stroke-width:1;"/><line style="stroke:#181818;stroke-width:1;stroke-dasharray:2.0,2.0;" x1="179.8472" x2="420.7397" y1="1562.6875" y2="1562.6875"/><text fill="#000000" font-family="sans-serif" font-size="13" lengthAdjust="spacing" textLength="38.9175" x="186.8472" y="1557.6216">Failed</text><path d="M431,1543.5547 L431,1568.5547 L633,1568.5547 L633,1553.5547 L623,1543.5547 L431,1543.5547 " fill="#FEFFDD" style="stroke:#181818;stroke-width:0.5;"/><path d="M623,1543.5547 L623,1553.5547 L633,1553.5547 L623,1543.5547 " fill="#FEFFDD" style="stroke:#181818;stroke-width:0.5;"/><text fill="#000000" font-family="sans-serif" font-size="13" lengthAdjust="spacing" textLength="181.2256" x="437" y="1560.6216">Alive notification is not sent</text><polygon fill="#181818" points="310.0825,1590.8203,320.0825,1594.8203,310.0825,1598.8203,314.0825,1594.8203" style="stroke:#181818;stroke-width:1;"/><line style="stroke:#181818;stroke-width:1;" x1="38.9551" x2="316.0825" y1="1594.8203" y2="1594.8203"/><text fill="#000000" font-family="sans-serif" font-size="13" lengthAdjust="spacing" textLength="29.5547" x="45.9551" y="1589.7544">Stop</text><polygon fill="#181818" points="49.9551,1619.9531,39.9551,1623.9531,49.9551,1627.9531,45.9551,1623.9531" style="stroke:#181818;stroke-width:1;"/><line style="stroke:#181818;stroke-width:1;stroke-dasharray:2.0,2.0;" x1="43.9551" x2="321.0825" y1="1623.9531" y2="1623.9531"/><text fill="#000000" font-family="sans-serif" font-size="13" lengthAdjust="spacing" textLength="32.2017" x="55.9551" y="1618.8872">Error</text><line style="stroke:#181818;stroke-width:1;" x1="179.8472" x2="221.8472" y1="1653.0859" y2="1653.0859"/><line style="stroke:#181818;stroke-width:1;" x1="221.8472" x2="221.8472" y1="1653.0859" y2="1666.0859"/><line style="stroke:#181818;stroke-width:1;" x1="180.8472" x2="221.8472" y1="1666.0859" y2="1666.0859"/><polygon fill="#181818" points="190.8472,1662.0859,180.8472,1666.0859,190.8472,1670.0859,186.8472,1666.0859" style="stroke:#181818;stroke-width:1;"/><text fill="#000000" font-family="sans-serif" font-size="13" lengthAdjust="spacing" textLength="128.2354" x="186.8472" y="1648.02">Unregister deadline</text><!--SRC=[vPFTIWCn48NlynH3hnJq1RmGfAq_O57KFi0qcMv2qsH9ikhZExlT_rO5GH5wcPpPCz-SdQ1CFi1a6IbC02CK8iUGZ3GvkWIJ6Q6onj72EyE5LOdQ7gxPYKFjbj0ctVzQZxw-ny99lK27MOrWjq8KS7x9fN01DvHWH25OE6UzO7aaWN4nePEqSr2bmpGG9ceh1LysqXDb9YOAeFhYoBhp53nCTnsJptDIiAAr3mJqdfk0oNXNuolsU4uygr2jvyEcWc_8DCbDspiAvvapc4md5WVHWV8K8MaJcGOGLYWtMV25Ktp9ywa6lCgixi97Mnwlh7abO7EpDh8YX9Exn-bf7zFdGyfUI4iNzc8IP2FjHu7hikeV957Rje0L4WrJkaPZ-QfhTJ0fxiDdYEJIftdDG-2j_5baRvefG9c8gvBcoy2wdPxjwllh-cUhDR1wqRJ_1cCxpnbxK8S1o0ybnoAMky8DocHbISgJ__B6TjdDtO7eHd-dtfTceTsn_vnlqZksb-oK-000]--></g></svg>