<svg xmlns="http://www.w3.org/2000/svg" xmlns:xlink="http://www.w3.org/1999/xlink" contentStyleType="text/css" data-diagram-type="CLASS" height="589px" preserveAspectRatio="none" style="width:1177px;height:589px;background:#FFFFFF;" version="1.1" viewBox="0 0 1177 589" width="1177px" zoomAndPan="magnify"><defs/><g><!--class Status--><g id="elem_Status"><rect codeLine="2" fill="#F1F1F1" height="113.1875" id="Status" rx="2.5" ry="2.5" style="stroke:#181818;stroke-width:0.5;" width="87.6113" x="689.5" y="469"/><ellipse cx="704.5" cy="485" fill="#EB937F" rx="11" ry="11" style="stroke:#181818;stroke-width:1;"/><path d="M708.6094,491 L700.8906,491 L700.8906,478.6094 L708.6094,478.6094 L708.6094,480.7656 L703.3438,480.7656 L703.3438,483.4375 L708.1094,483.4375 L708.1094,485.5938 L703.3438,485.5938 L703.3438,488.8438 L708.6094,488.8438 L708.6094,491 Z " fill="#000000"/><ellipse cx="723.5" cy="484.5" fill="#84BE84" rx="3" ry="3" style="stroke:#038048;stroke-width:1;"/><text fill="#000000" font-family="sans-serif" font-size="14" lengthAdjust="spacing" textLength="44.6113" x="729.5" y="489.8467">Status</text><line style="stroke:#181818;stroke-width:0.5;" x1="690.5" x2="776.1113" y1="501" y2="501"/><text fill="#000000" font-family="sans-serif" font-size="14" lengthAdjust="spacing" textLength="57.9961" x="695.5" y="517.9951">Running</text><text fill="#000000" font-family="sans-serif" font-size="14" lengthAdjust="spacing" textLength="60.8193" x="695.5" y="534.292">Disabled</text><text fill="#000000" font-family="sans-serif" font-size="14" lengthAdjust="spacing" textLength="41.9111" x="695.5" y="550.5889">Failed</text><text fill="#000000" font-family="sans-serif" font-size="14" lengthAdjust="spacing" textLength="58.2148" x="695.5" y="566.8857">Stopped</text><line style="stroke:#181818;stroke-width:0.5;" x1="690.5" x2="776.1113" y1="574.1875" y2="574.1875"/></g><!--class Error--><g id="elem_Error"><rect codeLine="9" fill="#F1F1F1" height="113.1875" id="Error" rx="2.5" ry="2.5" style="stroke:#181818;stroke-width:0.5;" width="116.9863" x="7" y="469"/><ellipse cx="39.6884" cy="485" fill="#EB937F" rx="11" ry="11" style="stroke:#181818;stroke-width:1;"/><path d="M43.7978,491 L36.0791,491 L36.0791,478.6094 L43.7978,478.6094 L43.7978,480.7656 L38.5322,480.7656 L38.5322,483.4375 L43.2978,483.4375 L43.2978,485.5938 L38.5322,485.5938 L38.5322,488.8438 L43.7978,488.8438 L43.7978,491 Z " fill="#000000"/><ellipse cx="62.6192" cy="484.5" fill="#84BE84" rx="3" ry="3" style="stroke:#038048;stroke-width:1;"/><text fill="#000000" font-family="sans-serif" font-size="14" lengthAdjust="spacing" textLength="34.6787" x="68.6192" y="489.8467">Error</text><line style="stroke:#181818;stroke-width:0.5;" x1="8" x2="122.9863" y1="501" y2="501"/><text fill="#000000" font-family="sans-serif" font-size="14" lengthAdjust="spacing" textLength="104.9863" x="13" y="517.9951">BadParameter,</text><text fill="#000000" font-family="sans-serif" font-size="14" lengthAdjust="spacing" textLength="83.8496" x="13" y="534.292">NotAllowed,</text><text fill="#000000" font-family="sans-serif" font-size="14" lengthAdjust="spacing" textLength="102.7168" x="13" y="550.5889">OutOfMemory,</text><text fill="#000000" font-family="sans-serif" font-size="14" lengthAdjust="spacing" textLength="58.7412" x="13" y="566.8857">Generic,</text><line style="stroke:#181818;stroke-width:0.5;" x1="8" x2="122.9863" y1="574.1875" y2="574.1875"/></g><!--class Tag--><g id="elem_Tag"><rect codeLine="16" fill="#F1F1F1" height="64.2969" id="Tag" rx="2.5" ry="2.5" style="stroke:#181818;stroke-width:0.5;" width="302.4453" x="159.5" y="493.5"/><ellipse cx="287.9639" cy="509.5" fill="#ADD1B2" rx="11" ry="11" style="stroke:#181818;stroke-width:1;"/><path d="M290.9326,515.1406 Q290.3545,515.4375 289.7139,515.5781 Q289.0732,515.7344 288.3701,515.7344 Q285.8701,515.7344 284.542,514.0938 Q283.2295,512.4375 283.2295,509.3125 Q283.2295,506.1875 284.542,504.5313 Q285.8701,502.875 288.3701,502.875 Q289.0732,502.875 289.7139,503.0313 Q290.3701,503.1875 290.9326,503.4844 L290.9326,506.2031 Q290.3076,505.625 289.7139,505.3594 Q289.1201,505.0781 288.4951,505.0781 Q287.1514,505.0781 286.4639,506.1563 Q285.7764,507.2188 285.7764,509.3125 Q285.7764,511.4063 286.4639,512.4844 Q287.1514,513.5469 288.4951,513.5469 Q289.1201,513.5469 289.7139,513.2813 Q290.3076,513 290.9326,512.4219 L290.9326,515.1406 Z " fill="#000000"/><ellipse cx="313.4639" cy="509" fill="#84BE84" rx="3" ry="3" style="stroke:#038048;stroke-width:1;"/><text fill="#000000" font-family="sans-serif" font-size="14" lengthAdjust="spacing" textLength="26.0176" x="319.4639" y="514.3467">Tag</text><line style="stroke:#181818;stroke-width:0.5;" x1="160.5" x2="460.9453" y1="525.5" y2="525.5"/><line style="stroke:#181818;stroke-width:0.5;" x1="160.5" x2="460.9453" y1="533.5" y2="533.5"/><ellipse cx="170.5" cy="547.1484" fill="#84BE84" rx="3" ry="3" style="stroke:#038048;stroke-width:1;"/><text fill="#000000" font-family="sans-serif" font-size="14" lengthAdjust="spacing" textLength="276.4453" x="179.5" y="550.4951">new&lt;N: AsRef&lt;str&gt;&gt;(name: N) -&gt; Self</text></g><!--class DeadlineMonitor--><g id="elem_DeadlineMonitor"><rect codeLine="20" fill="#F1F1F1" height="48" id="DeadlineMonitor" rx="2.5" ry="2.5" style="stroke:#181818;stroke-width:0.5;" width="158.3428" x="496.5" y="501.5"/><ellipse cx="511.5" cy="517.5" fill="#ADD1B2" rx="11" ry="11" style="stroke:#181818;stroke-width:1;"/><path d="M514.4688,523.1406 Q513.8906,523.4375 513.25,523.5781 Q512.6094,523.7344 511.9063,523.7344 Q509.4063,523.7344 508.0781,522.0938 Q506.7656,520.4375 506.7656,517.3125 Q506.7656,514.1875 508.0781,512.5313 Q509.4063,510.875 511.9063,510.875 Q512.6094,510.875 513.25,511.0313 Q513.9063,511.1875 514.4688,511.4844 L514.4688,514.2031 Q513.8438,513.625 513.25,513.3594 Q512.6563,513.0781 512.0313,513.0781 Q510.6875,513.0781 510,514.1563 Q509.3125,515.2188 509.3125,517.3125 Q509.3125,519.4063 510,520.4844 Q510.6875,521.5469 512.0313,521.5469 Q512.6563,521.5469 513.25,521.2813 Q513.8438,521 514.4688,520.4219 L514.4688,523.1406 Z " fill="#000000"/><ellipse cx="530.5" cy="517" fill="#84BE84" rx="3" ry="3" style="stroke:#038048;stroke-width:1;"/><text fill="#000000" font-family="sans-serif" font-size="14" lengthAdjust="spacing" textLength="115.3428" x="536.5" y="522.3467">DeadlineMonitor</text><line style="stroke:#181818;stroke-width:0.5;" x1="497.5" x2="653.8428" y1="533.5" y2="533.5"/><line style="stroke:#181818;stroke-width:0.5;" x1="497.5" x2="653.8428" y1="541.5" y2="541.5"/></g><!--class LogicMonitor--><g id="elem_LogicMonitor"><rect codeLine="23" fill="#F1F1F1" height="48" id="LogicMonitor" rx="2.5" ry="2.5" style="stroke:#181818;stroke-width:0.5;" width="133.0566" x="813" y="501.5"/><ellipse cx="828" cy="517.5" fill="#ADD1B2" rx="11" ry="11" style="stroke:#181818;stroke-width:1;"/><path d="M830.9688,523.1406 Q830.3906,523.4375 829.75,523.5781 Q829.1094,523.7344 828.4063,523.7344 Q825.9063,523.7344 824.5781,522.0938 Q823.2656,520.4375 823.2656,517.3125 Q823.2656,514.1875 824.5781,512.5313 Q825.9063,510.875 828.4063,510.875 Q829.1094,510.875 829.75,511.0313 Q830.4063,511.1875 830.9688,511.4844 L830.9688,514.2031 Q830.3438,513.625 829.75,513.3594 Q829.1563,513.0781 828.5313,513.0781 Q827.1875,513.0781 826.5,514.1563 Q825.8125,515.2188 825.8125,517.3125 Q825.8125,519.4063 826.5,520.4844 Q827.1875,521.5469 828.5313,521.5469 Q829.1563,521.5469 829.75,521.2813 Q830.3438,521 830.9688,520.4219 L830.9688,523.1406 Z " fill="#000000"/><ellipse cx="847" cy="517" fill="#84BE84" rx="3" ry="3" style="stroke:#038048;stroke-width:1;"/><text fill="#000000" font-family="sans-serif" font-size="14" lengthAdjust="spacing" textLength="90.0566" x="853" y="522.3467">LogicMonitor</text><line style="stroke:#181818;stroke-width:0.5;" x1="814" x2="945.0566" y1="533.5" y2="533.5"/><line style="stroke:#181818;stroke-width:0.5;" x1="814" x2="945.0566" y1="541.5" y2="541.5"/></g><!--class HeartbeatMonitor--><g id="elem_HeartbeatMonitor"><rect codeLine="26" fill="#F1F1F1" height="48" id="HeartbeatMonitor" rx="2.5" ry="2.5" style="stroke:#181818;stroke-width:0.5;" width="166.751" x="981" y="501.5"/><ellipse cx="996" cy="517.5" fill="#ADD1B2" rx="11" ry="11" style="stroke:#181818;stroke-width:1;"/><path d="M998.9688,523.1406 Q998.3906,523.4375 997.75,523.5781 Q997.1094,523.7344 996.4063,523.7344 Q993.9063,523.7344 992.5781,522.0938 Q991.2656,520.4375 991.2656,517.3125 Q991.2656,514.1875 992.5781,512.5313 Q993.9063,510.875 996.4063,510.875 Q997.1094,510.875 997.75,511.0313 Q998.4063,511.1875 998.9688,511.4844 L998.9688,514.2031 Q998.3438,513.625 997.75,513.3594 Q997.1563,513.0781 996.5313,513.0781 Q995.1875,513.0781 994.5,514.1563 Q993.8125,515.2188 993.8125,517.3125 Q993.8125,519.4063 994.5,520.4844 Q995.1875,521.5469 996.5313,521.5469 Q997.1563,521.5469 997.75,521.2813 Q998.3438,521 998.9688,520.4219 L998.9688,523.1406 Z " fill="#000000"/><ellipse cx="1015" cy="517" fill="#84BE84" rx="3" ry="3" style="stroke:#038048;stroke-width:1;"/><text fill="#000000" font-family="sans-serif" font-size="14" lengthAdjust="spacing" textLength="123.751" x="1021" y="522.3467">HeartbeatMonitor</text><line style="stroke:#181818;stroke-width:0.5;" x1="982" x2="1146.751" y1="533.5" y2="533.5"/><line style="stroke:#181818;stroke-width:0.5;" x1="982" x2="1146.751" y1="541.5" y2="541.5"/></g><!--class HealthMonitorBuilder--><g id="elem_HealthMonitorBuilder"><rect codeLine="29" fill="#F1F1F1" height="178.375" id="HealthMonitorBuilder" rx="2.5" ry="2.5" style="stroke:#181818;stroke-width:0.5;" width="628.0273" x="154.5" y="7"/><ellipse cx="384.4126" cy="23" fill="#ADD1B2" rx="11" ry="11" style="stroke:#181818;stroke-width:1;"/><path d="M387.3813,28.6406 Q386.8032,28.9375 386.1626,29.0781 Q385.522,29.2344 384.8188,29.2344 Q382.3188,29.2344 380.9907,27.5938 Q379.6782,25.9375 379.6782,22.8125 Q379.6782,19.6875 380.9907,18.0313 Q382.3188,16.375 384.8188,16.375 Q385.522,16.375 386.1626,16.5313 Q386.8188,16.6875 387.3813,16.9844 L387.3813,19.7031 Q386.7563,19.125 386.1626,18.8594 Q385.5688,18.5781 384.9438,18.5781 Q383.6001,18.5781 382.9126,19.6563 Q382.2251,20.7188 382.2251,22.8125 Q382.2251,24.9063 382.9126,25.9844 Q383.6001,27.0469 384.9438,27.0469 Q385.5688,27.0469 386.1626,26.7813 Q386.7563,26.5 387.3813,25.9219 L387.3813,28.6406 Z " fill="#000000"/><ellipse cx="409.9126" cy="22.5" fill="#84BE84" rx="3" ry="3" style="stroke:#038048;stroke-width:1;"/><text fill="#000000" font-family="sans-serif" font-size="14" lengthAdjust="spacing" textLength="148.7021" x="415.9126" y="27.8467">HealthMonitorBuilder</text><line style="stroke:#181818;stroke-width:0.5;" x1="155.5" x2="781.5273" y1="39" y2="39"/><line style="stroke:#181818;stroke-width:0.5;" x1="155.5" x2="781.5273" y1="47" y2="47"/><ellipse cx="165.5" cy="60.6484" fill="#84BE84" rx="3" ry="3" style="stroke:#038048;stroke-width:1;"/><text fill="#000000" font-family="sans-serif" font-size="14" lengthAdjust="spacing" textLength="91.8613" x="174.5" y="63.9951">new() -&gt; Self</text><ellipse cx="165.5" cy="76.9453" fill="#84BE84" rx="3" ry="3" style="stroke:#038048;stroke-width:1;"/><text fill="#000000" font-family="sans-serif" font-size="14" lengthAdjust="spacing" textLength="227.1172" x="174.5" y="80.292">from_config(config: &amp;str) -&gt; Self</text><ellipse cx="165.5" cy="93.2422" fill="#84BE84" rx="3" ry="3" style="stroke:#038048;stroke-width:1;"/><text fill="#000000" font-family="sans-serif" font-size="14" lengthAdjust="spacing" textLength="602.0273" x="174.5" y="96.5889">add_heartbeat_monitor(&amp;mut self, tag: Tag, monitor: HeartbeatMonitor) -&gt; &amp;mut Self</text><ellipse cx="165.5" cy="109.5391" fill="#84BE84" rx="3" ry="3" style="stroke:#038048;stroke-width:1;"/><text fill="#000000" font-family="sans-serif" font-size="14" lengthAdjust="spacing" textLength="584.9717" x="174.5" y="112.8857">add_deadline_monitor(&amp;mut self, tag: Tag, monitor: DeadlineMonitor) -&gt; &amp;mut Self</text><ellipse cx="165.5" cy="125.8359" fill="#84BE84" rx="3" ry="3" style="stroke:#038048;stroke-width:1;"/><text fill="#000000" font-family="sans-serif" font-size="14" lengthAdjust="spacing" textLength="532.3828" x="174.5" y="129.1826">add_logic_monitor(&amp;mut self, tag: Tag, monitor: LogicMonitor) -&gt; &amp;mut Self</text><ellipse cx="165.5" cy="142.1328" fill="#84BE84" rx="3" ry="3" style="stroke:#038048;stroke-width:1;"/><text fill="#000000" font-family="sans-serif" font-size="14" lengthAdjust="spacing" textLength="502.4688" x="174.5" y="145.4795">with_supervisor_api_cycle(Duration: supervisor_api_cycle) -&gt; &amp;mut Self</text><ellipse cx="165.5" cy="158.4297" fill="#84BE84" rx="3" ry="3" style="stroke:#038048;stroke-width:1;"/><text fill="#000000" font-family="sans-serif" font-size="14" lengthAdjust="spacing" textLength="572.7695" x="174.5" y="161.7764">with_internal_processing_cycle(Duration: internal_processing_cycle) -&gt; &amp;mut Self</text><ellipse cx="165.5" cy="174.7266" fill="#84BE84" rx="3" ry="3" style="stroke:#038048;stroke-width:1;"/><text fill="#000000" font-family="sans-serif" font-size="14" lengthAdjust="spacing" textLength="281.1484" x="174.5" y="178.0732">build() -&gt; Result&lt;HealthMonitor, Error&gt;</text></g><g id="elem_GMN9"><path d="M818,76 L818,92 L782.61,96 L818,100 L818,116.2656 A0,0 0 0 0 818,116.2656 L1170.5127,116.2656 A0,0 0 0 0 1170.5127,116.2656 L1170.5127,86 L1160.5127,76 L818,76 A0,0 0 0 0 818,76 " fill="#FEFFDD" style="stroke:#181818;stroke-width:0.5;"/><path d="M1160.5127,76 L1160.5127,86 L1170.5127,86 L1160.5127,76 " fill="#FEFFDD" style="stroke:#181818;stroke-width:0.5;"/><text fill="#000000" font-family="sans-serif" font-size="13" lengthAdjust="spacing" textLength="331.5127" x="824" y="93.0669">internal_processing_cycle &lt;= supervisor_api_cycle</text><text fill="#000000" font-family="sans-serif" font-size="13" lengthAdjust="spacing" textLength="4.1323" x="824" y="108.1997">&#160;</text></g><!--class HealthMonitor--><g id="elem_HealthMonitor"><rect codeLine="41" fill="#F1F1F1" height="145.7813" id="HealthMonitor" rx="2.5" ry="2.5" style="stroke:#181818;stroke-width:0.5;" width="593.0615" x="347" y="262"/><ellipse cx="584.186" cy="278" fill="#ADD1B2" rx="11" ry="11" style="stroke:#181818;stroke-width:1;"/><path d="M587.1548,283.6406 Q586.5767,283.9375 585.936,284.0781 Q585.2954,284.2344 584.5923,284.2344 Q582.0923,284.2344 580.7642,282.5938 Q579.4517,280.9375 579.4517,277.8125 Q579.4517,274.6875 580.7642,273.0313 Q582.0923,271.375 584.5923,271.375 Q585.2954,271.375 585.936,271.5313 Q586.5923,271.6875 587.1548,271.9844 L587.1548,274.7031 Q586.5298,274.125 585.936,273.8594 Q585.3423,273.5781 584.7173,273.5781 Q583.3735,273.5781 582.686,274.6563 Q581.9985,275.7188 581.9985,277.8125 Q581.9985,279.9063 582.686,280.9844 Q583.3735,282.0469 584.7173,282.0469 Q585.3423,282.0469 585.936,281.7813 Q586.5298,281.5 587.1548,280.9219 L587.1548,283.6406 Z " fill="#000000"/><ellipse cx="609.686" cy="277.5" fill="#84BE84" rx="3" ry="3" style="stroke:#038048;stroke-width:1;"/><text fill="#000000" font-family="sans-serif" font-size="14" lengthAdjust="spacing" textLength="99.1895" x="615.686" y="282.8467">HealthMonitor</text><line style="stroke:#181818;stroke-width:0.5;" x1="348" x2="939.0615" y1="294" y2="294"/><line style="stroke:#181818;stroke-width:0.5;" x1="348" x2="939.0615" y1="302" y2="302"/><ellipse cx="358" cy="315.6484" fill="#84BE84" rx="3" ry="3" style="stroke:#038048;stroke-width:1;"/><text fill="#000000" font-family="sans-serif" font-size="14" lengthAdjust="spacing" textLength="567.0615" x="367" y="318.9951">get_heartbeat_monitor(&amp;mut self, tag: Tag) -&gt; Result&lt;HeartbeatMonitor, Error&gt;</text><ellipse cx="358" cy="331.9453" fill="#84BE84" rx="3" ry="3" style="stroke:#038048;stroke-width:1;"/><text fill="#000000" font-family="sans-serif" font-size="14" lengthAdjust="spacing" textLength="517.5557" x="367" y="335.292">get_deadline_monitor(&amp;self, tag: Tag) -&gt; Result&lt;DeadlineMonitor, Error&gt;</text><ellipse cx="358" cy="348.2422" fill="#84BE84" rx="3" ry="3" style="stroke:#038048;stroke-width:1;"/><text fill="#000000" font-family="sans-serif" font-size="14" lengthAdjust="spacing" textLength="464.9668" x="367" y="351.5889">get_logic_monitor(&amp;self, tag: Tag) -&gt; Result&lt;LogicMonitor, Error&gt;</text><ellipse cx="358" cy="364.5391" fill="#84BE84" rx="3" ry="3" style="stroke:#038048;stroke-width:1;"/><text fill="#000000" font-family="sans-serif" font-size="14" lengthAdjust="spacing" textLength="383.0791" x="367" y="367.8857">get_supervisor_api_cycle() -&gt; Result&lt;Duration, Error&gt;</text><ellipse cx="358" cy="380.8359" fill="#84BE84" rx="3" ry="3" style="stroke:#038048;stroke-width:1;"/><text fill="#000000" font-family="sans-serif" font-size="14" lengthAdjust="spacing" textLength="418.2295" x="367" y="384.1826">get_internal_processing_cycle() -&gt; Result&lt;Duration, Error&gt;</text><ellipse cx="358" cy="397.1328" fill="#84BE84" rx="3" ry="3" style="stroke:#038048;stroke-width:1;"/><text fill="#000000" font-family="sans-serif" font-size="14" lengthAdjust="spacing" textLength="159.8789" x="367" y="400.4795">status(&amp;self) -&gt; Status</text></g><!--link HealthMonitorBuilder to Error--><g id="link_HealthMonitorBuilder_Error"><path codeLine="50" d="M340.16,185.2 C328.41,194.83 317,204.83 306.5,215 C224.07,294.83 149.0965,398.6867 105.1865,463.7467 " fill="transparent" id="HealthMonitorBuilder-to-Error" style="stroke:#181818;stroke-width:1;stroke-dasharray:7.0,7.0;"/><polygon fill="#181818" points="101.83,468.72,110.1803,463.4978,104.6271,464.5756,103.5493,459.0224,101.83,468.72" style="stroke:#181818;stroke-width:1;"/></g><!--link HealthMonitorBuilder to Tag--><g id="link_HealthMonitorBuilder_Tag"><path codeLine="51" d="M349.04,185.23 C328.01,207.54 309.62,233.39 299.5,262 C271.36,341.55 288.214,437.3819 300.514,487.6519 " fill="transparent" id="HealthMonitorBuilder-to-Tag" style="stroke:#181818;stroke-width:1;stroke-dasharray:7.0,7.0;"/><polygon fill="#181818" points="301.94,493.48,303.6864,483.7872,300.7517,488.6233,295.9156,485.6886,301.94,493.48" style="stroke:#181818;stroke-width:1;"/></g><!--link HealthMonitorBuilder to HealthMonitor--><g id="link_HealthMonitorBuilder_HealthMonitor"><path codeLine="52" d="M533.66,185.25 C552.32,210.52 568.8665,232.9228 586.7165,257.1028 " fill="transparent" id="HealthMonitorBuilder-to-HealthMonitor" style="stroke:#181818;stroke-width:1;stroke-dasharray:7.0,7.0;"/><polygon fill="#181818" points="590.28,261.93,588.1529,252.3136,587.3104,257.9074,581.7167,257.0649,590.28,261.93" style="stroke:#181818;stroke-width:1;"/><text fill="#000000" font-family="sans-serif" font-size="13" lengthAdjust="spacing" textLength="81.6943" x="567.5" y="228.0669">&#171;consumes&#187;</text></g><!--reverse link HealthMonitorBuilder to DeadlineMonitor--><g id="link_HealthMonitorBuilder_DeadlineMonitor"><path codeLine="53" d="M367.6802,194.4593 C348.9902,217.4993 339.58,234.38 329.5,262 C307.25,322.95 293.34,354.12 329.5,408 C369.38,467.42 414.2,437.61 478.5,469 C498.55,478.79 520.16,490.98 537.88,501.45 " fill="transparent" id="HealthMonitorBuilder-backto-DeadlineMonitor" style="stroke:#181818;stroke-width:1;"/><polygon fill="transparent" points="375.24,185.14,368.3537,187.2797,367.6802,194.4593,374.5665,192.3196,375.24,185.14" style="stroke:#181818;stroke-width:1;"/><text fill="#000000" font-family="sans-serif" font-size="13" lengthAdjust="spacing" textLength="23.0356" x="502.2536" y="490.4492">0..*</text></g><!--reverse link HealthMonitorBuilder to LogicMonitor--><g id="link_HealthMonitorBuilder_LogicMonitor"><path codeLine="54" d="M786.1283,188.6699 C876.8383,217.7199 944.31,243.62 957.5,262 C995.34,314.71 976.37,345.91 957.5,408 C946.53,444.1 920.25,479.19 901.22,501.26 " fill="transparent" id="HealthMonitorBuilder-backto-LogicMonitor" style="stroke:#181818;stroke-width:1;"/><polygon fill="transparent" points="774.7,185.01,779.1942,190.6494,786.1283,188.6699,781.6341,183.0305,774.7,185.01" style="stroke:#181818;stroke-width:1;"/><text fill="#000000" font-family="sans-serif" font-size="13" lengthAdjust="spacing" textLength="23.0356" x="880.7086" y="490.6065">0..*</text></g><!--reverse link HealthMonitorBuilder to HeartbeatMonitor--><g id="link_HealthMonitorBuilder_HeartbeatMonitor"><path codeLine="55" d="M794.2029,183.429 C863.0729,201.839 905.44,213.35 909.5,215 C949.14,231.1 967.19,228.27 993.5,262 C1050.85,335.52 1061.97,451.84 1064.06,501.16 " fill="transparent" id="HealthMonitorBuilder-backto-HeartbeatMonitor" style="stroke:#181818;stroke-width:1;"/><polygon fill="transparent" points="782.61,180.33,787.3735,185.7438,794.2029,183.429,789.4395,178.0152,782.61,180.33" style="stroke:#181818;stroke-width:1;"/><text fill="#000000" font-family="sans-serif" font-size="13" lengthAdjust="spacing" textLength="23.0356" x="1038.1843" y="490.4821">0..*</text></g><!--reverse link HealthMonitor to Status--><g id="link_HealthMonitor_Status"><path codeLine="56" d="M683.0823,418.8981 C692.7123,439.0581 697.85,449.83 706.95,468.88 " fill="transparent" id="HealthMonitor-backto-Status" style="stroke:#181818;stroke-width:1;"/><polygon fill="#181818" points="677.91,408.07,676.8868,415.2081,683.0823,418.8981,684.1055,411.7599,677.91,408.07" style="stroke:#181818;stroke-width:1;"/></g><!--link HealthMonitor to Error--><g id="link_HealthMonitor_Error"><path codeLine="57" d="M346.96,395.04 C277.75,414.1 205.59,438.45 141.5,469 C135.75,471.74 135.1124,471.8157 129.4724,475.2557 " fill="transparent" id="HealthMonitor-to-Error" style="stroke:#181818;stroke-width:1;stroke-dasharray:7.0,7.0;"/><polygon fill="#181818" points="124.35,478.38,134.1164,477.1085,128.6187,475.7764,129.9507,470.2786,124.35,478.38" style="stroke:#181818;stroke-width:1;"/></g><!--link HealthMonitor to Tag--><g id="link_HealthMonitor_Tag"><path codeLine="58" d="M516.18,408.07 C464.04,437.59 411.6815,467.2243 370.7315,490.4043 " fill="transparent" id="HealthMonitor-to-Tag" style="stroke:#181818;stroke-width:1;stroke-dasharray:7.0,7.0;"/><polygon fill="#181818" points="365.51,493.36,375.3127,492.4075,369.8612,490.8969,371.3718,485.4455,365.51,493.36" style="stroke:#181818;stroke-width:1;"/></g><!--reverse link HealthMonitor to DeadlineMonitor--><g id="link_HealthMonitor_DeadlineMonitor"><path codeLine="59" d="M613.4287,419.3583 C601.5087,452.4083 592.26,478.03 583.89,501.26 " fill="transparent" id="HealthMonitor-backto-DeadlineMonitor" style="stroke:#181818;stroke-width:1;"/><polygon fill="transparent" points="617.5,408.07,611.7016,412.357,613.4287,419.3583,619.2271,415.0712,617.5,408.07" style="stroke:#181818;stroke-width:1;"/><text fill="#000000" font-family="sans-serif" font-size="13" lengthAdjust="spacing" textLength="23.0356" x="560.0945" y="490.6065">0..*</text></g><!--reverse link HealthMonitor to LogicMonitor--><g id="link_HealthMonitor_LogicMonitor"><path codeLine="60" d="M743.1057,415.5597 C784.6157,448.7197 821.61,478.26 850.67,501.47 " fill="transparent" id="HealthMonitor-backto-LogicMonitor" style="stroke:#181818;stroke-width:1;"/><polygon fill="transparent" points="733.73,408.07,735.9213,414.9401,743.1057,415.5597,740.9144,408.6896,733.73,408.07" style="stroke:#181818;stroke-width:1;"/><text fill="#000000" font-family="sans-serif" font-size="13" lengthAdjust="spacing" textLength="23.0356" x="817.3327" y="490.4743">0..*</text></g><!--reverse link HealthMonitor to HeartbeatMonitor--><g id="link_HealthMonitor_HeartbeatMonitor"><path codeLine="61" d="M837.5824,412.6763 C882.7924,431.5663 919.72,447.95 963.5,469 C984.06,478.88 1006.33,490.97 1024.72,501.34 " fill="transparent" id="HealthMonitor-backto-HeartbeatMonitor" style="stroke:#181818;stroke-width:1;"/><polygon fill="transparent" points="826.51,408.05,830.5041,414.054,837.5824,412.6763,833.5883,406.6724,826.51,408.05" style="stroke:#181818;stroke-width:1;"/><text fill="#000000" font-family="sans-serif" font-size="13" lengthAdjust="spacing" textLength="23.0356" x="988.616" y="490.311">0..*</text></g><!--SRC=[ZPHDZvim48Rl-HNM7bPqGwAU4KNQLNRRGpTR9JrMGWuCn9AnaJyQhQh-zpesIVcmDt31U6OUngzVUmbCDsYliD8I_LaWy-mqOuJLThmX4XyebFRZ1PFBSAzusvhntyLYQGdFGd3H0Pvm-GCBt8024TkPBLUFbF8JbExxJQktwXKQBjxTn5TW84WHMs11iPJe9wuxtfB1ATqcw57ke4gb4baMCODFqFOJMcLe3xJg5Mu0bvGmUEMCADlK_zXtNfF25_W6MAW3O1K8KdNi8a-Qq194hxVesWLoSvNWJLvmLf4wSgy4tPk-ntcuBFFZvSTvu_ZHVQCLaYOhHWgRIYD4ZBfWCcdKCcs9bU7ABJiLPc97eeMezApVJ6HVQn_lHDGnbxe5yPj8BdBSahnuBoX46osm8fmbo1SEiWWpXcEOvgtW1KXfJ3m11dDyrCDvgztkxa1ggjA14sBd-imuXN45I93wg3xu1Kg_U1VqY_cTTh5O3MgUJKQT3dnoRVQAd3eaJ1lPOmeR6IDCwhjYYl7QOT18jvFJql3ktwwNzlvpRRj3QYVELu3txA_NcQiFXysomy7XDYSeJSqr8NK3CilyLNorGdUVr-k7k_5HlPdVL_ncyjWsmmBqO38xROQ1W29-AMQlPjuoFkh_7m00]--></g></svg>