<svg xmlns="http://www.w3.org/2000/svg" xmlns:xlink="http://www.w3.org/1999/xlink" contentStyleType="text/css" data-diagram-type="CLASS" height="382px" preserveAspectRatio="none" style="width:376px;height:382px;background:#FFFFFF;" version="1.1" viewBox="0 0 376 382" width="376px" zoomAndPan="magnify"><defs/><g><!--class HeartbeatMonitorStatus--><g id="elem_HeartbeatMonitorStatus"><rect codeLine="2" fill="#F1F1F1" height="96.8906" id="HeartbeatMonitorStatus" rx="2.5" ry="2.5" style="stroke:#181818;stroke-width:0.5;" width="211.3623" x="7" y="270"/><ellipse cx="22" cy="286" fill="#EB937F" rx="11" ry="11" style="stroke:#181818;stroke-width:1;"/><path d="M26.1094,292 L18.3906,292 L18.3906,279.6094 L26.1094,279.6094 L26.1094,281.7656 L20.8438,281.7656 L20.8438,284.4375 L25.6094,284.4375 L25.6094,286.5938 L20.8438,286.5938 L20.8438,289.8438 L26.1094,289.8438 L26.1094,292 Z " fill="#000000"/><polygon fill="#4177AF" points="41,281.5,37,287.5,45,287.5" style="stroke:#1963A0;stroke-width:1;"/><text fill="#000000" font-family="sans-serif" font-size="14" lengthAdjust="spacing" textLength="168.3623" x="47" y="290.8467">HeartbeatMonitorStatus</text><line style="stroke:#181818;stroke-width:0.5;" x1="8" x2="217.3623" y1="302" y2="302"/><text fill="#000000" font-family="sans-serif" font-size="14" lengthAdjust="spacing" textLength="54.2568" x="13" y="318.9951">Healthy</text><text fill="#000000" font-family="sans-serif" font-size="14" lengthAdjust="spacing" textLength="60.8193" x="13" y="335.292">Disabled</text><text fill="#000000" font-family="sans-serif" font-size="14" lengthAdjust="spacing" textLength="68.9609" x="13" y="351.5889">TimedOut</text><line style="stroke:#181818;stroke-width:0.5;" x1="8" x2="217.3623" y1="358.8906" y2="358.8906"/></g><!--class Error--><g id="elem_Error"><rect codeLine="8" fill="#F1F1F1" height="113.1875" id="Error" rx="2.5" ry="2.5" style="stroke:#181818;stroke-width:0.5;" width="116.9863" x="253" y="262"/><ellipse cx="285.6884" cy="278" fill="#EB937F" rx="11" ry="11" style="stroke:#181818;stroke-width:1;"/><path d="M289.7978,284 L282.0791,284 L282.0791,271.6094 L289.7978,271.6094 L289.7978,273.7656 L284.5322,273.7656 L284.5322,276.4375 L289.2978,276.4375 L289.2978,278.5938 L284.5322,278.5938 L284.5322,281.8438 L289.7978,281.8438 L289.7978,284 Z " fill="#000000"/><polygon fill="#4177AF" points="308.6192,273.5,304.6192,279.5,312.6192,279.5" style="stroke:#1963A0;stroke-width:1;"/><text fill="#000000" font-family="sans-serif" font-size="14" lengthAdjust="spacing" textLength="34.6787" x="314.6192" y="282.8467">Error</text><line style="stroke:#181818;stroke-width:0.5;" x1="254" x2="368.9863" y1="294" y2="294"/><text fill="#000000" font-family="sans-serif" font-size="14" lengthAdjust="spacing" textLength="104.9863" x="259" y="310.9951">BadParameter,</text><text fill="#000000" font-family="sans-serif" font-size="14" lengthAdjust="spacing" textLength="83.8496" x="259" y="327.292">NotAllowed,</text><text fill="#000000" font-family="sans-serif" font-size="14" lengthAdjust="spacing" textLength="102.7168" x="259" y="343.5889">OutOfMemory,</text><text fill="#000000" font-family="sans-serif" font-size="14" lengthAdjust="spacing" textLength="58.7412" x="259" y="359.8857">Generic,</text><line style="stroke:#181818;stroke-width:0.5;" x1="254" x2="368.9863" y1="367.1875" y2="367.1875"/></g><!--class HeartbeatMonitor--><g id="elem_HeartbeatMonitor"><rect codeLine="15" fill="#F1F1F1" height="178.375" id="HeartbeatMonitor" rx="2.5" ry="2.5" style="stroke:#181818;stroke-width:0.5;" width="299.8955" x="61.5" y="7"/><ellipse cx="139.8223" cy="23" fill="#ADD1B2" rx="11" ry="11" style="stroke:#181818;stroke-width:1;"/><path d="M142.791,28.6406 Q142.2129,28.9375 141.5723,29.0781 Q140.9316,29.2344 140.2285,29.2344 Q137.7285,29.2344 136.4004,27.5938 Q135.0879,25.9375 135.0879,22.8125 Q135.0879,19.6875 136.4004,18.0313 Q137.7285,16.375 140.2285,16.375 Q140.9316,16.375 141.5723,16.5313 Q142.2285,16.6875 142.791,16.9844 L142.791,19.7031 Q142.166,19.125 141.5723,18.8594 Q140.9785,18.5781 140.3535,18.5781 Q139.0098,18.5781 138.3223,19.6563 Q137.6348,20.7188 137.6348,22.8125 Q137.6348,24.9063 138.3223,25.9844 Q139.0098,27.0469 140.3535,27.0469 Q140.9785,27.0469 141.5723,26.7813 Q142.166,26.5 142.791,25.9219 L142.791,28.6406 Z " fill="#000000"/><ellipse cx="165.3223" cy="22.5" fill="#84BE84" rx="3" ry="3" style="stroke:#038048;stroke-width:1;"/><text fill="#000000" font-family="sans-serif" font-size="14" lengthAdjust="spacing" textLength="123.751" x="171.3223" y="27.8467">HeartbeatMonitor</text><line style="stroke:#181818;stroke-width:0.5;" x1="62.5" x2="360.3955" y1="39" y2="39"/><rect fill="transparent" height="6" style="stroke:#C82930;stroke-width:1;" width="6" x="69.5" y="49.6484"/><text fill="#000000" font-family="sans-serif" font-size="14" lengthAdjust="spacing" textLength="182.0342" x="81.5" y="55.9951">heartbeat_cycle: Duration</text><rect fill="transparent" height="6" style="stroke:#C82930;stroke-width:1;" width="6" x="69.5" y="65.9453"/><text fill="#000000" font-family="sans-serif" font-size="14" lengthAdjust="spacing" textLength="159.0244" x="81.5" y="72.292">last_heartbeat: Instant</text><rect fill="transparent" height="6" style="stroke:#C82930;stroke-width:1;" width="6" x="69.5" y="82.2422"/><text fill="#000000" font-family="sans-serif" font-size="14" lengthAdjust="spacing" textLength="220.5479" x="81.5" y="88.5889">status: HeartbeatMonitorStatus</text><line style="stroke:#181818;stroke-width:0.5;" x1="62.5" x2="360.3955" y1="95.8906" y2="95.8906"/><ellipse cx="72.5" cy="109.5391" fill="#84BE84" rx="3" ry="3" style="stroke:#038048;stroke-width:1;"/><text fill="#000000" font-family="sans-serif" font-size="14" lengthAdjust="spacing" textLength="273.8955" x="81.5" y="112.8857">new(heartbeat_cycle: Duration) -&gt; Self</text><ellipse cx="72.5" cy="125.8359" fill="#84BE84" rx="3" ry="3" style="stroke:#038048;stroke-width:1;"/><text fill="#000000" font-family="sans-serif" font-size="14" lengthAdjust="spacing" textLength="262.9785" x="81.5" y="129.1826">heartbeat(&amp;self) -&gt; Result&lt;(), Error&gt;</text><ellipse cx="72.5" cy="142.1328" fill="#84BE84" rx="3" ry="3" style="stroke:#038048;stroke-width:1;"/><text fill="#000000" font-family="sans-serif" font-size="14" lengthAdjust="spacing" textLength="233.7275" x="81.5" y="145.4795">check_heartbeat(&amp;self) -&gt; Status</text><ellipse cx="72.5" cy="158.4297" fill="#84BE84" rx="3" ry="3" style="stroke:#038048;stroke-width:1;"/><text fill="#000000" font-family="sans-serif" font-size="14" lengthAdjust="spacing" textLength="241.5547" x="81.5" y="161.7764">enable(&amp;self) -&gt; Result&lt;(), Error&gt;</text><ellipse cx="72.5" cy="174.7266" fill="#84BE84" rx="3" ry="3" style="stroke:#038048;stroke-width:1;"/><text fill="#000000" font-family="sans-serif" font-size="14" lengthAdjust="spacing" textLength="244.1387" x="81.5" y="178.0732">disable(&amp;self) -&gt; Result&lt;(), Error&gt;</text></g><!--reverse link HeartbeatMonitor to HeartbeatMonitorStatus--><g id="link_HeartbeatMonitor_HeartbeatMonitorStatus"><path codeLine="26" d="M167.0349,196.0472 C154.0549,224.9572 145.03,245.04 133.92,269.78 " fill="transparent" id="HeartbeatMonitor-backto-HeartbeatMonitorStatus" style="stroke:#181818;stroke-width:1;"/><polygon fill="#181818" points="171.95,185.1,165.8434,188.9353,167.0349,196.0472,173.1415,192.212,171.95,185.1" style="stroke:#181818;stroke-width:1;"/><text fill="#000000" font-family="sans-serif" font-size="13" lengthAdjust="spacing" textLength="33.5981" x="157.5" y="228.0669">owns</text></g><!--link HeartbeatMonitor to Error--><g id="link_HeartbeatMonitor_Error"><path codeLine="27" d="M251.45,185.1 C263.2,211.01 273.2525,233.1554 283.8025,256.4254 " fill="transparent" id="HeartbeatMonitor-to-Error" style="stroke:#181818;stroke-width:1;stroke-dasharray:7.0,7.0;"/><polygon fill="#181818" points="286.28,261.89,286.2068,252.0414,284.2154,257.3362,278.9207,255.3448,286.28,261.89" style="stroke:#181818;stroke-width:1;"/></g><!--SRC=[XL5VIyCm47_lfyYJTAxT1oXIK2RgmvmutyijlT5Wci3bGYdYFhjPCeTGgtbAVlykTtT4utlnY42yH-2DDOejxHZOE_6HYN02gRaRutsj7Emrjl7nfdfijvwppomxnfnx8ajdsnsqBq3G8oCL4NcsVAkr7R1Dxs3T7ZROMneJy806ISdY5BYK6foR_EmSNdRVU2D7gR4IQq_0off41oyt5qqbdenZC9n85xkhPhgEcgN18P-jiH1bBNQe3qbxqULNBe2HVKNdDT_aYo8DfKvIsQ5yRtup_2oEvZJa_zFQj8q_XM6KanbUb-NSoYjX1-EcbjMgJebV]--></g></svg>