<svg xmlns="http://www.w3.org/2000/svg" xmlns:xlink="http://www.w3.org/1999/xlink" contentStyleType="text/css" data-diagram-type="CLASS" height="366px" preserveAspectRatio="none" style="width:1450px;height:366px;background:#FFFFFF;" version="1.1" viewBox="0 0 1450 366" width="1450px" zoomAndPan="magnify"><defs/><g><!--class DurationRange--><g id="elem_DurationRange"><rect codeLine="2" fill="#F1F1F1" height="80.5938" id="DurationRange" rx="2.5" ry="2.5" style="stroke:#181818;stroke-width:0.5;" width="148.4854" x="7" y="229.5"/><ellipse cx="22" cy="245.5" fill="#F1F1F1" rx="11" ry="11" style="stroke:#181818;stroke-width:1;"/><path d="M21.4844,246.0625 Q19.625,245.3594 18.9688,244.5938 Q18.3281,243.8125 18.3281,242.5 Q18.3281,240.8125 19.4063,239.8438 Q20.4844,238.875 22.3594,238.875 Q23.2188,238.875 24.0625,239.0781 Q24.9219,239.2656 25.7656,239.6563 L25.7656,242.0469 Q24.9844,241.4844 24.1563,241.2031 Q23.3438,240.9063 22.5469,240.9063 Q21.6719,240.9063 21.1875,241.2656 Q20.7188,241.625 20.7188,242.2813 Q20.7188,242.7969 21.0625,243.1406 Q21.4063,243.4688 22.5,243.875 L23.5625,244.2813 Q25.0469,244.8281 25.75,245.7344 Q26.4688,246.6406 26.4688,248.0156 Q26.4688,249.8906 25.3594,250.8125 Q24.25,251.7344 22,251.7344 Q21.0781,251.7344 20.1563,251.5156 Q19.2344,251.2969 18.375,250.875 L18.375,248.3438 Q19.3438,249.0313 20.2656,249.375 Q21.1875,249.7188 22.0781,249.7188 Q22.9844,249.7188 23.4844,249.3125 Q23.9844,248.8906 23.9844,248.1563 Q23.9844,247.5938 23.6406,247.1875 Q23.3125,246.7656 22.6875,246.5156 L21.4844,246.0625 Z " fill="#000000"/><ellipse cx="41" cy="245" fill="#84BE84" rx="3" ry="3" style="stroke:#038048;stroke-width:1;"/><text fill="#000000" font-family="sans-serif" font-size="14" lengthAdjust="spacing" textLength="105.4854" x="47" y="250.3467">DurationRange</text><line style="stroke:#181818;stroke-width:0.5;" x1="8" x2="154.4854" y1="261.5" y2="261.5"/><text fill="#000000" font-family="sans-serif" font-size="14" lengthAdjust="spacing" textLength="96.373" x="13" y="278.4951">min: Duration</text><text fill="#000000" font-family="sans-serif" font-size="14" lengthAdjust="spacing" textLength="100.4746" x="13" y="294.792">max: Duration</text><line style="stroke:#181818;stroke-width:0.5;" x1="8" x2="154.4854" y1="302.0938" y2="302.0938"/></g><!--class Error--><g id="elem_Error"><rect codeLine="2" fill="#F1F1F1" height="113.1875" id="Error" rx="2.5" ry="2.5" style="stroke:#181818;stroke-width:0.5;" width="116.9863" x="190.5" y="213.5"/><ellipse cx="223.1884" cy="229.5" fill="#EB937F" rx="11" ry="11" style="stroke:#181818;stroke-width:1;"/><path d="M227.2978,235.5 L219.5791,235.5 L219.5791,223.1094 L227.2978,223.1094 L227.2978,225.2656 L222.0322,225.2656 L222.0322,227.9375 L226.7978,227.9375 L226.7978,230.0938 L222.0322,230.0938 L222.0322,233.3438 L227.2978,233.3438 L227.2978,235.5 Z " fill="#000000"/><ellipse cx="246.1192" cy="229" fill="#84BE84" rx="3" ry="3" style="stroke:#038048;stroke-width:1;"/><text fill="#000000" font-family="sans-serif" font-size="14" lengthAdjust="spacing" textLength="34.6787" x="252.1192" y="234.3467">Error</text><line style="stroke:#181818;stroke-width:0.5;" x1="191.5" x2="306.4863" y1="245.5" y2="245.5"/><text fill="#000000" font-family="sans-serif" font-size="14" lengthAdjust="spacing" textLength="104.9863" x="196.5" y="262.4951">BadParameter,</text><text fill="#000000" font-family="sans-serif" font-size="14" lengthAdjust="spacing" textLength="83.8496" x="196.5" y="278.792">NotAllowed,</text><text fill="#000000" font-family="sans-serif" font-size="14" lengthAdjust="spacing" textLength="102.7168" x="196.5" y="295.0889">OutOfMemory,</text><text fill="#000000" font-family="sans-serif" font-size="14" lengthAdjust="spacing" textLength="58.7412" x="196.5" y="311.3857">Generic,</text><line style="stroke:#181818;stroke-width:0.5;" x1="191.5" x2="306.4863" y1="318.6875" y2="318.6875"/></g><!--class Tag--><g id="elem_Tag"><rect codeLine="2" fill="#F1F1F1" height="64.2969" id="Tag" rx="2.5" ry="2.5" style="stroke:#181818;stroke-width:0.5;" width="302.4453" x="343" y="238"/><ellipse cx="471.4639" cy="254" fill="#ADD1B2" rx="11" ry="11" style="stroke:#181818;stroke-width:1;"/><path d="M474.4326,259.6406 Q473.8545,259.9375 473.2139,260.0781 Q472.5732,260.2344 471.8701,260.2344 Q469.3701,260.2344 468.042,258.5938 Q466.7295,256.9375 466.7295,253.8125 Q466.7295,250.6875 468.042,249.0313 Q469.3701,247.375 471.8701,247.375 Q472.5732,247.375 473.2139,247.5313 Q473.8701,247.6875 474.4326,247.9844 L474.4326,250.7031 Q473.8076,250.125 473.2139,249.8594 Q472.6201,249.5781 471.9951,249.5781 Q470.6514,249.5781 469.9639,250.6563 Q469.2764,251.7188 469.2764,253.8125 Q469.2764,255.9063 469.9639,256.9844 Q470.6514,258.0469 471.9951,258.0469 Q472.6201,258.0469 473.2139,257.7813 Q473.8076,257.5 474.4326,256.9219 L474.4326,259.6406 Z " fill="#000000"/><ellipse cx="496.9639" cy="253.5" fill="#84BE84" rx="3" ry="3" style="stroke:#038048;stroke-width:1;"/><text fill="#000000" font-family="sans-serif" font-size="14" lengthAdjust="spacing" textLength="26.0176" x="502.9639" y="258.8467">Tag</text><line style="stroke:#181818;stroke-width:0.5;" x1="344" x2="644.4453" y1="270" y2="270"/><line style="stroke:#181818;stroke-width:0.5;" x1="344" x2="644.4453" y1="278" y2="278"/><ellipse cx="354" cy="291.6484" fill="#84BE84" rx="3" ry="3" style="stroke:#038048;stroke-width:1;"/><text fill="#000000" font-family="sans-serif" font-size="14" lengthAdjust="spacing" textLength="276.4453" x="363" y="294.9951">new&lt;N: AsRef&lt;str&gt;&gt;(name: N) -&gt; Self</text></g><!--class DeadlineMonitor--><g id="elem_DeadlineMonitor"><rect codeLine="9" fill="#F1F1F1" height="178.375" id="DeadlineMonitor" rx="2.5" ry="2.5" style="stroke:#181818;stroke-width:0.5;" width="762.9346" x="680.5" y="181"/><ellipse cx="994.5459" cy="197" fill="#ADD1B2" rx="11" ry="11" style="stroke:#181818;stroke-width:1;"/><path d="M997.5146,202.6406 Q996.9365,202.9375 996.2959,203.0781 Q995.6553,203.2344 994.9521,203.2344 Q992.4521,203.2344 991.124,201.5938 Q989.8115,199.9375 989.8115,196.8125 Q989.8115,193.6875 991.124,192.0313 Q992.4521,190.375 994.9521,190.375 Q995.6553,190.375 996.2959,190.5313 Q996.9521,190.6875 997.5146,190.9844 L997.5146,193.7031 Q996.8896,193.125 996.2959,192.8594 Q995.7021,192.5781 995.0771,192.5781 Q993.7334,192.5781 993.0459,193.6563 Q992.3584,194.7188 992.3584,196.8125 Q992.3584,198.9063 993.0459,199.9844 Q993.7334,201.0469 995.0771,201.0469 Q995.7021,201.0469 996.2959,200.7813 Q996.8896,200.5 997.5146,199.9219 L997.5146,202.6406 Z " fill="#000000"/><ellipse cx="1020.0459" cy="196.5" fill="#84BE84" rx="3" ry="3" style="stroke:#038048;stroke-width:1;"/><text fill="#000000" font-family="sans-serif" font-size="14" lengthAdjust="spacing" textLength="115.3428" x="1026.0459" y="201.8467">DeadlineMonitor</text><line style="stroke:#181818;stroke-width:0.5;" x1="681.5" x2="1442.4346" y1="213" y2="213"/><line style="stroke:#181818;stroke-width:0.5;" x1="681.5" x2="1442.4346" y1="221" y2="221"/><ellipse cx="691.5" cy="234.6484" fill="#84BE84" rx="3" ry="3" style="stroke:#038048;stroke-width:1;"/><text fill="#000000" font-family="sans-serif" font-size="14" lengthAdjust="spacing" textLength="402.5615" x="700.5" y="237.9951">get_deadline(&amp;self, tag: Tag) -&gt; Result&lt;Deadline, Error&gt;</text><ellipse cx="691.5" cy="250.9453" fill="#84BE84" rx="3" ry="3" style="stroke:#038048;stroke-width:1;"/><text fill="#000000" font-family="sans-serif" font-size="14" lengthAdjust="spacing" textLength="493.4863" x="700.5" y="254.292">get_deadline_guard(&amp;self, tag: Tag) -&gt; Result&lt;DeadlineGuard, Error&gt;</text><ellipse cx="691.5" cy="267.2422" fill="#84BE84" rx="3" ry="3" style="stroke:#038048;stroke-width:1;"/><text fill="#000000" font-family="sans-serif" font-size="14" lengthAdjust="spacing" textLength="646.0098" x="700.5" y="270.5889">create_custom_deadline(&amp;self, duration_range: DurationRange) -&gt; Result&lt;Deadline, Error&gt;</text><ellipse cx="691.5" cy="283.5391" fill="#84BE84" rx="3" ry="3" style="stroke:#038048;stroke-width:1;"/><text fill="#000000" font-family="sans-serif" font-size="14" lengthAdjust="spacing" textLength="736.9346" x="700.5" y="286.8857">create_custom_deadline_guard(&amp;self, duration_range: DurationRange) -&gt; Result&lt;DeadlineGuard, Error&gt;</text><ellipse cx="691.5" cy="299.8359" fill="#84BE84" rx="3" ry="3" style="stroke:#038048;stroke-width:1;"/><text fill="#000000" font-family="sans-serif" font-size="14" lengthAdjust="spacing" textLength="241.5547" x="700.5" y="303.1826">enable(&amp;self) -&gt; Result&lt;(), Error&gt;</text><ellipse cx="691.5" cy="316.1328" fill="#84BE84" rx="3" ry="3" style="stroke:#038048;stroke-width:1;"/><text fill="#000000" font-family="sans-serif" font-size="14" lengthAdjust="spacing" textLength="244.1387" x="700.5" y="319.4795">disable(&amp;self) -&gt; Result&lt;(), Error&gt;</text><polygon fill="#4177AF" points="691.5,328.4297,687.5,334.4297,695.5,334.4297" style="stroke:#1963A0;stroke-width:1;"/><text fill="#000000" font-family="sans-serif" font-size="14" lengthAdjust="spacing" textLength="159.8789" x="700.5" y="335.7764">status(&amp;self) -&gt; Status</text><polygon fill="#4177AF" points="691.5,344.7266,687.5,350.7266,695.5,350.7266" style="stroke:#1963A0;stroke-width:1;"/><text fill="#000000" font-family="sans-serif" font-size="14" lengthAdjust="spacing" textLength="177.7822" x="700.5" y="352.0732">evaluate(&amp;self) -&gt; Status</text></g><!--class DeadlineMonitorBuilder--><g id="elem_DeadlineMonitorBuilder"><rect codeLine="8" fill="#F1F1F1" height="96.8906" id="DeadlineMonitorBuilder" rx="2.5" ry="2.5" style="stroke:#181818;stroke-width:0.5;" width="591.1816" x="75.5" y="7"/><ellipse cx="278.9131" cy="23" fill="#ADD1B2" rx="11" ry="11" style="stroke:#181818;stroke-width:1;"/><path d="M281.8818,28.6406 Q281.3037,28.9375 280.6631,29.0781 Q280.0225,29.2344 279.3193,29.2344 Q276.8193,29.2344 275.4912,27.5938 Q274.1787,25.9375 274.1787,22.8125 Q274.1787,19.6875 275.4912,18.0313 Q276.8193,16.375 279.3193,16.375 Q280.0225,16.375 280.6631,16.5313 Q281.3193,16.6875 281.8818,16.9844 L281.8818,19.7031 Q281.2568,19.125 280.6631,18.8594 Q280.0693,18.5781 279.4443,18.5781 Q278.1006,18.5781 277.4131,19.6563 Q276.7256,20.7188 276.7256,22.8125 Q276.7256,24.9063 277.4131,25.9844 Q278.1006,27.0469 279.4443,27.0469 Q280.0693,27.0469 280.6631,26.7813 Q281.2568,26.5 281.8818,25.9219 L281.8818,28.6406 Z " fill="#000000"/><ellipse cx="304.4131" cy="22.5" fill="#84BE84" rx="3" ry="3" style="stroke:#038048;stroke-width:1;"/><text fill="#000000" font-family="sans-serif" font-size="14" lengthAdjust="spacing" textLength="164.8555" x="310.4131" y="27.8467">DeadlineMonitorBuilder</text><line style="stroke:#181818;stroke-width:0.5;" x1="76.5" x2="665.6816" y1="39" y2="39"/><line style="stroke:#181818;stroke-width:0.5;" x1="76.5" x2="665.6816" y1="47" y2="47"/><ellipse cx="86.5" cy="60.6484" fill="#84BE84" rx="3" ry="3" style="stroke:#038048;stroke-width:1;"/><text fill="#000000" font-family="sans-serif" font-size="14" lengthAdjust="spacing" textLength="91.8613" x="95.5" y="63.9951">new() -&gt; Self</text><ellipse cx="86.5" cy="76.9453" fill="#84BE84" rx="3" ry="3" style="stroke:#038048;stroke-width:1;"/><text fill="#000000" font-family="sans-serif" font-size="14" lengthAdjust="spacing" textLength="565.1816" x="95.5" y="80.292">add_deadline(&amp;mut self, tag: Tag, duration_range: DurationRange) -&gt; &amp;mut Self</text><ellipse cx="86.5" cy="93.2422" fill="#84BE84" rx="3" ry="3" style="stroke:#038048;stroke-width:1;"/><text fill="#000000" font-family="sans-serif" font-size="14" lengthAdjust="spacing" textLength="322.0273" x="95.5" y="96.5889">build(self) -&gt; Result&lt;DeadlineMonitor, Error&gt;</text></g><!--link DeadlineMonitorBuilder to Error--><g id="link_DeadlineMonitorBuilder_Error"><path codeLine="16" d="M343.62,104.19 C325.07,136.49 303.4877,174.0968 284.0277,207.9868 " fill="transparent" id="DeadlineMonitorBuilder-to-Error" style="stroke:#181818;stroke-width:1;stroke-dasharray:7.0,7.0;"/><polygon fill="#181818" points="281.04,213.19,288.9904,207.377,283.5298,208.854,282.0528,203.3934,281.04,213.19" style="stroke:#181818;stroke-width:1;"/></g><!--link DeadlineMonitorBuilder to Tag--><g id="link_DeadlineMonitorBuilder_Tag"><path codeLine="17" d="M398.6,104.19 C422.26,145.06 452.6451,197.5467 472.9951,232.7167 " fill="transparent" id="DeadlineMonitorBuilder-to-Tag" style="stroke:#181818;stroke-width:1;stroke-dasharray:7.0,7.0;"/><polygon fill="#181818" points="476,237.91,474.9548,228.1168,473.4959,233.5823,468.0304,232.1233,476,237.91" style="stroke:#181818;stroke-width:1;"/></g><!--link DeadlineMonitorBuilder to DeadlineMonitor--><g id="link_DeadlineMonitorBuilder_DeadlineMonitor"><path codeLine="18" d="M525.64,104.06 C599.34,126.72 684.195,152.8166 769.795,179.1366 " fill="transparent" id="DeadlineMonitorBuilder-to-DeadlineMonitor" style="stroke:#181818;stroke-width:1;stroke-dasharray:7.0,7.0;"/><polygon fill="#181818" points="775.53,180.9,768.1031,174.4316,770.7508,179.4305,765.7519,182.0783,775.53,180.9" style="stroke:#181818;stroke-width:1;"/><text fill="#000000" font-family="sans-serif" font-size="13" lengthAdjust="spacing" textLength="81.6943" x="677" y="147.0669">&#171;consumes&#187;</text></g><!--link DeadlineMonitorBuilder to DurationRange--><g id="link_DeadlineMonitorBuilder_DurationRange"><path codeLine="19" d="M287.09,104.11 C250.87,125.95 208.7,153.16 173,181 C154.18,195.68 139.1265,209.4114 123.0865,225.2714 " fill="transparent" id="DeadlineMonitorBuilder-to-DurationRange" style="stroke:#181818;stroke-width:1;stroke-dasharray:7.0,7.0;"/><polygon fill="#181818" points="118.82,229.49,128.0322,226.0064,122.3754,225.9745,122.4073,220.3177,118.82,229.49" style="stroke:#181818;stroke-width:1;"/></g><!--SRC=[XP2xJiGm44LxVyMuGK4RyW5Hv0AMaYRGHxFnRB3a1_9358X_nquYj1kqmOtbkNElvmnNTjH94hoRGIQFKJaxUBGJDH_9QCOlTFBU-R_bYDDrCQGJI3Ce6ycVSLoI-95GQcNfnLaLdN_I609ZF4JqiJWs-cDIMjBQTXZBTQC5lXZaSx3qMTt3Wu1NqcTOQYZb85TNTMTIX9356lBCBRpXLCCrT0l7zTsNvnmtsqhc4daglrObPbRxZAjZjncjXkUoBC6-6IShCz__g3rfTeEmQSGIkDUGSVRaZGGjTDteR4Y6WX2xpikL_FBy0000]--></g></svg>