<svg xmlns="http://www.w3.org/2000/svg" xmlns:xlink="http://www.w3.org/1999/xlink" contentStyleType="text/css" data-diagram-type="SEQUENCE" height="863px" preserveAspectRatio="none" style="width:862px;height:863px;background:#FFFFFF;" version="1.1" viewBox="0 0 862 863" width="862px" zoomAndPan="magnify"><defs/><g><rect fill="#D3D3D3" height="851.9922" style="stroke:#181818;stroke-width:0.5;" width="418.2104" x="16" y="6"/><text fill="#000000" font-family="sans-serif" font-size="13" font-weight="bold" lengthAdjust="spacing" textLength="144.314" x="152.9482" y="18.0669">Application Process</text><rect fill="transparent" height="585" style="stroke:#000000;stroke-width:1.5;" width="845.8667" x="10" y="176.6953"/><g><title>User</title><rect fill="transparent" height="677.2656" width="8" x="34.9551" y="101.4297"/><line style="stroke:#181818;stroke-width:0.5;stroke-dasharray:5.0,5.0;" x1="38" x2="38" y1="101.4297" y2="778.6953"/></g><g><title>HeartbeatMonitor</title><rect fill="transparent" height="677.2656" width="8" x="156.3916" y="101.4297"/><line style="stroke:#181818;stroke-width:0.5;stroke-dasharray:5.0,5.0;" x1="159.5161" x2="159.5161" y1="101.4297" y2="778.6953"/></g><g><title>HealthMonitor</title><rect fill="transparent" height="677.2656" width="8" x="369.6157" y="101.4297"/><line style="stroke:#181818;stroke-width:0.5;stroke-dasharray:5.0,5.0;" x1="373.021" x2="373.021" y1="101.4297" y2="778.6953"/></g><g><title>LaunchManager</title><rect fill="transparent" height="677.2656" width="8" x="537.6885" y="101.4297"/><line style="stroke:#181818;stroke-width:0.5;stroke-dasharray:5.0,5.0;" x1="541.6577" x2="541.6577" y1="101.4297" y2="778.6953"/></g><text fill="#000000" font-family="sans-serif" font-size="14" lengthAdjust="spacing" textLength="31.9102" x="20" y="98.1279">User</text><ellipse cx="38.9551" cy="33.6328" fill="#E2E2F0" rx="8" ry="8" style="stroke:#181818;stroke-width:0.5;"/><path d="M38.9551,41.6328 L38.9551,68.6328 M25.9551,49.6328 L51.9551,49.6328 M38.9551,68.6328 L25.9551,83.6328 M38.9551,68.6328 L51.9551,83.6328 " fill="transparent" style="stroke:#181818;stroke-width:0.5;"/><text fill="#000000" font-family="sans-serif" font-size="14" lengthAdjust="spacing" textLength="31.9102" x="20" y="790.6904">User</text><ellipse cx="38.9551" cy="802.4922" fill="#E2E2F0" rx="8" ry="8" style="stroke:#181818;stroke-width:0.5;"/><path d="M38.9551,810.4922 L38.9551,837.4922 M25.9551,818.4922 L51.9551,818.4922 M38.9551,837.4922 L25.9551,852.4922 M38.9551,837.4922 L51.9551,852.4922 " fill="transparent" style="stroke:#181818;stroke-width:0.5;"/><rect fill="#E2E2F0" height="30.2969" rx="2.5" ry="2.5" style="stroke:#181818;stroke-width:0.5;" width="137.751" x="91.5161" y="70.1328"/><text fill="#000000" font-family="sans-serif" font-size="14" lengthAdjust="spacing" textLength="123.751" x="98.5161" y="90.1279">HeartbeatMonitor</text><rect fill="#E2E2F0" height="30.2969" rx="2.5" ry="2.5" style="stroke:#181818;stroke-width:0.5;" width="137.751" x="91.5161" y="777.6953"/><text fill="#000000" font-family="sans-serif" font-size="14" lengthAdjust="spacing" textLength="123.751" x="98.5161" y="797.6904">HeartbeatMonitor</text><rect fill="#E2E2F0" height="30.2969" rx="2.5" ry="2.5" style="stroke:#181818;stroke-width:0.5;" width="113.1895" x="317.021" y="70.1328"/><text fill="#000000" font-family="sans-serif" font-size="14" lengthAdjust="spacing" textLength="99.1895" x="324.021" y="90.1279">HealthMonitor</text><rect fill="#E2E2F0" height="30.2969" rx="2.5" ry="2.5" style="stroke:#181818;stroke-width:0.5;" width="113.1895" x="317.021" y="777.6953"/><text fill="#000000" font-family="sans-serif" font-size="14" lengthAdjust="spacing" textLength="99.1895" x="324.021" y="797.6904">HealthMonitor</text><rect fill="#E2E2F0" height="30.2969" rx="2.5" ry="2.5" style="stroke:#181818;stroke-width:0.5;" width="126.0615" x="478.6577" y="70.1328"/><text fill="#000000" font-family="sans-serif" font-size="14" lengthAdjust="spacing" textLength="112.0615" x="485.6577" y="90.1279">LaunchManager</text><rect fill="#E2E2F0" height="30.2969" rx="2.5" ry="2.5" style="stroke:#181818;stroke-width:0.5;" width="126.0615" x="478.6577" y="777.6953"/><text fill="#000000" font-family="sans-serif" font-size="14" lengthAdjust="spacing" textLength="112.0615" x="485.6577" y="797.6904">LaunchManager</text><polygon fill="#181818" points="361.6157,128.5625,371.6157,132.5625,361.6157,136.5625,365.6157,132.5625" style="stroke:#181818;stroke-width:1;"/><line style="stroke:#181818;stroke-width:1;" x1="38.9551" x2="367.6157" y1="132.5625" y2="132.5625"/><text fill="#000000" font-family="sans-serif" font-size="13" lengthAdjust="spacing" textLength="142.2129" x="45.9551" y="127.4966">Get HeartbeatMonitor</text><polygon fill="#181818" points="49.9551,157.6953,39.9551,161.6953,49.9551,165.6953,45.9551,161.6953" style="stroke:#181818;stroke-width:1;"/><line style="stroke:#181818;stroke-width:1;stroke-dasharray:2.0,2.0;" x1="43.9551" x2="372.6157" y1="161.6953" y2="161.6953"/><text fill="#000000" font-family="sans-serif" font-size="13" lengthAdjust="spacing" textLength="310.6606" x="55.9551" y="156.6294">HeartbeatMonitor instance (enabled by default)</text><path d="M10,176.6953 L74.4429,176.6953 L74.4429,183.8281 L64.4429,193.8281 L10,193.8281 L10,176.6953 " fill="#EEEEEE" style="stroke:#000000;stroke-width:1.5;"/><rect fill="transparent" height="585" style="stroke:#000000;stroke-width:1.5;" width="845.8667" x="10" y="176.6953"/><text fill="#000000" font-family="sans-serif" font-size="13" font-weight="bold" lengthAdjust="spacing" textLength="19.4429" x="25" y="189.7622">alt</text><text fill="#000000" font-family="sans-serif" font-size="11" font-weight="bold" lengthAdjust="spacing" textLength="213.2754" x="89.4429" y="188.9058">[Heartbeat sent within cycle time]</text><polygon fill="#181818" points="148.3916,210.9609,158.3916,214.9609,148.3916,218.9609,152.3916,214.9609" style="stroke:#181818;stroke-width:1;"/><line style="stroke:#181818;stroke-width:1;" x1="38.9551" x2="154.3916" y1="214.9609" y2="214.9609"/><text fill="#000000" font-family="sans-serif" font-size="13" lengthAdjust="spacing" textLength="65.4951" x="45.9551" y="209.895">Heartbeat</text><polygon fill="#181818" points="49.9551,240.0938,39.9551,244.0938,49.9551,248.0938,45.9551,244.0938" style="stroke:#181818;stroke-width:1;"/><line style="stroke:#181818;stroke-width:1;stroke-dasharray:2.0,2.0;" x1="43.9551" x2="159.3916" y1="244.0938" y2="244.0938"/><text fill="#000000" font-family="sans-serif" font-size="13" lengthAdjust="spacing" textLength="17.7607" x="55.9551" y="239.0278">Ok</text><polygon fill="#181818" points="171.3916,272.2266,161.3916,276.2266,171.3916,280.2266,167.3916,276.2266" style="stroke:#181818;stroke-width:1;"/><line style="stroke:#181818;stroke-width:1;" x1="165.3916" x2="372.6157" y1="276.2266" y2="276.2266"/><text fill="#000000" font-family="sans-serif" font-size="13" lengthAdjust="spacing" textLength="108.0815" x="177.3916" y="271.1606">Check heartbeat</text><path d="M378,257.0938 L378,282.0938 L710,282.0938 L710,267.0938 L700,257.0938 L378,257.0938 " fill="#FEFFDD" style="stroke:#181818;stroke-width:0.5;"/><path d="M700,257.0938 L700,267.0938 L710,267.0938 L700,257.0938 " fill="#FEFFDD" style="stroke:#181818;stroke-width:0.5;"/><text fill="#000000" font-family="sans-serif" font-size="13" lengthAdjust="spacing" textLength="311.4858" x="384" y="274.1606">HealthMonitor does this in a background thread</text><polygon fill="#181818" points="361.6157,304.3594,371.6157,308.3594,361.6157,312.3594,365.6157,308.3594" style="stroke:#181818;stroke-width:1;"/><line style="stroke:#181818;stroke-width:1;stroke-dasharray:2.0,2.0;" x1="160.3916" x2="367.6157" y1="308.3594" y2="308.3594"/><text fill="#000000" font-family="sans-serif" font-size="13" lengthAdjust="spacing" textLength="17.7607" x="167.3916" y="303.2935">Ok</text><polygon fill="#181818" points="529.6885,333.4922,539.6885,337.4922,529.6885,341.4922,533.6885,337.4922" style="stroke:#181818;stroke-width:1;"/><line style="stroke:#181818;stroke-width:1;stroke-dasharray:2.0,2.0;" x1="373.6157" x2="535.6885" y1="337.4922" y2="337.4922"/><text fill="#000000" font-family="sans-serif" font-size="13" lengthAdjust="spacing" textLength="144.0728" x="380.6157" y="332.4263">Alive notification (IPC)</text><line style="stroke:#000000;stroke-width:1;stroke-dasharray:2.0,2.0;" x1="10" x2="855.8667" y1="346.4922" y2="346.4922"/><text fill="#000000" font-family="sans-serif" font-size="11" font-weight="bold" lengthAdjust="spacing" textLength="237.7515" x="15" y="356.7026">[Heartbeat not sent within cycle time]</text><polygon fill="#181818" points="171.3916,380.4297,161.3916,384.4297,171.3916,388.4297,167.3916,384.4297" style="stroke:#181818;stroke-width:1;"/><line style="stroke:#181818;stroke-width:1;" x1="165.3916" x2="372.6157" y1="384.4297" y2="384.4297"/><text fill="#000000" font-family="sans-serif" font-size="13" lengthAdjust="spacing" textLength="108.0815" x="177.3916" y="379.3638">Check heartbeat</text><path d="M378,365.2969 L378,390.2969 L710,390.2969 L710,375.2969 L700,365.2969 L378,365.2969 " fill="#FEFFDD" style="stroke:#181818;stroke-width:0.5;"/><path d="M700,365.2969 L700,375.2969 L710,375.2969 L700,365.2969 " fill="#FEFFDD" style="stroke:#181818;stroke-width:0.5;"/><text fill="#000000" font-family="sans-serif" font-size="13" lengthAdjust="spacing" textLength="311.4858" x="384" y="382.3638">HealthMonitor does this in a background thread</text><line style="stroke:#181818;stroke-width:1;" x1="160.3916" x2="202.3916" y1="416.5625" y2="416.5625"/><line style="stroke:#181818;stroke-width:1;" x1="202.3916" x2="202.3916" y1="416.5625" y2="429.5625"/><line style="stroke:#181818;stroke-width:1;" x1="161.3916" x2="202.3916" y1="429.5625" y2="429.5625"/><polygon fill="#181818" points="171.3916,425.5625,161.3916,429.5625,171.3916,433.5625,167.3916,429.5625" style="stroke:#181818;stroke-width:1;"/><text fill="#000000" font-family="sans-serif" font-size="13" lengthAdjust="spacing" textLength="168.1938" x="167.3916" y="411.4966">HeartbeatMonitor expired</text><polygon fill="#181818" points="361.6157,457.6953,371.6157,461.6953,361.6157,465.6953,365.6157,461.6953" style="stroke:#181818;stroke-width:1;"/><line style="stroke:#181818;stroke-width:1;stroke-dasharray:2.0,2.0;" x1="160.3916" x2="367.6157" y1="461.6953" y2="461.6953"/><text fill="#000000" font-family="sans-serif" font-size="13" lengthAdjust="spacing" textLength="38.9175" x="167.3916" y="456.6294">Failed</text><path d="M378,442.5625 L378,467.5625 L580,467.5625 L580,452.5625 L570,442.5625 L378,442.5625 " fill="#FEFFDD" style="stroke:#181818;stroke-width:0.5;"/><path d="M570,442.5625 L570,452.5625 L580,452.5625 L570,442.5625 " fill="#FEFFDD" style="stroke:#181818;stroke-width:0.5;"/><text fill="#000000" font-family="sans-serif" font-size="13" lengthAdjust="spacing" textLength="181.2256" x="384" y="459.6294">Alive notification is not sent</text><line style="stroke:#000000;stroke-width:1;stroke-dasharray:2.0,2.0;" x1="10" x2="855.8667" y1="473.6953" y2="473.6953"/><text fill="#000000" font-family="sans-serif" font-size="11" font-weight="bold" lengthAdjust="spacing" textLength="197.0171" x="15" y="483.9058">[Heartbeat sent while disabled]</text><polygon fill="#181818" points="148.3916,504.6328,158.3916,508.6328,148.3916,512.6328,152.3916,508.6328" style="stroke:#181818;stroke-width:1;"/><line style="stroke:#181818;stroke-width:1;" x1="38.9551" x2="154.3916" y1="508.6328" y2="508.6328"/><text fill="#000000" font-family="sans-serif" font-size="13" lengthAdjust="spacing" textLength="48.2231" x="45.9551" y="503.5669">Disable</text><polygon fill="#181818" points="49.9551,533.7656,39.9551,537.7656,49.9551,541.7656,45.9551,537.7656" style="stroke:#181818;stroke-width:1;"/><line style="stroke:#181818;stroke-width:1;stroke-dasharray:2.0,2.0;" x1="43.9551" x2="159.3916" y1="537.7656" y2="537.7656"/><text fill="#000000" font-family="sans-serif" font-size="13" lengthAdjust="spacing" textLength="17.7607" x="55.9551" y="532.6997">Ok</text><polygon fill="#181818" points="148.3916,562.8984,158.3916,566.8984,148.3916,570.8984,152.3916,566.8984" style="stroke:#181818;stroke-width:1;"/><line style="stroke:#181818;stroke-width:1;" x1="38.9551" x2="154.3916" y1="566.8984" y2="566.8984"/><text fill="#000000" font-family="sans-serif" font-size="13" lengthAdjust="spacing" textLength="65.4951" x="45.9551" y="561.8325">Heartbeat</text><polygon fill="#181818" points="49.9551,592.0313,39.9551,596.0313,49.9551,600.0313,45.9551,596.0313" style="stroke:#181818;stroke-width:1;"/><line style="stroke:#181818;stroke-width:1;stroke-dasharray:2.0,2.0;" x1="43.9551" x2="159.3916" y1="596.0313" y2="596.0313"/><text fill="#000000" font-family="sans-serif" font-size="13" lengthAdjust="spacing" textLength="97.4365" x="55.9551" y="590.9653">Error::Disabled</text><polygon fill="#181818" points="171.3916,624.1641,161.3916,628.1641,171.3916,632.1641,167.3916,628.1641" style="stroke:#181818;stroke-width:1;"/><line style="stroke:#181818;stroke-width:1;" x1="165.3916" x2="372.6157" y1="628.1641" y2="628.1641"/><text fill="#000000" font-family="sans-serif" font-size="13" lengthAdjust="spacing" textLength="108.0815" x="177.3916" y="623.0981">Check heartbeat</text><path d="M378,609.0313 L378,634.0313 L710,634.0313 L710,619.0313 L700,609.0313 L378,609.0313 " fill="#FEFFDD" style="stroke:#181818;stroke-width:0.5;"/><path d="M700,609.0313 L700,619.0313 L710,619.0313 L700,609.0313 " fill="#FEFFDD" style="stroke:#181818;stroke-width:0.5;"/><text fill="#000000" font-family="sans-serif" font-size="13" lengthAdjust="spacing" textLength="311.4858" x="384" y="626.0981">HealthMonitor does this in a background thread</text><polygon fill="#181818" points="361.6157,659.2969,371.6157,663.2969,361.6157,667.2969,365.6157,663.2969" style="stroke:#181818;stroke-width:1;"/><line style="stroke:#181818;stroke-width:1;stroke-dasharray:2.0,2.0;" x1="160.3916" x2="367.6157" y1="663.2969" y2="663.2969"/><text fill="#000000" font-family="sans-serif" font-size="13" lengthAdjust="spacing" textLength="17.7607" x="167.3916" y="658.231">Ok</text><path d="M378,644.1641 L378,669.1641 L840,669.1641 L840,654.1641 L830,644.1641 L378,644.1641 " fill="#FEFFDD" style="stroke:#181818;stroke-width:0.5;"/><path d="M830,644.1641 L830,654.1641 L840,654.1641 L830,644.1641 " fill="#FEFFDD" style="stroke:#181818;stroke-width:0.5;"/><text fill="#000000" font-family="sans-serif" font-size="13" lengthAdjust="spacing" textLength="441.251" x="384" y="661.231">The HeartbeatMonitor is disabled, the heartbeat is and not checked</text><polygon fill="#181818" points="529.6885,691.4297,539.6885,695.4297,529.6885,699.4297,533.6885,695.4297" style="stroke:#181818;stroke-width:1;"/><line style="stroke:#181818;stroke-width:1;stroke-dasharray:2.0,2.0;" x1="373.6157" x2="535.6885" y1="695.4297" y2="695.4297"/><text fill="#000000" font-family="sans-serif" font-size="13" lengthAdjust="spacing" textLength="144.0728" x="380.6157" y="690.3638">Alive notification (IPC)</text><polygon fill="#181818" points="148.3916,720.5625,158.3916,724.5625,148.3916,728.5625,152.3916,724.5625" style="stroke:#181818;stroke-width:1;"/><line style="stroke:#181818;stroke-width:1;" x1="38.9551" x2="154.3916" y1="724.5625" y2="724.5625"/><text fill="#000000" font-family="sans-serif" font-size="13" lengthAdjust="spacing" textLength="44.2813" x="45.9551" y="719.4966">Enable</text><polygon fill="#181818" points="49.9551,749.6953,39.9551,753.6953,49.9551,757.6953,45.9551,753.6953" style="stroke:#181818;stroke-width:1;"/><line style="stroke:#181818;stroke-width:1;stroke-dasharray:2.0,2.0;" x1="43.9551" x2="159.3916" y1="753.6953" y2="753.6953"/><text fill="#000000" font-family="sans-serif" font-size="13" lengthAdjust="spacing" textLength="17.7607" x="55.9551" y="748.6294">Ok</text><!--SRC=[lLFDRi8m3BxdAQpkmgJn0Xmc8M1i4cWSjWTmKqCYqgHAqWtUVcwXq1ycJjlHzUVlnqvJTu1aMXH6IupQMTXu9oc411vMUgVYqkDHe8pEG_8Po2U00KfHe8zQwW9jXEILk4e9uzfPpSWQez9yW39HTI2v89j1wWwY2rrXQQLQeyNTMT7aGfGmVkOPcC2I8lH51NV632Yvt- -1jY6YbGGZifWQOj4ZPBJ5qiH78TZOTGO2iOTl7PMs88_I44ITKwEVvcq1KTMDxFk-Dj60Peha7jG5QbqayDLIJmpNRK3cA00B1dOA22dA_SwxafSJbIVCBZ9r_BCEbwOgfqP_4J2xtZP77BrjPfoBJA1MC8Ry6kvFZG_MrepJeT2UUl5UKFE5Mget8x9aasSGz1HICGraEjG7xvnlVlhOFzxT0o-yTtuocJUS_tNj3jU7eXiFF5oIFZ4BNOrKBMJgQbcoydZsVVVrjBQniBVMLVsyuWS0]--></g></svg>