<svg xmlns="http://www.w3.org/2000/svg" xmlns:xlink="http://www.w3.org/1999/xlink" contentStyleType="text/css" data-diagram-type="CLASS" height="333px" preserveAspectRatio="none" style="width:438px;height:333px;background:#FFFFFF;" version="1.1" viewBox="0 0 438 333" width="438px" zoomAndPan="magnify"><defs/><g><!--class Status--><g id="elem_Status"><rect codeLine="2" fill="#F1F1F1" height="113.1875" id="Status" rx="2.5" ry="2.5" style="stroke:#181818;stroke-width:0.5;" width="87.6113" x="7" y="213"/><ellipse cx="22" cy="229" fill="#EB937F" rx="11" ry="11" style="stroke:#181818;stroke-width:1;"/><path d="M26.1094,235 L18.3906,235 L18.3906,222.6094 L26.1094,222.6094 L26.1094,224.7656 L20.8438,224.7656 L20.8438,227.4375 L25.6094,227.4375 L25.6094,229.5938 L20.8438,229.5938 L20.8438,232.8438 L26.1094,232.8438 L26.1094,235 Z " fill="#000000"/><ellipse cx="41" cy="228.5" fill="#84BE84" rx="3" ry="3" style="stroke:#038048;stroke-width:1;"/><text fill="#000000" font-family="sans-serif" font-size="14" lengthAdjust="spacing" textLength="44.6113" x="47" y="233.8467">Status</text><line style="stroke:#181818;stroke-width:0.5;" x1="8" x2="93.6113" y1="245" y2="245"/><text fill="#000000" font-family="sans-serif" font-size="14" lengthAdjust="spacing" textLength="57.9961" x="13" y="261.9951">Running</text><text fill="#000000" font-family="sans-serif" font-size="14" lengthAdjust="spacing" textLength="60.8193" x="13" y="278.292">Disabled</text><text fill="#000000" font-family="sans-serif" font-size="14" lengthAdjust="spacing" textLength="41.9111" x="13" y="294.5889">Failed</text><text fill="#000000" font-family="sans-serif" font-size="14" lengthAdjust="spacing" textLength="58.2148" x="13" y="310.8857">Stopped</text><line style="stroke:#181818;stroke-width:0.5;" x1="8" x2="93.6113" y1="318.1875" y2="318.1875"/></g><!--class Error--><g id="elem_Error"><rect codeLine="9" fill="#F1F1F1" height="113.1875" id="Error" rx="2.5" ry="2.5" style="stroke:#181818;stroke-width:0.5;" width="116.9863" x="130.5" y="213"/><ellipse cx="163.1884" cy="229" fill="#EB937F" rx="11" ry="11" style="stroke:#181818;stroke-width:1;"/><path d="M167.2978,235 L159.5791,235 L159.5791,222.6094 L167.2978,222.6094 L167.2978,224.7656 L162.0322,224.7656 L162.0322,227.4375 L166.7978,227.4375 L166.7978,229.5938 L162.0322,229.5938 L162.0322,232.8438 L167.2978,232.8438 L167.2978,235 Z " fill="#000000"/><ellipse cx="186.1192" cy="228.5" fill="#84BE84" rx="3" ry="3" style="stroke:#038048;stroke-width:1;"/><text fill="#000000" font-family="sans-serif" font-size="14" lengthAdjust="spacing" textLength="34.6787" x="192.1192" y="233.8467">Error</text><line style="stroke:#181818;stroke-width:0.5;" x1="131.5" x2="246.4863" y1="245" y2="245"/><text fill="#000000" font-family="sans-serif" font-size="14" lengthAdjust="spacing" textLength="104.9863" x="136.5" y="261.9951">BadParameter,</text><text fill="#000000" font-family="sans-serif" font-size="14" lengthAdjust="spacing" textLength="83.8496" x="136.5" y="278.292">NotAllowed,</text><text fill="#000000" font-family="sans-serif" font-size="14" lengthAdjust="spacing" textLength="102.7168" x="136.5" y="294.5889">OutOfMemory,</text><text fill="#000000" font-family="sans-serif" font-size="14" lengthAdjust="spacing" textLength="58.7412" x="136.5" y="310.8857">Generic,</text><line style="stroke:#181818;stroke-width:0.5;" x1="131.5" x2="246.4863" y1="318.1875" y2="318.1875"/></g><!--class DurationRange--><g id="elem_DurationRange"><rect codeLine="16" fill="#F1F1F1" height="80.5938" id="DurationRange" rx="2.5" ry="2.5" style="stroke:#181818;stroke-width:0.5;" width="148.4854" x="283" y="229"/><ellipse cx="298" cy="245" fill="#F1F1F1" rx="11" ry="11" style="stroke:#181818;stroke-width:1;"/><path d="M297.4844,245.5625 Q295.625,244.8594 294.9688,244.0938 Q294.3281,243.3125 294.3281,242 Q294.3281,240.3125 295.4063,239.3438 Q296.4844,238.375 298.3594,238.375 Q299.2188,238.375 300.0625,238.5781 Q300.9219,238.7656 301.7656,239.1563 L301.7656,241.5469 Q300.9844,240.9844 300.1563,240.7031 Q299.3438,240.4063 298.5469,240.4063 Q297.6719,240.4063 297.1875,240.7656 Q296.7188,241.125 296.7188,241.7813 Q296.7188,242.2969 297.0625,242.6406 Q297.4063,242.9688 298.5,243.375 L299.5625,243.7813 Q301.0469,244.3281 301.75,245.2344 Q302.4688,246.1406 302.4688,247.5156 Q302.4688,249.3906 301.3594,250.3125 Q300.25,251.2344 298,251.2344 Q297.0781,251.2344 296.1563,251.0156 Q295.2344,250.7969 294.375,250.375 L294.375,247.8438 Q295.3438,248.5313 296.2656,248.875 Q297.1875,249.2188 298.0781,249.2188 Q298.9844,249.2188 299.4844,248.8125 Q299.9844,248.3906 299.9844,247.6563 Q299.9844,247.0938 299.6406,246.6875 Q299.3125,246.2656 298.6875,246.0156 L297.4844,245.5625 Z " fill="#000000"/><ellipse cx="317" cy="244.5" fill="#84BE84" rx="3" ry="3" style="stroke:#038048;stroke-width:1;"/><text fill="#000000" font-family="sans-serif" font-size="14" lengthAdjust="spacing" textLength="105.4854" x="323" y="249.8467">DurationRange</text><line style="stroke:#181818;stroke-width:0.5;" x1="284" x2="430.4854" y1="261" y2="261"/><text fill="#000000" font-family="sans-serif" font-size="14" lengthAdjust="spacing" textLength="96.373" x="289" y="277.9951">min: Duration</text><text fill="#000000" font-family="sans-serif" font-size="14" lengthAdjust="spacing" textLength="100.4746" x="289" y="294.292">max: Duration</text><line style="stroke:#181818;stroke-width:0.5;" x1="284" x2="430.4854" y1="301.5938" y2="301.5938"/></g><!--class HeartbeatMonitor--><g id="elem_HeartbeatMonitor"><rect codeLine="22" fill="#F1F1F1" height="129.4844" id="HeartbeatMonitor" rx="2.5" ry="2.5" style="stroke:#181818;stroke-width:0.5;" width="339.1338" x="19.5" y="7"/><ellipse cx="117.4414" cy="23" fill="#ADD1B2" rx="11" ry="11" style="stroke:#181818;stroke-width:1;"/><path d="M120.4102,28.6406 Q119.832,28.9375 119.1914,29.0781 Q118.5508,29.2344 117.8477,29.2344 Q115.3477,29.2344 114.0195,27.5938 Q112.707,25.9375 112.707,22.8125 Q112.707,19.6875 114.0195,18.0313 Q115.3477,16.375 117.8477,16.375 Q118.5508,16.375 119.1914,16.5313 Q119.8477,16.6875 120.4102,16.9844 L120.4102,19.7031 Q119.7852,19.125 119.1914,18.8594 Q118.5977,18.5781 117.9727,18.5781 Q116.6289,18.5781 115.9414,19.6563 Q115.2539,20.7188 115.2539,22.8125 Q115.2539,24.9063 115.9414,25.9844 Q116.6289,27.0469 117.9727,27.0469 Q118.5977,27.0469 119.1914,26.7813 Q119.7852,26.5 120.4102,25.9219 L120.4102,28.6406 Z " fill="#000000"/><ellipse cx="142.9414" cy="22.5" fill="#84BE84" rx="3" ry="3" style="stroke:#038048;stroke-width:1;"/><text fill="#000000" font-family="sans-serif" font-size="14" lengthAdjust="spacing" textLength="123.751" x="148.9414" y="27.8467">HeartbeatMonitor</text><line style="stroke:#181818;stroke-width:0.5;" x1="20.5" x2="357.6338" y1="39" y2="39"/><line style="stroke:#181818;stroke-width:0.5;" x1="20.5" x2="357.6338" y1="47" y2="47"/><ellipse cx="30.5" cy="60.6484" fill="#84BE84" rx="3" ry="3" style="stroke:#038048;stroke-width:1;"/><text fill="#000000" font-family="sans-serif" font-size="14" lengthAdjust="spacing" textLength="313.1338" x="39.5" y="63.9951">new(duration_range: DurationRange) -&gt; Self</text><ellipse cx="30.5" cy="76.9453" fill="#84BE84" rx="3" ry="3" style="stroke:#038048;stroke-width:1;"/><text fill="#000000" font-family="sans-serif" font-size="14" lengthAdjust="spacing" textLength="303.6455" x="39.5" y="80.292">send_heartbeat(&amp;self) -&gt; Result&lt;(), Error&gt;</text><ellipse cx="30.5" cy="93.2422" fill="#84BE84" rx="3" ry="3" style="stroke:#038048;stroke-width:1;"/><text fill="#000000" font-family="sans-serif" font-size="14" lengthAdjust="spacing" textLength="241.5547" x="39.5" y="96.5889">enable(&amp;self) -&gt; Result&lt;(), Error&gt;</text><ellipse cx="30.5" cy="109.5391" fill="#84BE84" rx="3" ry="3" style="stroke:#038048;stroke-width:1;"/><text fill="#000000" font-family="sans-serif" font-size="14" lengthAdjust="spacing" textLength="244.1387" x="39.5" y="112.8857">disable(&amp;self) -&gt; Result&lt;(), Error&gt;</text><polygon fill="#4177AF" points="30.5,121.8359,26.5,127.8359,34.5,127.8359" style="stroke:#1963A0;stroke-width:1;"/><text fill="#000000" font-family="sans-serif" font-size="14" lengthAdjust="spacing" textLength="147.1436" x="39.5" y="129.1826">step(&amp;self) -&gt; Status</text></g><!--reverse link HeartbeatMonitor to Status--><g id="link_HeartbeatMonitor_Status"><path codeLine="30" d="M137.2892,145.9502 C119.8892,170.6502 107.06,188.88 90.24,212.77 " fill="transparent" id="HeartbeatMonitor-backto-Status" style="stroke:#181818;stroke-width:1;"/><polygon fill="#181818" points="144.2,136.14,137.4745,138.7415,137.2892,145.9502,144.0147,143.3487,144.2,136.14" style="stroke:#181818;stroke-width:1;"/><text fill="#000000" font-family="sans-serif" font-size="13" lengthAdjust="spacing" textLength="33.5981" x="121" y="179.0669">owns</text></g><!--link HeartbeatMonitor to Error--><g id="link_HeartbeatMonitor_Error"><path codeLine="31" d="M189,136.14 C189,160.84 189,182.88 189,206.77 " fill="transparent" id="HeartbeatMonitor-to-Error" style="stroke:#181818;stroke-width:1;stroke-dasharray:7.0,7.0;"/><polygon fill="#181818" points="189,212.77,193,203.77,189,207.77,185,203.77,189,212.77" style="stroke:#181818;stroke-width:1;"/></g><!--link HeartbeatMonitor to DurationRange--><g id="link_HeartbeatMonitor_DurationRange"><path codeLine="32" d="M243.54,136.14 C269.7,166.65 296.3154,197.7043 319.1054,224.2943 " fill="transparent" id="HeartbeatMonitor-to-DurationRange" style="stroke:#181818;stroke-width:1;stroke-dasharray:7.0,7.0;"/><polygon fill="#181818" points="323.01,228.85,320.1902,219.4134,319.7562,225.0536,314.116,224.6196,323.01,228.85" style="stroke:#181818;stroke-width:1;"/></g><!--SRC=[XP7TQiCm38NlynI-6kcIz07226nqFpTTH_80HOtLrk38mPR9njYUVOtTb9OEwYlfwFEn9ML8lXCD0tidlXDnEBKdKhGByK8vs6YK8Na1DOKDcxu_n3z9aWM7PskDFHeyWVm02nqosZmexuOVjJO3ofYlFA-sI-oC_Oh2An9QrUR1qB7rBOk5jy3AK0sqmoHQTuhAKo4gy7ccZDTR3Sw9DmJB6mHU6b9y-bj6EAJoYA_jQ5rUlZGJHIKQrDl8EoIvtazcwPqxL09Ie_EQ7z9P7fkl8eyq3kms9-DaRuA_Zh4_e-AgnaQlEhmlYccJfJ03kMjaFg-Y-V-bYq7y0G00]--></g></svg>