<svg xmlns="http://www.w3.org/2000/svg" xmlns:xlink="http://www.w3.org/1999/xlink" contentStyleType="text/css" data-diagram-type="CLASS" height="382px" preserveAspectRatio="none" style="width:1279px;height:382px;background:#FFFFFF;" version="1.1" viewBox="0 0 1279 382" width="1279px" zoomAndPan="magnify"><defs/><g><!--class Tag--><g id="elem_Tag"><rect codeLine="2" fill="#F1F1F1" height="64.2969" id="Tag" rx="2.5" ry="2.5" style="stroke:#181818;stroke-width:0.5;" width="302.4453" x="7" y="286.5"/><ellipse cx="135.4639" cy="302.5" fill="#ADD1B2" rx="11" ry="11" style="stroke:#181818;stroke-width:1;"/><path d="M138.4326,308.1406 Q137.8545,308.4375 137.2139,308.5781 Q136.5732,308.7344 135.8701,308.7344 Q133.3701,308.7344 132.042,307.0938 Q130.7295,305.4375 130.7295,302.3125 Q130.7295,299.1875 132.042,297.5313 Q133.3701,295.875 135.8701,295.875 Q136.5732,295.875 137.2139,296.0313 Q137.8701,296.1875 138.4326,296.4844 L138.4326,299.2031 Q137.8076,298.625 137.2139,298.3594 Q136.6201,298.0781 135.9951,298.0781 Q134.6514,298.0781 133.9639,299.1563 Q133.2764,300.2188 133.2764,302.3125 Q133.2764,304.4063 133.9639,305.4844 Q134.6514,306.5469 135.9951,306.5469 Q136.6201,306.5469 137.2139,306.2813 Q137.8076,306 138.4326,305.4219 L138.4326,308.1406 Z " fill="#000000"/><ellipse cx="160.9639" cy="302" fill="#84BE84" rx="3" ry="3" style="stroke:#038048;stroke-width:1;"/><text fill="#000000" font-family="sans-serif" font-size="14" lengthAdjust="spacing" textLength="26.0176" x="166.9639" y="307.3467">Tag</text><line style="stroke:#181818;stroke-width:0.5;" x1="8" x2="308.4453" y1="318.5" y2="318.5"/><line style="stroke:#181818;stroke-width:0.5;" x1="8" x2="308.4453" y1="326.5" y2="326.5"/><ellipse cx="18" cy="340.1484" fill="#84BE84" rx="3" ry="3" style="stroke:#038048;stroke-width:1;"/><text fill="#000000" font-family="sans-serif" font-size="14" lengthAdjust="spacing" textLength="276.4453" x="27" y="343.4951">new&lt;N: AsRef&lt;str&gt;&gt;(name: N) -&gt; Self</text></g><!--class Error--><g id="elem_Error"><rect codeLine="2" fill="#F1F1F1" height="113.1875" id="Error" rx="2.5" ry="2.5" style="stroke:#181818;stroke-width:0.5;" width="116.9863" x="344.5" y="262"/><ellipse cx="377.1884" cy="278" fill="#EB937F" rx="11" ry="11" style="stroke:#181818;stroke-width:1;"/><path d="M381.2978,284 L373.5791,284 L373.5791,271.6094 L381.2978,271.6094 L381.2978,273.7656 L376.0322,273.7656 L376.0322,276.4375 L380.7978,276.4375 L380.7978,278.5938 L376.0322,278.5938 L376.0322,281.8438 L381.2978,281.8438 L381.2978,284 Z " fill="#000000"/><ellipse cx="400.1192" cy="277.5" fill="#84BE84" rx="3" ry="3" style="stroke:#038048;stroke-width:1;"/><text fill="#000000" font-family="sans-serif" font-size="14" lengthAdjust="spacing" textLength="34.6787" x="406.1192" y="282.8467">Error</text><line style="stroke:#181818;stroke-width:0.5;" x1="345.5" x2="460.4863" y1="294" y2="294"/><text fill="#000000" font-family="sans-serif" font-size="14" lengthAdjust="spacing" textLength="104.9863" x="350.5" y="310.9951">BadParameter,</text><text fill="#000000" font-family="sans-serif" font-size="14" lengthAdjust="spacing" textLength="83.8496" x="350.5" y="327.292">NotAllowed,</text><text fill="#000000" font-family="sans-serif" font-size="14" lengthAdjust="spacing" textLength="102.7168" x="350.5" y="343.5889">OutOfMemory,</text><text fill="#000000" font-family="sans-serif" font-size="14" lengthAdjust="spacing" textLength="58.7412" x="350.5" y="359.8857">Generic,</text><line style="stroke:#181818;stroke-width:0.5;" x1="345.5" x2="460.4863" y1="367.1875" y2="367.1875"/></g><!--class Status--><g id="elem_Status"><rect codeLine="2" fill="#F1F1F1" height="113.1875" id="Status" rx="2.5" ry="2.5" style="stroke:#181818;stroke-width:0.5;" width="87.6113" x="497" y="262"/><ellipse cx="512" cy="278" fill="#EB937F" rx="11" ry="11" style="stroke:#181818;stroke-width:1;"/><path d="M516.1094,284 L508.3906,284 L508.3906,271.6094 L516.1094,271.6094 L516.1094,273.7656 L510.8438,273.7656 L510.8438,276.4375 L515.6094,276.4375 L515.6094,278.5938 L510.8438,278.5938 L510.8438,281.8438 L516.1094,281.8438 L516.1094,284 Z " fill="#000000"/><ellipse cx="531" cy="277.5" fill="#84BE84" rx="3" ry="3" style="stroke:#038048;stroke-width:1;"/><text fill="#000000" font-family="sans-serif" font-size="14" lengthAdjust="spacing" textLength="44.6113" x="537" y="282.8467">Status</text><line style="stroke:#181818;stroke-width:0.5;" x1="498" x2="583.6113" y1="294" y2="294"/><text fill="#000000" font-family="sans-serif" font-size="14" lengthAdjust="spacing" textLength="57.9961" x="503" y="310.9951">Running</text><text fill="#000000" font-family="sans-serif" font-size="14" lengthAdjust="spacing" textLength="60.8193" x="503" y="327.292">Disabled</text><text fill="#000000" font-family="sans-serif" font-size="14" lengthAdjust="spacing" textLength="41.9111" x="503" y="343.5889">Failed</text><text fill="#000000" font-family="sans-serif" font-size="14" lengthAdjust="spacing" textLength="58.2148" x="503" y="359.8857">Stopped</text><line style="stroke:#181818;stroke-width:0.5;" x1="498" x2="583.6113" y1="367.1875" y2="367.1875"/></g><!--class DurationRange--><g id="elem_DurationRange"><rect codeLine="2" fill="#F1F1F1" height="80.5938" id="DurationRange" rx="2.5" ry="2.5" style="stroke:#181818;stroke-width:0.5;" width="148.4854" x="620" y="278"/><ellipse cx="635" cy="294" fill="#F1F1F1" rx="11" ry="11" style="stroke:#181818;stroke-width:1;"/><path d="M634.4844,294.5625 Q632.625,293.8594 631.9688,293.0938 Q631.3281,292.3125 631.3281,291 Q631.3281,289.3125 632.4063,288.3438 Q633.4844,287.375 635.3594,287.375 Q636.2188,287.375 637.0625,287.5781 Q637.9219,287.7656 638.7656,288.1563 L638.7656,290.5469 Q637.9844,289.9844 637.1563,289.7031 Q636.3438,289.4063 635.5469,289.4063 Q634.6719,289.4063 634.1875,289.7656 Q633.7188,290.125 633.7188,290.7813 Q633.7188,291.2969 634.0625,291.6406 Q634.4063,291.9688 635.5,292.375 L636.5625,292.7813 Q638.0469,293.3281 638.75,294.2344 Q639.4688,295.1406 639.4688,296.5156 Q639.4688,298.3906 638.3594,299.3125 Q637.25,300.2344 635,300.2344 Q634.0781,300.2344 633.1563,300.0156 Q632.2344,299.7969 631.375,299.375 L631.375,296.8438 Q632.3438,297.5313 633.2656,297.875 Q634.1875,298.2188 635.0781,298.2188 Q635.9844,298.2188 636.4844,297.8125 Q636.9844,297.3906 636.9844,296.6563 Q636.9844,296.0938 636.6406,295.6875 Q636.3125,295.2656 635.6875,295.0156 L634.4844,294.5625 Z " fill="#000000"/><ellipse cx="654" cy="293.5" fill="#84BE84" rx="3" ry="3" style="stroke:#038048;stroke-width:1;"/><text fill="#000000" font-family="sans-serif" font-size="14" lengthAdjust="spacing" textLength="105.4854" x="660" y="298.8467">DurationRange</text><line style="stroke:#181818;stroke-width:0.5;" x1="621" x2="767.4854" y1="310" y2="310"/><text fill="#000000" font-family="sans-serif" font-size="14" lengthAdjust="spacing" textLength="96.373" x="626" y="326.9951">min: Duration</text><text fill="#000000" font-family="sans-serif" font-size="14" lengthAdjust="spacing" textLength="100.4746" x="626" y="343.292">max: Duration</text><line style="stroke:#181818;stroke-width:0.5;" x1="621" x2="767.4854" y1="350.5938" y2="350.5938"/></g><!--class Deadline--><g id="elem_Deadline"><rect codeLine="5" fill="#F1F1F1" height="113.1875" id="Deadline" rx="2.5" ry="2.5" style="stroke:#181818;stroke-width:0.5;" width="285.1572" x="803.5" y="262"/><ellipse cx="905.2661" cy="278" fill="#ADD1B2" rx="11" ry="11" style="stroke:#181818;stroke-width:1;"/><path d="M908.2349,283.6406 Q907.6567,283.9375 907.0161,284.0781 Q906.3755,284.2344 905.6724,284.2344 Q903.1724,284.2344 901.8442,282.5938 Q900.5317,280.9375 900.5317,277.8125 Q900.5317,274.6875 901.8442,273.0313 Q903.1724,271.375 905.6724,271.375 Q906.3755,271.375 907.0161,271.5313 Q907.6724,271.6875 908.2349,271.9844 L908.2349,274.7031 Q907.6099,274.125 907.0161,273.8594 Q906.4224,273.5781 905.7974,273.5781 Q904.4536,273.5781 903.7661,274.6563 Q903.0786,275.7188 903.0786,277.8125 Q903.0786,279.9063 903.7661,280.9844 Q904.4536,282.0469 905.7974,282.0469 Q906.4224,282.0469 907.0161,281.7813 Q907.6099,281.5 908.2349,280.9219 L908.2349,283.6406 Z " fill="#000000"/><ellipse cx="930.7661" cy="277.5" fill="#84BE84" rx="3" ry="3" style="stroke:#038048;stroke-width:1;"/><text fill="#000000" font-family="sans-serif" font-size="14" lengthAdjust="spacing" textLength="62.125" x="936.7661" y="282.8467">Deadline</text><line style="stroke:#181818;stroke-width:0.5;" x1="804.5" x2="1087.6572" y1="294" y2="294"/><line style="stroke:#181818;stroke-width:0.5;" x1="804.5" x2="1087.6572" y1="302" y2="302"/><ellipse cx="814.5" cy="315.6484" fill="#84BE84" rx="3" ry="3" style="stroke:#038048;stroke-width:1;"/><text fill="#000000" font-family="sans-serif" font-size="14" lengthAdjust="spacing" textLength="259.1572" x="823.5" y="318.9951">start(&amp;mut self) -&gt; Result&lt;(), Error&gt;</text><ellipse cx="814.5" cy="331.9453" fill="#84BE84" rx="3" ry="3" style="stroke:#038048;stroke-width:1;"/><text fill="#000000" font-family="sans-serif" font-size="14" lengthAdjust="spacing" textLength="256.7852" x="823.5" y="335.292">stop(&amp;mut self) -&gt; Result&lt;(), Error&gt;</text><ellipse cx="814.5" cy="348.2422" fill="#84BE84" rx="3" ry="3" style="stroke:#038048;stroke-width:1;"/><text fill="#000000" font-family="sans-serif" font-size="14" lengthAdjust="spacing" textLength="159.4551" x="823.5" y="351.5889">min(&amp;self) -&gt; Duration</text><ellipse cx="814.5" cy="364.5391" fill="#84BE84" rx="3" ry="3" style="stroke:#038048;stroke-width:1;"/><text fill="#000000" font-family="sans-serif" font-size="14" lengthAdjust="spacing" textLength="163.5566" x="823.5" y="367.8857">max(&amp;self) -&gt; Duration</text></g><!--class DeadlineMonitor--><g id="elem_DeadlineMonitor"><rect codeLine="9" fill="#F1F1F1" height="178.375" id="DeadlineMonitor" rx="2.5" ry="2.5" style="stroke:#181818;stroke-width:0.5;" width="762.9346" x="235.5" y="7"/><ellipse cx="549.5459" cy="23" fill="#ADD1B2" rx="11" ry="11" style="stroke:#181818;stroke-width:1;"/><path d="M552.5146,28.6406 Q551.9365,28.9375 551.2959,29.0781 Q550.6553,29.2344 549.9521,29.2344 Q547.4521,29.2344 546.124,27.5938 Q544.8115,25.9375 544.8115,22.8125 Q544.8115,19.6875 546.124,18.0313 Q547.4521,16.375 549.9521,16.375 Q550.6553,16.375 551.2959,16.5313 Q551.9521,16.6875 552.5146,16.9844 L552.5146,19.7031 Q551.8896,19.125 551.2959,18.8594 Q550.7021,18.5781 550.0771,18.5781 Q548.7334,18.5781 548.0459,19.6563 Q547.3584,20.7188 547.3584,22.8125 Q547.3584,24.9063 548.0459,25.9844 Q548.7334,27.0469 550.0771,27.0469 Q550.7021,27.0469 551.2959,26.7813 Q551.8896,26.5 552.5146,25.9219 L552.5146,28.6406 Z " fill="#000000"/><ellipse cx="575.0459" cy="22.5" fill="#84BE84" rx="3" ry="3" style="stroke:#038048;stroke-width:1;"/><text fill="#000000" font-family="sans-serif" font-size="14" lengthAdjust="spacing" textLength="115.3428" x="581.0459" y="27.8467">DeadlineMonitor</text><line style="stroke:#181818;stroke-width:0.5;" x1="236.5" x2="997.4346" y1="39" y2="39"/><line style="stroke:#181818;stroke-width:0.5;" x1="236.5" x2="997.4346" y1="47" y2="47"/><ellipse cx="246.5" cy="60.6484" fill="#84BE84" rx="3" ry="3" style="stroke:#038048;stroke-width:1;"/><text fill="#000000" font-family="sans-serif" font-size="14" lengthAdjust="spacing" textLength="402.5615" x="255.5" y="63.9951">get_deadline(&amp;self, tag: Tag) -&gt; Result&lt;Deadline, Error&gt;</text><ellipse cx="246.5" cy="76.9453" fill="#84BE84" rx="3" ry="3" style="stroke:#038048;stroke-width:1;"/><text fill="#000000" font-family="sans-serif" font-size="14" lengthAdjust="spacing" textLength="493.4863" x="255.5" y="80.292">get_deadline_guard(&amp;self, tag: Tag) -&gt; Result&lt;DeadlineGuard, Error&gt;</text><ellipse cx="246.5" cy="93.2422" fill="#84BE84" rx="3" ry="3" style="stroke:#038048;stroke-width:1;"/><text fill="#000000" font-family="sans-serif" font-size="14" lengthAdjust="spacing" textLength="646.0098" x="255.5" y="96.5889">create_custom_deadline(&amp;self, duration_range: DurationRange) -&gt; Result&lt;Deadline, Error&gt;</text><ellipse cx="246.5" cy="109.5391" fill="#84BE84" rx="3" ry="3" style="stroke:#038048;stroke-width:1;"/><text fill="#000000" font-family="sans-serif" font-size="14" lengthAdjust="spacing" textLength="736.9346" x="255.5" y="112.8857">create_custom_deadline_guard(&amp;self, duration_range: DurationRange) -&gt; Result&lt;DeadlineGuard, Error&gt;</text><ellipse cx="246.5" cy="125.8359" fill="#84BE84" rx="3" ry="3" style="stroke:#038048;stroke-width:1;"/><text fill="#000000" font-family="sans-serif" font-size="14" lengthAdjust="spacing" textLength="241.5547" x="255.5" y="129.1826">enable(&amp;self) -&gt; Result&lt;(), Error&gt;</text><ellipse cx="246.5" cy="142.1328" fill="#84BE84" rx="3" ry="3" style="stroke:#038048;stroke-width:1;"/><text fill="#000000" font-family="sans-serif" font-size="14" lengthAdjust="spacing" textLength="244.1387" x="255.5" y="145.4795">disable(&amp;self) -&gt; Result&lt;(), Error&gt;</text><ellipse cx="246.5" cy="158.4297" fill="#84BE84" rx="3" ry="3" style="stroke:#038048;stroke-width:1;"/><text fill="#000000" font-family="sans-serif" font-size="14" lengthAdjust="spacing" textLength="159.8789" x="255.5" y="161.7764">status(&amp;self) -&gt; Status</text><polygon fill="#4177AF" points="246.5,170.7266,242.5,176.7266,250.5,176.7266" style="stroke:#1963A0;stroke-width:1;"/><text fill="#000000" font-family="sans-serif" font-size="14" lengthAdjust="spacing" textLength="177.7822" x="255.5" y="178.0732">evaluate(&amp;self) -&gt; Status</text></g><!--class DeadlineGuard--><g id="elem_DeadlineGuard"><rect codeLine="21" fill="#F1F1F1" height="48" id="DeadlineGuard" rx="2.5" ry="2.5" style="stroke:#181818;stroke-width:0.5;" width="148.0684" x="1124" y="294.5"/><ellipse cx="1139" cy="310.5" fill="#ADD1B2" rx="11" ry="11" style="stroke:#181818;stroke-width:1;"/><path d="M1141.9688,316.1406 Q1141.3906,316.4375 1140.75,316.5781 Q1140.1094,316.7344 1139.4063,316.7344 Q1136.9063,316.7344 1135.5781,315.0938 Q1134.2656,313.4375 1134.2656,310.3125 Q1134.2656,307.1875 1135.5781,305.5313 Q1136.9063,303.875 1139.4063,303.875 Q1140.1094,303.875 1140.75,304.0313 Q1141.4063,304.1875 1141.9688,304.4844 L1141.9688,307.2031 Q1141.3438,306.625 1140.75,306.3594 Q1140.1563,306.0781 1139.5313,306.0781 Q1138.1875,306.0781 1137.5,307.1563 Q1136.8125,308.2188 1136.8125,310.3125 Q1136.8125,312.4063 1137.5,313.4844 Q1138.1875,314.5469 1139.5313,314.5469 Q1140.1563,314.5469 1140.75,314.2813 Q1141.3438,314 1141.9688,313.4219 L1141.9688,316.1406 Z " fill="#000000"/><ellipse cx="1158" cy="310" fill="#84BE84" rx="3" ry="3" style="stroke:#038048;stroke-width:1;"/><text fill="#000000" font-family="sans-serif" font-size="14" lengthAdjust="spacing" textLength="105.0684" x="1164" y="315.3467">DeadlineGuard</text><line style="stroke:#181818;stroke-width:0.5;" x1="1125" x2="1271.0684" y1="326.5" y2="326.5"/><line style="stroke:#181818;stroke-width:0.5;" x1="1125" x2="1271.0684" y1="334.5" y2="334.5"/></g><!--reverse link DeadlineMonitor to Status--><g id="link_DeadlineMonitor_Status"><path codeLine="25" d="M582.726,196.4437 C573.786,222.3537 568.19,238.62 560.17,261.89 " fill="transparent" id="DeadlineMonitor-backto-Status" style="stroke:#181818;stroke-width:1;"/><polygon fill="#181818" points="586.64,185.1,580.9017,189.4672,582.726,196.4437,588.4642,192.0765,586.64,185.1" style="stroke:#181818;stroke-width:1;"/><text fill="#000000" font-family="sans-serif" font-size="13" lengthAdjust="spacing" textLength="33.5981" x="576" y="228.0669">owns</text></g><!--link DeadlineMonitor to Error--><g id="link_DeadlineMonitor_Error"><path codeLine="26" d="M531.5,185.1 C506.35,211.01 483.7283,234.314 461.1483,257.584 " fill="transparent" id="DeadlineMonitor-to-Error" style="stroke:#181818;stroke-width:1;stroke-dasharray:7.0,7.0;"/><polygon fill="#181818" points="456.97,261.89,466.1081,258.2165,460.4519,258.3017,460.3668,252.6455,456.97,261.89" style="stroke:#181818;stroke-width:1;"/></g><!--link DeadlineMonitor to Tag--><g id="link_DeadlineMonitor_Tag"><path codeLine="27" d="M433.61,185.1 C358.95,220.97 282.9083,257.4919 228.0583,283.8419 " fill="transparent" id="DeadlineMonitor-to-Tag" style="stroke:#181818;stroke-width:1;stroke-dasharray:7.0,7.0;"/><polygon fill="#181818" points="222.65,286.44,232.4945,286.1483,227.1569,284.2749,229.0303,278.9372,222.65,286.44" style="stroke:#181818;stroke-width:1;"/></g><!--link DeadlineMonitor to Deadline--><g id="link_DeadlineMonitor_Deadline"><path codeLine="28" d="M748.45,185.1 C787.11,211.01 823.3259,235.2796 858.0459,258.5496 " fill="transparent" id="DeadlineMonitor-to-Deadline" style="stroke:#181818;stroke-width:1;stroke-dasharray:7.0,7.0;"/><polygon fill="#181818" points="863.03,261.89,857.7808,253.5566,858.8766,259.1063,853.3269,260.2021,863.03,261.89" style="stroke:#181818;stroke-width:1;"/><text fill="#000000" font-family="sans-serif" font-size="13" lengthAdjust="spacing" textLength="64.2319" x="812" y="228.0669">&#171;creates&#187;</text></g><!--link DeadlineMonitor to DeadlineGuard--><g id="link_DeadlineMonitor_DeadlineGuard"><path codeLine="29" d="M912.28,185.09 C977.15,207.61 1044.73,233.59 1106,262 C1125.8,271.18 1141.6578,280.3391 1158.5378,291.0791 " fill="transparent" id="DeadlineMonitor-to-DeadlineGuard" style="stroke:#181818;stroke-width:1;stroke-dasharray:7.0,7.0;"/><polygon fill="#181818" points="1163.6,294.3,1158.1539,286.0939,1159.3815,291.6159,1153.8594,292.8435,1163.6,294.3" style="stroke:#181818;stroke-width:1;"/><text fill="#000000" font-family="sans-serif" font-size="13" lengthAdjust="spacing" textLength="64.2319" x="1030" y="228.0669">&#171;creates&#187;</text></g><!--link DeadlineMonitor to DurationRange--><g id="link_DeadlineMonitor_DurationRange"><path codeLine="30" d="M647.76,185.1 C658.99,217.25 669.1499,246.3561 678.1799,272.1861 " fill="transparent" id="DeadlineMonitor-to-DurationRange" style="stroke:#181818;stroke-width:1;stroke-dasharray:7.0,7.0;"/><polygon fill="#181818" points="680.16,277.85,680.9658,268.0342,678.51,273.1301,673.414,270.6742,680.16,277.85" style="stroke:#181818;stroke-width:1;"/></g><!--SRC=[bLBBReCm4BpxAvPBbJI13q28IrFrr0lj7JbuIv6CNVdH7ghqssimH81HIhcWdHcFPxqRDQBYbY6yjwMXTV9XMqwY2OXAIHN2sb1ZTOWpgwXff2WL5JNEUMtFlGGfuutmP7GQgWTEjIOaSiRATCgHU9QYCL9v_b1rloK7tmJSTwZHNDrtTnhvsn5SKocyqdeFSGw5oy1DDXu_mcFNNHwUBcjB5TlYyTG9vqQLGcgmhAmsiWq2pLyeXTDG5rtvTyfrytdUVr-nqWGAUkP3wEcHtNwkOutU9lGRCz6zz41F_k0dvTRr5T8N4g5WRY78SlXzQ3VwousjAP2JvRBSn_5W3Yd8Bw43HPBaFlegunPX5HynvvfbVamwpszAVGiRzDC1NX_a5m00]--></g></svg>