<svg xmlns="http://www.w3.org/2000/svg" xmlns:xlink="http://www.w3.org/1999/xlink" contentStyleType="text/css" data-diagram-type="CLASS" height="730px" preserveAspectRatio="none" style="width:1240px;height:730px;background:#FFFFFF;" version="1.1" viewBox="0 0 1240 730" width="1240px" zoomAndPan="magnify"><defs/><g><!--class Status--><g id="elem_Status"><rect codeLine="2" fill="#F1F1F1" height="113.1875" id="Status" rx="2.5" ry="2.5" style="stroke:#181818;stroke-width:0.5;" width="87.6113" x="807.86" y="436"/><ellipse cx="822.86" cy="452" fill="#EB937F" rx="11" ry="11" style="stroke:#181818;stroke-width:1;"/><path d="M826.9694,458 L819.2506,458 L819.2506,445.6094 L826.9694,445.6094 L826.9694,447.7656 L821.7038,447.7656 L821.7038,450.4375 L826.4694,450.4375 L826.4694,452.5938 L821.7038,452.5938 L821.7038,455.8438 L826.9694,455.8438 L826.9694,458 Z " fill="#000000"/><ellipse cx="841.86" cy="451.5" fill="#84BE84" rx="3" ry="3" style="stroke:#038048;stroke-width:1;"/><text fill="#000000" font-family="sans-serif" font-size="14" lengthAdjust="spacing" textLength="44.6113" x="847.86" y="456.8467">Status</text><line style="stroke:#181818;stroke-width:0.5;" x1="808.86" x2="894.4713" y1="468" y2="468"/><text fill="#000000" font-family="sans-serif" font-size="14" lengthAdjust="spacing" textLength="57.9961" x="813.86" y="484.9951">Running</text><text fill="#000000" font-family="sans-serif" font-size="14" lengthAdjust="spacing" textLength="60.8193" x="813.86" y="501.292">Disabled</text><text fill="#000000" font-family="sans-serif" font-size="14" lengthAdjust="spacing" textLength="41.9111" x="813.86" y="517.5889">Failed</text><text fill="#000000" font-family="sans-serif" font-size="14" lengthAdjust="spacing" textLength="58.2148" x="813.86" y="533.8857">Stopped</text><line style="stroke:#181818;stroke-width:0.5;" x1="808.86" x2="894.4713" y1="541.1875" y2="541.1875"/></g><!--class Error--><g id="elem_Error"><rect codeLine="9" fill="#F1F1F1" height="113.1875" id="Error" rx="2.5" ry="2.5" style="stroke:#181818;stroke-width:0.5;" width="116.9863" x="192.36" y="610"/><ellipse cx="225.0484" cy="626" fill="#EB937F" rx="11" ry="11" style="stroke:#181818;stroke-width:1;"/><path d="M229.1578,632 L221.4391,632 L221.4391,619.6094 L229.1578,619.6094 L229.1578,621.7656 L223.8922,621.7656 L223.8922,624.4375 L228.6578,624.4375 L228.6578,626.5938 L223.8922,626.5938 L223.8922,629.8438 L229.1578,629.8438 L229.1578,632 Z " fill="#000000"/><ellipse cx="247.9792" cy="625.5" fill="#84BE84" rx="3" ry="3" style="stroke:#038048;stroke-width:1;"/><text fill="#000000" font-family="sans-serif" font-size="14" lengthAdjust="spacing" textLength="34.6787" x="253.9792" y="630.8467">Error</text><line style="stroke:#181818;stroke-width:0.5;" x1="193.36" x2="308.3463" y1="642" y2="642"/><text fill="#000000" font-family="sans-serif" font-size="14" lengthAdjust="spacing" textLength="104.9863" x="198.36" y="658.9951">BadParameter,</text><text fill="#000000" font-family="sans-serif" font-size="14" lengthAdjust="spacing" textLength="83.8496" x="198.36" y="675.292">NotAllowed,</text><text fill="#000000" font-family="sans-serif" font-size="14" lengthAdjust="spacing" textLength="102.7168" x="198.36" y="691.5889">OutOfMemory,</text><text fill="#000000" font-family="sans-serif" font-size="14" lengthAdjust="spacing" textLength="58.7412" x="198.36" y="707.8857">Generic,</text><line style="stroke:#181818;stroke-width:0.5;" x1="193.36" x2="308.3463" y1="715.1875" y2="715.1875"/></g><!--class DurationRange--><g id="elem_DurationRange"><rect codeLine="16" fill="#F1F1F1" height="80.5938" id="DurationRange" rx="2.5" ry="2.5" style="stroke:#181818;stroke-width:0.5;" width="148.4854" x="49.86" y="452"/><ellipse cx="64.86" cy="468" fill="#F1F1F1" rx="11" ry="11" style="stroke:#181818;stroke-width:1;"/><path d="M64.3444,468.5625 Q62.485,467.8594 61.8288,467.0938 Q61.1881,466.3125 61.1881,465 Q61.1881,463.3125 62.2663,462.3438 Q63.3444,461.375 65.2194,461.375 Q66.0788,461.375 66.9225,461.5781 Q67.7819,461.7656 68.6256,462.1563 L68.6256,464.5469 Q67.8444,463.9844 67.0163,463.7031 Q66.2038,463.4063 65.4069,463.4063 Q64.5319,463.4063 64.0475,463.7656 Q63.5788,464.125 63.5788,464.7813 Q63.5788,465.2969 63.9225,465.6406 Q64.2663,465.9688 65.36,466.375 L66.4225,466.7813 Q67.9069,467.3281 68.61,468.2344 Q69.3288,469.1406 69.3288,470.5156 Q69.3288,472.3906 68.2194,473.3125 Q67.11,474.2344 64.86,474.2344 Q63.9381,474.2344 63.0163,474.0156 Q62.0944,473.7969 61.235,473.375 L61.235,470.8438 Q62.2038,471.5313 63.1256,471.875 Q64.0475,472.2188 64.9381,472.2188 Q65.8444,472.2188 66.3444,471.8125 Q66.8444,471.3906 66.8444,470.6563 Q66.8444,470.0938 66.5006,469.6875 Q66.1725,469.2656 65.5475,469.0156 L64.3444,468.5625 Z " fill="#000000"/><ellipse cx="83.86" cy="467.5" fill="#84BE84" rx="3" ry="3" style="stroke:#038048;stroke-width:1;"/><text fill="#000000" font-family="sans-serif" font-size="14" lengthAdjust="spacing" textLength="105.4854" x="89.86" y="472.8467">DurationRange</text><line style="stroke:#181818;stroke-width:0.5;" x1="50.86" x2="197.3454" y1="484" y2="484"/><text fill="#000000" font-family="sans-serif" font-size="14" lengthAdjust="spacing" textLength="96.373" x="55.86" y="500.9951">min: Duration</text><text fill="#000000" font-family="sans-serif" font-size="14" lengthAdjust="spacing" textLength="100.4746" x="55.86" y="517.292">max: Duration</text><line style="stroke:#181818;stroke-width:0.5;" x1="50.86" x2="197.3454" y1="524.5938" y2="524.5938"/></g><!--class Tag--><g id="elem_Tag"><rect codeLine="22" fill="#F1F1F1" height="64.2969" id="Tag" rx="2.5" ry="2.5" style="stroke:#181818;stroke-width:0.5;" width="302.4453" x="930.86" y="460.5"/><ellipse cx="1059.3239" cy="476.5" fill="#ADD1B2" rx="11" ry="11" style="stroke:#181818;stroke-width:1;"/><path d="M1062.2926,482.1406 Q1061.7145,482.4375 1061.0739,482.5781 Q1060.4332,482.7344 1059.7301,482.7344 Q1057.2301,482.7344 1055.902,481.0938 Q1054.5895,479.4375 1054.5895,476.3125 Q1054.5895,473.1875 1055.902,471.5313 Q1057.2301,469.875 1059.7301,469.875 Q1060.4332,469.875 1061.0739,470.0313 Q1061.7301,470.1875 1062.2926,470.4844 L1062.2926,473.2031 Q1061.6676,472.625 1061.0739,472.3594 Q1060.4801,472.0781 1059.8551,472.0781 Q1058.5114,472.0781 1057.8239,473.1563 Q1057.1364,474.2188 1057.1364,476.3125 Q1057.1364,478.4063 1057.8239,479.4844 Q1058.5114,480.5469 1059.8551,480.5469 Q1060.4801,480.5469 1061.0739,480.2813 Q1061.6676,480 1062.2926,479.4219 L1062.2926,482.1406 Z " fill="#000000"/><ellipse cx="1084.8239" cy="476" fill="#84BE84" rx="3" ry="3" style="stroke:#038048;stroke-width:1;"/><text fill="#000000" font-family="sans-serif" font-size="14" lengthAdjust="spacing" textLength="26.0176" x="1090.8239" y="481.3467">Tag</text><line style="stroke:#181818;stroke-width:0.5;" x1="931.86" x2="1232.3053" y1="492.5" y2="492.5"/><line style="stroke:#181818;stroke-width:0.5;" x1="931.86" x2="1232.3053" y1="500.5" y2="500.5"/><ellipse cx="941.86" cy="514.1484" fill="#84BE84" rx="3" ry="3" style="stroke:#038048;stroke-width:1;"/><text fill="#000000" font-family="sans-serif" font-size="14" lengthAdjust="spacing" textLength="276.4453" x="950.86" y="517.4951">new&lt;N: AsRef&lt;str&gt;&gt;(name: N) -&gt; Self</text></g><!--class DeadlineMonitorBuilder--><g id="elem_DeadlineMonitorBuilder"><rect codeLine="26" fill="#F1F1F1" height="96.8906" id="DeadlineMonitorBuilder" rx="2.5" ry="2.5" style="stroke:#181818;stroke-width:0.5;" width="591.1816" x="40.36" y="7"/><ellipse cx="243.7731" cy="23" fill="#ADD1B2" rx="11" ry="11" style="stroke:#181818;stroke-width:1;"/><path d="M246.7418,28.6406 Q246.1637,28.9375 245.5231,29.0781 Q244.8825,29.2344 244.1793,29.2344 Q241.6793,29.2344 240.3512,27.5938 Q239.0387,25.9375 239.0387,22.8125 Q239.0387,19.6875 240.3512,18.0313 Q241.6793,16.375 244.1793,16.375 Q244.8825,16.375 245.5231,16.5313 Q246.1793,16.6875 246.7418,16.9844 L246.7418,19.7031 Q246.1168,19.125 245.5231,18.8594 Q244.9293,18.5781 244.3043,18.5781 Q242.9606,18.5781 242.2731,19.6563 Q241.5856,20.7188 241.5856,22.8125 Q241.5856,24.9063 242.2731,25.9844 Q242.9606,27.0469 244.3043,27.0469 Q244.9293,27.0469 245.5231,26.7813 Q246.1168,26.5 246.7418,25.9219 L246.7418,28.6406 Z " fill="#000000"/><ellipse cx="269.2731" cy="22.5" fill="#84BE84" rx="3" ry="3" style="stroke:#038048;stroke-width:1;"/><text fill="#000000" font-family="sans-serif" font-size="14" lengthAdjust="spacing" textLength="164.8555" x="275.2731" y="27.8467">DeadlineMonitorBuilder</text><line style="stroke:#181818;stroke-width:0.5;" x1="41.36" x2="630.5416" y1="39" y2="39"/><line style="stroke:#181818;stroke-width:0.5;" x1="41.36" x2="630.5416" y1="47" y2="47"/><ellipse cx="51.36" cy="60.6484" fill="#84BE84" rx="3" ry="3" style="stroke:#038048;stroke-width:1;"/><text fill="#000000" font-family="sans-serif" font-size="14" lengthAdjust="spacing" textLength="91.8613" x="60.36" y="63.9951">new() -&gt; Self</text><ellipse cx="51.36" cy="76.9453" fill="#84BE84" rx="3" ry="3" style="stroke:#038048;stroke-width:1;"/><text fill="#000000" font-family="sans-serif" font-size="14" lengthAdjust="spacing" textLength="565.1816" x="60.36" y="80.292">add_deadline(&amp;mut self, tag: Tag, duration_range: DurationRange) -&gt; &amp;mut Self</text><ellipse cx="51.36" cy="93.2422" fill="#84BE84" rx="3" ry="3" style="stroke:#038048;stroke-width:1;"/><text fill="#000000" font-family="sans-serif" font-size="14" lengthAdjust="spacing" textLength="322.0273" x="60.36" y="96.5889">build(self) -&gt; Result&lt;DeadlineMonitor, Error&gt;</text></g><!--class DeadlineMonitor--><g id="elem_DeadlineMonitor"><rect codeLine="32" fill="#F1F1F1" height="178.375" id="DeadlineMonitor" rx="2.5" ry="2.5" style="stroke:#181818;stroke-width:0.5;" width="741.1758" x="177.36" y="181"/><ellipse cx="480.5265" cy="197" fill="#ADD1B2" rx="11" ry="11" style="stroke:#181818;stroke-width:1;"/><path d="M483.4953,202.6406 Q482.9171,202.9375 482.2765,203.0781 Q481.6359,203.2344 480.9328,203.2344 Q478.4328,203.2344 477.1046,201.5938 Q475.7921,199.9375 475.7921,196.8125 Q475.7921,193.6875 477.1046,192.0313 Q478.4328,190.375 480.9328,190.375 Q481.6359,190.375 482.2765,190.5313 Q482.9328,190.6875 483.4953,190.9844 L483.4953,193.7031 Q482.8703,193.125 482.2765,192.8594 Q481.6828,192.5781 481.0578,192.5781 Q479.714,192.5781 479.0265,193.6563 Q478.339,194.7188 478.339,196.8125 Q478.339,198.9063 479.0265,199.9844 Q479.714,201.0469 481.0578,201.0469 Q481.6828,201.0469 482.2765,200.7813 Q482.8703,200.5 483.4953,199.9219 L483.4953,202.6406 Z " fill="#000000"/><ellipse cx="506.0265" cy="196.5" fill="#84BE84" rx="3" ry="3" style="stroke:#038048;stroke-width:1;"/><text fill="#000000" font-family="sans-serif" font-size="14" lengthAdjust="spacing" textLength="115.3428" x="512.0265" y="201.8467">DeadlineMonitor</text><line style="stroke:#181818;stroke-width:0.5;" x1="178.36" x2="917.5358" y1="213" y2="213"/><line style="stroke:#181818;stroke-width:0.5;" x1="178.36" x2="917.5358" y1="221" y2="221"/><ellipse cx="188.36" cy="234.6484" fill="#84BE84" rx="3" ry="3" style="stroke:#038048;stroke-width:1;"/><text fill="#000000" font-family="sans-serif" font-size="14" lengthAdjust="spacing" textLength="402.5615" x="197.36" y="237.9951">get_deadline(&amp;self, tag: Tag) -&gt; Result&lt;Deadline, Error&gt;</text><ellipse cx="188.36" cy="250.9453" fill="#84BE84" rx="3" ry="3" style="stroke:#038048;stroke-width:1;"/><text fill="#000000" font-family="sans-serif" font-size="14" lengthAdjust="spacing" textLength="493.4863" x="197.36" y="254.292">get_deadline_guard(&amp;self, tag: Tag) -&gt; Result&lt;DeadlineGuard, Error&gt;</text><ellipse cx="188.36" cy="267.2422" fill="#84BE84" rx="3" ry="3" style="stroke:#038048;stroke-width:1;"/><text fill="#000000" font-family="sans-serif" font-size="14" lengthAdjust="spacing" textLength="624.251" x="197.36" y="270.5889">get_custom_deadline(&amp;self, duration_range: DurationRange) -&gt; Result&lt;Deadline, Error&gt;</text><ellipse cx="188.36" cy="283.5391" fill="#84BE84" rx="3" ry="3" style="stroke:#038048;stroke-width:1;"/><text fill="#000000" font-family="sans-serif" font-size="14" lengthAdjust="spacing" textLength="715.1758" x="197.36" y="286.8857">get_custom_deadline_guard(&amp;self, duration_range: DurationRange) -&gt; Result&lt;DeadlineGuard, Error&gt;</text><ellipse cx="188.36" cy="299.8359" fill="#84BE84" rx="3" ry="3" style="stroke:#038048;stroke-width:1;"/><text fill="#000000" font-family="sans-serif" font-size="14" lengthAdjust="spacing" textLength="241.5547" x="197.36" y="303.1826">enable(&amp;self) -&gt; Result&lt;(), Error&gt;</text><ellipse cx="188.36" cy="316.1328" fill="#84BE84" rx="3" ry="3" style="stroke:#038048;stroke-width:1;"/><text fill="#000000" font-family="sans-serif" font-size="14" lengthAdjust="spacing" textLength="244.1387" x="197.36" y="319.4795">disable(&amp;self) -&gt; Result&lt;(), Error&gt;</text><ellipse cx="188.36" cy="332.4297" fill="#84BE84" rx="3" ry="3" style="stroke:#038048;stroke-width:1;"/><text fill="#000000" font-family="sans-serif" font-size="14" lengthAdjust="spacing" textLength="159.8789" x="197.36" y="335.7764">status(&amp;self) -&gt; Status</text><polygon fill="#4177AF" points="188.36,344.7266,184.36,350.7266,192.36,350.7266" style="stroke:#1963A0;stroke-width:1;"/><text fill="#000000" font-family="sans-serif" font-size="14" lengthAdjust="spacing" textLength="147.1436" x="197.36" y="352.0732">step(&amp;self) -&gt; Status</text></g><!--class Deadline--><g id="elem_Deadline"><rect codeLine="43" fill="#F1F1F1" height="113.1875" id="Deadline" rx="2.5" ry="2.5" style="stroke:#181818;stroke-width:0.5;" width="285.1572" x="304.36" y="436"/><ellipse cx="406.1261" cy="452" fill="#ADD1B2" rx="11" ry="11" style="stroke:#181818;stroke-width:1;"/><path d="M409.0949,457.6406 Q408.5167,457.9375 407.8761,458.0781 Q407.2355,458.2344 406.5324,458.2344 Q404.0324,458.2344 402.7042,456.5938 Q401.3917,454.9375 401.3917,451.8125 Q401.3917,448.6875 402.7042,447.0313 Q404.0324,445.375 406.5324,445.375 Q407.2355,445.375 407.8761,445.5313 Q408.5324,445.6875 409.0949,445.9844 L409.0949,448.7031 Q408.4699,448.125 407.8761,447.8594 Q407.2824,447.5781 406.6574,447.5781 Q405.3136,447.5781 404.6261,448.6563 Q403.9386,449.7188 403.9386,451.8125 Q403.9386,453.9063 404.6261,454.9844 Q405.3136,456.0469 406.6574,456.0469 Q407.2824,456.0469 407.8761,455.7813 Q408.4699,455.5 409.0949,454.9219 L409.0949,457.6406 Z " fill="#000000"/><ellipse cx="431.6261" cy="451.5" fill="#84BE84" rx="3" ry="3" style="stroke:#038048;stroke-width:1;"/><text fill="#000000" font-family="sans-serif" font-size="14" lengthAdjust="spacing" textLength="62.125" x="437.6261" y="456.8467">Deadline</text><line style="stroke:#181818;stroke-width:0.5;" x1="305.36" x2="588.5172" y1="468" y2="468"/><line style="stroke:#181818;stroke-width:0.5;" x1="305.36" x2="588.5172" y1="476" y2="476"/><ellipse cx="315.36" cy="489.6484" fill="#84BE84" rx="3" ry="3" style="stroke:#038048;stroke-width:1;"/><text fill="#000000" font-family="sans-serif" font-size="14" lengthAdjust="spacing" textLength="259.1572" x="324.36" y="492.9951">start(&amp;mut self) -&gt; Result&lt;(), Error&gt;</text><ellipse cx="315.36" cy="505.9453" fill="#84BE84" rx="3" ry="3" style="stroke:#038048;stroke-width:1;"/><text fill="#000000" font-family="sans-serif" font-size="14" lengthAdjust="spacing" textLength="256.7852" x="324.36" y="509.292">stop(&amp;mut self) -&gt; Result&lt;(), Error&gt;</text><ellipse cx="315.36" cy="522.2422" fill="#84BE84" rx="3" ry="3" style="stroke:#038048;stroke-width:1;"/><text fill="#000000" font-family="sans-serif" font-size="14" lengthAdjust="spacing" textLength="159.4551" x="324.36" y="525.5889">min(&amp;self) -&gt; Duration</text><ellipse cx="315.36" cy="538.5391" fill="#84BE84" rx="3" ry="3" style="stroke:#038048;stroke-width:1;"/><text fill="#000000" font-family="sans-serif" font-size="14" lengthAdjust="spacing" textLength="163.5566" x="324.36" y="541.8857">max(&amp;self) -&gt; Duration</text></g><!--class DeadlineGuard--><g id="elem_DeadlineGuard"><rect codeLine="50" fill="#F1F1F1" height="48" id="DeadlineGuard" rx="2.5" ry="2.5" style="stroke:#181818;stroke-width:0.5;" width="148.0684" x="624.86" y="468.5"/><ellipse cx="639.86" cy="484.5" fill="#ADD1B2" rx="11" ry="11" style="stroke:#181818;stroke-width:1;"/><path d="M642.8288,490.1406 Q642.2506,490.4375 641.61,490.5781 Q640.9694,490.7344 640.2663,490.7344 Q637.7663,490.7344 636.4381,489.0938 Q635.1256,487.4375 635.1256,484.3125 Q635.1256,481.1875 636.4381,479.5313 Q637.7663,477.875 640.2663,477.875 Q640.9694,477.875 641.61,478.0313 Q642.2663,478.1875 642.8288,478.4844 L642.8288,481.2031 Q642.2038,480.625 641.61,480.3594 Q641.0163,480.0781 640.3913,480.0781 Q639.0475,480.0781 638.36,481.1563 Q637.6725,482.2188 637.6725,484.3125 Q637.6725,486.4063 638.36,487.4844 Q639.0475,488.5469 640.3913,488.5469 Q641.0163,488.5469 641.61,488.2813 Q642.2038,488 642.8288,487.4219 L642.8288,490.1406 Z " fill="#000000"/><ellipse cx="658.86" cy="484" fill="#84BE84" rx="3" ry="3" style="stroke:#038048;stroke-width:1;"/><text fill="#000000" font-family="sans-serif" font-size="14" lengthAdjust="spacing" textLength="105.0684" x="664.86" y="489.3467">DeadlineGuard</text><line style="stroke:#181818;stroke-width:0.5;" x1="625.86" x2="771.9284" y1="500.5" y2="500.5"/><line style="stroke:#181818;stroke-width:0.5;" x1="625.86" x2="771.9284" y1="508.5" y2="508.5"/></g><!--link DeadlineMonitorBuilder to Error--><g id="link_DeadlineMonitorBuilder_Error"><path codeLine="53" d="M202.96,104.06 C167.16,122.87 131.77,148.06 107.86,181 C38.39,276.71 48.93,318.98 31.86,436 C24.61,485.7 6,505.95 31.86,549 C66.4,606.5 134.2081,635.4764 186.5381,650.6764 " fill="transparent" id="DeadlineMonitorBuilder-to-Error" style="stroke:#181818;stroke-width:1;stroke-dasharray:7.0,7.0;"/><polygon fill="#181818" points="192.3,652.35,184.773,645.9983,187.4985,650.9553,182.5415,653.6808,192.3,652.35" style="stroke:#181818;stroke-width:1;"/></g><!--link DeadlineMonitorBuilder to Tag--><g id="link_DeadlineMonitorBuilder_Tag"><path codeLine="54" d="M631.62,92.73 C757.75,113.2 887.05,142.49 935.86,181 C1027.52,253.31 1063.2705,391.0192 1075.5205,454.3492 " fill="transparent" id="DeadlineMonitorBuilder-to-Tag" style="stroke:#181818;stroke-width:1;stroke-dasharray:7.0,7.0;"/><polygon fill="#181818" points="1076.66,460.24,1078.878,450.6441,1075.7104,455.331,1071.0236,452.1634,1076.66,460.24" style="stroke:#181818;stroke-width:1;"/></g><!--link DeadlineMonitorBuilder to DeadlineMonitor--><g id="link_DeadlineMonitorBuilder_DeadlineMonitor"><path codeLine="55" d="M383.44,104.19 C406.02,126.83 429.5122,150.3725 455.7222,176.6425 " fill="transparent" id="DeadlineMonitorBuilder-to-DeadlineMonitor" style="stroke:#181818;stroke-width:1;stroke-dasharray:7.0,7.0;"/><polygon fill="#181818" points="459.96,180.89,456.435,171.6936,456.4285,177.3504,450.7717,177.344,459.96,180.89" style="stroke:#181818;stroke-width:1;"/><text fill="#000000" font-family="sans-serif" font-size="13" lengthAdjust="spacing" textLength="81.6943" x="430.86" y="147.0669">&#171;consumes&#187;</text></g><!--link DeadlineMonitorBuilder to DurationRange--><g id="link_DeadlineMonitorBuilder_DurationRange"><path codeLine="56" d="M238.87,104.18 C208.74,123.81 178.57,149.45 159.86,181 C109,266.77 112.017,383.4084 118.107,445.7884 " fill="transparent" id="DeadlineMonitorBuilder-to-DurationRange" style="stroke:#181818;stroke-width:1;stroke-dasharray:7.0,7.0;"/><polygon fill="#181818" points="118.69,451.76,121.7966,442.4139,118.2042,446.7837,113.8344,443.1912,118.69,451.76" style="stroke:#181818;stroke-width:1;"/></g><!--reverse link DeadlineMonitor to Status--><g id="link_DeadlineMonitor_Status"><path codeLine="57" d="M694.85,365.8623 C730.08,389.8423 757.51,409.73 790.86,436 C796.48,440.43 802.23,445.25 807.85,450.13 " fill="transparent" id="DeadlineMonitor-backto-Status" style="stroke:#181818;stroke-width:1;"/><polygon fill="#181818" points="684.93,359.11,687.6393,365.7928,694.85,365.8623,692.1408,359.1795,684.93,359.11" style="stroke:#181818;stroke-width:1;"/><text fill="#000000" font-family="sans-serif" font-size="13" lengthAdjust="spacing" textLength="33.5981" x="746.86" y="402.0669">owns</text></g><!--link DeadlineMonitor to Error--><g id="link_DeadlineMonitor_Error"><path codeLine="58" d="M363.05,359.17 C333.66,380.57 306.51,406.09 286.86,436 C252.75,487.91 246.5822,554.4104 247.1422,603.9504 " fill="transparent" id="DeadlineMonitor-to-Error" style="stroke:#181818;stroke-width:1;stroke-dasharray:7.0,7.0;"/><polygon fill="#181818" points="247.21,609.95,251.108,600.9054,247.1535,604.9503,243.1085,600.9958,247.21,609.95" style="stroke:#181818;stroke-width:1;"/></g><!--link DeadlineMonitor to Tag--><g id="link_DeadlineMonitor_Tag"><path codeLine="59" d="M761.21,359.1 C848.07,394.97 937.2942,431.7999 1001.1042,458.1499 " fill="transparent" id="DeadlineMonitor-to-Tag" style="stroke:#181818;stroke-width:1;stroke-dasharray:7.0,7.0;"/><polygon fill="#181818" points="1006.65,460.44,999.8581,453.3077,1002.0285,458.5316,996.8046,460.702,1006.65,460.44" style="stroke:#181818;stroke-width:1;"/></g><!--link DeadlineMonitor to Deadline--><g id="link_DeadlineMonitor_Deadline"><path codeLine="60" d="M507.51,359.1 C495.64,385.01 485.4889,407.1651 474.8289,430.4351 " fill="transparent" id="DeadlineMonitor-to-Deadline" style="stroke:#181818;stroke-width:1;stroke-dasharray:7.0,7.0;"/><polygon fill="#181818" points="472.33,435.89,479.7149,429.3736,474.4124,431.3443,472.4417,426.0418,472.33,435.89" style="stroke:#181818;stroke-width:1;"/><text fill="#000000" font-family="sans-serif" font-size="13" lengthAdjust="spacing" textLength="64.2319" x="492.86" y="402.0669">&#171;creates&#187;</text></g><!--link DeadlineMonitor to DeadlineGuard--><g id="link_DeadlineMonitor_DeadlineGuard"><path codeLine="61" d="M608.19,359.1 C635.3,398.68 661.7405,437.2891 679.5205,463.2591 " fill="transparent" id="DeadlineMonitor-to-DeadlineGuard" style="stroke:#181818;stroke-width:1;stroke-dasharray:7.0,7.0;"/><polygon fill="#181818" points="682.91,468.21,681.1263,458.524,680.0854,464.0843,674.5251,463.0434,682.91,468.21" style="stroke:#181818;stroke-width:1;"/><text fill="#000000" font-family="sans-serif" font-size="13" lengthAdjust="spacing" textLength="64.2319" x="637.86" y="402.0669">&#171;creates&#187;</text></g><!--link DeadlineMonitor to DurationRange--><g id="link_DeadlineMonitor_DurationRange"><path codeLine="62" d="M277.71,359.16 C259.36,368.32 241.55,378.26 224.86,389 C198.49,405.96 177.6512,426.4047 159.2312,447.4547 " fill="transparent" id="DeadlineMonitor-to-DurationRange" style="stroke:#181818;stroke-width:1;stroke-dasharray:7.0,7.0;"/><polygon fill="#181818" points="155.28,451.97,164.217,447.8311,158.5726,448.2072,158.1966,442.5629,155.28,451.97" style="stroke:#181818;stroke-width:1;"/></g><!--link Deadline to Error--><g id="link_Deadline_Error"><path codeLine="63" d="M383.49,549.11 C359.78,569.91 337.4805,589.4934 314.1905,609.9234 " fill="transparent" id="Deadline-to-Error" style="stroke:#181818;stroke-width:1;stroke-dasharray:7.0,7.0;"/><polygon fill="#181818" points="309.68,613.88,319.0836,610.9521,313.4388,610.5828,313.808,604.938,309.68,613.88" style="stroke:#181818;stroke-width:1;"/></g><!--SRC=[bPJBRi8m44NtV8LNLIY13uYYI5Iqh80gT8zCF4IM4XlPOz6gQh-zZiqZ8I7Gh9oPEzV7Z_48X2d96YaQJRu7n7wf4OABt8rdNDDj0Spzl55-6gvHxlTs_3COZ9p3gr9I7GrUA7kdYfQ0e48NMKgS5eKy0FF_AuEhtG9AgRvyO0u25Cz2PwXHcGp9p2YAN8gKYXm6thha8ZedV8H-rY9LULPGhSa7pOyu8m67U1cHgKvX5rlp90c4fOl8SaZ62Lb3iQiLpe2oWWjOIC5HgXV32mQgvXMSguYFKSOsx5WLF9K6YRR9a23DeueZ9Ep8jr7LMgBcqfoTAtCapd9RpHfKDYwRWZO5nbTeeT_rv3RyYJe7h14swRecE3ktgZUveOezuZ6lX6sZp6YKPOlc_WxTHRnoRfB-sxy37qJL2zwnNX8Ccphcc-Q-KBksg-by7xhahqROjrFjepwTiJLJUBb-_VFA_MDAssyrXaRZZMpdTUNQX6uhBQRDt6YkoIJnq_O9x3thIrzV_OZ4SIQ5DYNe9EcjR3mqrpxFu_7fVOo8F0ZTKjoaluNTuFMW2YXsSJQaVYCVq7SkwCBv1m00]--></g></svg>