<svg xmlns="http://www.w3.org/2000/svg" xmlns:xlink="http://www.w3.org/1999/xlink" contentStyleType="text/css" data-diagram-type="CLASS" height="524px" preserveAspectRatio="none" style="width:1144px;height:524px;background:#FFFFFF;" version="1.1" viewBox="0 0 1144 524" width="1144px" zoomAndPan="magnify"><defs/><g><!--class Status--><g id="elem_Status"><rect codeLine="2" fill="#F1F1F1" height="113.1875" id="Status" rx="2.5" ry="2.5" style="stroke:#181818;stroke-width:0.5;" width="87.6113" x="665.5" y="404"/><ellipse cx="680.5" cy="420" fill="#EB937F" rx="11" ry="11" style="stroke:#181818;stroke-width:1;"/><path d="M684.6094,426 L676.8906,426 L676.8906,413.6094 L684.6094,413.6094 L684.6094,415.7656 L679.3438,415.7656 L679.3438,418.4375 L684.1094,418.4375 L684.1094,420.5938 L679.3438,420.5938 L679.3438,423.8438 L684.6094,423.8438 L684.6094,426 Z " fill="#000000"/><ellipse cx="699.5" cy="419.5" fill="#84BE84" rx="3" ry="3" style="stroke:#038048;stroke-width:1;"/><text fill="#000000" font-family="sans-serif" font-size="14" lengthAdjust="spacing" textLength="44.6113" x="705.5" y="424.8467">Status</text><line style="stroke:#181818;stroke-width:0.5;" x1="666.5" x2="752.1113" y1="436" y2="436"/><text fill="#000000" font-family="sans-serif" font-size="14" lengthAdjust="spacing" textLength="57.9961" x="671.5" y="452.9951">Running</text><text fill="#000000" font-family="sans-serif" font-size="14" lengthAdjust="spacing" textLength="60.8193" x="671.5" y="469.292">Disabled</text><text fill="#000000" font-family="sans-serif" font-size="14" lengthAdjust="spacing" textLength="41.9111" x="671.5" y="485.5889">Failed</text><text fill="#000000" font-family="sans-serif" font-size="14" lengthAdjust="spacing" textLength="58.2148" x="671.5" y="501.8857">Stopped</text><line style="stroke:#181818;stroke-width:0.5;" x1="666.5" x2="752.1113" y1="509.1875" y2="509.1875"/></g><!--class Error--><g id="elem_Error"><rect codeLine="9" fill="#F1F1F1" height="113.1875" id="Error" rx="2.5" ry="2.5" style="stroke:#181818;stroke-width:0.5;" width="116.9863" x="7" y="404"/><ellipse cx="39.6884" cy="420" fill="#EB937F" rx="11" ry="11" style="stroke:#181818;stroke-width:1;"/><path d="M43.7978,426 L36.0791,426 L36.0791,413.6094 L43.7978,413.6094 L43.7978,415.7656 L38.5322,415.7656 L38.5322,418.4375 L43.2978,418.4375 L43.2978,420.5938 L38.5322,420.5938 L38.5322,423.8438 L43.7978,423.8438 L43.7978,426 Z " fill="#000000"/><ellipse cx="62.6192" cy="419.5" fill="#84BE84" rx="3" ry="3" style="stroke:#038048;stroke-width:1;"/><text fill="#000000" font-family="sans-serif" font-size="14" lengthAdjust="spacing" textLength="34.6787" x="68.6192" y="424.8467">Error</text><line style="stroke:#181818;stroke-width:0.5;" x1="8" x2="122.9863" y1="436" y2="436"/><text fill="#000000" font-family="sans-serif" font-size="14" lengthAdjust="spacing" textLength="104.9863" x="13" y="452.9951">BadParameter,</text><text fill="#000000" font-family="sans-serif" font-size="14" lengthAdjust="spacing" textLength="83.8496" x="13" y="469.292">NotAllowed,</text><text fill="#000000" font-family="sans-serif" font-size="14" lengthAdjust="spacing" textLength="102.7168" x="13" y="485.5889">OutOfMemory,</text><text fill="#000000" font-family="sans-serif" font-size="14" lengthAdjust="spacing" textLength="58.7412" x="13" y="501.8857">Generic,</text><line style="stroke:#181818;stroke-width:0.5;" x1="8" x2="122.9863" y1="509.1875" y2="509.1875"/></g><!--class Tag--><g id="elem_Tag"><rect codeLine="16" fill="#F1F1F1" height="64.2969" id="Tag" rx="2.5" ry="2.5" style="stroke:#181818;stroke-width:0.5;" width="302.4453" x="159.5" y="428.5"/><ellipse cx="287.9639" cy="444.5" fill="#ADD1B2" rx="11" ry="11" style="stroke:#181818;stroke-width:1;"/><path d="M290.9326,450.1406 Q290.3545,450.4375 289.7139,450.5781 Q289.0732,450.7344 288.3701,450.7344 Q285.8701,450.7344 284.542,449.0938 Q283.2295,447.4375 283.2295,444.3125 Q283.2295,441.1875 284.542,439.5313 Q285.8701,437.875 288.3701,437.875 Q289.0732,437.875 289.7139,438.0313 Q290.3701,438.1875 290.9326,438.4844 L290.9326,441.2031 Q290.3076,440.625 289.7139,440.3594 Q289.1201,440.0781 288.4951,440.0781 Q287.1514,440.0781 286.4639,441.1563 Q285.7764,442.2188 285.7764,444.3125 Q285.7764,446.4063 286.4639,447.4844 Q287.1514,448.5469 288.4951,448.5469 Q289.1201,448.5469 289.7139,448.2813 Q290.3076,448 290.9326,447.4219 L290.9326,450.1406 Z " fill="#000000"/><ellipse cx="313.4639" cy="444" fill="#84BE84" rx="3" ry="3" style="stroke:#038048;stroke-width:1;"/><text fill="#000000" font-family="sans-serif" font-size="14" lengthAdjust="spacing" textLength="26.0176" x="319.4639" y="449.3467">Tag</text><line style="stroke:#181818;stroke-width:0.5;" x1="160.5" x2="460.9453" y1="460.5" y2="460.5"/><line style="stroke:#181818;stroke-width:0.5;" x1="160.5" x2="460.9453" y1="468.5" y2="468.5"/><ellipse cx="170.5" cy="482.1484" fill="#84BE84" rx="3" ry="3" style="stroke:#038048;stroke-width:1;"/><text fill="#000000" font-family="sans-serif" font-size="14" lengthAdjust="spacing" textLength="276.4453" x="179.5" y="485.4951">new&lt;N: AsRef&lt;str&gt;&gt;(name: N) -&gt; Self</text></g><!--class DeadlineMonitor--><g id="elem_DeadlineMonitor"><rect codeLine="20" fill="#F1F1F1" height="48" id="DeadlineMonitor" rx="2.5" ry="2.5" style="stroke:#181818;stroke-width:0.5;" width="158.3428" x="788.5" y="436.5"/><ellipse cx="803.5" cy="452.5" fill="#ADD1B2" rx="11" ry="11" style="stroke:#181818;stroke-width:1;"/><path d="M806.4688,458.1406 Q805.8906,458.4375 805.25,458.5781 Q804.6094,458.7344 803.9063,458.7344 Q801.4063,458.7344 800.0781,457.0938 Q798.7656,455.4375 798.7656,452.3125 Q798.7656,449.1875 800.0781,447.5313 Q801.4063,445.875 803.9063,445.875 Q804.6094,445.875 805.25,446.0313 Q805.9063,446.1875 806.4688,446.4844 L806.4688,449.2031 Q805.8438,448.625 805.25,448.3594 Q804.6563,448.0781 804.0313,448.0781 Q802.6875,448.0781 802,449.1563 Q801.3125,450.2188 801.3125,452.3125 Q801.3125,454.4063 802,455.4844 Q802.6875,456.5469 804.0313,456.5469 Q804.6563,456.5469 805.25,456.2813 Q805.8438,456 806.4688,455.4219 L806.4688,458.1406 Z " fill="#000000"/><ellipse cx="822.5" cy="452" fill="#84BE84" rx="3" ry="3" style="stroke:#038048;stroke-width:1;"/><text fill="#000000" font-family="sans-serif" font-size="14" lengthAdjust="spacing" textLength="115.3428" x="828.5" y="457.3467">DeadlineMonitor</text><line style="stroke:#181818;stroke-width:0.5;" x1="789.5" x2="945.8428" y1="468.5" y2="468.5"/><line style="stroke:#181818;stroke-width:0.5;" x1="789.5" x2="945.8428" y1="476.5" y2="476.5"/></g><!--class LogicMonitor--><g id="elem_LogicMonitor"><rect codeLine="23" fill="#F1F1F1" height="48" id="LogicMonitor" rx="2.5" ry="2.5" style="stroke:#181818;stroke-width:0.5;" width="133.0566" x="497" y="436.5"/><ellipse cx="512" cy="452.5" fill="#ADD1B2" rx="11" ry="11" style="stroke:#181818;stroke-width:1;"/><path d="M514.9688,458.1406 Q514.3906,458.4375 513.75,458.5781 Q513.1094,458.7344 512.4063,458.7344 Q509.9063,458.7344 508.5781,457.0938 Q507.2656,455.4375 507.2656,452.3125 Q507.2656,449.1875 508.5781,447.5313 Q509.9063,445.875 512.4063,445.875 Q513.1094,445.875 513.75,446.0313 Q514.4063,446.1875 514.9688,446.4844 L514.9688,449.2031 Q514.3438,448.625 513.75,448.3594 Q513.1563,448.0781 512.5313,448.0781 Q511.1875,448.0781 510.5,449.1563 Q509.8125,450.2188 509.8125,452.3125 Q509.8125,454.4063 510.5,455.4844 Q511.1875,456.5469 512.5313,456.5469 Q513.1563,456.5469 513.75,456.2813 Q514.3438,456 514.9688,455.4219 L514.9688,458.1406 Z " fill="#000000"/><ellipse cx="531" cy="452" fill="#84BE84" rx="3" ry="3" style="stroke:#038048;stroke-width:1;"/><text fill="#000000" font-family="sans-serif" font-size="14" lengthAdjust="spacing" textLength="90.0566" x="537" y="457.3467">LogicMonitor</text><line style="stroke:#181818;stroke-width:0.5;" x1="498" x2="629.0566" y1="468.5" y2="468.5"/><line style="stroke:#181818;stroke-width:0.5;" x1="498" x2="629.0566" y1="476.5" y2="476.5"/></g><!--class HealthMonitorBuilder--><g id="elem_HealthMonitorBuilder"><rect codeLine="26" fill="#F1F1F1" height="145.7813" id="HealthMonitorBuilder" rx="2.5" ry="2.5" style="stroke:#181818;stroke-width:0.5;" width="628.0273" x="76.5" y="7"/><ellipse cx="306.4126" cy="23" fill="#ADD1B2" rx="11" ry="11" style="stroke:#181818;stroke-width:1;"/><path d="M309.3813,28.6406 Q308.8032,28.9375 308.1626,29.0781 Q307.522,29.2344 306.8188,29.2344 Q304.3188,29.2344 302.9907,27.5938 Q301.6782,25.9375 301.6782,22.8125 Q301.6782,19.6875 302.9907,18.0313 Q304.3188,16.375 306.8188,16.375 Q307.522,16.375 308.1626,16.5313 Q308.8188,16.6875 309.3813,16.9844 L309.3813,19.7031 Q308.7563,19.125 308.1626,18.8594 Q307.5688,18.5781 306.9438,18.5781 Q305.6001,18.5781 304.9126,19.6563 Q304.2251,20.7188 304.2251,22.8125 Q304.2251,24.9063 304.9126,25.9844 Q305.6001,27.0469 306.9438,27.0469 Q307.5688,27.0469 308.1626,26.7813 Q308.7563,26.5 309.3813,25.9219 L309.3813,28.6406 Z " fill="#000000"/><ellipse cx="331.9126" cy="22.5" fill="#84BE84" rx="3" ry="3" style="stroke:#038048;stroke-width:1;"/><text fill="#000000" font-family="sans-serif" font-size="14" lengthAdjust="spacing" textLength="148.7021" x="337.9126" y="27.8467">HealthMonitorBuilder</text><line style="stroke:#181818;stroke-width:0.5;" x1="77.5" x2="703.5273" y1="39" y2="39"/><line style="stroke:#181818;stroke-width:0.5;" x1="77.5" x2="703.5273" y1="47" y2="47"/><ellipse cx="87.5" cy="60.6484" fill="#84BE84" rx="3" ry="3" style="stroke:#038048;stroke-width:1;"/><text fill="#000000" font-family="sans-serif" font-size="14" lengthAdjust="spacing" textLength="91.8613" x="96.5" y="63.9951">new() -&gt; Self</text><ellipse cx="87.5" cy="76.9453" fill="#84BE84" rx="3" ry="3" style="stroke:#038048;stroke-width:1;"/><text fill="#000000" font-family="sans-serif" font-size="14" lengthAdjust="spacing" textLength="227.1172" x="96.5" y="80.292">from_config(config: &amp;str) -&gt; Self</text><ellipse cx="87.5" cy="93.2422" fill="#84BE84" rx="3" ry="3" style="stroke:#038048;stroke-width:1;"/><text fill="#000000" font-family="sans-serif" font-size="14" lengthAdjust="spacing" textLength="602.0273" x="96.5" y="96.5889">add_heartbeat_monitor(&amp;mut self, tag: Tag, monitor: HeartbeatMonitor) -&gt; &amp;mut Self</text><ellipse cx="87.5" cy="109.5391" fill="#84BE84" rx="3" ry="3" style="stroke:#038048;stroke-width:1;"/><text fill="#000000" font-family="sans-serif" font-size="14" lengthAdjust="spacing" textLength="584.9717" x="96.5" y="112.8857">add_deadline_monitor(&amp;mut self, tag: Tag, monitor: DeadlineMonitor) -&gt; &amp;mut Self</text><ellipse cx="87.5" cy="125.8359" fill="#84BE84" rx="3" ry="3" style="stroke:#038048;stroke-width:1;"/><text fill="#000000" font-family="sans-serif" font-size="14" lengthAdjust="spacing" textLength="532.3828" x="96.5" y="129.1826">add_logic_monitor(&amp;mut self, tag: Tag, monitor: LogicMonitor) -&gt; &amp;mut Self</text><ellipse cx="87.5" cy="142.1328" fill="#84BE84" rx="3" ry="3" style="stroke:#038048;stroke-width:1;"/><text fill="#000000" font-family="sans-serif" font-size="14" lengthAdjust="spacing" textLength="305.874" x="96.5" y="145.4795">build(self) -&gt; Result&lt;HealthMonitor, Error&gt;</text></g><!--class HealthMonitor--><g id="elem_HealthMonitor"><rect codeLine="35" fill="#F1F1F1" height="113.1875" id="HealthMonitor" rx="2.5" ry="2.5" style="stroke:#181818;stroke-width:0.5;" width="593.0615" x="342" y="230"/><ellipse cx="579.186" cy="246" fill="#ADD1B2" rx="11" ry="11" style="stroke:#181818;stroke-width:1;"/><path d="M582.1548,251.6406 Q581.5767,251.9375 580.936,252.0781 Q580.2954,252.2344 579.5923,252.2344 Q577.0923,252.2344 575.7642,250.5938 Q574.4517,248.9375 574.4517,245.8125 Q574.4517,242.6875 575.7642,241.0313 Q577.0923,239.375 579.5923,239.375 Q580.2954,239.375 580.936,239.5313 Q581.5923,239.6875 582.1548,239.9844 L582.1548,242.7031 Q581.5298,242.125 580.936,241.8594 Q580.3423,241.5781 579.7173,241.5781 Q578.3735,241.5781 577.686,242.6563 Q576.9985,243.7188 576.9985,245.8125 Q576.9985,247.9063 577.686,248.9844 Q578.3735,250.0469 579.7173,250.0469 Q580.3423,250.0469 580.936,249.7813 Q581.5298,249.5 582.1548,248.9219 L582.1548,251.6406 Z " fill="#000000"/><ellipse cx="604.686" cy="245.5" fill="#84BE84" rx="3" ry="3" style="stroke:#038048;stroke-width:1;"/><text fill="#000000" font-family="sans-serif" font-size="14" lengthAdjust="spacing" textLength="99.1895" x="610.686" y="250.8467">HealthMonitor</text><line style="stroke:#181818;stroke-width:0.5;" x1="343" x2="934.0615" y1="262" y2="262"/><line style="stroke:#181818;stroke-width:0.5;" x1="343" x2="934.0615" y1="270" y2="270"/><ellipse cx="353" cy="283.6484" fill="#84BE84" rx="3" ry="3" style="stroke:#038048;stroke-width:1;"/><text fill="#000000" font-family="sans-serif" font-size="14" lengthAdjust="spacing" textLength="567.0615" x="362" y="286.9951">get_heartbeat_monitor(&amp;mut self, tag: Tag) -&gt; Result&lt;HeartbeatMonitor, Error&gt;</text><ellipse cx="353" cy="299.9453" fill="#84BE84" rx="3" ry="3" style="stroke:#038048;stroke-width:1;"/><text fill="#000000" font-family="sans-serif" font-size="14" lengthAdjust="spacing" textLength="517.5557" x="362" y="303.292">get_deadline_monitor(&amp;self, tag: Tag) -&gt; Result&lt;DeadlineMonitor, Error&gt;</text><ellipse cx="353" cy="316.2422" fill="#84BE84" rx="3" ry="3" style="stroke:#038048;stroke-width:1;"/><text fill="#000000" font-family="sans-serif" font-size="14" lengthAdjust="spacing" textLength="464.9668" x="362" y="319.5889">get_logic_monitor(&amp;self, tag: Tag) -&gt; Result&lt;LogicMonitor, Error&gt;</text><ellipse cx="353" cy="332.5391" fill="#84BE84" rx="3" ry="3" style="stroke:#038048;stroke-width:1;"/><text fill="#000000" font-family="sans-serif" font-size="14" lengthAdjust="spacing" textLength="159.8789" x="362" y="335.8857">status(&amp;self) -&gt; Status</text></g><!--class HeartbeatMonitor--><g id="elem_HeartbeatMonitor"><rect fill="#F1F1F1" height="48" id="HeartbeatMonitor" rx="2.5" ry="2.5" style="stroke:#181818;stroke-width:0.5;" width="155.751" x="981.5" y="436.5"/><ellipse cx="996.5" cy="452.5" fill="#ADD1B2" rx="11" ry="11" style="stroke:#181818;stroke-width:1;"/><path d="M999.4688,458.1406 Q998.8906,458.4375 998.25,458.5781 Q997.6094,458.7344 996.9063,458.7344 Q994.4063,458.7344 993.0781,457.0938 Q991.7656,455.4375 991.7656,452.3125 Q991.7656,449.1875 993.0781,447.5313 Q994.4063,445.875 996.9063,445.875 Q997.6094,445.875 998.25,446.0313 Q998.9063,446.1875 999.4688,446.4844 L999.4688,449.2031 Q998.8438,448.625 998.25,448.3594 Q997.6563,448.0781 997.0313,448.0781 Q995.6875,448.0781 995,449.1563 Q994.3125,450.2188 994.3125,452.3125 Q994.3125,454.4063 995,455.4844 Q995.6875,456.5469 997.0313,456.5469 Q997.6563,456.5469 998.25,456.2813 Q998.8438,456 999.4688,455.4219 L999.4688,458.1406 Z " fill="#000000"/><text fill="#000000" font-family="sans-serif" font-size="14" lengthAdjust="spacing" textLength="123.751" x="1010.5" y="457.3467">HeartbeatMonitor</text><line style="stroke:#181818;stroke-width:0.5;" x1="982.5" x2="1136.251" y1="468.5" y2="468.5"/><line style="stroke:#181818;stroke-width:0.5;" x1="982.5" x2="1136.251" y1="476.5" y2="476.5"/></g><!--link HealthMonitorBuilder to Error--><g id="link_HealthMonitorBuilder_Error"><path codeLine="42" d="M281.25,153.1 C269.67,162.57 258.5,172.61 248.5,183 C183.23,250.81 129.5717,339.5273 97.2317,398.5873 " fill="transparent" id="HealthMonitorBuilder-to-Error" style="stroke:#181818;stroke-width:1;stroke-dasharray:7.0,7.0;"/><polygon fill="#181818" points="94.35,403.85,102.181,397.8771,96.7514,399.4644,95.1641,394.0348,94.35,403.85" style="stroke:#181818;stroke-width:1;"/></g><!--link HealthMonitorBuilder to Tag--><g id="link_HealthMonitorBuilder_Tag"><path codeLine="43" d="M282.56,153.13 C274.61,162.28 267.68,172.25 262.5,183 C225.65,259.48 241.02,291.87 262.5,374 C267.54,393.27 274.7802,407.7171 284.6502,423.2371 " fill="transparent" id="HealthMonitorBuilder-to-Tag" style="stroke:#181818;stroke-width:1;stroke-dasharray:7.0,7.0;"/><polygon fill="#181818" points="287.87,428.3,286.4156,418.5591,285.1869,424.0809,279.6651,422.8522,287.87,428.3" style="stroke:#181818;stroke-width:1;"/></g><!--link HealthMonitorBuilder to HealthMonitor--><g id="link_HealthMonitorBuilder_HealthMonitor"><path codeLine="44" d="M477.94,153.1 C508.48,178.28 537.6407,202.3329 566.3107,225.9729 " fill="transparent" id="HealthMonitorBuilder-to-HealthMonitor" style="stroke:#181818;stroke-width:1;stroke-dasharray:7.0,7.0;"/><polygon fill="#181818" points="570.94,229.79,566.5408,220.9782,567.0823,226.6091,561.4514,227.1506,570.94,229.79" style="stroke:#181818;stroke-width:1;"/><text fill="#000000" font-family="sans-serif" font-size="13" lengthAdjust="spacing" textLength="81.6943" x="530.5" y="196.0669">&#171;consumes&#187;</text></g><!--reverse link HealthMonitorBuilder to DeadlineMonitor--><g id="link_HealthMonitorBuilder_DeadlineMonitor"><path codeLine="45" d="M716.3745,132.3064 C826.4945,156.3164 919.38,186.95 952.5,230 C1002.51,294.99 928.8,392.43 889.5,436.45 " fill="transparent" id="HealthMonitorBuilder-backto-DeadlineMonitor" style="stroke:#181818;stroke-width:1;"/><polygon fill="transparent" points="704.65,129.75,709.6602,134.9364,716.3745,132.3064,711.3644,127.12,704.65,129.75" style="stroke:#181818;stroke-width:1;"/><text fill="#000000" font-family="sans-serif" font-size="13" lengthAdjust="spacing" textLength="23.0356" x="869.1513" y="425.4492">0..*</text></g><!--reverse link HealthMonitorBuilder to LogicMonitor--><g id="link_HealthMonitorBuilder_LogicMonitor"><path codeLine="46" d="M337.3971,163.7282 C307.1871,219.6582 286.01,286.35 324.5,343 C365.87,403.89 413.13,370.15 478.5,404 C496.65,413.4 515.81,425.68 531.33,436.29 " fill="transparent" id="HealthMonitorBuilder-backto-LogicMonitor" style="stroke:#181818;stroke-width:1;"/><polygon fill="transparent" points="343.1,153.17,336.7291,156.5481,337.3971,163.7282,343.768,160.3501,343.1,153.17" style="stroke:#181818;stroke-width:1;"/><text fill="#000000" font-family="sans-serif" font-size="13" lengthAdjust="spacing" textLength="23.0356" x="497.1369" y="425.2482">0..*</text></g><!--reverse link HealthMonitorBuilder to HeartbeatMonitor--><g id="link_HealthMonitorBuilder_HeartbeatMonitor"><path codeLine="47" d="M716.5217,118.9897 C790.5617,133.9697 856.05,152.85 924.5,183 C956.47,197.08 967.29,201.51 987.5,230 C1034,295.57 1051.28,392.29 1056.99,436.25 " fill="transparent" id="HealthMonitorBuilder-backto-HeartbeatMonitor" style="stroke:#181818;stroke-width:1;"/><polygon fill="transparent" points="704.76,116.61,709.8476,121.7204,716.5217,118.9897,711.4341,113.8793,704.76,116.61" style="stroke:#181818;stroke-width:1;"/><text fill="#000000" font-family="sans-serif" font-size="13" lengthAdjust="spacing" textLength="23.0356" x="1030.6098" y="425.594">0..*</text></g><!--reverse link HealthMonitor to Status--><g id="link_HealthMonitor_Status"><path codeLine="48" d="M666.1285,354.4322 C674.1485,373.8622 678.56,384.54 686.56,403.94 " fill="transparent" id="HealthMonitor-backto-Status" style="stroke:#181818;stroke-width:1;"/><polygon fill="#181818" points="661.55,343.34,660.1418,350.4123,666.1285,354.4322,667.5366,347.36,661.55,343.34" style="stroke:#181818;stroke-width:1;"/></g><!--link HealthMonitor to Error--><g id="link_HealthMonitor_Error"><path codeLine="49" d="M341.93,336.55 C274.32,353.28 204.02,375.29 141.5,404 C135.71,406.66 135.0634,406.7104 129.4034,410.1104 " fill="transparent" id="HealthMonitor-to-Error" style="stroke:#181818;stroke-width:1;stroke-dasharray:7.0,7.0;"/><polygon fill="#181818" points="124.26,413.2,134.0348,411.9944,128.5461,410.6253,129.9153,405.1366,124.26,413.2" style="stroke:#181818;stroke-width:1;"/></g><!--link HealthMonitor to Tag--><g id="link_HealthMonitor_Tag"><path codeLine="50" d="M532.46,343.11 C478.56,371.37 420.3736,401.8834 375.1436,425.6034 " fill="transparent" id="HealthMonitor-to-Tag" style="stroke:#181818;stroke-width:1;stroke-dasharray:7.0,7.0;"/><polygon fill="#181818" points="369.83,428.39,379.6582,427.7525,374.258,426.0678,375.9427,420.6676,369.83,428.39" style="stroke:#181818;stroke-width:1;"/></g><!--reverse link HealthMonitor to DeadlineMonitor--><g id="link_HealthMonitor_DeadlineMonitor"><path codeLine="51" d="M722.1256,350.3158 C764.2056,381.9158 805.06,412.6 836.7,436.37 " fill="transparent" id="HealthMonitor-backto-DeadlineMonitor" style="stroke:#181818;stroke-width:1;"/><polygon fill="transparent" points="712.53,343.11,714.9259,349.9115,722.1256,350.3158,719.7298,343.5144,712.53,343.11" style="stroke:#181818;stroke-width:1;"/><text fill="#000000" font-family="sans-serif" font-size="13" lengthAdjust="spacing" textLength="23.0356" x="802.8213" y="425.3487">0..*</text></g><!--reverse link HealthMonitor to LogicMonitor--><g id="link_HealthMonitor_LogicMonitor"><path codeLine="52" d="M609.355,354.3404 C595.585,385.9304 583.89,412.73 573.56,436.43 " fill="transparent" id="HealthMonitor-backto-LogicMonitor" style="stroke:#181818;stroke-width:1;"/><polygon fill="transparent" points="614.15,343.34,608.0857,347.2418,609.355,354.3404,615.4193,350.4385,614.15,343.34" style="stroke:#181818;stroke-width:1;"/><text fill="#000000" font-family="sans-serif" font-size="13" lengthAdjust="spacing" textLength="23.0356" x="550.1883" y="425.4241">0..*</text></g><!--reverse link HealthMonitor to HeartbeatMonitor--><g id="link_HealthMonitor_HeartbeatMonitor"><path codeLine="53" d="M822.9058,347.0722 C872.6858,364.7822 915.24,381.62 963.5,404 C983.76,413.39 1005.37,425.67 1022.95,436.29 " fill="transparent" id="HealthMonitor-backto-HeartbeatMonitor" style="stroke:#181818;stroke-width:1;"/><polygon fill="transparent" points="811.6,343.05,815.9122,348.8297,822.9058,347.0722,818.5937,341.2925,811.6,343.05" style="stroke:#181818;stroke-width:1;"/><text fill="#000000" font-family="sans-serif" font-size="13" lengthAdjust="spacing" textLength="23.0356" x="987.6737" y="425.2482">0..*</text></g><!--SRC=[ZPDBRu904CVlVefD3uOgafu98T7Onw5gexsR5GRSPDar-uXfcdxtBhje0Q72XMKUlvdvxp05fWkqKrXfYRv7o3nRpHXXkJqlYSG72gdzUC7aSjmfVZgPyyzeDBM4Po6ug00Bd7vWWGjG87nhMNCrfvIV8NNV6wqssGeABhwSuHKO29Bu5fXGB2Nwn7d5cp8uH-iGpUKMiaWg4SSUC_WGhH_HB4Oxe5ajSGaufOJ1YZEYR5D_ldUUawJByGQOgcFbMMX2Kn2ryjwr47AsJF1Ydt2MaTnphn2DJMljE9oc-oDWeGw0rRvmV6zSQ8MaYVAHmYRJpEgZoXcMlRZugXtBj2bsqYithGOTY6tfqaUbfKG3aNKvktY7KaYlJBVUBKXDLTJGsdUh4_VTnUKISb33X6nLQYXvBNP5tchOJsi9U0jhITTFgklMn4Zx9xfSjqlMKAhJkQ914BlyVhUftUziQXsYA3BRB7K1Cewxi_XiXXwUWc3oqDwek_7riUy6j- -kcO0c9hBIfkdeKQHRYi7J31lZl_v_0G00]--></g></svg>