<svg xmlns="http://www.w3.org/2000/svg" xmlns:xlink="http://www.w3.org/1999/xlink" contentStyleType="text/css" data-diagram-type="SEQUENCE" height="1280px" preserveAspectRatio="none" style="width:1306px;height:1280px;background:#FFFFFF;" version="1.1" viewBox="0 0 1306 1280" width="1306px" zoomAndPan="magnify"><defs/><g><rect fill="#DDDDDD" height="1268.3125" style="stroke:#181818;stroke-width:0.5;" width="736.0752" x="16" y="6"/><text fill="#000000" font-family="sans-serif" font-size="13" font-weight="bold" lengthAdjust="spacing" textLength="94.6943" x="336.6904" y="18.0669">User process</text><rect fill="#DDDDDD" height="1268.3125" style="stroke:#181818;stroke-width:0.5;" width="179.8115" x="917.1304" y="6"/><text fill="#000000" font-family="sans-serif" font-size="13" font-weight="bold" lengthAdjust="spacing" textLength="173.8115" x="920.1304" y="18.0669">LaunchDaemon process</text><rect fill="transparent" height="451.7969" style="stroke:#000000;stroke-width:1.5;" width="1270.0439" x="10" y="726.2188"/><rect fill="transparent" height="59.2656" style="stroke:#000000;stroke-width:1.5;" width="192.8599" x="935.1641" y="889.1484"/><rect fill="transparent" height="59.2656" style="stroke:#000000;stroke-width:1.5;" width="192.8599" x="935.1641" y="1004.5469"/><g><title>user</title><rect fill="transparent" height="334.4609" width="8" x="34.2681" y="101.4297"/><line style="stroke:#181818;stroke-width:0.5;stroke-dasharray:5.0,5.0;" x1="38" x2="38" y1="101.4297" y2="435.8906"/></g><line style="stroke:#A80036;stroke-width:1;stroke-dasharray:1.0,4.0;" x1="38" x2="38" y1="435.8906" y2="463.8906"/><g><title>user</title><rect fill="transparent" height="227.3281" width="8" x="34.2681" y="463.8906"/><line style="stroke:#181818;stroke-width:0.5;stroke-dasharray:5.0,5.0;" x1="38" x2="38" y1="463.8906" y2="691.2188"/></g><line style="stroke:#A80036;stroke-width:1;stroke-dasharray:1.0,4.0;" x1="38" x2="38" y1="691.2188" y2="719.2188"/><g><title>user</title><rect fill="transparent" height="475.7969" width="8" x="34.2681" y="719.2188"/><line style="stroke:#181818;stroke-width:0.5;stroke-dasharray:5.0,5.0;" x1="38" x2="38" y1="719.2188" y2="1195.0156"/></g><g><title>HealthMonitorBuilder</title><rect fill="transparent" height="334.4609" width="8" x="370.9282" y="101.4297"/><line style="stroke:#181818;stroke-width:0.5;stroke-dasharray:5.0,5.0;" x1="374.5771" x2="374.5771" y1="101.4297" y2="435.8906"/></g><line style="stroke:#A80036;stroke-width:1;stroke-dasharray:1.0,4.0;" x1="374.5771" x2="374.5771" y1="435.8906" y2="463.8906"/><g><title>HealthMonitorBuilder</title><rect fill="transparent" height="227.3281" width="8" x="370.9282" y="463.8906"/><line style="stroke:#181818;stroke-width:0.5;stroke-dasharray:5.0,5.0;" x1="374.5771" x2="374.5771" y1="463.8906" y2="691.2188"/></g><line style="stroke:#A80036;stroke-width:1;stroke-dasharray:1.0,4.0;" x1="374.5771" x2="374.5771" y1="691.2188" y2="719.2188"/><g><title>HealthMonitorBuilder</title><rect fill="transparent" height="475.7969" width="8" x="370.9282" y="719.2188"/><line style="stroke:#181818;stroke-width:0.5;stroke-dasharray:5.0,5.0;" x1="374.5771" x2="374.5771" y1="719.2188" y2="1195.0156"/></g><g><title>HealthMonitor</title><rect fill="transparent" height="334.4609" width="8" x="518.874" y="101.4297"/><line style="stroke:#181818;stroke-width:0.5;stroke-dasharray:5.0,5.0;" x1="522.2793" x2="522.2793" y1="101.4297" y2="435.8906"/></g><line style="stroke:#A80036;stroke-width:1;stroke-dasharray:1.0,4.0;" x1="522.2793" x2="522.2793" y1="435.8906" y2="463.8906"/><g><title>HealthMonitor</title><rect fill="transparent" height="227.3281" width="8" x="518.874" y="463.8906"/><line style="stroke:#181818;stroke-width:0.5;stroke-dasharray:5.0,5.0;" x1="522.2793" x2="522.2793" y1="463.8906" y2="691.2188"/></g><line style="stroke:#A80036;stroke-width:1;stroke-dasharray:1.0,4.0;" x1="522.2793" x2="522.2793" y1="691.2188" y2="719.2188"/><g><title>HealthMonitor</title><rect fill="transparent" height="475.7969" width="8" x="518.874" y="719.2188"/><line style="stroke:#181818;stroke-width:0.5;stroke-dasharray:5.0,5.0;" x1="522.2793" x2="522.2793" y1="719.2188" y2="1195.0156"/></g><g><title>Lifecycle</title><rect fill="transparent" height="334.4609" width="8" x="706.3682" y="101.4297"/><line style="stroke:#181818;stroke-width:0.5;stroke-dasharray:5.0,5.0;" x1="709.6611" x2="709.6611" y1="101.4297" y2="435.8906"/></g><line style="stroke:#A80036;stroke-width:1;stroke-dasharray:1.0,4.0;" x1="709.6611" x2="709.6611" y1="435.8906" y2="463.8906"/><g><title>Lifecycle</title><rect fill="transparent" height="227.3281" width="8" x="706.3682" y="463.8906"/><line style="stroke:#181818;stroke-width:0.5;stroke-dasharray:5.0,5.0;" x1="709.6611" x2="709.6611" y1="463.8906" y2="691.2188"/></g><line style="stroke:#A80036;stroke-width:1;stroke-dasharray:1.0,4.0;" x1="709.6611" x2="709.6611" y1="691.2188" y2="719.2188"/><g><title>Lifecycle</title><rect fill="transparent" height="475.7969" width="8" x="706.3682" y="719.2188"/><line style="stroke:#181818;stroke-width:0.5;stroke-dasharray:5.0,5.0;" x1="709.6611" x2="709.6611" y1="719.2188" y2="1195.0156"/></g><g><title>LaunchDaemon</title><rect fill="transparent" height="334.4609" width="8" x="1003.0361" y="101.4297"/><line style="stroke:#181818;stroke-width:0.5;stroke-dasharray:5.0,5.0;" x1="1006.1641" x2="1006.1641" y1="101.4297" y2="435.8906"/></g><line style="stroke:#A80036;stroke-width:1;stroke-dasharray:1.0,4.0;" x1="1006.1641" x2="1006.1641" y1="435.8906" y2="463.8906"/><g><title>LaunchDaemon</title><rect fill="transparent" height="227.3281" width="8" x="1003.0361" y="463.8906"/><line style="stroke:#181818;stroke-width:0.5;stroke-dasharray:5.0,5.0;" x1="1006.1641" x2="1006.1641" y1="463.8906" y2="691.2188"/></g><line style="stroke:#A80036;stroke-width:1;stroke-dasharray:1.0,4.0;" x1="1006.1641" x2="1006.1641" y1="691.2188" y2="719.2188"/><g><title>LaunchDaemon</title><rect fill="transparent" height="475.7969" width="8" x="1003.0361" y="719.2188"/><line style="stroke:#181818;stroke-width:0.5;stroke-dasharray:5.0,5.0;" x1="1006.1641" x2="1006.1641" y1="719.2188" y2="1195.0156"/></g><text fill="#000000" font-family="sans-serif" font-size="14" lengthAdjust="spacing" textLength="30.5361" x="20" y="98.1279">user</text><ellipse cx="38.2681" cy="33.6328" fill="#E2E2F0" rx="8" ry="8" style="stroke:#181818;stroke-width:0.5;"/><path d="M38.2681,41.6328 L38.2681,68.6328 M25.2681,49.6328 L51.2681,49.6328 M38.2681,68.6328 L25.2681,83.6328 M38.2681,68.6328 L51.2681,83.6328 " fill="transparent" style="stroke:#181818;stroke-width:0.5;"/><text fill="#000000" font-family="sans-serif" font-size="14" lengthAdjust="spacing" textLength="30.5361" x="20" y="1207.0107">user</text><ellipse cx="38.2681" cy="1218.8125" fill="#E2E2F0" rx="8" ry="8" style="stroke:#181818;stroke-width:0.5;"/><path d="M38.2681,1226.8125 L38.2681,1253.8125 M25.2681,1234.8125 L51.2681,1234.8125 M38.2681,1253.8125 L25.2681,1268.8125 M38.2681,1253.8125 L51.2681,1268.8125 " fill="transparent" style="stroke:#181818;stroke-width:0.5;"/><rect fill="#E2E2F0" height="30.2969" rx="2.5" ry="2.5" style="stroke:#181818;stroke-width:0.5;" width="162.7021" x="293.5771" y="70.1328"/><text fill="#000000" font-family="sans-serif" font-size="14" lengthAdjust="spacing" textLength="148.7021" x="300.5771" y="90.1279">HealthMonitorBuilder</text><rect fill="#E2E2F0" height="30.2969" rx="2.5" ry="2.5" style="stroke:#181818;stroke-width:0.5;" width="162.7021" x="293.5771" y="1194.0156"/><text fill="#000000" font-family="sans-serif" font-size="14" lengthAdjust="spacing" textLength="148.7021" x="300.5771" y="1214.0107">HealthMonitorBuilder</text><rect fill="#E2E2F0" height="30.2969" rx="2.5" ry="2.5" style="stroke:#181818;stroke-width:0.5;" width="113.1895" x="466.2793" y="70.1328"/><text fill="#000000" font-family="sans-serif" font-size="14" lengthAdjust="spacing" textLength="99.1895" x="473.2793" y="90.1279">HealthMonitor</text><rect fill="#E2E2F0" height="30.2969" rx="2.5" ry="2.5" style="stroke:#181818;stroke-width:0.5;" width="113.1895" x="466.2793" y="1194.0156"/><text fill="#000000" font-family="sans-serif" font-size="14" lengthAdjust="spacing" textLength="99.1895" x="473.2793" y="1214.0107">HealthMonitor</text><rect fill="#E2E2F0" height="30.2969" rx="2.5" ry="2.5" style="stroke:#181818;stroke-width:0.5;" width="75.4141" x="672.6611" y="70.1328"/><text fill="#000000" font-family="sans-serif" font-size="14" lengthAdjust="spacing" textLength="61.4141" x="679.6611" y="90.1279">Lifecycle</text><rect fill="#E2E2F0" height="30.2969" rx="2.5" ry="2.5" style="stroke:#181818;stroke-width:0.5;" width="75.4141" x="672.6611" y="1194.0156"/><text fill="#000000" font-family="sans-serif" font-size="14" lengthAdjust="spacing" textLength="61.4141" x="679.6611" y="1214.0107">Lifecycle</text><rect fill="#E2E2F0" height="30.2969" rx="2.5" ry="2.5" style="stroke:#181818;stroke-width:0.5;" width="123.7441" x="945.1641" y="70.1328"/><text fill="#000000" font-family="sans-serif" font-size="14" lengthAdjust="spacing" textLength="109.7441" x="952.1641" y="90.1279">LaunchDaemon</text><rect fill="#E2E2F0" height="30.2969" rx="2.5" ry="2.5" style="stroke:#181818;stroke-width:0.5;" width="123.7441" x="945.1641" y="1194.0156"/><text fill="#000000" font-family="sans-serif" font-size="14" lengthAdjust="spacing" textLength="109.7441" x="952.1641" y="1214.0107">LaunchDaemon</text><rect fill="#EEEEEE" height="3" style="stroke:#EEEEEE;stroke-width:1;" width="1299.0776" x="0" y="131.9961"/><line style="stroke:#000000;stroke-width:1;" x1="0" x2="1299.0776" y1="131.9961" y2="131.9961"/><line style="stroke:#000000;stroke-width:1;" x1="0" x2="1299.0776" y1="134.9961" y2="134.9961"/><rect fill="#EEEEEE" height="23.1328" style="stroke:#000000;stroke-width:2;" width="137.9126" x="580.5825" y="121.4297"/><text fill="#000000" font-family="sans-serif" font-size="13" font-weight="bold" lengthAdjust="spacing" textLength="119.3867" x="586.5825" y="137.4966">Application Side</text><path d="M43,159.5625 L43,199.5625 L401,199.5625 L401,169.5625 L391,159.5625 L43,159.5625 " fill="#ADD8E6" style="stroke:#181818;stroke-width:0.5;"/><path d="M391,159.5625 L391,169.5625 L401,169.5625 L391,159.5625 " fill="#ADD8E6" style="stroke:#181818;stroke-width:0.5;"/><text fill="#000000" font-family="sans-serif" font-size="13" lengthAdjust="spacing" textLength="144.3647" x="49" y="176.6294">Each Application have</text><text fill="#000000" font-family="sans-serif" font-size="13" font-weight="bold" lengthAdjust="spacing" textLength="98.6045" x="197.4971" y="176.6294">configuration</text><text fill="#000000" font-family="sans-serif" font-size="13" lengthAdjust="spacing" textLength="337.8794" x="49" y="191.7622">for HealthMonitoring that is send to LaunchDaemon</text><polygon fill="#181818" points="362.9282,221.9609,372.9282,225.9609,362.9282,229.9609,366.9282,225.9609" style="stroke:#181818;stroke-width:1;"/><line style="stroke:#181818;stroke-width:1;" x1="38.2681" x2="368.9282" y1="225.9609" y2="225.9609"/><text fill="#000000" font-family="sans-serif" font-size="13" lengthAdjust="spacing" textLength="312.6602" x="45.2681" y="220.895">build(supervisor_api_notification_cycle_time, ...)</text><polygon fill="#181818" points="510.874,251.0938,520.874,255.0938,510.874,259.0938,514.874,255.0938" style="stroke:#181818;stroke-width:1;"/><line style="stroke:#181818;stroke-width:1;" x1="374.9282" x2="516.874" y1="255.0938" y2="255.0938"/><text fill="#000000" font-family="sans-serif" font-size="13" lengthAdjust="spacing" textLength="41.5518" x="381.9282" y="250.0278">create</text><polygon fill="#181818" points="995.0361,283.2266,1005.0361,287.2266,995.0361,291.2266,999.0361,287.2266" style="stroke:#181818;stroke-width:1;"/><line style="stroke:#181818;stroke-width:1;" x1="522.874" x2="1001.0361" y1="287.2266" y2="287.2266"/><text fill="#000000" font-family="sans-serif" font-size="13" lengthAdjust="spacing" textLength="436.1284" x="529.874" y="282.1606">register_health_monitor(supervisor_api_notification_cycle_time, ...)</text><path d="M220,268.0938 L220,293.0938 L517,293.0938 L517,278.0938 L507,268.0938 L220,268.0938 " fill="#FEFFDD" style="stroke:#181818;stroke-width:0.5;"/><path d="M507,268.0938 L507,278.0938 L517,278.0938 L507,268.0938 " fill="#FEFFDD" style="stroke:#181818;stroke-width:0.5;"/><text fill="#000000" font-family="sans-serif" font-size="13" lengthAdjust="spacing" textLength="276.3262" x="226" y="285.1606">All configuration needed can be send here</text><polygon fill="#181818" points="49.2681,315.3594,39.2681,319.3594,49.2681,323.3594,45.2681,319.3594" style="stroke:#181818;stroke-width:1;"/><line style="stroke:#181818;stroke-width:1;stroke-dasharray:2.0,2.0;" x1="43.2681" x2="373.9282" y1="319.3594" y2="319.3594"/><text fill="#000000" font-family="sans-serif" font-size="13" lengthAdjust="spacing" textLength="151.3091" x="55.2681" y="314.2935">HealthMonitor instance</text><polygon fill="#181818" points="510.874,344.4922,520.874,348.4922,510.874,352.4922,514.874,348.4922" style="stroke:#181818;stroke-width:1;"/><line style="stroke:#181818;stroke-width:1;" x1="38.2681" x2="516.874" y1="348.4922" y2="348.4922"/><text fill="#000000" font-family="sans-serif" font-size="13" lengthAdjust="spacing" textLength="40.4219" x="45.2681" y="343.4263">start()</text><polygon fill="#181818" points="995.0361,373.625,1005.0361,377.625,995.0361,381.625,999.0361,377.625" style="stroke:#181818;stroke-width:1;"/><line style="stroke:#181818;stroke-width:1;" x1="522.874" x2="1001.0361" y1="377.625" y2="377.625"/><text fill="#000000" font-family="sans-serif" font-size="13" lengthAdjust="spacing" textLength="170.4663" x="529.874" y="372.5591">notify_started(timestamp)</text><line style="stroke:#181818;stroke-width:1;" x1="522.874" x2="564.874" y1="410.8242" y2="410.8242"/><line style="stroke:#181818;stroke-width:1;" x1="564.874" x2="564.874" y1="410.8242" y2="423.8242"/><line style="stroke:#181818;stroke-width:1;" x1="523.874" x2="564.874" y1="423.8242" y2="423.8242"/><polygon fill="#181818" points="533.874,419.8242,523.874,423.8242,533.874,427.8242,529.874,423.8242" style="stroke:#181818;stroke-width:1;"/><text fill="#000000" font-family="sans-serif" font-size="13" lengthAdjust="spacing" textLength="173.4941" x="529.874" y="405.7583">start_background_thread()</text><path d="M123,390.625 L123,430.625 L517,430.625 L517,400.625 L507,390.625 L123,390.625 " fill="#FEFFDD" style="stroke:#181818;stroke-width:0.5;"/><path d="M507,390.625 L507,400.625 L517,400.625 L507,390.625 " fill="#FEFFDD" style="stroke:#181818;stroke-width:0.5;"/><text fill="#000000" font-family="sans-serif" font-size="13" lengthAdjust="spacing" textLength="373.8452" x="129" y="407.6919">Notification has to finish before background thread starts</text><text fill="#000000" font-family="sans-serif" font-size="13" lengthAdjust="spacing" textLength="188.3984" x="129" y="422.8247">to not race with lifecycle api.</text><polygon fill="#181818" points="698.3682,481.0234,708.3682,485.0234,698.3682,489.0234,702.3682,485.0234" style="stroke:#181818;stroke-width:1;"/><line style="stroke:#181818;stroke-width:1;" x1="38.2681" x2="704.3682" y1="485.0234" y2="485.0234"/><text fill="#000000" font-family="sans-serif" font-size="13" lengthAdjust="spacing" textLength="106.7993" x="45.2681" y="479.9575">report_running()</text><polygon fill="#181818" points="995.0361,495.0234,1005.0361,499.0234,995.0361,503.0234,999.0361,499.0234" style="stroke:#181818;stroke-width:1;"/><line style="stroke:#181818;stroke-width:1;" x1="710.3682" x2="1001.0361" y1="499.0234" y2="499.0234"/><rect fill="#EEEEEE" height="3" style="stroke:#EEEEEE;stroke-width:1;" width="1299.0776" x="0" y="527.5898"/><line style="stroke:#000000;stroke-width:1;" x1="0" x2="1299.0776" y1="527.5898" y2="527.5898"/><line style="stroke:#000000;stroke-width:1;" x1="0" x2="1299.0776" y1="530.5898" y2="530.5898"/><rect fill="#EEEEEE" height="23.1328" style="stroke:#000000;stroke-width:2;" width="167.6323" x="565.7227" y="517.0234"/><text fill="#000000" font-family="sans-serif" font-size="13" font-weight="bold" lengthAdjust="spacing" textLength="149.1064" x="571.7227" y="533.0903">LaunchDaemon Side</text><path d="M556,555.1563 L556,686.1563 L1001,686.1563 L1001,565.1563 L991,555.1563 L556,555.1563 " fill="#ADD8E6" style="stroke:#181818;stroke-width:0.5;"/><path d="M991,555.1563 L991,565.1563 L1001,565.1563 L991,555.1563 " fill="#ADD8E6" style="stroke:#181818;stroke-width:0.5;"/><text fill="#000000" font-family="sans-serif" font-size="13" lengthAdjust="spacing" textLength="143.438" x="562" y="572.2231">Each application have</text><text fill="#000000" font-family="sans-serif" font-size="13" font-weight="bold" lengthAdjust="spacing" textLength="142.3018" x="709.5703" y="572.2231">configuration entry</text><text fill="#000000" font-family="sans-serif" font-size="13" lengthAdjust="spacing" textLength="416.2539" x="562" y="587.356">for Lifecycle parameters (as part of LaunchDaemon config) like:</text><text fill="#000000" font-family="sans-serif" font-size="13" lengthAdjust="spacing" textLength="154.8892" x="562" y="602.4888">- self terminating or not</text><text fill="#000000" font-family="sans-serif" font-size="13" lengthAdjust="spacing" textLength="121.2212" x="562" y="617.6216">- health monitored</text><text fill="#000000" font-family="sans-serif" font-size="13" lengthAdjust="spacing" textLength="231.5181" x="562" y="632.7544">- timeouts for startup, shutdown, ...</text><text fill="#000000" font-family="sans-serif" font-size="13" lengthAdjust="spacing" textLength="4.1323" x="562" y="647.8872">&#160;</text><text fill="#000000" font-family="sans-serif" font-size="13" lengthAdjust="spacing" textLength="70.478" x="562" y="663.02">This config</text><text fill="#000000" font-family="sans-serif" font-size="13" font-weight="bold" lengthAdjust="spacing" textLength="121.4941" x="636.6104" y="663.02">does not include</text><text fill="#000000" font-family="sans-serif" font-size="13" lengthAdjust="spacing" textLength="223.9072" x="762.2368" y="663.02">any Health Monitoring parameters</text><text fill="#000000" font-family="sans-serif" font-size="13" lengthAdjust="spacing" textLength="341.6309" x="562" y="678.1528">as those are send during HealthMonitor registration.</text><path d="M10,726.2188 L74.4429,726.2188 L74.4429,733.3516 L64.4429,743.3516 L10,743.3516 L10,726.2188 " fill="#EEEEEE" style="stroke:#000000;stroke-width:1.5;"/><rect fill="transparent" height="451.7969" style="stroke:#000000;stroke-width:1.5;" width="1270.0439" x="10" y="726.2188"/><text fill="#000000" font-family="sans-serif" font-size="13" font-weight="bold" lengthAdjust="spacing" textLength="19.4429" x="25" y="739.2856">alt</text><text fill="#000000" font-family="sans-serif" font-size="11" font-weight="bold" lengthAdjust="spacing" textLength="226.7568" x="89.4429" y="738.4292">[APPLICATION_USES_LIFECYCLE_API]</text><polygon fill="#181818" points="698.3682,760.4844,708.3682,764.4844,698.3682,768.4844,702.3682,764.4844" style="stroke:#181818;stroke-width:1;"/><line style="stroke:#181818;stroke-width:1;" x1="38.2681" x2="704.3682" y1="764.4844" y2="764.4844"/><text fill="#000000" font-family="sans-serif" font-size="13" lengthAdjust="spacing" textLength="106.7993" x="45.2681" y="759.4185">report_running()</text><polygon fill="#181818" points="995.0361,774.4844,1005.0361,778.4844,995.0361,782.4844,999.0361,778.4844" style="stroke:#181818;stroke-width:1;"/><line style="stroke:#181818;stroke-width:1;" x1="710.3682" x2="1001.0361" y1="778.4844" y2="778.4844"/><line style="stroke:#181818;stroke-width:1;" x1="1007.0361" x2="1049.0361" y1="834.3828" y2="834.3828"/><line style="stroke:#181818;stroke-width:1;" x1="1049.0361" x2="1049.0361" y1="834.3828" y2="847.3828"/><line style="stroke:#181818;stroke-width:1;" x1="1008.0361" x2="1049.0361" y1="847.3828" y2="847.3828"/><polygon fill="#181818" points="1018.0361,843.3828,1008.0361,847.3828,1018.0361,851.3828,1014.0361,847.3828" style="stroke:#181818;stroke-width:1;"/><text fill="#000000" font-family="sans-serif" font-size="13" lengthAdjust="spacing" textLength="214.2271" x="1014.0361" y="829.3169">check_if_register_was_received()</text><path d="M577,791.4844 L577,876.4844 L1001,876.4844 L1001,801.4844 L991,791.4844 L577,791.4844 " fill="#ADD8E6" style="stroke:#181818;stroke-width:0.5;"/><path d="M991,791.4844 L991,801.4844 L1001,801.4844 L991,791.4844 " fill="#ADD8E6" style="stroke:#181818;stroke-width:0.5;"/><text fill="#000000" font-family="sans-serif" font-size="13" lengthAdjust="spacing" textLength="138.2012" x="583" y="808.5513">This point is taken as</text><text fill="#000000" font-family="sans-serif" font-size="13" font-weight="bold" lengthAdjust="spacing" textLength="78.6094" x="725.3335" y="808.5513">timestamp</text><text fill="#000000" font-family="sans-serif" font-size="13" lengthAdjust="spacing" textLength="53.2695" x="808.0752" y="808.5513">used for</text><text fill="#000000" font-family="sans-serif" font-size="13" lengthAdjust="spacing" textLength="343.1289" x="583" y="823.6841">supervising application health monitoring. This point</text><text fill="#000000" font-family="sans-serif" font-size="13" lengthAdjust="spacing" textLength="387.4927" x="583" y="838.8169">is selected as before report_running we anyway monitoring</text><text fill="#000000" font-family="sans-serif" font-size="13" lengthAdjust="spacing" textLength="403.8696" x="583" y="853.9497">configured startup time per app and will handle errors in case</text><text fill="#000000" font-family="sans-serif" font-size="13" lengthAdjust="spacing" textLength="71.4556" x="583" y="869.0825">of timeout.</text><path d="M935.1641,889.1484 L999.6069,889.1484 L999.6069,896.2813 L989.6069,906.2813 L935.1641,906.2813 L935.1641,889.1484 " fill="#EEEEEE" style="stroke:#000000;stroke-width:1.5;"/><rect fill="transparent" height="59.2656" style="stroke:#000000;stroke-width:1.5;" width="192.8599" x="935.1641" y="889.1484"/><text fill="#000000" font-family="sans-serif" font-size="13" font-weight="bold" lengthAdjust="spacing" textLength="19.4429" x="950.1641" y="902.2153">alt</text><text fill="#000000" font-family="sans-serif" font-size="11" font-weight="bold" lengthAdjust="spacing" textLength="87.6724" x="1014.6069" y="901.3589">[not received]</text><line style="stroke:#181818;stroke-width:1;" x1="1007.0361" x2="1049.0361" y1="927.4141" y2="927.4141"/><line style="stroke:#181818;stroke-width:1;" x1="1049.0361" x2="1049.0361" y1="927.4141" y2="940.4141"/><line style="stroke:#181818;stroke-width:1;" x1="1008.0361" x2="1049.0361" y1="940.4141" y2="940.4141"/><polygon fill="#181818" points="1018.0361,936.4141,1008.0361,940.4141,1018.0361,944.4141,1014.0361,940.4141" style="stroke:#181818;stroke-width:1;"/><text fill="#000000" font-family="sans-serif" font-size="13" lengthAdjust="spacing" textLength="101.9878" x="1014.0361" y="922.3481">error_reaction()</text><line style="stroke:#181818;stroke-width:1;" x1="1007.0361" x2="1049.0361" y1="976.5469" y2="976.5469"/><line style="stroke:#181818;stroke-width:1;" x1="1049.0361" x2="1049.0361" y1="976.5469" y2="989.5469"/><line style="stroke:#181818;stroke-width:1;" x1="1008.0361" x2="1049.0361" y1="989.5469" y2="989.5469"/><polygon fill="#181818" points="1018.0361,985.5469,1008.0361,989.5469,1018.0361,993.5469,1014.0361,989.5469" style="stroke:#181818;stroke-width:1;"/><text fill="#000000" font-family="sans-serif" font-size="13" lengthAdjust="spacing" textLength="254.0078" x="1014.0361" y="971.481">check_if_notify_started_was_received()</text><path d="M935.1641,1004.5469 L999.6069,1004.5469 L999.6069,1011.6797 L989.6069,1021.6797 L935.1641,1021.6797 L935.1641,1004.5469 " fill="#EEEEEE" style="stroke:#000000;stroke-width:1.5;"/><rect fill="transparent" height="59.2656" style="stroke:#000000;stroke-width:1.5;" width="192.8599" x="935.1641" y="1004.5469"/><text fill="#000000" font-family="sans-serif" font-size="13" font-weight="bold" lengthAdjust="spacing" textLength="19.4429" x="950.1641" y="1017.6138">alt</text><text fill="#000000" font-family="sans-serif" font-size="11" font-weight="bold" lengthAdjust="spacing" textLength="87.6724" x="1014.6069" y="1016.7573">[not received]</text><line style="stroke:#181818;stroke-width:1;" x1="1007.0361" x2="1049.0361" y1="1042.8125" y2="1042.8125"/><line style="stroke:#181818;stroke-width:1;" x1="1049.0361" x2="1049.0361" y1="1042.8125" y2="1055.8125"/><line style="stroke:#181818;stroke-width:1;" x1="1008.0361" x2="1049.0361" y1="1055.8125" y2="1055.8125"/><polygon fill="#181818" points="1018.0361,1051.8125,1008.0361,1055.8125,1018.0361,1059.8125,1014.0361,1055.8125" style="stroke:#181818;stroke-width:1;"/><text fill="#000000" font-family="sans-serif" font-size="13" lengthAdjust="spacing" textLength="101.9878" x="1014.0361" y="1037.7466">error_reaction()</text><line style="stroke:#181818;stroke-width:1;" x1="1007.0361" x2="1049.0361" y1="1091.9453" y2="1091.9453"/><line style="stroke:#181818;stroke-width:1;" x1="1049.0361" x2="1049.0361" y1="1091.9453" y2="1104.9453"/><line style="stroke:#181818;stroke-width:1;" x1="1008.0361" x2="1049.0361" y1="1104.9453" y2="1104.9453"/><polygon fill="#181818" points="1018.0361,1100.9453,1008.0361,1104.9453,1018.0361,1108.9453,1014.0361,1104.9453" style="stroke:#181818;stroke-width:1;"/><text fill="#000000" font-family="sans-serif" font-size="13" lengthAdjust="spacing" textLength="210.8501" x="1014.0361" y="1086.8794">start_monitor_user_application()</text><line style="stroke:#000000;stroke-width:1;stroke-dasharray:2.0,2.0;" x1="10" x2="1280.0439" y1="1113.9453" y2="1113.9453"/><text fill="#000000" font-family="sans-serif" font-size="11" font-weight="bold" lengthAdjust="spacing" textLength="288.1431" x="15" y="1124.1558">[APPLICATION_DOES NOT_USE_LIFECYCLE_API]</text><path d="M579,1132.75 L579,1172.75 L1001,1172.75 L1001,1142.75 L991,1132.75 L579,1132.75 " fill="#FEFFDD" style="stroke:#181818;stroke-width:0.5;"/><path d="M991,1132.75 L991,1142.75 L1001,1142.75 L991,1132.75 " fill="#FEFFDD" style="stroke:#181818;stroke-width:0.5;"/><text fill="#000000" font-family="sans-serif" font-size="13" font-weight="bold" lengthAdjust="spacing" textLength="223.8818" x="585" y="1149.8169">Health monitoring not allowed</text><text fill="#000000" font-family="sans-serif" font-size="13" lengthAdjust="spacing" textLength="177.8423" x="808.8818" y="1149.8169">, any register from this app</text><text fill="#000000" font-family="sans-serif" font-size="13" lengthAdjust="spacing" textLength="166.0674" x="585" y="1164.9497">shall cause error reaction</text><!--SRC=[hLLDJ-Cm4BtxLuowbn91Vq0bLkf2LrJg0X9ms5FasfFQQcf7jaFflz-naxP92GAaxIcDv-FDc_USbNs3qOj71vMp0hqV0GFwSH6iWr5D9wFqek8kQA4hRWACxf2NGVsnHbFKhrgNylEmWVEbBb3iHOaZXaR2ohunjeg0bhmsGjrot5fp13QGtmdhbBY-XbbLbLhme2d_IKk4wsjcR41mUgq2s0BYPF2ZZ7zNPOripeNgfId-Yf1bmff2hskNNcOPAuYMtbpQh24e7a1xy153iD05bd35teobdbS_OOW-cC8gFerzNQ5xrTwwd5SwfqnTj9ZoH5OUz1OlOJAPNB31IkSTfY0SSWBGUnl3kZYdu72jVK2NgnINRvl0xo5AB9TO13OhI-Yn1mPHeWJ13Qom8KkXmmv3m_CGqaZTj3yMQEC3D-8ZOgT0nowCBpwREmsqprCqod4SXfwtrK3YK8DynSLcxMnjP1uKCIt7NHhkEtIHg7pKHw6Dzef883KXdFAXoM_gUaQHL0SS5mWx7HIK1yC0BM9ouesOFv5mT5NSQ6K9eAkD8PaIhEFPEGiisQRdkuDlJhD4t_H2plt3F_4Fe0bktxheX8LCpRT8olCm9eAYnz-rQkfS40KRdB8hKazP0ALijQ7Iv46gI43ff54ljEf5IQ_YIcqTFCI-YTowkWIlwY3jpYJbClQioC5D6y8jBVh4lZQYh2Lc6N2pRmK07U-VmBEuN6KzRSUryfPrYkdhgF5PmqXdYMcB50UpnyVbucRsl7Yupr-Uva_vSl5xVlFtPZdFPu-BT0r-PTSnxkDznzCcfCloEsy8XMAJwo8_NWuxxkcFGFsAikro4aX74F4WKLfPRTBj6FW63H19MNRq6D5AiyYuc9Hnk6iYQpqrzPPAfvDEyPIPhjyI1LauzcYzrMS5TXYtkEFxJgMKVP0foeC-acY0q4GSb2N9WdIZANeYEj4vItBL94pkcs59iQtE9WspfyscBofjDhcvvIwz_7m1gH4HJXzaug4bd2gpxoolVyCDhV2_e_i2lERsR1UHHqdddPLJCIp9Irqtt3xCd-3-uJdQOi0L7rvKwJJBxiv5b4RcPMbtABFiCZdy87GedDsIdqbNXAeHf-BncyO9QZCv72RlxpiIy0y0]--></g></svg>