<svg xmlns="http://www.w3.org/2000/svg" xmlns:xlink="http://www.w3.org/1999/xlink" contentStyleType="text/css" data-diagram-type="SEQUENCE" height="1701px" preserveAspectRatio="none" style="width:969px;height:1701px;background:#FFFFFF;" version="1.1" viewBox="0 0 969 1701" width="969px" zoomAndPan="magnify"><defs/><g><rect fill="transparent" height="1346.8594" style="stroke:#000000;stroke-width:1.5;" width="952.4634" x="10" y="256.9609"/><g><title>User</title><rect fill="transparent" height="1539.5234" width="8" x="34.9551" y="81.2969"/><line style="stroke:#181818;stroke-width:0.5;stroke-dasharray:5.0,5.0;" x1="38" x2="38" y1="81.2969" y2="1620.8203"/></g><g><title>DeadlineMonitor</title><rect fill="transparent" height="1539.5234" width="8" x="175.8472" y="81.2969"/><line style="stroke:#181818;stroke-width:0.5;stroke-dasharray:5.0,5.0;" x1="179.1758" x2="179.1758" y1="81.2969" y2="1620.8203"/></g><g><title>Deadline</title><rect fill="transparent" height="1539.5234" width="8" x="318.0825" y="81.2969"/><line style="stroke:#181818;stroke-width:0.5;stroke-dasharray:5.0,5.0;" x1="322.02" x2="322.02" y1="81.2969" y2="1620.8203"/></g><g><title>HealthMonitor</title><rect fill="transparent" height="1539.5234" width="8" x="422.7397" y="81.2969"/><line style="stroke:#181818;stroke-width:0.5;stroke-dasharray:5.0,5.0;" x1="426.145" x2="426.145" y1="81.2969" y2="1620.8203"/></g><text fill="#000000" font-family="sans-serif" font-size="14" lengthAdjust="spacing" textLength="31.9102" x="20" y="77.9951">User</text><ellipse cx="38.9551" cy="13.5" fill="#E2E2F0" rx="8" ry="8" style="stroke:#181818;stroke-width:0.5;"/><path d="M38.9551,21.5 L38.9551,48.5 M25.9551,29.5 L51.9551,29.5 M38.9551,48.5 L25.9551,63.5 M38.9551,48.5 L51.9551,63.5 " fill="transparent" style="stroke:#181818;stroke-width:0.5;"/><text fill="#000000" font-family="sans-serif" font-size="14" lengthAdjust="spacing" textLength="31.9102" x="20" y="1632.8154">User</text><ellipse cx="38.9551" cy="1644.6172" fill="#E2E2F0" rx="8" ry="8" style="stroke:#181818;stroke-width:0.5;"/><path d="M38.9551,1652.6172 L38.9551,1679.6172 M25.9551,1660.6172 L51.9551,1660.6172 M38.9551,1679.6172 L25.9551,1694.6172 M38.9551,1679.6172 L51.9551,1694.6172 " fill="transparent" style="stroke:#181818;stroke-width:0.5;"/><rect fill="#E2E2F0" height="30.2969" rx="2.5" ry="2.5" style="stroke:#181818;stroke-width:0.5;" width="129.3428" x="115.1758" y="50"/><text fill="#000000" font-family="sans-serif" font-size="14" lengthAdjust="spacing" textLength="115.3428" x="122.1758" y="69.9951">DeadlineMonitor</text><rect fill="#E2E2F0" height="30.2969" rx="2.5" ry="2.5" style="stroke:#181818;stroke-width:0.5;" width="129.3428" x="115.1758" y="1619.8203"/><text fill="#000000" font-family="sans-serif" font-size="14" lengthAdjust="spacing" textLength="115.3428" x="122.1758" y="1639.8154">DeadlineMonitor</text><rect fill="#E2E2F0" height="30.2969" rx="2.5" ry="2.5" style="stroke:#181818;stroke-width:0.5;" width="76.125" x="284.02" y="50"/><text fill="#000000" font-family="sans-serif" font-size="14" lengthAdjust="spacing" textLength="62.125" x="291.02" y="69.9951">Deadline</text><rect fill="#E2E2F0" height="30.2969" rx="2.5" ry="2.5" style="stroke:#181818;stroke-width:0.5;" width="76.125" x="284.02" y="1619.8203"/><text fill="#000000" font-family="sans-serif" font-size="14" lengthAdjust="spacing" textLength="62.125" x="291.02" y="1639.8154">Deadline</text><rect fill="#E2E2F0" height="30.2969" rx="2.5" ry="2.5" style="stroke:#181818;stroke-width:0.5;" width="113.1895" x="370.145" y="50"/><text fill="#000000" font-family="sans-serif" font-size="14" lengthAdjust="spacing" textLength="99.1895" x="377.145" y="69.9951">HealthMonitor</text><rect fill="#E2E2F0" height="30.2969" rx="2.5" ry="2.5" style="stroke:#181818;stroke-width:0.5;" width="113.1895" x="370.145" y="1619.8203"/><text fill="#000000" font-family="sans-serif" font-size="14" lengthAdjust="spacing" textLength="99.1895" x="377.145" y="1639.8154">HealthMonitor</text><polygon fill="#181818" points="414.7397,108.4297,424.7397,112.4297,414.7397,116.4297,418.7397,112.4297" style="stroke:#181818;stroke-width:1;"/><line style="stroke:#181818;stroke-width:1;" x1="38.9551" x2="420.7397" y1="112.4297" y2="112.4297"/><text fill="#000000" font-family="sans-serif" font-size="13" lengthAdjust="spacing" textLength="134.4053" x="45.9551" y="107.3638">Get DeadlineMonitor</text><polygon fill="#181818" points="49.9551,137.5625,39.9551,141.5625,49.9551,145.5625,45.9551,141.5625" style="stroke:#181818;stroke-width:1;"/><line style="stroke:#181818;stroke-width:1;stroke-dasharray:2.0,2.0;" x1="43.9551" x2="425.7397" y1="141.5625" y2="141.5625"/><text fill="#000000" font-family="sans-serif" font-size="13" lengthAdjust="spacing" textLength="166.3086" x="55.9551" y="136.4966">DeadlineMonitor instance</text><polygon fill="#181818" points="167.8472,166.6953,177.8472,170.6953,167.8472,174.6953,171.8472,170.6953" style="stroke:#181818;stroke-width:1;"/><line style="stroke:#181818;stroke-width:1;" x1="38.9551" x2="173.8472" y1="170.6953" y2="170.6953"/><text fill="#000000" font-family="sans-serif" font-size="13" lengthAdjust="spacing" textLength="105.3013" x="45.9551" y="165.6294">Create Deadline</text><line style="stroke:#181818;stroke-width:1;" x1="179.8472" x2="221.8472" y1="199.8281" y2="199.8281"/><line style="stroke:#181818;stroke-width:1;" x1="221.8472" x2="221.8472" y1="199.8281" y2="212.8281"/><line style="stroke:#181818;stroke-width:1;" x1="180.8472" x2="221.8472" y1="212.8281" y2="212.8281"/><polygon fill="#181818" points="190.8472,208.8281,180.8472,212.8281,190.8472,216.8281,186.8472,212.8281" style="stroke:#181818;stroke-width:1;"/><text fill="#000000" font-family="sans-serif" font-size="13" lengthAdjust="spacing" textLength="114.1689" x="186.8472" y="194.7622">Register deadline</text><polygon fill="#181818" points="49.9551,237.9609,39.9551,241.9609,49.9551,245.9609,45.9551,241.9609" style="stroke:#181818;stroke-width:1;"/><line style="stroke:#181818;stroke-width:1;stroke-dasharray:2.0,2.0;" x1="43.9551" x2="178.8472" y1="241.9609" y2="241.9609"/><text fill="#000000" font-family="sans-serif" font-size="13" lengthAdjust="spacing" textLength="116.8921" x="55.9551" y="236.895">Deadline instance</text><path d="M10,256.9609 L74.4429,256.9609 L74.4429,264.0938 L64.4429,274.0938 L10,274.0938 L10,256.9609 " fill="#EEEEEE" style="stroke:#000000;stroke-width:1.5;"/><rect fill="transparent" height="1346.8594" style="stroke:#000000;stroke-width:1.5;" width="952.4634" x="10" y="256.9609"/><text fill="#000000" font-family="sans-serif" font-size="13" font-weight="bold" lengthAdjust="spacing" textLength="19.4429" x="25" y="270.0278">alt</text><text fill="#000000" font-family="sans-serif" font-size="11" font-weight="bold" lengthAdjust="spacing" textLength="230.7368" x="89.4429" y="269.1714">[Deadline stopped before expiration]</text><polygon fill="#181818" points="310.0825,291.2266,320.0825,295.2266,310.0825,299.2266,314.0825,295.2266" style="stroke:#181818;stroke-width:1;"/><line style="stroke:#181818;stroke-width:1;" x1="38.9551" x2="316.0825" y1="295.2266" y2="295.2266"/><text fill="#000000" font-family="sans-serif" font-size="13" lengthAdjust="spacing" textLength="31.7573" x="45.9551" y="290.1606">Start</text><polygon fill="#181818" points="49.9551,320.3594,39.9551,324.3594,49.9551,328.3594,45.9551,324.3594" style="stroke:#181818;stroke-width:1;"/><line style="stroke:#181818;stroke-width:1;stroke-dasharray:2.0,2.0;" x1="43.9551" x2="321.0825" y1="324.3594" y2="324.3594"/><text fill="#000000" font-family="sans-serif" font-size="13" lengthAdjust="spacing" textLength="17.7607" x="55.9551" y="319.2935">Ok</text><polygon fill="#181818" points="190.8472,352.4922,180.8472,356.4922,190.8472,360.4922,186.8472,356.4922" style="stroke:#181818;stroke-width:1;"/><line style="stroke:#181818;stroke-width:1;" x1="184.8472" x2="425.7397" y1="356.4922" y2="356.4922"/><text fill="#000000" font-family="sans-serif" font-size="13" lengthAdjust="spacing" textLength="106.8247" x="196.8472" y="351.4263">Check deadlines</text><path d="M431,337.3594 L431,362.3594 L763,362.3594 L763,347.3594 L753,337.3594 L431,337.3594 " fill="#FEFFDD" style="stroke:#181818;stroke-width:0.5;"/><path d="M753,337.3594 L753,347.3594 L763,347.3594 L753,337.3594 " fill="#FEFFDD" style="stroke:#181818;stroke-width:0.5;"/><text fill="#000000" font-family="sans-serif" font-size="13" lengthAdjust="spacing" textLength="311.4858" x="437" y="354.4263">HealthMonitor does this in a background thread</text><polygon fill="#181818" points="414.7397,384.625,424.7397,388.625,414.7397,392.625,418.7397,388.625" style="stroke:#181818;stroke-width:1;"/><line style="stroke:#181818;stroke-width:1;stroke-dasharray:2.0,2.0;" x1="179.8472" x2="420.7397" y1="388.625" y2="388.625"/><text fill="#000000" font-family="sans-serif" font-size="13" lengthAdjust="spacing" textLength="17.7607" x="186.8472" y="383.5591">Ok</text><polygon fill="#181818" points="310.0825,413.7578,320.0825,417.7578,310.0825,421.7578,314.0825,417.7578" style="stroke:#181818;stroke-width:1;"/><line style="stroke:#181818;stroke-width:1;" x1="38.9551" x2="316.0825" y1="417.7578" y2="417.7578"/><text fill="#000000" font-family="sans-serif" font-size="13" lengthAdjust="spacing" textLength="29.5547" x="45.9551" y="412.6919">Stop</text><polygon fill="#181818" points="49.9551,442.8906,39.9551,446.8906,49.9551,450.8906,45.9551,446.8906" style="stroke:#181818;stroke-width:1;"/><line style="stroke:#181818;stroke-width:1;stroke-dasharray:2.0,2.0;" x1="43.9551" x2="321.0825" y1="446.8906" y2="446.8906"/><text fill="#000000" font-family="sans-serif" font-size="13" lengthAdjust="spacing" textLength="17.7607" x="55.9551" y="441.8247">Ok</text><line style="stroke:#181818;stroke-width:1;" x1="179.8472" x2="221.8472" y1="476.0234" y2="476.0234"/><line style="stroke:#181818;stroke-width:1;" x1="221.8472" x2="221.8472" y1="476.0234" y2="489.0234"/><line style="stroke:#181818;stroke-width:1;" x1="180.8472" x2="221.8472" y1="489.0234" y2="489.0234"/><polygon fill="#181818" points="190.8472,485.0234,180.8472,489.0234,190.8472,493.0234,186.8472,489.0234" style="stroke:#181818;stroke-width:1;"/><text fill="#000000" font-family="sans-serif" font-size="13" lengthAdjust="spacing" textLength="128.2354" x="186.8472" y="470.9575">Unregister deadline</text><line style="stroke:#000000;stroke-width:1;stroke-dasharray:2.0,2.0;" x1="10" x2="962.4634" y1="498.0234" y2="498.0234"/><text fill="#000000" font-family="sans-serif" font-size="11" font-weight="bold" lengthAdjust="spacing" textLength="220.5264" x="15" y="508.2339">[Deadline stopped after expiration]</text><polygon fill="#181818" points="310.0825,528.9609,320.0825,532.9609,310.0825,536.9609,314.0825,532.9609" style="stroke:#181818;stroke-width:1;"/><line style="stroke:#181818;stroke-width:1;" x1="38.9551" x2="316.0825" y1="532.9609" y2="532.9609"/><text fill="#000000" font-family="sans-serif" font-size="13" lengthAdjust="spacing" textLength="31.7573" x="45.9551" y="527.895">Start</text><polygon fill="#181818" points="49.9551,558.0938,39.9551,562.0938,49.9551,566.0938,45.9551,562.0938" style="stroke:#181818;stroke-width:1;"/><line style="stroke:#181818;stroke-width:1;stroke-dasharray:2.0,2.0;" x1="43.9551" x2="321.0825" y1="562.0938" y2="562.0938"/><text fill="#000000" font-family="sans-serif" font-size="13" lengthAdjust="spacing" textLength="17.7607" x="55.9551" y="557.0278">Ok</text><polygon fill="#181818" points="190.8472,590.2266,180.8472,594.2266,190.8472,598.2266,186.8472,594.2266" style="stroke:#181818;stroke-width:1;"/><line style="stroke:#181818;stroke-width:1;" x1="184.8472" x2="425.7397" y1="594.2266" y2="594.2266"/><text fill="#000000" font-family="sans-serif" font-size="13" lengthAdjust="spacing" textLength="106.8247" x="196.8472" y="589.1606">Check deadlines</text><path d="M431,575.0938 L431,600.0938 L763,600.0938 L763,585.0938 L753,575.0938 L431,575.0938 " fill="#FEFFDD" style="stroke:#181818;stroke-width:0.5;"/><path d="M753,575.0938 L753,585.0938 L763,585.0938 L753,575.0938 " fill="#FEFFDD" style="stroke:#181818;stroke-width:0.5;"/><text fill="#000000" font-family="sans-serif" font-size="13" lengthAdjust="spacing" textLength="311.4858" x="437" y="592.1606">HealthMonitor does this in a background thread</text><line style="stroke:#181818;stroke-width:1;" x1="179.8472" x2="221.8472" y1="626.3594" y2="626.3594"/><line style="stroke:#181818;stroke-width:1;" x1="221.8472" x2="221.8472" y1="626.3594" y2="639.3594"/><line style="stroke:#181818;stroke-width:1;" x1="180.8472" x2="221.8472" y1="639.3594" y2="639.3594"/><polygon fill="#181818" points="190.8472,635.3594,180.8472,639.3594,190.8472,643.3594,186.8472,639.3594" style="stroke:#181818;stroke-width:1;"/><text fill="#000000" font-family="sans-serif" font-size="13" lengthAdjust="spacing" textLength="110.9697" x="186.8472" y="621.2935">Deadline expired</text><polygon fill="#181818" points="414.7397,664.4922,424.7397,668.4922,414.7397,672.4922,418.7397,668.4922" style="stroke:#181818;stroke-width:1;"/><line style="stroke:#181818;stroke-width:1;stroke-dasharray:2.0,2.0;" x1="179.8472" x2="420.7397" y1="668.4922" y2="668.4922"/><text fill="#000000" font-family="sans-serif" font-size="13" lengthAdjust="spacing" textLength="38.9175" x="186.8472" y="663.4263">Failed</text><polygon fill="#181818" points="310.0825,693.625,320.0825,697.625,310.0825,701.625,314.0825,697.625" style="stroke:#181818;stroke-width:1;"/><line style="stroke:#181818;stroke-width:1;" x1="38.9551" x2="316.0825" y1="697.625" y2="697.625"/><text fill="#000000" font-family="sans-serif" font-size="13" lengthAdjust="spacing" textLength="29.5547" x="45.9551" y="692.5591">Stop</text><polygon fill="#181818" points="49.9551,722.7578,39.9551,726.7578,49.9551,730.7578,45.9551,726.7578" style="stroke:#181818;stroke-width:1;"/><line style="stroke:#181818;stroke-width:1;stroke-dasharray:2.0,2.0;" x1="43.9551" x2="321.0825" y1="726.7578" y2="726.7578"/><text fill="#000000" font-family="sans-serif" font-size="13" lengthAdjust="spacing" textLength="32.2017" x="55.9551" y="721.6919">Error</text><line style="stroke:#181818;stroke-width:1;" x1="179.8472" x2="221.8472" y1="755.8906" y2="755.8906"/><line style="stroke:#181818;stroke-width:1;" x1="221.8472" x2="221.8472" y1="755.8906" y2="768.8906"/><line style="stroke:#181818;stroke-width:1;" x1="180.8472" x2="221.8472" y1="768.8906" y2="768.8906"/><polygon fill="#181818" points="190.8472,764.8906,180.8472,768.8906,190.8472,772.8906,186.8472,768.8906" style="stroke:#181818;stroke-width:1;"/><text fill="#000000" font-family="sans-serif" font-size="13" lengthAdjust="spacing" textLength="128.2354" x="186.8472" y="750.8247">Unregister deadline</text><line style="stroke:#000000;stroke-width:1;stroke-dasharray:2.0,2.0;" x1="10" x2="962.4634" y1="777.8906" y2="777.8906"/><text fill="#000000" font-family="sans-serif" font-size="11" font-weight="bold" lengthAdjust="spacing" textLength="212.2979" x="15" y="788.1011">[Deadline stopped while disabled]</text><polygon fill="#181818" points="310.0825,808.8281,320.0825,812.8281,310.0825,816.8281,314.0825,812.8281" style="stroke:#181818;stroke-width:1;"/><line style="stroke:#181818;stroke-width:1;" x1="38.9551" x2="316.0825" y1="812.8281" y2="812.8281"/><text fill="#000000" font-family="sans-serif" font-size="13" lengthAdjust="spacing" textLength="31.7573" x="45.9551" y="807.7622">Start</text><polygon fill="#181818" points="49.9551,837.9609,39.9551,841.9609,49.9551,845.9609,45.9551,841.9609" style="stroke:#181818;stroke-width:1;"/><line style="stroke:#181818;stroke-width:1;stroke-dasharray:2.0,2.0;" x1="43.9551" x2="321.0825" y1="841.9609" y2="841.9609"/><text fill="#000000" font-family="sans-serif" font-size="13" lengthAdjust="spacing" textLength="17.7607" x="55.9551" y="836.895">Ok</text><polygon fill="#181818" points="167.8472,867.0938,177.8472,871.0938,167.8472,875.0938,171.8472,871.0938" style="stroke:#181818;stroke-width:1;"/><line style="stroke:#181818;stroke-width:1;" x1="38.9551" x2="173.8472" y1="871.0938" y2="871.0938"/><text fill="#000000" font-family="sans-serif" font-size="13" lengthAdjust="spacing" textLength="48.2231" x="45.9551" y="866.0278">Disable</text><polygon fill="#181818" points="49.9551,896.2266,39.9551,900.2266,49.9551,904.2266,45.9551,900.2266" style="stroke:#181818;stroke-width:1;"/><line style="stroke:#181818;stroke-width:1;stroke-dasharray:2.0,2.0;" x1="43.9551" x2="178.8472" y1="900.2266" y2="900.2266"/><text fill="#000000" font-family="sans-serif" font-size="13" lengthAdjust="spacing" textLength="17.7607" x="55.9551" y="895.1606">Ok</text><polygon fill="#181818" points="190.8472,928.3594,180.8472,932.3594,190.8472,936.3594,186.8472,932.3594" style="stroke:#181818;stroke-width:1;"/><line style="stroke:#181818;stroke-width:1;" x1="184.8472" x2="425.7397" y1="932.3594" y2="932.3594"/><text fill="#000000" font-family="sans-serif" font-size="13" lengthAdjust="spacing" textLength="106.8247" x="196.8472" y="927.2935">Check deadlines</text><path d="M431,913.2266 L431,938.2266 L763,938.2266 L763,923.2266 L753,913.2266 L431,913.2266 " fill="#FEFFDD" style="stroke:#181818;stroke-width:0.5;"/><path d="M753,913.2266 L753,923.2266 L763,923.2266 L753,913.2266 " fill="#FEFFDD" style="stroke:#181818;stroke-width:0.5;"/><text fill="#000000" font-family="sans-serif" font-size="13" lengthAdjust="spacing" textLength="311.4858" x="437" y="930.2935">HealthMonitor does this in a background thread</text><polygon fill="#181818" points="414.7397,963.4922,424.7397,967.4922,414.7397,971.4922,418.7397,967.4922" style="stroke:#181818;stroke-width:1;"/><line style="stroke:#181818;stroke-width:1;stroke-dasharray:2.0,2.0;" x1="179.8472" x2="420.7397" y1="967.4922" y2="967.4922"/><text fill="#000000" font-family="sans-serif" font-size="13" lengthAdjust="spacing" textLength="17.7607" x="186.8472" y="962.4263">Ok</text><path d="M431,948.3594 L431,973.3594 L946,973.3594 L946,958.3594 L936,948.3594 L431,948.3594 " fill="#FEFFDD" style="stroke:#181818;stroke-width:0.5;"/><path d="M936,948.3594 L936,958.3594 L946,958.3594 L936,948.3594 " fill="#FEFFDD" style="stroke:#181818;stroke-width:0.5;"/><text fill="#000000" font-family="sans-serif" font-size="13" lengthAdjust="spacing" textLength="494.7236" x="437" y="965.4263">The DeadlineMonitor is disabled, the deadlines are paused and not checked</text><polygon fill="#181818" points="310.0825,995.625,320.0825,999.625,310.0825,1003.625,314.0825,999.625" style="stroke:#181818;stroke-width:1;"/><line style="stroke:#181818;stroke-width:1;" x1="38.9551" x2="316.0825" y1="999.625" y2="999.625"/><text fill="#000000" font-family="sans-serif" font-size="13" lengthAdjust="spacing" textLength="29.5547" x="45.9551" y="994.5591">Stop</text><polygon fill="#181818" points="49.9551,1024.7578,39.9551,1028.7578,49.9551,1032.7578,45.9551,1028.7578" style="stroke:#181818;stroke-width:1;"/><line style="stroke:#181818;stroke-width:1;stroke-dasharray:2.0,2.0;" x1="43.9551" x2="321.0825" y1="1028.7578" y2="1028.7578"/><text fill="#000000" font-family="sans-serif" font-size="13" lengthAdjust="spacing" textLength="17.7607" x="55.9551" y="1023.6919">Ok</text><line style="stroke:#181818;stroke-width:1;" x1="179.8472" x2="221.8472" y1="1057.8906" y2="1057.8906"/><line style="stroke:#181818;stroke-width:1;" x1="221.8472" x2="221.8472" y1="1057.8906" y2="1070.8906"/><line style="stroke:#181818;stroke-width:1;" x1="180.8472" x2="221.8472" y1="1070.8906" y2="1070.8906"/><polygon fill="#181818" points="190.8472,1066.8906,180.8472,1070.8906,190.8472,1074.8906,186.8472,1070.8906" style="stroke:#181818;stroke-width:1;"/><text fill="#000000" font-family="sans-serif" font-size="13" lengthAdjust="spacing" textLength="128.2354" x="186.8472" y="1052.8247">Unregister deadline</text><polygon fill="#181818" points="167.8472,1096.0234,177.8472,1100.0234,167.8472,1104.0234,171.8472,1100.0234" style="stroke:#181818;stroke-width:1;"/><line style="stroke:#181818;stroke-width:1;" x1="38.9551" x2="173.8472" y1="1100.0234" y2="1100.0234"/><text fill="#000000" font-family="sans-serif" font-size="13" lengthAdjust="spacing" textLength="44.2813" x="45.9551" y="1094.9575">Enable</text><polygon fill="#181818" points="49.9551,1125.1563,39.9551,1129.1563,49.9551,1133.1563,45.9551,1129.1563" style="stroke:#181818;stroke-width:1;"/><line style="stroke:#181818;stroke-width:1;stroke-dasharray:2.0,2.0;" x1="43.9551" x2="178.8472" y1="1129.1563" y2="1129.1563"/><text fill="#000000" font-family="sans-serif" font-size="13" lengthAdjust="spacing" textLength="17.7607" x="55.9551" y="1124.0903">Ok</text><line style="stroke:#000000;stroke-width:1;stroke-dasharray:2.0,2.0;" x1="10" x2="962.4634" y1="1138.1563" y2="1138.1563"/><text fill="#000000" font-family="sans-serif" font-size="11" font-weight="bold" lengthAdjust="spacing" textLength="203.269" x="15" y="1148.3667">[Deadline expired after enabled]</text><polygon fill="#181818" points="310.0825,1169.0938,320.0825,1173.0938,310.0825,1177.0938,314.0825,1173.0938" style="stroke:#181818;stroke-width:1;"/><line style="stroke:#181818;stroke-width:1;" x1="38.9551" x2="316.0825" y1="1173.0938" y2="1173.0938"/><text fill="#000000" font-family="sans-serif" font-size="13" lengthAdjust="spacing" textLength="31.7573" x="45.9551" y="1168.0278">Start</text><polygon fill="#181818" points="49.9551,1198.2266,39.9551,1202.2266,49.9551,1206.2266,45.9551,1202.2266" style="stroke:#181818;stroke-width:1;"/><line style="stroke:#181818;stroke-width:1;stroke-dasharray:2.0,2.0;" x1="43.9551" x2="321.0825" y1="1202.2266" y2="1202.2266"/><text fill="#000000" font-family="sans-serif" font-size="13" lengthAdjust="spacing" textLength="17.7607" x="55.9551" y="1197.1606">Ok</text><polygon fill="#181818" points="167.8472,1227.3594,177.8472,1231.3594,167.8472,1235.3594,171.8472,1231.3594" style="stroke:#181818;stroke-width:1;"/><line style="stroke:#181818;stroke-width:1;" x1="38.9551" x2="173.8472" y1="1231.3594" y2="1231.3594"/><text fill="#000000" font-family="sans-serif" font-size="13" lengthAdjust="spacing" textLength="48.2231" x="45.9551" y="1226.2935">Disable</text><polygon fill="#181818" points="49.9551,1256.4922,39.9551,1260.4922,49.9551,1264.4922,45.9551,1260.4922" style="stroke:#181818;stroke-width:1;"/><line style="stroke:#181818;stroke-width:1;stroke-dasharray:2.0,2.0;" x1="43.9551" x2="178.8472" y1="1260.4922" y2="1260.4922"/><text fill="#000000" font-family="sans-serif" font-size="13" lengthAdjust="spacing" textLength="17.7607" x="55.9551" y="1255.4263">Ok</text><polygon fill="#181818" points="190.8472,1288.625,180.8472,1292.625,190.8472,1296.625,186.8472,1292.625" style="stroke:#181818;stroke-width:1;"/><line style="stroke:#181818;stroke-width:1;" x1="184.8472" x2="425.7397" y1="1292.625" y2="1292.625"/><text fill="#000000" font-family="sans-serif" font-size="13" lengthAdjust="spacing" textLength="106.8247" x="196.8472" y="1287.5591">Check deadlines</text><path d="M431,1273.4922 L431,1298.4922 L763,1298.4922 L763,1283.4922 L753,1273.4922 L431,1273.4922 " fill="#FEFFDD" style="stroke:#181818;stroke-width:0.5;"/><path d="M753,1273.4922 L753,1283.4922 L763,1283.4922 L753,1273.4922 " fill="#FEFFDD" style="stroke:#181818;stroke-width:0.5;"/><text fill="#000000" font-family="sans-serif" font-size="13" lengthAdjust="spacing" textLength="311.4858" x="437" y="1290.5591">HealthMonitor does this in a background thread</text><polygon fill="#181818" points="414.7397,1323.7578,424.7397,1327.7578,414.7397,1331.7578,418.7397,1327.7578" style="stroke:#181818;stroke-width:1;"/><line style="stroke:#181818;stroke-width:1;stroke-dasharray:2.0,2.0;" x1="179.8472" x2="420.7397" y1="1327.7578" y2="1327.7578"/><text fill="#000000" font-family="sans-serif" font-size="13" lengthAdjust="spacing" textLength="17.7607" x="186.8472" y="1322.6919">Ok</text><path d="M431,1308.625 L431,1333.625 L946,1333.625 L946,1318.625 L936,1308.625 L431,1308.625 " fill="#FEFFDD" style="stroke:#181818;stroke-width:0.5;"/><path d="M936,1308.625 L936,1318.625 L946,1318.625 L936,1308.625 " fill="#FEFFDD" style="stroke:#181818;stroke-width:0.5;"/><text fill="#000000" font-family="sans-serif" font-size="13" lengthAdjust="spacing" textLength="494.7236" x="437" y="1325.6919">The DeadlineMonitor is disabled, the deadlines are paused and not checked</text><polygon fill="#181818" points="167.8472,1355.8906,177.8472,1359.8906,167.8472,1363.8906,171.8472,1359.8906" style="stroke:#181818;stroke-width:1;"/><line style="stroke:#181818;stroke-width:1;" x1="38.9551" x2="173.8472" y1="1359.8906" y2="1359.8906"/><text fill="#000000" font-family="sans-serif" font-size="13" lengthAdjust="spacing" textLength="44.2813" x="45.9551" y="1354.8247">Enable</text><polygon fill="#181818" points="49.9551,1385.0234,39.9551,1389.0234,49.9551,1393.0234,45.9551,1389.0234" style="stroke:#181818;stroke-width:1;"/><line style="stroke:#181818;stroke-width:1;stroke-dasharray:2.0,2.0;" x1="43.9551" x2="178.8472" y1="1389.0234" y2="1389.0234"/><text fill="#000000" font-family="sans-serif" font-size="13" lengthAdjust="spacing" textLength="17.7607" x="55.9551" y="1383.9575">Ok</text><polygon fill="#181818" points="190.8472,1417.1563,180.8472,1421.1563,190.8472,1425.1563,186.8472,1421.1563" style="stroke:#181818;stroke-width:1;"/><line style="stroke:#181818;stroke-width:1;" x1="184.8472" x2="425.7397" y1="1421.1563" y2="1421.1563"/><text fill="#000000" font-family="sans-serif" font-size="13" lengthAdjust="spacing" textLength="106.8247" x="196.8472" y="1416.0903">Check deadlines</text><path d="M431,1402.0234 L431,1427.0234 L763,1427.0234 L763,1412.0234 L753,1402.0234 L431,1402.0234 " fill="#FEFFDD" style="stroke:#181818;stroke-width:0.5;"/><path d="M753,1402.0234 L753,1412.0234 L763,1412.0234 L753,1402.0234 " fill="#FEFFDD" style="stroke:#181818;stroke-width:0.5;"/><text fill="#000000" font-family="sans-serif" font-size="13" lengthAdjust="spacing" textLength="311.4858" x="437" y="1419.0903">HealthMonitor does this in a background thread</text><line style="stroke:#181818;stroke-width:1;" x1="179.8472" x2="221.8472" y1="1453.2891" y2="1453.2891"/><line style="stroke:#181818;stroke-width:1;" x1="221.8472" x2="221.8472" y1="1453.2891" y2="1466.2891"/><line style="stroke:#181818;stroke-width:1;" x1="180.8472" x2="221.8472" y1="1466.2891" y2="1466.2891"/><polygon fill="#181818" points="190.8472,1462.2891,180.8472,1466.2891,190.8472,1470.2891,186.8472,1466.2891" style="stroke:#181818;stroke-width:1;"/><text fill="#000000" font-family="sans-serif" font-size="13" lengthAdjust="spacing" textLength="110.9697" x="186.8472" y="1448.2231">Deadline expired</text><polygon fill="#181818" points="414.7397,1491.4219,424.7397,1495.4219,414.7397,1499.4219,418.7397,1495.4219" style="stroke:#181818;stroke-width:1;"/><line style="stroke:#181818;stroke-width:1;stroke-dasharray:2.0,2.0;" x1="179.8472" x2="420.7397" y1="1495.4219" y2="1495.4219"/><text fill="#000000" font-family="sans-serif" font-size="13" lengthAdjust="spacing" textLength="38.9175" x="186.8472" y="1490.356">Failed</text><polygon fill="#181818" points="310.0825,1520.5547,320.0825,1524.5547,310.0825,1528.5547,314.0825,1524.5547" style="stroke:#181818;stroke-width:1;"/><line style="stroke:#181818;stroke-width:1;" x1="38.9551" x2="316.0825" y1="1524.5547" y2="1524.5547"/><text fill="#000000" font-family="sans-serif" font-size="13" lengthAdjust="spacing" textLength="29.5547" x="45.9551" y="1519.4888">Stop</text><polygon fill="#181818" points="49.9551,1549.6875,39.9551,1553.6875,49.9551,1557.6875,45.9551,1553.6875" style="stroke:#181818;stroke-width:1;"/><line style="stroke:#181818;stroke-width:1;stroke-dasharray:2.0,2.0;" x1="43.9551" x2="321.0825" y1="1553.6875" y2="1553.6875"/><text fill="#000000" font-family="sans-serif" font-size="13" lengthAdjust="spacing" textLength="32.2017" x="55.9551" y="1548.6216">Error</text><line style="stroke:#181818;stroke-width:1;" x1="179.8472" x2="221.8472" y1="1582.8203" y2="1582.8203"/><line style="stroke:#181818;stroke-width:1;" x1="221.8472" x2="221.8472" y1="1582.8203" y2="1595.8203"/><line style="stroke:#181818;stroke-width:1;" x1="180.8472" x2="221.8472" y1="1595.8203" y2="1595.8203"/><polygon fill="#181818" points="190.8472,1591.8203,180.8472,1595.8203,190.8472,1599.8203,186.8472,1595.8203" style="stroke:#181818;stroke-width:1;"/><text fill="#000000" font-family="sans-serif" font-size="13" lengthAdjust="spacing" textLength="128.2354" x="186.8472" y="1577.7544">Unregister deadline</text><!--SRC=[xLFBJiCm4BpxArOzqn_Wm8KMk20ae1-mZRUnrTIsx8tWyzcy7or1ue0GuXRjR6Pd9XFCs4TOxHB55M22KWMCR3CRq36iDeIwi8uUlREoMA_eq-MT1fnY3uG5c_7RvgHK2UiRUO1hk2U6sGqbm5hmKk0P1DObHfTHmw0hXjj8oDHlAXbsq3FbDZ55q6DmHZrmAf4wZ1Fx44Z3dWu-4j1xi17PUjVAryBnmk9LwPxpwLYBxvGPoexzxQIS5vtHveO5d0G3sbC2DZQ96a3OOtRCeo-Tbg7uqvtmEZEvCbBWmrJ0oF_EnRC451M9pbtYeThw1IPRsbvWBOcc0ToXBMJqMGZR6AL5tylXpGWrQ9jmNvrOJ67euARP7zVhnwemeNerTFxFfDxFbN3G80DGYXsmJ5K1v81GGLOfNGZtwuODiMpTXLHcmRVVjokW-yzzCRq_yUSvhJu0]--></g></svg>