<svg xmlns="http://www.w3.org/2000/svg" xmlns:xlink="http://www.w3.org/1999/xlink" contentStyleType="text/css" data-diagram-type="CLASS" height="730px" preserveAspectRatio="none" style="width:1251px;height:730px;background:#FFFFFF;" version="1.1" viewBox="0 0 1251 730" width="1251px" zoomAndPan="magnify"><defs/><g><!--class Status--><g id="elem_Status"><rect codeLine="2" fill="#F1F1F1" height="113.1875" id="Status" rx="2.5" ry="2.5" style="stroke:#181818;stroke-width:0.5;" width="87.6113" x="581" y="436"/><ellipse cx="596" cy="452" fill="#EB937F" rx="11" ry="11" style="stroke:#181818;stroke-width:1;"/><path d="M600.1094,458 L592.3906,458 L592.3906,445.6094 L600.1094,445.6094 L600.1094,447.7656 L594.8438,447.7656 L594.8438,450.4375 L599.6094,450.4375 L599.6094,452.5938 L594.8438,452.5938 L594.8438,455.8438 L600.1094,455.8438 L600.1094,458 Z " fill="#000000"/><ellipse cx="615" cy="451.5" fill="#84BE84" rx="3" ry="3" style="stroke:#038048;stroke-width:1;"/><text fill="#000000" font-family="sans-serif" font-size="14" lengthAdjust="spacing" textLength="44.6113" x="621" y="456.8467">Status</text><line style="stroke:#181818;stroke-width:0.5;" x1="582" x2="667.6113" y1="468" y2="468"/><text fill="#000000" font-family="sans-serif" font-size="14" lengthAdjust="spacing" textLength="57.9961" x="587" y="484.9951">Running</text><text fill="#000000" font-family="sans-serif" font-size="14" lengthAdjust="spacing" textLength="60.8193" x="587" y="501.292">Disabled</text><text fill="#000000" font-family="sans-serif" font-size="14" lengthAdjust="spacing" textLength="41.9111" x="587" y="517.5889">Failed</text><text fill="#000000" font-family="sans-serif" font-size="14" lengthAdjust="spacing" textLength="58.2148" x="587" y="533.8857">Stopped</text><line style="stroke:#181818;stroke-width:0.5;" x1="582" x2="667.6113" y1="541.1875" y2="541.1875"/></g><!--class Error--><g id="elem_Error"><rect codeLine="9" fill="#F1F1F1" height="113.1875" id="Error" rx="2.5" ry="2.5" style="stroke:#181818;stroke-width:0.5;" width="116.9863" x="663.5" y="610"/><ellipse cx="696.1884" cy="626" fill="#EB937F" rx="11" ry="11" style="stroke:#181818;stroke-width:1;"/><path d="M700.2978,632 L692.5791,632 L692.5791,619.6094 L700.2978,619.6094 L700.2978,621.7656 L695.0322,621.7656 L695.0322,624.4375 L699.7978,624.4375 L699.7978,626.5938 L695.0322,626.5938 L695.0322,629.8438 L700.2978,629.8438 L700.2978,632 Z " fill="#000000"/><ellipse cx="719.1192" cy="625.5" fill="#84BE84" rx="3" ry="3" style="stroke:#038048;stroke-width:1;"/><text fill="#000000" font-family="sans-serif" font-size="14" lengthAdjust="spacing" textLength="34.6787" x="725.1192" y="630.8467">Error</text><line style="stroke:#181818;stroke-width:0.5;" x1="664.5" x2="779.4863" y1="642" y2="642"/><text fill="#000000" font-family="sans-serif" font-size="14" lengthAdjust="spacing" textLength="104.9863" x="669.5" y="658.9951">BadParameter,</text><text fill="#000000" font-family="sans-serif" font-size="14" lengthAdjust="spacing" textLength="83.8496" x="669.5" y="675.292">NotAllowed,</text><text fill="#000000" font-family="sans-serif" font-size="14" lengthAdjust="spacing" textLength="102.7168" x="669.5" y="691.5889">OutOfMemory,</text><text fill="#000000" font-family="sans-serif" font-size="14" lengthAdjust="spacing" textLength="58.7412" x="669.5" y="707.8857">Generic,</text><line style="stroke:#181818;stroke-width:0.5;" x1="664.5" x2="779.4863" y1="715.1875" y2="715.1875"/></g><!--class Tag--><g id="elem_Tag"><rect codeLine="16" fill="#F1F1F1" height="64.2969" id="Tag" rx="2.5" ry="2.5" style="stroke:#181818;stroke-width:0.5;" width="302.4453" x="244" y="460.5"/><ellipse cx="372.4639" cy="476.5" fill="#ADD1B2" rx="11" ry="11" style="stroke:#181818;stroke-width:1;"/><path d="M375.4326,482.1406 Q374.8545,482.4375 374.2139,482.5781 Q373.5732,482.7344 372.8701,482.7344 Q370.3701,482.7344 369.042,481.0938 Q367.7295,479.4375 367.7295,476.3125 Q367.7295,473.1875 369.042,471.5313 Q370.3701,469.875 372.8701,469.875 Q373.5732,469.875 374.2139,470.0313 Q374.8701,470.1875 375.4326,470.4844 L375.4326,473.2031 Q374.8076,472.625 374.2139,472.3594 Q373.6201,472.0781 372.9951,472.0781 Q371.6514,472.0781 370.9639,473.1563 Q370.2764,474.2188 370.2764,476.3125 Q370.2764,478.4063 370.9639,479.4844 Q371.6514,480.5469 372.9951,480.5469 Q373.6201,480.5469 374.2139,480.2813 Q374.8076,480 375.4326,479.4219 L375.4326,482.1406 Z " fill="#000000"/><ellipse cx="397.9639" cy="476" fill="#84BE84" rx="3" ry="3" style="stroke:#038048;stroke-width:1;"/><text fill="#000000" font-family="sans-serif" font-size="14" lengthAdjust="spacing" textLength="26.0176" x="403.9639" y="481.3467">Tag</text><line style="stroke:#181818;stroke-width:0.5;" x1="245" x2="545.4453" y1="492.5" y2="492.5"/><line style="stroke:#181818;stroke-width:0.5;" x1="245" x2="545.4453" y1="500.5" y2="500.5"/><ellipse cx="255" cy="514.1484" fill="#84BE84" rx="3" ry="3" style="stroke:#038048;stroke-width:1;"/><text fill="#000000" font-family="sans-serif" font-size="14" lengthAdjust="spacing" textLength="276.4453" x="264" y="517.4951">new&lt;N: AsRef&lt;str&gt;&gt;(name: N) -&gt; Self</text></g><!--class DeadlineMonitorBuilder--><g id="elem_DeadlineMonitorBuilder"><rect codeLine="20" fill="#F1F1F1" height="96.8906" id="DeadlineMonitorBuilder" rx="2.5" ry="2.5" style="stroke:#181818;stroke-width:0.5;" width="575.6572" x="7" y="7"/><ellipse cx="202.6509" cy="23" fill="#ADD1B2" rx="11" ry="11" style="stroke:#181818;stroke-width:1;"/><path d="M205.6196,28.6406 Q205.0415,28.9375 204.4009,29.0781 Q203.7603,29.2344 203.0571,29.2344 Q200.5571,29.2344 199.229,27.5938 Q197.9165,25.9375 197.9165,22.8125 Q197.9165,19.6875 199.229,18.0313 Q200.5571,16.375 203.0571,16.375 Q203.7603,16.375 204.4009,16.5313 Q205.0571,16.6875 205.6196,16.9844 L205.6196,19.7031 Q204.9946,19.125 204.4009,18.8594 Q203.8071,18.5781 203.1821,18.5781 Q201.8384,18.5781 201.1509,19.6563 Q200.4634,20.7188 200.4634,22.8125 Q200.4634,24.9063 201.1509,25.9844 Q201.8384,27.0469 203.1821,27.0469 Q203.8071,27.0469 204.4009,26.7813 Q204.9946,26.5 205.6196,25.9219 L205.6196,28.6406 Z " fill="#000000"/><ellipse cx="228.1509" cy="22.5" fill="#84BE84" rx="3" ry="3" style="stroke:#038048;stroke-width:1;"/><text fill="#000000" font-family="sans-serif" font-size="14" lengthAdjust="spacing" textLength="164.8555" x="234.1509" y="27.8467">DeadlineMonitorBuilder</text><line style="stroke:#181818;stroke-width:0.5;" x1="8" x2="581.6572" y1="39" y2="39"/><line style="stroke:#181818;stroke-width:0.5;" x1="8" x2="581.6572" y1="47" y2="47"/><ellipse cx="18" cy="60.6484" fill="#84BE84" rx="3" ry="3" style="stroke:#038048;stroke-width:1;"/><text fill="#000000" font-family="sans-serif" font-size="14" lengthAdjust="spacing" textLength="91.8613" x="27" y="63.9951">new() -&gt; Self</text><ellipse cx="18" cy="76.9453" fill="#84BE84" rx="3" ry="3" style="stroke:#038048;stroke-width:1;"/><text fill="#000000" font-family="sans-serif" font-size="14" lengthAdjust="spacing" textLength="549.6572" x="27" y="80.292">add_deadline(&amp;mut self, tag: Tag, min: Duration, max: Duration) -&gt; &amp;mut Self</text><ellipse cx="18" cy="93.2422" fill="#84BE84" rx="3" ry="3" style="stroke:#038048;stroke-width:1;"/><text fill="#000000" font-family="sans-serif" font-size="14" lengthAdjust="spacing" textLength="322.0273" x="27" y="96.5889">build(self) -&gt; Result&lt;DeadlineMonitor, Error&gt;</text></g><!--class DeadlineMonitor--><g id="elem_DeadlineMonitor"><rect codeLine="26" fill="#F1F1F1" height="178.375" id="DeadlineMonitor" rx="2.5" ry="2.5" style="stroke:#181818;stroke-width:0.5;" width="747.4102" x="348.5" y="181"/><ellipse cx="654.7837" cy="197" fill="#ADD1B2" rx="11" ry="11" style="stroke:#181818;stroke-width:1;"/><path d="M657.7524,202.6406 Q657.1743,202.9375 656.5337,203.0781 Q655.8931,203.2344 655.1899,203.2344 Q652.6899,203.2344 651.3618,201.5938 Q650.0493,199.9375 650.0493,196.8125 Q650.0493,193.6875 651.3618,192.0313 Q652.6899,190.375 655.1899,190.375 Q655.8931,190.375 656.5337,190.5313 Q657.1899,190.6875 657.7524,190.9844 L657.7524,193.7031 Q657.1274,193.125 656.5337,192.8594 Q655.9399,192.5781 655.3149,192.5781 Q653.9712,192.5781 653.2837,193.6563 Q652.5962,194.7188 652.5962,196.8125 Q652.5962,198.9063 653.2837,199.9844 Q653.9712,201.0469 655.3149,201.0469 Q655.9399,201.0469 656.5337,200.7813 Q657.1274,200.5 657.7524,199.9219 L657.7524,202.6406 Z " fill="#000000"/><ellipse cx="680.2837" cy="196.5" fill="#84BE84" rx="3" ry="3" style="stroke:#038048;stroke-width:1;"/><text fill="#000000" font-family="sans-serif" font-size="14" lengthAdjust="spacing" textLength="115.3428" x="686.2837" y="201.8467">DeadlineMonitor</text><line style="stroke:#181818;stroke-width:0.5;" x1="349.5" x2="1094.9102" y1="213" y2="213"/><line style="stroke:#181818;stroke-width:0.5;" x1="349.5" x2="1094.9102" y1="221" y2="221"/><ellipse cx="359.5" cy="234.6484" fill="#84BE84" rx="3" ry="3" style="stroke:#038048;stroke-width:1;"/><text fill="#000000" font-family="sans-serif" font-size="14" lengthAdjust="spacing" textLength="424.3203" x="368.5" y="237.9951">create_deadline(&amp;self, tag: Tag) -&gt; Result&lt;Deadline, Error&gt;</text><ellipse cx="359.5" cy="250.9453" fill="#84BE84" rx="3" ry="3" style="stroke:#038048;stroke-width:1;"/><text fill="#000000" font-family="sans-serif" font-size="14" lengthAdjust="spacing" textLength="515.2451" x="368.5" y="254.292">create_deadline_guard(&amp;self, tag: Tag) -&gt; Result&lt;DeadlineGuard, Error&gt;</text><ellipse cx="359.5" cy="267.2422" fill="#84BE84" rx="3" ry="3" style="stroke:#038048;stroke-width:1;"/><text fill="#000000" font-family="sans-serif" font-size="14" lengthAdjust="spacing" textLength="630.4854" x="368.5" y="270.5889">create_custom_deadline(&amp;self, min: Duration, max: Duration) -&gt; Result&lt;Deadline, Error&gt;</text><ellipse cx="359.5" cy="283.5391" fill="#84BE84" rx="3" ry="3" style="stroke:#038048;stroke-width:1;"/><text fill="#000000" font-family="sans-serif" font-size="14" lengthAdjust="spacing" textLength="721.4102" x="368.5" y="286.8857">create_custom_deadline_guard(&amp;self, min: Duration, max: Duration) -&gt; Result&lt;DeadlineGuard, Error&gt;</text><ellipse cx="359.5" cy="299.8359" fill="#84BE84" rx="3" ry="3" style="stroke:#038048;stroke-width:1;"/><text fill="#000000" font-family="sans-serif" font-size="14" lengthAdjust="spacing" textLength="241.5547" x="368.5" y="303.1826">enable(&amp;self) -&gt; Result&lt;(), Error&gt;</text><ellipse cx="359.5" cy="316.1328" fill="#84BE84" rx="3" ry="3" style="stroke:#038048;stroke-width:1;"/><text fill="#000000" font-family="sans-serif" font-size="14" lengthAdjust="spacing" textLength="244.1387" x="368.5" y="319.4795">disable(&amp;self) -&gt; Result&lt;(), Error&gt;</text><ellipse cx="359.5" cy="332.4297" fill="#84BE84" rx="3" ry="3" style="stroke:#038048;stroke-width:1;"/><text fill="#000000" font-family="sans-serif" font-size="14" lengthAdjust="spacing" textLength="159.8789" x="368.5" y="335.7764">status(&amp;self) -&gt; Status</text><polygon fill="#4177AF" points="359.5,344.7266,355.5,350.7266,363.5,350.7266" style="stroke:#1963A0;stroke-width:1;"/><text fill="#000000" font-family="sans-serif" font-size="14" lengthAdjust="spacing" textLength="147.1436" x="368.5" y="352.0732">step(&amp;self) -&gt; Status</text></g><!--class Deadline--><g id="elem_Deadline"><rect codeLine="37" fill="#F1F1F1" height="113.1875" id="Deadline" rx="2.5" ry="2.5" style="stroke:#181818;stroke-width:0.5;" width="285.1572" x="775.5" y="436"/><ellipse cx="877.2661" cy="452" fill="#ADD1B2" rx="11" ry="11" style="stroke:#181818;stroke-width:1;"/><path d="M880.2349,457.6406 Q879.6567,457.9375 879.0161,458.0781 Q878.3755,458.2344 877.6724,458.2344 Q875.1724,458.2344 873.8442,456.5938 Q872.5317,454.9375 872.5317,451.8125 Q872.5317,448.6875 873.8442,447.0313 Q875.1724,445.375 877.6724,445.375 Q878.3755,445.375 879.0161,445.5313 Q879.6724,445.6875 880.2349,445.9844 L880.2349,448.7031 Q879.6099,448.125 879.0161,447.8594 Q878.4224,447.5781 877.7974,447.5781 Q876.4536,447.5781 875.7661,448.6563 Q875.0786,449.7188 875.0786,451.8125 Q875.0786,453.9063 875.7661,454.9844 Q876.4536,456.0469 877.7974,456.0469 Q878.4224,456.0469 879.0161,455.7813 Q879.6099,455.5 880.2349,454.9219 L880.2349,457.6406 Z " fill="#000000"/><ellipse cx="902.7661" cy="451.5" fill="#84BE84" rx="3" ry="3" style="stroke:#038048;stroke-width:1;"/><text fill="#000000" font-family="sans-serif" font-size="14" lengthAdjust="spacing" textLength="62.125" x="908.7661" y="456.8467">Deadline</text><line style="stroke:#181818;stroke-width:0.5;" x1="776.5" x2="1059.6572" y1="468" y2="468"/><line style="stroke:#181818;stroke-width:0.5;" x1="776.5" x2="1059.6572" y1="476" y2="476"/><ellipse cx="786.5" cy="489.6484" fill="#84BE84" rx="3" ry="3" style="stroke:#038048;stroke-width:1;"/><text fill="#000000" font-family="sans-serif" font-size="14" lengthAdjust="spacing" textLength="259.1572" x="795.5" y="492.9951">start(&amp;mut self) -&gt; Result&lt;(), Error&gt;</text><ellipse cx="786.5" cy="505.9453" fill="#84BE84" rx="3" ry="3" style="stroke:#038048;stroke-width:1;"/><text fill="#000000" font-family="sans-serif" font-size="14" lengthAdjust="spacing" textLength="256.7852" x="795.5" y="509.292">stop(&amp;mut self) -&gt; Result&lt;(), Error&gt;</text><ellipse cx="786.5" cy="522.2422" fill="#84BE84" rx="3" ry="3" style="stroke:#038048;stroke-width:1;"/><text fill="#000000" font-family="sans-serif" font-size="14" lengthAdjust="spacing" textLength="159.4551" x="795.5" y="525.5889">min(&amp;self) -&gt; Duration</text><ellipse cx="786.5" cy="538.5391" fill="#84BE84" rx="3" ry="3" style="stroke:#038048;stroke-width:1;"/><text fill="#000000" font-family="sans-serif" font-size="14" lengthAdjust="spacing" textLength="163.5566" x="795.5" y="541.8857">max(&amp;self) -&gt; Duration</text></g><!--class DeadlineGuard--><g id="elem_DeadlineGuard"><rect codeLine="44" fill="#F1F1F1" height="48" id="DeadlineGuard" rx="2.5" ry="2.5" style="stroke:#181818;stroke-width:0.5;" width="148.0684" x="1096" y="468.5"/><ellipse cx="1111" cy="484.5" fill="#ADD1B2" rx="11" ry="11" style="stroke:#181818;stroke-width:1;"/><path d="M1113.9688,490.1406 Q1113.3906,490.4375 1112.75,490.5781 Q1112.1094,490.7344 1111.4063,490.7344 Q1108.9063,490.7344 1107.5781,489.0938 Q1106.2656,487.4375 1106.2656,484.3125 Q1106.2656,481.1875 1107.5781,479.5313 Q1108.9063,477.875 1111.4063,477.875 Q1112.1094,477.875 1112.75,478.0313 Q1113.4063,478.1875 1113.9688,478.4844 L1113.9688,481.2031 Q1113.3438,480.625 1112.75,480.3594 Q1112.1563,480.0781 1111.5313,480.0781 Q1110.1875,480.0781 1109.5,481.1563 Q1108.8125,482.2188 1108.8125,484.3125 Q1108.8125,486.4063 1109.5,487.4844 Q1110.1875,488.5469 1111.5313,488.5469 Q1112.1563,488.5469 1112.75,488.2813 Q1113.3438,488 1113.9688,487.4219 L1113.9688,490.1406 Z " fill="#000000"/><ellipse cx="1130" cy="484" fill="#84BE84" rx="3" ry="3" style="stroke:#038048;stroke-width:1;"/><text fill="#000000" font-family="sans-serif" font-size="14" lengthAdjust="spacing" textLength="105.0684" x="1136" y="489.3467">DeadlineGuard</text><line style="stroke:#181818;stroke-width:0.5;" x1="1097" x2="1243.0684" y1="500.5" y2="500.5"/><line style="stroke:#181818;stroke-width:0.5;" x1="1097" x2="1243.0684" y1="508.5" y2="508.5"/></g><!--link DeadlineMonitorBuilder to Error--><g id="link_DeadlineMonitorBuilder_Error"><path codeLine="47" d="M267.5,104.22 C216.45,199.8 121.31,416.87 226,549 C280.04,617.2 538.0165,648.8167 657.3065,660.0667 " fill="transparent" id="DeadlineMonitorBuilder-to-Error" style="stroke:#181818;stroke-width:1;stroke-dasharray:7.0,7.0;"/><polygon fill="#181818" points="663.28,660.63,654.6953,655.8026,658.3021,660.1605,653.9442,663.7673,663.28,660.63" style="stroke:#181818;stroke-width:1;"/></g><!--link DeadlineMonitorBuilder to Tag--><g id="link_DeadlineMonitorBuilder_Tag"><path codeLine="48" d="M295.83,104.1 C297.97,164.52 305.42,271.43 331,359 C341.64,395.41 358.5152,428.948 373.2952,455.068 " fill="transparent" id="DeadlineMonitorBuilder-to-Tag" style="stroke:#181818;stroke-width:1;stroke-dasharray:7.0,7.0;"/><polygon fill="#181818" points="376.25,460.29,375.299,450.4872,373.7876,455.9384,368.3364,454.427,376.25,460.29" style="stroke:#181818;stroke-width:1;"/></g><!--link DeadlineMonitorBuilder to DeadlineMonitor--><g id="link_DeadlineMonitorBuilder_DeadlineMonitor"><path codeLine="49" d="M390.56,104.06 C436.04,126.69 486.5588,151.8261 539.3888,178.1261 " fill="transparent" id="DeadlineMonitorBuilder-to-DeadlineMonitor" style="stroke:#181818;stroke-width:1;stroke-dasharray:7.0,7.0;"/><polygon fill="#181818" points="544.76,180.8,538.4858,173.2083,540.284,178.5717,534.9205,180.3699,544.76,180.8" style="stroke:#181818;stroke-width:1;"/><text fill="#000000" font-family="sans-serif" font-size="13" lengthAdjust="spacing" textLength="81.6943" x="484" y="147.0669">&#171;consumes&#187;</text></g><!--reverse link DeadlineMonitor to Status--><g id="link_DeadlineMonitor_Status"><path codeLine="50" d="M669.4499,370.0754 C664.6299,380.0054 665.2,379.26 661,389 C654.54,403.98 648.33,420.54 642.94,435.9 " fill="transparent" id="DeadlineMonitor-backto-Status" style="stroke:#181818;stroke-width:1;"/><polygon fill="#181818" points="674.69,359.28,668.4715,362.931,669.4499,370.0754,675.6684,366.4244,674.69,359.28" style="stroke:#181818;stroke-width:1;"/><text fill="#000000" font-family="sans-serif" font-size="13" lengthAdjust="spacing" textLength="33.5981" x="662" y="402.0669">owns</text></g><!--link DeadlineMonitor to Error--><g id="link_DeadlineMonitor_Error"><path codeLine="51" d="M722,359.04 C722,435.8 722,538.77 722,603.97 " fill="transparent" id="DeadlineMonitor-to-Error" style="stroke:#181818;stroke-width:1;stroke-dasharray:7.0,7.0;"/><polygon fill="#181818" points="722,609.97,726,600.97,722,604.97,718,600.97,722,609.97" style="stroke:#181818;stroke-width:1;"/></g><!--link DeadlineMonitor to Tag--><g id="link_DeadlineMonitor_Tag"><path codeLine="52" d="M591.35,359.1 C538.16,394.97 485.1044,430.7351 446.0344,457.0851 " fill="transparent" id="DeadlineMonitor-to-Tag" style="stroke:#181818;stroke-width:1;stroke-dasharray:7.0,7.0;"/><polygon fill="#181818" points="441.06,460.44,450.7582,458.7239,445.2053,457.6443,446.285,452.0914,441.06,460.44" style="stroke:#181818;stroke-width:1;"/></g><!--link DeadlineMonitor to Deadline--><g id="link_DeadlineMonitor_Deadline"><path codeLine="53" d="M800.31,359.1 C823.34,385.01 843.9043,408.1351 864.5843,431.4051 " fill="transparent" id="DeadlineMonitor-to-Deadline" style="stroke:#181818;stroke-width:1;stroke-dasharray:7.0,7.0;"/><polygon fill="#181818" points="868.57,435.89,865.5814,426.5055,865.2486,432.1526,859.6015,431.8198,868.57,435.89" style="stroke:#181818;stroke-width:1;"/><text fill="#000000" font-family="sans-serif" font-size="13" lengthAdjust="spacing" textLength="64.2319" x="839" y="402.0669">&#171;creates&#187;</text></g><!--link DeadlineMonitor to DeadlineGuard--><g id="link_DeadlineMonitor_DeadlineGuard"><path codeLine="54" d="M922.06,359.08 C973.43,382.96 1028.22,409.55 1078,436 C1096.78,445.98 1111.9767,454.9247 1128.7167,465.2747 " fill="transparent" id="DeadlineMonitor-to-DeadlineGuard" style="stroke:#181818;stroke-width:1;stroke-dasharray:7.0,7.0;"/><polygon fill="#181818" points="1133.82,468.43,1128.2685,460.2948,1129.5672,465.8006,1124.0615,467.0993,1133.82,468.43" style="stroke:#181818;stroke-width:1;"/><text fill="#000000" font-family="sans-serif" font-size="13" lengthAdjust="spacing" textLength="64.2319" x="1013" y="402.0669">&#171;creates&#187;</text></g><!--link Deadline to Error--><g id="link_Deadline_Error"><path codeLine="55" d="M854.64,549.11 C830.92,569.91 808.6197,589.4924 785.3397,609.9224 " fill="transparent" id="Deadline-to-Error" style="stroke:#181818;stroke-width:1;stroke-dasharray:7.0,7.0;"/><polygon fill="#181818" points="780.83,613.88,790.2329,610.9501,784.5881,610.582,784.9561,604.9371,780.83,613.88" style="stroke:#181818;stroke-width:1;"/></g><!--SRC=[bPJBRi8m44NtV8LNLIY13uYYI21QLa05tICJ3v6bn8xy45HL- -rrx0Jo19gLxRbpvsGopWIOpj1UOQKb-XuXy-mqOvGbThsa4XzJ87RpZccrt2kUvsRzCnfDhCER45oK1WjCFh306IWGlZtPS3LFKtu6ulPRhRQdDMHSVBc35J0GDFQjOPnYAT4dJag_2ODpk0dGNExW54ebeiXZnZv0cp6QHcWFwQcMk0HCKifWpHbLN2mqJGc8cfTtpKBk31Do86MMzv9fXQG9-aZX92WuV9HH5g2b5bXHpimMNsvRwsQpB8XrF1P5lSB5HdSWTQh25fdlkXODirVGiG2ieCROvEkhSJNlCpWa6WloZCsg4FPwnLegddMO7dRg6SwMTnFtlnLwNW5OCTNEi9xYZPiwuiR_iL3Q2rJJkHjbWxzIGTuDTJzwzRMDcL2tERnVb-VFAKtNQWnLlyeOllJ5keIsbGRJH0PksMmMkRBt16RMxeNRbo10OHXp9dK6CehQcUXrEgr-O07YPoOxYa6e8Pe6Xgjl1xElV5tg-jEllr7y0G00]--></g></svg>