<svg xmlns="http://www.w3.org/2000/svg" xmlns:xlink="http://www.w3.org/1999/xlink" contentStyleType="text/css" data-diagram-type="CLASS" height="398px" preserveAspectRatio="none" style="width:2245px;height:398px;background:#FFFFFF;" version="1.1" viewBox="0 0 2245 398" width="2245px" zoomAndPan="magnify"><defs/><g><!--class Tag--><g id="elem_Tag"><rect codeLine="2" fill="#F1F1F1" height="64.2969" id="Tag" rx="2.5" ry="2.5" style="stroke:#181818;stroke-width:0.5;" width="302.4453" x="7" y="270"/><ellipse cx="135.4639" cy="286" fill="#ADD1B2" rx="11" ry="11" style="stroke:#181818;stroke-width:1;"/><path d="M138.4326,291.6406 Q137.8545,291.9375 137.2139,292.0781 Q136.5732,292.2344 135.8701,292.2344 Q133.3701,292.2344 132.042,290.5938 Q130.7295,288.9375 130.7295,285.8125 Q130.7295,282.6875 132.042,281.0313 Q133.3701,279.375 135.8701,279.375 Q136.5732,279.375 137.2139,279.5313 Q137.8701,279.6875 138.4326,279.9844 L138.4326,282.7031 Q137.8076,282.125 137.2139,281.8594 Q136.6201,281.5781 135.9951,281.5781 Q134.6514,281.5781 133.9639,282.6563 Q133.2764,283.7188 133.2764,285.8125 Q133.2764,287.9063 133.9639,288.9844 Q134.6514,290.0469 135.9951,290.0469 Q136.6201,290.0469 137.2139,289.7813 Q137.8076,289.5 138.4326,288.9219 L138.4326,291.6406 Z " fill="#000000"/><ellipse cx="160.9639" cy="285.5" fill="#84BE84" rx="3" ry="3" style="stroke:#038048;stroke-width:1;"/><text fill="#000000" font-family="sans-serif" font-size="14" lengthAdjust="spacing" textLength="26.0176" x="166.9639" y="290.8467">Tag</text><line style="stroke:#181818;stroke-width:0.5;" x1="8" x2="308.4453" y1="302" y2="302"/><line style="stroke:#181818;stroke-width:0.5;" x1="8" x2="308.4453" y1="310" y2="310"/><ellipse cx="18" cy="323.6484" fill="#84BE84" rx="3" ry="3" style="stroke:#038048;stroke-width:1;"/><text fill="#000000" font-family="sans-serif" font-size="14" lengthAdjust="spacing" textLength="276.4453" x="27" y="326.9951">new&lt;N: AsRef&lt;str&gt;&gt;(name: N) -&gt; Self</text></g><!--class Error--><g id="elem_Error"><rect codeLine="2" fill="#F1F1F1" height="113.1875" id="Error" rx="2.5" ry="2.5" style="stroke:#181818;stroke-width:0.5;" width="116.9863" x="344.5" y="245.5"/><ellipse cx="377.1884" cy="261.5" fill="#EB937F" rx="11" ry="11" style="stroke:#181818;stroke-width:1;"/><path d="M381.2978,267.5 L373.5791,267.5 L373.5791,255.1094 L381.2978,255.1094 L381.2978,257.2656 L376.0322,257.2656 L376.0322,259.9375 L380.7978,259.9375 L380.7978,262.0938 L376.0322,262.0938 L376.0322,265.3438 L381.2978,265.3438 L381.2978,267.5 Z " fill="#000000"/><ellipse cx="400.1192" cy="261" fill="#84BE84" rx="3" ry="3" style="stroke:#038048;stroke-width:1;"/><text fill="#000000" font-family="sans-serif" font-size="14" lengthAdjust="spacing" textLength="34.6787" x="406.1192" y="266.3467">Error</text><line style="stroke:#181818;stroke-width:0.5;" x1="345.5" x2="460.4863" y1="277.5" y2="277.5"/><text fill="#000000" font-family="sans-serif" font-size="14" lengthAdjust="spacing" textLength="104.9863" x="350.5" y="294.4951">BadParameter,</text><text fill="#000000" font-family="sans-serif" font-size="14" lengthAdjust="spacing" textLength="83.8496" x="350.5" y="310.792">NotAllowed,</text><text fill="#000000" font-family="sans-serif" font-size="14" lengthAdjust="spacing" textLength="102.7168" x="350.5" y="327.0889">OutOfMemory,</text><text fill="#000000" font-family="sans-serif" font-size="14" lengthAdjust="spacing" textLength="58.7412" x="350.5" y="343.3857">Generic,</text><line style="stroke:#181818;stroke-width:0.5;" x1="345.5" x2="460.4863" y1="350.6875" y2="350.6875"/></g><!--class Status--><g id="elem_Status"><rect codeLine="2" fill="#F1F1F1" height="113.1875" id="Status" rx="2.5" ry="2.5" style="stroke:#181818;stroke-width:0.5;" width="87.6113" x="497" y="245.5"/><ellipse cx="512" cy="261.5" fill="#EB937F" rx="11" ry="11" style="stroke:#181818;stroke-width:1;"/><path d="M516.1094,267.5 L508.3906,267.5 L508.3906,255.1094 L516.1094,255.1094 L516.1094,257.2656 L510.8438,257.2656 L510.8438,259.9375 L515.6094,259.9375 L515.6094,262.0938 L510.8438,262.0938 L510.8438,265.3438 L516.1094,265.3438 L516.1094,267.5 Z " fill="#000000"/><ellipse cx="531" cy="261" fill="#84BE84" rx="3" ry="3" style="stroke:#038048;stroke-width:1;"/><text fill="#000000" font-family="sans-serif" font-size="14" lengthAdjust="spacing" textLength="44.6113" x="537" y="266.3467">Status</text><line style="stroke:#181818;stroke-width:0.5;" x1="498" x2="583.6113" y1="277.5" y2="277.5"/><text fill="#000000" font-family="sans-serif" font-size="14" lengthAdjust="spacing" textLength="57.9961" x="503" y="294.4951">Running</text><text fill="#000000" font-family="sans-serif" font-size="14" lengthAdjust="spacing" textLength="60.8193" x="503" y="310.792">Disabled</text><text fill="#000000" font-family="sans-serif" font-size="14" lengthAdjust="spacing" textLength="41.9111" x="503" y="327.0889">Failed</text><text fill="#000000" font-family="sans-serif" font-size="14" lengthAdjust="spacing" textLength="58.2148" x="503" y="343.3857">Stopped</text><line style="stroke:#181818;stroke-width:0.5;" x1="498" x2="583.6113" y1="350.6875" y2="350.6875"/></g><!--class LogicMonitor--><g id="elem_LogicMonitor"><rect codeLine="7" fill="#F1F1F1" height="129.4844" id="LogicMonitor" rx="2.5" ry="2.5" style="stroke:#181818;stroke-width:0.5;" width="446.0342" x="620" y="237.5"/><ellipse cx="788.2388" cy="253.5" fill="#ADD1B2" rx="11" ry="11" style="stroke:#181818;stroke-width:1;"/><path d="M791.2075,259.1406 Q790.6294,259.4375 789.9888,259.5781 Q789.3481,259.7344 788.645,259.7344 Q786.145,259.7344 784.8169,258.0938 Q783.5044,256.4375 783.5044,253.3125 Q783.5044,250.1875 784.8169,248.5313 Q786.145,246.875 788.645,246.875 Q789.3481,246.875 789.9888,247.0313 Q790.645,247.1875 791.2075,247.4844 L791.2075,250.2031 Q790.5825,249.625 789.9888,249.3594 Q789.395,249.0781 788.77,249.0781 Q787.4263,249.0781 786.7388,250.1563 Q786.0513,251.2188 786.0513,253.3125 Q786.0513,255.4063 786.7388,256.4844 Q787.4263,257.5469 788.77,257.5469 Q789.395,257.5469 789.9888,257.2813 Q790.5825,257 791.2075,256.4219 L791.2075,259.1406 Z " fill="#000000"/><ellipse cx="813.7388" cy="253" fill="#84BE84" rx="3" ry="3" style="stroke:#038048;stroke-width:1;"/><text fill="#000000" font-family="sans-serif" font-size="14" lengthAdjust="spacing" textLength="90.0566" x="819.7388" y="258.3467">LogicMonitor</text><line style="stroke:#181818;stroke-width:0.5;" x1="621" x2="1065.0342" y1="269.5" y2="269.5"/><line style="stroke:#181818;stroke-width:0.5;" x1="621" x2="1065.0342" y1="277.5" y2="277.5"/><ellipse cx="631" cy="291.1484" fill="#84BE84" rx="3" ry="3" style="stroke:#038048;stroke-width:1;"/><text fill="#000000" font-family="sans-serif" font-size="14" lengthAdjust="spacing" textLength="420.0342" x="640" y="294.4951">transition(&amp;self, to: LogicMonitorState) -&gt; Result&lt;(), Error&gt;</text><ellipse cx="631" cy="307.4453" fill="#84BE84" rx="3" ry="3" style="stroke:#038048;stroke-width:1;"/><text fill="#000000" font-family="sans-serif" font-size="14" lengthAdjust="spacing" textLength="241.5547" x="640" y="310.792">enable(&amp;self) -&gt; Result&lt;(), Error&gt;</text><ellipse cx="631" cy="323.7422" fill="#84BE84" rx="3" ry="3" style="stroke:#038048;stroke-width:1;"/><text fill="#000000" font-family="sans-serif" font-size="14" lengthAdjust="spacing" textLength="244.1387" x="640" y="327.0889">disable(&amp;self) -&gt; Result&lt;(), Error&gt;</text><ellipse cx="631" cy="340.0391" fill="#84BE84" rx="3" ry="3" style="stroke:#038048;stroke-width:1;"/><text fill="#000000" font-family="sans-serif" font-size="14" lengthAdjust="spacing" textLength="159.8789" x="640" y="343.3857">status(&amp;self) -&gt; Status</text><ellipse cx="631" cy="356.3359" fill="#84BE84" rx="3" ry="3" style="stroke:#038048;stroke-width:1;"/><text fill="#000000" font-family="sans-serif" font-size="14" lengthAdjust="spacing" textLength="234.8281" x="640" y="359.6826">state(&amp;self) -&gt; LogicMonitorState</text></g><!--class DeadlineMonitor--><g id="elem_DeadlineMonitor"><rect codeLine="9" fill="#F1F1F1" height="178.375" id="DeadlineMonitor" rx="2.5" ry="2.5" style="stroke:#181818;stroke-width:0.5;" width="762.9346" x="1101.5" y="213"/><ellipse cx="1415.5459" cy="229" fill="#ADD1B2" rx="11" ry="11" style="stroke:#181818;stroke-width:1;"/><path d="M1418.5146,234.6406 Q1417.9365,234.9375 1417.2959,235.0781 Q1416.6553,235.2344 1415.9521,235.2344 Q1413.4521,235.2344 1412.124,233.5938 Q1410.8115,231.9375 1410.8115,228.8125 Q1410.8115,225.6875 1412.124,224.0313 Q1413.4521,222.375 1415.9521,222.375 Q1416.6553,222.375 1417.2959,222.5313 Q1417.9521,222.6875 1418.5146,222.9844 L1418.5146,225.7031 Q1417.8896,225.125 1417.2959,224.8594 Q1416.7021,224.5781 1416.0771,224.5781 Q1414.7334,224.5781 1414.0459,225.6563 Q1413.3584,226.7188 1413.3584,228.8125 Q1413.3584,230.9063 1414.0459,231.9844 Q1414.7334,233.0469 1416.0771,233.0469 Q1416.7021,233.0469 1417.2959,232.7813 Q1417.8896,232.5 1418.5146,231.9219 L1418.5146,234.6406 Z " fill="#000000"/><ellipse cx="1441.0459" cy="228.5" fill="#84BE84" rx="3" ry="3" style="stroke:#038048;stroke-width:1;"/><text fill="#000000" font-family="sans-serif" font-size="14" lengthAdjust="spacing" textLength="115.3428" x="1447.0459" y="233.8467">DeadlineMonitor</text><line style="stroke:#181818;stroke-width:0.5;" x1="1102.5" x2="1863.4346" y1="245" y2="245"/><line style="stroke:#181818;stroke-width:0.5;" x1="1102.5" x2="1863.4346" y1="253" y2="253"/><ellipse cx="1112.5" cy="266.6484" fill="#84BE84" rx="3" ry="3" style="stroke:#038048;stroke-width:1;"/><text fill="#000000" font-family="sans-serif" font-size="14" lengthAdjust="spacing" textLength="402.5615" x="1121.5" y="269.9951">get_deadline(&amp;self, tag: Tag) -&gt; Result&lt;Deadline, Error&gt;</text><ellipse cx="1112.5" cy="282.9453" fill="#84BE84" rx="3" ry="3" style="stroke:#038048;stroke-width:1;"/><text fill="#000000" font-family="sans-serif" font-size="14" lengthAdjust="spacing" textLength="493.4863" x="1121.5" y="286.292">get_deadline_guard(&amp;self, tag: Tag) -&gt; Result&lt;DeadlineGuard, Error&gt;</text><ellipse cx="1112.5" cy="299.2422" fill="#84BE84" rx="3" ry="3" style="stroke:#038048;stroke-width:1;"/><text fill="#000000" font-family="sans-serif" font-size="14" lengthAdjust="spacing" textLength="646.0098" x="1121.5" y="302.5889">create_custom_deadline(&amp;self, duration_range: DurationRange) -&gt; Result&lt;Deadline, Error&gt;</text><ellipse cx="1112.5" cy="315.5391" fill="#84BE84" rx="3" ry="3" style="stroke:#038048;stroke-width:1;"/><text fill="#000000" font-family="sans-serif" font-size="14" lengthAdjust="spacing" textLength="736.9346" x="1121.5" y="318.8857">create_custom_deadline_guard(&amp;self, duration_range: DurationRange) -&gt; Result&lt;DeadlineGuard, Error&gt;</text><ellipse cx="1112.5" cy="331.8359" fill="#84BE84" rx="3" ry="3" style="stroke:#038048;stroke-width:1;"/><text fill="#000000" font-family="sans-serif" font-size="14" lengthAdjust="spacing" textLength="241.5547" x="1121.5" y="335.1826">enable(&amp;self) -&gt; Result&lt;(), Error&gt;</text><ellipse cx="1112.5" cy="348.1328" fill="#84BE84" rx="3" ry="3" style="stroke:#038048;stroke-width:1;"/><text fill="#000000" font-family="sans-serif" font-size="14" lengthAdjust="spacing" textLength="244.1387" x="1121.5" y="351.4795">disable(&amp;self) -&gt; Result&lt;(), Error&gt;</text><ellipse cx="1112.5" cy="364.4297" fill="#84BE84" rx="3" ry="3" style="stroke:#038048;stroke-width:1;"/><text fill="#000000" font-family="sans-serif" font-size="14" lengthAdjust="spacing" textLength="159.8789" x="1121.5" y="367.7764">status(&amp;self) -&gt; Status</text><polygon fill="#4177AF" points="1112.5,376.7266,1108.5,382.7266,1116.5,382.7266" style="stroke:#1963A0;stroke-width:1;"/><text fill="#000000" font-family="sans-serif" font-size="14" lengthAdjust="spacing" textLength="177.7822" x="1121.5" y="384.0732">evaluate(&amp;self) -&gt; Status</text></g><!--class HeartbeatMonitor--><g id="elem_HeartbeatMonitor"><rect codeLine="7" fill="#F1F1F1" height="129.4844" id="HeartbeatMonitor" rx="2.5" ry="2.5" style="stroke:#181818;stroke-width:0.5;" width="339.1338" x="1899.5" y="237.5"/><ellipse cx="1997.4414" cy="253.5" fill="#ADD1B2" rx="11" ry="11" style="stroke:#181818;stroke-width:1;"/><path d="M2000.4102,259.1406 Q1999.832,259.4375 1999.1914,259.5781 Q1998.5508,259.7344 1997.8477,259.7344 Q1995.3477,259.7344 1994.0195,258.0938 Q1992.707,256.4375 1992.707,253.3125 Q1992.707,250.1875 1994.0195,248.5313 Q1995.3477,246.875 1997.8477,246.875 Q1998.5508,246.875 1999.1914,247.0313 Q1999.8477,247.1875 2000.4102,247.4844 L2000.4102,250.2031 Q1999.7852,249.625 1999.1914,249.3594 Q1998.5977,249.0781 1997.9727,249.0781 Q1996.6289,249.0781 1995.9414,250.1563 Q1995.2539,251.2188 1995.2539,253.3125 Q1995.2539,255.4063 1995.9414,256.4844 Q1996.6289,257.5469 1997.9727,257.5469 Q1998.5977,257.5469 1999.1914,257.2813 Q1999.7852,257 2000.4102,256.4219 L2000.4102,259.1406 Z " fill="#000000"/><ellipse cx="2022.9414" cy="253" fill="#84BE84" rx="3" ry="3" style="stroke:#038048;stroke-width:1;"/><text fill="#000000" font-family="sans-serif" font-size="14" lengthAdjust="spacing" textLength="123.751" x="2028.9414" y="258.3467">HeartbeatMonitor</text><line style="stroke:#181818;stroke-width:0.5;" x1="1900.5" x2="2237.6338" y1="269.5" y2="269.5"/><line style="stroke:#181818;stroke-width:0.5;" x1="1900.5" x2="2237.6338" y1="277.5" y2="277.5"/><ellipse cx="1910.5" cy="291.1484" fill="#84BE84" rx="3" ry="3" style="stroke:#038048;stroke-width:1;"/><text fill="#000000" font-family="sans-serif" font-size="14" lengthAdjust="spacing" textLength="313.1338" x="1919.5" y="294.4951">new(duration_range: DurationRange) -&gt; Self</text><ellipse cx="1910.5" cy="307.4453" fill="#84BE84" rx="3" ry="3" style="stroke:#038048;stroke-width:1;"/><text fill="#000000" font-family="sans-serif" font-size="14" lengthAdjust="spacing" textLength="313.0449" x="1919.5" y="310.792">report_heartbeat(&amp;self) -&gt; Result&lt;(), Error&gt;</text><ellipse cx="1910.5" cy="323.7422" fill="#84BE84" rx="3" ry="3" style="stroke:#038048;stroke-width:1;"/><text fill="#000000" font-family="sans-serif" font-size="14" lengthAdjust="spacing" textLength="241.5547" x="1919.5" y="327.0889">enable(&amp;self) -&gt; Result&lt;(), Error&gt;</text><ellipse cx="1910.5" cy="340.0391" fill="#84BE84" rx="3" ry="3" style="stroke:#038048;stroke-width:1;"/><text fill="#000000" font-family="sans-serif" font-size="14" lengthAdjust="spacing" textLength="244.1387" x="1919.5" y="343.3857">disable(&amp;self) -&gt; Result&lt;(), Error&gt;</text><polygon fill="#4177AF" points="1910.5,352.3359,1906.5,358.3359,1914.5,358.3359" style="stroke:#1963A0;stroke-width:1;"/><text fill="#000000" font-family="sans-serif" font-size="14" lengthAdjust="spacing" textLength="177.7822" x="1919.5" y="359.6826">evaluate(&amp;self) -&gt; Status</text></g><!--class HealthMonitor--><g id="elem_HealthMonitor"><rect codeLine="10" fill="#F1F1F1" height="145.7813" id="HealthMonitor" rx="2.5" ry="2.5" style="stroke:#181818;stroke-width:0.5;" width="560.6113" x="411.5" y="7"/><ellipse cx="632.4609" cy="23" fill="#ADD1B2" rx="11" ry="11" style="stroke:#181818;stroke-width:1;"/><path d="M635.4297,28.6406 Q634.8516,28.9375 634.2109,29.0781 Q633.5703,29.2344 632.8672,29.2344 Q630.3672,29.2344 629.0391,27.5938 Q627.7266,25.9375 627.7266,22.8125 Q627.7266,19.6875 629.0391,18.0313 Q630.3672,16.375 632.8672,16.375 Q633.5703,16.375 634.2109,16.5313 Q634.8672,16.6875 635.4297,16.9844 L635.4297,19.7031 Q634.8047,19.125 634.2109,18.8594 Q633.6172,18.5781 632.9922,18.5781 Q631.6484,18.5781 630.9609,19.6563 Q630.2734,20.7188 630.2734,22.8125 Q630.2734,24.9063 630.9609,25.9844 Q631.6484,27.0469 632.9922,27.0469 Q633.6172,27.0469 634.2109,26.7813 Q634.8047,26.5 635.4297,25.9219 L635.4297,28.6406 Z " fill="#000000"/><ellipse cx="657.9609" cy="22.5" fill="#84BE84" rx="3" ry="3" style="stroke:#038048;stroke-width:1;"/><text fill="#000000" font-family="sans-serif" font-size="14" lengthAdjust="spacing" textLength="99.1895" x="663.9609" y="27.8467">HealthMonitor</text><line style="stroke:#181818;stroke-width:0.5;" x1="412.5" x2="971.1113" y1="39" y2="39"/><line style="stroke:#181818;stroke-width:0.5;" x1="412.5" x2="971.1113" y1="47" y2="47"/><ellipse cx="422.5" cy="60.6484" fill="#84BE84" rx="3" ry="3" style="stroke:#038048;stroke-width:1;"/><text fill="#000000" font-family="sans-serif" font-size="14" lengthAdjust="spacing" textLength="534.6113" x="431.5" y="63.9951">get_heartbeat_monitor(&amp;self, tag: Tag) -&gt; Result&lt;HeartbeatMonitor, Error&gt;</text><ellipse cx="422.5" cy="76.9453" fill="#84BE84" rx="3" ry="3" style="stroke:#038048;stroke-width:1;"/><text fill="#000000" font-family="sans-serif" font-size="14" lengthAdjust="spacing" textLength="517.5557" x="431.5" y="80.292">get_deadline_monitor(&amp;self, tag: Tag) -&gt; Result&lt;DeadlineMonitor, Error&gt;</text><ellipse cx="422.5" cy="93.2422" fill="#84BE84" rx="3" ry="3" style="stroke:#038048;stroke-width:1;"/><text fill="#000000" font-family="sans-serif" font-size="14" lengthAdjust="spacing" textLength="464.9668" x="431.5" y="96.5889">get_logic_monitor(&amp;self, tag: Tag) -&gt; Result&lt;LogicMonitor, Error&gt;</text><ellipse cx="422.5" cy="109.5391" fill="#84BE84" rx="3" ry="3" style="stroke:#038048;stroke-width:1;"/><text fill="#000000" font-family="sans-serif" font-size="14" lengthAdjust="spacing" textLength="383.0791" x="431.5" y="112.8857">get_supervisor_api_cycle() -&gt; Result&lt;Duration, Error&gt;</text><ellipse cx="422.5" cy="125.8359" fill="#84BE84" rx="3" ry="3" style="stroke:#038048;stroke-width:1;"/><text fill="#000000" font-family="sans-serif" font-size="14" lengthAdjust="spacing" textLength="418.2295" x="431.5" y="129.1826">get_internal_processing_cycle() -&gt; Result&lt;Duration, Error&gt;</text><ellipse cx="422.5" cy="142.1328" fill="#84BE84" rx="3" ry="3" style="stroke:#038048;stroke-width:1;"/><text fill="#000000" font-family="sans-serif" font-size="14" lengthAdjust="spacing" textLength="159.8789" x="431.5" y="145.4795">status(&amp;self) -&gt; Status</text></g><!--reverse link HealthMonitor to DeadlineMonitor--><g id="link_HealthMonitor_DeadlineMonitor"><path codeLine="21" d="M962.5613,156.2549 C1031.3913,175.3949 1094.94,193.07 1166.45,212.96 " fill="transparent" id="HealthMonitor-backto-DeadlineMonitor" style="stroke:#181818;stroke-width:1;"/><polygon fill="transparent" points="951,153.04,955.709,158.5012,962.5613,156.2549,957.8523,150.7937,951,153.04" style="stroke:#181818;stroke-width:1;"/><text fill="#000000" font-family="sans-serif" font-size="13" lengthAdjust="spacing" textLength="23.0356" x="1116.2875" y="202.0221">0..*</text></g><!--reverse link HealthMonitor to LogicMonitor--><g id="link_HealthMonitor_LogicMonitor"><path codeLine="22" d="M748.2326,162.9324 C766.9026,190.1224 781.19,210.95 799.3,237.33 " fill="transparent" id="HealthMonitor-backto-LogicMonitor" style="stroke:#181818;stroke-width:1;"/><polygon fill="transparent" points="741.44,153.04,741.5388,160.2504,748.2326,162.9324,748.1338,155.722,741.44,153.04" style="stroke:#181818;stroke-width:1;"/><text fill="#000000" font-family="sans-serif" font-size="13" lengthAdjust="spacing" textLength="23.0356" x="770.2626" y="226.4841">0..*</text></g><!--reverse link HealthMonitor to HeartbeatMonitor--><g id="link_HealthMonitor_HeartbeatMonitor"><path codeLine="23" d="M984.5687,86.7411 C1228.8987,97.3611 1578.56,127.33 1882,213 C1904.27,219.29 1927.19,227.99 1949.02,237.5 " fill="transparent" id="HealthMonitor-backto-HeartbeatMonitor" style="stroke:#181818;stroke-width:1;"/><polygon fill="transparent" points="972.58,86.22,978.4006,90.4768,984.5687,86.7411,978.748,82.4843,972.58,86.22" style="stroke:#181818;stroke-width:1;"/><text fill="#000000" font-family="sans-serif" font-size="13" lengthAdjust="spacing" textLength="23.0356" x="1910.812" y="226.2216">0..*</text></g><!--reverse link HealthMonitor to Status--><g id="link_HealthMonitor_Status"><path codeLine="24" d="M635.7685,162.9332 C615.2085,192.8832 598.51,217.22 579.3,245.2 " fill="transparent" id="HealthMonitor-backto-Status" style="stroke:#181818;stroke-width:1;"/><polygon fill="#181818" points="642.56,153.04,635.8665,155.7228,635.7685,162.9332,642.462,160.2504,642.56,153.04" style="stroke:#181818;stroke-width:1;"/></g><!--link HealthMonitor to Error--><g id="link_HealthMonitor_Error"><path codeLine="25" d="M561.47,153.17 C533.14,171.18 504.15,191.53 479,213 C467.79,222.57 460.7921,229.3508 450.7921,240.5708 " fill="transparent" id="HealthMonitor-to-Error" style="stroke:#181818;stroke-width:1;stroke-dasharray:7.0,7.0;"/><polygon fill="#181818" points="446.8,245.05,455.7743,240.9927,450.1268,241.3174,449.8021,235.6698,446.8,245.05" style="stroke:#181818;stroke-width:1;"/></g><!--link HealthMonitor to Tag--><g id="link_HealthMonitor_Tag"><path codeLine="26" d="M477.81,153.07 C427.81,171.37 375.13,191.88 327,213 C288.08,230.08 250.9179,249.3178 218.3079,267.0978 " fill="transparent" id="HealthMonitor-to-Tag" style="stroke:#181818;stroke-width:1;stroke-dasharray:7.0,7.0;"/><polygon fill="#181818" points="213.04,269.97,222.8566,269.1736,217.4299,267.5765,219.027,262.1498,213.04,269.97" style="stroke:#181818;stroke-width:1;"/></g><!--SRC=[ZLB1IiGm5BpdAz8zoBgxBPv5Ub71WrvMxo5DtxQ1D2d9Yo3YlvksgsuQ2-qbyDxCC6-ccTH2-Hfesp7aJT7xJf7iOWZM6fkE7NBqBfuxNr7LCQaHx8aB6BVPiscaU35Qeh7tYZiNuUi4_m2yLbB38gMj4iuJS8iLS8n890ikBGwS053OHjkz69vuGpy93T- -0MJjZoRhfkNsoe4w7MY8wPQ-yUQQvYKz1aiAx-O63lHnoAtyawlFPwrHcqMGYgaXqpLAb-6dCixtOD-bCvRnNZBn8HHi8oFUSfH6fzIn0CqLwwqHu9pKpMh-zEzCjaVqwpWWNoG3NOUw5fixWY9nOIRFwUQcA7OREajj6NWPoZ9gNkaCkGl8i-zuKHJbTEq_yz3ExutV]--></g></svg>