<svg xmlns="http://www.w3.org/2000/svg" xmlns:xlink="http://www.w3.org/1999/xlink" contentStyleType="text/css" data-diagram-type="CLASS" height="333px" preserveAspectRatio="none" style="width:633px;height:333px;background:#FFFFFF;" version="1.1" viewBox="0 0 633 333" width="633px" zoomAndPan="magnify"><defs/><g><!--class LogicMonitorState--><g id="elem_LogicMonitorState"><rect codeLine="2" fill="#F1F1F1" height="64.2969" id="LogicMonitorState" rx="2.5" ry="2.5" style="stroke:#181818;stroke-width:0.5;" width="302.4453" x="7" y="237.5"/><ellipse cx="84.9155" cy="253.5" fill="#ADD1B2" rx="11" ry="11" style="stroke:#181818;stroke-width:1;"/><path d="M87.8843,259.1406 Q87.3062,259.4375 86.6655,259.5781 Q86.0249,259.7344 85.3218,259.7344 Q82.8218,259.7344 81.4937,258.0938 Q80.1812,256.4375 80.1812,253.3125 Q80.1812,250.1875 81.4937,248.5313 Q82.8218,246.875 85.3218,246.875 Q86.0249,246.875 86.6655,247.0313 Q87.3218,247.1875 87.8843,247.4844 L87.8843,250.2031 Q87.2593,249.625 86.6655,249.3594 Q86.0718,249.0781 85.4468,249.0781 Q84.103,249.0781 83.4155,250.1563 Q82.728,251.2188 82.728,253.3125 Q82.728,255.4063 83.4155,256.4844 Q84.103,257.5469 85.4468,257.5469 Q86.0718,257.5469 86.6655,257.2813 Q87.2593,257 87.8843,256.4219 L87.8843,259.1406 Z " fill="#000000"/><ellipse cx="110.4155" cy="253" fill="#84BE84" rx="3" ry="3" style="stroke:#038048;stroke-width:1;"/><text fill="#000000" font-family="sans-serif" font-size="14" lengthAdjust="spacing" textLength="127.1143" x="116.4155" y="258.3467">LogicMonitorState</text><line style="stroke:#181818;stroke-width:0.5;" x1="8" x2="308.4453" y1="269.5" y2="269.5"/><line style="stroke:#181818;stroke-width:0.5;" x1="8" x2="308.4453" y1="277.5" y2="277.5"/><ellipse cx="18" cy="291.1484" fill="#84BE84" rx="3" ry="3" style="stroke:#038048;stroke-width:1;"/><text fill="#000000" font-family="sans-serif" font-size="14" lengthAdjust="spacing" textLength="276.4453" x="27" y="294.4951">new&lt;N: AsRef&lt;str&gt;&gt;(name: N) -&gt; Self</text></g><!--class Error--><g id="elem_Error"><rect codeLine="2" fill="#F1F1F1" height="113.1875" id="Error" rx="2.5" ry="2.5" style="stroke:#181818;stroke-width:0.5;" width="116.9863" x="344.5" y="213"/><ellipse cx="377.1884" cy="229" fill="#EB937F" rx="11" ry="11" style="stroke:#181818;stroke-width:1;"/><path d="M381.2978,235 L373.5791,235 L373.5791,222.6094 L381.2978,222.6094 L381.2978,224.7656 L376.0322,224.7656 L376.0322,227.4375 L380.7978,227.4375 L380.7978,229.5938 L376.0322,229.5938 L376.0322,232.8438 L381.2978,232.8438 L381.2978,235 Z " fill="#000000"/><ellipse cx="400.1192" cy="228.5" fill="#84BE84" rx="3" ry="3" style="stroke:#038048;stroke-width:1;"/><text fill="#000000" font-family="sans-serif" font-size="14" lengthAdjust="spacing" textLength="34.6787" x="406.1192" y="233.8467">Error</text><line style="stroke:#181818;stroke-width:0.5;" x1="345.5" x2="460.4863" y1="245" y2="245"/><text fill="#000000" font-family="sans-serif" font-size="14" lengthAdjust="spacing" textLength="104.9863" x="350.5" y="261.9951">BadParameter,</text><text fill="#000000" font-family="sans-serif" font-size="14" lengthAdjust="spacing" textLength="83.8496" x="350.5" y="278.292">NotAllowed,</text><text fill="#000000" font-family="sans-serif" font-size="14" lengthAdjust="spacing" textLength="102.7168" x="350.5" y="294.5889">OutOfMemory,</text><text fill="#000000" font-family="sans-serif" font-size="14" lengthAdjust="spacing" textLength="58.7412" x="350.5" y="310.8857">Generic,</text><line style="stroke:#181818;stroke-width:0.5;" x1="345.5" x2="460.4863" y1="318.1875" y2="318.1875"/></g><!--class Status--><g id="elem_Status"><rect codeLine="2" fill="#F1F1F1" height="113.1875" id="Status" rx="2.5" ry="2.5" style="stroke:#181818;stroke-width:0.5;" width="87.6113" x="497" y="213"/><ellipse cx="512" cy="229" fill="#EB937F" rx="11" ry="11" style="stroke:#181818;stroke-width:1;"/><path d="M516.1094,235 L508.3906,235 L508.3906,222.6094 L516.1094,222.6094 L516.1094,224.7656 L510.8438,224.7656 L510.8438,227.4375 L515.6094,227.4375 L515.6094,229.5938 L510.8438,229.5938 L510.8438,232.8438 L516.1094,232.8438 L516.1094,235 Z " fill="#000000"/><ellipse cx="531" cy="228.5" fill="#84BE84" rx="3" ry="3" style="stroke:#038048;stroke-width:1;"/><text fill="#000000" font-family="sans-serif" font-size="14" lengthAdjust="spacing" textLength="44.6113" x="537" y="233.8467">Status</text><line style="stroke:#181818;stroke-width:0.5;" x1="498" x2="583.6113" y1="245" y2="245"/><text fill="#000000" font-family="sans-serif" font-size="14" lengthAdjust="spacing" textLength="57.9961" x="503" y="261.9951">Running</text><text fill="#000000" font-family="sans-serif" font-size="14" lengthAdjust="spacing" textLength="60.8193" x="503" y="278.292">Disabled</text><text fill="#000000" font-family="sans-serif" font-size="14" lengthAdjust="spacing" textLength="41.9111" x="503" y="294.5889">Failed</text><text fill="#000000" font-family="sans-serif" font-size="14" lengthAdjust="spacing" textLength="58.2148" x="503" y="310.8857">Stopped</text><line style="stroke:#181818;stroke-width:0.5;" x1="498" x2="583.6113" y1="318.1875" y2="318.1875"/></g><!--class LogicMonitor--><g id="elem_LogicMonitor"><rect codeLine="7" fill="#F1F1F1" height="129.4844" id="LogicMonitor" rx="2.5" ry="2.5" style="stroke:#181818;stroke-width:0.5;" width="446.0342" x="180" y="7"/><ellipse cx="348.2388" cy="23" fill="#ADD1B2" rx="11" ry="11" style="stroke:#181818;stroke-width:1;"/><path d="M351.2075,28.6406 Q350.6294,28.9375 349.9888,29.0781 Q349.3481,29.2344 348.645,29.2344 Q346.145,29.2344 344.8169,27.5938 Q343.5044,25.9375 343.5044,22.8125 Q343.5044,19.6875 344.8169,18.0313 Q346.145,16.375 348.645,16.375 Q349.3481,16.375 349.9888,16.5313 Q350.645,16.6875 351.2075,16.9844 L351.2075,19.7031 Q350.5825,19.125 349.9888,18.8594 Q349.395,18.5781 348.77,18.5781 Q347.4263,18.5781 346.7388,19.6563 Q346.0513,20.7188 346.0513,22.8125 Q346.0513,24.9063 346.7388,25.9844 Q347.4263,27.0469 348.77,27.0469 Q349.395,27.0469 349.9888,26.7813 Q350.5825,26.5 351.2075,25.9219 L351.2075,28.6406 Z " fill="#000000"/><ellipse cx="373.7388" cy="22.5" fill="#84BE84" rx="3" ry="3" style="stroke:#038048;stroke-width:1;"/><text fill="#000000" font-family="sans-serif" font-size="14" lengthAdjust="spacing" textLength="90.0566" x="379.7388" y="27.8467">LogicMonitor</text><line style="stroke:#181818;stroke-width:0.5;" x1="181" x2="625.0342" y1="39" y2="39"/><line style="stroke:#181818;stroke-width:0.5;" x1="181" x2="625.0342" y1="47" y2="47"/><ellipse cx="191" cy="60.6484" fill="#84BE84" rx="3" ry="3" style="stroke:#038048;stroke-width:1;"/><text fill="#000000" font-family="sans-serif" font-size="14" lengthAdjust="spacing" textLength="420.0342" x="200" y="63.9951">transition(&amp;self, to: LogicMonitorState) -&gt; Result&lt;(), Error&gt;</text><ellipse cx="191" cy="76.9453" fill="#84BE84" rx="3" ry="3" style="stroke:#038048;stroke-width:1;"/><text fill="#000000" font-family="sans-serif" font-size="14" lengthAdjust="spacing" textLength="241.5547" x="200" y="80.292">enable(&amp;self) -&gt; Result&lt;(), Error&gt;</text><ellipse cx="191" cy="93.2422" fill="#84BE84" rx="3" ry="3" style="stroke:#038048;stroke-width:1;"/><text fill="#000000" font-family="sans-serif" font-size="14" lengthAdjust="spacing" textLength="244.1387" x="200" y="96.5889">disable(&amp;self) -&gt; Result&lt;(), Error&gt;</text><ellipse cx="191" cy="109.5391" fill="#84BE84" rx="3" ry="3" style="stroke:#038048;stroke-width:1;"/><text fill="#000000" font-family="sans-serif" font-size="14" lengthAdjust="spacing" textLength="159.8789" x="200" y="112.8857">status(&amp;self) -&gt; Status</text><ellipse cx="191" cy="125.8359" fill="#84BE84" rx="3" ry="3" style="stroke:#038048;stroke-width:1;"/><text fill="#000000" font-family="sans-serif" font-size="14" lengthAdjust="spacing" textLength="234.8281" x="200" y="129.1826">state(&amp;self) -&gt; LogicMonitorState</text></g><!--reverse link LogicMonitor to Status--><g id="link_LogicMonitor_Status"><path codeLine="17" d="M454.7108,145.9502 C472.1108,170.6502 484.94,188.88 501.76,212.77 " fill="transparent" id="LogicMonitor-backto-Status" style="stroke:#181818;stroke-width:1;"/><polygon fill="#181818" points="447.8,136.14,447.9853,143.3487,454.7108,145.9502,454.5255,138.7415,447.8,136.14" style="stroke:#181818;stroke-width:1;"/><text fill="#000000" font-family="sans-serif" font-size="13" lengthAdjust="spacing" textLength="33.5981" x="482" y="179.0669">owns</text></g><!--reverse link LogicMonitor to LogicMonitorState--><g id="link_LogicMonitor_LogicMonitorState"><path codeLine="18" d="M314.0883,143.6347 C271.7483,177.4947 230.95,210.14 197.04,237.27 " fill="transparent" id="LogicMonitor-backto-LogicMonitorState" style="stroke:#181818;stroke-width:1;"/><polygon fill="#181818" points="323.46,136.14,316.2759,136.7635,314.0883,143.6347,321.2724,143.0113,323.46,136.14" style="stroke:#181818;stroke-width:1;"/><text fill="#000000" font-family="sans-serif" font-size="13" lengthAdjust="spacing" textLength="33.5981" x="282" y="179.0669">owns</text><text fill="#000000" font-family="sans-serif" font-size="13" lengthAdjust="spacing" textLength="23.0356" x="179.4216" y="226.4989">1..*</text></g><!--link LogicMonitor to Error--><g id="link_LogicMonitor_Error"><path codeLine="19" d="M403,136.14 C403,160.84 403,182.88 403,206.77 " fill="transparent" id="LogicMonitor-to-Error" style="stroke:#181818;stroke-width:1;stroke-dasharray:7.0,7.0;"/><polygon fill="#181818" points="403,212.77,407,203.77,403,207.77,399,203.77,403,212.77" style="stroke:#181818;stroke-width:1;"/></g><!--SRC=[ZL2x3i8m3Dpp5Iu3AhIDn8fG5yG62tm0Ags1I6c2uaGCY7-d9JnQ1H1PhDoTxVD5GfNILGYotf8jBFAJgoMBdl2ntg8nseHmgtRaSHOrFsF9xM2f3w9SQIMiDdDP4B6aR4kFW0k3vYNM58g45Lh5GqAvJy7gQK-vQJsD8CjXZUIadSMZ51QjezoFG5Ni9FhsNxfAq7z2VrT7jxa3Rx8x8x3AhYn2LJL9V0jbZPBriXXdsMC7J46V5ONqOCBvU11k-zZ0UUuFUZcv0G00]--></g></svg>