<svg xmlns="http://www.w3.org/2000/svg" xmlns:xlink="http://www.w3.org/1999/xlink" contentStyleType="text/css" data-diagram-type="CLASS" height="524px" preserveAspectRatio="none" style="width:1154px;height:524px;background:#FFFFFF;" version="1.1" viewBox="0 0 1154 524" width="1154px" zoomAndPan="magnify"><defs/><g><!--class Status--><g id="elem_Status"><rect codeLine="2" fill="#F1F1F1" height="113.1875" id="Status" rx="2.5" ry="2.5" style="stroke:#181818;stroke-width:0.5;" width="87.6113" x="665.5" y="404"/><ellipse cx="680.5" cy="420" fill="#EB937F" rx="11" ry="11" style="stroke:#181818;stroke-width:1;"/><path d="M684.6094,426 L676.8906,426 L676.8906,413.6094 L684.6094,413.6094 L684.6094,415.7656 L679.3438,415.7656 L679.3438,418.4375 L684.1094,418.4375 L684.1094,420.5938 L679.3438,420.5938 L679.3438,423.8438 L684.6094,423.8438 L684.6094,426 Z " fill="#000000"/><ellipse cx="699.5" cy="419.5" fill="#84BE84" rx="3" ry="3" style="stroke:#038048;stroke-width:1;"/><text fill="#000000" font-family="sans-serif" font-size="14" lengthAdjust="spacing" textLength="44.6113" x="705.5" y="424.8467">Status</text><line style="stroke:#181818;stroke-width:0.5;" x1="666.5" x2="752.1113" y1="436" y2="436"/><text fill="#000000" font-family="sans-serif" font-size="14" lengthAdjust="spacing" textLength="57.9961" x="671.5" y="452.9951">Running</text><text fill="#000000" font-family="sans-serif" font-size="14" lengthAdjust="spacing" textLength="60.8193" x="671.5" y="469.292">Disabled</text><text fill="#000000" font-family="sans-serif" font-size="14" lengthAdjust="spacing" textLength="41.9111" x="671.5" y="485.5889">Failed</text><text fill="#000000" font-family="sans-serif" font-size="14" lengthAdjust="spacing" textLength="58.2148" x="671.5" y="501.8857">Stopped</text><line style="stroke:#181818;stroke-width:0.5;" x1="666.5" x2="752.1113" y1="509.1875" y2="509.1875"/></g><!--class Error--><g id="elem_Error"><rect codeLine="9" fill="#F1F1F1" height="113.1875" id="Error" rx="2.5" ry="2.5" style="stroke:#181818;stroke-width:0.5;" width="116.9863" x="7" y="404"/><ellipse cx="39.6884" cy="420" fill="#EB937F" rx="11" ry="11" style="stroke:#181818;stroke-width:1;"/><path d="M43.7978,426 L36.0791,426 L36.0791,413.6094 L43.7978,413.6094 L43.7978,415.7656 L38.5322,415.7656 L38.5322,418.4375 L43.2978,418.4375 L43.2978,420.5938 L38.5322,420.5938 L38.5322,423.8438 L43.7978,423.8438 L43.7978,426 Z " fill="#000000"/><ellipse cx="62.6192" cy="419.5" fill="#84BE84" rx="3" ry="3" style="stroke:#038048;stroke-width:1;"/><text fill="#000000" font-family="sans-serif" font-size="14" lengthAdjust="spacing" textLength="34.6787" x="68.6192" y="424.8467">Error</text><line style="stroke:#181818;stroke-width:0.5;" x1="8" x2="122.9863" y1="436" y2="436"/><text fill="#000000" font-family="sans-serif" font-size="14" lengthAdjust="spacing" textLength="104.9863" x="13" y="452.9951">BadParameter,</text><text fill="#000000" font-family="sans-serif" font-size="14" lengthAdjust="spacing" textLength="83.8496" x="13" y="469.292">NotAllowed,</text><text fill="#000000" font-family="sans-serif" font-size="14" lengthAdjust="spacing" textLength="102.7168" x="13" y="485.5889">OutOfMemory,</text><text fill="#000000" font-family="sans-serif" font-size="14" lengthAdjust="spacing" textLength="58.7412" x="13" y="501.8857">Generic,</text><line style="stroke:#181818;stroke-width:0.5;" x1="8" x2="122.9863" y1="509.1875" y2="509.1875"/></g><!--class Tag--><g id="elem_Tag"><rect codeLine="16" fill="#F1F1F1" height="64.2969" id="Tag" rx="2.5" ry="2.5" style="stroke:#181818;stroke-width:0.5;" width="302.4453" x="159.5" y="428.5"/><ellipse cx="287.9639" cy="444.5" fill="#ADD1B2" rx="11" ry="11" style="stroke:#181818;stroke-width:1;"/><path d="M290.9326,450.1406 Q290.3545,450.4375 289.7139,450.5781 Q289.0732,450.7344 288.3701,450.7344 Q285.8701,450.7344 284.542,449.0938 Q283.2295,447.4375 283.2295,444.3125 Q283.2295,441.1875 284.542,439.5313 Q285.8701,437.875 288.3701,437.875 Q289.0732,437.875 289.7139,438.0313 Q290.3701,438.1875 290.9326,438.4844 L290.9326,441.2031 Q290.3076,440.625 289.7139,440.3594 Q289.1201,440.0781 288.4951,440.0781 Q287.1514,440.0781 286.4639,441.1563 Q285.7764,442.2188 285.7764,444.3125 Q285.7764,446.4063 286.4639,447.4844 Q287.1514,448.5469 288.4951,448.5469 Q289.1201,448.5469 289.7139,448.2813 Q290.3076,448 290.9326,447.4219 L290.9326,450.1406 Z " fill="#000000"/><ellipse cx="313.4639" cy="444" fill="#84BE84" rx="3" ry="3" style="stroke:#038048;stroke-width:1;"/><text fill="#000000" font-family="sans-serif" font-size="14" lengthAdjust="spacing" textLength="26.0176" x="319.4639" y="449.3467">Tag</text><line style="stroke:#181818;stroke-width:0.5;" x1="160.5" x2="460.9453" y1="460.5" y2="460.5"/><line style="stroke:#181818;stroke-width:0.5;" x1="160.5" x2="460.9453" y1="468.5" y2="468.5"/><ellipse cx="170.5" cy="482.1484" fill="#84BE84" rx="3" ry="3" style="stroke:#038048;stroke-width:1;"/><text fill="#000000" font-family="sans-serif" font-size="14" lengthAdjust="spacing" textLength="276.4453" x="179.5" y="485.4951">new&lt;N: AsRef&lt;str&gt;&gt;(name: N) -&gt; Self</text></g><!--class DeadlineMonitor--><g id="elem_DeadlineMonitor"><rect codeLine="20" fill="#F1F1F1" height="48" id="DeadlineMonitor" rx="2.5" ry="2.5" style="stroke:#181818;stroke-width:0.5;" width="158.3428" x="788.5" y="436.5"/><ellipse cx="803.5" cy="452.5" fill="#ADD1B2" rx="11" ry="11" style="stroke:#181818;stroke-width:1;"/><path d="M806.4688,458.1406 Q805.8906,458.4375 805.25,458.5781 Q804.6094,458.7344 803.9063,458.7344 Q801.4063,458.7344 800.0781,457.0938 Q798.7656,455.4375 798.7656,452.3125 Q798.7656,449.1875 800.0781,447.5313 Q801.4063,445.875 803.9063,445.875 Q804.6094,445.875 805.25,446.0313 Q805.9063,446.1875 806.4688,446.4844 L806.4688,449.2031 Q805.8438,448.625 805.25,448.3594 Q804.6563,448.0781 804.0313,448.0781 Q802.6875,448.0781 802,449.1563 Q801.3125,450.2188 801.3125,452.3125 Q801.3125,454.4063 802,455.4844 Q802.6875,456.5469 804.0313,456.5469 Q804.6563,456.5469 805.25,456.2813 Q805.8438,456 806.4688,455.4219 L806.4688,458.1406 Z " fill="#000000"/><ellipse cx="822.5" cy="452" fill="#84BE84" rx="3" ry="3" style="stroke:#038048;stroke-width:1;"/><text fill="#000000" font-family="sans-serif" font-size="14" lengthAdjust="spacing" textLength="115.3428" x="828.5" y="457.3467">DeadlineMonitor</text><line style="stroke:#181818;stroke-width:0.5;" x1="789.5" x2="945.8428" y1="468.5" y2="468.5"/><line style="stroke:#181818;stroke-width:0.5;" x1="789.5" x2="945.8428" y1="476.5" y2="476.5"/></g><!--class LogicMonitor--><g id="elem_LogicMonitor"><rect codeLine="23" fill="#F1F1F1" height="48" id="LogicMonitor" rx="2.5" ry="2.5" style="stroke:#181818;stroke-width:0.5;" width="133.0566" x="497" y="436.5"/><ellipse cx="512" cy="452.5" fill="#ADD1B2" rx="11" ry="11" style="stroke:#181818;stroke-width:1;"/><path d="M514.9688,458.1406 Q514.3906,458.4375 513.75,458.5781 Q513.1094,458.7344 512.4063,458.7344 Q509.9063,458.7344 508.5781,457.0938 Q507.2656,455.4375 507.2656,452.3125 Q507.2656,449.1875 508.5781,447.5313 Q509.9063,445.875 512.4063,445.875 Q513.1094,445.875 513.75,446.0313 Q514.4063,446.1875 514.9688,446.4844 L514.9688,449.2031 Q514.3438,448.625 513.75,448.3594 Q513.1563,448.0781 512.5313,448.0781 Q511.1875,448.0781 510.5,449.1563 Q509.8125,450.2188 509.8125,452.3125 Q509.8125,454.4063 510.5,455.4844 Q511.1875,456.5469 512.5313,456.5469 Q513.1563,456.5469 513.75,456.2813 Q514.3438,456 514.9688,455.4219 L514.9688,458.1406 Z " fill="#000000"/><ellipse cx="531" cy="452" fill="#84BE84" rx="3" ry="3" style="stroke:#038048;stroke-width:1;"/><text fill="#000000" font-family="sans-serif" font-size="14" lengthAdjust="spacing" textLength="90.0566" x="537" y="457.3467">LogicMonitor</text><line style="stroke:#181818;stroke-width:0.5;" x1="498" x2="629.0566" y1="468.5" y2="468.5"/><line style="stroke:#181818;stroke-width:0.5;" x1="498" x2="629.0566" y1="476.5" y2="476.5"/></g><!--class HeartbeatMonitor--><g id="elem_HeartbeatMonitor"><rect codeLine="26" fill="#F1F1F1" height="48" id="HeartbeatMonitor" rx="2.5" ry="2.5" style="stroke:#181818;stroke-width:0.5;" width="166.751" x="981" y="436.5"/><ellipse cx="996" cy="452.5" fill="#ADD1B2" rx="11" ry="11" style="stroke:#181818;stroke-width:1;"/><path d="M998.9688,458.1406 Q998.3906,458.4375 997.75,458.5781 Q997.1094,458.7344 996.4063,458.7344 Q993.9063,458.7344 992.5781,457.0938 Q991.2656,455.4375 991.2656,452.3125 Q991.2656,449.1875 992.5781,447.5313 Q993.9063,445.875 996.4063,445.875 Q997.1094,445.875 997.75,446.0313 Q998.4063,446.1875 998.9688,446.4844 L998.9688,449.2031 Q998.3438,448.625 997.75,448.3594 Q997.1563,448.0781 996.5313,448.0781 Q995.1875,448.0781 994.5,449.1563 Q993.8125,450.2188 993.8125,452.3125 Q993.8125,454.4063 994.5,455.4844 Q995.1875,456.5469 996.5313,456.5469 Q997.1563,456.5469 997.75,456.2813 Q998.3438,456 998.9688,455.4219 L998.9688,458.1406 Z " fill="#000000"/><ellipse cx="1015" cy="452" fill="#84BE84" rx="3" ry="3" style="stroke:#038048;stroke-width:1;"/><text fill="#000000" font-family="sans-serif" font-size="14" lengthAdjust="spacing" textLength="123.751" x="1021" y="457.3467">HeartbeatMonitor</text><line style="stroke:#181818;stroke-width:0.5;" x1="982" x2="1146.751" y1="468.5" y2="468.5"/><line style="stroke:#181818;stroke-width:0.5;" x1="982" x2="1146.751" y1="476.5" y2="476.5"/></g><!--class HealthMonitorBuilder--><g id="elem_HealthMonitorBuilder"><rect codeLine="29" fill="#F1F1F1" height="145.7813" id="HealthMonitorBuilder" rx="2.5" ry="2.5" style="stroke:#181818;stroke-width:0.5;" width="628.0273" x="81.5" y="7"/><ellipse cx="311.4126" cy="23" fill="#ADD1B2" rx="11" ry="11" style="stroke:#181818;stroke-width:1;"/><path d="M314.3813,28.6406 Q313.8032,28.9375 313.1626,29.0781 Q312.522,29.2344 311.8188,29.2344 Q309.3188,29.2344 307.9907,27.5938 Q306.6782,25.9375 306.6782,22.8125 Q306.6782,19.6875 307.9907,18.0313 Q309.3188,16.375 311.8188,16.375 Q312.522,16.375 313.1626,16.5313 Q313.8188,16.6875 314.3813,16.9844 L314.3813,19.7031 Q313.7563,19.125 313.1626,18.8594 Q312.5688,18.5781 311.9438,18.5781 Q310.6001,18.5781 309.9126,19.6563 Q309.2251,20.7188 309.2251,22.8125 Q309.2251,24.9063 309.9126,25.9844 Q310.6001,27.0469 311.9438,27.0469 Q312.5688,27.0469 313.1626,26.7813 Q313.7563,26.5 314.3813,25.9219 L314.3813,28.6406 Z " fill="#000000"/><ellipse cx="336.9126" cy="22.5" fill="#84BE84" rx="3" ry="3" style="stroke:#038048;stroke-width:1;"/><text fill="#000000" font-family="sans-serif" font-size="14" lengthAdjust="spacing" textLength="148.7021" x="342.9126" y="27.8467">HealthMonitorBuilder</text><line style="stroke:#181818;stroke-width:0.5;" x1="82.5" x2="708.5273" y1="39" y2="39"/><line style="stroke:#181818;stroke-width:0.5;" x1="82.5" x2="708.5273" y1="47" y2="47"/><ellipse cx="92.5" cy="60.6484" fill="#84BE84" rx="3" ry="3" style="stroke:#038048;stroke-width:1;"/><text fill="#000000" font-family="sans-serif" font-size="14" lengthAdjust="spacing" textLength="91.8613" x="101.5" y="63.9951">new() -&gt; Self</text><ellipse cx="92.5" cy="76.9453" fill="#84BE84" rx="3" ry="3" style="stroke:#038048;stroke-width:1;"/><text fill="#000000" font-family="sans-serif" font-size="14" lengthAdjust="spacing" textLength="227.1172" x="101.5" y="80.292">from_config(config: &amp;str) -&gt; Self</text><ellipse cx="92.5" cy="93.2422" fill="#84BE84" rx="3" ry="3" style="stroke:#038048;stroke-width:1;"/><text fill="#000000" font-family="sans-serif" font-size="14" lengthAdjust="spacing" textLength="602.0273" x="101.5" y="96.5889">add_heartbeat_monitor(&amp;mut self, tag: Tag, monitor: HeartbeatMonitor) -&gt; &amp;mut Self</text><ellipse cx="92.5" cy="109.5391" fill="#84BE84" rx="3" ry="3" style="stroke:#038048;stroke-width:1;"/><text fill="#000000" font-family="sans-serif" font-size="14" lengthAdjust="spacing" textLength="584.9717" x="101.5" y="112.8857">add_deadline_monitor(&amp;mut self, tag: Tag, monitor: DeadlineMonitor) -&gt; &amp;mut Self</text><ellipse cx="92.5" cy="125.8359" fill="#84BE84" rx="3" ry="3" style="stroke:#038048;stroke-width:1;"/><text fill="#000000" font-family="sans-serif" font-size="14" lengthAdjust="spacing" textLength="532.3828" x="101.5" y="129.1826">add_logic_monitor(&amp;mut self, tag: Tag, monitor: LogicMonitor) -&gt; &amp;mut Self</text><ellipse cx="92.5" cy="142.1328" fill="#84BE84" rx="3" ry="3" style="stroke:#038048;stroke-width:1;"/><text fill="#000000" font-family="sans-serif" font-size="14" lengthAdjust="spacing" textLength="305.874" x="101.5" y="145.4795">build(self) -&gt; Result&lt;HealthMonitor, Error&gt;</text></g><!--class HealthMonitor--><g id="elem_HealthMonitor"><rect codeLine="38" fill="#F1F1F1" height="113.1875" id="HealthMonitor" rx="2.5" ry="2.5" style="stroke:#181818;stroke-width:0.5;" width="593.0615" x="347" y="230"/><ellipse cx="584.186" cy="246" fill="#ADD1B2" rx="11" ry="11" style="stroke:#181818;stroke-width:1;"/><path d="M587.1548,251.6406 Q586.5767,251.9375 585.936,252.0781 Q585.2954,252.2344 584.5923,252.2344 Q582.0923,252.2344 580.7642,250.5938 Q579.4517,248.9375 579.4517,245.8125 Q579.4517,242.6875 580.7642,241.0313 Q582.0923,239.375 584.5923,239.375 Q585.2954,239.375 585.936,239.5313 Q586.5923,239.6875 587.1548,239.9844 L587.1548,242.7031 Q586.5298,242.125 585.936,241.8594 Q585.3423,241.5781 584.7173,241.5781 Q583.3735,241.5781 582.686,242.6563 Q581.9985,243.7188 581.9985,245.8125 Q581.9985,247.9063 582.686,248.9844 Q583.3735,250.0469 584.7173,250.0469 Q585.3423,250.0469 585.936,249.7813 Q586.5298,249.5 587.1548,248.9219 L587.1548,251.6406 Z " fill="#000000"/><ellipse cx="609.686" cy="245.5" fill="#84BE84" rx="3" ry="3" style="stroke:#038048;stroke-width:1;"/><text fill="#000000" font-family="sans-serif" font-size="14" lengthAdjust="spacing" textLength="99.1895" x="615.686" y="250.8467">HealthMonitor</text><line style="stroke:#181818;stroke-width:0.5;" x1="348" x2="939.0615" y1="262" y2="262"/><line style="stroke:#181818;stroke-width:0.5;" x1="348" x2="939.0615" y1="270" y2="270"/><ellipse cx="358" cy="283.6484" fill="#84BE84" rx="3" ry="3" style="stroke:#038048;stroke-width:1;"/><text fill="#000000" font-family="sans-serif" font-size="14" lengthAdjust="spacing" textLength="567.0615" x="367" y="286.9951">get_heartbeat_monitor(&amp;mut self, tag: Tag) -&gt; Result&lt;HeartbeatMonitor, Error&gt;</text><ellipse cx="358" cy="299.9453" fill="#84BE84" rx="3" ry="3" style="stroke:#038048;stroke-width:1;"/><text fill="#000000" font-family="sans-serif" font-size="14" lengthAdjust="spacing" textLength="517.5557" x="367" y="303.292">get_deadline_monitor(&amp;self, tag: Tag) -&gt; Result&lt;DeadlineMonitor, Error&gt;</text><ellipse cx="358" cy="316.2422" fill="#84BE84" rx="3" ry="3" style="stroke:#038048;stroke-width:1;"/><text fill="#000000" font-family="sans-serif" font-size="14" lengthAdjust="spacing" textLength="464.9668" x="367" y="319.5889">get_logic_monitor(&amp;self, tag: Tag) -&gt; Result&lt;LogicMonitor, Error&gt;</text><ellipse cx="358" cy="332.5391" fill="#84BE84" rx="3" ry="3" style="stroke:#038048;stroke-width:1;"/><text fill="#000000" font-family="sans-serif" font-size="14" lengthAdjust="spacing" textLength="159.8789" x="367" y="335.8857">status(&amp;self) -&gt; Status</text></g><!--link HealthMonitorBuilder to Error--><g id="link_HealthMonitorBuilder_Error"><path codeLine="45" d="M286.38,153.22 C274.78,162.67 263.56,172.67 253.5,183 C187.26,250.97 131.9122,339.6822 98.4122,398.6922 " fill="transparent" id="HealthMonitorBuilder-to-Error" style="stroke:#181818;stroke-width:1;stroke-dasharray:7.0,7.0;"/><polygon fill="#181818" points="95.45,403.91,103.3718,398.058,97.9185,399.5618,96.4147,394.1085,95.45,403.91" style="stroke:#181818;stroke-width:1;"/></g><!--link HealthMonitorBuilder to Tag--><g id="link_HealthMonitorBuilder_Tag"><path codeLine="46" d="M287.56,153.13 C279.61,162.28 272.68,172.25 267.5,183 C230.65,259.48 247.9,291.4 267.5,374 C272.03,393.08 278.5514,407.5158 287.4614,423.1658 " fill="transparent" id="HealthMonitorBuilder-to-Tag" style="stroke:#181818;stroke-width:1;stroke-dasharray:7.0,7.0;"/><polygon fill="#181818" points="290.43,428.38,289.4532,418.5797,287.9562,424.0349,282.501,422.5378,290.43,428.38" style="stroke:#181818;stroke-width:1;"/></g><!--link HealthMonitorBuilder to HealthMonitor--><g id="link_HealthMonitorBuilder_HealthMonitor"><path codeLine="47" d="M482.94,153.1 C513.48,178.28 542.6407,202.3329 571.3107,225.9729 " fill="transparent" id="HealthMonitorBuilder-to-HealthMonitor" style="stroke:#181818;stroke-width:1;stroke-dasharray:7.0,7.0;"/><polygon fill="#181818" points="575.94,229.79,571.5408,220.9782,572.0823,226.6091,566.4514,227.1506,575.94,229.79" style="stroke:#181818;stroke-width:1;"/><text fill="#000000" font-family="sans-serif" font-size="13" lengthAdjust="spacing" textLength="81.6943" x="535.5" y="196.0669">&#171;consumes&#187;</text></g><!--reverse link HealthMonitorBuilder to DeadlineMonitor--><g id="link_HealthMonitorBuilder_DeadlineMonitor"><path codeLine="48" d="M721.3745,132.3064 C831.4945,156.3164 924.38,186.95 957.5,230 C988.13,269.8 973.72,295.47 957.5,343 C944.79,380.25 914.8,414.84 892.92,436.49 " fill="transparent" id="HealthMonitorBuilder-backto-DeadlineMonitor" style="stroke:#181818;stroke-width:1;"/><polygon fill="transparent" points="709.65,129.75,714.6602,134.9364,721.3745,132.3064,716.3644,127.12,709.65,129.75" style="stroke:#181818;stroke-width:1;"/><text fill="#000000" font-family="sans-serif" font-size="13" lengthAdjust="spacing" textLength="23.0356" x="873.4476" y="425.4995">0..*</text></g><!--reverse link HealthMonitorBuilder to LogicMonitor--><g id="link_HealthMonitorBuilder_LogicMonitor"><path codeLine="49" d="M342.587,163.6136 C312.477,219.4836 291.33,286.14 329.5,343 C369.38,402.42 415.15,370.73 478.5,404 C496.6,413.5 515.75,425.79 531.28,436.39 " fill="transparent" id="HealthMonitorBuilder-backto-LogicMonitor" style="stroke:#181818;stroke-width:1;"/><polygon fill="transparent" points="348.28,153.05,341.9123,156.4341,342.587,163.6136,348.9547,160.2295,348.28,153.05" style="stroke:#181818;stroke-width:1;"/><text fill="#000000" font-family="sans-serif" font-size="13" lengthAdjust="spacing" textLength="23.0356" x="497.0741" y="425.3738">0..*</text></g><!--reverse link HealthMonitorBuilder to HeartbeatMonitor--><g id="link_HealthMonitorBuilder_HeartbeatMonitor"><path codeLine="50" d="M721.2901,119.1274 C795.0801,134.1074 860.28,152.94 928.5,183 C960.47,197.09 971.23,201.55 991.5,230 C1038.19,295.56 1055.94,392.29 1061.87,436.24 " fill="transparent" id="HealthMonitorBuilder-backto-HeartbeatMonitor" style="stroke:#181818;stroke-width:1;"/><polygon fill="transparent" points="709.53,116.74,714.6143,121.8537,721.2901,119.1274,716.2059,114.0137,709.53,116.74" style="stroke:#181818;stroke-width:1;"/><text fill="#000000" font-family="sans-serif" font-size="13" lengthAdjust="spacing" textLength="23.0356" x="1035.4605" y="425.5816">0..*</text></g><!--reverse link HealthMonitor to Status--><g id="link_HealthMonitor_Status"><path codeLine="51" d="M669.2262,354.5446 C676.6762,373.9746 680.74,384.54 688.18,403.94 " fill="transparent" id="HealthMonitor-backto-Status" style="stroke:#181818;stroke-width:1;"/><polygon fill="#181818" points="664.93,343.34,663.3432,350.3744,669.2262,354.5446,670.8129,347.5102,664.93,343.34" style="stroke:#181818;stroke-width:1;"/></g><!--link HealthMonitor to Error--><g id="link_HealthMonitor_Error"><path codeLine="52" d="M346.92,335.52 C277.71,352.36 205.56,374.67 141.5,404 C135.71,406.65 135.0509,406.6963 129.4009,410.0963 " fill="transparent" id="HealthMonitor-to-Error" style="stroke:#181818;stroke-width:1;stroke-dasharray:7.0,7.0;"/><polygon fill="#181818" points="124.26,413.19,134.0338,411.9768,128.5441,410.6119,129.909,405.1222,124.26,413.19" style="stroke:#181818;stroke-width:1;"/></g><!--link HealthMonitor to Tag--><g id="link_HealthMonitor_Tag"><path codeLine="53" d="M535.84,343.11 C481.12,371.37 421.9911,401.9168 376.0611,425.6368 " fill="transparent" id="HealthMonitor-to-Tag" style="stroke:#181818;stroke-width:1;stroke-dasharray:7.0,7.0;"/><polygon fill="#181818" points="370.73,428.39,380.562,427.8143,375.1725,426.0957,376.8911,420.7062,370.73,428.39" style="stroke:#181818;stroke-width:1;"/></g><!--reverse link HealthMonitor to DeadlineMonitor--><g id="link_HealthMonitor_DeadlineMonitor"><path codeLine="54" d="M725.4384,350.4176 C766.5984,382.0176 806.42,412.6 837.37,436.37 " fill="transparent" id="HealthMonitor-backto-DeadlineMonitor" style="stroke:#181818;stroke-width:1;"/><polygon fill="transparent" points="715.92,343.11,718.2433,349.9366,725.4384,350.4176,723.115,343.591,715.92,343.11" style="stroke:#181818;stroke-width:1;"/><text fill="#000000" font-family="sans-serif" font-size="13" lengthAdjust="spacing" textLength="23.0356" x="803.663" y="425.3487">0..*</text></g><!--reverse link HealthMonitor to LogicMonitor--><g id="link_HealthMonitor_LogicMonitor"><path codeLine="55" d="M612.4701,354.2211 C597.7801,385.8111 585.25,412.73 574.23,436.43 " fill="transparent" id="HealthMonitor-backto-LogicMonitor" style="stroke:#181818;stroke-width:1;"/><polygon fill="transparent" points="617.53,343.34,611.373,347.0939,612.4701,354.2211,618.6271,350.4672,617.53,343.34" style="stroke:#181818;stroke-width:1;"/><text fill="#000000" font-family="sans-serif" font-size="13" lengthAdjust="spacing" textLength="23.0356" x="551.03" y="425.4241">0..*</text></g><!--reverse link HealthMonitor to HeartbeatMonitor--><g id="link_HealthMonitor_HeartbeatMonitor"><path codeLine="56" d="M823.4116,347.0921 C873.1416,364.9821 915.94,381.88 964.5,404 C985.46,413.55 1007.96,425.84 1026.3,436.43 " fill="transparent" id="HealthMonitor-backto-HeartbeatMonitor" style="stroke:#181818;stroke-width:1;"/><polygon fill="transparent" points="812.12,343.03,816.4118,348.8249,823.4116,347.0921,819.1198,341.2972,812.12,343.03" style="stroke:#181818;stroke-width:1;"/><text fill="#000000" font-family="sans-serif" font-size="13" lengthAdjust="spacing" textLength="23.0356" x="990.6008" y="425.4241">0..*</text></g><!--SRC=[ZPDTRu8m58Rl_HNDBWnJ9BicX4JZFYwcBhfxK-M0JKfhsXApBFllAoqoG3hXXjBtdFUSFZrCWHKvsYci2ec-HqW_su8nmZApNXA93nGIy_62oNMvK_nyrkkVqMXg79w5uA8oME3a0mkSWmBXcvqrLtDA-GKI-xqfr2PTGSx5bzru1GQ277rZUAHOIlI9iyflok0IhKCqbrj88wb477jCsuTe_OXcCTe1JHk9Iy099GnMd15bclhJtdb6Zdt26s2X3e2LGwJgL2cBWj04HACth-u2sRrKy7n_v2mbcMTV8HhhlhjnE4dsfslXVMxzlN5UA2Hrb8yKrfaQX8ygCRnfr7YQ58EXzaqg2WDjEz1ShhJaDz2ooRhFxr22zCfqesv15bH5BTQ-dQlOTHVNIyX03GFPgTGYMHUhBMyPkjqw06_DEkZSJarkRHjfVbERQsV9R9HqUaSq26ARxvPrRRVOPXsYADBJB8iSP1ptP_7P33qy1S7aeJjHT-ERnxuRtBsxTWAQwCYAJLjm4Eb7CVWqmuxnN_-_]--></g></svg>