<svg xmlns="http://www.w3.org/2000/svg" xmlns:xlink="http://www.w3.org/1999/xlink" contentStyleType="text/css" data-diagram-type="CLASS" height="589px" preserveAspectRatio="none" style="width:1201px;height:589px;background:#FFFFFF;" version="1.1" viewBox="0 0 1201 589" width="1201px" zoomAndPan="magnify"><defs/><g><!--class Status--><g id="elem_Status"><rect codeLine="2" fill="#F1F1F1" height="113.1875" id="Status" rx="2.5" ry="2.5" style="stroke:#181818;stroke-width:0.5;" width="87.6113" x="689.5" y="469"/><ellipse cx="704.5" cy="485" fill="#EB937F" rx="11" ry="11" style="stroke:#181818;stroke-width:1;"/><path d="M708.6094,491 L700.8906,491 L700.8906,478.6094 L708.6094,478.6094 L708.6094,480.7656 L703.3438,480.7656 L703.3438,483.4375 L708.1094,483.4375 L708.1094,485.5938 L703.3438,485.5938 L703.3438,488.8438 L708.6094,488.8438 L708.6094,491 Z " fill="#000000"/><ellipse cx="723.5" cy="484.5" fill="#84BE84" rx="3" ry="3" style="stroke:#038048;stroke-width:1;"/><text fill="#000000" font-family="sans-serif" font-size="14" lengthAdjust="spacing" textLength="44.6113" x="729.5" y="489.8467">Status</text><line style="stroke:#181818;stroke-width:0.5;" x1="690.5" x2="776.1113" y1="501" y2="501"/><text fill="#000000" font-family="sans-serif" font-size="14" lengthAdjust="spacing" textLength="57.9961" x="695.5" y="517.9951">Running</text><text fill="#000000" font-family="sans-serif" font-size="14" lengthAdjust="spacing" textLength="60.8193" x="695.5" y="534.292">Disabled</text><text fill="#000000" font-family="sans-serif" font-size="14" lengthAdjust="spacing" textLength="41.9111" x="695.5" y="550.5889">Failed</text><text fill="#000000" font-family="sans-serif" font-size="14" lengthAdjust="spacing" textLength="58.2148" x="695.5" y="566.8857">Stopped</text><line style="stroke:#181818;stroke-width:0.5;" x1="690.5" x2="776.1113" y1="574.1875" y2="574.1875"/></g><!--class Error--><g id="elem_Error"><rect codeLine="9" fill="#F1F1F1" height="113.1875" id="Error" rx="2.5" ry="2.5" style="stroke:#181818;stroke-width:0.5;" width="116.9863" x="7" y="469"/><ellipse cx="39.6884" cy="485" fill="#EB937F" rx="11" ry="11" style="stroke:#181818;stroke-width:1;"/><path d="M43.7978,491 L36.0791,491 L36.0791,478.6094 L43.7978,478.6094 L43.7978,480.7656 L38.5322,480.7656 L38.5322,483.4375 L43.2978,483.4375 L43.2978,485.5938 L38.5322,485.5938 L38.5322,488.8438 L43.7978,488.8438 L43.7978,491 Z " fill="#000000"/><ellipse cx="62.6192" cy="484.5" fill="#84BE84" rx="3" ry="3" style="stroke:#038048;stroke-width:1;"/><text fill="#000000" font-family="sans-serif" font-size="14" lengthAdjust="spacing" textLength="34.6787" x="68.6192" y="489.8467">Error</text><line style="stroke:#181818;stroke-width:0.5;" x1="8" x2="122.9863" y1="501" y2="501"/><text fill="#000000" font-family="sans-serif" font-size="14" lengthAdjust="spacing" textLength="104.9863" x="13" y="517.9951">BadParameter,</text><text fill="#000000" font-family="sans-serif" font-size="14" lengthAdjust="spacing" textLength="83.8496" x="13" y="534.292">NotAllowed,</text><text fill="#000000" font-family="sans-serif" font-size="14" lengthAdjust="spacing" textLength="102.7168" x="13" y="550.5889">OutOfMemory,</text><text fill="#000000" font-family="sans-serif" font-size="14" lengthAdjust="spacing" textLength="58.7412" x="13" y="566.8857">Generic,</text><line style="stroke:#181818;stroke-width:0.5;" x1="8" x2="122.9863" y1="574.1875" y2="574.1875"/></g><!--class Tag--><g id="elem_Tag"><rect codeLine="16" fill="#F1F1F1" height="64.2969" id="Tag" rx="2.5" ry="2.5" style="stroke:#181818;stroke-width:0.5;" width="302.4453" x="159.5" y="493.5"/><ellipse cx="287.9639" cy="509.5" fill="#ADD1B2" rx="11" ry="11" style="stroke:#181818;stroke-width:1;"/><path d="M290.9326,515.1406 Q290.3545,515.4375 289.7139,515.5781 Q289.0732,515.7344 288.3701,515.7344 Q285.8701,515.7344 284.542,514.0938 Q283.2295,512.4375 283.2295,509.3125 Q283.2295,506.1875 284.542,504.5313 Q285.8701,502.875 288.3701,502.875 Q289.0732,502.875 289.7139,503.0313 Q290.3701,503.1875 290.9326,503.4844 L290.9326,506.2031 Q290.3076,505.625 289.7139,505.3594 Q289.1201,505.0781 288.4951,505.0781 Q287.1514,505.0781 286.4639,506.1563 Q285.7764,507.2188 285.7764,509.3125 Q285.7764,511.4063 286.4639,512.4844 Q287.1514,513.5469 288.4951,513.5469 Q289.1201,513.5469 289.7139,513.2813 Q290.3076,513 290.9326,512.4219 L290.9326,515.1406 Z " fill="#000000"/><ellipse cx="313.4639" cy="509" fill="#84BE84" rx="3" ry="3" style="stroke:#038048;stroke-width:1;"/><text fill="#000000" font-family="sans-serif" font-size="14" lengthAdjust="spacing" textLength="26.0176" x="319.4639" y="514.3467">Tag</text><line style="stroke:#181818;stroke-width:0.5;" x1="160.5" x2="460.9453" y1="525.5" y2="525.5"/><line style="stroke:#181818;stroke-width:0.5;" x1="160.5" x2="460.9453" y1="533.5" y2="533.5"/><ellipse cx="170.5" cy="547.1484" fill="#84BE84" rx="3" ry="3" style="stroke:#038048;stroke-width:1;"/><text fill="#000000" font-family="sans-serif" font-size="14" lengthAdjust="spacing" textLength="276.4453" x="179.5" y="550.4951">new&lt;N: AsRef&lt;str&gt;&gt;(name: N) -&gt; Self</text></g><!--class DeadlineMonitor--><g id="elem_DeadlineMonitor"><rect codeLine="20" fill="#F1F1F1" height="48" id="DeadlineMonitor" rx="2.5" ry="2.5" style="stroke:#181818;stroke-width:0.5;" width="158.3428" x="496.5" y="501.5"/><ellipse cx="511.5" cy="517.5" fill="#ADD1B2" rx="11" ry="11" style="stroke:#181818;stroke-width:1;"/><path d="M514.4688,523.1406 Q513.8906,523.4375 513.25,523.5781 Q512.6094,523.7344 511.9063,523.7344 Q509.4063,523.7344 508.0781,522.0938 Q506.7656,520.4375 506.7656,517.3125 Q506.7656,514.1875 508.0781,512.5313 Q509.4063,510.875 511.9063,510.875 Q512.6094,510.875 513.25,511.0313 Q513.9063,511.1875 514.4688,511.4844 L514.4688,514.2031 Q513.8438,513.625 513.25,513.3594 Q512.6563,513.0781 512.0313,513.0781 Q510.6875,513.0781 510,514.1563 Q509.3125,515.2188 509.3125,517.3125 Q509.3125,519.4063 510,520.4844 Q510.6875,521.5469 512.0313,521.5469 Q512.6563,521.5469 513.25,521.2813 Q513.8438,521 514.4688,520.4219 L514.4688,523.1406 Z " fill="#000000"/><ellipse cx="530.5" cy="517" fill="#84BE84" rx="3" ry="3" style="stroke:#038048;stroke-width:1;"/><text fill="#000000" font-family="sans-serif" font-size="14" lengthAdjust="spacing" textLength="115.3428" x="536.5" y="522.3467">DeadlineMonitor</text><line style="stroke:#181818;stroke-width:0.5;" x1="497.5" x2="653.8428" y1="533.5" y2="533.5"/><line style="stroke:#181818;stroke-width:0.5;" x1="497.5" x2="653.8428" y1="541.5" y2="541.5"/></g><!--class LogicMonitor--><g id="elem_LogicMonitor"><rect codeLine="23" fill="#F1F1F1" height="48" id="LogicMonitor" rx="2.5" ry="2.5" style="stroke:#181818;stroke-width:0.5;" width="133.0566" x="813" y="501.5"/><ellipse cx="828" cy="517.5" fill="#ADD1B2" rx="11" ry="11" style="stroke:#181818;stroke-width:1;"/><path d="M830.9688,523.1406 Q830.3906,523.4375 829.75,523.5781 Q829.1094,523.7344 828.4063,523.7344 Q825.9063,523.7344 824.5781,522.0938 Q823.2656,520.4375 823.2656,517.3125 Q823.2656,514.1875 824.5781,512.5313 Q825.9063,510.875 828.4063,510.875 Q829.1094,510.875 829.75,511.0313 Q830.4063,511.1875 830.9688,511.4844 L830.9688,514.2031 Q830.3438,513.625 829.75,513.3594 Q829.1563,513.0781 828.5313,513.0781 Q827.1875,513.0781 826.5,514.1563 Q825.8125,515.2188 825.8125,517.3125 Q825.8125,519.4063 826.5,520.4844 Q827.1875,521.5469 828.5313,521.5469 Q829.1563,521.5469 829.75,521.2813 Q830.3438,521 830.9688,520.4219 L830.9688,523.1406 Z " fill="#000000"/><ellipse cx="847" cy="517" fill="#84BE84" rx="3" ry="3" style="stroke:#038048;stroke-width:1;"/><text fill="#000000" font-family="sans-serif" font-size="14" lengthAdjust="spacing" textLength="90.0566" x="853" y="522.3467">LogicMonitor</text><line style="stroke:#181818;stroke-width:0.5;" x1="814" x2="945.0566" y1="533.5" y2="533.5"/><line style="stroke:#181818;stroke-width:0.5;" x1="814" x2="945.0566" y1="541.5" y2="541.5"/></g><!--class HeartbeatMonitor--><g id="elem_HeartbeatMonitor"><rect codeLine="26" fill="#F1F1F1" height="48" id="HeartbeatMonitor" rx="2.5" ry="2.5" style="stroke:#181818;stroke-width:0.5;" width="166.751" x="981" y="501.5"/><ellipse cx="996" cy="517.5" fill="#ADD1B2" rx="11" ry="11" style="stroke:#181818;stroke-width:1;"/><path d="M998.9688,523.1406 Q998.3906,523.4375 997.75,523.5781 Q997.1094,523.7344 996.4063,523.7344 Q993.9063,523.7344 992.5781,522.0938 Q991.2656,520.4375 991.2656,517.3125 Q991.2656,514.1875 992.5781,512.5313 Q993.9063,510.875 996.4063,510.875 Q997.1094,510.875 997.75,511.0313 Q998.4063,511.1875 998.9688,511.4844 L998.9688,514.2031 Q998.3438,513.625 997.75,513.3594 Q997.1563,513.0781 996.5313,513.0781 Q995.1875,513.0781 994.5,514.1563 Q993.8125,515.2188 993.8125,517.3125 Q993.8125,519.4063 994.5,520.4844 Q995.1875,521.5469 996.5313,521.5469 Q997.1563,521.5469 997.75,521.2813 Q998.3438,521 998.9688,520.4219 L998.9688,523.1406 Z " fill="#000000"/><ellipse cx="1015" cy="517" fill="#84BE84" rx="3" ry="3" style="stroke:#038048;stroke-width:1;"/><text fill="#000000" font-family="sans-serif" font-size="14" lengthAdjust="spacing" textLength="123.751" x="1021" y="522.3467">HeartbeatMonitor</text><line style="stroke:#181818;stroke-width:0.5;" x1="982" x2="1146.751" y1="533.5" y2="533.5"/><line style="stroke:#181818;stroke-width:0.5;" x1="982" x2="1146.751" y1="541.5" y2="541.5"/></g><!--class HealthMonitorBuilder--><g id="elem_HealthMonitorBuilder"><rect codeLine="29" fill="#F1F1F1" height="178.375" id="HealthMonitorBuilder" rx="2.5" ry="2.5" style="stroke:#181818;stroke-width:0.5;" width="628.0273" x="178.5" y="7"/><ellipse cx="408.4126" cy="23" fill="#ADD1B2" rx="11" ry="11" style="stroke:#181818;stroke-width:1;"/><path d="M411.3813,28.6406 Q410.8032,28.9375 410.1626,29.0781 Q409.522,29.2344 408.8188,29.2344 Q406.3188,29.2344 404.9907,27.5938 Q403.6782,25.9375 403.6782,22.8125 Q403.6782,19.6875 404.9907,18.0313 Q406.3188,16.375 408.8188,16.375 Q409.522,16.375 410.1626,16.5313 Q410.8188,16.6875 411.3813,16.9844 L411.3813,19.7031 Q410.7563,19.125 410.1626,18.8594 Q409.5688,18.5781 408.9438,18.5781 Q407.6001,18.5781 406.9126,19.6563 Q406.2251,20.7188 406.2251,22.8125 Q406.2251,24.9063 406.9126,25.9844 Q407.6001,27.0469 408.9438,27.0469 Q409.5688,27.0469 410.1626,26.7813 Q410.7563,26.5 411.3813,25.9219 L411.3813,28.6406 Z " fill="#000000"/><ellipse cx="433.9126" cy="22.5" fill="#84BE84" rx="3" ry="3" style="stroke:#038048;stroke-width:1;"/><text fill="#000000" font-family="sans-serif" font-size="14" lengthAdjust="spacing" textLength="148.7021" x="439.9126" y="27.8467">HealthMonitorBuilder</text><line style="stroke:#181818;stroke-width:0.5;" x1="179.5" x2="805.5273" y1="39" y2="39"/><line style="stroke:#181818;stroke-width:0.5;" x1="179.5" x2="805.5273" y1="47" y2="47"/><ellipse cx="189.5" cy="60.6484" fill="#84BE84" rx="3" ry="3" style="stroke:#038048;stroke-width:1;"/><text fill="#000000" font-family="sans-serif" font-size="14" lengthAdjust="spacing" textLength="91.8613" x="198.5" y="63.9951">new() -&gt; Self</text><ellipse cx="189.5" cy="76.9453" fill="#84BE84" rx="3" ry="3" style="stroke:#038048;stroke-width:1;"/><text fill="#000000" font-family="sans-serif" font-size="14" lengthAdjust="spacing" textLength="227.1172" x="198.5" y="80.292">from_config(config: &amp;str) -&gt; Self</text><ellipse cx="189.5" cy="93.2422" fill="#84BE84" rx="3" ry="3" style="stroke:#038048;stroke-width:1;"/><text fill="#000000" font-family="sans-serif" font-size="14" lengthAdjust="spacing" textLength="602.0273" x="198.5" y="96.5889">add_heartbeat_monitor(&amp;mut self, tag: Tag, monitor: HeartbeatMonitor) -&gt; &amp;mut Self</text><ellipse cx="189.5" cy="109.5391" fill="#84BE84" rx="3" ry="3" style="stroke:#038048;stroke-width:1;"/><text fill="#000000" font-family="sans-serif" font-size="14" lengthAdjust="spacing" textLength="584.9717" x="198.5" y="112.8857">add_deadline_monitor(&amp;mut self, tag: Tag, monitor: DeadlineMonitor) -&gt; &amp;mut Self</text><ellipse cx="189.5" cy="125.8359" fill="#84BE84" rx="3" ry="3" style="stroke:#038048;stroke-width:1;"/><text fill="#000000" font-family="sans-serif" font-size="14" lengthAdjust="spacing" textLength="532.3828" x="198.5" y="129.1826">add_logic_monitor(&amp;mut self, tag: Tag, monitor: LogicMonitor) -&gt; &amp;mut Self</text><ellipse cx="189.5" cy="142.1328" fill="#84BE84" rx="3" ry="3" style="stroke:#038048;stroke-width:1;"/><text fill="#000000" font-family="sans-serif" font-size="14" lengthAdjust="spacing" textLength="502.4688" x="198.5" y="145.4795">with_supervisor_api_cycle(Duration: supervisor_api_cycle) -&gt; &amp;mut Self</text><ellipse cx="189.5" cy="158.4297" fill="#84BE84" rx="3" ry="3" style="stroke:#038048;stroke-width:1;"/><text fill="#000000" font-family="sans-serif" font-size="14" lengthAdjust="spacing" textLength="572.7695" x="198.5" y="161.7764">with_internal_processing_cycle(Duration: internal_processing_cycle) -&gt; &amp;mut Self</text><ellipse cx="189.5" cy="174.7266" fill="#84BE84" rx="3" ry="3" style="stroke:#038048;stroke-width:1;"/><text fill="#000000" font-family="sans-serif" font-size="14" lengthAdjust="spacing" textLength="281.1484" x="198.5" y="178.0732">build() -&gt; Result&lt;HealthMonitor, Error&gt;</text></g><g id="elem_GMN9"><path d="M842,76 L842,92 L806.61,96 L842,100 L842,116.2656 A0,0 0 0 0 842,116.2656 L1194.5127,116.2656 A0,0 0 0 0 1194.5127,116.2656 L1194.5127,86 L1184.5127,76 L842,76 A0,0 0 0 0 842,76 " fill="#FEFFDD" style="stroke:#181818;stroke-width:0.5;"/><path d="M1184.5127,76 L1184.5127,86 L1194.5127,86 L1184.5127,76 " fill="#FEFFDD" style="stroke:#181818;stroke-width:0.5;"/><text fill="#000000" font-family="sans-serif" font-size="13" lengthAdjust="spacing" textLength="331.5127" x="848" y="93.0669">internal_processing_cycle &lt;= supervisor_api_cycle</text><text fill="#000000" font-family="sans-serif" font-size="13" lengthAdjust="spacing" textLength="4.1323" x="848" y="108.1997">&#160;</text></g><!--class HealthMonitor--><g id="elem_HealthMonitor"><rect codeLine="41" fill="#F1F1F1" height="145.7813" id="HealthMonitor" rx="2.5" ry="2.5" style="stroke:#181818;stroke-width:0.5;" width="560.6113" x="379" y="262"/><ellipse cx="599.9609" cy="278" fill="#ADD1B2" rx="11" ry="11" style="stroke:#181818;stroke-width:1;"/><path d="M602.9297,283.6406 Q602.3516,283.9375 601.7109,284.0781 Q601.0703,284.2344 600.3672,284.2344 Q597.8672,284.2344 596.5391,282.5938 Q595.2266,280.9375 595.2266,277.8125 Q595.2266,274.6875 596.5391,273.0313 Q597.8672,271.375 600.3672,271.375 Q601.0703,271.375 601.7109,271.5313 Q602.3672,271.6875 602.9297,271.9844 L602.9297,274.7031 Q602.3047,274.125 601.7109,273.8594 Q601.1172,273.5781 600.4922,273.5781 Q599.1484,273.5781 598.4609,274.6563 Q597.7734,275.7188 597.7734,277.8125 Q597.7734,279.9063 598.4609,280.9844 Q599.1484,282.0469 600.4922,282.0469 Q601.1172,282.0469 601.7109,281.7813 Q602.3047,281.5 602.9297,280.9219 L602.9297,283.6406 Z " fill="#000000"/><ellipse cx="625.4609" cy="277.5" fill="#84BE84" rx="3" ry="3" style="stroke:#038048;stroke-width:1;"/><text fill="#000000" font-family="sans-serif" font-size="14" lengthAdjust="spacing" textLength="99.1895" x="631.4609" y="282.8467">HealthMonitor</text><line style="stroke:#181818;stroke-width:0.5;" x1="380" x2="938.6113" y1="294" y2="294"/><line style="stroke:#181818;stroke-width:0.5;" x1="380" x2="938.6113" y1="302" y2="302"/><ellipse cx="390" cy="315.6484" fill="#84BE84" rx="3" ry="3" style="stroke:#038048;stroke-width:1;"/><text fill="#000000" font-family="sans-serif" font-size="14" lengthAdjust="spacing" textLength="534.6113" x="399" y="318.9951">get_heartbeat_monitor(&amp;self, tag: Tag) -&gt; Result&lt;HeartbeatMonitor, Error&gt;</text><ellipse cx="390" cy="331.9453" fill="#84BE84" rx="3" ry="3" style="stroke:#038048;stroke-width:1;"/><text fill="#000000" font-family="sans-serif" font-size="14" lengthAdjust="spacing" textLength="517.5557" x="399" y="335.292">get_deadline_monitor(&amp;self, tag: Tag) -&gt; Result&lt;DeadlineMonitor, Error&gt;</text><ellipse cx="390" cy="348.2422" fill="#84BE84" rx="3" ry="3" style="stroke:#038048;stroke-width:1;"/><text fill="#000000" font-family="sans-serif" font-size="14" lengthAdjust="spacing" textLength="464.9668" x="399" y="351.5889">get_logic_monitor(&amp;self, tag: Tag) -&gt; Result&lt;LogicMonitor, Error&gt;</text><ellipse cx="390" cy="364.5391" fill="#84BE84" rx="3" ry="3" style="stroke:#038048;stroke-width:1;"/><text fill="#000000" font-family="sans-serif" font-size="14" lengthAdjust="spacing" textLength="383.0791" x="399" y="367.8857">get_supervisor_api_cycle() -&gt; Result&lt;Duration, Error&gt;</text><ellipse cx="390" cy="380.8359" fill="#84BE84" rx="3" ry="3" style="stroke:#038048;stroke-width:1;"/><text fill="#000000" font-family="sans-serif" font-size="14" lengthAdjust="spacing" textLength="418.2295" x="399" y="384.1826">get_internal_processing_cycle() -&gt; Result&lt;Duration, Error&gt;</text><ellipse cx="390" cy="397.1328" fill="#84BE84" rx="3" ry="3" style="stroke:#038048;stroke-width:1;"/><text fill="#000000" font-family="sans-serif" font-size="14" lengthAdjust="spacing" textLength="159.8789" x="399" y="400.4795">status(&amp;self) -&gt; Status</text></g><!--link HealthMonitorBuilder to Error--><g id="link_HealthMonitorBuilder_Error"><path codeLine="50" d="M374.51,185.08 C362.77,194.88 351.23,204.96 340.5,215 C252.46,297.39 165.5012,400.0414 113.4012,464.2314 " fill="transparent" id="HealthMonitorBuilder-to-Error" style="stroke:#181818;stroke-width:1;stroke-dasharray:7.0,7.0;"/><polygon fill="#181818" points="109.62,468.89,118.3975,464.4229,112.771,465.0078,112.186,459.3813,109.62,468.89" style="stroke:#181818;stroke-width:1;"/></g><!--link HealthMonitorBuilder to Tag--><g id="link_HealthMonitorBuilder_Tag"><path codeLine="51" d="M383.17,185.1 C362.64,207.72 344.26,233.74 333.5,262 C303.39,341.1 304.423,436.9712 307.513,487.3912 " fill="transparent" id="HealthMonitorBuilder-to-Tag" style="stroke:#181818;stroke-width:1;stroke-dasharray:7.0,7.0;"/><polygon fill="#181818" points="307.88,493.38,311.322,484.1522,307.5741,488.3894,303.337,484.6415,307.88,493.38" style="stroke:#181818;stroke-width:1;"/></g><!--link HealthMonitorBuilder to HealthMonitor--><g id="link_HealthMonitorBuilder_HealthMonitor"><path codeLine="52" d="M554.68,185.25 C572.49,210.52 588.2251,232.8445 605.2551,257.0245 " fill="transparent" id="HealthMonitorBuilder-to-HealthMonitor" style="stroke:#181818;stroke-width:1;stroke-dasharray:7.0,7.0;"/><polygon fill="#181818" points="608.71,261.93,606.7979,252.2685,605.8309,257.8421,600.2573,256.8751,608.71,261.93" style="stroke:#181818;stroke-width:1;"/><text fill="#000000" font-family="sans-serif" font-size="13" lengthAdjust="spacing" textLength="81.6943" x="587.5" y="228.0669">&#171;consumes&#187;</text></g><!--reverse link HealthMonitorBuilder to DeadlineMonitor--><g id="link_HealthMonitorBuilder_DeadlineMonitor"><path codeLine="53" d="M397.567,194.9519 C379.827,218.0819 371.01,234.72 361.5,262 C340.13,323.27 327.85,352.52 361.5,408 C391.91,458.14 427.04,440.88 478.5,469 C497.57,479.42 518.52,491.35 536.05,501.47 " fill="transparent" id="HealthMonitorBuilder-backto-DeadlineMonitor" style="stroke:#181818;stroke-width:1;"/><polygon fill="transparent" points="404.87,185.43,398.0445,187.7566,397.567,194.9519,404.3925,192.6253,404.87,185.43" style="stroke:#181818;stroke-width:1;"/><text fill="#000000" font-family="sans-serif" font-size="13" lengthAdjust="spacing" textLength="23.0356" x="499.9547" y="490.4743">0..*</text></g><!--reverse link HealthMonitorBuilder to LogicMonitor--><g id="link_HealthMonitorBuilder_LogicMonitor"><path codeLine="54" d="M817.9276,182.6191 C887.7776,207.2391 936.19,231.83 957.5,262 C994.93,315 976.37,345.91 957.5,408 C946.53,444.1 920.25,479.19 901.22,501.26 " fill="transparent" id="HealthMonitorBuilder-backto-LogicMonitor" style="stroke:#181818;stroke-width:1;"/><polygon fill="transparent" points="806.61,178.63,810.9391,184.3971,817.9276,182.6191,813.5985,176.852,806.61,178.63" style="stroke:#181818;stroke-width:1;"/><text fill="#000000" font-family="sans-serif" font-size="13" lengthAdjust="spacing" textLength="23.0356" x="880.7086" y="490.6065">0..*</text></g><!--reverse link HealthMonitorBuilder to HeartbeatMonitor--><g id="link_HealthMonitorBuilder_HeartbeatMonitor"><path codeLine="55" d="M818.1045,183.3232 C888.8745,202.2032 932.51,213.99 934.5,215 C964.44,230.09 975.1,233.98 993.5,262 C1044.56,339.74 1059.08,453.28 1063.06,501.49 " fill="transparent" id="HealthMonitorBuilder-backto-HeartbeatMonitor" style="stroke:#181818;stroke-width:1;"/><polygon fill="transparent" points="806.51,180.23,811.2762,185.6414,818.1045,183.3232,813.3383,177.9118,806.51,180.23" style="stroke:#181818;stroke-width:1;"/><text fill="#000000" font-family="sans-serif" font-size="13" lengthAdjust="spacing" textLength="23.0356" x="1036.7806" y="490.4995">0..*</text></g><!--reverse link HealthMonitor to Status--><g id="link_HealthMonitor_Status"><path codeLine="56" d="M692.1778,419.239 C700.0978,439.399 704.19,449.83 711.67,468.88 " fill="transparent" id="HealthMonitor-backto-Status" style="stroke:#181818;stroke-width:1;"/><polygon fill="#181818" points="687.79,408.07,686.2609,415.1171,692.1778,419.239,693.7069,412.1919,687.79,408.07" style="stroke:#181818;stroke-width:1;"/></g><!--link HealthMonitor to Error--><g id="link_HealthMonitor_Error"><path codeLine="57" d="M378.84,387.51 C299.93,407.43 215.49,434.07 141.5,469 C135.74,471.72 135.0964,471.7823 129.4564,475.2123 " fill="transparent" id="HealthMonitor-to-Error" style="stroke:#181818;stroke-width:1;stroke-dasharray:7.0,7.0;"/><polygon fill="#181818" points="124.33,478.33,134.0981,477.0711,128.602,475.7319,129.9412,470.2359,124.33,478.33" style="stroke:#181818;stroke-width:1;"/></g><!--link HealthMonitor to Tag--><g id="link_HealthMonitor_Tag"><path codeLine="58" d="M526.06,408.07 C471.41,437.59 416.349,467.3283 373.439,490.5083 " fill="transparent" id="HealthMonitor-to-Tag" style="stroke:#181818;stroke-width:1;stroke-dasharray:7.0,7.0;"/><polygon fill="#181818" points="368.16,493.36,377.9796,492.6018,372.5592,490.9836,374.1773,485.5631,368.16,493.36" style="stroke:#181818;stroke-width:1;"/></g><!--reverse link HealthMonitor to DeadlineMonitor--><g id="link_HealthMonitor_DeadlineMonitor"><path codeLine="59" d="M622.4977,419.0319 C607.7777,452.0819 596.21,478.03 585.86,501.26 " fill="transparent" id="HealthMonitor-backto-DeadlineMonitor" style="stroke:#181818;stroke-width:1;"/><polygon fill="transparent" points="627.38,408.07,621.2849,411.9235,622.4977,419.0319,628.5928,415.1784,627.38,408.07" style="stroke:#181818;stroke-width:1;"/><text fill="#000000" font-family="sans-serif" font-size="13" lengthAdjust="spacing" textLength="23.0356" x="562.5447" y="490.6065">0..*</text></g><!--reverse link HealthMonitor to LogicMonitor--><g id="link_HealthMonitor_LogicMonitor"><path codeLine="60" d="M752.7224,415.8779 C791.4224,449.0379 825.54,478.26 852.63,501.47 " fill="transparent" id="HealthMonitor-backto-LogicMonitor" style="stroke:#181818;stroke-width:1;"/><polygon fill="transparent" points="743.61,408.07,745.5636,415.0114,752.7224,415.8779,750.7689,408.9365,743.61,408.07" style="stroke:#181818;stroke-width:1;"/><text fill="#000000" font-family="sans-serif" font-size="13" lengthAdjust="spacing" textLength="23.0356" x="819.795" y="490.4743">0..*</text></g><!--reverse link HealthMonitor to HeartbeatMonitor--><g id="link_HealthMonitor_HeartbeatMonitor"><path codeLine="61" d="M842.5575,412.8843 C885.9675,431.9443 921.25,448.2 963.5,469 C983.78,478.99 1005.84,490.97 1024.15,501.24 " fill="transparent" id="HealthMonitor-backto-HeartbeatMonitor" style="stroke:#181818;stroke-width:1;"/><polygon fill="transparent" points="831.57,408.06,835.4557,414.1347,842.5575,412.8843,838.6719,406.8096,831.57,408.06" style="stroke:#181818;stroke-width:1;"/><text fill="#000000" font-family="sans-serif" font-size="13" lengthAdjust="spacing" textLength="23.0356" x="988.5463" y="490.5816">0..*</text></g><!--SRC=[ZPHDR-8m48Rl_0ghXoej0UqvoaPgHRjxsD8AzhXIP999iEJOaJyMLQl-znexiFcm2rnmF3DFnk-ypXoORj1MOQKb-ZT3vhVHZ15Ms_MAIBoZKDg7PqnEowtYRMlM7xFPt1AUXE2Y0ppYyWqBt8024TkTDLSFbF83bExvLQlNwWKQBjxTnWzW84WHMs11iPJeDwuxtfp18Lqdw45ke4gb4baMCODFqFeEBJAq1Lhr2bU0IqeOl716b6tgV-mNhqdX2_m4BDGEi0e4gTftaKTDQ0cYrrjqxWAvlKhm9YyugqWTkRy4tPg-ntcuBFFzwSLvu_ZHRQCLaYOhHWgRIYD4ZBfWCcdKCcs9bU7CBJiLhiIEH0jHwL6_Av5zhNsy0r7xNEeMn5yYkSXnI_BYlQ0GhRJ0Yd2M85yuo2BC68vXchU25o2bCV446CpnKNV7KRlfRa1ggjA14sBd-imuXN45I91whxvu1Kg_Um_qX_cTTh9O3Sfdaw7meou77ZatUiPDtH6cZQmnXOrC4IRr7J75UAqmQAIRuhGqFFdBzT9- -rpRxeBQZUFrzzxxvJ9pzU6mENOuE1nnWjBKV2AaRa1ccR-ABnRevjjoUNyplgONy_kANqmUssPOWEvDPgVDC11Gn2_5rQUvxXXVzVy9]--></g></svg>