<svg xmlns="http://www.w3.org/2000/svg" xmlns:xlink="http://www.w3.org/1999/xlink" contentStyleType="text/css" data-diagram-type="SEQUENCE" height="839px" preserveAspectRatio="none" style="width:831px;height:839px;background:#FFFFFF;" version="1.1" viewBox="0 0 831 839" width="831px" zoomAndPan="magnify"><defs/><g><rect fill="transparent" height="585" style="stroke:#000000;stroke-width:1.5;" width="814.8364" x="10" y="156.5625"/><g><title>User</title><rect fill="transparent" height="677.2656" width="8" x="34.9551" y="81.2969"/><line style="stroke:#181818;stroke-width:0.5;stroke-dasharray:5.0,5.0;" x1="38" x2="38" y1="81.2969" y2="758.5625"/></g><g><title>HeartbeatMonitor</title><rect fill="transparent" height="677.2656" width="8" x="156.3916" y="81.2969"/><line style="stroke:#181818;stroke-width:0.5;stroke-dasharray:5.0,5.0;" x1="159.5161" x2="159.5161" y1="81.2969" y2="758.5625"/></g><g><title>HealthMonitor</title><rect fill="transparent" height="677.2656" width="8" x="338.5854" y="81.2969"/><line style="stroke:#181818;stroke-width:0.5;stroke-dasharray:5.0,5.0;" x1="341.9907" x2="341.9907" y1="81.2969" y2="758.5625"/></g><g><title>LaunchManager</title><rect fill="transparent" height="677.2656" width="8" x="506.6582" y="81.2969"/><line style="stroke:#181818;stroke-width:0.5;stroke-dasharray:5.0,5.0;" x1="510.6274" x2="510.6274" y1="81.2969" y2="758.5625"/></g><text fill="#000000" font-family="sans-serif" font-size="14" lengthAdjust="spacing" textLength="31.9102" x="20" y="77.9951">User</text><ellipse cx="38.9551" cy="13.5" fill="#E2E2F0" rx="8" ry="8" style="stroke:#181818;stroke-width:0.5;"/><path d="M38.9551,21.5 L38.9551,48.5 M25.9551,29.5 L51.9551,29.5 M38.9551,48.5 L25.9551,63.5 M38.9551,48.5 L51.9551,63.5 " fill="transparent" style="stroke:#181818;stroke-width:0.5;"/><text fill="#000000" font-family="sans-serif" font-size="14" lengthAdjust="spacing" textLength="31.9102" x="20" y="770.5576">User</text><ellipse cx="38.9551" cy="782.3594" fill="#E2E2F0" rx="8" ry="8" style="stroke:#181818;stroke-width:0.5;"/><path d="M38.9551,790.3594 L38.9551,817.3594 M25.9551,798.3594 L51.9551,798.3594 M38.9551,817.3594 L25.9551,832.3594 M38.9551,817.3594 L51.9551,832.3594 " fill="transparent" style="stroke:#181818;stroke-width:0.5;"/><rect fill="#E2E2F0" height="30.2969" rx="2.5" ry="2.5" style="stroke:#181818;stroke-width:0.5;" width="137.751" x="91.5161" y="50"/><text fill="#000000" font-family="sans-serif" font-size="14" lengthAdjust="spacing" textLength="123.751" x="98.5161" y="69.9951">HeartbeatMonitor</text><rect fill="#E2E2F0" height="30.2969" rx="2.5" ry="2.5" style="stroke:#181818;stroke-width:0.5;" width="137.751" x="91.5161" y="757.5625"/><text fill="#000000" font-family="sans-serif" font-size="14" lengthAdjust="spacing" textLength="123.751" x="98.5161" y="777.5576">HeartbeatMonitor</text><rect fill="#E2E2F0" height="30.2969" rx="2.5" ry="2.5" style="stroke:#181818;stroke-width:0.5;" width="113.1895" x="285.9907" y="50"/><text fill="#000000" font-family="sans-serif" font-size="14" lengthAdjust="spacing" textLength="99.1895" x="292.9907" y="69.9951">HealthMonitor</text><rect fill="#E2E2F0" height="30.2969" rx="2.5" ry="2.5" style="stroke:#181818;stroke-width:0.5;" width="113.1895" x="285.9907" y="757.5625"/><text fill="#000000" font-family="sans-serif" font-size="14" lengthAdjust="spacing" textLength="99.1895" x="292.9907" y="777.5576">HealthMonitor</text><rect fill="#E2E2F0" height="30.2969" rx="2.5" ry="2.5" style="stroke:#181818;stroke-width:0.5;" width="126.0615" x="447.6274" y="50"/><text fill="#000000" font-family="sans-serif" font-size="14" lengthAdjust="spacing" textLength="112.0615" x="454.6274" y="69.9951">LaunchManager</text><rect fill="#E2E2F0" height="30.2969" rx="2.5" ry="2.5" style="stroke:#181818;stroke-width:0.5;" width="126.0615" x="447.6274" y="757.5625"/><text fill="#000000" font-family="sans-serif" font-size="14" lengthAdjust="spacing" textLength="112.0615" x="454.6274" y="777.5576">LaunchManager</text><polygon fill="#181818" points="330.5854,108.4297,340.5854,112.4297,330.5854,116.4297,334.5854,112.4297" style="stroke:#181818;stroke-width:1;"/><line style="stroke:#181818;stroke-width:1;" x1="38.9551" x2="336.5854" y1="112.4297" y2="112.4297"/><text fill="#000000" font-family="sans-serif" font-size="13" lengthAdjust="spacing" textLength="142.2129" x="45.9551" y="107.3638">Get HeartbeatMonitor</text><polygon fill="#181818" points="49.9551,137.5625,39.9551,141.5625,49.9551,145.5625,45.9551,141.5625" style="stroke:#181818;stroke-width:1;"/><line style="stroke:#181818;stroke-width:1;stroke-dasharray:2.0,2.0;" x1="43.9551" x2="341.5854" y1="141.5625" y2="141.5625"/><text fill="#000000" font-family="sans-serif" font-size="13" lengthAdjust="spacing" textLength="174.1162" x="55.9551" y="136.4966">HeartbeatMonitor instance</text><path d="M10,156.5625 L74.4429,156.5625 L74.4429,163.6953 L64.4429,173.6953 L10,173.6953 L10,156.5625 " fill="#EEEEEE" style="stroke:#000000;stroke-width:1.5;"/><rect fill="transparent" height="585" style="stroke:#000000;stroke-width:1.5;" width="814.8364" x="10" y="156.5625"/><text fill="#000000" font-family="sans-serif" font-size="13" font-weight="bold" lengthAdjust="spacing" textLength="19.4429" x="25" y="169.6294">alt</text><text fill="#000000" font-family="sans-serif" font-size="11" font-weight="bold" lengthAdjust="spacing" textLength="213.2754" x="89.4429" y="168.7729">[Heartbeat sent within cycle time]</text><polygon fill="#181818" points="148.3916,190.8281,158.3916,194.8281,148.3916,198.8281,152.3916,194.8281" style="stroke:#181818;stroke-width:1;"/><line style="stroke:#181818;stroke-width:1;" x1="38.9551" x2="154.3916" y1="194.8281" y2="194.8281"/><text fill="#000000" font-family="sans-serif" font-size="13" lengthAdjust="spacing" textLength="65.4951" x="45.9551" y="189.7622">Heartbeat</text><polygon fill="#181818" points="49.9551,219.9609,39.9551,223.9609,49.9551,227.9609,45.9551,223.9609" style="stroke:#181818;stroke-width:1;"/><line style="stroke:#181818;stroke-width:1;stroke-dasharray:2.0,2.0;" x1="43.9551" x2="159.3916" y1="223.9609" y2="223.9609"/><text fill="#000000" font-family="sans-serif" font-size="13" lengthAdjust="spacing" textLength="17.7607" x="55.9551" y="218.895">Ok</text><polygon fill="#181818" points="171.3916,252.0938,161.3916,256.0938,171.3916,260.0938,167.3916,256.0938" style="stroke:#181818;stroke-width:1;"/><line style="stroke:#181818;stroke-width:1;" x1="165.3916" x2="341.5854" y1="256.0938" y2="256.0938"/><text fill="#000000" font-family="sans-serif" font-size="13" lengthAdjust="spacing" textLength="108.0815" x="177.3916" y="251.0278">Check heartbeat</text><path d="M347,236.9609 L347,261.9609 L679,261.9609 L679,246.9609 L669,236.9609 L347,236.9609 " fill="#FEFFDD" style="stroke:#181818;stroke-width:0.5;"/><path d="M669,236.9609 L669,246.9609 L679,246.9609 L669,236.9609 " fill="#FEFFDD" style="stroke:#181818;stroke-width:0.5;"/><text fill="#000000" font-family="sans-serif" font-size="13" lengthAdjust="spacing" textLength="311.4858" x="353" y="254.0278">HealthMonitor does this in a background thread</text><polygon fill="#181818" points="330.5854,284.2266,340.5854,288.2266,330.5854,292.2266,334.5854,288.2266" style="stroke:#181818;stroke-width:1;"/><line style="stroke:#181818;stroke-width:1;stroke-dasharray:2.0,2.0;" x1="160.3916" x2="336.5854" y1="288.2266" y2="288.2266"/><text fill="#000000" font-family="sans-serif" font-size="13" lengthAdjust="spacing" textLength="17.7607" x="167.3916" y="283.1606">Ok</text><polygon fill="#181818" points="498.6582,313.3594,508.6582,317.3594,498.6582,321.3594,502.6582,317.3594" style="stroke:#181818;stroke-width:1;"/><line style="stroke:#181818;stroke-width:1;stroke-dasharray:2.0,2.0;" x1="342.5854" x2="504.6582" y1="317.3594" y2="317.3594"/><text fill="#000000" font-family="sans-serif" font-size="13" lengthAdjust="spacing" textLength="144.0728" x="349.5854" y="312.2935">Alive notification (IPC)</text><line style="stroke:#000000;stroke-width:1;stroke-dasharray:2.0,2.0;" x1="10" x2="824.8364" y1="326.3594" y2="326.3594"/><text fill="#000000" font-family="sans-serif" font-size="11" font-weight="bold" lengthAdjust="spacing" textLength="237.7515" x="15" y="336.5698">[Heartbeat not sent within cycle time]</text><polygon fill="#181818" points="171.3916,360.2969,161.3916,364.2969,171.3916,368.2969,167.3916,364.2969" style="stroke:#181818;stroke-width:1;"/><line style="stroke:#181818;stroke-width:1;" x1="165.3916" x2="341.5854" y1="364.2969" y2="364.2969"/><text fill="#000000" font-family="sans-serif" font-size="13" lengthAdjust="spacing" textLength="108.0815" x="177.3916" y="359.231">Check heartbeat</text><path d="M347,345.1641 L347,370.1641 L679,370.1641 L679,355.1641 L669,345.1641 L347,345.1641 " fill="#FEFFDD" style="stroke:#181818;stroke-width:0.5;"/><path d="M669,345.1641 L669,355.1641 L679,355.1641 L669,345.1641 " fill="#FEFFDD" style="stroke:#181818;stroke-width:0.5;"/><text fill="#000000" font-family="sans-serif" font-size="13" lengthAdjust="spacing" textLength="311.4858" x="353" y="362.231">HealthMonitor does this in a background thread</text><line style="stroke:#181818;stroke-width:1;" x1="160.3916" x2="202.3916" y1="396.4297" y2="396.4297"/><line style="stroke:#181818;stroke-width:1;" x1="202.3916" x2="202.3916" y1="396.4297" y2="409.4297"/><line style="stroke:#181818;stroke-width:1;" x1="161.3916" x2="202.3916" y1="409.4297" y2="409.4297"/><polygon fill="#181818" points="171.3916,405.4297,161.3916,409.4297,171.3916,413.4297,167.3916,409.4297" style="stroke:#181818;stroke-width:1;"/><text fill="#000000" font-family="sans-serif" font-size="13" lengthAdjust="spacing" textLength="168.1938" x="167.3916" y="391.3638">HeartbeatMonitor expired</text><polygon fill="#181818" points="330.5854,437.5625,340.5854,441.5625,330.5854,445.5625,334.5854,441.5625" style="stroke:#181818;stroke-width:1;"/><line style="stroke:#181818;stroke-width:1;stroke-dasharray:2.0,2.0;" x1="160.3916" x2="336.5854" y1="441.5625" y2="441.5625"/><text fill="#000000" font-family="sans-serif" font-size="13" lengthAdjust="spacing" textLength="38.9175" x="167.3916" y="436.4966">Failed</text><path d="M347,422.4297 L347,447.4297 L549,447.4297 L549,432.4297 L539,422.4297 L347,422.4297 " fill="#FEFFDD" style="stroke:#181818;stroke-width:0.5;"/><path d="M539,422.4297 L539,432.4297 L549,432.4297 L539,422.4297 " fill="#FEFFDD" style="stroke:#181818;stroke-width:0.5;"/><text fill="#000000" font-family="sans-serif" font-size="13" lengthAdjust="spacing" textLength="181.2256" x="353" y="439.4966">Alive notification is not sent</text><line style="stroke:#000000;stroke-width:1;stroke-dasharray:2.0,2.0;" x1="10" x2="824.8364" y1="453.5625" y2="453.5625"/><text fill="#000000" font-family="sans-serif" font-size="11" font-weight="bold" lengthAdjust="spacing" textLength="197.0171" x="15" y="463.7729">[Heartbeat sent while disabled]</text><polygon fill="#181818" points="148.3916,484.5,158.3916,488.5,148.3916,492.5,152.3916,488.5" style="stroke:#181818;stroke-width:1;"/><line style="stroke:#181818;stroke-width:1;" x1="38.9551" x2="154.3916" y1="488.5" y2="488.5"/><text fill="#000000" font-family="sans-serif" font-size="13" lengthAdjust="spacing" textLength="48.2231" x="45.9551" y="483.4341">Disable</text><polygon fill="#181818" points="49.9551,513.6328,39.9551,517.6328,49.9551,521.6328,45.9551,517.6328" style="stroke:#181818;stroke-width:1;"/><line style="stroke:#181818;stroke-width:1;stroke-dasharray:2.0,2.0;" x1="43.9551" x2="159.3916" y1="517.6328" y2="517.6328"/><text fill="#000000" font-family="sans-serif" font-size="13" lengthAdjust="spacing" textLength="17.7607" x="55.9551" y="512.5669">Ok</text><polygon fill="#181818" points="148.3916,542.7656,158.3916,546.7656,148.3916,550.7656,152.3916,546.7656" style="stroke:#181818;stroke-width:1;"/><line style="stroke:#181818;stroke-width:1;" x1="38.9551" x2="154.3916" y1="546.7656" y2="546.7656"/><text fill="#000000" font-family="sans-serif" font-size="13" lengthAdjust="spacing" textLength="65.4951" x="45.9551" y="541.6997">Heartbeat</text><polygon fill="#181818" points="49.9551,571.8984,39.9551,575.8984,49.9551,579.8984,45.9551,575.8984" style="stroke:#181818;stroke-width:1;"/><line style="stroke:#181818;stroke-width:1;stroke-dasharray:2.0,2.0;" x1="43.9551" x2="159.3916" y1="575.8984" y2="575.8984"/><text fill="#000000" font-family="sans-serif" font-size="13" lengthAdjust="spacing" textLength="97.4365" x="55.9551" y="570.8325">Error::Disabled</text><polygon fill="#181818" points="171.3916,604.0313,161.3916,608.0313,171.3916,612.0313,167.3916,608.0313" style="stroke:#181818;stroke-width:1;"/><line style="stroke:#181818;stroke-width:1;" x1="165.3916" x2="341.5854" y1="608.0313" y2="608.0313"/><text fill="#000000" font-family="sans-serif" font-size="13" lengthAdjust="spacing" textLength="108.0815" x="177.3916" y="602.9653">Check heartbeat</text><path d="M347,588.8984 L347,613.8984 L679,613.8984 L679,598.8984 L669,588.8984 L347,588.8984 " fill="#FEFFDD" style="stroke:#181818;stroke-width:0.5;"/><path d="M669,588.8984 L669,598.8984 L679,598.8984 L669,588.8984 " fill="#FEFFDD" style="stroke:#181818;stroke-width:0.5;"/><text fill="#000000" font-family="sans-serif" font-size="13" lengthAdjust="spacing" textLength="311.4858" x="353" y="605.9653">HealthMonitor does this in a background thread</text><polygon fill="#181818" points="330.5854,639.1641,340.5854,643.1641,330.5854,647.1641,334.5854,643.1641" style="stroke:#181818;stroke-width:1;"/><line style="stroke:#181818;stroke-width:1;stroke-dasharray:2.0,2.0;" x1="160.3916" x2="336.5854" y1="643.1641" y2="643.1641"/><text fill="#000000" font-family="sans-serif" font-size="13" lengthAdjust="spacing" textLength="17.7607" x="167.3916" y="638.0981">Ok</text><path d="M347,624.0313 L347,649.0313 L809,649.0313 L809,634.0313 L799,624.0313 L347,624.0313 " fill="#FEFFDD" style="stroke:#181818;stroke-width:0.5;"/><path d="M799,624.0313 L799,634.0313 L809,634.0313 L799,624.0313 " fill="#FEFFDD" style="stroke:#181818;stroke-width:0.5;"/><text fill="#000000" font-family="sans-serif" font-size="13" lengthAdjust="spacing" textLength="441.251" x="353" y="641.0981">The HeartbeatMonitor is disabled, the heartbeat is and not checked</text><polygon fill="#181818" points="498.6582,671.2969,508.6582,675.2969,498.6582,679.2969,502.6582,675.2969" style="stroke:#181818;stroke-width:1;"/><line style="stroke:#181818;stroke-width:1;stroke-dasharray:2.0,2.0;" x1="342.5854" x2="504.6582" y1="675.2969" y2="675.2969"/><text fill="#000000" font-family="sans-serif" font-size="13" lengthAdjust="spacing" textLength="144.0728" x="349.5854" y="670.231">Alive notification (IPC)</text><polygon fill="#181818" points="148.3916,700.4297,158.3916,704.4297,148.3916,708.4297,152.3916,704.4297" style="stroke:#181818;stroke-width:1;"/><line style="stroke:#181818;stroke-width:1;" x1="38.9551" x2="154.3916" y1="704.4297" y2="704.4297"/><text fill="#000000" font-family="sans-serif" font-size="13" lengthAdjust="spacing" textLength="44.2813" x="45.9551" y="699.3638">Enable</text><polygon fill="#181818" points="49.9551,729.5625,39.9551,733.5625,49.9551,737.5625,45.9551,733.5625" style="stroke:#181818;stroke-width:1;"/><line style="stroke:#181818;stroke-width:1;stroke-dasharray:2.0,2.0;" x1="43.9551" x2="159.3916" y1="733.5625" y2="733.5625"/><text fill="#000000" font-family="sans-serif" font-size="13" lengthAdjust="spacing" textLength="17.7607" x="55.9551" y="728.4966">Ok</text><!--SRC=[lP9BRiCm34JtEWMHLGiq5yYYG96a7w11ksWFGCjiH4IM34dkv_QbxJXs71TPDKkAutaSqgYJ3p1xZnHcW14gLM98hBb4bs3sI59bX6dZ7OkoqPYiE57PP8ua8yKpLawR3JhSxa6sKAg2-Qr8OG4Fb63CKjAPYw2I_hW7x692fqafGVTjY2IuBqw67UWVRGaI5zIXicBefUgw8xpi6budMXhIEp07gVE98F3MfDQXpmkvfmW2Z38K86IeTzlWAvVBOo3C3vWcwPuZfQtBEykV1EBE7wmniNTmzVIwl5QARAH1C97y6UvV1pzPM_SvVPSSQ1Jl7jdAMq-TZ2Z8Biz9q3Qa4Hl8EM9MsmtFjseVnySxU-1r23ui5glEyrBNFl9wCpJnByT3qXjneNwGkeLYNIzBrpFkvpxxzmosiNPJwrBaSlKB]--></g></svg>