<svg xmlns="http://www.w3.org/2000/svg" xmlns:xlink="http://www.w3.org/1999/xlink" contentStyleType="text/css" data-diagram-type="SEQUENCE" height="1360px" preserveAspectRatio="none" style="width:870px;height:1360px;background:#FFFFFF;" version="1.1" viewBox="0 0 870 1360" width="870px" zoomAndPan="magnify"><defs/><g><rect fill="transparent" height="1106.0625" style="stroke:#000000;stroke-width:1.5;" width="853.814" x="10" y="156.5625"/><g><title>User</title><rect fill="transparent" height="1198.3281" width="8" x="34.9551" y="81.2969"/><line style="stroke:#181818;stroke-width:0.5;stroke-dasharray:5.0,5.0;" x1="38" x2="38" y1="81.2969" y2="1279.625"/></g><g><title>LogicMonitor</title><rect fill="transparent" height="1198.3281" width="8" x="262.8735" y="81.2969"/><line style="stroke:#181818;stroke-width:0.5;stroke-dasharray:5.0,5.0;" x1="266.8452" x2="266.8452" y1="81.2969" y2="1279.625"/></g><g><title>HealthMonitor</title><rect fill="transparent" height="1198.3281" width="8" x="381.4966" y="81.2969"/><line style="stroke:#181818;stroke-width:0.5;stroke-dasharray:5.0,5.0;" x1="384.9019" x2="384.9019" y1="81.2969" y2="1279.625"/></g><text fill="#000000" font-family="sans-serif" font-size="14" lengthAdjust="spacing" textLength="31.9102" x="20" y="77.9951">User</text><ellipse cx="38.9551" cy="13.5" fill="#E2E2F0" rx="8" ry="8" style="stroke:#181818;stroke-width:0.5;"/><path d="M38.9551,21.5 L38.9551,48.5 M25.9551,29.5 L51.9551,29.5 M38.9551,48.5 L25.9551,63.5 M38.9551,48.5 L51.9551,63.5 " fill="transparent" style="stroke:#181818;stroke-width:0.5;"/><text fill="#000000" font-family="sans-serif" font-size="14" lengthAdjust="spacing" textLength="31.9102" x="20" y="1291.6201">User</text><ellipse cx="38.9551" cy="1303.4219" fill="#E2E2F0" rx="8" ry="8" style="stroke:#181818;stroke-width:0.5;"/><path d="M38.9551,1311.4219 L38.9551,1338.4219 M25.9551,1319.4219 L51.9551,1319.4219 M38.9551,1338.4219 L25.9551,1353.4219 M38.9551,1338.4219 L51.9551,1353.4219 " fill="transparent" style="stroke:#181818;stroke-width:0.5;"/><rect fill="#E2E2F0" height="30.2969" rx="2.5" ry="2.5" style="stroke:#181818;stroke-width:0.5;" width="104.0566" x="214.8452" y="50"/><text fill="#000000" font-family="sans-serif" font-size="14" lengthAdjust="spacing" textLength="90.0566" x="221.8452" y="69.9951">LogicMonitor</text><rect fill="#E2E2F0" height="30.2969" rx="2.5" ry="2.5" style="stroke:#181818;stroke-width:0.5;" width="104.0566" x="214.8452" y="1278.625"/><text fill="#000000" font-family="sans-serif" font-size="14" lengthAdjust="spacing" textLength="90.0566" x="221.8452" y="1298.6201">LogicMonitor</text><rect fill="#E2E2F0" height="30.2969" rx="2.5" ry="2.5" style="stroke:#181818;stroke-width:0.5;" width="113.1895" x="328.9019" y="50"/><text fill="#000000" font-family="sans-serif" font-size="14" lengthAdjust="spacing" textLength="99.1895" x="335.9019" y="69.9951">HealthMonitor</text><rect fill="#E2E2F0" height="30.2969" rx="2.5" ry="2.5" style="stroke:#181818;stroke-width:0.5;" width="113.1895" x="328.9019" y="1278.625"/><text fill="#000000" font-family="sans-serif" font-size="14" lengthAdjust="spacing" textLength="99.1895" x="335.9019" y="1298.6201">HealthMonitor</text><polygon fill="#181818" points="373.4966,108.4297,383.4966,112.4297,373.4966,116.4297,377.4966,112.4297" style="stroke:#181818;stroke-width:1;"/><line style="stroke:#181818;stroke-width:1;" x1="38.9551" x2="379.4966" y1="112.4297" y2="112.4297"/><text fill="#000000" font-family="sans-serif" font-size="13" lengthAdjust="spacing" textLength="110.9253" x="45.9551" y="107.3638">Get LogicMonitor</text><polygon fill="#181818" points="49.9551,137.5625,39.9551,141.5625,49.9551,145.5625,45.9551,141.5625" style="stroke:#181818;stroke-width:1;"/><line style="stroke:#181818;stroke-width:1;stroke-dasharray:2.0,2.0;" x1="43.9551" x2="384.4966" y1="141.5625" y2="141.5625"/><text fill="#000000" font-family="sans-serif" font-size="13" lengthAdjust="spacing" textLength="142.8286" x="55.9551" y="136.4966">LogicMonitor instance</text><path d="M10,156.5625 L74.4429,156.5625 L74.4429,163.6953 L64.4429,173.6953 L10,173.6953 L10,156.5625 " fill="#EEEEEE" style="stroke:#000000;stroke-width:1.5;"/><rect fill="transparent" height="1106.0625" style="stroke:#000000;stroke-width:1.5;" width="853.814" x="10" y="156.5625"/><text fill="#000000" font-family="sans-serif" font-size="13" font-weight="bold" lengthAdjust="spacing" textLength="19.4429" x="25" y="169.6294">alt</text><text fill="#000000" font-family="sans-serif" font-size="11" font-weight="bold" lengthAdjust="spacing" textLength="123.6641" x="89.4429" y="168.7729">[Allowed transition]</text><polygon fill="#181818" points="254.8735,190.8281,264.8735,194.8281,254.8735,198.8281,258.8735,194.8281" style="stroke:#181818;stroke-width:1;"/><line style="stroke:#181818;stroke-width:1;" x1="38.9551" x2="260.8735" y1="194.8281" y2="194.8281"/><text fill="#000000" font-family="sans-serif" font-size="13" lengthAdjust="spacing" textLength="193.521" x="45.9551" y="189.7622">Transition to an allowed state</text><polygon fill="#181818" points="49.9551,219.9609,39.9551,223.9609,49.9551,227.9609,45.9551,223.9609" style="stroke:#181818;stroke-width:1;"/><line style="stroke:#181818;stroke-width:1;stroke-dasharray:2.0,2.0;" x1="43.9551" x2="265.8735" y1="223.9609" y2="223.9609"/><text fill="#000000" font-family="sans-serif" font-size="13" lengthAdjust="spacing" textLength="17.7607" x="55.9551" y="218.895">Ok</text><polygon fill="#181818" points="277.8735,252.0938,267.8735,256.0938,277.8735,260.0938,273.8735,256.0938" style="stroke:#181818;stroke-width:1;"/><line style="stroke:#181818;stroke-width:1;" x1="271.8735" x2="384.4966" y1="256.0938" y2="256.0938"/><text fill="#000000" font-family="sans-serif" font-size="13" lengthAdjust="spacing" textLength="74.6992" x="283.8735" y="251.0278">Check logic</text><path d="M390,236.9609 L390,261.9609 L722,261.9609 L722,246.9609 L712,236.9609 L390,236.9609 " fill="#FEFFDD" style="stroke:#181818;stroke-width:0.5;"/><path d="M712,236.9609 L712,246.9609 L722,246.9609 L712,236.9609 " fill="#FEFFDD" style="stroke:#181818;stroke-width:0.5;"/><text fill="#000000" font-family="sans-serif" font-size="13" lengthAdjust="spacing" textLength="311.4858" x="396" y="254.0278">HealthMonitor does this in a background thread</text><polygon fill="#181818" points="373.4966,284.2266,383.4966,288.2266,373.4966,292.2266,377.4966,288.2266" style="stroke:#181818;stroke-width:1;"/><line style="stroke:#181818;stroke-width:1;stroke-dasharray:2.0,2.0;" x1="266.8735" x2="379.4966" y1="288.2266" y2="288.2266"/><text fill="#000000" font-family="sans-serif" font-size="13" lengthAdjust="spacing" textLength="17.7607" x="273.8735" y="283.1606">Ok</text><line style="stroke:#000000;stroke-width:1;stroke-dasharray:2.0,2.0;" x1="10" x2="863.814" y1="297.2266" y2="297.2266"/><text fill="#000000" font-family="sans-serif" font-size="11" font-weight="bold" lengthAdjust="spacing" textLength="142.0225" x="15" y="307.437">[Disallowed transition]</text><polygon fill="#181818" points="254.8735,328.1641,264.8735,332.1641,254.8735,336.1641,258.8735,332.1641" style="stroke:#181818;stroke-width:1;"/><line style="stroke:#181818;stroke-width:1;" x1="38.9551" x2="260.8735" y1="332.1641" y2="332.1641"/><text fill="#000000" font-family="sans-serif" font-size="13" lengthAdjust="spacing" textLength="203.9185" x="45.9551" y="327.0981">Transition to a disallowed state</text><polygon fill="#181818" points="49.9551,360.2969,39.9551,364.2969,49.9551,368.2969,45.9551,364.2969" style="stroke:#181818;stroke-width:1;"/><line style="stroke:#181818;stroke-width:1;stroke-dasharray:2.0,2.0;" x1="43.9551" x2="265.8735" y1="364.2969" y2="364.2969"/><text fill="#000000" font-family="sans-serif" font-size="13" lengthAdjust="spacing" textLength="32.2017" x="55.9551" y="359.231">Error</text><path d="M271,345.1641 L271,370.1641 L535,370.1641 L535,355.1641 L525,345.1641 L271,345.1641 " fill="#FEFFDD" style="stroke:#181818;stroke-width:0.5;"/><path d="M525,345.1641 L525,355.1641 L535,355.1641 L525,345.1641 " fill="#FEFFDD" style="stroke:#181818;stroke-width:0.5;"/><text fill="#000000" font-family="sans-serif" font-size="13" lengthAdjust="spacing" textLength="243.731" x="277" y="362.231">All further transition attempts will fail</text><polygon fill="#181818" points="254.8735,392.4297,264.8735,396.4297,254.8735,400.4297,258.8735,396.4297" style="stroke:#181818;stroke-width:1;"/><line style="stroke:#181818;stroke-width:1;" x1="38.9551" x2="260.8735" y1="396.4297" y2="396.4297"/><text fill="#000000" font-family="sans-serif" font-size="13" lengthAdjust="spacing" textLength="193.521" x="45.9551" y="391.3638">Transition to an allowed state</text><polygon fill="#181818" points="49.9551,421.5625,39.9551,425.5625,49.9551,429.5625,45.9551,425.5625" style="stroke:#181818;stroke-width:1;"/><line style="stroke:#181818;stroke-width:1;stroke-dasharray:2.0,2.0;" x1="43.9551" x2="265.8735" y1="425.5625" y2="425.5625"/><text fill="#000000" font-family="sans-serif" font-size="13" lengthAdjust="spacing" textLength="32.2017" x="55.9551" y="420.4966">Error</text><polygon fill="#181818" points="277.8735,453.6953,267.8735,457.6953,277.8735,461.6953,273.8735,457.6953" style="stroke:#181818;stroke-width:1;"/><line style="stroke:#181818;stroke-width:1;" x1="271.8735" x2="384.4966" y1="457.6953" y2="457.6953"/><text fill="#000000" font-family="sans-serif" font-size="13" lengthAdjust="spacing" textLength="74.6992" x="283.8735" y="452.6294">Check logic</text><path d="M390,438.5625 L390,463.5625 L722,463.5625 L722,448.5625 L712,438.5625 L390,438.5625 " fill="#FEFFDD" style="stroke:#181818;stroke-width:0.5;"/><path d="M712,438.5625 L712,448.5625 L722,448.5625 L712,438.5625 " fill="#FEFFDD" style="stroke:#181818;stroke-width:0.5;"/><text fill="#000000" font-family="sans-serif" font-size="13" lengthAdjust="spacing" textLength="311.4858" x="396" y="455.6294">HealthMonitor does this in a background thread</text><polygon fill="#181818" points="373.4966,485.8281,383.4966,489.8281,373.4966,493.8281,377.4966,489.8281" style="stroke:#181818;stroke-width:1;"/><line style="stroke:#181818;stroke-width:1;stroke-dasharray:2.0,2.0;" x1="266.8735" x2="379.4966" y1="489.8281" y2="489.8281"/><text fill="#000000" font-family="sans-serif" font-size="13" lengthAdjust="spacing" textLength="38.9175" x="273.8735" y="484.7622">Failed</text><line style="stroke:#000000;stroke-width:1;stroke-dasharray:2.0,2.0;" x1="10" x2="863.814" y1="498.8281" y2="498.8281"/><text fill="#000000" font-family="sans-serif" font-size="11" font-weight="bold" lengthAdjust="spacing" textLength="216.9116" x="15" y="509.0386">[Allowed transition while disabled]</text><polygon fill="#181818" points="254.8735,529.7656,264.8735,533.7656,254.8735,537.7656,258.8735,533.7656" style="stroke:#181818;stroke-width:1;"/><line style="stroke:#181818;stroke-width:1;" x1="38.9551" x2="260.8735" y1="533.7656" y2="533.7656"/><text fill="#000000" font-family="sans-serif" font-size="13" lengthAdjust="spacing" textLength="48.2231" x="45.9551" y="528.6997">Disable</text><polygon fill="#181818" points="49.9551,558.8984,39.9551,562.8984,49.9551,566.8984,45.9551,562.8984" style="stroke:#181818;stroke-width:1;"/><line style="stroke:#181818;stroke-width:1;stroke-dasharray:2.0,2.0;" x1="43.9551" x2="265.8735" y1="562.8984" y2="562.8984"/><text fill="#000000" font-family="sans-serif" font-size="13" lengthAdjust="spacing" textLength="17.7607" x="55.9551" y="557.8325">Ok</text><polygon fill="#181818" points="254.8735,588.0313,264.8735,592.0313,254.8735,596.0313,258.8735,592.0313" style="stroke:#181818;stroke-width:1;"/><line style="stroke:#181818;stroke-width:1;" x1="38.9551" x2="260.8735" y1="592.0313" y2="592.0313"/><text fill="#000000" font-family="sans-serif" font-size="13" lengthAdjust="spacing" textLength="193.521" x="45.9551" y="586.9653">Transition to an allowed state</text><polygon fill="#181818" points="49.9551,620.1641,39.9551,624.1641,49.9551,628.1641,45.9551,624.1641" style="stroke:#181818;stroke-width:1;"/><line style="stroke:#181818;stroke-width:1;stroke-dasharray:2.0,2.0;" x1="43.9551" x2="265.8735" y1="624.1641" y2="624.1641"/><text fill="#000000" font-family="sans-serif" font-size="13" lengthAdjust="spacing" textLength="32.2017" x="55.9551" y="619.0981">Error</text><path d="M271,605.0313 L271,630.0313 L558,630.0313 L558,615.0313 L548,605.0313 L271,605.0313 " fill="#FEFFDD" style="stroke:#181818;stroke-width:0.5;"/><path d="M548,605.0313 L548,615.0313 L558,615.0313 L548,605.0313 " fill="#FEFFDD" style="stroke:#181818;stroke-width:0.5;"/><text fill="#000000" font-family="sans-serif" font-size="13" lengthAdjust="spacing" textLength="266.8618" x="277" y="622.0981">Transitions are disallowed while disabled</text><polygon fill="#181818" points="277.8735,655.2969,267.8735,659.2969,277.8735,663.2969,273.8735,659.2969" style="stroke:#181818;stroke-width:1;"/><line style="stroke:#181818;stroke-width:1;" x1="271.8735" x2="384.4966" y1="659.2969" y2="659.2969"/><text fill="#000000" font-family="sans-serif" font-size="13" lengthAdjust="spacing" textLength="74.6992" x="283.8735" y="654.231">Check logic</text><path d="M390,640.1641 L390,665.1641 L722,665.1641 L722,650.1641 L712,640.1641 L390,640.1641 " fill="#FEFFDD" style="stroke:#181818;stroke-width:0.5;"/><path d="M712,640.1641 L712,650.1641 L722,650.1641 L712,640.1641 " fill="#FEFFDD" style="stroke:#181818;stroke-width:0.5;"/><text fill="#000000" font-family="sans-serif" font-size="13" lengthAdjust="spacing" textLength="311.4858" x="396" y="657.231">HealthMonitor does this in a background thread</text><polygon fill="#181818" points="373.4966,687.4297,383.4966,691.4297,373.4966,695.4297,377.4966,691.4297" style="stroke:#181818;stroke-width:1;"/><line style="stroke:#181818;stroke-width:1;stroke-dasharray:2.0,2.0;" x1="266.8735" x2="379.4966" y1="691.4297" y2="691.4297"/><text fill="#000000" font-family="sans-serif" font-size="13" lengthAdjust="spacing" textLength="17.7607" x="273.8735" y="686.3638">Ok</text><polygon fill="#181818" points="254.8735,716.5625,264.8735,720.5625,254.8735,724.5625,258.8735,720.5625" style="stroke:#181818;stroke-width:1;"/><line style="stroke:#181818;stroke-width:1;" x1="38.9551" x2="260.8735" y1="720.5625" y2="720.5625"/><text fill="#000000" font-family="sans-serif" font-size="13" lengthAdjust="spacing" textLength="44.2813" x="45.9551" y="715.4966">Enable</text><polygon fill="#181818" points="49.9551,745.6953,39.9551,749.6953,49.9551,753.6953,45.9551,749.6953" style="stroke:#181818;stroke-width:1;"/><line style="stroke:#181818;stroke-width:1;stroke-dasharray:2.0,2.0;" x1="43.9551" x2="265.8735" y1="749.6953" y2="749.6953"/><text fill="#000000" font-family="sans-serif" font-size="13" lengthAdjust="spacing" textLength="17.7607" x="55.9551" y="744.6294">Ok</text><polygon fill="#181818" points="254.8735,774.8281,264.8735,778.8281,254.8735,782.8281,258.8735,778.8281" style="stroke:#181818;stroke-width:1;"/><line style="stroke:#181818;stroke-width:1;" x1="38.9551" x2="260.8735" y1="778.8281" y2="778.8281"/><text fill="#000000" font-family="sans-serif" font-size="13" lengthAdjust="spacing" textLength="193.521" x="45.9551" y="773.7622">Transition to an allowed state</text><polygon fill="#181818" points="49.9551,803.9609,39.9551,807.9609,49.9551,811.9609,45.9551,807.9609" style="stroke:#181818;stroke-width:1;"/><line style="stroke:#181818;stroke-width:1;stroke-dasharray:2.0,2.0;" x1="43.9551" x2="265.8735" y1="807.9609" y2="807.9609"/><text fill="#000000" font-family="sans-serif" font-size="13" lengthAdjust="spacing" textLength="17.7607" x="55.9551" y="802.895">Ok</text><polygon fill="#181818" points="277.8735,836.0938,267.8735,840.0938,277.8735,844.0938,273.8735,840.0938" style="stroke:#181818;stroke-width:1;"/><line style="stroke:#181818;stroke-width:1;" x1="271.8735" x2="384.4966" y1="840.0938" y2="840.0938"/><text fill="#000000" font-family="sans-serif" font-size="13" lengthAdjust="spacing" textLength="74.6992" x="283.8735" y="835.0278">Check logic</text><path d="M390,820.9609 L390,845.9609 L722,845.9609 L722,830.9609 L712,820.9609 L390,820.9609 " fill="#FEFFDD" style="stroke:#181818;stroke-width:0.5;"/><path d="M712,820.9609 L712,830.9609 L722,830.9609 L712,820.9609 " fill="#FEFFDD" style="stroke:#181818;stroke-width:0.5;"/><text fill="#000000" font-family="sans-serif" font-size="13" lengthAdjust="spacing" textLength="311.4858" x="396" y="838.0278">HealthMonitor does this in a background thread</text><polygon fill="#181818" points="373.4966,868.2266,383.4966,872.2266,373.4966,876.2266,377.4966,872.2266" style="stroke:#181818;stroke-width:1;"/><line style="stroke:#181818;stroke-width:1;stroke-dasharray:2.0,2.0;" x1="266.8735" x2="379.4966" y1="872.2266" y2="872.2266"/><text fill="#000000" font-family="sans-serif" font-size="13" lengthAdjust="spacing" textLength="17.7607" x="273.8735" y="867.1606">Ok</text><line style="stroke:#000000;stroke-width:1;stroke-dasharray:2.0,2.0;" x1="10" x2="863.814" y1="881.2266" y2="881.2266"/><text fill="#000000" font-family="sans-serif" font-size="11" font-weight="bold" lengthAdjust="spacing" textLength="235.27" x="15" y="891.437">[Disallowed transition while disabled]</text><polygon fill="#181818" points="254.8735,912.1641,264.8735,916.1641,254.8735,920.1641,258.8735,916.1641" style="stroke:#181818;stroke-width:1;"/><line style="stroke:#181818;stroke-width:1;" x1="38.9551" x2="260.8735" y1="916.1641" y2="916.1641"/><text fill="#000000" font-family="sans-serif" font-size="13" lengthAdjust="spacing" textLength="48.2231" x="45.9551" y="911.0981">Disable</text><polygon fill="#181818" points="49.9551,941.2969,39.9551,945.2969,49.9551,949.2969,45.9551,945.2969" style="stroke:#181818;stroke-width:1;"/><line style="stroke:#181818;stroke-width:1;stroke-dasharray:2.0,2.0;" x1="43.9551" x2="265.8735" y1="945.2969" y2="945.2969"/><text fill="#000000" font-family="sans-serif" font-size="13" lengthAdjust="spacing" textLength="17.7607" x="55.9551" y="940.231">Ok</text><polygon fill="#181818" points="254.8735,970.4297,264.8735,974.4297,254.8735,978.4297,258.8735,974.4297" style="stroke:#181818;stroke-width:1;"/><line style="stroke:#181818;stroke-width:1;" x1="38.9551" x2="260.8735" y1="974.4297" y2="974.4297"/><text fill="#000000" font-family="sans-serif" font-size="13" lengthAdjust="spacing" textLength="203.9185" x="45.9551" y="969.3638">Transition to a disallowed state</text><polygon fill="#181818" points="49.9551,1002.5625,39.9551,1006.5625,49.9551,1010.5625,45.9551,1006.5625" style="stroke:#181818;stroke-width:1;"/><line style="stroke:#181818;stroke-width:1;stroke-dasharray:2.0,2.0;" x1="43.9551" x2="265.8735" y1="1006.5625" y2="1006.5625"/><text fill="#000000" font-family="sans-serif" font-size="13" lengthAdjust="spacing" textLength="32.2017" x="55.9551" y="1001.4966">Error</text><path d="M271,987.4297 L271,1012.4297 L847,1012.4297 L847,997.4297 L837,987.4297 L271,987.4297 " fill="#FEFFDD" style="stroke:#181818;stroke-width:0.5;"/><path d="M837,987.4297 L837,997.4297 L847,997.4297 L837,987.4297 " fill="#FEFFDD" style="stroke:#181818;stroke-width:0.5;"/><text fill="#000000" font-family="sans-serif" font-size="13" lengthAdjust="spacing" textLength="555.9404" x="277" y="1004.4966">Transitions are disallowed while disabled, this does not cause the LogicMonitor to fail</text><polygon fill="#181818" points="277.8735,1037.6953,267.8735,1041.6953,277.8735,1045.6953,273.8735,1041.6953" style="stroke:#181818;stroke-width:1;"/><line style="stroke:#181818;stroke-width:1;" x1="271.8735" x2="384.4966" y1="1041.6953" y2="1041.6953"/><text fill="#000000" font-family="sans-serif" font-size="13" lengthAdjust="spacing" textLength="74.6992" x="283.8735" y="1036.6294">Check logic</text><path d="M390,1022.5625 L390,1047.5625 L722,1047.5625 L722,1032.5625 L712,1022.5625 L390,1022.5625 " fill="#FEFFDD" style="stroke:#181818;stroke-width:0.5;"/><path d="M712,1022.5625 L712,1032.5625 L722,1032.5625 L712,1022.5625 " fill="#FEFFDD" style="stroke:#181818;stroke-width:0.5;"/><text fill="#000000" font-family="sans-serif" font-size="13" lengthAdjust="spacing" textLength="311.4858" x="396" y="1039.6294">HealthMonitor does this in a background thread</text><polygon fill="#181818" points="373.4966,1069.8281,383.4966,1073.8281,373.4966,1077.8281,377.4966,1073.8281" style="stroke:#181818;stroke-width:1;"/><line style="stroke:#181818;stroke-width:1;stroke-dasharray:2.0,2.0;" x1="266.8735" x2="379.4966" y1="1073.8281" y2="1073.8281"/><text fill="#000000" font-family="sans-serif" font-size="13" lengthAdjust="spacing" textLength="17.7607" x="273.8735" y="1068.7622">Ok</text><polygon fill="#181818" points="254.8735,1098.9609,264.8735,1102.9609,254.8735,1106.9609,258.8735,1102.9609" style="stroke:#181818;stroke-width:1;"/><line style="stroke:#181818;stroke-width:1;" x1="38.9551" x2="260.8735" y1="1102.9609" y2="1102.9609"/><text fill="#000000" font-family="sans-serif" font-size="13" lengthAdjust="spacing" textLength="44.2813" x="45.9551" y="1097.895">Enable</text><polygon fill="#181818" points="49.9551,1128.0938,39.9551,1132.0938,49.9551,1136.0938,45.9551,1132.0938" style="stroke:#181818;stroke-width:1;"/><line style="stroke:#181818;stroke-width:1;stroke-dasharray:2.0,2.0;" x1="43.9551" x2="265.8735" y1="1132.0938" y2="1132.0938"/><text fill="#000000" font-family="sans-serif" font-size="13" lengthAdjust="spacing" textLength="17.7607" x="55.9551" y="1127.0278">Ok</text><polygon fill="#181818" points="254.8735,1157.2266,264.8735,1161.2266,254.8735,1165.2266,258.8735,1161.2266" style="stroke:#181818;stroke-width:1;"/><line style="stroke:#181818;stroke-width:1;" x1="38.9551" x2="260.8735" y1="1161.2266" y2="1161.2266"/><text fill="#000000" font-family="sans-serif" font-size="13" lengthAdjust="spacing" textLength="193.521" x="45.9551" y="1156.1606">Transition to an allowed state</text><polygon fill="#181818" points="49.9551,1186.3594,39.9551,1190.3594,49.9551,1194.3594,45.9551,1190.3594" style="stroke:#181818;stroke-width:1;"/><line style="stroke:#181818;stroke-width:1;stroke-dasharray:2.0,2.0;" x1="43.9551" x2="265.8735" y1="1190.3594" y2="1190.3594"/><text fill="#000000" font-family="sans-serif" font-size="13" lengthAdjust="spacing" textLength="17.7607" x="55.9551" y="1185.2935">Ok</text><polygon fill="#181818" points="277.8735,1218.4922,267.8735,1222.4922,277.8735,1226.4922,273.8735,1222.4922" style="stroke:#181818;stroke-width:1;"/><line style="stroke:#181818;stroke-width:1;" x1="271.8735" x2="384.4966" y1="1222.4922" y2="1222.4922"/><text fill="#000000" font-family="sans-serif" font-size="13" lengthAdjust="spacing" textLength="74.6992" x="283.8735" y="1217.4263">Check logic</text><path d="M390,1203.3594 L390,1228.3594 L722,1228.3594 L722,1213.3594 L712,1203.3594 L390,1203.3594 " fill="#FEFFDD" style="stroke:#181818;stroke-width:0.5;"/><path d="M712,1203.3594 L712,1213.3594 L722,1213.3594 L712,1203.3594 " fill="#FEFFDD" style="stroke:#181818;stroke-width:0.5;"/><text fill="#000000" font-family="sans-serif" font-size="13" lengthAdjust="spacing" textLength="311.4858" x="396" y="1220.4263">HealthMonitor does this in a background thread</text><polygon fill="#181818" points="373.4966,1250.625,383.4966,1254.625,373.4966,1258.625,377.4966,1254.625" style="stroke:#181818;stroke-width:1;"/><line style="stroke:#181818;stroke-width:1;stroke-dasharray:2.0,2.0;" x1="266.8735" x2="379.4966" y1="1254.625" y2="1254.625"/><text fill="#000000" font-family="sans-serif" font-size="13" lengthAdjust="spacing" textLength="17.7607" x="273.8735" y="1249.5591">Ok</text><!--SRC=[xLH1JWCn3Bpd5QEUwGSu825Qu03Y0WzmiwQ9cYPLubM_Zvikx6uh3grQSU6siiUU6JjUif8o9X-5ymHKq9eDPV7MRoWA9YzfwUrhYbvHDH_MOy0pKn0tHBYrCIscT_g1MponODZ4Q7IgoLPpmpXyB4BHiZ7Q4FSXf2qta4onUF4fTat3hkdxJnIIG17KmRM5i0aznTkg4dPr3uxj2c57Qs8IHlPB9veOkK2Jk42SBoeAX0NPrJAdDgeSbvcQRu9gK1aCXyAO-KAdg4RJ5npfdkUiinffr97WiytYE0y8G2AytaZ1rky0vCDPWzeJNdbMZwgEcsvUnol6rcc-pcLHSRsHsJvsiDhpZVQEXhK5b7cubmD1rtzAlQDvl93Xlpw1ostrf8ivOQytUwVLipQ0fLRDwA6D_r0gePxN_olu_HN4vWi0]--></g></svg>