<svg xmlns="http://www.w3.org/2000/svg" xmlns:xlink="http://www.w3.org/1999/xlink" contentStyleType="text/css" data-diagram-type="CLASS" height="936px" preserveAspectRatio="none" style="width:2234px;height:936px;background:#FFFFFF;" version="1.1" viewBox="0 0 2234 936" width="2234px" zoomAndPan="magnify"><defs/><g><!--class Status--><g id="elem_Status"><rect codeLine="2" fill="#F1F1F1" height="113.1875" id="Status" rx="2.5" ry="2.5" style="stroke:#181818;stroke-width:0.5;" width="87.6113" x="1299.27" y="642"/><ellipse cx="1314.27" cy="658" fill="#EB937F" rx="11" ry="11" style="stroke:#181818;stroke-width:1;"/><path d="M1318.3794,664 L1310.6606,664 L1310.6606,651.6094 L1318.3794,651.6094 L1318.3794,653.7656 L1313.1138,653.7656 L1313.1138,656.4375 L1317.8794,656.4375 L1317.8794,658.5938 L1313.1138,658.5938 L1313.1138,661.8438 L1318.3794,661.8438 L1318.3794,664 Z " fill="#000000"/><ellipse cx="1333.27" cy="657.5" fill="#84BE84" rx="3" ry="3" style="stroke:#038048;stroke-width:1;"/><text fill="#000000" font-family="sans-serif" font-size="14" lengthAdjust="spacing" textLength="44.6113" x="1339.27" y="662.8467">Status</text><line style="stroke:#181818;stroke-width:0.5;" x1="1300.27" x2="1385.8813" y1="674" y2="674"/><text fill="#000000" font-family="sans-serif" font-size="14" lengthAdjust="spacing" textLength="57.9961" x="1305.27" y="690.9951">Running</text><text fill="#000000" font-family="sans-serif" font-size="14" lengthAdjust="spacing" textLength="60.8193" x="1305.27" y="707.292">Disabled</text><text fill="#000000" font-family="sans-serif" font-size="14" lengthAdjust="spacing" textLength="41.9111" x="1305.27" y="723.5889">Failed</text><text fill="#000000" font-family="sans-serif" font-size="14" lengthAdjust="spacing" textLength="58.2148" x="1305.27" y="739.8857">Stopped</text><line style="stroke:#181818;stroke-width:0.5;" x1="1300.27" x2="1385.8813" y1="747.1875" y2="747.1875"/></g><!--class Error--><g id="elem_Error"><rect codeLine="9" fill="#F1F1F1" height="113.1875" id="Error" rx="2.5" ry="2.5" style="stroke:#181818;stroke-width:0.5;" width="116.9863" x="1168.77" y="816"/><ellipse cx="1201.4584" cy="832" fill="#EB937F" rx="11" ry="11" style="stroke:#181818;stroke-width:1;"/><path d="M1205.5678,838 L1197.8491,838 L1197.8491,825.6094 L1205.5678,825.6094 L1205.5678,827.7656 L1200.3022,827.7656 L1200.3022,830.4375 L1205.0678,830.4375 L1205.0678,832.5938 L1200.3022,832.5938 L1200.3022,835.8438 L1205.5678,835.8438 L1205.5678,838 Z " fill="#000000"/><ellipse cx="1224.3892" cy="831.5" fill="#84BE84" rx="3" ry="3" style="stroke:#038048;stroke-width:1;"/><text fill="#000000" font-family="sans-serif" font-size="14" lengthAdjust="spacing" textLength="34.6787" x="1230.3892" y="836.8467">Error</text><line style="stroke:#181818;stroke-width:0.5;" x1="1169.77" x2="1284.7563" y1="848" y2="848"/><text fill="#000000" font-family="sans-serif" font-size="14" lengthAdjust="spacing" textLength="104.9863" x="1174.77" y="864.9951">BadParameter,</text><text fill="#000000" font-family="sans-serif" font-size="14" lengthAdjust="spacing" textLength="83.8496" x="1174.77" y="881.292">NotAllowed,</text><text fill="#000000" font-family="sans-serif" font-size="14" lengthAdjust="spacing" textLength="102.7168" x="1174.77" y="897.5889">OutOfMemory,</text><text fill="#000000" font-family="sans-serif" font-size="14" lengthAdjust="spacing" textLength="58.7412" x="1174.77" y="913.8857">Generic,</text><line style="stroke:#181818;stroke-width:0.5;" x1="1169.77" x2="1284.7563" y1="921.1875" y2="921.1875"/></g><!--class Tag--><g id="elem_Tag"><rect codeLine="16" fill="#F1F1F1" height="64.2969" id="Tag" rx="2.5" ry="2.5" style="stroke:#181818;stroke-width:0.5;" width="302.4453" x="222.27" y="666.5"/><ellipse cx="350.7339" cy="682.5" fill="#ADD1B2" rx="11" ry="11" style="stroke:#181818;stroke-width:1;"/><path d="M353.7026,688.1406 Q353.1245,688.4375 352.4839,688.5781 Q351.8432,688.7344 351.1401,688.7344 Q348.6401,688.7344 347.312,687.0938 Q345.9995,685.4375 345.9995,682.3125 Q345.9995,679.1875 347.312,677.5313 Q348.6401,675.875 351.1401,675.875 Q351.8432,675.875 352.4839,676.0313 Q353.1401,676.1875 353.7026,676.4844 L353.7026,679.2031 Q353.0776,678.625 352.4839,678.3594 Q351.8901,678.0781 351.2651,678.0781 Q349.9214,678.0781 349.2339,679.1563 Q348.5464,680.2188 348.5464,682.3125 Q348.5464,684.4063 349.2339,685.4844 Q349.9214,686.5469 351.2651,686.5469 Q351.8901,686.5469 352.4839,686.2813 Q353.0776,686 353.7026,685.4219 L353.7026,688.1406 Z " fill="#000000"/><ellipse cx="376.2339" cy="682" fill="#84BE84" rx="3" ry="3" style="stroke:#038048;stroke-width:1;"/><text fill="#000000" font-family="sans-serif" font-size="14" lengthAdjust="spacing" textLength="26.0176" x="382.2339" y="687.3467">Tag</text><line style="stroke:#181818;stroke-width:0.5;" x1="223.27" x2="523.7153" y1="698.5" y2="698.5"/><line style="stroke:#181818;stroke-width:0.5;" x1="223.27" x2="523.7153" y1="706.5" y2="706.5"/><ellipse cx="233.27" cy="720.1484" fill="#84BE84" rx="3" ry="3" style="stroke:#038048;stroke-width:1;"/><text fill="#000000" font-family="sans-serif" font-size="14" lengthAdjust="spacing" textLength="276.4453" x="242.27" y="723.4951">new&lt;N: AsRef&lt;str&gt;&gt;(name: N) -&gt; Self</text></g><!--class DeadlineMonitorBuilder--><g id="elem_DeadlineMonitorBuilder"><rect codeLine="20" fill="#F1F1F1" height="96.8906" id="DeadlineMonitorBuilder" rx="2.5" ry="2.5" style="stroke:#181818;stroke-width:0.5;" width="575.6572" x="151.27" y="213"/><ellipse cx="346.9209" cy="229" fill="#ADD1B2" rx="11" ry="11" style="stroke:#181818;stroke-width:1;"/><path d="M349.8896,234.6406 Q349.3115,234.9375 348.6709,235.0781 Q348.0303,235.2344 347.3271,235.2344 Q344.8271,235.2344 343.499,233.5938 Q342.1865,231.9375 342.1865,228.8125 Q342.1865,225.6875 343.499,224.0313 Q344.8271,222.375 347.3271,222.375 Q348.0303,222.375 348.6709,222.5313 Q349.3271,222.6875 349.8896,222.9844 L349.8896,225.7031 Q349.2646,225.125 348.6709,224.8594 Q348.0771,224.5781 347.4521,224.5781 Q346.1084,224.5781 345.4209,225.6563 Q344.7334,226.7188 344.7334,228.8125 Q344.7334,230.9063 345.4209,231.9844 Q346.1084,233.0469 347.4521,233.0469 Q348.0771,233.0469 348.6709,232.7813 Q349.2646,232.5 349.8896,231.9219 L349.8896,234.6406 Z " fill="#000000"/><ellipse cx="372.4209" cy="228.5" fill="#84BE84" rx="3" ry="3" style="stroke:#038048;stroke-width:1;"/><text fill="#000000" font-family="sans-serif" font-size="14" lengthAdjust="spacing" textLength="164.8555" x="378.4209" y="233.8467">DeadlineMonitorBuilder</text><line style="stroke:#181818;stroke-width:0.5;" x1="152.27" x2="725.9272" y1="245" y2="245"/><line style="stroke:#181818;stroke-width:0.5;" x1="152.27" x2="725.9272" y1="253" y2="253"/><ellipse cx="162.27" cy="266.6484" fill="#84BE84" rx="3" ry="3" style="stroke:#038048;stroke-width:1;"/><text fill="#000000" font-family="sans-serif" font-size="14" lengthAdjust="spacing" textLength="91.8613" x="171.27" y="269.9951">new() -&gt; Self</text><ellipse cx="162.27" cy="282.9453" fill="#84BE84" rx="3" ry="3" style="stroke:#038048;stroke-width:1;"/><text fill="#000000" font-family="sans-serif" font-size="14" lengthAdjust="spacing" textLength="549.6572" x="171.27" y="286.292">add_deadline(&amp;mut self, tag: Tag, min: Duration, max: Duration) -&gt; &amp;mut Self</text><ellipse cx="162.27" cy="299.2422" fill="#84BE84" rx="3" ry="3" style="stroke:#038048;stroke-width:1;"/><text fill="#000000" font-family="sans-serif" font-size="14" lengthAdjust="spacing" textLength="322.0273" x="171.27" y="302.5889">build(self) -&gt; Result&lt;DeadlineMonitor, Error&gt;</text></g><!--class DeadlineMonitor--><g id="elem_DeadlineMonitor"><rect codeLine="26" fill="#F1F1F1" height="178.375" id="DeadlineMonitor" rx="2.5" ry="2.5" style="stroke:#181818;stroke-width:0.5;" width="747.4102" x="426.77" y="387"/><ellipse cx="733.0537" cy="403" fill="#ADD1B2" rx="11" ry="11" style="stroke:#181818;stroke-width:1;"/><path d="M736.0224,408.6406 Q735.4443,408.9375 734.8037,409.0781 Q734.1631,409.2344 733.4599,409.2344 Q730.9599,409.2344 729.6318,407.5938 Q728.3193,405.9375 728.3193,402.8125 Q728.3193,399.6875 729.6318,398.0313 Q730.9599,396.375 733.4599,396.375 Q734.1631,396.375 734.8037,396.5313 Q735.4599,396.6875 736.0224,396.9844 L736.0224,399.7031 Q735.3974,399.125 734.8037,398.8594 Q734.2099,398.5781 733.5849,398.5781 Q732.2412,398.5781 731.5537,399.6563 Q730.8662,400.7188 730.8662,402.8125 Q730.8662,404.9063 731.5537,405.9844 Q732.2412,407.0469 733.5849,407.0469 Q734.2099,407.0469 734.8037,406.7813 Q735.3974,406.5 736.0224,405.9219 L736.0224,408.6406 Z " fill="#000000"/><ellipse cx="758.5537" cy="402.5" fill="#84BE84" rx="3" ry="3" style="stroke:#038048;stroke-width:1;"/><text fill="#000000" font-family="sans-serif" font-size="14" lengthAdjust="spacing" textLength="115.3428" x="764.5537" y="407.8467">DeadlineMonitor</text><line style="stroke:#181818;stroke-width:0.5;" x1="427.77" x2="1173.1802" y1="419" y2="419"/><line style="stroke:#181818;stroke-width:0.5;" x1="427.77" x2="1173.1802" y1="427" y2="427"/><ellipse cx="437.77" cy="440.6484" fill="#84BE84" rx="3" ry="3" style="stroke:#038048;stroke-width:1;"/><text fill="#000000" font-family="sans-serif" font-size="14" lengthAdjust="spacing" textLength="424.3203" x="446.77" y="443.9951">create_deadline(&amp;self, tag: Tag) -&gt; Result&lt;Deadline, Error&gt;</text><ellipse cx="437.77" cy="456.9453" fill="#84BE84" rx="3" ry="3" style="stroke:#038048;stroke-width:1;"/><text fill="#000000" font-family="sans-serif" font-size="14" lengthAdjust="spacing" textLength="515.2451" x="446.77" y="460.292">create_deadline_guard(&amp;self, tag: Tag) -&gt; Result&lt;DeadlineGuard, Error&gt;</text><ellipse cx="437.77" cy="473.2422" fill="#84BE84" rx="3" ry="3" style="stroke:#038048;stroke-width:1;"/><text fill="#000000" font-family="sans-serif" font-size="14" lengthAdjust="spacing" textLength="630.4854" x="446.77" y="476.5889">create_custom_deadline(&amp;self, min: Duration, max: Duration) -&gt; Result&lt;Deadline, Error&gt;</text><ellipse cx="437.77" cy="489.5391" fill="#84BE84" rx="3" ry="3" style="stroke:#038048;stroke-width:1;"/><text fill="#000000" font-family="sans-serif" font-size="14" lengthAdjust="spacing" textLength="721.4102" x="446.77" y="492.8857">create_custom_deadline_guard(&amp;self, min: Duration, max: Duration) -&gt; Result&lt;DeadlineGuard, Error&gt;</text><ellipse cx="437.77" cy="505.8359" fill="#84BE84" rx="3" ry="3" style="stroke:#038048;stroke-width:1;"/><text fill="#000000" font-family="sans-serif" font-size="14" lengthAdjust="spacing" textLength="241.5547" x="446.77" y="509.1826">enable(&amp;self) -&gt; Result&lt;(), Error&gt;</text><ellipse cx="437.77" cy="522.1328" fill="#84BE84" rx="3" ry="3" style="stroke:#038048;stroke-width:1;"/><text fill="#000000" font-family="sans-serif" font-size="14" lengthAdjust="spacing" textLength="244.1387" x="446.77" y="525.4795">disable(&amp;self) -&gt; Result&lt;(), Error&gt;</text><ellipse cx="437.77" cy="538.4297" fill="#84BE84" rx="3" ry="3" style="stroke:#038048;stroke-width:1;"/><text fill="#000000" font-family="sans-serif" font-size="14" lengthAdjust="spacing" textLength="159.8789" x="446.77" y="541.7764">status(&amp;self) -&gt; Status</text><polygon fill="#4177AF" points="437.77,550.7266,433.77,556.7266,441.77,556.7266" style="stroke:#1963A0;stroke-width:1;"/><text fill="#000000" font-family="sans-serif" font-size="14" lengthAdjust="spacing" textLength="147.1436" x="446.77" y="558.0732">step(&amp;self) -&gt; Status</text></g><!--class Deadline--><g id="elem_Deadline"><rect codeLine="37" fill="#F1F1F1" height="113.1875" id="Deadline" rx="2.5" ry="2.5" style="stroke:#181818;stroke-width:0.5;" width="285.1572" x="888.77" y="642"/><ellipse cx="990.5361" cy="658" fill="#ADD1B2" rx="11" ry="11" style="stroke:#181818;stroke-width:1;"/><path d="M993.5049,663.6406 Q992.9267,663.9375 992.2861,664.0781 Q991.6455,664.2344 990.9424,664.2344 Q988.4424,664.2344 987.1142,662.5938 Q985.8017,660.9375 985.8017,657.8125 Q985.8017,654.6875 987.1142,653.0313 Q988.4424,651.375 990.9424,651.375 Q991.6455,651.375 992.2861,651.5313 Q992.9424,651.6875 993.5049,651.9844 L993.5049,654.7031 Q992.8799,654.125 992.2861,653.8594 Q991.6924,653.5781 991.0674,653.5781 Q989.7236,653.5781 989.0361,654.6563 Q988.3486,655.7188 988.3486,657.8125 Q988.3486,659.9063 989.0361,660.9844 Q989.7236,662.0469 991.0674,662.0469 Q991.6924,662.0469 992.2861,661.7813 Q992.8799,661.5 993.5049,660.9219 L993.5049,663.6406 Z " fill="#000000"/><ellipse cx="1016.0361" cy="657.5" fill="#84BE84" rx="3" ry="3" style="stroke:#038048;stroke-width:1;"/><text fill="#000000" font-family="sans-serif" font-size="14" lengthAdjust="spacing" textLength="62.125" x="1022.0361" y="662.8467">Deadline</text><line style="stroke:#181818;stroke-width:0.5;" x1="889.77" x2="1172.9272" y1="674" y2="674"/><line style="stroke:#181818;stroke-width:0.5;" x1="889.77" x2="1172.9272" y1="682" y2="682"/><ellipse cx="899.77" cy="695.6484" fill="#84BE84" rx="3" ry="3" style="stroke:#038048;stroke-width:1;"/><text fill="#000000" font-family="sans-serif" font-size="14" lengthAdjust="spacing" textLength="259.1572" x="908.77" y="698.9951">start(&amp;mut self) -&gt; Result&lt;(), Error&gt;</text><ellipse cx="899.77" cy="711.9453" fill="#84BE84" rx="3" ry="3" style="stroke:#038048;stroke-width:1;"/><text fill="#000000" font-family="sans-serif" font-size="14" lengthAdjust="spacing" textLength="256.7852" x="908.77" y="715.292">stop(&amp;mut self) -&gt; Result&lt;(), Error&gt;</text><ellipse cx="899.77" cy="728.2422" fill="#84BE84" rx="3" ry="3" style="stroke:#038048;stroke-width:1;"/><text fill="#000000" font-family="sans-serif" font-size="14" lengthAdjust="spacing" textLength="159.4551" x="908.77" y="731.5889">min(&amp;self) -&gt; Duration</text><ellipse cx="899.77" cy="744.5391" fill="#84BE84" rx="3" ry="3" style="stroke:#038048;stroke-width:1;"/><text fill="#000000" font-family="sans-serif" font-size="14" lengthAdjust="spacing" textLength="163.5566" x="908.77" y="747.8857">max(&amp;self) -&gt; Duration</text></g><!--class DeadlineGuard--><g id="elem_DeadlineGuard"><rect codeLine="44" fill="#F1F1F1" height="48" id="DeadlineGuard" rx="2.5" ry="2.5" style="stroke:#181818;stroke-width:0.5;" width="148.0684" x="634.27" y="674.5"/><ellipse cx="649.27" cy="690.5" fill="#ADD1B2" rx="11" ry="11" style="stroke:#181818;stroke-width:1;"/><path d="M652.2388,696.1406 Q651.6606,696.4375 651.02,696.5781 Q650.3794,696.7344 649.6763,696.7344 Q647.1763,696.7344 645.8481,695.0938 Q644.5356,693.4375 644.5356,690.3125 Q644.5356,687.1875 645.8481,685.5313 Q647.1763,683.875 649.6763,683.875 Q650.3794,683.875 651.02,684.0313 Q651.6763,684.1875 652.2388,684.4844 L652.2388,687.2031 Q651.6138,686.625 651.02,686.3594 Q650.4263,686.0781 649.8013,686.0781 Q648.4575,686.0781 647.77,687.1563 Q647.0825,688.2188 647.0825,690.3125 Q647.0825,692.4063 647.77,693.4844 Q648.4575,694.5469 649.8013,694.5469 Q650.4263,694.5469 651.02,694.2813 Q651.6138,694 652.2388,693.4219 L652.2388,696.1406 Z " fill="#000000"/><ellipse cx="668.27" cy="690" fill="#84BE84" rx="3" ry="3" style="stroke:#038048;stroke-width:1;"/><text fill="#000000" font-family="sans-serif" font-size="14" lengthAdjust="spacing" textLength="105.0684" x="674.27" y="695.3467">DeadlineGuard</text><line style="stroke:#181818;stroke-width:0.5;" x1="635.27" x2="781.3384" y1="706.5" y2="706.5"/><line style="stroke:#181818;stroke-width:0.5;" x1="635.27" x2="781.3384" y1="714.5" y2="714.5"/></g><!--class LogicMonitorState--><g id="elem_LogicMonitorState"><rect codeLine="47" fill="#F1F1F1" height="64.2969" id="LogicMonitorState" rx="2.5" ry="2.5" style="stroke:#181818;stroke-width:0.5;" width="225.6777" x="1637.27" y="666.5"/><ellipse cx="1677.2736" cy="682.5" fill="#ADD1B2" rx="11" ry="11" style="stroke:#181818;stroke-width:1;"/><path d="M1680.2423,688.1406 Q1679.6642,688.4375 1679.0236,688.5781 Q1678.3829,688.7344 1677.6798,688.7344 Q1675.1798,688.7344 1673.8517,687.0938 Q1672.5392,685.4375 1672.5392,682.3125 Q1672.5392,679.1875 1673.8517,677.5313 Q1675.1798,675.875 1677.6798,675.875 Q1678.3829,675.875 1679.0236,676.0313 Q1679.6798,676.1875 1680.2423,676.4844 L1680.2423,679.2031 Q1679.6173,678.625 1679.0236,678.3594 Q1678.4298,678.0781 1677.8048,678.0781 Q1676.4611,678.0781 1675.7736,679.1563 Q1675.0861,680.2188 1675.0861,682.3125 Q1675.0861,684.4063 1675.7736,685.4844 Q1676.4611,686.5469 1677.8048,686.5469 Q1678.4298,686.5469 1679.0236,686.2813 Q1679.6173,686 1680.2423,685.4219 L1680.2423,688.1406 Z " fill="#000000"/><ellipse cx="1701.8299" cy="682" fill="#84BE84" rx="3" ry="3" style="stroke:#038048;stroke-width:1;"/><text fill="#000000" font-family="sans-serif" font-size="14" lengthAdjust="spacing" textLength="127.1143" x="1707.8299" y="687.3467">LogicMonitorState</text><line style="stroke:#181818;stroke-width:0.5;" x1="1638.27" x2="1861.9477" y1="698.5" y2="698.5"/><line style="stroke:#181818;stroke-width:0.5;" x1="1638.27" x2="1861.9477" y1="706.5" y2="706.5"/><ellipse cx="1648.27" cy="720.1484" fill="#84BE84" rx="3" ry="3" style="stroke:#038048;stroke-width:1;"/><text fill="#000000" font-family="sans-serif" font-size="14" lengthAdjust="spacing" textLength="199.6777" x="1657.27" y="723.4951">from_str(name: &amp;str) -&gt; Self</text></g><!--class LogicMonitorBuilder--><g id="elem_LogicMonitorBuilder"><rect codeLine="51" fill="#F1F1F1" height="96.8906" id="LogicMonitorBuilder" rx="2.5" ry="2.5" style="stroke:#181818;stroke-width:0.5;" width="637.7412" x="1536.27" y="213"/><ellipse cx="1775.6059" cy="229" fill="#ADD1B2" rx="11" ry="11" style="stroke:#181818;stroke-width:1;"/><path d="M1778.5747,234.6406 Q1777.9966,234.9375 1777.3559,235.0781 Q1776.7153,235.2344 1776.0122,235.2344 Q1773.5122,235.2344 1772.1841,233.5938 Q1770.8716,231.9375 1770.8716,228.8125 Q1770.8716,225.6875 1772.1841,224.0313 Q1773.5122,222.375 1776.0122,222.375 Q1776.7153,222.375 1777.3559,222.5313 Q1778.0122,222.6875 1778.5747,222.9844 L1778.5747,225.7031 Q1777.9497,225.125 1777.3559,224.8594 Q1776.7622,224.5781 1776.1372,224.5781 Q1774.7934,224.5781 1774.1059,225.6563 Q1773.4184,226.7188 1773.4184,228.8125 Q1773.4184,230.9063 1774.1059,231.9844 Q1774.7934,233.0469 1776.1372,233.0469 Q1776.7622,233.0469 1777.3559,232.7813 Q1777.9497,232.5 1778.5747,231.9219 L1778.5747,234.6406 Z " fill="#000000"/><ellipse cx="1801.1059" cy="228.5" fill="#84BE84" rx="3" ry="3" style="stroke:#038048;stroke-width:1;"/><text fill="#000000" font-family="sans-serif" font-size="14" lengthAdjust="spacing" textLength="139.5693" x="1807.1059" y="233.8467">LogicMonitorBuilder</text><line style="stroke:#181818;stroke-width:0.5;" x1="1537.27" x2="2173.0112" y1="245" y2="245"/><line style="stroke:#181818;stroke-width:0.5;" x1="1537.27" x2="2173.0112" y1="253" y2="253"/><ellipse cx="1547.27" cy="266.6484" fill="#84BE84" rx="3" ry="3" style="stroke:#038048;stroke-width:1;"/><text fill="#000000" font-family="sans-serif" font-size="14" lengthAdjust="spacing" textLength="309.1074" x="1556.27" y="269.9951">new(initial_state: LogicMonitorState) -&gt; Self</text><ellipse cx="1547.27" cy="282.9453" fill="#84BE84" rx="3" ry="3" style="stroke:#038048;stroke-width:1;"/><text fill="#000000" font-family="sans-serif" font-size="14" lengthAdjust="spacing" textLength="611.7412" x="1556.27" y="286.292">add_transition(&amp;mut self, from: LogicMonitorState, to: LogicMonitorState) -&gt; &amp;mut Self</text><ellipse cx="1547.27" cy="299.2422" fill="#84BE84" rx="3" ry="3" style="stroke:#038048;stroke-width:1;"/><text fill="#000000" font-family="sans-serif" font-size="14" lengthAdjust="spacing" textLength="296.7412" x="1556.27" y="302.5889">build(self) -&gt; Result&lt;LogicMonitor, Error&gt;</text></g><!--class LogicMonitor--><g id="elem_LogicMonitor"><rect codeLine="57" fill="#F1F1F1" height="129.4844" id="LogicMonitor" rx="2.5" ry="2.5" style="stroke:#181818;stroke-width:0.5;" width="446.0342" x="1351.27" y="411.5"/><ellipse cx="1519.5088" cy="427.5" fill="#ADD1B2" rx="11" ry="11" style="stroke:#181818;stroke-width:1;"/><path d="M1522.4775,433.1406 Q1521.8994,433.4375 1521.2588,433.5781 Q1520.6181,433.7344 1519.915,433.7344 Q1517.415,433.7344 1516.0869,432.0938 Q1514.7744,430.4375 1514.7744,427.3125 Q1514.7744,424.1875 1516.0869,422.5313 Q1517.415,420.875 1519.915,420.875 Q1520.6181,420.875 1521.2588,421.0313 Q1521.915,421.1875 1522.4775,421.4844 L1522.4775,424.2031 Q1521.8525,423.625 1521.2588,423.3594 Q1520.665,423.0781 1520.04,423.0781 Q1518.6963,423.0781 1518.0088,424.1563 Q1517.3213,425.2188 1517.3213,427.3125 Q1517.3213,429.4063 1518.0088,430.4844 Q1518.6963,431.5469 1520.04,431.5469 Q1520.665,431.5469 1521.2588,431.2813 Q1521.8525,431 1522.4775,430.4219 L1522.4775,433.1406 Z " fill="#000000"/><ellipse cx="1545.0088" cy="427" fill="#84BE84" rx="3" ry="3" style="stroke:#038048;stroke-width:1;"/><text fill="#000000" font-family="sans-serif" font-size="14" lengthAdjust="spacing" textLength="90.0566" x="1551.0088" y="432.3467">LogicMonitor</text><line style="stroke:#181818;stroke-width:0.5;" x1="1352.27" x2="1796.3042" y1="443.5" y2="443.5"/><line style="stroke:#181818;stroke-width:0.5;" x1="1352.27" x2="1796.3042" y1="451.5" y2="451.5"/><ellipse cx="1362.27" cy="465.1484" fill="#84BE84" rx="3" ry="3" style="stroke:#038048;stroke-width:1;"/><text fill="#000000" font-family="sans-serif" font-size="14" lengthAdjust="spacing" textLength="420.0342" x="1371.27" y="468.4951">transition(&amp;self, to: LogicMonitorState) -&gt; Result&lt;(), Error&gt;</text><ellipse cx="1362.27" cy="481.4453" fill="#84BE84" rx="3" ry="3" style="stroke:#038048;stroke-width:1;"/><text fill="#000000" font-family="sans-serif" font-size="14" lengthAdjust="spacing" textLength="241.5547" x="1371.27" y="484.792">enable(&amp;self) -&gt; Result&lt;(), Error&gt;</text><ellipse cx="1362.27" cy="497.7422" fill="#84BE84" rx="3" ry="3" style="stroke:#038048;stroke-width:1;"/><text fill="#000000" font-family="sans-serif" font-size="14" lengthAdjust="spacing" textLength="244.1387" x="1371.27" y="501.0889">disable(&amp;self) -&gt; Result&lt;(), Error&gt;</text><ellipse cx="1362.27" cy="514.0391" fill="#84BE84" rx="3" ry="3" style="stroke:#038048;stroke-width:1;"/><text fill="#000000" font-family="sans-serif" font-size="14" lengthAdjust="spacing" textLength="159.8789" x="1371.27" y="517.3857">status(&amp;self) -&gt; Status</text><ellipse cx="1362.27" cy="530.3359" fill="#84BE84" rx="3" ry="3" style="stroke:#038048;stroke-width:1;"/><text fill="#000000" font-family="sans-serif" font-size="14" lengthAdjust="spacing" textLength="234.8281" x="1371.27" y="533.6826">state(&amp;self) -&gt; LogicMonitorState</text></g><!--class HealthMonitorBuilder--><g id="elem_HealthMonitorBuilder"><rect codeLine="65" fill="#F1F1F1" height="129.4844" id="HealthMonitorBuilder" rx="2.5" ry="2.5" style="stroke:#181818;stroke-width:0.5;" width="610.9717" x="852.77" y="7"/><ellipse cx="1074.1548" cy="23" fill="#ADD1B2" rx="11" ry="11" style="stroke:#181818;stroke-width:1;"/><path d="M1077.1235,28.6406 Q1076.5454,28.9375 1075.9048,29.0781 Q1075.2641,29.2344 1074.561,29.2344 Q1072.061,29.2344 1070.7329,27.5938 Q1069.4204,25.9375 1069.4204,22.8125 Q1069.4204,19.6875 1070.7329,18.0313 Q1072.061,16.375 1074.561,16.375 Q1075.2641,16.375 1075.9048,16.5313 Q1076.561,16.6875 1077.1235,16.9844 L1077.1235,19.7031 Q1076.4985,19.125 1075.9048,18.8594 Q1075.311,18.5781 1074.686,18.5781 Q1073.3423,18.5781 1072.6548,19.6563 Q1071.9673,20.7188 1071.9673,22.8125 Q1071.9673,24.9063 1072.6548,25.9844 Q1073.3423,27.0469 1074.686,27.0469 Q1075.311,27.0469 1075.9048,26.7813 Q1076.4985,26.5 1077.1235,25.9219 L1077.1235,28.6406 Z " fill="#000000"/><ellipse cx="1099.6548" cy="22.5" fill="#84BE84" rx="3" ry="3" style="stroke:#038048;stroke-width:1;"/><text fill="#000000" font-family="sans-serif" font-size="14" lengthAdjust="spacing" textLength="148.7021" x="1105.6548" y="27.8467">HealthMonitorBuilder</text><line style="stroke:#181818;stroke-width:0.5;" x1="853.77" x2="1462.7417" y1="39" y2="39"/><line style="stroke:#181818;stroke-width:0.5;" x1="853.77" x2="1462.7417" y1="47" y2="47"/><ellipse cx="863.77" cy="60.6484" fill="#84BE84" rx="3" ry="3" style="stroke:#038048;stroke-width:1;"/><text fill="#000000" font-family="sans-serif" font-size="14" lengthAdjust="spacing" textLength="91.8613" x="872.77" y="63.9951">new() -&gt; Self</text><ellipse cx="863.77" cy="76.9453" fill="#84BE84" rx="3" ry="3" style="stroke:#038048;stroke-width:1;"/><text fill="#000000" font-family="sans-serif" font-size="14" lengthAdjust="spacing" textLength="227.1172" x="872.77" y="80.292">from_config(config: &amp;str) -&gt; Self</text><ellipse cx="863.77" cy="93.2422" fill="#84BE84" rx="3" ry="3" style="stroke:#038048;stroke-width:1;"/><text fill="#000000" font-family="sans-serif" font-size="14" lengthAdjust="spacing" textLength="584.9717" x="872.77" y="96.5889">add_deadline_monitor(&amp;mut self, tag: Tag, monitor: DeadlineMonitor) -&gt; &amp;mut Self</text><ellipse cx="863.77" cy="109.5391" fill="#84BE84" rx="3" ry="3" style="stroke:#038048;stroke-width:1;"/><text fill="#000000" font-family="sans-serif" font-size="14" lengthAdjust="spacing" textLength="532.3828" x="872.77" y="112.8857">add_logic_monitor(&amp;mut self, tag: Tag, monitor: LogicMonitor) -&gt; &amp;mut Self</text><ellipse cx="863.77" cy="125.8359" fill="#84BE84" rx="3" ry="3" style="stroke:#038048;stroke-width:1;"/><text fill="#000000" font-family="sans-serif" font-size="14" lengthAdjust="spacing" textLength="305.874" x="872.77" y="129.1826">build(self) -&gt; Result&lt;HealthMonitor, Error&gt;</text></g><!--class HealthMonitor--><g id="elem_HealthMonitor"><rect codeLine="73" fill="#F1F1F1" height="96.8906" id="HealthMonitor" rx="2.5" ry="2.5" style="stroke:#181818;stroke-width:0.5;" width="543.5557" x="886.27" y="213"/><ellipse cx="1098.7031" cy="229" fill="#ADD1B2" rx="11" ry="11" style="stroke:#181818;stroke-width:1;"/><path d="M1101.6719,234.6406 Q1101.0937,234.9375 1100.4531,235.0781 Q1099.8125,235.2344 1099.1094,235.2344 Q1096.6094,235.2344 1095.2812,233.5938 Q1093.9687,231.9375 1093.9687,228.8125 Q1093.9687,225.6875 1095.2812,224.0313 Q1096.6094,222.375 1099.1094,222.375 Q1099.8125,222.375 1100.4531,222.5313 Q1101.1094,222.6875 1101.6719,222.9844 L1101.6719,225.7031 Q1101.0469,225.125 1100.4531,224.8594 Q1099.8594,224.5781 1099.2344,224.5781 Q1097.8906,224.5781 1097.2031,225.6563 Q1096.5156,226.7188 1096.5156,228.8125 Q1096.5156,230.9063 1097.2031,231.9844 Q1097.8906,233.0469 1099.2344,233.0469 Q1099.8594,233.0469 1100.4531,232.7813 Q1101.0469,232.5 1101.6719,231.9219 L1101.6719,234.6406 Z " fill="#000000"/><ellipse cx="1124.2031" cy="228.5" fill="#84BE84" rx="3" ry="3" style="stroke:#038048;stroke-width:1;"/><text fill="#000000" font-family="sans-serif" font-size="14" lengthAdjust="spacing" textLength="99.1895" x="1130.2031" y="233.8467">HealthMonitor</text><line style="stroke:#181818;stroke-width:0.5;" x1="887.27" x2="1428.8257" y1="245" y2="245"/><line style="stroke:#181818;stroke-width:0.5;" x1="887.27" x2="1428.8257" y1="253" y2="253"/><ellipse cx="897.27" cy="266.6484" fill="#84BE84" rx="3" ry="3" style="stroke:#038048;stroke-width:1;"/><text fill="#000000" font-family="sans-serif" font-size="14" lengthAdjust="spacing" textLength="517.5557" x="906.27" y="269.9951">get_deadline_monitor(&amp;self, tag: Tag) -&gt; Result&lt;DeadlineMonitor, Error&gt;</text><ellipse cx="897.27" cy="282.9453" fill="#84BE84" rx="3" ry="3" style="stroke:#038048;stroke-width:1;"/><text fill="#000000" font-family="sans-serif" font-size="14" lengthAdjust="spacing" textLength="464.9668" x="906.27" y="286.292">get_logic_monitor(&amp;self, tag: Tag) -&gt; Result&lt;LogicMonitor, Error&gt;</text><ellipse cx="897.27" cy="299.2422" fill="#84BE84" rx="3" ry="3" style="stroke:#038048;stroke-width:1;"/><text fill="#000000" font-family="sans-serif" font-size="14" lengthAdjust="spacing" textLength="159.8789" x="906.27" y="302.5889">status(&amp;self) -&gt; Status</text></g><!--link DeadlineMonitorBuilder to Error--><g id="link_DeadlineMonitorBuilder_Error"><path codeLine="79" d="M383.85,310.31 C280.97,404.66 81.57,617.53 204.27,755 C268.92,827.43 954.5849,860.5863 1162.4949,869.0363 " fill="transparent" id="DeadlineMonitorBuilder-to-Error" style="stroke:#181818;stroke-width:1;stroke-dasharray:7.0,7.0;"/><polygon fill="#181818" points="1168.49,869.28,1159.6599,864.9178,1163.4941,869.077,1159.335,872.9112,1168.49,869.28" style="stroke:#181818;stroke-width:1;"/></g><!--link DeadlineMonitorBuilder to Tag--><g id="link_DeadlineMonitorBuilder_Tag"><path codeLine="80" d="M392.9,310.1 C374.97,331.74 356.56,358.79 347.27,387 C315.98,481.98 332.56,513.09 347.27,612 C350.01,630.42 353.9448,644.6741 359.4248,660.6641 " fill="transparent" id="DeadlineMonitorBuilder-to-Tag" style="stroke:#181818;stroke-width:1;stroke-dasharray:7.0,7.0;"/><polygon fill="#181818" points="361.37,666.34,362.2361,656.5293,359.749,661.6101,354.6682,659.1229,361.37,666.34" style="stroke:#181818;stroke-width:1;"/></g><!--link DeadlineMonitorBuilder to DeadlineMonitor--><g id="link_DeadlineMonitorBuilder_DeadlineMonitor"><path codeLine="81" d="M520.28,310.19 C558.74,332.83 600.7893,357.5764 645.4193,383.8464 " fill="transparent" id="DeadlineMonitorBuilder-to-DeadlineMonitor" style="stroke:#181818;stroke-width:1;stroke-dasharray:7.0,7.0;"/><polygon fill="#181818" points="650.59,386.89,644.8629,378.8775,646.281,384.3537,640.8048,385.7718,650.59,386.89" style="stroke:#181818;stroke-width:1;"/><text fill="#000000" font-family="sans-serif" font-size="13" lengthAdjust="spacing" textLength="81.6943" x="599.27" y="353.0669">&#171;consumes&#187;</text></g><!--reverse link DeadlineMonitor to Status--><g id="link_DeadlineMonitor_Status"><path codeLine="82" d="M1028.3384,569.6146 C1132.9084,612.0746 1237.63,654.6 1299.16,679.59 " fill="transparent" id="DeadlineMonitor-backto-Status" style="stroke:#181818;stroke-width:1;"/><polygon fill="#181818" points="1017.22,565.1,1021.2743,571.0634,1028.3384,569.6146,1024.2841,563.6511,1017.22,565.1" style="stroke:#181818;stroke-width:1;"/><text fill="#000000" font-family="sans-serif" font-size="13" lengthAdjust="spacing" textLength="33.5981" x="1121.27" y="608.0669">owns</text></g><!--link DeadlineMonitor to Error--><g id="link_DeadlineMonitor_Error"><path codeLine="83" d="M813.33,565.08 C825.49,635.75 845.57,727.54 871.27,755 C949.81,838.92 1083.6206,861.9936 1162.6406,868.5536 " fill="transparent" id="DeadlineMonitor-to-Error" style="stroke:#181818;stroke-width:1;stroke-dasharray:7.0,7.0;"/><polygon fill="#181818" points="1168.62,869.05,1159.9818,864.3191,1163.6371,868.6363,1159.3199,872.2917,1168.62,869.05" style="stroke:#181818;stroke-width:1;"/></g><!--link DeadlineMonitor to Tag--><g id="link_DeadlineMonitor_Tag"><path codeLine="84" d="M629.67,565.1 C560.21,600.97 489.7712,637.3372 438.7412,663.6872 " fill="transparent" id="DeadlineMonitor-to-Tag" style="stroke:#181818;stroke-width:1;stroke-dasharray:7.0,7.0;"/><polygon fill="#181818" points="433.41,666.44,443.2421,665.8649,437.8527,664.146,439.5716,658.7566,433.41,666.44" style="stroke:#181818;stroke-width:1;"/></g><!--link DeadlineMonitor to Deadline--><g id="link_DeadlineMonitor_Deadline"><path codeLine="85" d="M892.56,565.1 C919.71,591.01 944.2897,614.4773 968.6697,637.7473 " fill="transparent" id="DeadlineMonitor-to-Deadline" style="stroke:#181818;stroke-width:1;stroke-dasharray:7.0,7.0;"/><polygon fill="#181818" points="973.01,641.89,969.2613,632.7824,969.3931,638.4378,963.7378,638.5695,973.01,641.89" style="stroke:#181818;stroke-width:1;"/><text fill="#000000" font-family="sans-serif" font-size="13" lengthAdjust="spacing" textLength="64.2319" x="937.27" y="608.0669">&#171;creates&#187;</text></g><!--link DeadlineMonitor to DeadlineGuard--><g id="link_DeadlineMonitor_DeadlineGuard"><path codeLine="86" d="M756.3,565.07 C751.73,575.09 747.29,585.21 743.27,595 C732.27,621.79 723.6338,647.7144 717.0638,668.6844 " fill="transparent" id="DeadlineMonitor-to-DeadlineGuard" style="stroke:#181818;stroke-width:1;stroke-dasharray:7.0,7.0;"/><polygon fill="#181818" points="715.27,674.41,721.7778,667.0175,716.7649,669.6387,714.1437,664.6258,715.27,674.41" style="stroke:#181818;stroke-width:1;"/><text fill="#000000" font-family="sans-serif" font-size="13" lengthAdjust="spacing" textLength="64.2319" x="744.27" y="608.0669">&#171;creates&#187;</text></g><!--link Deadline to Error--><g id="link_Deadline_Error"><path codeLine="87" d="M1094.63,755.11 C1118.34,775.91 1140.6503,795.4924 1163.9303,815.9224 " fill="transparent" id="Deadline-to-Error" style="stroke:#181818;stroke-width:1;stroke-dasharray:7.0,7.0;"/><polygon fill="#181818" points="1168.44,819.88,1164.3139,810.9371,1164.6819,816.582,1159.0371,816.9501,1168.44,819.88" style="stroke:#181818;stroke-width:1;"/></g><!--link LogicMonitorBuilder to Error--><g id="link_LogicMonitorBuilder_Error"><path codeLine="89" d="M1877.14,310.2 C1917.95,407.21 1992.04,628.93 1881.27,755 C1803.29,843.75 1437.2565,864.8547 1291.7665,869.8347 " fill="transparent" id="LogicMonitorBuilder-to-Error" style="stroke:#181818;stroke-width:1;stroke-dasharray:7.0,7.0;"/><polygon fill="#181818" points="1285.77,870.04,1294.9016,873.7298,1290.7671,869.869,1294.6279,865.7345,1285.77,870.04" style="stroke:#181818;stroke-width:1;"/></g><!--reverse link LogicMonitorBuilder to LogicMonitorState--><g id="link_LogicMonitorBuilder_LogicMonitorState"><path codeLine="90" d="M1853.1193,322.125 C1850.0893,382.575 1841.73,477.53 1815.27,565 C1804.25,601.42 1784.14,640.17 1769.2,666.3 " fill="transparent" id="LogicMonitorBuilder-backto-LogicMonitorState" style="stroke:#181818;stroke-width:1;"/><polygon fill="#181818" points="1853.72,310.14,1849.4246,315.9322,1853.1193,322.125,1857.4146,316.3327,1853.72,310.14" style="stroke:#181818;stroke-width:1;"/><text fill="#000000" font-family="sans-serif" font-size="13" lengthAdjust="spacing" textLength="33.5981" x="1848.27" y="480.5669">owns</text><text fill="#000000" font-family="sans-serif" font-size="13" lengthAdjust="spacing" textLength="23.0356" x="1747.698" y="655.5348">1..*</text></g><!--link LogicMonitorBuilder to LogicMonitor--><g id="link_LogicMonitorBuilder_LogicMonitor"><path codeLine="91" d="M1792.21,310.19 C1752.72,340.05 1706.1658,375.2611 1663.2258,407.7311 " fill="transparent" id="LogicMonitorBuilder-to-LogicMonitor" style="stroke:#181818;stroke-width:1;stroke-dasharray:7.0,7.0;"/><polygon fill="#181818" points="1658.44,411.35,1668.0313,409.1122,1662.4282,408.3343,1663.2061,402.7312,1658.44,411.35" style="stroke:#181818;stroke-width:1;"/><text fill="#000000" font-family="sans-serif" font-size="13" lengthAdjust="spacing" textLength="81.6943" x="1748.27" y="353.0669">&#171;consumes&#187;</text></g><!--reverse link LogicMonitor to Status--><g id="link_LogicMonitor_Status"><path codeLine="92" d="M1498.7693,549.0653 C1460.1293,585.9453 1421.27,623.04 1387.31,655.46 " fill="transparent" id="LogicMonitor-backto-Status" style="stroke:#181818;stroke-width:1;"/><polygon fill="#181818" points="1507.45,540.78,1500.3479,542.0291,1498.7693,549.0653,1505.8714,547.8162,1507.45,540.78" style="stroke:#181818;stroke-width:1;"/><text fill="#000000" font-family="sans-serif" font-size="13" lengthAdjust="spacing" textLength="33.5981" x="1445.27" y="608.0669">owns</text></g><!--reverse link LogicMonitor to LogicMonitorState--><g id="link_LogicMonitor_LogicMonitorState"><path codeLine="93" d="M1632.6655,550.1591 C1665.5555,591.3691 1699.43,633.8 1725.36,666.3 " fill="transparent" id="LogicMonitor-backto-LogicMonitorState" style="stroke:#181818;stroke-width:1;"/><polygon fill="#181818" points="1625.18,540.78,1625.7964,547.9647,1632.6655,550.1591,1632.0491,542.9744,1625.18,540.78" style="stroke:#181818;stroke-width:1;"/><text fill="#000000" font-family="sans-serif" font-size="13" lengthAdjust="spacing" textLength="33.5981" x="1678.27" y="608.0669">owns</text><text fill="#000000" font-family="sans-serif" font-size="13" lengthAdjust="spacing" textLength="23.0356" x="1695.227" y="655.5348">1..*</text></g><!--link LogicMonitor to Error--><g id="link_LogicMonitor_Error"><path codeLine="94" d="M1545.79,540.69 C1516.67,600.85 1467.02,691.16 1405.27,755 C1370.73,790.71 1328.589,818.1255 1291.399,838.8855 " fill="transparent" id="LogicMonitor-to-Error" style="stroke:#181818;stroke-width:1;stroke-dasharray:7.0,7.0;"/><polygon fill="#181818" points="1286.16,841.81,1295.9682,840.9159,1290.5258,839.3729,1292.0689,833.9306,1286.16,841.81" style="stroke:#181818;stroke-width:1;"/></g><!--link HealthMonitorBuilder to Error--><g id="link_HealthMonitorBuilder_Error"><path codeLine="96" d="M1464.04,87.83 C1723.62,105.56 2072.49,141.95 2192.27,213 C2214.82,226.38 2227.27,234.28 2227.27,260.5 C2227.27,260.5 2227.27,260.5 2227.27,699.5 C2227.27,795.62 1506.4358,852.447 1292.0758,867.237 " fill="transparent" id="HealthMonitorBuilder-to-Error" style="stroke:#181818;stroke-width:1;stroke-dasharray:7.0,7.0;"/><polygon fill="#181818" points="1286.09,867.65,1295.344,871.021,1291.0781,867.3058,1294.7933,863.04,1286.09,867.65" style="stroke:#181818;stroke-width:1;"/></g><!--link HealthMonitorBuilder to Tag--><g id="link_HealthMonitorBuilder_Tag"><path codeLine="97" d="M852.54,94.22 C567.87,117.64 180.42,158.94 133.27,213 C6,358.9 235.0374,580.2818 330.6274,662.3418 " fill="transparent" id="HealthMonitorBuilder-to-Tag" style="stroke:#181818;stroke-width:1;stroke-dasharray:7.0,7.0;"/><polygon fill="#181818" points="335.18,666.25,330.9566,657.3526,331.3862,662.9932,325.7457,663.4228,335.18,666.25" style="stroke:#181818;stroke-width:1;"/></g><!--link HealthMonitorBuilder to HealthMonitor--><g id="link_HealthMonitorBuilder_HealthMonitor"><path codeLine="98" d="M1158.27,136.15 C1158.27,161.29 1158.27,183.67 1158.27,206.97 " fill="transparent" id="HealthMonitorBuilder-to-HealthMonitor" style="stroke:#181818;stroke-width:1;stroke-dasharray:7.0,7.0;"/><polygon fill="#181818" points="1158.27,212.97,1162.27,203.97,1158.27,207.97,1154.27,203.97,1158.27,212.97" style="stroke:#181818;stroke-width:1;"/><text fill="#000000" font-family="sans-serif" font-size="13" lengthAdjust="spacing" textLength="81.6943" x="1159.27" y="179.0669">&#171;consumes&#187;</text></g><!--reverse link HealthMonitorBuilder to DeadlineMonitor--><g id="link_HealthMonitorBuilder_DeadlineMonitor"><path codeLine="99" d="M957.2845,141.6623 C920.3345,161.3923 895.57,181 869.27,213 C829.1,261.88 812.09,331.72 805,387 " fill="transparent" id="HealthMonitorBuilder-backto-DeadlineMonitor" style="stroke:#181818;stroke-width:1;"/><polygon fill="transparent" points="967.87,136.01,960.6932,135.3076,957.2845,141.6623,964.4614,142.3646,967.87,136.01" style="stroke:#181818;stroke-width:1;"/><text fill="#000000" font-family="sans-serif" font-size="13" lengthAdjust="spacing" textLength="23.0356" x="781.4239" y="376.0655">0..*</text></g><!--reverse link HealthMonitorBuilder to LogicMonitor--><g id="link_HealthMonitorBuilder_LogicMonitor"><path codeLine="100" d="M1348.0437,141.4452 C1387.9637,161.5852 1416.96,181.6 1448.27,213 C1503.69,268.58 1538.27,353.3 1556.88,411.26 " fill="transparent" id="HealthMonitorBuilder-backto-LogicMonitor" style="stroke:#181818;stroke-width:1;"/><polygon fill="transparent" points="1337.33,136.04,1340.8851,142.3138,1348.0437,141.4452,1344.4886,135.1713,1337.33,136.04" style="stroke:#181818;stroke-width:1;"/><text fill="#000000" font-family="sans-serif" font-size="13" lengthAdjust="spacing" textLength="23.0356" x="1530.7202" y="400.4064">0..*</text></g><!--reverse link HealthMonitor to Status--><g id="link_HealthMonitor_Status"><path codeLine="101" d="M1236.7524,318.4901 C1246.2924,327.4601 1246.41,329.22 1253.27,340 C1313.56,434.77 1333.48,567.62 1340.05,641.8 " fill="transparent" id="HealthMonitor-backto-Status" style="stroke:#181818;stroke-width:1;"/><polygon fill="#181818" points="1228.01,310.27,1229.6412,317.2942,1236.7524,318.4901,1235.1212,311.4659,1228.01,310.27" style="stroke:#181818;stroke-width:1;"/></g><!--link HealthMonitor to Error--><g id="link_HealthMonitor_Error"><path codeLine="102" d="M1173.14,310.23 C1179.73,333.22 1186.95,361.31 1191.27,387 C1217.15,540.88 1224.2948,719.3815 1226.3348,809.8815 " fill="transparent" id="HealthMonitor-to-Error" style="stroke:#181818;stroke-width:1;stroke-dasharray:7.0,7.0;"/><polygon fill="#181818" points="1226.47,815.88,1230.2662,806.7921,1226.3573,810.8813,1222.2682,806.9724,1226.47,815.88" style="stroke:#181818;stroke-width:1;"/></g><!--link HealthMonitor to Tag--><g id="link_HealthMonitor_Tag"><path codeLine="103" d="M886.24,291.72 C685.91,315.89 442.75,351.82 409.27,387 C336.31,463.65 352.4413,597.7949 364.8313,660.1849 " fill="transparent" id="HealthMonitor-to-Tag" style="stroke:#181818;stroke-width:1;stroke-dasharray:7.0,7.0;"/><polygon fill="#181818" points="366,666.07,368.1703,656.4632,365.0261,661.1658,360.3235,658.0215,366,666.07" style="stroke:#181818;stroke-width:1;"/></g><!--reverse link HealthMonitor to DeadlineMonitor--><g id="link_HealthMonitor_DeadlineMonitor"><path codeLine="104" d="M1067.6111,316.3153 C1029.4711,338.9553 992.96,360.62 948.7,386.89 " fill="transparent" id="HealthMonitor-backto-DeadlineMonitor" style="stroke:#181818;stroke-width:1;"/><polygon fill="transparent" points="1077.93,310.19,1070.7288,309.813,1067.6111,316.3153,1074.8123,316.6923,1077.93,310.19" style="stroke:#181818;stroke-width:1;"/><text fill="#000000" font-family="sans-serif" font-size="13" lengthAdjust="spacing" textLength="23.0356" x="937.024" y="375.9464">0..*</text></g><!--reverse link HealthMonitor to LogicMonitor--><g id="link_HealthMonitor_LogicMonitor"><path codeLine="105" d="M1273.6131,315.2695 C1294.1131,324.9395 1304.52,330.07 1324.27,340 C1369,362.49 1417.56,388.37 1459.88,411.42 " fill="transparent" id="HealthMonitor-backto-LogicMonitor" style="stroke:#181818;stroke-width:1;"/><polygon fill="transparent" points="1262.76,310.15,1266.4801,316.3275,1273.6131,315.2695,1269.8931,309.092,1262.76,310.15" style="stroke:#181818;stroke-width:1;"/><text fill="#000000" font-family="sans-serif" font-size="13" lengthAdjust="spacing" textLength="23.0356" x="1423.1109" y="400.5839">0..*</text></g><!--SRC=[lLRBRjim4BpxAuWS0YL-eBqAXe04RjD3unHsxmOZqIe1YZH82avHjDzUFlIWAD9MBiabecPtEBFSfJn7jAx0Na9P2_1d1jJVhgOKqz8yRx20hmGLPl4LulPnBzdff9x_pcPpm_25SyORWaTO_80SLaWYlZ1ljam-4CBEgB3hbrg-79zHnVXl- -89KSHnlZ24EO52W9-mRFZc59tNsnGyY1qwheNaMPPGHP-2xHrOPc2FoD59t21O44pHCwDOClvOOr8Wxd0bNHQmxs1H78ecAxcjQWc40XT0mZBLEXQWmZG5cvf3YHbLI_ZMBmsRoJ923EEhtZJHB0RT8L4JkVQKBMpLihZsLdJE4PJ8qJZK5zgZ8myH7CeQyc8ApPCE37BbjP2i6ccwMgafEZtkeTptxX2mWAZkQalefYHtmxZ2jl_rG646o8cp4sN0VqAYqnWQ7tfxsegCoxuFB-_BJjCYLTKS3Msz6Wo-XR2nGbDA9RD7lhCIvqstQcETYIDN1wXcjPdKM_KO6bOtFp2fM04OaeEkhs8PxTPJTeCiEQG2QmFkA6ivWNpL_2n6EscatTJ0FBjmwyiLs0nWL4FaC3-qVmteSeoaEeQ_8KZah-bNhscJdD4ZBXFxp-kLm1Lzg2nzvAgsOEhVfQ4prQn4kvb8wJgVtYE3cWIQP82tnIgH31Y-Vc7xstHadiyuKx2bBtQ9iXBvwAvMcMMu5A3slmJxtyGKhDUgLKHT8P5bVYQuNoxRtpCfO6SgHX5HKJ4r0nbsV_ET2ctlXjhhCXplg9Y5Bi4U3g7QvCtdrUh-9d03DxPZh8CxoIlc01jNSWI_HuFhE7XDz7WKreSJ1OTpv3aBPZ5juPEnu9tZrNZNsJ3OgPi7H0o6dKqM5rFr7m00]--></g></svg>