<svg xmlns="http://www.w3.org/2000/svg" xmlns:xlink="http://www.w3.org/1999/xlink" contentStyleType="text/css" data-diagram-type="SEQUENCE" height="692px" preserveAspectRatio="none" style="width:945px;height:692px;background:#FFFFFF;" version="1.1" viewBox="0 0 945 692" width="945px" zoomAndPan="magnify"><defs/><g><rect fill="transparent" height="75.3984" style="stroke:#000000;stroke-width:1.5;" width="654.9629" x="10" y="418.7578"/><g><title>User</title><rect fill="transparent" height="530.2578" width="8" x="34.9551" y="81.2969"/><line style="stroke:#181818;stroke-width:0.5;stroke-dasharray:5.0,5.0;" x1="38" x2="38" y1="81.2969" y2="611.5547"/></g><g><title>DeadlineMonitorBuilder</title><rect fill="transparent" height="530.2578" width="8" x="225.2637" y="81.2969"/><line style="stroke:#181818;stroke-width:0.5;stroke-dasharray:5.0,5.0;" x1="228.8359" x2="228.8359" y1="81.2969" y2="611.5547"/></g><g><title>LogicMonitorBuilder</title><rect fill="transparent" height="530.2578" width="8" x="401.4761" y="81.2969"/><line style="stroke:#181818;stroke-width:0.5;stroke-dasharray:5.0,5.0;" x1="404.6914" x2="404.6914" y1="81.2969" y2="611.5547"/></g><g><title>HealthMonitorBuilder</title><rect fill="transparent" height="530.2578" width="8" x="569.6118" y="81.2969"/><line style="stroke:#181818;stroke-width:0.5;stroke-dasharray:5.0,5.0;" x1="573.2607" x2="573.2607" y1="81.2969" y2="611.5547"/></g><g><title>HealthMonitor</title><rect fill="transparent" height="530.2578" width="8" x="717.5576" y="81.2969"/><line style="stroke:#181818;stroke-width:0.5;stroke-dasharray:5.0,5.0;" x1="720.9629" x2="720.9629" y1="81.2969" y2="611.5547"/></g><text fill="#000000" font-family="sans-serif" font-size="14" lengthAdjust="spacing" textLength="31.9102" x="20" y="77.9951">User</text><ellipse cx="38.9551" cy="13.5" fill="#E2E2F0" rx="8" ry="8" style="stroke:#181818;stroke-width:0.5;"/><path d="M38.9551,21.5 L38.9551,48.5 M25.9551,29.5 L51.9551,29.5 M38.9551,48.5 L25.9551,63.5 M38.9551,48.5 L51.9551,63.5 " fill="transparent" style="stroke:#181818;stroke-width:0.5;"/><text fill="#000000" font-family="sans-serif" font-size="14" lengthAdjust="spacing" textLength="31.9102" x="20" y="623.5498">User</text><ellipse cx="38.9551" cy="635.3516" fill="#E2E2F0" rx="8" ry="8" style="stroke:#181818;stroke-width:0.5;"/><path d="M38.9551,643.3516 L38.9551,670.3516 M25.9551,651.3516 L51.9551,651.3516 M38.9551,670.3516 L25.9551,685.3516 M38.9551,670.3516 L51.9551,685.3516 " fill="transparent" style="stroke:#181818;stroke-width:0.5;"/><rect fill="#E2E2F0" height="30.2969" rx="2.5" ry="2.5" style="stroke:#181818;stroke-width:0.5;" width="178.8555" x="139.8359" y="50"/><text fill="#000000" font-family="sans-serif" font-size="14" lengthAdjust="spacing" textLength="164.8555" x="146.8359" y="69.9951">DeadlineMonitorBuilder</text><rect fill="#E2E2F0" height="30.2969" rx="2.5" ry="2.5" style="stroke:#181818;stroke-width:0.5;" width="178.8555" x="139.8359" y="610.5547"/><text fill="#000000" font-family="sans-serif" font-size="14" lengthAdjust="spacing" textLength="164.8555" x="146.8359" y="630.5498">DeadlineMonitorBuilder</text><rect fill="#E2E2F0" height="30.2969" rx="2.5" ry="2.5" style="stroke:#181818;stroke-width:0.5;" width="153.5693" x="328.6914" y="50"/><text fill="#000000" font-family="sans-serif" font-size="14" lengthAdjust="spacing" textLength="139.5693" x="335.6914" y="69.9951">LogicMonitorBuilder</text><rect fill="#E2E2F0" height="30.2969" rx="2.5" ry="2.5" style="stroke:#181818;stroke-width:0.5;" width="153.5693" x="328.6914" y="610.5547"/><text fill="#000000" font-family="sans-serif" font-size="14" lengthAdjust="spacing" textLength="139.5693" x="335.6914" y="630.5498">LogicMonitorBuilder</text><rect fill="#E2E2F0" height="30.2969" rx="2.5" ry="2.5" style="stroke:#181818;stroke-width:0.5;" width="162.7021" x="492.2607" y="50"/><text fill="#000000" font-family="sans-serif" font-size="14" lengthAdjust="spacing" textLength="148.7021" x="499.2607" y="69.9951">HealthMonitorBuilder</text><rect fill="#E2E2F0" height="30.2969" rx="2.5" ry="2.5" style="stroke:#181818;stroke-width:0.5;" width="162.7021" x="492.2607" y="610.5547"/><text fill="#000000" font-family="sans-serif" font-size="14" lengthAdjust="spacing" textLength="148.7021" x="499.2607" y="630.5498">HealthMonitorBuilder</text><rect fill="#E2E2F0" height="30.2969" rx="2.5" ry="2.5" style="stroke:#181818;stroke-width:0.5;" width="113.1895" x="664.9629" y="50"/><text fill="#000000" font-family="sans-serif" font-size="14" lengthAdjust="spacing" textLength="99.1895" x="671.9629" y="69.9951">HealthMonitor</text><rect fill="#E2E2F0" height="30.2969" rx="2.5" ry="2.5" style="stroke:#181818;stroke-width:0.5;" width="113.1895" x="664.9629" y="610.5547"/><text fill="#000000" font-family="sans-serif" font-size="14" lengthAdjust="spacing" textLength="99.1895" x="671.9629" y="630.5498">HealthMonitor</text><polygon fill="#181818" points="217.2637,108.4297,227.2637,112.4297,217.2637,116.4297,221.2637,112.4297" style="stroke:#181818;stroke-width:1;"/><line style="stroke:#181818;stroke-width:1;" x1="38.9551" x2="223.2637" y1="112.4297" y2="112.4297"/><text fill="#000000" font-family="sans-serif" font-size="13" lengthAdjust="spacing" textLength="43.4814" x="45.9551" y="107.3638">Create</text><polygon fill="#181818" points="217.2637,137.5625,227.2637,141.5625,217.2637,145.5625,221.2637,141.5625" style="stroke:#181818;stroke-width:1;"/><line style="stroke:#181818;stroke-width:1;" x1="38.9551" x2="223.2637" y1="141.5625" y2="141.5625"/><text fill="#000000" font-family="sans-serif" font-size="13" lengthAdjust="spacing" textLength="63.9272" x="45.9551" y="136.4966">Set hooks</text><polygon fill="#181818" points="217.2637,166.6953,227.2637,170.6953,217.2637,174.6953,221.2637,170.6953" style="stroke:#181818;stroke-width:1;"/><line style="stroke:#181818;stroke-width:1;" x1="38.9551" x2="223.2637" y1="170.6953" y2="170.6953"/><text fill="#000000" font-family="sans-serif" font-size="13" lengthAdjust="spacing" textLength="32.6333" x="45.9551" y="165.6294">Build</text><polygon fill="#181818" points="49.9551,195.8281,39.9551,199.8281,49.9551,203.8281,45.9551,199.8281" style="stroke:#181818;stroke-width:1;"/><line style="stroke:#181818;stroke-width:1;stroke-dasharray:2.0,2.0;" x1="43.9551" x2="228.2637" y1="199.8281" y2="199.8281"/><text fill="#000000" font-family="sans-serif" font-size="13" lengthAdjust="spacing" textLength="166.3086" x="55.9551" y="194.7622">DeadlineMonitor instance</text><polygon fill="#181818" points="393.4761,224.9609,403.4761,228.9609,393.4761,232.9609,397.4761,228.9609" style="stroke:#181818;stroke-width:1;"/><line style="stroke:#181818;stroke-width:1;" x1="38.9551" x2="399.4761" y1="228.9609" y2="228.9609"/><text fill="#000000" font-family="sans-serif" font-size="13" lengthAdjust="spacing" textLength="43.4814" x="45.9551" y="223.895">Create</text><polygon fill="#181818" points="393.4761,254.0938,403.4761,258.0938,393.4761,262.0938,397.4761,258.0938" style="stroke:#181818;stroke-width:1;"/><line style="stroke:#181818;stroke-width:1;" x1="38.9551" x2="399.4761" y1="258.0938" y2="258.0938"/><text fill="#000000" font-family="sans-serif" font-size="13" lengthAdjust="spacing" textLength="63.9272" x="45.9551" y="253.0278">Set hooks</text><polygon fill="#181818" points="393.4761,283.2266,403.4761,287.2266,393.4761,291.2266,397.4761,287.2266" style="stroke:#181818;stroke-width:1;"/><line style="stroke:#181818;stroke-width:1;" x1="38.9551" x2="399.4761" y1="287.2266" y2="287.2266"/><text fill="#000000" font-family="sans-serif" font-size="13" lengthAdjust="spacing" textLength="98.2935" x="45.9551" y="282.1606">Set initial state</text><polygon fill="#181818" points="393.4761,312.3594,403.4761,316.3594,393.4761,320.3594,397.4761,316.3594" style="stroke:#181818;stroke-width:1;"/><line style="stroke:#181818;stroke-width:1;" x1="38.9551" x2="399.4761" y1="316.3594" y2="316.3594"/><text fill="#000000" font-family="sans-serif" font-size="13" lengthAdjust="spacing" textLength="185.4087" x="45.9551" y="311.2935">Set allowed state transitions</text><polygon fill="#181818" points="393.4761,341.4922,403.4761,345.4922,393.4761,349.4922,397.4761,345.4922" style="stroke:#181818;stroke-width:1;"/><line style="stroke:#181818;stroke-width:1;" x1="38.9551" x2="399.4761" y1="345.4922" y2="345.4922"/><text fill="#000000" font-family="sans-serif" font-size="13" lengthAdjust="spacing" textLength="32.6333" x="45.9551" y="340.4263">Build</text><polygon fill="#181818" points="49.9551,370.625,39.9551,374.625,49.9551,378.625,45.9551,374.625" style="stroke:#181818;stroke-width:1;"/><line style="stroke:#181818;stroke-width:1;stroke-dasharray:2.0,2.0;" x1="43.9551" x2="404.4761" y1="374.625" y2="374.625"/><text fill="#000000" font-family="sans-serif" font-size="13" lengthAdjust="spacing" textLength="142.8286" x="55.9551" y="369.5591">LogicMonitor instance</text><polygon fill="#181818" points="561.6118,399.7578,571.6118,403.7578,561.6118,407.7578,565.6118,403.7578" style="stroke:#181818;stroke-width:1;"/><line style="stroke:#181818;stroke-width:1;" x1="38.9551" x2="567.6118" y1="403.7578" y2="403.7578"/><text fill="#000000" font-family="sans-serif" font-size="13" lengthAdjust="spacing" textLength="43.4814" x="45.9551" y="398.6919">Create</text><path d="M10,418.7578 L146.2222,418.7578 L146.2222,425.8906 L136.2222,435.8906 L10,435.8906 L10,418.7578 " fill="#EEEEEE" style="stroke:#000000;stroke-width:1.5;"/><rect fill="transparent" height="75.3984" style="stroke:#000000;stroke-width:1.5;" width="654.9629" x="10" y="418.7578"/><text fill="#000000" font-family="sans-serif" font-size="13" font-weight="bold" lengthAdjust="spacing" textLength="91.2222" x="25" y="431.8247">One or more</text><polygon fill="#181818" points="561.6118,453.0234,571.6118,457.0234,561.6118,461.0234,565.6118,457.0234" style="stroke:#181818;stroke-width:1;"/><line style="stroke:#181818;stroke-width:1;" x1="38.9551" x2="567.6118" y1="457.0234" y2="457.0234"/><text fill="#000000" font-family="sans-serif" font-size="13" lengthAdjust="spacing" textLength="195.8379" x="45.9551" y="451.9575">Add DeadlineMonitor instance</text><polygon fill="#181818" points="561.6118,482.1563,571.6118,486.1563,561.6118,490.1563,565.6118,486.1563" style="stroke:#181818;stroke-width:1;"/><line style="stroke:#181818;stroke-width:1;" x1="38.9551" x2="567.6118" y1="486.1563" y2="486.1563"/><text fill="#000000" font-family="sans-serif" font-size="13" lengthAdjust="spacing" textLength="172.3579" x="45.9551" y="481.0903">Add LogicMonitor instance</text><polygon fill="#181818" points="561.6118,518.2891,571.6118,522.2891,561.6118,526.2891,565.6118,522.2891" style="stroke:#181818;stroke-width:1;"/><line style="stroke:#181818;stroke-width:1;" x1="38.9551" x2="567.6118" y1="522.2891" y2="522.2891"/><text fill="#000000" font-family="sans-serif" font-size="13" lengthAdjust="spacing" textLength="32.6333" x="45.9551" y="517.2231">Build</text><polygon fill="#181818" points="49.9551,547.4219,39.9551,551.4219,49.9551,555.4219,45.9551,551.4219" style="stroke:#181818;stroke-width:1;"/><line style="stroke:#181818;stroke-width:1;stroke-dasharray:2.0,2.0;" x1="43.9551" x2="572.6118" y1="551.4219" y2="551.4219"/><text fill="#000000" font-family="sans-serif" font-size="13" lengthAdjust="spacing" textLength="151.3091" x="55.9551" y="546.356">HealthMonitor instance</text><line style="stroke:#181818;stroke-width:1;" x1="721.5576" x2="763.5576" y1="580.5547" y2="580.5547"/><line style="stroke:#181818;stroke-width:1;" x1="763.5576" x2="763.5576" y1="580.5547" y2="593.5547"/><line style="stroke:#181818;stroke-width:1;" x1="722.5576" x2="763.5576" y1="593.5547" y2="593.5547"/><polygon fill="#181818" points="732.5576,589.5547,722.5576,593.5547,732.5576,597.5547,728.5576,593.5547" style="stroke:#181818;stroke-width:1;"/><text fill="#000000" font-family="sans-serif" font-size="13" lengthAdjust="spacing" textLength="209.6187" x="728.5576" y="575.4888">Repeatedly test added monitors</text><path d="M414,567.9219 L414,592.9219 L715,592.9219 L715,577.9219 L705,567.9219 L414,567.9219 " fill="#FEFFDD" style="stroke:#181818;stroke-width:0.5;"/><path d="M705,567.9219 L705,577.9219 L715,577.9219 L705,567.9219 " fill="#FEFFDD" style="stroke:#181818;stroke-width:0.5;"/><text fill="#000000" font-family="sans-serif" font-size="13" lengthAdjust="spacing" textLength="280.8901" x="420" y="584.9888">The testing is done in a background thread</text><!--SRC=[VP8zRiCm38LtdOB8dWjaAD2VeKEB0arx0CPYBI8qPKWoYjw-T6mWikFMa_3qyV6HCZOb9jXzPaexm0o3wp4LRhX7BR1x8lJ2IgzHsS27WSNFfEzEI_ObjjniWB86dmcbX0qo_4lEY7C3xE_6zd20nqHOg5QEL234UCwrU6dYnlFUjC6KrM30cWjgGxExtBZBbljLPBDX532NsmeKYT_afqie2JKR7NNXCcMKAcEzq7N0K0TiKnnwU5C20xkOo85z5NVl_TyJRx3RdKbztNmA7Ah0Y-UwreLkAZBYdVeniPSVA9HjCzxRNhgf8ZkDjX-XhtA0Zq0NXBK5jhyjsdIiW732vZmEh1vAiFcz-mK0]--></g></svg>