<svg xmlns="http://www.w3.org/2000/svg" xmlns:xlink="http://www.w3.org/1999/xlink" contentStyleType="text/css" data-diagram-type="DESCRIPTION" height="305px" preserveAspectRatio="none" style="width:376px;height:305px;background:#FFFFFF;" version="1.1" viewBox="0 0 376 305" width="376px" zoomAndPan="magnify"><defs/><g><!--entity DeadlineMonitor--><g id="elem_DeadlineMonitor"><rect fill="#F1F1F1" height="46.2969" rx="2.5" ry="2.5" style="stroke:#181818;stroke-width:0.5;" width="155.3428" x="7" y="253"/><rect fill="#F1F1F1" height="10" style="stroke:#181818;stroke-width:0.5;" width="15" x="142.3428" y="258"/><rect fill="#F1F1F1" height="2" style="stroke:#181818;stroke-width:0.5;" width="4" x="140.3428" y="260"/><rect fill="#F1F1F1" height="2" style="stroke:#181818;stroke-width:0.5;" width="4" x="140.3428" y="264"/><text fill="#000000" font-family="sans-serif" font-size="14" lengthAdjust="spacing" textLength="115.3428" x="22" y="285.9951">DeadlineMonitor</text></g><!--entity LogicMonitor--><g id="elem_LogicMonitor"><rect fill="#F1F1F1" height="46.2969" rx="2.5" ry="2.5" style="stroke:#181818;stroke-width:0.5;" width="130.0566" x="197.5" y="253"/><rect fill="#F1F1F1" height="10" style="stroke:#181818;stroke-width:0.5;" width="15" x="307.5566" y="258"/><rect fill="#F1F1F1" height="2" style="stroke:#181818;stroke-width:0.5;" width="4" x="305.5566" y="260"/><rect fill="#F1F1F1" height="2" style="stroke:#181818;stroke-width:0.5;" width="4" x="305.5566" y="264"/><text fill="#000000" font-family="sans-serif" font-size="14" lengthAdjust="spacing" textLength="90.0566" x="212.5" y="285.9951">LogicMonitor</text></g><!--entity HealthMonitorBuilder--><g id="elem_HealthMonitorBuilder"><rect fill="#F1F1F1" height="46.2969" rx="2.5" ry="2.5" style="stroke:#181818;stroke-width:0.5;" width="188.7021" x="79" y="7"/><rect fill="#F1F1F1" height="10" style="stroke:#181818;stroke-width:0.5;" width="15" x="247.7021" y="12"/><rect fill="#F1F1F1" height="2" style="stroke:#181818;stroke-width:0.5;" width="4" x="245.7021" y="14"/><rect fill="#F1F1F1" height="2" style="stroke:#181818;stroke-width:0.5;" width="4" x="245.7021" y="18"/><text fill="#000000" font-family="sans-serif" font-size="14" lengthAdjust="spacing" textLength="148.7021" x="94" y="39.9951">HealthMonitorBuilder</text></g><!--entity HealthMonitor--><g id="elem_HealthMonitor"><rect fill="#F1F1F1" height="46.2969" rx="2.5" ry="2.5" style="stroke:#181818;stroke-width:0.5;" width="139.1895" x="104" y="130"/><rect fill="#F1F1F1" height="10" style="stroke:#181818;stroke-width:0.5;" width="15" x="223.1895" y="135"/><rect fill="#F1F1F1" height="2" style="stroke:#181818;stroke-width:0.5;" width="4" x="221.1895" y="137"/><rect fill="#F1F1F1" height="2" style="stroke:#181818;stroke-width:0.5;" width="4" x="221.1895" y="141"/><text fill="#000000" font-family="sans-serif" font-size="14" lengthAdjust="spacing" textLength="99.1895" x="119" y="162.9951">HealthMonitor</text></g><!--link HealthMonitorBuilder to HealthMonitor--><g id="link_HealthMonitorBuilder_HealthMonitor"><path d="M173.5,53.19 C173.5,75.03 173.5,102.16 173.5,123.95 " fill="transparent" id="HealthMonitorBuilder-to-HealthMonitor" style="stroke:#181818;stroke-width:1;stroke-dasharray:7.0,7.0;"/><polygon fill="#181818" points="173.5,129.95,177.5,120.95,173.5,124.95,169.5,120.95,173.5,129.95" style="stroke:#181818;stroke-width:1;"/><text fill="#000000" font-family="sans-serif" font-size="13" lengthAdjust="spacing" textLength="31.9668" x="174.5" y="96.0669">build</text></g><!--link HealthMonitor to DeadlineMonitor--><g id="link_HealthMonitor_DeadlineMonitor"><path d="M116.47,176.25 C104.17,183.8 92.71,193.57 85.5,206 C77.38,219.99 76.7306,232.4662 78.7006,246.7562 " fill="transparent" id="HealthMonitor-to-DeadlineMonitor" style="stroke:#181818;stroke-width:1;stroke-dasharray:7.0,7.0;"/><polygon fill="#181818" points="79.52,252.7,82.2534,243.2381,78.8372,247.7468,74.3284,244.3306,79.52,252.7" style="stroke:#181818;stroke-width:1;"/><text fill="#000000" font-family="sans-serif" font-size="13" lengthAdjust="spacing" textLength="132.6914" x="86.5" y="219.0669">provide and monitor</text></g><!--link HealthMonitor to LogicMonitor--><g id="link_HealthMonitor_LogicMonitor"><path d="M197.22,176.18 C206.01,185.01 215.72,195.55 223.5,206 C234.51,220.79 241.9389,233.6627 249.1289,247.6627 " fill="transparent" id="HealthMonitor-to-LogicMonitor" style="stroke:#181818;stroke-width:1;stroke-dasharray:7.0,7.0;"/><polygon fill="#181818" points="251.87,253,251.3166,243.1667,249.5858,248.5523,244.2002,246.8215,251.87,253" style="stroke:#181818;stroke-width:1;"/><text fill="#000000" font-family="sans-serif" font-size="13" lengthAdjust="spacing" textLength="132.6914" x="235.5" y="219.0669">provide and monitor</text></g><!--SRC=[IyxFBSZFIyqhKL1oIKrCoSdCI_NDpyiioIzIuaf6oFdafsScOvFmI4tCASc0oZYLPkQafE9HeCJ5XKs3WfwUdGAAX8ALGX983bKvM1sQCu4g2uhoop9JKXKIyr8KSY6YMFGXUm679W00]--></g></svg>