<svg xmlns="http://www.w3.org/2000/svg" xmlns:xlink="http://www.w3.org/1999/xlink" contentStyleType="text/css" data-diagram-type="CLASS" height="333px" preserveAspectRatio="none" style="width:407px;height:333px;background:#FFFFFF;" version="1.1" viewBox="0 0 407 333" width="407px" zoomAndPan="magnify"><defs/><g><!--class HeartbeatMonitorStatus--><g id="elem_HeartbeatMonitorStatus"><rect codeLine="2" fill="#F1F1F1" height="96.8906" id="HeartbeatMonitorStatus" rx="2.5" ry="2.5" style="stroke:#181818;stroke-width:0.5;" width="211.3623" x="7" y="221"/><ellipse cx="22" cy="237" fill="#EB937F" rx="11" ry="11" style="stroke:#181818;stroke-width:1;"/><path d="M26.1094,243 L18.3906,243 L18.3906,230.6094 L26.1094,230.6094 L26.1094,232.7656 L20.8438,232.7656 L20.8438,235.4375 L25.6094,235.4375 L25.6094,237.5938 L20.8438,237.5938 L20.8438,240.8438 L26.1094,240.8438 L26.1094,243 Z " fill="#000000"/><ellipse cx="41" cy="236.5" fill="#84BE84" rx="3" ry="3" style="stroke:#038048;stroke-width:1;"/><text fill="#000000" font-family="sans-serif" font-size="14" lengthAdjust="spacing" textLength="168.3623" x="47" y="241.8467">HeartbeatMonitorStatus</text><line style="stroke:#181818;stroke-width:0.5;" x1="8" x2="217.3623" y1="253" y2="253"/><text fill="#000000" font-family="sans-serif" font-size="14" lengthAdjust="spacing" textLength="54.2568" x="13" y="269.9951">Healthy</text><text fill="#000000" font-family="sans-serif" font-size="14" lengthAdjust="spacing" textLength="60.8193" x="13" y="286.292">Disabled</text><text fill="#000000" font-family="sans-serif" font-size="14" lengthAdjust="spacing" textLength="68.9609" x="13" y="302.5889">TimedOut</text><line style="stroke:#181818;stroke-width:0.5;" x1="8" x2="217.3623" y1="309.8906" y2="309.8906"/></g><!--class Error--><g id="elem_Error"><rect codeLine="8" fill="#F1F1F1" height="113.1875" id="Error" rx="2.5" ry="2.5" style="stroke:#181818;stroke-width:0.5;" width="116.9863" x="253" y="213"/><ellipse cx="285.6884" cy="229" fill="#EB937F" rx="11" ry="11" style="stroke:#181818;stroke-width:1;"/><path d="M289.7978,235 L282.0791,235 L282.0791,222.6094 L289.7978,222.6094 L289.7978,224.7656 L284.5322,224.7656 L284.5322,227.4375 L289.2978,227.4375 L289.2978,229.5938 L284.5322,229.5938 L284.5322,232.8438 L289.7978,232.8438 L289.7978,235 Z " fill="#000000"/><ellipse cx="308.6192" cy="228.5" fill="#84BE84" rx="3" ry="3" style="stroke:#038048;stroke-width:1;"/><text fill="#000000" font-family="sans-serif" font-size="14" lengthAdjust="spacing" textLength="34.6787" x="314.6192" y="233.8467">Error</text><line style="stroke:#181818;stroke-width:0.5;" x1="254" x2="368.9863" y1="245" y2="245"/><text fill="#000000" font-family="sans-serif" font-size="14" lengthAdjust="spacing" textLength="104.9863" x="259" y="261.9951">BadParameter,</text><text fill="#000000" font-family="sans-serif" font-size="14" lengthAdjust="spacing" textLength="83.8496" x="259" y="278.292">NotAllowed,</text><text fill="#000000" font-family="sans-serif" font-size="14" lengthAdjust="spacing" textLength="102.7168" x="259" y="294.5889">OutOfMemory,</text><text fill="#000000" font-family="sans-serif" font-size="14" lengthAdjust="spacing" textLength="58.7412" x="259" y="310.8857">Generic,</text><line style="stroke:#181818;stroke-width:0.5;" x1="254" x2="368.9863" y1="318.1875" y2="318.1875"/></g><!--class HeartbeatMonitor--><g id="elem_HeartbeatMonitor"><rect codeLine="15" fill="#F1F1F1" height="129.4844" id="HeartbeatMonitor" rx="2.5" ry="2.5" style="stroke:#181818;stroke-width:0.5;" width="377.4355" x="23" y="7"/><ellipse cx="140.0923" cy="23" fill="#ADD1B2" rx="11" ry="11" style="stroke:#181818;stroke-width:1;"/><path d="M143.061,28.6406 Q142.4829,28.9375 141.8423,29.0781 Q141.2017,29.2344 140.4985,29.2344 Q137.9985,29.2344 136.6704,27.5938 Q135.3579,25.9375 135.3579,22.8125 Q135.3579,19.6875 136.6704,18.0313 Q137.9985,16.375 140.4985,16.375 Q141.2017,16.375 141.8423,16.5313 Q142.4985,16.6875 143.061,16.9844 L143.061,19.7031 Q142.436,19.125 141.8423,18.8594 Q141.2485,18.5781 140.6235,18.5781 Q139.2798,18.5781 138.5923,19.6563 Q137.9048,20.7188 137.9048,22.8125 Q137.9048,24.9063 138.5923,25.9844 Q139.2798,27.0469 140.6235,27.0469 Q141.2485,27.0469 141.8423,26.7813 Q142.436,26.5 143.061,25.9219 L143.061,28.6406 Z " fill="#000000"/><ellipse cx="165.5923" cy="22.5" fill="#84BE84" rx="3" ry="3" style="stroke:#038048;stroke-width:1;"/><text fill="#000000" font-family="sans-serif" font-size="14" lengthAdjust="spacing" textLength="123.751" x="171.5923" y="27.8467">HeartbeatMonitor</text><line style="stroke:#181818;stroke-width:0.5;" x1="24" x2="399.4355" y1="39" y2="39"/><line style="stroke:#181818;stroke-width:0.5;" x1="24" x2="399.4355" y1="47" y2="47"/><ellipse cx="34" cy="60.6484" fill="#84BE84" rx="3" ry="3" style="stroke:#038048;stroke-width:1;"/><text fill="#000000" font-family="sans-serif" font-size="14" lengthAdjust="spacing" textLength="351.4355" x="43" y="63.9951">new(maximum_heartbeat_cycle: Duration) -&gt; Self</text><ellipse cx="34" cy="76.9453" fill="#84BE84" rx="3" ry="3" style="stroke:#038048;stroke-width:1;"/><text fill="#000000" font-family="sans-serif" font-size="14" lengthAdjust="spacing" textLength="262.9785" x="43" y="80.292">heartbeat(&amp;self) -&gt; Result&lt;(), Error&gt;</text><ellipse cx="34" cy="93.2422" fill="#84BE84" rx="3" ry="3" style="stroke:#038048;stroke-width:1;"/><text fill="#000000" font-family="sans-serif" font-size="14" lengthAdjust="spacing" textLength="233.7275" x="43" y="96.5889">check_heartbeat(&amp;self) -&gt; Status</text><ellipse cx="34" cy="109.5391" fill="#84BE84" rx="3" ry="3" style="stroke:#038048;stroke-width:1;"/><text fill="#000000" font-family="sans-serif" font-size="14" lengthAdjust="spacing" textLength="241.5547" x="43" y="112.8857">enable(&amp;self) -&gt; Result&lt;(), Error&gt;</text><ellipse cx="34" cy="125.8359" fill="#84BE84" rx="3" ry="3" style="stroke:#038048;stroke-width:1;"/><text fill="#000000" font-family="sans-serif" font-size="14" lengthAdjust="spacing" textLength="244.1387" x="43" y="129.1826">disable(&amp;self) -&gt; Result&lt;(), Error&gt;</text></g><!--reverse link HeartbeatMonitor to HeartbeatMonitorStatus--><g id="link_HeartbeatMonitor_HeartbeatMonitorStatus"><path codeLine="23" d="M173.9483,146.8504 C160.0583,174.3404 149.49,195.26 136.64,220.71 " fill="transparent" id="HeartbeatMonitor-backto-HeartbeatMonitorStatus" style="stroke:#181818;stroke-width:1;"/><polygon fill="#181818" points="179.36,136.14,173.084,139.6913,173.9483,146.8504,180.2243,143.2991,179.36,136.14" style="stroke:#181818;stroke-width:1;"/><text fill="#000000" font-family="sans-serif" font-size="13" lengthAdjust="spacing" textLength="33.5981" x="163.5" y="179.0669">owns</text></g><!--link HeartbeatMonitor to Error--><g id="link_HeartbeatMonitor_Error"><path codeLine="24" d="M243.97,136.14 C256.57,160.84 268.153,183.5355 280.343,207.4255 " fill="transparent" id="HeartbeatMonitor-to-Error" style="stroke:#181818;stroke-width:1;stroke-dasharray:7.0,7.0;"/><polygon fill="#181818" points="283.07,212.77,282.5424,202.9353,280.7975,208.3163,275.4165,206.5713,283.07,212.77" style="stroke:#181818;stroke-width:1;"/></g><!--SRC=[XL7BJiCm4BpdAtn2AKdw0HMA12g2IocYtAEjlLKi_93MQuK8yUyOkt093vzsPsT6k-C6NRJY7e7uYC0xxpHxEZ1m3EAj4kcbeU5nplLM1pWQLBbvrXRLFdBrNbLDzhabydIMtO1w10ABZDHcvC7pjJ5-GbNw9DsVTcWzpGMuGuUaPPiDfO4G5fkTpHk7KstXLTjeX_6BCyXP6jo8RIHWxTrATBque3aLpJUllWW9pDCd3D7mLRrgo_9zeSeHvSlmaw14KrZeFiFutqsLrFuaffCNjrvstMzVin5-Sc4fMQ_xulW1]--></g></svg>