<svg xmlns="http://www.w3.org/2000/svg" xmlns:xlink="http://www.w3.org/1999/xlink" contentStyleType="text/css" data-diagram-type="SEQUENCE" height="885px" preserveAspectRatio="none" style="width:1126px;height:885px;background:#FFFFFF;" version="1.1" viewBox="0 0 1126 885" width="1126px" zoomAndPan="magnify"><defs/><g><rect fill="transparent" height="104.5313" style="stroke:#000000;stroke-width:1.5;" width="802.7139" x="10" y="477.0234"/><rect fill="transparent" height="134.3359" style="stroke:#000000;stroke-width:1.5;" width="500.4004" x="620.0117" y="653.8203"/><rect fill="transparent" height="103.2031" style="stroke:#000000;stroke-width:1.5;" width="480.4004" x="630.0117" y="677.9531"/><g><title>User</title><rect fill="transparent" height="723.8594" width="8" x="34.9551" y="81.2969"/><line style="stroke:#181818;stroke-width:0.5;stroke-dasharray:5.0,5.0;" x1="38" x2="38" y1="81.2969" y2="805.1563"/></g><g><title>DeadlineMonitorBuilder</title><rect fill="transparent" height="723.8594" width="8" x="225.2637" y="81.2969"/><line style="stroke:#181818;stroke-width:0.5;stroke-dasharray:5.0,5.0;" x1="228.8359" x2="228.8359" y1="81.2969" y2="805.1563"/></g><g><title>LogicMonitorBuilder</title><rect fill="transparent" height="723.8594" width="8" x="401.4761" y="81.2969"/><line style="stroke:#181818;stroke-width:0.5;stroke-dasharray:5.0,5.0;" x1="404.6914" x2="404.6914" y1="81.2969" y2="805.1563"/></g><g><title>HeartbeatMonitor</title><rect fill="transparent" height="723.8594" width="8" x="557.1362" y="81.2969"/><line style="stroke:#181818;stroke-width:0.5;stroke-dasharray:5.0,5.0;" x1="560.2607" x2="560.2607" y1="81.2969" y2="805.1563"/></g><g><title>HealthMonitorBuilder</title><rect fill="transparent" height="723.8594" width="8" x="717.3628" y="81.2969"/><line style="stroke:#181818;stroke-width:0.5;stroke-dasharray:5.0,5.0;" x1="721.0117" x2="721.0117" y1="81.2969" y2="805.1563"/></g><g><title>HealthMonitor</title><rect fill="transparent" height="723.8594" width="8" x="865.3086" y="81.2969"/><line style="stroke:#181818;stroke-width:0.5;stroke-dasharray:5.0,5.0;" x1="868.7139" x2="868.7139" y1="81.2969" y2="805.1563"/></g><g><title>LaunchManager</title><rect fill="transparent" height="723.8594" width="8" x="1033.3813" y="81.2969"/><line style="stroke:#181818;stroke-width:0.5;stroke-dasharray:5.0,5.0;" x1="1037.3506" x2="1037.3506" y1="81.2969" y2="805.1563"/></g><text fill="#000000" font-family="sans-serif" font-size="14" lengthAdjust="spacing" textLength="31.9102" x="20" y="77.9951">User</text><ellipse cx="38.9551" cy="13.5" fill="#E2E2F0" rx="8" ry="8" style="stroke:#181818;stroke-width:0.5;"/><path d="M38.9551,21.5 L38.9551,48.5 M25.9551,29.5 L51.9551,29.5 M38.9551,48.5 L25.9551,63.5 M38.9551,48.5 L51.9551,63.5 " fill="transparent" style="stroke:#181818;stroke-width:0.5;"/><text fill="#000000" font-family="sans-serif" font-size="14" lengthAdjust="spacing" textLength="31.9102" x="20" y="817.1514">User</text><ellipse cx="38.9551" cy="828.9531" fill="#E2E2F0" rx="8" ry="8" style="stroke:#181818;stroke-width:0.5;"/><path d="M38.9551,836.9531 L38.9551,863.9531 M25.9551,844.9531 L51.9551,844.9531 M38.9551,863.9531 L25.9551,878.9531 M38.9551,863.9531 L51.9551,878.9531 " fill="transparent" style="stroke:#181818;stroke-width:0.5;"/><rect fill="#E2E2F0" height="30.2969" rx="2.5" ry="2.5" style="stroke:#181818;stroke-width:0.5;" width="178.8555" x="139.8359" y="50"/><text fill="#000000" font-family="sans-serif" font-size="14" lengthAdjust="spacing" textLength="164.8555" x="146.8359" y="69.9951">DeadlineMonitorBuilder</text><rect fill="#E2E2F0" height="30.2969" rx="2.5" ry="2.5" style="stroke:#181818;stroke-width:0.5;" width="178.8555" x="139.8359" y="804.1563"/><text fill="#000000" font-family="sans-serif" font-size="14" lengthAdjust="spacing" textLength="164.8555" x="146.8359" y="824.1514">DeadlineMonitorBuilder</text><rect fill="#E2E2F0" height="30.2969" rx="2.5" ry="2.5" style="stroke:#181818;stroke-width:0.5;" width="153.5693" x="328.6914" y="50"/><text fill="#000000" font-family="sans-serif" font-size="14" lengthAdjust="spacing" textLength="139.5693" x="335.6914" y="69.9951">LogicMonitorBuilder</text><rect fill="#E2E2F0" height="30.2969" rx="2.5" ry="2.5" style="stroke:#181818;stroke-width:0.5;" width="153.5693" x="328.6914" y="804.1563"/><text fill="#000000" font-family="sans-serif" font-size="14" lengthAdjust="spacing" textLength="139.5693" x="335.6914" y="824.1514">LogicMonitorBuilder</text><rect fill="#E2E2F0" height="30.2969" rx="2.5" ry="2.5" style="stroke:#181818;stroke-width:0.5;" width="137.751" x="492.2607" y="50"/><text fill="#000000" font-family="sans-serif" font-size="14" lengthAdjust="spacing" textLength="123.751" x="499.2607" y="69.9951">HeartbeatMonitor</text><rect fill="#E2E2F0" height="30.2969" rx="2.5" ry="2.5" style="stroke:#181818;stroke-width:0.5;" width="137.751" x="492.2607" y="804.1563"/><text fill="#000000" font-family="sans-serif" font-size="14" lengthAdjust="spacing" textLength="123.751" x="499.2607" y="824.1514">HeartbeatMonitor</text><rect fill="#E2E2F0" height="30.2969" rx="2.5" ry="2.5" style="stroke:#181818;stroke-width:0.5;" width="162.7021" x="640.0117" y="50"/><text fill="#000000" font-family="sans-serif" font-size="14" lengthAdjust="spacing" textLength="148.7021" x="647.0117" y="69.9951">HealthMonitorBuilder</text><rect fill="#E2E2F0" height="30.2969" rx="2.5" ry="2.5" style="stroke:#181818;stroke-width:0.5;" width="162.7021" x="640.0117" y="804.1563"/><text fill="#000000" font-family="sans-serif" font-size="14" lengthAdjust="spacing" textLength="148.7021" x="647.0117" y="824.1514">HealthMonitorBuilder</text><rect fill="#E2E2F0" height="30.2969" rx="2.5" ry="2.5" style="stroke:#181818;stroke-width:0.5;" width="113.1895" x="812.7139" y="50"/><text fill="#000000" font-family="sans-serif" font-size="14" lengthAdjust="spacing" textLength="99.1895" x="819.7139" y="69.9951">HealthMonitor</text><rect fill="#E2E2F0" height="30.2969" rx="2.5" ry="2.5" style="stroke:#181818;stroke-width:0.5;" width="113.1895" x="812.7139" y="804.1563"/><text fill="#000000" font-family="sans-serif" font-size="14" lengthAdjust="spacing" textLength="99.1895" x="819.7139" y="824.1514">HealthMonitor</text><rect fill="#E2E2F0" height="30.2969" rx="2.5" ry="2.5" style="stroke:#181818;stroke-width:0.5;" width="126.0615" x="974.3506" y="50"/><text fill="#000000" font-family="sans-serif" font-size="14" lengthAdjust="spacing" textLength="112.0615" x="981.3506" y="69.9951">LaunchManager</text><rect fill="#E2E2F0" height="30.2969" rx="2.5" ry="2.5" style="stroke:#181818;stroke-width:0.5;" width="126.0615" x="974.3506" y="804.1563"/><text fill="#000000" font-family="sans-serif" font-size="14" lengthAdjust="spacing" textLength="112.0615" x="981.3506" y="824.1514">LaunchManager</text><polygon fill="#181818" points="217.2637,108.4297,227.2637,112.4297,217.2637,116.4297,221.2637,112.4297" style="stroke:#181818;stroke-width:1;"/><line style="stroke:#181818;stroke-width:1;" x1="38.9551" x2="223.2637" y1="112.4297" y2="112.4297"/><text fill="#000000" font-family="sans-serif" font-size="13" lengthAdjust="spacing" textLength="43.4814" x="45.9551" y="107.3638">Create</text><polygon fill="#181818" points="217.2637,137.5625,227.2637,141.5625,217.2637,145.5625,221.2637,141.5625" style="stroke:#181818;stroke-width:1;"/><line style="stroke:#181818;stroke-width:1;" x1="38.9551" x2="223.2637" y1="141.5625" y2="141.5625"/><text fill="#000000" font-family="sans-serif" font-size="13" lengthAdjust="spacing" textLength="63.9272" x="45.9551" y="136.4966">Set hooks</text><polygon fill="#181818" points="217.2637,166.6953,227.2637,170.6953,217.2637,174.6953,221.2637,170.6953" style="stroke:#181818;stroke-width:1;"/><line style="stroke:#181818;stroke-width:1;" x1="38.9551" x2="223.2637" y1="170.6953" y2="170.6953"/><text fill="#000000" font-family="sans-serif" font-size="13" lengthAdjust="spacing" textLength="32.6333" x="45.9551" y="165.6294">Build</text><polygon fill="#181818" points="49.9551,195.8281,39.9551,199.8281,49.9551,203.8281,45.9551,199.8281" style="stroke:#181818;stroke-width:1;"/><line style="stroke:#181818;stroke-width:1;stroke-dasharray:2.0,2.0;" x1="43.9551" x2="228.2637" y1="199.8281" y2="199.8281"/><text fill="#000000" font-family="sans-serif" font-size="13" lengthAdjust="spacing" textLength="166.3086" x="55.9551" y="194.7622">DeadlineMonitor instance</text><polygon fill="#181818" points="393.4761,224.9609,403.4761,228.9609,393.4761,232.9609,397.4761,228.9609" style="stroke:#181818;stroke-width:1;"/><line style="stroke:#181818;stroke-width:1;" x1="38.9551" x2="399.4761" y1="228.9609" y2="228.9609"/><text fill="#000000" font-family="sans-serif" font-size="13" lengthAdjust="spacing" textLength="43.4814" x="45.9551" y="223.895">Create</text><polygon fill="#181818" points="393.4761,254.0938,403.4761,258.0938,393.4761,262.0938,397.4761,258.0938" style="stroke:#181818;stroke-width:1;"/><line style="stroke:#181818;stroke-width:1;" x1="38.9551" x2="399.4761" y1="258.0938" y2="258.0938"/><text fill="#000000" font-family="sans-serif" font-size="13" lengthAdjust="spacing" textLength="63.9272" x="45.9551" y="253.0278">Set hooks</text><polygon fill="#181818" points="393.4761,283.2266,403.4761,287.2266,393.4761,291.2266,397.4761,287.2266" style="stroke:#181818;stroke-width:1;"/><line style="stroke:#181818;stroke-width:1;" x1="38.9551" x2="399.4761" y1="287.2266" y2="287.2266"/><text fill="#000000" font-family="sans-serif" font-size="13" lengthAdjust="spacing" textLength="98.2935" x="45.9551" y="282.1606">Set initial state</text><polygon fill="#181818" points="393.4761,312.3594,403.4761,316.3594,393.4761,320.3594,397.4761,316.3594" style="stroke:#181818;stroke-width:1;"/><line style="stroke:#181818;stroke-width:1;" x1="38.9551" x2="399.4761" y1="316.3594" y2="316.3594"/><text fill="#000000" font-family="sans-serif" font-size="13" lengthAdjust="spacing" textLength="185.4087" x="45.9551" y="311.2935">Set allowed state transitions</text><polygon fill="#181818" points="393.4761,341.4922,403.4761,345.4922,393.4761,349.4922,397.4761,345.4922" style="stroke:#181818;stroke-width:1;"/><line style="stroke:#181818;stroke-width:1;" x1="38.9551" x2="399.4761" y1="345.4922" y2="345.4922"/><text fill="#000000" font-family="sans-serif" font-size="13" lengthAdjust="spacing" textLength="32.6333" x="45.9551" y="340.4263">Build</text><polygon fill="#181818" points="49.9551,370.625,39.9551,374.625,49.9551,378.625,45.9551,374.625" style="stroke:#181818;stroke-width:1;"/><line style="stroke:#181818;stroke-width:1;stroke-dasharray:2.0,2.0;" x1="43.9551" x2="404.4761" y1="374.625" y2="374.625"/><text fill="#000000" font-family="sans-serif" font-size="13" lengthAdjust="spacing" textLength="142.8286" x="55.9551" y="369.5591">LogicMonitor instance</text><polygon fill="#181818" points="549.1362,399.7578,559.1362,403.7578,549.1362,407.7578,553.1362,403.7578" style="stroke:#181818;stroke-width:1;"/><line style="stroke:#181818;stroke-width:1;" x1="38.9551" x2="555.1362" y1="403.7578" y2="403.7578"/><text fill="#000000" font-family="sans-serif" font-size="13" lengthAdjust="spacing" textLength="26.8696" x="45.9551" y="398.6919">new</text><polygon fill="#181818" points="49.9551,428.8906,39.9551,432.8906,49.9551,436.8906,45.9551,432.8906" style="stroke:#181818;stroke-width:1;"/><line style="stroke:#181818;stroke-width:1;stroke-dasharray:2.0,2.0;" x1="43.9551" x2="560.1362" y1="432.8906" y2="432.8906"/><text fill="#000000" font-family="sans-serif" font-size="13" lengthAdjust="spacing" textLength="174.1162" x="55.9551" y="427.8247">HeartbeatMonitor instance</text><polygon fill="#181818" points="709.3628,458.0234,719.3628,462.0234,709.3628,466.0234,713.3628,462.0234" style="stroke:#181818;stroke-width:1;"/><line style="stroke:#181818;stroke-width:1;" x1="38.9551" x2="715.3628" y1="462.0234" y2="462.0234"/><text fill="#000000" font-family="sans-serif" font-size="13" lengthAdjust="spacing" textLength="43.4814" x="45.9551" y="456.9575">Create</text><path d="M10,477.0234 L146.2222,477.0234 L146.2222,484.1563 L136.2222,494.1563 L10,494.1563 L10,477.0234 " fill="#EEEEEE" style="stroke:#000000;stroke-width:1.5;"/><rect fill="transparent" height="104.5313" style="stroke:#000000;stroke-width:1.5;" width="802.7139" x="10" y="477.0234"/><text fill="#000000" font-family="sans-serif" font-size="13" font-weight="bold" lengthAdjust="spacing" textLength="91.2222" x="25" y="490.0903">One or more</text><polygon fill="#181818" points="549.1362,511.2891,559.1362,515.2891,549.1362,519.2891,553.1362,515.2891" style="stroke:#181818;stroke-width:1;"/><line style="stroke:#181818;stroke-width:1;" x1="38.9551" x2="555.1362" y1="515.2891" y2="515.2891"/><text fill="#000000" font-family="sans-serif" font-size="13" lengthAdjust="spacing" textLength="203.6455" x="45.9551" y="510.2231">Add HeartbeatMonitor instance</text><polygon fill="#181818" points="709.3628,540.4219,719.3628,544.4219,709.3628,548.4219,713.3628,544.4219" style="stroke:#181818;stroke-width:1;"/><line style="stroke:#181818;stroke-width:1;" x1="38.9551" x2="715.3628" y1="544.4219" y2="544.4219"/><text fill="#000000" font-family="sans-serif" font-size="13" lengthAdjust="spacing" textLength="195.8379" x="45.9551" y="539.356">Add DeadlineMonitor instance</text><polygon fill="#181818" points="709.3628,569.5547,719.3628,573.5547,709.3628,577.5547,713.3628,573.5547" style="stroke:#181818;stroke-width:1;"/><line style="stroke:#181818;stroke-width:1;" x1="38.9551" x2="715.3628" y1="573.5547" y2="573.5547"/><text fill="#000000" font-family="sans-serif" font-size="13" lengthAdjust="spacing" textLength="172.3579" x="45.9551" y="568.4888">Add LogicMonitor instance</text><polygon fill="#181818" points="709.3628,605.6875,719.3628,609.6875,709.3628,613.6875,713.3628,609.6875" style="stroke:#181818;stroke-width:1;"/><line style="stroke:#181818;stroke-width:1;" x1="38.9551" x2="715.3628" y1="609.6875" y2="609.6875"/><text fill="#000000" font-family="sans-serif" font-size="13" lengthAdjust="spacing" textLength="32.6333" x="45.9551" y="604.6216">Build</text><polygon fill="#181818" points="49.9551,634.8203,39.9551,638.8203,49.9551,642.8203,45.9551,638.8203" style="stroke:#181818;stroke-width:1;"/><line style="stroke:#181818;stroke-width:1;stroke-dasharray:2.0,2.0;" x1="43.9551" x2="720.3628" y1="638.8203" y2="638.8203"/><text fill="#000000" font-family="sans-serif" font-size="13" lengthAdjust="spacing" textLength="151.3091" x="55.9551" y="633.7544">HealthMonitor instance</text><path d="M620.0117,653.8203 L696.6357,653.8203 L696.6357,660.9531 L686.6357,670.9531 L620.0117,670.9531 L620.0117,653.8203 " fill="#EEEEEE" style="stroke:#000000;stroke-width:1.5;"/><rect fill="transparent" height="134.3359" style="stroke:#000000;stroke-width:1.5;" width="500.4004" x="620.0117" y="653.8203"/><text fill="#000000" font-family="sans-serif" font-size="13" font-weight="bold" lengthAdjust="spacing" textLength="31.624" x="635.0117" y="666.8872">loop</text><text fill="#000000" font-family="sans-serif" font-size="11" font-weight="bold" lengthAdjust="spacing" textLength="255.2559" x="711.6357" y="666.0308">[Test monitors (in a background thread)]</text><path d="M630.0117,677.9531 L694.4546,677.9531 L694.4546,685.0859 L684.4546,695.0859 L630.0117,695.0859 L630.0117,677.9531 " fill="#EEEEEE" style="stroke:#000000;stroke-width:1.5;"/><rect fill="transparent" height="103.2031" style="stroke:#000000;stroke-width:1.5;" width="480.4004" x="630.0117" y="677.9531"/><text fill="#000000" font-family="sans-serif" font-size="13" font-weight="bold" lengthAdjust="spacing" textLength="19.4429" x="645.0117" y="691.02">alt</text><text fill="#000000" font-family="sans-serif" font-size="11" font-weight="bold" lengthAdjust="spacing" textLength="135.9209" x="709.4546" y="690.1636">[All monitors healthy]</text><polygon fill="#181818" points="1025.3813,712.2188,1035.3813,716.2188,1025.3813,720.2188,1029.3813,716.2188" style="stroke:#181818;stroke-width:1;"/><line style="stroke:#181818;stroke-width:1;stroke-dasharray:2.0,2.0;" x1="869.3086" x2="1031.3813" y1="716.2188" y2="716.2188"/><text fill="#000000" font-family="sans-serif" font-size="13" lengthAdjust="spacing" textLength="144.0728" x="876.3086" y="711.1528">Alive notification (IPC)</text><line style="stroke:#000000;stroke-width:1;stroke-dasharray:2.0,2.0;" x1="630.0117" x2="1110.4121" y1="725.2188" y2="725.2188"/><text fill="#000000" font-family="sans-serif" font-size="11" font-weight="bold" lengthAdjust="spacing" textLength="212.7168" x="635.0117" y="735.4292">[One or more monitors unhealthy]</text><line style="stroke:#181818;stroke-width:1;" x1="721.3628" x2="763.3628" y1="760.1563" y2="760.1563"/><line style="stroke:#181818;stroke-width:1;" x1="763.3628" x2="763.3628" y1="760.1563" y2="773.1563"/><line style="stroke:#181818;stroke-width:1;" x1="722.3628" x2="763.3628" y1="773.1563" y2="773.1563"/><polygon fill="#181818" points="732.3628,769.1563,722.3628,773.1563,732.3628,777.1563,728.3628,773.1563" style="stroke:#181818;stroke-width:1;"/><text fill="#000000" font-family="sans-serif" font-size="13" lengthAdjust="spacing" textLength="37.0894" x="728.3628" y="755.0903">break</text><path d="M777.0894,747.5234 L777.0894,772.5234 L979.0894,772.5234 L979.0894,757.5234 L969.0894,747.5234 L777.0894,747.5234 " fill="#FEFFDD" style="stroke:#181818;stroke-width:0.5;"/><path d="M969.0894,747.5234 L969.0894,757.5234 L979.0894,757.5234 L969.0894,747.5234 " fill="#FEFFDD" style="stroke:#181818;stroke-width:0.5;"/><text fill="#000000" font-family="sans-serif" font-size="13" lengthAdjust="spacing" textLength="181.2256" x="783.0894" y="764.5903">Alive notification is not sent</text><!--SRC=[VP91JiCm44NtESMegxBe1LWWbR80YGeau02JUAYjkkF8TgYuFMCdD6uIi1J97Zz___aEDj5vM7q4yYl005tLee-cCIroXDK3eRA6QU_O27ZV6Qi6KftgQ_RP7Kop0Def-4YogWdZ06TArwSPPQDUqDCBUYCv81Dhs76ZzyXuk9YggWusTwaDk8MT5pjKLjueWdRk6CfYjb6b-KPgdLGc0O7X494R6jJjJDqkgOz58p86BOZA_0HQwywa-as87Za8xVXAfVTe2u_bmqmDIkn2C9shDFizCNsXsQcohODtNGilJ23WoNcgG4QXlbNg7yKHpg89_ZFK1NQvEM9LEkqpqKKcL__CUCuwry8xXIYDvAq0QyE0K6DpJ8soWgYbRtMJpOW8RAqTQPrrl_Dc6heFrUOShFaYO1VDfsamFHoidrvtlHBPG6M8esJ7Sz5wxAqMDyVBbgWJU7FGSVb24z8Q0d7ihvMWvFi1]--></g></svg>