<svg xmlns="http://www.w3.org/2000/svg" xmlns:xlink="http://www.w3.org/1999/xlink" contentStyleType="text/css" data-diagram-type="SEQUENCE" height="895px" preserveAspectRatio="none" style="width:1080px;height:895px;background:#FFFFFF;" version="1.1" viewBox="0 0 1080 895" width="1080px" zoomAndPan="magnify"><defs/><g><rect fill="#DDDDDD" height="883.25" style="stroke:#181818;stroke-width:0.5;" width="519.2749" x="175" y="6"/><text fill="#000000" font-family="sans-serif" font-size="13" font-weight="bold" lengthAdjust="spacing" textLength="94.6943" x="387.2903" y="18.0669">User process</text><rect fill="#DDDDDD" height="883.25" style="stroke:#181818;stroke-width:0.5;" width="179.8115" x="791.811" y="6"/><text fill="#000000" font-family="sans-serif" font-size="13" font-weight="bold" lengthAdjust="spacing" textLength="173.8115" x="794.811" y="18.0669">LaunchDaemon process</text><g><title>main</title><rect fill="#FFFFFF" height="71.2656" style="stroke:#FFFFFF;stroke-width:1;" width="10" x="198.4897" y="147.6953"/><line style="stroke:#181818;stroke-width:1;" x1="198.4897" x2="198.4897" y1="147.6953" y2="218.9609"/><line style="stroke:#181818;stroke-width:1;" x1="208.4897" x2="208.4897" y1="147.6953" y2="218.9609"/><line style="stroke:#181818;stroke-width:1;" x1="198.4897" x2="208.4897" y1="147.6953" y2="147.6953"/></g><g><title>main</title><rect fill="#FFFFFF" height="27.1328" style="stroke:#FFFFFF;stroke-width:1;" width="10" x="198.4897" y="246.9609"/><line style="stroke:#181818;stroke-width:1;" x1="198.4897" x2="198.4897" y1="246.9609" y2="274.0938"/><line style="stroke:#181818;stroke-width:1;" x1="208.4897" x2="208.4897" y1="246.9609" y2="274.0938"/><line style="stroke:#181818;stroke-width:1;" x1="198.4897" x2="208.4897" y1="274.0938" y2="274.0938"/></g><g><title>main</title><rect fill="#FFFFFF" height="125.3984" style="stroke:#181818;stroke-width:1;" width="10" x="198.4897" y="704.5547"/></g><rect fill="transparent" height="215.6641" style="stroke:#000000;stroke-width:1.5;" width="884.7842" x="169" y="73.4297"/><rect fill="transparent" height="534.8594" style="stroke:#000000;stroke-width:1.5;" width="1054.6602" x="9" y="303.0938"/><rect fill="transparent" height="127.6641" style="stroke:#000000;stroke-width:1.5;" width="562.6602" x="491" y="398.3594"/><rect fill="transparent" height="46.2656" style="stroke:#000000;stroke-width:1.5;" width="348.728" x="604.8608" y="472.7578"/><g><title>main</title><rect fill="transparent" height="34.1328" width="8" x="199.4897" y="56.4297"/><line style="stroke:#181818;stroke-width:0.5;stroke-dasharray:5.0,5.0;" x1="203" x2="203" y1="56.4297" y2="90.5625"/></g><line style="stroke:#A80036;stroke-width:1;stroke-dasharray:1.0,4.0;" x1="203" x2="203" y1="90.5625" y2="118.5625"/><g><title>main</title><rect fill="transparent" height="100.3984" width="8" x="199.4897" y="118.5625"/><line style="stroke:#181818;stroke-width:0.5;stroke-dasharray:5.0,5.0;" x1="203" x2="203" y1="118.5625" y2="218.9609"/></g><line style="stroke:#A80036;stroke-width:1;stroke-dasharray:1.0,4.0;" x1="203" x2="203" y1="218.9609" y2="246.9609"/><g><title>main</title><rect fill="transparent" height="116.3984" width="8" x="199.4897" y="246.9609"/><line style="stroke:#181818;stroke-width:0.5;stroke-dasharray:5.0,5.0;" x1="203" x2="203" y1="246.9609" y2="363.3594"/></g><line style="stroke:#A80036;stroke-width:1;stroke-dasharray:1.0,4.0;" x1="203" x2="203" y1="363.3594" y2="391.3594"/><g><title>main</title><rect fill="transparent" height="256.0625" width="8" x="199.4897" y="391.3594"/><line style="stroke:#181818;stroke-width:0.5;stroke-dasharray:5.0,5.0;" x1="203" x2="203" y1="391.3594" y2="647.4219"/></g><line style="stroke:#A80036;stroke-width:1;stroke-dasharray:1.0,4.0;" x1="203" x2="203" y1="647.4219" y2="675.4219"/><g><title>main</title><rect fill="transparent" height="179.5313" width="8" x="199.4897" y="675.4219"/><line style="stroke:#181818;stroke-width:0.5;stroke-dasharray:5.0,5.0;" x1="203" x2="203" y1="675.4219" y2="854.9531"/></g><g><title>HealthMonitorBuilder</title><rect fill="transparent" height="34.1328" width="8" x="315.3306" y="56.4297"/><line style="stroke:#181818;stroke-width:0.5;stroke-dasharray:5.0,5.0;" x1="318.9795" x2="318.9795" y1="56.4297" y2="90.5625"/></g><line style="stroke:#A80036;stroke-width:1;stroke-dasharray:1.0,4.0;" x1="318.9795" x2="318.9795" y1="90.5625" y2="118.5625"/><g><title>HealthMonitorBuilder</title><rect fill="transparent" height="100.3984" width="8" x="315.3306" y="118.5625"/><line style="stroke:#181818;stroke-width:0.5;stroke-dasharray:5.0,5.0;" x1="318.9795" x2="318.9795" y1="118.5625" y2="218.9609"/></g><line style="stroke:#A80036;stroke-width:1;stroke-dasharray:1.0,4.0;" x1="318.9795" x2="318.9795" y1="218.9609" y2="246.9609"/><g><title>HealthMonitorBuilder</title><rect fill="transparent" height="116.3984" width="8" x="315.3306" y="246.9609"/><line style="stroke:#181818;stroke-width:0.5;stroke-dasharray:5.0,5.0;" x1="318.9795" x2="318.9795" y1="246.9609" y2="363.3594"/></g><line style="stroke:#A80036;stroke-width:1;stroke-dasharray:1.0,4.0;" x1="318.9795" x2="318.9795" y1="363.3594" y2="391.3594"/><g><title>HealthMonitorBuilder</title><rect fill="transparent" height="256.0625" width="8" x="315.3306" y="391.3594"/><line style="stroke:#181818;stroke-width:0.5;stroke-dasharray:5.0,5.0;" x1="318.9795" x2="318.9795" y1="391.3594" y2="647.4219"/></g><line style="stroke:#A80036;stroke-width:1;stroke-dasharray:1.0,4.0;" x1="318.9795" x2="318.9795" y1="647.4219" y2="675.4219"/><g><title>HealthMonitorBuilder</title><rect fill="transparent" height="179.5313" width="8" x="315.3306" y="675.4219"/><line style="stroke:#181818;stroke-width:0.5;stroke-dasharray:5.0,5.0;" x1="318.9795" x2="318.9795" y1="675.4219" y2="854.9531"/></g><g><title>HealthMonitor</title><rect fill="transparent" height="34.1328" width="8" x="463.2764" y="56.4297"/><line style="stroke:#181818;stroke-width:0.5;stroke-dasharray:5.0,5.0;" x1="466.6816" x2="466.6816" y1="56.4297" y2="90.5625"/></g><line style="stroke:#A80036;stroke-width:1;stroke-dasharray:1.0,4.0;" x1="466.6816" x2="466.6816" y1="90.5625" y2="118.5625"/><g><title>HealthMonitor</title><rect fill="transparent" height="100.3984" width="8" x="463.2764" y="118.5625"/><line style="stroke:#181818;stroke-width:0.5;stroke-dasharray:5.0,5.0;" x1="466.6816" x2="466.6816" y1="118.5625" y2="218.9609"/></g><line style="stroke:#A80036;stroke-width:1;stroke-dasharray:1.0,4.0;" x1="466.6816" x2="466.6816" y1="218.9609" y2="246.9609"/><g><title>HealthMonitor</title><rect fill="transparent" height="116.3984" width="8" x="463.2764" y="246.9609"/><line style="stroke:#181818;stroke-width:0.5;stroke-dasharray:5.0,5.0;" x1="466.6816" x2="466.6816" y1="246.9609" y2="363.3594"/></g><line style="stroke:#A80036;stroke-width:1;stroke-dasharray:1.0,4.0;" x1="466.6816" x2="466.6816" y1="363.3594" y2="391.3594"/><g><title>HealthMonitor</title><rect fill="transparent" height="256.0625" width="8" x="463.2764" y="391.3594"/><line style="stroke:#181818;stroke-width:0.5;stroke-dasharray:5.0,5.0;" x1="466.6816" x2="466.6816" y1="391.3594" y2="647.4219"/></g><line style="stroke:#A80036;stroke-width:1;stroke-dasharray:1.0,4.0;" x1="466.6816" x2="466.6816" y1="647.4219" y2="675.4219"/><g><title>HealthMonitor</title><rect fill="transparent" height="179.5313" width="8" x="463.2764" y="675.4219"/><line style="stroke:#181818;stroke-width:0.5;stroke-dasharray:5.0,5.0;" x1="466.6816" x2="466.6816" y1="675.4219" y2="854.9531"/></g><g><title>Lifecycle</title><rect fill="transparent" height="34.1328" width="8" x="648.5679" y="56.4297"/><line style="stroke:#181818;stroke-width:0.5;stroke-dasharray:5.0,5.0;" x1="651.8608" x2="651.8608" y1="56.4297" y2="90.5625"/></g><line style="stroke:#A80036;stroke-width:1;stroke-dasharray:1.0,4.0;" x1="651.8608" x2="651.8608" y1="90.5625" y2="118.5625"/><g><title>Lifecycle</title><rect fill="transparent" height="100.3984" width="8" x="648.5679" y="118.5625"/><line style="stroke:#181818;stroke-width:0.5;stroke-dasharray:5.0,5.0;" x1="651.8608" x2="651.8608" y1="118.5625" y2="218.9609"/></g><line style="stroke:#A80036;stroke-width:1;stroke-dasharray:1.0,4.0;" x1="651.8608" x2="651.8608" y1="218.9609" y2="246.9609"/><g><title>Lifecycle</title><rect fill="transparent" height="116.3984" width="8" x="648.5679" y="246.9609"/><line style="stroke:#181818;stroke-width:0.5;stroke-dasharray:5.0,5.0;" x1="651.8608" x2="651.8608" y1="246.9609" y2="363.3594"/></g><line style="stroke:#A80036;stroke-width:1;stroke-dasharray:1.0,4.0;" x1="651.8608" x2="651.8608" y1="363.3594" y2="391.3594"/><g><title>Lifecycle</title><rect fill="transparent" height="256.0625" width="8" x="648.5679" y="391.3594"/><line style="stroke:#181818;stroke-width:0.5;stroke-dasharray:5.0,5.0;" x1="651.8608" x2="651.8608" y1="391.3594" y2="647.4219"/></g><line style="stroke:#A80036;stroke-width:1;stroke-dasharray:1.0,4.0;" x1="651.8608" x2="651.8608" y1="647.4219" y2="675.4219"/><g><title>Lifecycle</title><rect fill="transparent" height="179.5313" width="8" x="648.5679" y="675.4219"/><line style="stroke:#181818;stroke-width:0.5;stroke-dasharray:5.0,5.0;" x1="651.8608" x2="651.8608" y1="675.4219" y2="854.9531"/></g><g><title>LaunchDaemon</title><rect fill="transparent" height="34.1328" width="8" x="877.7168" y="56.4297"/><line style="stroke:#181818;stroke-width:0.5;stroke-dasharray:5.0,5.0;" x1="880.8447" x2="880.8447" y1="56.4297" y2="90.5625"/></g><line style="stroke:#A80036;stroke-width:1;stroke-dasharray:1.0,4.0;" x1="880.8447" x2="880.8447" y1="90.5625" y2="118.5625"/><g><title>LaunchDaemon</title><rect fill="transparent" height="100.3984" width="8" x="877.7168" y="118.5625"/><line style="stroke:#181818;stroke-width:0.5;stroke-dasharray:5.0,5.0;" x1="880.8447" x2="880.8447" y1="118.5625" y2="218.9609"/></g><line style="stroke:#A80036;stroke-width:1;stroke-dasharray:1.0,4.0;" x1="880.8447" x2="880.8447" y1="218.9609" y2="246.9609"/><g><title>LaunchDaemon</title><rect fill="transparent" height="116.3984" width="8" x="877.7168" y="246.9609"/><line style="stroke:#181818;stroke-width:0.5;stroke-dasharray:5.0,5.0;" x1="880.8447" x2="880.8447" y1="246.9609" y2="363.3594"/></g><line style="stroke:#A80036;stroke-width:1;stroke-dasharray:1.0,4.0;" x1="880.8447" x2="880.8447" y1="363.3594" y2="391.3594"/><g><title>LaunchDaemon</title><rect fill="transparent" height="256.0625" width="8" x="877.7168" y="391.3594"/><line style="stroke:#181818;stroke-width:0.5;stroke-dasharray:5.0,5.0;" x1="880.8447" x2="880.8447" y1="391.3594" y2="647.4219"/></g><line style="stroke:#A80036;stroke-width:1;stroke-dasharray:1.0,4.0;" x1="880.8447" x2="880.8447" y1="647.4219" y2="675.4219"/><g><title>LaunchDaemon</title><rect fill="transparent" height="179.5313" width="8" x="877.7168" y="675.4219"/><line style="stroke:#181818;stroke-width:0.5;stroke-dasharray:5.0,5.0;" x1="880.8447" x2="880.8447" y1="675.4219" y2="854.9531"/></g><rect fill="#E2E2F0" height="30.2969" rx="2.5" ry="2.5" style="stroke:#181818;stroke-width:0.5;" width="48.9795" x="179" y="25.1328"/><text fill="#000000" font-family="sans-serif" font-size="14" lengthAdjust="spacing" textLength="34.9795" x="186" y="45.1279">main</text><rect fill="#E2E2F0" height="30.2969" rx="2.5" ry="2.5" style="stroke:#181818;stroke-width:0.5;" width="48.9795" x="179" y="853.9531"/><text fill="#000000" font-family="sans-serif" font-size="14" lengthAdjust="spacing" textLength="34.9795" x="186" y="873.9482">main</text><rect fill="#E2E2F0" height="30.2969" rx="2.5" ry="2.5" style="stroke:#181818;stroke-width:0.5;" width="162.7021" x="237.9795" y="25.1328"/><text fill="#000000" font-family="sans-serif" font-size="14" lengthAdjust="spacing" textLength="148.7021" x="244.9795" y="45.1279">HealthMonitorBuilder</text><rect fill="#E2E2F0" height="30.2969" rx="2.5" ry="2.5" style="stroke:#181818;stroke-width:0.5;" width="162.7021" x="237.9795" y="853.9531"/><text fill="#000000" font-family="sans-serif" font-size="14" lengthAdjust="spacing" textLength="148.7021" x="244.9795" y="873.9482">HealthMonitorBuilder</text><rect fill="#E2E2F0" height="30.2969" rx="2.5" ry="2.5" style="stroke:#181818;stroke-width:0.5;" width="113.1895" x="410.6816" y="25.1328"/><text fill="#000000" font-family="sans-serif" font-size="14" lengthAdjust="spacing" textLength="99.1895" x="417.6816" y="45.1279">HealthMonitor</text><rect fill="#E2E2F0" height="30.2969" rx="2.5" ry="2.5" style="stroke:#181818;stroke-width:0.5;" width="113.1895" x="410.6816" y="853.9531"/><text fill="#000000" font-family="sans-serif" font-size="14" lengthAdjust="spacing" textLength="99.1895" x="417.6816" y="873.9482">HealthMonitor</text><rect fill="#E2E2F0" height="30.2969" rx="2.5" ry="2.5" style="stroke:#181818;stroke-width:0.5;" width="75.4141" x="614.8608" y="25.1328"/><text fill="#000000" font-family="sans-serif" font-size="14" lengthAdjust="spacing" textLength="61.4141" x="621.8608" y="45.1279">Lifecycle</text><rect fill="#E2E2F0" height="30.2969" rx="2.5" ry="2.5" style="stroke:#181818;stroke-width:0.5;" width="75.4141" x="614.8608" y="853.9531"/><text fill="#000000" font-family="sans-serif" font-size="14" lengthAdjust="spacing" textLength="61.4141" x="621.8608" y="873.9482">Lifecycle</text><rect fill="#E2E2F0" height="30.2969" rx="2.5" ry="2.5" style="stroke:#181818;stroke-width:0.5;" width="123.7441" x="819.8447" y="25.1328"/><text fill="#000000" font-family="sans-serif" font-size="14" lengthAdjust="spacing" textLength="109.7441" x="826.8447" y="45.1279">LaunchDaemon</text><rect fill="#E2E2F0" height="30.2969" rx="2.5" ry="2.5" style="stroke:#181818;stroke-width:0.5;" width="123.7441" x="819.8447" y="853.9531"/><text fill="#000000" font-family="sans-serif" font-size="14" lengthAdjust="spacing" textLength="109.7441" x="826.8447" y="873.9482">LaunchDaemon</text><g><title>main</title><rect fill="#FFFFFF" height="71.2656" style="stroke:#FFFFFF;stroke-width:1;" width="10" x="198.4897" y="147.6953"/><line style="stroke:#181818;stroke-width:1;" x1="198.4897" x2="198.4897" y1="147.6953" y2="218.9609"/><line style="stroke:#181818;stroke-width:1;" x1="208.4897" x2="208.4897" y1="147.6953" y2="218.9609"/><line style="stroke:#181818;stroke-width:1;" x1="198.4897" x2="208.4897" y1="147.6953" y2="147.6953"/></g><g><title>main</title><rect fill="#FFFFFF" height="27.1328" style="stroke:#FFFFFF;stroke-width:1;" width="10" x="198.4897" y="246.9609"/><line style="stroke:#181818;stroke-width:1;" x1="198.4897" x2="198.4897" y1="246.9609" y2="274.0938"/><line style="stroke:#181818;stroke-width:1;" x1="208.4897" x2="208.4897" y1="246.9609" y2="274.0938"/><line style="stroke:#181818;stroke-width:1;" x1="198.4897" x2="208.4897" y1="274.0938" y2="274.0938"/></g><g><title>main</title><rect fill="#FFFFFF" height="125.3984" style="stroke:#181818;stroke-width:1;" width="10" x="198.4897" y="704.5547"/></g><path d="M169,73.4297 L461.6094,73.4297 L461.6094,80.5625 L451.6094,90.5625 L169,90.5625 L169,73.4297 " fill="#EEEEEE" style="stroke:#000000;stroke-width:1.5;"/><rect fill="transparent" height="215.6641" style="stroke:#000000;stroke-width:1.5;" width="884.7842" x="169" y="73.4297"/><text fill="#000000" font-family="sans-serif" font-size="13" font-weight="bold" lengthAdjust="spacing" textLength="247.6094" x="184" y="86.4966">APPLICATION_SELF_TERMINATING</text><line style="stroke:#181818;stroke-width:1;" x1="203.4897" x2="250.4897" y1="134.6953" y2="134.6953"/><line style="stroke:#181818;stroke-width:1;" x1="250.4897" x2="250.4897" y1="134.6953" y2="147.6953"/><line style="stroke:#181818;stroke-width:1;" x1="209.4897" x2="250.4897" y1="147.6953" y2="147.6953"/><polygon fill="#181818" points="219.4897,143.6953,209.4897,147.6953,219.4897,151.6953,215.4897,147.6953" style="stroke:#181818;stroke-width:1;"/><text fill="#000000" font-family="sans-serif" font-size="13" lengthAdjust="spacing" textLength="98.2871" x="215.4897" y="129.6294">end_of_scope()</text><polygon fill="#181818" points="455.2764,177.8281,465.2764,181.8281,455.2764,185.8281,459.2764,181.8281" style="stroke:#181818;stroke-width:1;"/><line style="stroke:#181818;stroke-width:1;" x1="208.4897" x2="461.2764" y1="181.8281" y2="181.8281"/><text fill="#000000" font-family="sans-serif" font-size="13" lengthAdjust="spacing" textLength="59.2554" x="215.4897" y="176.7622">destroy()</text><polygon fill="#181818" points="869.7168,206.9609,879.7168,210.9609,869.7168,214.9609,873.7168,210.9609" style="stroke:#181818;stroke-width:1;"/><line style="stroke:#181818;stroke-width:1;" x1="467.2764" x2="875.7168" y1="210.9609" y2="210.9609"/><text fill="#000000" font-family="sans-serif" font-size="13" lengthAdjust="spacing" textLength="176.5156" x="474.2764" y="205.895">notify_stopped(timestamp)</text><line style="stroke:#181818;stroke-width:1;" x1="881.7168" x2="923.7168" y1="268.0938" y2="268.0938"/><line style="stroke:#181818;stroke-width:1;" x1="923.7168" x2="923.7168" y1="268.0938" y2="281.0938"/><line style="stroke:#181818;stroke-width:1;" x1="882.7168" x2="923.7168" y1="281.0938" y2="281.0938"/><polygon fill="#181818" points="892.7168,277.0938,882.7168,281.0938,892.7168,285.0938,888.7168,281.0938" style="stroke:#181818;stroke-width:1;"/><text fill="#000000" font-family="sans-serif" font-size="13" lengthAdjust="spacing" textLength="153.0674" x="888.7168" y="263.0278">stop_alive_monitoring()</text><path d="M9,303.0938 L500.0435,303.0938 L500.0435,310.2266 L490.0435,320.2266 L9,320.2266 L9,303.0938 " fill="#EEEEEE" style="stroke:#000000;stroke-width:1.5;"/><rect fill="transparent" height="534.8594" style="stroke:#000000;stroke-width:1.5;" width="1054.6602" x="9" y="303.0938"/><text fill="#000000" font-family="sans-serif" font-size="13" font-weight="bold" lengthAdjust="spacing" textLength="446.0435" x="24" y="316.1606">APPLICATION_TERMINATING_ON_LAUNCH_DAEMON_REQUEST</text><rect fill="#EEEEEE" height="3" style="stroke:#EEEEEE;stroke-width:1;" width="1073.6602" x="0" y="340.793"/><line style="stroke:#000000;stroke-width:1;" x1="0" x2="1073.6602" y1="340.793" y2="340.793"/><line style="stroke:#000000;stroke-width:1;" x1="0" x2="1073.6602" y1="343.793" y2="343.793"/><rect fill="#EEEEEE" height="23.1328" style="stroke:#000000;stroke-width:2;" width="167.6323" x="453.0139" y="330.2266"/><text fill="#000000" font-family="sans-serif" font-size="13" font-weight="bold" lengthAdjust="spacing" textLength="149.1064" x="459.0139" y="346.2935">LaunchDaemon Side</text><path d="M491,398.3594 L555.4429,398.3594 L555.4429,405.4922 L545.4429,415.4922 L491,415.4922 L491,398.3594 " fill="#EEEEEE" style="stroke:#000000;stroke-width:1.5;"/><rect fill="transparent" height="127.6641" style="stroke:#000000;stroke-width:1.5;" width="562.6602" x="491" y="398.3594"/><text fill="#000000" font-family="sans-serif" font-size="13" font-weight="bold" lengthAdjust="spacing" textLength="19.4429" x="506" y="411.4263">alt</text><text fill="#000000" font-family="sans-serif" font-size="11" font-weight="bold" lengthAdjust="spacing" textLength="215.8589" x="570.4429" y="410.5698">[EXTERNAL_SHUTDOWN_REQUEST]</text><line style="stroke:#181818;stroke-width:1;" x1="881.7168" x2="923.7168" y1="440.6914" y2="440.6914"/><line style="stroke:#181818;stroke-width:1;" x1="923.7168" x2="923.7168" y1="440.6914" y2="453.6914"/><line style="stroke:#181818;stroke-width:1;" x1="882.7168" x2="923.7168" y1="453.6914" y2="453.6914"/><polygon fill="#181818" points="892.7168,449.6914,882.7168,453.6914,892.7168,457.6914,888.7168,453.6914" style="stroke:#181818;stroke-width:1;"/><text fill="#000000" font-family="sans-serif" font-size="13" lengthAdjust="spacing" textLength="153.0674" x="888.7168" y="435.6255">stop_alive_monitoring()</text><path d="M501,420.4922 L501,460.4922 L876,460.4922 L876,430.4922 L866,420.4922 L501,420.4922 " fill="#FEFFDD" style="stroke:#181818;stroke-width:0.5;"/><path d="M866,420.4922 L866,430.4922 L876,430.4922 L866,420.4922 " fill="#FEFFDD" style="stroke:#181818;stroke-width:0.5;"/><text fill="#000000" font-family="sans-serif" font-size="13" lengthAdjust="spacing" textLength="354.5928" x="507" y="437.5591">Stop monitoring as now we monitor shutdown timeout</text><text fill="#000000" font-family="sans-serif" font-size="13" lengthAdjust="spacing" textLength="123.9443" x="507" y="452.6919">configured per app</text><path d="M604.8608,472.7578 L681.4849,472.7578 L681.4849,479.8906 L671.4849,489.8906 L604.8608,489.8906 L604.8608,472.7578 " fill="#EEEEEE" style="stroke:#000000;stroke-width:1.5;"/><rect fill="transparent" height="46.2656" style="stroke:#000000;stroke-width:1.5;" width="348.728" x="604.8608" y="472.7578"/><text fill="#000000" font-family="sans-serif" font-size="13" font-weight="bold" lengthAdjust="spacing" textLength="31.624" x="619.8608" y="485.8247">loop</text><text fill="#000000" font-family="sans-serif" font-size="11" font-weight="bold" lengthAdjust="spacing" textLength="82.2046" x="696.4849" y="484.9683">[app in apps]</text><polygon fill="#0000FF" points="663.5679,507.0234,653.5679,511.0234,663.5679,515.0234,659.5679,511.0234" style="stroke:#0000FF;stroke-width:1;"/><line style="stroke:#0000FF;stroke-width:1;" x1="657.5679" x2="880.7168" y1="511.0234" y2="511.0234"/><text fill="#000000" font-family="sans-serif" font-size="13" lengthAdjust="spacing" textLength="173.4434" x="669.5679" y="505.9575">notify_shutdown_request()</text><rect fill="#EEEEEE" height="3" style="stroke:#EEEEEE;stroke-width:1;" width="1073.6602" x="0" y="553.5898"/><line style="stroke:#000000;stroke-width:1;" x1="0" x2="1073.6602" y1="553.5898" y2="553.5898"/><line style="stroke:#000000;stroke-width:1;" x1="0" x2="1073.6602" y1="556.5898" y2="556.5898"/><rect fill="#EEEEEE" height="23.1328" style="stroke:#000000;stroke-width:2;" width="137.9126" x="467.8738" y="543.0234"/><text fill="#000000" font-family="sans-serif" font-size="13" font-weight="bold" lengthAdjust="spacing" textLength="119.3867" x="473.8738" y="559.0903">Application Side</text><polygon fill="#0000FF" points="663.5679,593.2891,653.5679,597.2891,663.5679,601.2891,659.5679,597.2891" style="stroke:#0000FF;stroke-width:1;"/><line style="stroke:#0000FF;stroke-width:1;" x1="657.5679" x2="880.7168" y1="597.2891" y2="597.2891"/><text fill="#000000" font-family="sans-serif" font-size="13" lengthAdjust="spacing" textLength="173.4434" x="669.5679" y="592.2231">notify_shutdown_request()</text><line style="stroke:#181818;stroke-width:1;" x1="652.5679" x2="694.5679" y1="626.4219" y2="626.4219"/><line style="stroke:#181818;stroke-width:1;" x1="694.5679" x2="694.5679" y1="626.4219" y2="639.4219"/><line style="stroke:#181818;stroke-width:1;" x1="653.5679" x2="694.5679" y1="639.4219" y2="639.4219"/><polygon fill="#181818" points="663.5679,635.4219,653.5679,639.4219,663.5679,643.4219,659.5679,639.4219" style="stroke:#181818;stroke-width:1;"/><text fill="#000000" font-family="sans-serif" font-size="13" lengthAdjust="spacing" textLength="191.1152" x="659.5679" y="621.356">release_main_for_shutdown()</text><line style="stroke:#181818;stroke-width:1;" x1="203.4897" x2="250.4897" y1="691.5547" y2="691.5547"/><line style="stroke:#181818;stroke-width:1;" x1="250.4897" x2="250.4897" y1="691.5547" y2="704.5547"/><line style="stroke:#181818;stroke-width:1;" x1="209.4897" x2="250.4897" y1="704.5547" y2="704.5547"/><polygon fill="#181818" points="219.4897,700.5547,209.4897,704.5547,219.4897,708.5547,215.4897,704.5547" style="stroke:#181818;stroke-width:1;"/><text fill="#000000" font-family="sans-serif" font-size="13" lengthAdjust="spacing" textLength="98.2871" x="215.4897" y="686.4888">end_of_scope()</text><polygon fill="#181818" points="455.2764,734.6875,465.2764,738.6875,455.2764,742.6875,459.2764,738.6875" style="stroke:#181818;stroke-width:1;"/><line style="stroke:#181818;stroke-width:1;" x1="208.4897" x2="461.2764" y1="738.6875" y2="738.6875"/><text fill="#000000" font-family="sans-serif" font-size="13" lengthAdjust="spacing" textLength="59.2554" x="215.4897" y="733.6216">destroy()</text><polygon fill="#181818" points="869.7168,766.8203,879.7168,770.8203,869.7168,774.8203,873.7168,770.8203" style="stroke:#181818;stroke-width:1;"/><line style="stroke:#181818;stroke-width:1;" x1="467.2764" x2="875.7168" y1="770.8203" y2="770.8203"/><text fill="#000000" font-family="sans-serif" font-size="13" lengthAdjust="spacing" textLength="176.5156" x="474.2764" y="765.7544">notify_stopped(timestamp)</text><path d="M19,751.6875 L19,776.6875 L461,776.6875 L461,761.6875 L451,751.6875 L19,751.6875 " fill="#FEFFDD" style="stroke:#181818;stroke-width:0.5;"/><path d="M451,751.6875 L451,761.6875 L461,761.6875 L451,751.6875 " fill="#FEFFDD" style="stroke:#181818;stroke-width:0.5;"/><text fill="#000000" font-family="sans-serif" font-size="13" lengthAdjust="spacing" textLength="421.7319" x="25" y="768.7544">Notification is send to keep consistent with self terminating case</text><line style="stroke:#181818;stroke-width:1;" x1="467.2764" x2="509.2764" y1="802.9531" y2="802.9531"/><line style="stroke:#181818;stroke-width:1;" x1="509.2764" x2="509.2764" y1="802.9531" y2="815.9531"/><line style="stroke:#181818;stroke-width:1;" x1="468.2764" x2="509.2764" y1="815.9531" y2="815.9531"/><polygon fill="#181818" points="478.2764,811.9531,468.2764,815.9531,478.2764,819.9531,474.2764,815.9531" style="stroke:#181818;stroke-width:1;"/><text fill="#000000" font-family="sans-serif" font-size="13" lengthAdjust="spacing" textLength="171.2915" x="474.2764" y="797.8872">stop_background_thread()</text><polygon fill="#181818" points="214.4897,825.9531,204.4897,829.9531,214.4897,833.9531,210.4897,829.9531" style="stroke:#181818;stroke-width:1;"/><line style="stroke:#181818;stroke-width:1;stroke-dasharray:2.0,2.0;" x1="208.4897" x2="466.2764" y1="829.9531" y2="829.9531"/><!--SRC=[hLHXRzem4FtkNt5YNrfLy0EGEYahsK0AQLT0cpHDbaakO3MnFTiPxR_VcOOaB4oLgkLBoDrxldllpcprCums3YqOgpDqRWGCw372Ufb98vI7KIMa6Wt3SnIbto-rabxRJxKiSxHlmIxa4rbWzfALE6AeSjZgPyQseQr4r2hRpmHMMhNjNU3tOBqZTbRN1gA7XsHn5wqNzobVnSbdleuVbukK0kaNnYQJ2MD17Om_GdZVt4o1Jk2wu2xJ1g-ks_IPZ2dawBpLBmGuImHalw4fAErbySATryPWVkLbHKnHcUkc_9dA0JlGk2ZbR-JLQmMfTarNut5GUqbfJoIdpoJQf7TpFelY9NqznbytyMhDZaxUtfuLX9NCaOB7tB6zy8FqGVoT3asZXA_cc_Ni_bjt3ZJF-uISs6GJGec5RoChOa271U48T803deBWzhNFzK51C5NN7JNJgf2xsc8EXbPR6DEcmdw4MgoDb9hg40HeplHoRM8ewiU7RLdZJz9ssjbklaqltEAlcYRSanQ6T2fDLhR6HyQKCXDUzdnd_wDe2poEeMDPB54u6W0j3o-qRVaDhntu6rUY3_ddjGYWTr-DuKQa0NjoIpfmmKsluGdHX7axwJpIty51-Zqbom8ysaeg8j3kP2IR3SS_wEylDSUbtOhiALmnyi3lBOhyihZ6hix0vdh-0G00]--></g></svg>