<svg xmlns="http://www.w3.org/2000/svg" xmlns:xlink="http://www.w3.org/1999/xlink" contentStyleType="text/css" data-diagram-type="SEQUENCE" height="968px" preserveAspectRatio="none" style="width:1153px;height:968px;background:#FFFFFF;" version="1.1" viewBox="0 0 1153 968" width="1153px" zoomAndPan="magnify"><defs/><g><rect fill="#D3D3D3" height="956.8516" style="stroke:#181818;stroke-width:0.5;" width="941.2666" x="16" y="6"/><text fill="#000000" font-family="sans-serif" font-size="13" font-weight="bold" lengthAdjust="spacing" textLength="144.314" x="414.4763" y="18.0669">Application Process</text><rect fill="transparent" height="104.5313" style="stroke:#000000;stroke-width:1.5;" width="802.7139" x="10" y="497.1563"/><rect fill="transparent" height="134.3359" style="stroke:#000000;stroke-width:1.5;" width="527.7637" x="620.0117" y="732.2188"/><rect fill="transparent" height="103.2031" style="stroke:#000000;stroke-width:1.5;" width="507.7637" x="630.0117" y="756.3516"/><g><title>User</title><rect fill="transparent" height="782.125" width="8" x="34.9551" y="101.4297"/><line style="stroke:#181818;stroke-width:0.5;stroke-dasharray:5.0,5.0;" x1="38" x2="38" y1="101.4297" y2="883.5547"/></g><g><title>DeadlineMonitorBuilder</title><rect fill="transparent" height="782.125" width="8" x="225.2637" y="101.4297"/><line style="stroke:#181818;stroke-width:0.5;stroke-dasharray:5.0,5.0;" x1="228.8359" x2="228.8359" y1="101.4297" y2="883.5547"/></g><g><title>LogicMonitorBuilder</title><rect fill="transparent" height="782.125" width="8" x="401.4761" y="101.4297"/><line style="stroke:#181818;stroke-width:0.5;stroke-dasharray:5.0,5.0;" x1="404.6914" x2="404.6914" y1="101.4297" y2="883.5547"/></g><g><title>HeartbeatMonitor</title><rect fill="transparent" height="782.125" width="8" x="557.1362" y="101.4297"/><line style="stroke:#181818;stroke-width:0.5;stroke-dasharray:5.0,5.0;" x1="560.2607" x2="560.2607" y1="101.4297" y2="883.5547"/></g><g><title>HealthMonitorBuilder</title><rect fill="transparent" height="782.125" width="8" x="717.3628" y="101.4297"/><line style="stroke:#181818;stroke-width:0.5;stroke-dasharray:5.0,5.0;" x1="721.0117" x2="721.0117" y1="101.4297" y2="883.5547"/></g><g><title>HealthMonitor</title><rect fill="transparent" height="782.125" width="8" x="892.6719" y="101.4297"/><line style="stroke:#181818;stroke-width:0.5;stroke-dasharray:5.0,5.0;" x1="896.0771" x2="896.0771" y1="101.4297" y2="883.5547"/></g><g><title>LaunchManager</title><rect fill="transparent" height="782.125" width="8" x="1060.7446" y="101.4297"/><line style="stroke:#181818;stroke-width:0.5;stroke-dasharray:5.0,5.0;" x1="1064.7139" x2="1064.7139" y1="101.4297" y2="883.5547"/></g><text fill="#000000" font-family="sans-serif" font-size="14" lengthAdjust="spacing" textLength="31.9102" x="20" y="98.1279">User</text><ellipse cx="38.9551" cy="33.6328" fill="#E2E2F0" rx="8" ry="8" style="stroke:#181818;stroke-width:0.5;"/><path d="M38.9551,41.6328 L38.9551,68.6328 M25.9551,49.6328 L51.9551,49.6328 M38.9551,68.6328 L25.9551,83.6328 M38.9551,68.6328 L51.9551,83.6328 " fill="transparent" style="stroke:#181818;stroke-width:0.5;"/><text fill="#000000" font-family="sans-serif" font-size="14" lengthAdjust="spacing" textLength="31.9102" x="20" y="895.5498">User</text><ellipse cx="38.9551" cy="907.3516" fill="#E2E2F0" rx="8" ry="8" style="stroke:#181818;stroke-width:0.5;"/><path d="M38.9551,915.3516 L38.9551,942.3516 M25.9551,923.3516 L51.9551,923.3516 M38.9551,942.3516 L25.9551,957.3516 M38.9551,942.3516 L51.9551,957.3516 " fill="transparent" style="stroke:#181818;stroke-width:0.5;"/><rect fill="#E2E2F0" height="30.2969" rx="2.5" ry="2.5" style="stroke:#181818;stroke-width:0.5;" width="178.8555" x="139.8359" y="70.1328"/><text fill="#000000" font-family="sans-serif" font-size="14" lengthAdjust="spacing" textLength="164.8555" x="146.8359" y="90.1279">DeadlineMonitorBuilder</text><rect fill="#E2E2F0" height="30.2969" rx="2.5" ry="2.5" style="stroke:#181818;stroke-width:0.5;" width="178.8555" x="139.8359" y="882.5547"/><text fill="#000000" font-family="sans-serif" font-size="14" lengthAdjust="spacing" textLength="164.8555" x="146.8359" y="902.5498">DeadlineMonitorBuilder</text><rect fill="#E2E2F0" height="30.2969" rx="2.5" ry="2.5" style="stroke:#181818;stroke-width:0.5;" width="153.5693" x="328.6914" y="70.1328"/><text fill="#000000" font-family="sans-serif" font-size="14" lengthAdjust="spacing" textLength="139.5693" x="335.6914" y="90.1279">LogicMonitorBuilder</text><rect fill="#E2E2F0" height="30.2969" rx="2.5" ry="2.5" style="stroke:#181818;stroke-width:0.5;" width="153.5693" x="328.6914" y="882.5547"/><text fill="#000000" font-family="sans-serif" font-size="14" lengthAdjust="spacing" textLength="139.5693" x="335.6914" y="902.5498">LogicMonitorBuilder</text><rect fill="#E2E2F0" height="30.2969" rx="2.5" ry="2.5" style="stroke:#181818;stroke-width:0.5;" width="137.751" x="492.2607" y="70.1328"/><text fill="#000000" font-family="sans-serif" font-size="14" lengthAdjust="spacing" textLength="123.751" x="499.2607" y="90.1279">HeartbeatMonitor</text><rect fill="#E2E2F0" height="30.2969" rx="2.5" ry="2.5" style="stroke:#181818;stroke-width:0.5;" width="137.751" x="492.2607" y="882.5547"/><text fill="#000000" font-family="sans-serif" font-size="14" lengthAdjust="spacing" textLength="123.751" x="499.2607" y="902.5498">HeartbeatMonitor</text><rect fill="#E2E2F0" height="30.2969" rx="2.5" ry="2.5" style="stroke:#181818;stroke-width:0.5;" width="162.7021" x="640.0117" y="70.1328"/><text fill="#000000" font-family="sans-serif" font-size="14" lengthAdjust="spacing" textLength="148.7021" x="647.0117" y="90.1279">HealthMonitorBuilder</text><rect fill="#E2E2F0" height="30.2969" rx="2.5" ry="2.5" style="stroke:#181818;stroke-width:0.5;" width="162.7021" x="640.0117" y="882.5547"/><text fill="#000000" font-family="sans-serif" font-size="14" lengthAdjust="spacing" textLength="148.7021" x="647.0117" y="902.5498">HealthMonitorBuilder</text><rect fill="#E2E2F0" height="30.2969" rx="2.5" ry="2.5" style="stroke:#181818;stroke-width:0.5;" width="113.1895" x="840.0771" y="70.1328"/><text fill="#000000" font-family="sans-serif" font-size="14" lengthAdjust="spacing" textLength="99.1895" x="847.0771" y="90.1279">HealthMonitor</text><rect fill="#E2E2F0" height="30.2969" rx="2.5" ry="2.5" style="stroke:#181818;stroke-width:0.5;" width="113.1895" x="840.0771" y="882.5547"/><text fill="#000000" font-family="sans-serif" font-size="14" lengthAdjust="spacing" textLength="99.1895" x="847.0771" y="902.5498">HealthMonitor</text><rect fill="#E2E2F0" height="30.2969" rx="2.5" ry="2.5" style="stroke:#181818;stroke-width:0.5;" width="126.0615" x="1001.7139" y="70.1328"/><text fill="#000000" font-family="sans-serif" font-size="14" lengthAdjust="spacing" textLength="112.0615" x="1008.7139" y="90.1279">LaunchManager</text><rect fill="#E2E2F0" height="30.2969" rx="2.5" ry="2.5" style="stroke:#181818;stroke-width:0.5;" width="126.0615" x="1001.7139" y="882.5547"/><text fill="#000000" font-family="sans-serif" font-size="14" lengthAdjust="spacing" textLength="112.0615" x="1008.7139" y="902.5498">LaunchManager</text><polygon fill="#181818" points="217.2637,128.5625,227.2637,132.5625,217.2637,136.5625,221.2637,132.5625" style="stroke:#181818;stroke-width:1;"/><line style="stroke:#181818;stroke-width:1;" x1="38.9551" x2="223.2637" y1="132.5625" y2="132.5625"/><text fill="#000000" font-family="sans-serif" font-size="13" lengthAdjust="spacing" textLength="43.4814" x="45.9551" y="127.4966">Create</text><polygon fill="#181818" points="217.2637,157.6953,227.2637,161.6953,217.2637,165.6953,221.2637,161.6953" style="stroke:#181818;stroke-width:1;"/><line style="stroke:#181818;stroke-width:1;" x1="38.9551" x2="223.2637" y1="161.6953" y2="161.6953"/><text fill="#000000" font-family="sans-serif" font-size="13" lengthAdjust="spacing" textLength="63.9272" x="45.9551" y="156.6294">Set hooks</text><polygon fill="#181818" points="217.2637,186.8281,227.2637,190.8281,217.2637,194.8281,221.2637,190.8281" style="stroke:#181818;stroke-width:1;"/><line style="stroke:#181818;stroke-width:1;" x1="38.9551" x2="223.2637" y1="190.8281" y2="190.8281"/><text fill="#000000" font-family="sans-serif" font-size="13" lengthAdjust="spacing" textLength="32.6333" x="45.9551" y="185.7622">Build</text><polygon fill="#181818" points="49.9551,215.9609,39.9551,219.9609,49.9551,223.9609,45.9551,219.9609" style="stroke:#181818;stroke-width:1;"/><line style="stroke:#181818;stroke-width:1;stroke-dasharray:2.0,2.0;" x1="43.9551" x2="228.2637" y1="219.9609" y2="219.9609"/><text fill="#000000" font-family="sans-serif" font-size="13" lengthAdjust="spacing" textLength="166.3086" x="55.9551" y="214.895">DeadlineMonitor instance</text><polygon fill="#181818" points="393.4761,245.0938,403.4761,249.0938,393.4761,253.0938,397.4761,249.0938" style="stroke:#181818;stroke-width:1;"/><line style="stroke:#181818;stroke-width:1;" x1="38.9551" x2="399.4761" y1="249.0938" y2="249.0938"/><text fill="#000000" font-family="sans-serif" font-size="13" lengthAdjust="spacing" textLength="43.4814" x="45.9551" y="244.0278">Create</text><polygon fill="#181818" points="393.4761,274.2266,403.4761,278.2266,393.4761,282.2266,397.4761,278.2266" style="stroke:#181818;stroke-width:1;"/><line style="stroke:#181818;stroke-width:1;" x1="38.9551" x2="399.4761" y1="278.2266" y2="278.2266"/><text fill="#000000" font-family="sans-serif" font-size="13" lengthAdjust="spacing" textLength="63.9272" x="45.9551" y="273.1606">Set hooks</text><polygon fill="#181818" points="393.4761,303.3594,403.4761,307.3594,393.4761,311.3594,397.4761,307.3594" style="stroke:#181818;stroke-width:1;"/><line style="stroke:#181818;stroke-width:1;" x1="38.9551" x2="399.4761" y1="307.3594" y2="307.3594"/><text fill="#000000" font-family="sans-serif" font-size="13" lengthAdjust="spacing" textLength="98.2935" x="45.9551" y="302.2935">Set initial state</text><polygon fill="#181818" points="393.4761,332.4922,403.4761,336.4922,393.4761,340.4922,397.4761,336.4922" style="stroke:#181818;stroke-width:1;"/><line style="stroke:#181818;stroke-width:1;" x1="38.9551" x2="399.4761" y1="336.4922" y2="336.4922"/><text fill="#000000" font-family="sans-serif" font-size="13" lengthAdjust="spacing" textLength="185.4087" x="45.9551" y="331.4263">Set allowed state transitions</text><polygon fill="#181818" points="393.4761,361.625,403.4761,365.625,393.4761,369.625,397.4761,365.625" style="stroke:#181818;stroke-width:1;"/><line style="stroke:#181818;stroke-width:1;" x1="38.9551" x2="399.4761" y1="365.625" y2="365.625"/><text fill="#000000" font-family="sans-serif" font-size="13" lengthAdjust="spacing" textLength="32.6333" x="45.9551" y="360.5591">Build</text><polygon fill="#181818" points="49.9551,390.7578,39.9551,394.7578,49.9551,398.7578,45.9551,394.7578" style="stroke:#181818;stroke-width:1;"/><line style="stroke:#181818;stroke-width:1;stroke-dasharray:2.0,2.0;" x1="43.9551" x2="404.4761" y1="394.7578" y2="394.7578"/><text fill="#000000" font-family="sans-serif" font-size="13" lengthAdjust="spacing" textLength="142.8286" x="55.9551" y="389.6919">LogicMonitor instance</text><polygon fill="#181818" points="549.1362,419.8906,559.1362,423.8906,549.1362,427.8906,553.1362,423.8906" style="stroke:#181818;stroke-width:1;"/><line style="stroke:#181818;stroke-width:1;" x1="38.9551" x2="555.1362" y1="423.8906" y2="423.8906"/><text fill="#000000" font-family="sans-serif" font-size="13" lengthAdjust="spacing" textLength="26.8696" x="45.9551" y="418.8247">new</text><polygon fill="#181818" points="49.9551,449.0234,39.9551,453.0234,49.9551,457.0234,45.9551,453.0234" style="stroke:#181818;stroke-width:1;"/><line style="stroke:#181818;stroke-width:1;stroke-dasharray:2.0,2.0;" x1="43.9551" x2="560.1362" y1="453.0234" y2="453.0234"/><text fill="#000000" font-family="sans-serif" font-size="13" lengthAdjust="spacing" textLength="174.1162" x="55.9551" y="447.9575">HeartbeatMonitor instance</text><polygon fill="#181818" points="709.3628,478.1563,719.3628,482.1563,709.3628,486.1563,713.3628,482.1563" style="stroke:#181818;stroke-width:1;"/><line style="stroke:#181818;stroke-width:1;" x1="38.9551" x2="715.3628" y1="482.1563" y2="482.1563"/><text fill="#000000" font-family="sans-serif" font-size="13" lengthAdjust="spacing" textLength="43.4814" x="45.9551" y="477.0903">Create</text><path d="M10,497.1563 L146.2222,497.1563 L146.2222,504.2891 L136.2222,514.2891 L10,514.2891 L10,497.1563 " fill="#EEEEEE" style="stroke:#000000;stroke-width:1.5;"/><rect fill="transparent" height="104.5313" style="stroke:#000000;stroke-width:1.5;" width="802.7139" x="10" y="497.1563"/><text fill="#000000" font-family="sans-serif" font-size="13" font-weight="bold" lengthAdjust="spacing" textLength="91.2222" x="25" y="510.2231">One or more</text><polygon fill="#181818" points="549.1362,531.4219,559.1362,535.4219,549.1362,539.4219,553.1362,535.4219" style="stroke:#181818;stroke-width:1;"/><line style="stroke:#181818;stroke-width:1;" x1="38.9551" x2="555.1362" y1="535.4219" y2="535.4219"/><text fill="#000000" font-family="sans-serif" font-size="13" lengthAdjust="spacing" textLength="203.6455" x="45.9551" y="530.356">Add HeartbeatMonitor instance</text><polygon fill="#181818" points="709.3628,560.5547,719.3628,564.5547,709.3628,568.5547,713.3628,564.5547" style="stroke:#181818;stroke-width:1;"/><line style="stroke:#181818;stroke-width:1;" x1="38.9551" x2="715.3628" y1="564.5547" y2="564.5547"/><text fill="#000000" font-family="sans-serif" font-size="13" lengthAdjust="spacing" textLength="195.8379" x="45.9551" y="559.4888">Add DeadlineMonitor instance</text><polygon fill="#181818" points="709.3628,589.6875,719.3628,593.6875,709.3628,597.6875,713.3628,593.6875" style="stroke:#181818;stroke-width:1;"/><line style="stroke:#181818;stroke-width:1;" x1="38.9551" x2="715.3628" y1="593.6875" y2="593.6875"/><text fill="#000000" font-family="sans-serif" font-size="13" lengthAdjust="spacing" textLength="172.3579" x="45.9551" y="588.6216">Add LogicMonitor instance</text><polygon fill="#181818" points="709.3628,625.8203,719.3628,629.8203,709.3628,633.8203,713.3628,629.8203" style="stroke:#181818;stroke-width:1;"/><line style="stroke:#181818;stroke-width:1;" x1="38.9551" x2="715.3628" y1="629.8203" y2="629.8203"/><text fill="#000000" font-family="sans-serif" font-size="13" lengthAdjust="spacing" textLength="32.6333" x="45.9551" y="624.7544">Build</text><polygon fill="#181818" points="884.6719,654.9531,894.6719,658.9531,884.6719,662.9531,888.6719,658.9531" style="stroke:#181818;stroke-width:1;"/><line style="stroke:#181818;stroke-width:1;" x1="721.3628" x2="890.6719" y1="658.9531" y2="658.9531"/><text fill="#000000" font-family="sans-serif" font-size="13" lengthAdjust="spacing" textLength="26.8696" x="728.3628" y="653.8872">new</text><polygon fill="#181818" points="732.3628,684.0859,722.3628,688.0859,732.3628,692.0859,728.3628,688.0859" style="stroke:#181818;stroke-width:1;"/><line style="stroke:#181818;stroke-width:1;stroke-dasharray:2.0,2.0;" x1="726.3628" x2="895.6719" y1="688.0859" y2="688.0859"/><text fill="#000000" font-family="sans-serif" font-size="13" lengthAdjust="spacing" textLength="151.3091" x="738.3628" y="683.02">HealthMonitor instance</text><polygon fill="#181818" points="49.9551,713.2188,39.9551,717.2188,49.9551,721.2188,45.9551,717.2188" style="stroke:#181818;stroke-width:1;"/><line style="stroke:#181818;stroke-width:1;stroke-dasharray:2.0,2.0;" x1="43.9551" x2="720.3628" y1="717.2188" y2="717.2188"/><text fill="#000000" font-family="sans-serif" font-size="13" lengthAdjust="spacing" textLength="151.3091" x="55.9551" y="712.1528">HealthMonitor instance</text><path d="M620.0117,732.2188 L696.6357,732.2188 L696.6357,739.3516 L686.6357,749.3516 L620.0117,749.3516 L620.0117,732.2188 " fill="#EEEEEE" style="stroke:#000000;stroke-width:1.5;"/><rect fill="transparent" height="134.3359" style="stroke:#000000;stroke-width:1.5;" width="527.7637" x="620.0117" y="732.2188"/><text fill="#000000" font-family="sans-serif" font-size="13" font-weight="bold" lengthAdjust="spacing" textLength="31.624" x="635.0117" y="745.2856">loop</text><text fill="#000000" font-family="sans-serif" font-size="11" font-weight="bold" lengthAdjust="spacing" textLength="255.2559" x="711.6357" y="744.4292">[Test monitors (in a background thread)]</text><path d="M630.0117,756.3516 L694.4546,756.3516 L694.4546,763.4844 L684.4546,773.4844 L630.0117,773.4844 L630.0117,756.3516 " fill="#EEEEEE" style="stroke:#000000;stroke-width:1.5;"/><rect fill="transparent" height="103.2031" style="stroke:#000000;stroke-width:1.5;" width="507.7637" x="630.0117" y="756.3516"/><text fill="#000000" font-family="sans-serif" font-size="13" font-weight="bold" lengthAdjust="spacing" textLength="19.4429" x="645.0117" y="769.4185">alt</text><text fill="#000000" font-family="sans-serif" font-size="11" font-weight="bold" lengthAdjust="spacing" textLength="135.9209" x="709.4546" y="768.562">[All monitors healthy]</text><polygon fill="#181818" points="1052.7446,790.6172,1062.7446,794.6172,1052.7446,798.6172,1056.7446,794.6172" style="stroke:#181818;stroke-width:1;"/><line style="stroke:#181818;stroke-width:1;stroke-dasharray:2.0,2.0;" x1="896.6719" x2="1058.7446" y1="794.6172" y2="794.6172"/><text fill="#000000" font-family="sans-serif" font-size="13" lengthAdjust="spacing" textLength="144.0728" x="903.6719" y="789.5513">Alive notification (IPC)</text><line style="stroke:#000000;stroke-width:1;stroke-dasharray:2.0,2.0;" x1="630.0117" x2="1137.7754" y1="803.6172" y2="803.6172"/><text fill="#000000" font-family="sans-serif" font-size="11" font-weight="bold" lengthAdjust="spacing" textLength="212.7168" x="635.0117" y="813.8276">[One or more monitors unhealthy]</text><line style="stroke:#181818;stroke-width:1;" x1="721.3628" x2="763.3628" y1="838.5547" y2="838.5547"/><line style="stroke:#181818;stroke-width:1;" x1="763.3628" x2="763.3628" y1="838.5547" y2="851.5547"/><line style="stroke:#181818;stroke-width:1;" x1="722.3628" x2="763.3628" y1="851.5547" y2="851.5547"/><polygon fill="#181818" points="732.3628,847.5547,722.3628,851.5547,732.3628,855.5547,728.3628,851.5547" style="stroke:#181818;stroke-width:1;"/><text fill="#000000" font-family="sans-serif" font-size="13" lengthAdjust="spacing" textLength="37.0894" x="728.3628" y="833.4888">break</text><path d="M777.0894,825.9219 L777.0894,850.9219 L979.0894,850.9219 L979.0894,835.9219 L969.0894,825.9219 L777.0894,825.9219 " fill="#FEFFDD" style="stroke:#181818;stroke-width:0.5;"/><path d="M969.0894,825.9219 L969.0894,835.9219 L979.0894,835.9219 L969.0894,825.9219 " fill="#FEFFDD" style="stroke:#181818;stroke-width:0.5;"/><text fill="#000000" font-family="sans-serif" font-size="13" lengthAdjust="spacing" textLength="181.2256" x="783.0894" y="842.9888">Alive notification is not sent</text><!--SRC=[VPJ1Jjqm44Nt_efHkg4BVe15fGULMYGGI2qVC4ccpwCtpuvify3VT-m4OfBGI96SyVN9dMidhN-1vZ0CmXqczWuUW-yenWQ-tF7HfXy1NmrsoGTedYA51Z32Q0OCYJiUq2LelXFsmexklMCLNeyi_Qpip-r7xPq_ShSZbBNm9-bJIvXcSL7PzhnHIR8xFBl3MvIpn93heVKlPkKHHzVPUtHuV7Tdp0YNtt8_S0KtGNrHNVb52QptfrWNYn-JnvTQ6xMoIWhOnOIkevak6xhiqPSYAuPHG2dR5IZYdwcV9Y45T97p5d-WJ1wbybZlqDgWvgyAHyycZzvMhBTgiwfkwnZyEC238r3XsGSoe5T5F_JzVuYBk42p-DDGTxJxpUang9rEcUHnASqDJ_rgjJIydAK5OwiKFv68zmFyffYqzJ8LuO8T8BJOdN8qUY2JrQJwhyM-Gk0WigXjuRwMoNpDjgGa9_oNmFd4Vzw-velRnvk9H1AfZdr1ZcuBRPSqMdLpUfzIEa78VuRz5tBCpn39fUcr6cs-_m40]--></g></svg>