<svg xmlns="http://www.w3.org/2000/svg" xmlns:xlink="http://www.w3.org/1999/xlink" contentStyleType="text/css" data-diagram-type="SEQUENCE" height="1083px" preserveAspectRatio="none" style="width:851px;height:1083px;background:#FFFFFF;" version="1.1" viewBox="0 0 851 1083" width="851px" zoomAndPan="magnify"><defs/><g><rect fill="#D3D3D3" height="1071.9844" style="stroke:#181818;stroke-width:0.5;" width="502.1729" x="1" y="6"/><text fill="#000000" font-family="sans-serif" font-size="13" font-weight="bold" lengthAdjust="spacing" textLength="144.314" x="179.9294" y="18.0669">Application Process</text><g><title>HealthMonitorBuilder</title><rect fill="#FFFFFF" height="87.3984" style="stroke:#181818;stroke-width:1;" width="10" x="252.269" y="190.8281"/></g><g><title>HealthMonitor</title><rect fill="#FFFFFF" height="29.1328" style="stroke:#181818;stroke-width:1;" width="10" x="437.5781" y="219.9609"/></g><rect fill="transparent" height="604.5234" style="stroke:#000000;stroke-width:1.5;" width="468.4058" x="365.9834" y="377.1641"/><rect fill="transparent" height="88.3984" style="stroke:#000000;stroke-width:1.5;" width="319.0171" x="375.9834" y="436.4297"/><rect fill="transparent" height="88.3984" style="stroke:#000000;stroke-width:1.5;" width="314.856" x="375.9834" y="538.8281"/><rect fill="transparent" height="88.3984" style="stroke:#000000;stroke-width:1.5;" width="326.9663" x="375.9834" y="641.2266"/><rect fill="transparent" height="88.3984" style="stroke:#000000;stroke-width:1.5;" width="365.5415" x="375.9834" y="778.7578"/><g><title>User</title><rect fill="transparent" height="227.9297" width="8" x="19.9551" y="101.4297"/><line style="stroke:#181818;stroke-width:0.5;stroke-dasharray:5.0,5.0;" x1="23" x2="23" y1="101.4297" y2="329.3594"/></g><line style="stroke:#A80036;stroke-width:1;stroke-dasharray:1.0,4.0;" x1="23" x2="23" y1="329.3594" y2="370.1641"/><g><title>User</title><rect fill="transparent" height="628.5234" width="8" x="19.9551" y="370.1641"/><line style="stroke:#181818;stroke-width:0.5;stroke-dasharray:5.0,5.0;" x1="23" x2="23" y1="370.1641" y2="998.6875"/></g><g><title>HealthMonitorBuilder</title><rect fill="transparent" height="227.9297" width="8" x="253.269" y="101.4297"/><line style="stroke:#181818;stroke-width:0.5;stroke-dasharray:5.0,5.0;" x1="256.918" x2="256.918" y1="101.4297" y2="329.3594"/></g><line style="stroke:#A80036;stroke-width:1;stroke-dasharray:1.0,4.0;" x1="256.918" x2="256.918" y1="329.3594" y2="370.1641"/><g><title>HealthMonitorBuilder</title><rect fill="transparent" height="628.5234" width="8" x="253.269" y="370.1641"/><line style="stroke:#181818;stroke-width:0.5;stroke-dasharray:5.0,5.0;" x1="256.918" x2="256.918" y1="370.1641" y2="998.6875"/></g><g><title>HealthMonitor</title><rect fill="transparent" height="227.9297" width="8" x="438.5781" y="101.4297"/><line style="stroke:#181818;stroke-width:0.5;stroke-dasharray:5.0,5.0;" x1="441.9834" x2="441.9834" y1="101.4297" y2="329.3594"/></g><line style="stroke:#A80036;stroke-width:1;stroke-dasharray:1.0,4.0;" x1="441.9834" x2="441.9834" y1="329.3594" y2="370.1641"/><g><title>HealthMonitor</title><rect fill="transparent" height="628.5234" width="8" x="438.5781" y="370.1641"/><line style="stroke:#181818;stroke-width:0.5;stroke-dasharray:5.0,5.0;" x1="441.9834" x2="441.9834" y1="370.1641" y2="998.6875"/></g><g><title>LaunchManager</title><rect fill="transparent" height="227.9297" width="8" x="613.8086" y="101.4297"/><line style="stroke:#181818;stroke-width:0.5;stroke-dasharray:5.0,5.0;" x1="617.7778" x2="617.7778" y1="101.4297" y2="329.3594"/></g><line style="stroke:#A80036;stroke-width:1;stroke-dasharray:1.0,4.0;" x1="617.7778" x2="617.7778" y1="329.3594" y2="370.1641"/><g><title>LaunchManager</title><rect fill="transparent" height="628.5234" width="8" x="613.8086" y="370.1641"/><line style="stroke:#181818;stroke-width:0.5;stroke-dasharray:5.0,5.0;" x1="617.7778" x2="617.7778" y1="370.1641" y2="998.6875"/></g><text fill="#000000" font-family="sans-serif" font-size="14" lengthAdjust="spacing" textLength="31.9102" x="5" y="98.1279">User</text><ellipse cx="23.9551" cy="33.6328" fill="#E2E2F0" rx="8" ry="8" style="stroke:#181818;stroke-width:0.5;"/><path d="M23.9551,41.6328 L23.9551,68.6328 M10.9551,49.6328 L36.9551,49.6328 M23.9551,68.6328 L10.9551,83.6328 M23.9551,68.6328 L36.9551,83.6328 " fill="transparent" style="stroke:#181818;stroke-width:0.5;"/><text fill="#000000" font-family="sans-serif" font-size="14" lengthAdjust="spacing" textLength="31.9102" x="5" y="1010.6826">User</text><ellipse cx="23.9551" cy="1022.4844" fill="#E2E2F0" rx="8" ry="8" style="stroke:#181818;stroke-width:0.5;"/><path d="M23.9551,1030.4844 L23.9551,1057.4844 M10.9551,1038.4844 L36.9551,1038.4844 M23.9551,1057.4844 L10.9551,1072.4844 M23.9551,1057.4844 L36.9551,1072.4844 " fill="transparent" style="stroke:#181818;stroke-width:0.5;"/><rect fill="#E2E2F0" height="30.2969" rx="2.5" ry="2.5" style="stroke:#181818;stroke-width:0.5;" width="162.7021" x="175.918" y="70.1328"/><text fill="#000000" font-family="sans-serif" font-size="14" lengthAdjust="spacing" textLength="148.7021" x="182.918" y="90.1279">HealthMonitorBuilder</text><rect fill="#E2E2F0" height="30.2969" rx="2.5" ry="2.5" style="stroke:#181818;stroke-width:0.5;" width="162.7021" x="175.918" y="997.6875"/><text fill="#000000" font-family="sans-serif" font-size="14" lengthAdjust="spacing" textLength="148.7021" x="182.918" y="1017.6826">HealthMonitorBuilder</text><rect fill="#E2E2F0" height="30.2969" rx="2.5" ry="2.5" style="stroke:#181818;stroke-width:0.5;" width="113.1895" x="385.9834" y="70.1328"/><text fill="#000000" font-family="sans-serif" font-size="14" lengthAdjust="spacing" textLength="99.1895" x="392.9834" y="90.1279">HealthMonitor</text><rect fill="#E2E2F0" height="30.2969" rx="2.5" ry="2.5" style="stroke:#181818;stroke-width:0.5;" width="113.1895" x="385.9834" y="997.6875"/><text fill="#000000" font-family="sans-serif" font-size="14" lengthAdjust="spacing" textLength="99.1895" x="392.9834" y="1017.6826">HealthMonitor</text><rect fill="#E2E2F0" height="30.2969" rx="2.5" ry="2.5" style="stroke:#181818;stroke-width:0.5;" width="126.0615" x="554.7778" y="70.1328"/><text fill="#000000" font-family="sans-serif" font-size="14" lengthAdjust="spacing" textLength="112.0615" x="561.7778" y="90.1279">LaunchManager</text><rect fill="#E2E2F0" height="30.2969" rx="2.5" ry="2.5" style="stroke:#181818;stroke-width:0.5;" width="126.0615" x="554.7778" y="997.6875"/><text fill="#000000" font-family="sans-serif" font-size="14" lengthAdjust="spacing" textLength="112.0615" x="561.7778" y="1017.6826">LaunchManager</text><g><title>HealthMonitorBuilder</title><rect fill="#FFFFFF" height="87.3984" style="stroke:#181818;stroke-width:1;" width="10" x="252.269" y="190.8281"/></g><g><title>HealthMonitor</title><rect fill="#FFFFFF" height="29.1328" style="stroke:#181818;stroke-width:1;" width="10" x="437.5781" y="219.9609"/></g><rect fill="#EEEEEE" height="3" style="stroke:#EEEEEE;stroke-width:1;" width="844.3892" x="0" y="131.9961"/><line style="stroke:#000000;stroke-width:1;" x1="0" x2="844.3892" y1="131.9961" y2="131.9961"/><line style="stroke:#000000;stroke-width:1;" x1="0" x2="844.3892" y1="134.9961" y2="134.9961"/><rect fill="#EEEEEE" height="23.1328" style="stroke:#000000;stroke-width:2;" width="110.624" x="366.8826" y="121.4297"/><text fill="#000000" font-family="sans-serif" font-size="13" font-weight="bold" lengthAdjust="spacing" textLength="92.0981" x="372.8826" y="137.4966">Initialization</text><polygon fill="#181818" points="240.269,186.8281,250.269,190.8281,240.269,194.8281,244.269,190.8281" style="stroke:#181818;stroke-width:1;"/><line style="stroke:#181818;stroke-width:1;" x1="23.9551" x2="246.269" y1="190.8281" y2="190.8281"/><text fill="#000000" font-family="sans-serif" font-size="13" lengthAdjust="spacing" textLength="176.249" x="30.9551" y="170.6294">Build(supervisor_api_cycle,</text><text fill="#000000" font-family="sans-serif" font-size="13" lengthAdjust="spacing" textLength="172.123" x="68.146" y="185.7622">internal_processing_cycle)</text><polygon fill="#181818" points="425.5781,215.9609,435.5781,219.9609,425.5781,223.9609,429.5781,219.9609" style="stroke:#181818;stroke-width:1;"/><line style="stroke:#181818;stroke-width:1;" x1="262.269" x2="431.5781" y1="219.9609" y2="219.9609"/><text fill="#000000" font-family="sans-serif" font-size="13" lengthAdjust="spacing" textLength="26.8696" x="269.269" y="214.895">new</text><polygon fill="#181818" points="273.269,245.0938,263.269,249.0938,273.269,253.0938,269.269,249.0938" style="stroke:#181818;stroke-width:1;"/><line style="stroke:#181818;stroke-width:1;stroke-dasharray:2.0,2.0;" x1="267.269" x2="441.5781" y1="249.0938" y2="249.0938"/><text fill="#000000" font-family="sans-serif" font-size="13" lengthAdjust="spacing" textLength="151.3091" x="279.269" y="244.0278">HealthMonitor instance</text><polygon fill="#181818" points="34.9551,274.2266,24.9551,278.2266,34.9551,282.2266,30.9551,278.2266" style="stroke:#181818;stroke-width:1;"/><line style="stroke:#181818;stroke-width:1;stroke-dasharray:2.0,2.0;" x1="28.9551" x2="256.269" y1="278.2266" y2="278.2266"/><text fill="#000000" font-family="sans-serif" font-size="13" lengthAdjust="spacing" textLength="151.3091" x="40.9551" y="273.1606">HealthMonitor instance</text><rect fill="#EEEEEE" height="3" style="stroke:#EEEEEE;stroke-width:1;" width="844.3892" x="0" y="306.793"/><line style="stroke:#000000;stroke-width:1;" x1="0" x2="844.3892" y1="306.793" y2="306.793"/><line style="stroke:#000000;stroke-width:1;" x1="0" x2="844.3892" y1="309.793" y2="309.793"/><rect fill="#EEEEEE" height="23.1328" style="stroke:#000000;stroke-width:2;" width="131.8887" x="356.2502" y="296.2266"/><text fill="#000000" font-family="sans-serif" font-size="13" font-weight="bold" lengthAdjust="spacing" textLength="113.3628" x="362.2502" y="312.2935">Monitor Checks</text><text fill="#000000" font-family="sans-serif" font-size="11" lengthAdjust="spacing" textLength="150.0254" x="245.8691" y="353.5698">...In a background thread...</text><path d="M365.9834,377.1641 L442.6074,377.1641 L442.6074,384.2969 L432.6074,394.2969 L365.9834,394.2969 L365.9834,377.1641 " fill="#EEEEEE" style="stroke:#000000;stroke-width:1.5;"/><rect fill="transparent" height="604.5234" style="stroke:#000000;stroke-width:1.5;" width="468.4058" x="365.9834" y="377.1641"/><text fill="#000000" font-family="sans-serif" font-size="13" font-weight="bold" lengthAdjust="spacing" textLength="31.624" x="380.9834" y="390.231">loop</text><text fill="#000000" font-family="sans-serif" font-size="11" font-weight="bold" lengthAdjust="spacing" textLength="213.415" x="457.6074" y="389.3745">[while shutdown is not requested]</text><path d="M447,399.2969 L447,424.2969 L584,424.2969 L584,409.2969 L574,399.2969 L447,399.2969 " fill="#FEFFDD" style="stroke:#181818;stroke-width:0.5;"/><path d="M574,399.2969 L574,409.2969 L584,409.2969 L574,399.2969 " fill="#FEFFDD" style="stroke:#181818;stroke-width:0.5;"/><text fill="#000000" font-family="sans-serif" font-size="13" lengthAdjust="spacing" textLength="116.0098" x="453" y="416.3638">Record start_time</text><path d="M375.9834,436.4297 L445.4346,436.4297 L445.4346,443.5625 L435.4346,453.5625 L375.9834,453.5625 L375.9834,436.4297 " fill="#EEEEEE" style="stroke:#000000;stroke-width:1.5;"/><rect fill="transparent" height="88.3984" style="stroke:#000000;stroke-width:1.5;" width="319.0171" x="375.9834" y="436.4297"/><text fill="#000000" font-family="sans-serif" font-size="13" font-weight="bold" lengthAdjust="spacing" textLength="24.4512" x="390.9834" y="449.4966">opt</text><text fill="#000000" font-family="sans-serif" font-size="11" font-weight="bold" lengthAdjust="spacing" textLength="229.5659" x="460.4346" y="448.6401">[Any of the deadline monitors failed]</text><polygon fill="#181818" points="605.8086,470.6953,615.8086,474.6953,605.8086,478.6953,609.8086,474.6953" style="stroke:#181818;stroke-width:1;"/><line style="stroke:#181818;stroke-width:1;stroke-dasharray:2.0,2.0;" x1="442.5781" x2="611.8086" y1="474.6953" y2="474.6953"/><text fill="#000000" font-family="sans-serif" font-size="13" lengthAdjust="spacing" textLength="144.4663" x="449.5781" y="469.6294">Error notification (IPC)</text><line style="stroke:#181818;stroke-width:1;" x1="442.5781" x2="484.5781" y1="503.8281" y2="503.8281"/><line style="stroke:#181818;stroke-width:1;" x1="484.5781" x2="484.5781" y1="503.8281" y2="516.8281"/><line style="stroke:#181818;stroke-width:1;" x1="443.5781" x2="484.5781" y1="516.8281" y2="516.8281"/><polygon fill="#181818" points="453.5781,512.8281,443.5781,516.8281,453.5781,520.8281,449.5781,516.8281" style="stroke:#181818;stroke-width:1;"/><text fill="#000000" font-family="sans-serif" font-size="13" lengthAdjust="spacing" textLength="37.0894" x="449.5781" y="498.7622">break</text><path d="M375.9834,538.8281 L445.4346,538.8281 L445.4346,545.9609 L435.4346,555.9609 L375.9834,555.9609 L375.9834,538.8281 " fill="#EEEEEE" style="stroke:#000000;stroke-width:1.5;"/><rect fill="transparent" height="88.3984" style="stroke:#000000;stroke-width:1.5;" width="314.856" x="375.9834" y="538.8281"/><text fill="#000000" font-family="sans-serif" font-size="13" font-weight="bold" lengthAdjust="spacing" textLength="24.4512" x="390.9834" y="551.895">opt</text><text fill="#000000" font-family="sans-serif" font-size="11" font-weight="bold" lengthAdjust="spacing" textLength="205.5947" x="460.4346" y="551.0386">[Any of the logic monitors failed]</text><polygon fill="#181818" points="605.8086,573.0938,615.8086,577.0938,605.8086,581.0938,609.8086,577.0938" style="stroke:#181818;stroke-width:1;"/><line style="stroke:#181818;stroke-width:1;stroke-dasharray:2.0,2.0;" x1="442.5781" x2="611.8086" y1="577.0938" y2="577.0938"/><text fill="#000000" font-family="sans-serif" font-size="13" lengthAdjust="spacing" textLength="144.4663" x="449.5781" y="572.0278">Error notification (IPC)</text><line style="stroke:#181818;stroke-width:1;" x1="442.5781" x2="484.5781" y1="606.2266" y2="606.2266"/><line style="stroke:#181818;stroke-width:1;" x1="484.5781" x2="484.5781" y1="606.2266" y2="619.2266"/><line style="stroke:#181818;stroke-width:1;" x1="443.5781" x2="484.5781" y1="619.2266" y2="619.2266"/><polygon fill="#181818" points="453.5781,615.2266,443.5781,619.2266,453.5781,623.2266,449.5781,619.2266" style="stroke:#181818;stroke-width:1;"/><text fill="#000000" font-family="sans-serif" font-size="13" lengthAdjust="spacing" textLength="37.0894" x="449.5781" y="601.1606">break</text><path d="M375.9834,641.2266 L445.4346,641.2266 L445.4346,648.3594 L435.4346,658.3594 L375.9834,658.3594 L375.9834,641.2266 " fill="#EEEEEE" style="stroke:#000000;stroke-width:1.5;"/><rect fill="transparent" height="88.3984" style="stroke:#000000;stroke-width:1.5;" width="326.9663" x="375.9834" y="641.2266"/><text fill="#000000" font-family="sans-serif" font-size="13" font-weight="bold" lengthAdjust="spacing" textLength="24.4512" x="390.9834" y="654.2935">opt</text><text fill="#000000" font-family="sans-serif" font-size="11" font-weight="bold" lengthAdjust="spacing" textLength="237.5151" x="460.4346" y="653.437">[Any of the heartbeat monitors failed]</text><polygon fill="#181818" points="605.8086,675.4922,615.8086,679.4922,605.8086,683.4922,609.8086,679.4922" style="stroke:#181818;stroke-width:1;"/><line style="stroke:#181818;stroke-width:1;stroke-dasharray:2.0,2.0;" x1="442.5781" x2="611.8086" y1="679.4922" y2="679.4922"/><text fill="#000000" font-family="sans-serif" font-size="13" lengthAdjust="spacing" textLength="144.4663" x="449.5781" y="674.4263">Error notification (IPC)</text><line style="stroke:#181818;stroke-width:1;" x1="442.5781" x2="484.5781" y1="708.625" y2="708.625"/><line style="stroke:#181818;stroke-width:1;" x1="484.5781" x2="484.5781" y1="708.625" y2="721.625"/><line style="stroke:#181818;stroke-width:1;" x1="443.5781" x2="484.5781" y1="721.625" y2="721.625"/><polygon fill="#181818" points="453.5781,717.625,443.5781,721.625,453.5781,725.625,449.5781,721.625" style="stroke:#181818;stroke-width:1;"/><text fill="#000000" font-family="sans-serif" font-size="13" lengthAdjust="spacing" textLength="37.0894" x="449.5781" y="703.5591">break</text><path d="M447,741.625 L447,766.625 L785,766.625 L785,751.625 L775,741.625 L447,741.625 " fill="#FEFFDD" style="stroke:#181818;stroke-width:0.5;"/><path d="M775,741.625 L775,751.625 L785,751.625 L775,741.625 " fill="#FEFFDD" style="stroke:#181818;stroke-width:0.5;"/><text fill="#000000" font-family="sans-serif" font-size="13" lengthAdjust="spacing" textLength="317.3003" x="453" y="758.6919">accumulated_time += internal_processing_cycle</text><path d="M375.9834,778.7578 L445.4346,778.7578 L445.4346,785.8906 L435.4346,795.8906 L375.9834,795.8906 L375.9834,778.7578 " fill="#EEEEEE" style="stroke:#000000;stroke-width:1.5;"/><rect fill="transparent" height="88.3984" style="stroke:#000000;stroke-width:1.5;" width="365.5415" x="375.9834" y="778.7578"/><text fill="#000000" font-family="sans-serif" font-size="13" font-weight="bold" lengthAdjust="spacing" textLength="24.4512" x="390.9834" y="791.8247">opt</text><text fill="#000000" font-family="sans-serif" font-size="11" font-weight="bold" lengthAdjust="spacing" textLength="276.0903" x="460.4346" y="790.9683">[accumulated_time == supervisor_api_cycle]</text><polygon fill="#181818" points="605.8086,813.0234,615.8086,817.0234,605.8086,821.0234,609.8086,817.0234" style="stroke:#181818;stroke-width:1;"/><line style="stroke:#181818;stroke-width:1;stroke-dasharray:2.0,2.0;" x1="442.5781" x2="611.8086" y1="817.0234" y2="817.0234"/><text fill="#000000" font-family="sans-serif" font-size="13" lengthAdjust="spacing" textLength="144.0728" x="449.5781" y="811.9575">Alive notification (IPC)</text><line style="stroke:#181818;stroke-width:1;stroke-dasharray:2.0,2.0;" x1="442.5781" x2="484.5781" y1="846.1563" y2="846.1563"/><line style="stroke:#181818;stroke-width:1;stroke-dasharray:2.0,2.0;" x1="484.5781" x2="484.5781" y1="846.1563" y2="859.1563"/><line style="stroke:#181818;stroke-width:1;stroke-dasharray:2.0,2.0;" x1="443.5781" x2="484.5781" y1="859.1563" y2="859.1563"/><polygon fill="#181818" points="453.5781,855.1563,443.5781,859.1563,453.5781,863.1563,449.5781,859.1563" style="stroke:#181818;stroke-width:1;"/><text fill="#000000" font-family="sans-serif" font-size="13" lengthAdjust="spacing" textLength="161.2305" x="449.5781" y="841.0903">Reset accumulated_time</text><path d="M447,879.1563 L447,934.1563 L824,934.1563 L824,889.1563 L814,879.1563 L447,879.1563 " fill="#FEFFDD" style="stroke:#181818;stroke-width:0.5;"/><path d="M814,879.1563 L814,889.1563 L824,889.1563 L814,879.1563 " fill="#FEFFDD" style="stroke:#181818;stroke-width:0.5;"/><text fill="#000000" font-family="sans-serif" font-size="13" lengthAdjust="spacing" textLength="110.2207" x="453" y="896.2231">Record end_time</text><text fill="#000000" font-family="sans-serif" font-size="13" lengthAdjust="spacing" textLength="245.3433" x="453" y="911.356">elapsed_time = end_time - start_time</text><text fill="#000000" font-family="sans-serif" font-size="13" lengthAdjust="spacing" textLength="356.3892" x="453" y="926.4888">sleep_time = internal_processing_cycle - elapsed_time</text><line style="stroke:#181818;stroke-width:1;" x1="442.5781" x2="484.5781" y1="960.6875" y2="960.6875"/><line style="stroke:#181818;stroke-width:1;" x1="484.5781" x2="484.5781" y1="960.6875" y2="973.6875"/><line style="stroke:#181818;stroke-width:1;" x1="443.5781" x2="484.5781" y1="973.6875" y2="973.6875"/><polygon fill="#181818" points="453.5781,969.6875,443.5781,973.6875,453.5781,977.6875,449.5781,973.6875" style="stroke:#181818;stroke-width:1;"/><text fill="#000000" font-family="sans-serif" font-size="13" lengthAdjust="spacing" textLength="116.7588" x="449.5781" y="955.6216">Sleep(sleep_time)</text><!--SRC=[jLJBRjim4BppAnRknKPhVu015N23eZMG046BtW8OAsej4QP9bWyxxjTtISbE73jfBo6WYtPsPcSvKcqVORHmJYk9KLa3zzvA2c447svLsyLl7Wy2PRGUHhy2-H5WW2GS-gYaScWYZBuJwjZTMQCOzYKftGouRbk_WHmWWam3jNqKvz1RJ4PsTsYm7TZqLeYgWYKtAzJgJpzlLOa4qyzP2-PGrCSXEV8x5QnVeLChUP2QFZsOXmZAHF86zShrDfLf-_8acrGxZ5Icpco5T0w6zizhN89fhpU7CpzC7Y8QIQAXyuQwT2JuluQws3nYRZgIcv1jYjbi1lmi3I3KA3Ujjubt5pjFs0n5eQrriE-K9WXTYetT6r01Z8tWwNUY4AaHm8VV4FXyns3NnUaFajOtm3Fvk8fgImLdNOI5EMHGx0Xur4OhGx3j1momHXRhEVCPzgEPyAltx825rFeOh_7o_cPoXkstNBE7JNdFSRYcgsshv7kAmZNLZdWNDM5yTxkNru5IfctI78gct0Pyh5xFxsduYoxEqhNluT80ntEXrOx-vQ1OW1oNG9TwRvewyGnHOznJKsdKwC9fybCTfYzJcK_GHEu8VNKptFkSzNJTUJPnVYi_C-7uYNQI_qtYBm00]--></g></svg>