<svg xmlns="http://www.w3.org/2000/svg" xmlns:xlink="http://www.w3.org/1999/xlink" contentStyleType="text/css" data-diagram-type="CLASS" height="697px" preserveAspectRatio="none" style="width:911px;height:697px;background:#FFFFFF;" version="1.1" viewBox="0 0 911 697" width="911px" zoomAndPan="magnify"><defs/><g><!--class Status--><g id="elem_Status"><rect codeLine="2" fill="#F1F1F1" height="113.1875" id="Status" rx="2.5" ry="2.5" style="stroke:#181818;stroke-width:0.5;" width="87.6113" x="158.59" y="577"/><ellipse cx="173.59" cy="593" fill="#EB937F" rx="11" ry="11" style="stroke:#181818;stroke-width:1;"/><path d="M177.6994,599 L169.9806,599 L169.9806,586.6094 L177.6994,586.6094 L177.6994,588.7656 L172.4338,588.7656 L172.4338,591.4375 L177.1994,591.4375 L177.1994,593.5938 L172.4338,593.5938 L172.4338,596.8438 L177.6994,596.8438 L177.6994,599 Z " fill="#000000"/><ellipse cx="192.59" cy="592.5" fill="#84BE84" rx="3" ry="3" style="stroke:#038048;stroke-width:1;"/><text fill="#000000" font-family="sans-serif" font-size="14" lengthAdjust="spacing" textLength="44.6113" x="198.59" y="597.8467">Status</text><line style="stroke:#181818;stroke-width:0.5;" x1="159.59" x2="245.2013" y1="609" y2="609"/><text fill="#000000" font-family="sans-serif" font-size="14" lengthAdjust="spacing" textLength="57.9961" x="164.59" y="625.9951">Running</text><text fill="#000000" font-family="sans-serif" font-size="14" lengthAdjust="spacing" textLength="60.8193" x="164.59" y="642.292">Disabled</text><text fill="#000000" font-family="sans-serif" font-size="14" lengthAdjust="spacing" textLength="41.9111" x="164.59" y="658.5889">Failed</text><text fill="#000000" font-family="sans-serif" font-size="14" lengthAdjust="spacing" textLength="58.2148" x="164.59" y="674.8857">Stopped</text><line style="stroke:#181818;stroke-width:0.5;" x1="159.59" x2="245.2013" y1="682.1875" y2="682.1875"/></g><!--class Error--><g id="elem_Error"><rect codeLine="9" fill="#F1F1F1" height="113.1875" id="Error" rx="2.5" ry="2.5" style="stroke:#181818;stroke-width:0.5;" width="116.9863" x="178.09" y="403"/><ellipse cx="210.7784" cy="419" fill="#EB937F" rx="11" ry="11" style="stroke:#181818;stroke-width:1;"/><path d="M214.8878,425 L207.1691,425 L207.1691,412.6094 L214.8878,412.6094 L214.8878,414.7656 L209.6222,414.7656 L209.6222,417.4375 L214.3878,417.4375 L214.3878,419.5938 L209.6222,419.5938 L209.6222,422.8438 L214.8878,422.8438 L214.8878,425 Z " fill="#000000"/><ellipse cx="233.7092" cy="418.5" fill="#84BE84" rx="3" ry="3" style="stroke:#038048;stroke-width:1;"/><text fill="#000000" font-family="sans-serif" font-size="14" lengthAdjust="spacing" textLength="34.6787" x="239.7092" y="423.8467">Error</text><line style="stroke:#181818;stroke-width:0.5;" x1="179.09" x2="294.0763" y1="435" y2="435"/><text fill="#000000" font-family="sans-serif" font-size="14" lengthAdjust="spacing" textLength="104.9863" x="184.09" y="451.9951">BadParameter,</text><text fill="#000000" font-family="sans-serif" font-size="14" lengthAdjust="spacing" textLength="83.8496" x="184.09" y="468.292">NotAllowed,</text><text fill="#000000" font-family="sans-serif" font-size="14" lengthAdjust="spacing" textLength="102.7168" x="184.09" y="484.5889">OutOfMemory,</text><text fill="#000000" font-family="sans-serif" font-size="14" lengthAdjust="spacing" textLength="58.7412" x="184.09" y="500.8857">Generic,</text><line style="stroke:#181818;stroke-width:0.5;" x1="179.09" x2="294.0763" y1="508.1875" y2="508.1875"/></g><!--class LogicMonitorState--><g id="elem_LogicMonitorState"><rect codeLine="16" fill="#F1F1F1" height="64.2969" id="LogicMonitorState" rx="2.5" ry="2.5" style="stroke:#181818;stroke-width:0.5;" width="225.6777" x="481.59" y="601.5"/><ellipse cx="521.5936" cy="617.5" fill="#ADD1B2" rx="11" ry="11" style="stroke:#181818;stroke-width:1;"/><path d="M524.5623,623.1406 Q523.9842,623.4375 523.3436,623.5781 Q522.7029,623.7344 521.9998,623.7344 Q519.4998,623.7344 518.1717,622.0938 Q516.8592,620.4375 516.8592,617.3125 Q516.8592,614.1875 518.1717,612.5313 Q519.4998,610.875 521.9998,610.875 Q522.7029,610.875 523.3436,611.0313 Q523.9998,611.1875 524.5623,611.4844 L524.5623,614.2031 Q523.9373,613.625 523.3436,613.3594 Q522.7498,613.0781 522.1248,613.0781 Q520.7811,613.0781 520.0936,614.1563 Q519.4061,615.2188 519.4061,617.3125 Q519.4061,619.4063 520.0936,620.4844 Q520.7811,621.5469 522.1248,621.5469 Q522.7498,621.5469 523.3436,621.2813 Q523.9373,621 524.5623,620.4219 L524.5623,623.1406 Z " fill="#000000"/><ellipse cx="546.1499" cy="617" fill="#84BE84" rx="3" ry="3" style="stroke:#038048;stroke-width:1;"/><text fill="#000000" font-family="sans-serif" font-size="14" lengthAdjust="spacing" textLength="127.1143" x="552.1499" y="622.3467">LogicMonitorState</text><line style="stroke:#181818;stroke-width:0.5;" x1="482.59" x2="706.2677" y1="633.5" y2="633.5"/><line style="stroke:#181818;stroke-width:0.5;" x1="482.59" x2="706.2677" y1="641.5" y2="641.5"/><ellipse cx="492.59" cy="655.1484" fill="#84BE84" rx="3" ry="3" style="stroke:#038048;stroke-width:1;"/><text fill="#000000" font-family="sans-serif" font-size="14" lengthAdjust="spacing" textLength="199.6777" x="501.59" y="658.4951">from_str(name: &amp;str) -&gt; Self</text></g><!--class LogicMonitorHook--><g id="elem_LogicMonitorHook"><rect codeLine="20" fill="#F1F1F1" height="80.5938" id="LogicMonitorHook" rx="2.5" ry="2.5" style="stroke:#181818;stroke-width:0.5;" width="528.2979" x="330.59" y="419"/><ellipse cx="522.0778" cy="435" fill="#B4A7E5" rx="11" ry="11" style="stroke:#181818;stroke-width:1;"/><path d="M517.9997,430.7656 L517.9997,428.6094 L525.3903,428.6094 L525.3903,430.7656 L522.9215,430.7656 L522.9215,438.8438 L525.3903,438.8438 L525.3903,441 L517.9997,441 L517.9997,438.8438 L520.4684,438.8438 L520.4684,430.7656 L517.9997,430.7656 Z " fill="#000000"/><ellipse cx="547.5778" cy="434.5" fill="#84BE84" rx="3" ry="3" style="stroke:#038048;stroke-width:1;"/><text fill="#000000" font-family="sans-serif" font-size="14" font-style="italic" lengthAdjust="spacing" textLength="125.8223" x="553.5778" y="439.8467">LogicMonitorHook</text><line style="stroke:#181818;stroke-width:0.5;" x1="331.59" x2="857.8879" y1="451" y2="451"/><line style="stroke:#181818;stroke-width:0.5;" x1="331.59" x2="857.8879" y1="459" y2="459"/><ellipse cx="341.59" cy="472.6484" fill="#84BE84" rx="3" ry="3" style="stroke:#038048;stroke-width:1;"/><text fill="#000000" font-family="sans-serif" font-size="14" lengthAdjust="spacing" textLength="344.8457" x="350.59" y="475.9951">on_status_change(&amp;self, from: Status, to: Status)</text><ellipse cx="341.59" cy="488.9453" fill="#84BE84" rx="3" ry="3" style="stroke:#038048;stroke-width:1;"/><text fill="#000000" font-family="sans-serif" font-size="14" lengthAdjust="spacing" textLength="502.2979" x="350.59" y="492.292">on_state_change(&amp;self, from: LogicMonitorState, to: LogicMonitorState)</text></g><!--class LogicMonitorBuilder--><g id="elem_LogicMonitorBuilder"><rect codeLine="25" fill="#F1F1F1" height="113.1875" id="LogicMonitorBuilder" rx="2.5" ry="2.5" style="stroke:#181818;stroke-width:0.5;" width="637.7412" x="231.59" y="7"/><ellipse cx="470.9259" cy="23" fill="#ADD1B2" rx="11" ry="11" style="stroke:#181818;stroke-width:1;"/><path d="M473.8947,28.6406 Q473.3166,28.9375 472.6759,29.0781 Q472.0353,29.2344 471.3322,29.2344 Q468.8322,29.2344 467.5041,27.5938 Q466.1916,25.9375 466.1916,22.8125 Q466.1916,19.6875 467.5041,18.0313 Q468.8322,16.375 471.3322,16.375 Q472.0353,16.375 472.6759,16.5313 Q473.3322,16.6875 473.8947,16.9844 L473.8947,19.7031 Q473.2697,19.125 472.6759,18.8594 Q472.0822,18.5781 471.4572,18.5781 Q470.1134,18.5781 469.4259,19.6563 Q468.7384,20.7188 468.7384,22.8125 Q468.7384,24.9063 469.4259,25.9844 Q470.1134,27.0469 471.4572,27.0469 Q472.0822,27.0469 472.6759,26.7813 Q473.2697,26.5 473.8947,25.9219 L473.8947,28.6406 Z " fill="#000000"/><ellipse cx="496.4259" cy="22.5" fill="#84BE84" rx="3" ry="3" style="stroke:#038048;stroke-width:1;"/><text fill="#000000" font-family="sans-serif" font-size="14" lengthAdjust="spacing" textLength="139.5693" x="502.4259" y="27.8467">LogicMonitorBuilder</text><line style="stroke:#181818;stroke-width:0.5;" x1="232.59" x2="868.3312" y1="39" y2="39"/><line style="stroke:#181818;stroke-width:0.5;" x1="232.59" x2="868.3312" y1="47" y2="47"/><ellipse cx="242.59" cy="60.6484" fill="#84BE84" rx="3" ry="3" style="stroke:#038048;stroke-width:1;"/><text fill="#000000" font-family="sans-serif" font-size="14" lengthAdjust="spacing" textLength="309.1074" x="251.59" y="63.9951">new(initial_state: LogicMonitorState) -&gt; Self</text><ellipse cx="242.59" cy="76.9453" fill="#84BE84" rx="3" ry="3" style="stroke:#038048;stroke-width:1;"/><text fill="#000000" font-family="sans-serif" font-size="14" lengthAdjust="spacing" textLength="611.7412" x="251.59" y="80.292">add_transition(&amp;mut self, from: LogicMonitorState, to: LogicMonitorState) -&gt; &amp;mut Self</text><ellipse cx="242.59" cy="93.2422" fill="#84BE84" rx="3" ry="3" style="stroke:#038048;stroke-width:1;"/><text fill="#000000" font-family="sans-serif" font-size="14" lengthAdjust="spacing" textLength="500.2607" x="251.59" y="96.5889">add_hook(&amp;mut self, hook: Box&lt;dyn LogicMonitorHook&gt;) -&gt; &amp;mut Self</text><ellipse cx="242.59" cy="109.5391" fill="#84BE84" rx="3" ry="3" style="stroke:#038048;stroke-width:1;"/><text fill="#000000" font-family="sans-serif" font-size="14" lengthAdjust="spacing" textLength="296.7412" x="251.59" y="112.8857">build(self) -&gt; Result&lt;LogicMonitor, Error&gt;</text></g><!--class LogicMonitor--><g id="elem_LogicMonitor"><rect codeLine="32" fill="#F1F1F1" height="129.4844" id="LogicMonitor" rx="2.5" ry="2.5" style="stroke:#181818;stroke-width:0.5;" width="446.0342" x="7.59" y="197"/><ellipse cx="175.8288" cy="213" fill="#ADD1B2" rx="11" ry="11" style="stroke:#181818;stroke-width:1;"/><path d="M178.7975,218.6406 Q178.2194,218.9375 177.5788,219.0781 Q176.9381,219.2344 176.235,219.2344 Q173.735,219.2344 172.4069,217.5938 Q171.0944,215.9375 171.0944,212.8125 Q171.0944,209.6875 172.4069,208.0313 Q173.735,206.375 176.235,206.375 Q176.9381,206.375 177.5788,206.5313 Q178.235,206.6875 178.7975,206.9844 L178.7975,209.7031 Q178.1725,209.125 177.5788,208.8594 Q176.985,208.5781 176.36,208.5781 Q175.0163,208.5781 174.3288,209.6563 Q173.6413,210.7188 173.6413,212.8125 Q173.6413,214.9063 174.3288,215.9844 Q175.0163,217.0469 176.36,217.0469 Q176.985,217.0469 177.5788,216.7813 Q178.1725,216.5 178.7975,215.9219 L178.7975,218.6406 Z " fill="#000000"/><ellipse cx="201.3288" cy="212.5" fill="#84BE84" rx="3" ry="3" style="stroke:#038048;stroke-width:1;"/><text fill="#000000" font-family="sans-serif" font-size="14" lengthAdjust="spacing" textLength="90.0566" x="207.3288" y="217.8467">LogicMonitor</text><line style="stroke:#181818;stroke-width:0.5;" x1="8.59" x2="452.6242" y1="229" y2="229"/><line style="stroke:#181818;stroke-width:0.5;" x1="8.59" x2="452.6242" y1="237" y2="237"/><ellipse cx="18.59" cy="250.6484" fill="#84BE84" rx="3" ry="3" style="stroke:#038048;stroke-width:1;"/><text fill="#000000" font-family="sans-serif" font-size="14" lengthAdjust="spacing" textLength="420.0342" x="27.59" y="253.9951">transition(&amp;self, to: LogicMonitorState) -&gt; Result&lt;(), Error&gt;</text><ellipse cx="18.59" cy="266.9453" fill="#84BE84" rx="3" ry="3" style="stroke:#038048;stroke-width:1;"/><text fill="#000000" font-family="sans-serif" font-size="14" lengthAdjust="spacing" textLength="241.5547" x="27.59" y="270.292">enable(&amp;self) -&gt; Result&lt;(), Error&gt;</text><ellipse cx="18.59" cy="283.2422" fill="#84BE84" rx="3" ry="3" style="stroke:#038048;stroke-width:1;"/><text fill="#000000" font-family="sans-serif" font-size="14" lengthAdjust="spacing" textLength="244.1387" x="27.59" y="286.5889">disable(&amp;self) -&gt; Result&lt;(), Error&gt;</text><ellipse cx="18.59" cy="299.5391" fill="#84BE84" rx="3" ry="3" style="stroke:#038048;stroke-width:1;"/><text fill="#000000" font-family="sans-serif" font-size="14" lengthAdjust="spacing" textLength="159.8789" x="27.59" y="302.8857">status(&amp;self) -&gt; Status</text><ellipse cx="18.59" cy="315.8359" fill="#84BE84" rx="3" ry="3" style="stroke:#038048;stroke-width:1;"/><text fill="#000000" font-family="sans-serif" font-size="14" lengthAdjust="spacing" textLength="234.8281" x="27.59" y="319.1826">state(&amp;self) -&gt; LogicMonitorState</text></g><!--link LogicMonitorBuilder to Error--><g id="link_LogicMonitorBuilder_Error"><path codeLine="40" d="M544.69,120.25 C535.13,199.47 513.62,338.81 477.59,373 C423.52,424.3 381.09,373.61 312.59,403 C306.73,405.51 306.0744,405.5126 300.3844,408.8526 " fill="transparent" id="LogicMonitorBuilder-to-Error" style="stroke:#181818;stroke-width:1;stroke-dasharray:7.0,7.0;"/><polygon fill="#181818" points="295.21,411.89,304.9965,410.7836,299.522,409.3589,300.9467,403.8844,295.21,411.89" style="stroke:#181818;stroke-width:1;"/></g><!--reverse link LogicMonitorBuilder to LogicMonitorState--><g id="link_LogicMonitorBuilder_LogicMonitorState"><path codeLine="41" d="M642.383,127.4326 C721.883,186.8326 827.69,281.74 876.59,403 C895.37,449.58 904.51,474.25 876.59,516 C838.97,572.25 768.67,601.37 707.68,616.43 " fill="transparent" id="LogicMonitorBuilder-backto-LogicMonitorState" style="stroke:#181818;stroke-width:1;"/><polygon fill="#181818" points="632.77,120.25,635.1823,127.0456,642.383,127.4326,639.9707,120.6369,632.77,120.25" style="stroke:#181818;stroke-width:1;"/><text fill="#000000" font-family="sans-serif" font-size="13" lengthAdjust="spacing" textLength="33.5981" x="862.59" y="369.0669">owns</text><text fill="#000000" font-family="sans-serif" font-size="13" lengthAdjust="spacing" textLength="23.0356" x="715.2831" y="611.9947">1..*</text></g><!--reverse link LogicMonitorBuilder to LogicMonitorHook--><g id="link_LogicMonitorBuilder_LogicMonitorHook"><path codeLine="42" d="M558.1312,132.0359 C567.1412,212.7559 582.3,348.46 590.18,418.97 " fill="transparent" id="LogicMonitorBuilder-backto-LogicMonitorHook" style="stroke:#181818;stroke-width:1;"/><polygon fill="#181818" points="556.8,120.11,553.4903,126.5167,558.1312,132.0359,561.4409,125.6292,556.8,120.11" style="stroke:#181818;stroke-width:1;"/><text fill="#000000" font-family="sans-serif" font-size="13" lengthAdjust="spacing" textLength="33.5981" x="580.59" y="266.0669">owns</text><text fill="#000000" font-family="sans-serif" font-size="13" lengthAdjust="spacing" textLength="23.0356" x="564.4229" y="407.8281">0..*</text></g><!--link LogicMonitorBuilder to LogicMonitor--><g id="link_LogicMonitorBuilder_LogicMonitor"><path codeLine="43" d="M448.74,120.01 C431.54,129.79 413.96,140.03 397.59,150 C373.54,164.65 352.9982,177.7857 329.3082,193.4157 " fill="transparent" id="LogicMonitorBuilder-to-LogicMonitor" style="stroke:#181818;stroke-width:1;stroke-dasharray:7.0,7.0;"/><polygon fill="#181818" points="324.3,196.72,334.0151,195.1024,328.4735,193.9665,329.6094,188.4248,324.3,196.72" style="stroke:#181818;stroke-width:1;"/><text fill="#000000" font-family="sans-serif" font-size="13" lengthAdjust="spacing" textLength="81.6943" x="398.59" y="163.0669">&#171;consumes&#187;</text></g><!--reverse link LogicMonitor to Status--><g id="link_LogicMonitor_Status"><path codeLine="44" d="M86.3821,333.1613 C58.6921,353.4013 43.46,371.77 29.59,403 C9.21,448.9 6,471.67 29.59,516 C56.64,566.82 116.82,599.46 158.55,616.89 " fill="transparent" id="LogicMonitor-backto-Status" style="stroke:#181818;stroke-width:1;"/><polygon fill="#181818" points="96.07,326.08,88.8656,326.3914,86.3821,333.1613,93.5865,332.85,96.07,326.08" style="stroke:#181818;stroke-width:1;"/><text fill="#000000" font-family="sans-serif" font-size="13" lengthAdjust="spacing" textLength="33.5981" x="30.59" y="464.0669">owns</text></g><!--reverse link LogicMonitor to LogicMonitorState--><g id="link_LogicMonitor_LogicMonitorState"><path codeLine="45" d="M162.8254,335.3735 C118.6654,389.8735 81.06,459.06 125.59,516 C147.7,544.27 349.82,586.8 481.41,611.9 " fill="transparent" id="LogicMonitor-backto-LogicMonitorState" style="stroke:#181818;stroke-width:1;"/><polygon fill="#181818" points="170.38,326.05,163.4949,328.1936,162.8254,335.3735,169.7105,333.23,170.38,326.05" style="stroke:#181818;stroke-width:1;"/><text fill="#000000" font-family="sans-serif" font-size="13" lengthAdjust="spacing" textLength="33.5981" x="126.59" y="464.0669">owns</text><text fill="#000000" font-family="sans-serif" font-size="13" lengthAdjust="spacing" textLength="23.0356" x="450.4342" y="607.0974">1..*</text></g><!--reverse link LogicMonitor to LogicMonitorHook--><g id="link_LogicMonitor_LogicMonitorHook"><path codeLine="46" d="M359.0856,331.6893 C415.8756,362.2693 471.64,392.3 521.12,418.94 " fill="transparent" id="LogicMonitor-backto-LogicMonitorHook" style="stroke:#181818;stroke-width:1;"/><polygon fill="#181818" points="348.52,326,351.9064,332.3665,359.0856,331.6893,355.6992,325.3228,348.52,326" style="stroke:#181818;stroke-width:1;"/><text fill="#000000" font-family="sans-serif" font-size="13" lengthAdjust="spacing" textLength="33.5981" x="435.59" y="369.0669">owns</text><text fill="#000000" font-family="sans-serif" font-size="13" lengthAdjust="spacing" textLength="23.0356" x="483.4932" y="407.7929">0..*</text></g><!--link LogicMonitor to Error--><g id="link_LogicMonitor_Error"><path codeLine="47" d="M232.54,326.14 C233.29,350.84 233.9667,372.8828 234.6967,396.7728 " fill="transparent" id="LogicMonitor-to-Error" style="stroke:#181818;stroke-width:1;stroke-dasharray:7.0,7.0;"/><polygon fill="#181818" points="234.88,402.77,238.6033,393.652,234.7273,397.7723,230.607,393.8964,234.88,402.77" style="stroke:#181818;stroke-width:1;"/></g><!--link LogicMonitorHook to Status--><g id="link_LogicMonitorHook_Status"><path codeLine="48" d="M504.17,500.18 C423.56,535.54 314.4844,583.3992 252.3344,610.6692 " fill="transparent" id="LogicMonitorHook-to-Status" style="stroke:#181818;stroke-width:1;stroke-dasharray:7.0,7.0;"/><polygon fill="#181818" points="246.84,613.08,256.6887,613.1267,251.4186,611.071,253.4743,605.8009,246.84,613.08" style="stroke:#181818;stroke-width:1;"/></g><!--link LogicMonitorHook to LogicMonitorState--><g id="link_LogicMonitorHook_LogicMonitorState"><path codeLine="49" d="M594.59,500.39 C594.59,531.16 594.59,567.1 594.59,595.4 " fill="transparent" id="LogicMonitorHook-to-LogicMonitorState" style="stroke:#181818;stroke-width:1;stroke-dasharray:7.0,7.0;"/><polygon fill="#181818" points="594.59,601.4,598.59,592.4,594.59,596.4,590.59,592.4,594.59,601.4" style="stroke:#181818;stroke-width:1;"/></g><!--SRC=[dPJ9JiCm48RlVGghXofjqmgkKHM9Ykq05BKFKBd9jBL8PYhRKK68TyTB0ecIW22diSV_Dul7cG8METjehWl5tWVCVEi2KU31sTT2yLq6gLlSSb6P6qsdax4_1eEf8zn8IR84B7dwp2NFGOCCtSuJwQiiepEaVhqgz6h_23d9Dxzn1mXI9A439XbNYZtGGIIFX4AJjFb1IP_k9ULRfMM09aJ4HiOSirdCDf3jdLwW2Rpd2JGOzqGl5OBG06p9s-J8yG31I1bno2mwAhiHCasLFMx8e5FLojS3MjlZdXgNXSXIg7euHJW7mZW4ptpGBjHNsKx2qtIh9KTbL8J1A2yq-rU65klKJVRHTB1EjUk8BUbraRvXgzTn5sPdYmoit7dNe8fCB-hIq8zItDEbgZtrEdqs_QMKKOBn5ziX0EreU_bFvrB_1du_w4UgTiuFpxUppcYbQWlkceVvFFPHEhsJsOmDB-VpoR3ZmKICpgZwTHSjdNiaFyXiCethYDXYaH2g8WSLnmsDYr7-MJgGVqxzhpdtTCuTjwxoTZfzhOG-0G00]--></g></svg>